<?xml version="1.0" encoding="UTF-8"?>
<!DOCTYPE svg PUBLIC "-//W3C//DTD SVG 1.1//EN"
    "http://www.w3.org/Graphics/SVG/1.1/DTD/svg11.dtd">
<svg xmlns="http://www.w3.org/2000/svg" xmlns:xlink="http://www.w3.org/1999/xlink" version="1.1" width="400.0" height="400.0" viewBox="0 0 400 400"><g fill="rgb(0,0,0)" fill-opacity="0" fill-rule="nonzero" font-family="Sans" font-size="1" font-style="normal" opacity="1" stroke="rgb(0,0,0)" stroke-opacity="1" stroke-width="0.5" stroke-linecap="butt" stroke-linejoin="miter" text-anchor="middle"><path d="M 184.46500410416073,115.82589476285162 h 10.356663933222093 h 10.356663933222093 l 10.356460316820167,6.494252714856674e-2 l 10.343635173427424,0.5193257404927232 l 10.208581329610551,1.7450945711995625 l 9.533782284595576,4.045674625527224 l 7.33473869483303,7.311777903097328 l 2.223095903865972,10.115252464863032 l -5.675999231276911,8.662766333697753 l -10.332036034810624,-0.7138061369013612 l -1.4563733712127396,-10.253753675085322 l 10.355849475620758,-0.1298825007019261 l -4.894621797997992,9.127056769861039 l -1.6489972222727098,-10.224543803350846 l 3.65383290741383,9.690716841926768 l -0.7461968353697113,-10.329747243209175 l -7.00682996496504,7.626586501690736 l 8.819461213175318,5.42932700571622 l 8.499174186179216,-5.918152243622003 l 4.430796149295569,-9.361011340079173 l 5.837948684702219,-8.554463336790153 l 10.304581674595704,-1.037344849743658 l 0.48689261406072615,10.34521258399635 l -7.242465175244429,-7.403187557469755 l 6.464525243937729,8.091378201282842 l 2.977236715475934,-9.919503483830498 l -8.608995660816065,-5.757228633444521 l -10.016264843861814,-2.6334248429224574 l -6.413660328819069,-8.131755592259015 l 8.68051981133819,-5.6488108156202665 l -5.566913465588123,8.733267561019582 l 9.768568175347596,-3.440285399394858 l -1.198751677529693,-10.287054108991702 l -3.0393794492969786,-9.900639392932888 l 6.862127817116608,-7.757041294672716 l 1.5848507480126521,10.234682991291281 l 2.5390970936785324,-10.040591306022595 l -9.558963665534561,-3.985812522772915 l -9.810944445257153,-3.317507636431469 l 0.8109559080972781,-10.324865051942588 l 3.163303945204023,9.861744063600513 l 7.195900335760543,-7.448456630974272 l 2.1596234651688424,-10.128993746389392 l 9.632248722353417,-3.8052953073873623 l -5.997832214471135,8.443133100499814 l 10.316780612315087,0.9080339327705965 l 9.702125134874679,-3.6234314803699954 l 6.515135968444814,8.05068265045766 l -7.735488222771971,-6.886414871401478 l -7.149052547375944,7.4934328248514275 l -8.8868566115303,5.318295534454952 l 3.247142317407874e-2,-10.356613028996515 l -7.821242145358005,6.788862874545267 l -4.837293418784406,9.157569557818732 l -9.080615059954457,-4.980252800675043 l 6.103245527856681,8.367250555134627 l 9.982451481827079,2.75883131754583 l -1.0050316222788378,10.307783431170975 l 4.606100490819377,-9.276008090454471 l -1.7770931311440412,-10.203059728774695 l 10.161603329093953,-2.000576318926619 l -9.402272552048554,-4.342552093262401 l -10.197437829454044,-1.8090742218391382 l 6.207698911530504,-8.290051993171472 l -9.891061312452232,-3.0704061521261368 l -7.515810538821746,-7.125523122567161 l 9.172690994957913,4.80855776056827 l 9.14235809960878,-4.865981525265076 l 5.4016485143835755,8.836440525050856 l 3.470896046609193,-9.757733776822155 l 6.259560489811933,-8.250962992286942 l -4.13516877200214,9.495307633392487 l 3.409640933364641,9.779306546541406 l -10.354831433642753,-0.19481736716031783 l 0.6165932141737357,10.33829292649121 l -8.920030811694774,5.262465025453299 l 10.135715065078656,2.1278552453681803 l 8.386345037792328,6.076981547840942 l -7.470981448666919,-7.172511695311347 l -8.191721659407936,-6.336890726570106 l 9.746803457470936,3.5014725740944943 l 10.258269468679341,-1.424217446061015 l -7.5603441009284,7.078254368222469 l -1.134222077978751,10.2943687569238 l -6.311175936868067,-8.21154955654539 l -10.266998488837503,-1.3598639108056811 l 8.348073820428496,-6.129449511528722 l 2.3497760468593034,-10.08657723686829 l 3.8957262455413453,9.59603068177169 l 7.905765928558812,6.690243112813012 l -9.583769179919228,-3.9257936944946112 l -9.947068061412786,-2.883803878096601 l 9.455992917655404,4.224297073709913 l 6.910634230604936,7.71385910919396 l 9.741299271215421e-2,-10.356205798194345 l 9.261520913189797,-4.635161075976903 l -5.346132505883228,-8.870138389858527 l 10.173948367380694,-1.9368176072038985 l 6.155593241260069,-8.32881502218993 l -4.015763312104145,9.546419896844139 l -6.714997310786326,7.88475103867178 l 10.353406230916363,0.25974457323595873 l 0.35711543457331013,10.350505127388365 l 8.750678673696209,5.5395045424136695 l -9.92878930881017,-2.9461212953577065 l -7.6045803839096955,-7.030707290903182 l -4.075546169004362,9.521050953020742 l -6.665423148178545,-7.926703102893972 l -8.461896706049808,-5.97133083674374 l 3.348251750152507,9.800494785637305 l -9.724655487018557,3.5625220679320955 l -5.730208406627347,8.627004082665117 l 8.424286496960391,-6.024274632089254 l 7.380443746673472,7.265640916525656 l 10.29787430450432,1.1019403950908337 l -8.853332972631799,-5.37391692356831 l 5.512041164597717,-8.768003765138536 l 1.9687066394802202,-10.167825824303335 l -8.952854268673768,5.2064275918899705 l 0.16235073190862398,-10.355391352602375 l 2.91497691419396,-9.937977531440668 l -9.831554331015056,-3.255921875905872 l 10.229663677327105,1.6169319325431728 l 1.7130788565874404,10.214002577678174 l 5.9447707594265005,8.480577129156421 l 4.313051645344894,-9.415841615612011 l 1.5206419560878683,10.244419742820408 l -7.692154166554358,6.93478565664893 l -2.8526024935391683,9.95606080935414 l 10.12217285729562,-2.191370455384284 l -8.536117471581534,5.864740943730063 l -7.778518113033001,-6.837773306488072 l -8.231296732212913,-6.285399106816075 l -7.425858593193797,7.2192182388118145 l 9.655920844145232,-3.744820486659533 l -3.2867309108285814,9.821297660976741 l -10.093894952633542,2.318139881651323 l -9.508226027257608,4.105377648923947 l 1.904909535554876,10.179970898143836 l 4.779774833104641,-9.187722262373999 l -0.5517537618281219,10.341956082483227 l -10.249137084673267,-1.4885149798636508 l -7.288745234866391,-7.357627384348557 l -9.290404082370292,-4.576994626606055 l -7.10192365218308,7.5381143706013 l 10.23960169591338,1.5527539839752817 l -10.032581081371552,-2.5705650490522394 l 9.202663212322921,-4.750944919304124 l 4.253923844899717,9.442701930459148 l -4.489408223046791,9.333043535339538 l -5.891475550991199,8.517687694308606 l -0.8756830933511426,10.319576878231118 l 9.111665718986163,4.923213955451834 l 3.1014026721503045,-9.881386000500246 l -9.31892194497547,4.518648205952517 l 10.219323419699153,-1.681046301947608 l -9.67921328693584,3.6841984164412214 l 5.456952125480899,-8.802395203915399 l 5.065443192725433,9.03336997398949 l -9.608197852375268,3.865620500684797 l -5.784192265339896,-8.59090261051104 l 4.6641760963798315,-9.246942693001959 l 9.871613552182762,-3.132368704681001 l 9.999554758336641,2.696181088267323 l 8.270548143473253,6.2336603398159625 l 6.6155868954953565,7.968343482421764 l 5.621566870833188,8.698187957411248 l 5.234472036698526,8.936486464082206 l 5.178331966606165,8.969134064631215 l 5.121988280138702,9.001428991211624 l 4.7220683026261,9.217513697903419 l 3.5929944341474207,9.713438053639349 l 1.2632341411746812,10.279334965369792 l -2.664816063483359,10.007958991398015 l -7.648517648334912,6.9828837602249045 l -10.340175327670208,-0.5841763592816779 l -4.5478437695072245,-9.30470874739546 l 8.151824481147505,-6.388133174431127 l 5.290406282945748,8.903487473292218 l -10.351573923481807,0.3246615659340925 l 8.030216064651437,-6.540345386959108 l -6.565490512302797,8.009670539951395 l 8.572725109562935,-5.81109903732267 l -10.10823263710702,-2.2547994988086537 l -0.29220450587283814,10.35254096115784 l 9.37485727953385,4.401424634601219 l 10.322271700269349,-0.843323645774155 l 10.327356907759663,0.7785801984716114 l 6.05065782966373,8.405357080697543 l -8.715770598226332,5.594267664743682 l 2.7901159061327023,-9.973752606519204 l -3.77507645198385,9.644132185291756 l 10.079160367681146,-2.3813891131583214 l 0.6814084214760652,-10.334223260063855 l -2.727519608954803,-9.991052227291695 l 3.835476755814348,-9.620270572146667 l 9.232273573173458,4.6931452668531675 l -10.346688298682382,-0.45445470138658695 l 7.863658639845172,6.739685498722597 l 8.309474349709836,-6.181676460088932 l 7.054515503303852,-7.582499511331927 l 10.148858727963612,2.0642563662346136 l -8.071070096148654,6.4898625046111915 l 9.964955686884473,-2.8213730671664288 l -1.327666933297182,-10.271211629595243 l -2.032426332225977,-10.155280942927073 l 9.347073379683692,-4.460124108196069 l -6.9588689120566904,7.670373608274518 l 10.048502829294602,2.5076041783666083 l 9.851777631712139,-3.1942080898087477 l 8.111606766278882,6.439124435430794 l -10.310883859811907,-0.9727085150103413 l 4.372009852912565,9.388611061905737 l 7.989046278343626,6.59057109727125 l -3.714527708838436,9.667614583027955 l 2.0960661081947736,-10.142336747307326 l -10.064029461571176,-2.4445447065518575 l -9.04920734346045,-5.037095818104393 l 8.985325691882196,-5.150185437098849 l -9.78994878485981,-3.378962949711824 l -10.3493345833847,0.38956579272409675 l -0.22728208738395544,-10.35416972424432 l -4.194628776587537,9.469190950251614 l 2.6020077351844706,10.024472234075143 l -9.42931811922359,4.2835087991254355 l 10.336308897447193,-0.6490040078900023 l 7.947562355883846,-6.640537660840522 l 6.813351578939573,7.799918466719056 l -0.9403758462136969,-10.31388292999107 l -3.532014681293908,-9.735777324735176 l 10.28324508054187,1.2309989598755886 l -2.2864809285778596,-10.101113443029586 l 2.4129787699683733,-10.071644417938176 l 0.4220123213105003,10.348062302980468 l 8.785242664993199,5.484523602181551 l -4.951757716329959,9.096185098406366 l 10.185893357396239,-1.8729827381624422 l 10.275323801909867,1.2954569045737705 l -10.290762013271188,1.1664926111716543 l -6.764307434078988,7.842488939295168 l -5.008698927724009,-9.064955757041492 l -8.644927699073573,5.703131850439179 l -9.01744380441959,-5.0937407727364805 l 3.225080834557675,9.8417143545356 l -1.069647879902625,10.30127862154612 l 2.4760866125632917,-10.056315573448764 l 1.3920475203795126,-10.262684421081483 l 1.8410375288271845,10.191715686926965 l 6.362543223209321,8.171813235659297 l -9.91012014775476,-3.008322868770652 l -9.48229589841903,4.164919245379069 l 3.9558225518941685,-9.571413467384472 l -3.955822551948034,-9.571413467362209 l 9.482295898449367,4.16491924531 l 9.910120147766659,-3.0083228687314554 l -6.362543223201037,8.171813235665747 l -1.8410375288976406,10.191715686914238 l -1.3920475206922394,-10.262684421039063 l -2.4760866126769905,-10.056315573420768 l 1.0696478798387206,10.301278621552756 l -3.225080834488322,9.841714354558325 l 9.01744380438189,-5.0937407728032245 l 8.644927698961272,5.703131850609406 l 5.008698927737351,-9.064955757034118 l 6.764307434109196,7.842488939269113 l 10.290762013266848,1.1664926112099365 l -10.275323801903498,1.295456904624286 l -10.185893357397468,-1.8729827381557513 l 4.9517577167093565,9.09618509819983 l -8.785242665009065,5.484523602156137 l -0.4220123211825097,10.348062302985687 l -2.4129787701167733,-10.071644417902622 l 2.2864809285353878,-10.101113443039202 l -10.283245080547616,1.2309989598275781 l 3.532014681267953,-9.735777324744591 l 0.9403758457932944,-10.3138829300294 l -6.813351578879105,7.799918466771875 l -7.947562355823765,-6.64053766091243 l -10.33630889746927,-0.6490040075384019 l 9.42931811924919,4.28350879906908 l -2.602007734951411,10.024472234135636 l 4.194628776711339,9.469190950196772 l 0.22728208733678748,-10.354169724245354 l 10.349334583389469,0.38956579259736923 l 9.789948784786857,-3.3789629499231975 l -8.985325691900163,-5.150185437067499 l 9.049207343489062,-5.037095818052991 l 10.064029461550067,-2.4445447066387547 l -2.09606610829674,-10.142336747286251 l 3.714527709176385,9.667614582898107 l -7.989046278465676,6.5905710971233 l -4.372009852889836,9.38861106191632 l 10.310883859808804,-0.9727085150432243 l -8.111606766289585,6.439124435417312 l -9.85177763181283,-3.194208089498194 l -10.048502829365376,2.5076041780830023 l 6.958868912231771,7.6703736081156775 l -9.347073379696054,-4.460124108170163 l 2.0324263322368856,-10.155280942924888 l 1.3276669334801692,-10.271211629571589 l -9.964955686873761,-2.8213730672042634 l 8.071070096131304,6.48986250463277 l -10.148858727963393,2.064256366235687 l -7.054515503283119,-7.582499511351217 l -8.309474349775568,-6.181676460000573 l -7.8636586398683965,6.739685498695501 l 10.346688298676368,-0.4544547015235212 l -9.232273573161876,4.69314526687595 l -3.835476756030428,-9.620270572060518 l 2.7275196090956504,-9.991052227253245 l -0.6814084217216101,-10.334223260047663 l -10.079160367710537,-2.3813891130339173 l 3.775076452078914,9.644132185254543 l -2.7901159061501777,-9.973752606514314 l 8.715770598281464,5.594267664657785 l -6.0506578294377045,8.405357080860249 l -10.327356907735503,0.778580198792073 l -10.322271700275863,-0.8433236456944405 l -9.37485727946706,4.401424634743481 l 0.2922045058229363,10.35254096115925 l 10.108232637093616,-2.2547994988687443 l -8.572725109669662,-5.811099037165223 l 6.565490512271269,8.009670539977238 l -8.030216064918948,-6.54034538663066 l 10.351573923488921,0.3246615657072715 l -5.290406282710641,8.903487473431918 l -8.151824481123086,-6.388133174462289 l 4.547843769199348,-9.304708747545941 l 10.340175327670853,-0.5841763592702618 l 7.648517648506464,6.982883760036998 l 2.664816063565823,10.007958991376057 l -1.263234141016419,10.27933496538924 l -3.592994434194968,9.713438053621761 l -4.722068302675321,9.217513697878204 l -5.121988279946636,9.001428991320912 l -5.178331966650105,8.969134064605846 l -5.234472036766899,8.936486464042158 l -5.621566870624474,8.698187957546137 l -6.6155868954156425,7.9683434824879456 l -8.270548143351716,6.23366033997721 l -9.999554758322676,2.696181088319119 l -9.871613552216308,-3.132368704575283 l -4.664176096747147,-9.246942692816685 l 5.784192265141454,-8.59090261064465 l 9.608197852378577,3.8656205006765747 l -5.065443192607905,9.033369974055393 l -5.4569521257810365,-8.802395203729331 l 9.679213286930803,3.6841984164544543 l -10.219323419688946,-1.6810463020096538 l 9.318921945032896,4.518648205834087 l -3.101402672441871,-9.881386000408735 l -9.111665718839593,4.923213955723099 l 0.8756830933027677,10.319576878235221 l 5.891475551167663,8.517687694186549 l 4.489408223390852,9.333043535174038 l -4.253923844761374,9.442701930521471 l -9.202663212363994,-4.750944919224568 l 10.032581081397916,-2.57056504894934 l -10.239601695905245,1.552753984028939 l 7.101923652379306,7.538114370416429 l 9.290404082431476,-4.576994626481867 l 7.288745235001534,-7.3576273842146795 l 10.249137084683923,-1.4885149797902704 l 0.5517537624514756,10.341956082449972 l -4.779774833023065,-9.187722262416438 l -1.9049095354990988,10.179970898154272 l 9.508226027323442,4.105377648771471 l 10.093894952534578,2.31813988208224 l 3.2867309111886547,9.821297660856242 l -9.655920844170375,-3.744820486594705 l 7.425858593366309,7.219218238634365 l 8.23129673213867,-6.285399106913303 l 7.778518112961346,-6.837773306569585 l 8.536117471922253,5.864740943234145 l -10.122172857351533,-2.191370455126015 l 2.85260249355775,9.956060809348816 l 7.692154166414787,6.9347856568037445 l -1.5206419555706587,10.24441974289718 l -4.313051645541619,-9.415841615521899 l -5.944770759470817,8.480577129125356 l -1.7130788564633512,10.214002577698986 l -10.229663677344337,1.6169319324341545 l 9.831554331112693,-3.2559218756110453 l -2.914976913593754,-9.93797753161672 l -0.16235073245471537,-10.355391352593815 l 8.952854268987199,5.206427591351 l -1.968706640018632,-10.167825824199088 l -5.512041164263373,-8.768003765348723 l 8.853332972633043,-5.373916923566261 l -10.297874304469005,1.1019403954208775 l -7.380443746365842,7.265640916838145 l -8.42428649701348,-6.024274632015016 l 5.7302084069148815,8.62700408247413 l 9.72465548694541,3.5625220681317673 l -3.348251750678196,9.800494785457706 l 8.461896705857319,-5.971330837016516 l 6.6654231478275605,-7.926703103189108 l 4.075546169227316,9.521050952925306 l 7.604580383854507,-7.0307072909628765 l 9.928789308694054,-2.9461212957490357 l -8.75067867347019,5.5395045427707075 l -0.3571154340253525,10.35050512740727 l -10.353406230916038,0.2597445732489195 l 6.714997310631182,7.884751038803907 l 4.015763312409557,9.546419896715664 l -6.155593240970759,-8.328815022403752 l -10.173948367479797,-1.9368176066833176 l 5.346132506064472,-8.87013838974929 l -9.2615209133147,-4.635161075727336 l -9.74129926890233e-2,-10.356205798194562 l -6.910634230680135,7.713859109126591 l -9.455992917705968,4.22429707359673 l 9.947068061325659,-2.8838038783971234 l 9.58376917975706,-3.925793694890501 l -7.905765928148453,6.690243113297925 l -3.8957262454166885,9.596030681822297 l -2.349776046812948,-10.08657723687909 l -8.348073820726361,-6.12944951112304 l 10.26699848886442,-1.3598639106024701 l 6.311175936835468,-8.211549556570445 l 1.134222078445135,10.294368756872414 l 7.56034410152763,7.078254367582425 l -10.25826946874498,-1.4242174455882448 l -9.746803457371945,3.501472574370048 l 8.191721658956565,-6.3368907271535955 l 7.4709814483774695,-7.172511695612841 l -8.386345037937435,6.0769815476406945 l -10.135715065004261,2.1278552457225537 l 8.920030811515097,5.262465025757856 l -0.6165932137431185,10.338292926516894 l 10.354831433640369,-0.19481736728705143 l -3.4096409330450044,9.779306546652851 l 4.135168771714902,9.495307633517578 l -6.259560490122323,-8.250962992051468 l -3.4708960464721326,-9.757733776870909 l -5.401648514640179,8.836440524893995 l -9.142358099484452,-4.8659815254986665 l -9.172690994780508,4.808557760906679 l 7.515810538238212,-7.125523123182657 l 9.891061312351443,-3.070406152450818 l -6.207698911432208,-8.290051993245077 l 10.197437829368644,-1.8090742223205296 l 9.402272551727982,-4.34255209395649 l -10.16160332919676,-2.0005763184044354 l 1.7770931303514985,-10.203059728912734 l -4.606100490987119,-9.276008090371176 l 1.0050316231828598,10.30778343108283 l -9.982451481729727,2.758831317898083 l -6.103245527222287,8.367250555597368 l 9.080615059581909,-4.98025280135432 l 4.837293418914175,9.157569557750184 l 7.821242145304652,6.788862874606734 l -3.247142308066759e-2,-10.356613028996808 l 8.886856611488598,5.318295534524637 l 7.149052548084691,7.493432824175252 l 7.735488221647378,-6.88641487266473 l -6.515135967929959,8.050682650874315 l -9.702125134915939,-3.623431480259516 l -10.316780612220592,0.9080339338442153 l 5.997832214255302,8.443133100653137 l -9.632248722620766,-3.805295306710628 l -2.159623465413429,-10.128993746337244 l -7.195900336139384,-7.448456630608279 l -3.163303945046575,9.861744063651017 l -0.8109559082810424,-10.324865051928155 l 9.81094444512996,-3.317507636807623 l 9.558963665297345,-3.9858125233418193 l -2.5390970931435524,-10.040591306157884 l -1.584850747692705,10.234682991340824 l -6.86212781850242,-7.757041293446783 l 3.0393794479305627,-9.900639393352362 l 1.1987516774518305,-10.287054109000774 l -9.768568175355322,-3.4402853993729248 l 5.566913465479146,8.733267561089049 l -8.680519811029166,-5.648810816095142 l 6.4136603290311855,-8.131755592091716 l 10.01626484340948,-2.633424844642919 l 8.608995661169002,-5.7572286329167595 l -2.977236715030885,-9.919503483964073 l -6.464525244179075,8.09137820109002 l 7.242465175497779,-7.403187557221905 l -0.4868926148483261,10.345212583959281 l -10.304581674657125,-1.0373448491335153 l -5.8379486847407005,-8.554463336763893 l -4.430796149056987,-9.361011340192098 l -8.49917418657915,-5.918152243047651 l -8.819461212997094,5.429327006005728 l 7.0068299647254735,7.626586501910834 l 0.7461968344436165,-10.329747243276074 l -3.6538329060076,9.690716842456979 l 1.6489972222677016,-10.224543803351654 l 4.894621798941593,9.127056769355008 l -10.355849475631992,-0.12988249980625177 l 1.456373371912651,-10.253753674985912 l 10.33203603483181,-0.7138061365947022 l 5.675999231863799,8.662766333313213 l -2.223095904137734,10.115252464803305 l -7.334738695555127,7.311777902372965 l -9.533782284325154,4.045674626164483 l -10.208581329634617,1.7450945710587746 l -10.343635173432347,0.5193257403947195 l -10.356460316816158,6.494252778784977e-2 l -10.356663933222093,6.766902911902915e-10 l -10.356460316819081,-6.494252732158037e-2 l -10.343635173443191,-0.5193257401786704 l -10.208581329736308,-1.7450945704638954 l -9.533782284961047,-4.045674624665982 l -7.334738695323767,-7.311777902605052 l -2.2230959048851364,-10.115252464639044 l 5.6759992317935515,-8.662766333359242 l 10.33203603475146,0.7138061377577333 l 1.456373371345571,10.253753675066456 l -10.355849475623748,0.12988250046360553 l 4.894621796716617,-9.12705677054821 l 1.6489972212812698,10.224543803510745 l -3.653832906884122,-9.690716842126491 l 0.746196836741792,10.32974724311006 l 7.006829965103967,-7.626586501563098 l -8.81946121348046,-5.429327005220543 l -8.499174186245515,5.918152243526792 l -4.430796149348804,9.361011340053976 l -5.837948684234162,8.554463337109578 l -10.304581674558884,1.0373448501094114 l -0.48689261321865734,-10.34521258403598 l 7.242465175505208,7.403187557214636 l -6.464525244083803,-8.091378201166137 l -2.9772367158189645,9.91950348372754 l 8.608995661346412,5.757228632651473 l 10.016264844249577,2.633424841447599 l 6.413660328789181,8.13175559228259 l -8.6805198115047,5.648810815364389 l 5.56691346513567,-8.733267561307994 l -9.768568175384452,3.440285399290207 l 1.1987516775058888,10.287054108994477 l 3.03937944988013,9.900639392753867 l -6.862127815914076,7.757041295736514 l -1.5848507471797788,-10.234682991420252 l -2.5390970933759247,10.04059130609912 l 9.558963665557817,3.98581252271714 l 9.810944445458222,3.317507635836844 l -0.8109559086812707,10.324865051896719 l -3.1633039462090315,-9.861744063278142 l -7.195900335370675,7.448456631350923 l -2.1596234650727175,10.128993746409888 l -9.632248722523384,3.8052953069571265 l 5.997832214570655,-8.443133100429115 l -10.316780612291096,-0.9080339330431809 l -9.70212513483866,3.623431480466439 l -6.515135969080782,-8.050682649942994 l 7.735488223892946,6.88641487014229 l 7.14905254729724,-7.493432824926515 l 8.886856611158759,-5.318295535075798 l -3.2471423452897004e-2,10.35661302899564 l 7.821242145796041,-6.7888628740406185 l 4.837293417215186,-9.15756955864764 l 9.080615060937177,4.9802527988832255 l -6.103245529764537,-8.367250553742998 l -9.982451481861634,-2.7588313174207975 l 1.0050316222949207,-10.307783431169407 l -4.606100489261847,9.27600809122788 l 1.7770931315200842,10.2030597287092 l -10.161603328987512,2.0005763194672688 l 9.402272551900634,4.342552093582673 l 10.197437829434573,1.8090742219488976 l -6.207698910647559,8.290051993832632 l 9.891061312652221,3.070406151481891 l 7.515810539398184,7.1255231219591515 l -9.172690995611074,-4.808557759322311 l -9.142358099712451,4.865981525070296 l -5.401648514886831,-8.83644052474322 l -3.4708960454378683,9.757733777238805 l -6.259560490497266,8.250962991767018 l 4.135168773000177,-9.495307632957845 l -3.409640933720513,-9.77930654641733 l 10.354831433660278,0.1948173662287944 l -0.6165932145746096,-10.338292926467302 l 8.920030811188983,-5.262465026310628 l -10.135715065599324,-2.127855242888055 l -8.386345039211253,-6.0769815458828 l 7.470981447314842,7.172511696719688 l 8.191721660197866,6.33689072554896 l -9.746803457439757,-3.501472574181287 l -10.258269468549578,1.4242174469956683 l 7.560344101347042,-7.0782543677753145 l 1.1342220780997008,-10.294368756910474 l 6.3111759367262765,8.211549556654365 l 10.266998489024592,1.3598639093931644 l -8.34807381918063,6.129449513228267 l -2.349776045228764,10.086577237248143 l -3.895726243250003,-9.596030682701912 l -7.905765929550607,-6.690243111641021 l 9.583769180473928,3.92579369314046 l 9.947068061280433,2.8838038785531226 l -9.455992917799632,-4.224297073387063 l -6.910634231617745,-7.713859108286611 l -9.741299277801707e-2,10.356205798193725 l -9.261520913942404,4.635161074473114 l 5.346132504800262,8.870138390511244 l -10.173948367199491,1.9368176081557424 l -6.15559324122374,8.32881502221678 l 4.015763311561098,-9.546419897072575 l 6.714997310799831,-7.88475103866028 l -10.353406230928059,-0.2597445727697651 l -0.3571154340341116,-10.350505127406969 l -8.750678674531313,-5.539504541094464 l 9.928789308629606,2.9461212959662326 l 7.604580385497352,7.030707289185938 l 4.075546168417375,-9.521050953272006 l 6.665423147350233,7.9267031035904845 l 8.461896705692702,5.971330837249792 l -3.3482517519013917,-9.800494785039813 l 9.72465548656822,-3.5625220691613824 l 5.730208406638396,-8.627004082657777 l -8.424286496894553,6.0242746321813225 l -7.380443747712668,-7.265640915470039 l -10.297874304667008,-1.101940393570486 l 8.85333297264752,5.373916923542411 l -5.512041165252215,8.768003764727084 l -1.9687066405302323,10.167825824100031 l 8.952854267997546,-5.206427593052785 l -0.16235073037365932,10.35539135262644 l -2.914976912612465,9.937977531904549 l 9.831554331491185,3.255921874468155 l -10.229663677471844,-1.6169319316274655 l -1.7130788563262125,-10.214002577721986 l -5.944770759589689,-8.480577129042029 l -4.313051647860413,9.415841614459744 l -1.5206419563783478,-10.244419742777291 l 7.692154165205147,-6.9347856581454925 l 2.852602491415954,-9.956060809962484 l -10.122172856656126,2.1913704583381755 l 8.536117470466374,-5.8647409453531765 l 7.778518115402996,6.837773303792013 l 8.231296732526987,6.2853991064047685 l 7.425858591666522,-7.219218240382804 l -9.655920843715755,3.7448204877669276 l 3.286730911083973,-9.821297660891275 l 10.093894952623971,-2.3181398816929986 l 9.508226026475402,-4.105377650735569 l -1.9049095359832338,-10.179970898063681 l -4.779774832947039,9.18772226245599 l 0.5517537609319569,-10.341956082531038 l 10.24913708468073,1.4885149798122583 l 7.288745234769839,7.357627384444206 l 9.29040408243461,4.576994626475504 l 7.101923649912751,-7.5381143727402575 l -10.239601695750514,-1.5527539850493124 l 10.032581081848521,2.570565047190689 l -9.202663212421532,4.750944919113114 l -4.253923846756146,-9.44270192962283 l 4.48940822201996,-9.333043535833468 l 5.891475551428147,-8.51768769400638 l 0.8756830918114862,-10.319576878361767 l -9.111665720142797,-4.923213953311184 l -3.1014026703312836,9.88138600107117 l 9.318921945072807,-4.51864820575178 l -10.219323419582881,1.6810463026544336 l 9.679213286206707,-3.684198418356815 l -5.45695212233483,8.802395205865771 l -5.065443193203371,-9.033369973721488 l 9.608197851569491,-3.865620502687599 l 5.78419226619959,8.590902609932215 l -4.664176094759318,9.246942693819348 l -9.871613552338971,3.1323687041887123 l -9.999554758639407,-2.69618108714442 l -8.270548143085417,-6.233660340330523 l -6.6155868963761515,-7.968343481690499 l -5.621566872109237,-8.698187956586548 l -5.23447203694957,-8.936486463935159 l -5.178331966298587,-8.969134064808793 l -5.121988279610846,-9.001428991511984 l -4.722068302111136,-9.217513698167231 l -3.592994435944702,-9.713438052974535 l -1.2632341429896472,-10.279334965146749 l 2.6648160620757286,-10.007958991772824 l 7.648517647947626,-6.982883760649108 l 10.340175327747321,0.584176357916765 l 4.547843770650627,9.304708746836603 l -8.15182448106088,6.38813317454167 l -5.29040628307959,-8.90348747321269 l 10.351573923445203,-0.3246615671012139 l -8.030216064358607,6.540345387318645 l 6.565490511950868,-8.00967054023987 l -8.57272510782299,5.811099039889496 l 10.108232637393995,2.2547994975221566 l 0.2922045039098547,-10.352540961213247 l -9.374857279497219,-4.401424634679246 l -10.32227170027009,0.8433236457651055 l -10.327356907902026,-0.7785801965832647 l -6.050657830312561,-8.405357080230477 l 8.715770596341116,-5.594267667680812 l -2.790115903429551,9.973752607275399 l 3.77507645349874,-9.64413218469877 l -10.079160367736584,2.381389112923683 l -0.6814084197904711,10.334223260174998 l 2.727519608610371,9.991052227385724 l -3.8354767578908615,9.620270571318787 l -9.232273573639018,-4.693145265937326 l 10.346688298659771,0.4544547019014111 l -7.863658641459321,-6.739685496839259 l -8.309474349489479,6.181676460385136 l -7.054515501477195,7.58249951303139 l -10.148858727776584,-2.064256367154128 l 8.071070096374683,-6.489862504330094 l -9.964955687149152,2.8213730662315997 l 1.3276669351825108,10.271211629351544 l 2.032426335445791,10.155280942282674 l -9.347073378380681,4.460124110926787 l 6.95886891144523,-7.670373608829259 l -10.048502829659283,-2.5076041769052555 l -9.851777631752883,3.194208089683082 l -8.111606766734914,-6.439124434856315 l 10.310883860154792,0.9727085113756909 l -4.372009852119482,-9.388611062275052 l -7.989046279089762,-6.590571096366787 l 3.7145277087711053,-9.667614583053826 l -2.096066107782836,10.142336747392457 l 10.064029462059143,2.444544704542931 l 9.049207343442678,5.037095818136321 l -8.985325692450918,5.150185436106623 l 9.789948785876618,3.3789629467658058 l 10.349334583446712,-0.38956579107663153 l 0.22728208611171172,10.354169724272246 l 4.194628777253707,-9.469190949956515 l -2.602007735022336,-10.024472234117228 l 9.429318117183707,-4.283508803615841 l -10.336308897450253,0.6490040078412848 l -7.947562356295441,6.640537660347914 l -6.8133515773413205,-7.799918468115153 l 0.9403758462453807,10.313882929988182 l 3.5320146826563996,9.73577732424088 l -10.28324508070554,-1.2309989585083394 l 2.2864809329538387,10.101113442039043 l -2.4129787735565102,10.071644417078526 l -0.42201231715124116,-10.34806230315009 l -8.785242666617679,-5.484523599579422 l 4.95175771812444,-9.09618509742949 l -10.18589335729687,1.8729827387028444 l -10.275323801946861,-1.2954569042803452 l 10.29076201304385,-1.166492613177219 l 6.76430742986363,-7.842488942931002 l 5.008698928593956,9.064955756560815 l 8.644927694893564,-5.703131856775322 l 9.017443804808915,5.093740772047263 l -3.225080839033425,-9.841714353068918 l 1.069647875050994,-10.301278622049896 l -2.4760866120376206,10.056315573578196 l -1.392047518597408,10.26268442132321 l -1.8410375322958052,-10.191715686300393 l -6.362543223323045,-8.17181323557075 l 9.910120148308044,3.0083228669480055 l 9.482295899119961,-4.164919243783255 l -3.955822557278139,9.5714134651593 l 3.9558225557600206,9.571413465786732 l -9.482295899813424,-4.164919242204439 l -9.910120147251936,3.008322870427075 l 6.362543223899882,-8.171813235121627 l 1.8410375292532417,-10.191715686850003 l 1.3920475240069128,10.262684420589455 l 2.4760866135406783,10.05631557320811 l -1.0696478808464536,-10.301278621448116 l 3.225080835396748,-9.84171435426064 l -9.017443804626115,5.093740772370872 l -8.644927697705377,-5.703131852513118 l -5.008698925475969,9.064955758283611 l -6.764307430289801,-7.842488942563419 l -10.290762013148639,-1.1664926122527657 l 10.27532380136334,-1.2954569089087227 l 10.18589335768051,1.872982736616493 l -4.951757720710757,-9.096185096021559 l 8.785242665393081,-5.484523601541009 l 0.4220123169268551,-10.348062303159242 l 2.4129787750188805,10.07164441672817 l -2.286480931659286,10.101113442332078 l 10.283245080168538,-1.230998962994231 l -3.5320146813119355,9.735777324728636 l -0.9403758445428848,10.313882930143407 l 6.813351576939692,-7.7999184684659815 l 7.94756235804207,6.640537658257506 l 10.336308897667026,0.6490040043888651 l -9.429318118316449,-4.283508801122331 l 2.602007734477752,-10.024472234258583 l -4.1946287788570285,-9.469190949246281 l -0.22728208462315785,10.35416972430492 l -10.349334583438008,-0.3895657913078624 l -9.789948785414841,3.378962948103721 l 8.985325690851553,5.150185438896967 l -9.049207345621928,5.037095814221269 l -10.064029461482141,2.4445447069184065 l 2.096066110810335,10.14233674676678 l -3.7145277064001676,-9.667614583964795 l 7.989046276009055,-6.590571100101202 l 4.372009851103108,-9.388611062748348 l -10.310883859629683,0.972708516941944 l 8.111606764383232,-6.439124437818818 l 9.851777631912729,3.194208089190076 l 10.048502829508882,-2.507604177507946 l -6.95886891447522,-7.670373606080331 l 9.34707338101002,4.460124105416487 l -2.032426328911195,10.155280943590476 l -1.3276669390286546,10.271211628854388 l 9.964955688079385,2.8213730629460563 l -8.07107009915018,-6.489862500878366 l 10.148858727942939,-2.0642563663362514 l 7.054515506539202,7.5824995083218605 l 8.30947434873677,6.181676461396934 l 7.863658639132014,-6.739685499554691 l -10.34668829856607,0.4544547040347007 l 9.23227357179856,-4.693145269557844 l 3.835476753140987,9.620270573212501 l -2.7275196051887973,9.9910522283198 l 0.6814084257063209,10.334223259784924 l 10.07916036709496,2.3813891156393323 l -3.77507645040737,-9.644132185908848 l 2.7901159076097106,9.973752606106016 l -8.715770599432313,-5.594267662864785 l 6.050657829641796,-8.405357080713332 l 10.327356907773574,-0.7785801982870797 l 10.322271700362526,0.8433236446336884 l 9.374857279877116,-4.4014246338700795 l -0.29220450917451823,-10.35254096106465 l -10.108232637322931,2.2547994978407284 l 8.57272511253537,5.811099032937638 l -6.565490514238714,-8.009670538364533 l 8.030216061871924,6.5403453903717885 l -10.351573923589097,-0.3246615625132397 l 5.2904062854915175,-8.903487471779535 l 8.151824484282127,6.388133170431072 l -4.5478437708860024,9.304708746721559 l -10.340175327609499,0.5841763603562667 l -7.648517647186031,-6.9828837614833015 l -2.6648160631154063,-10.007958991495988 l 1.2632341411775456,-10.279334965369438 l 3.5929944303711534,-9.713438055036185 l 4.722068305184199,-9.217513696592922 l 5.121988281563998,-9.001428990400601 l 5.178331968461239,-8.969134063560187 l 5.234472036414714,-8.936486464248446 l 5.6215668701932655,-8.698187957824825 l 6.615586892607326,-7.9683434848195045 l 8.270548143792098,-6.233660339392931 l 9.999554756510614,-2.6961810950396607 l 9.871613551365707,3.1323687072559405 l 4.664176099789123,9.246942691282305 l -5.784192263392735,8.59090261182205 l -9.608197853249555,-3.8656204985117153 l 5.065443193778816,-9.033369973398807 l 5.456952130496791,8.802395200805849 l -9.67921328675132,-3.684198416925996 l 10.219323420241865,1.6810462986483825 l -9.318921946260353,-4.518648203302673 l 3.1014026702627326,9.881386001092686 l 9.111665717611835,-4.923213957995377 l -0.8756830962375578,-10.319576877986185 l -5.89147555315863,-8.517687692809448 l -4.489408220497518,-9.333043536565798 l 4.25392383989109,-9.442701932715526 l 9.202663213906037,4.750944916237601 l -10.032581080078224,2.5705650540999314 l 10.239601695761348,-1.5527539849778675 l -7.1019236523322435,-7.538114370460769 l -9.2904040811735,4.576994629035311 l -7.288745232397908,7.35762738679393 l -10.249137085033492,1.4885149773833195 l -0.5517537656900555,-10.34195608227719 l 4.77977483586967,9.187722260935535 l 1.9049095356210681,-10.17997089813145 l -9.508226026796285,-4.10537764999239 l -10.093894952578065,-2.3181398818928893 l -3.2867309085469536,-9.821297661740296 l 9.655920844816505,3.7448204849286757 l -7.42585859171817,-7.2192182403296785 l -8.231296732241125,6.2853991067791295 l -7.778518111014868,6.837773308783863 l -8.536117472806252,-5.86474094194749 l 10.122172858731291,2.1913704487527665 l -2.8526024909921763,-9.956060810083903 l -7.692154168375477,-6.9347856546289215 l 1.520641957556266,-10.244419742602446 l 4.313051644451734,9.415841616021135 l 5.944770760023108,-8.480577128738208 l 1.713078852730056,-10.214002578325129 l 10.2296636776073,-1.6169319307704975 l -9.8315543290922,3.2559218817121125 l 2.914976917437489,9.937977530489286 l 0.16235073616575815,10.355391352535632 l -8.952854270562229,-5.206427588642614 l 1.9687066457986655,10.167825823079951 l 5.512041170828456,8.768003761221557 l -8.853332971854368,5.373916924849099 l 10.297874304171154,-1.101940398204345 l 7.38044374157573,-7.265640921703944 l 8.424286502111217,6.024274624886391 l -5.730208409062737,-8.627004081047488 l -9.724655488302696,-3.562522064426767 l 3.348251744208032,-9.80049478766818 l -8.461896708406117,5.9713308334046475 l -6.66542314343488,7.926703106882836 l -4.075546171944199,-9.521050951762325 l -7.604580383112651,7.030707291765284 l -9.928789307450499,2.9461212999399664 l 8.750678674044488,-5.539504541863495 l 0.3571154354022223,-10.350505127359765 l 10.353406230935105,-0.2597445724889009 l -6.714997313977652,-7.884751035953908 l -4.01576331150528,-9.546419897096055 l 6.155593240477342,8.328815022768422 l 10.173948368846204,1.9368175995056822 l -5.346132504625651,8.870138390616482 l 9.261520919245397,4.6351610638772 l 9.741300275901606e-2,10.356205798099841 l 6.910634226658427,-7.713859112729529 l 9.455992919983558,-4.224297068498393 l -9.94706806115008,2.883803879002744 l -9.583769179555238,3.925793695383192 l 7.905765922989035,-6.690243119394738 l 3.895726236958381,-9.596030685256139 l 2.3497760447965392,10.086577237348834 l 8.348073819483554,6.129449512815698 l -10.266998488073183,1.359863916576316 l -6.311175932531761,8.211549559878158 l -1.1342220799673937,-10.294368756704694 l -7.560344100952998,-7.078254368196194 l 10.258269469258845,1.4242174418869984 l 9.746803457510461,-3.501472573984465 l -8.19172165859856,6.33689072761639 l -7.47098144622768,7.17251169785209 l 8.386345036927054,-6.076981549035038 l 10.135715065116726,-2.1278552451868396 l -8.920030813308886,-5.262465022717333 l 0.616593217264359,-10.338292926306881 l -10.354831433549995,0.1948173720904858 l 3.4096409396942655,-9.779306544334528 l -4.135168767954731,-9.495307635155116 l 6.259560495214633,8.250962988188206 l 3.470896049049491,9.757733775954126 l 5.401648516697043,-8.836440523636648 l 9.142358106563321,4.865981512198665 l 9.172690994077179,-4.808557762248338 l -7.515810530954434,7.125523130865392 l -9.891061312505416,3.0704061519548085 l 6.207698912032481,8.290051992795584 l -10.197437831276934,1.8090742115638299 l -9.402272551970555,4.342552093431283 l 10.161603330679293,2.0005763108741434 l -1.7770931321625723,10.203059728597296 l 4.606100504862522,9.276008083481198 l -1.005031617767648,-10.307783431610826 l 9.982451481604597,-2.7588313183508477 l 6.10324552960276,-8.367250553861002 l -9.080615059589462,4.980252801340548 l -4.837293431368135,-9.157569551171642 l -7.821242141859809,-6.788862878575431 l 3.247141809490179e-2,10.35661302901244 l -8.886856611706802,-5.31829553416002 l -7.149052544686336,-7.4934328274174264 l -7.735488218344011,6.886414876375392 l 6.515135970365873,-8.050682648903013 l 9.702125135736614,3.6234314780620744 l 10.316780612563683,-0.9080339299461299 l -5.997832219000258,-8.443133097282415 l 9.632248720035784,3.8052953132539273 l 2.1596234698545196,10.12899374539035 l 7.1959003392887775,7.448456627565672 l 3.1633039372833816,-9.86174406614118 l 0.8109559084688277,10.324865051913404 l -9.810944440567031,3.317507650301678 l -9.558963666347243,3.9858125208239015 l 2.5390970965616164,10.040591305293512 l 1.5848507424795955,-10.23468299214808 l 6.862127817681279,7.75704129417319 l -3.0393794466969872,9.900639393731055 l -1.1987516806684222,10.287054108625945 l 9.768568174483066,3.4402854018496583 l -5.566913465066736,-8.733267561351935 l 8.68051981538966,5.648810809394376 l -6.413660323416016,8.1317555965205 l -10.016264840804702,2.6334248545502272 l -8.608995661620964,5.757228632240924 l 2.9772367155148034,9.919503483818831 l 6.464525250041198,-8.091378196406538 l -7.242465169121398,7.403187563459855 l 0.4868926181185881,-10.345212583805369 l 10.304581675313463,1.0373448426137362 l 5.837948683594893,8.554463337545844 l 4.430796144183778,9.361011342498708 l 8.499174191037564,5.918152236644837 l 8.819461214464475,-5.429327003622098 l -7.00682996840992,-7.6265864985257945 l -0.7461968297711241,10.329747243613603 l 3.65383291177761,-9.690716840281427 l -1.648997224470294,10.224543802996424 l -4.894621804974518,-9.127056766119695 l 10.355849475518141,0.12988250888369804 l -1.456373368895854,10.253753675414396 l -10.332036034428926,0.7138061424262886 l -5.675999244402797,-8.662766325097438 l 2.223095904981975,-10.115252464617761 l 7.334738689258962,-7.3117779086889 l 9.533782284902232,-4.0456746248045805 l 10.208581330159388,-1.7450945679889276 l 10.34363517317097,-0.519325745600654 l 10.356460316819984,-6.494252717770294e-2 " /></g></svg>