<?xml version="1.0" encoding="UTF-8"?>
<!DOCTYPE svg PUBLIC "-//W3C//DTD SVG 1.1//EN"
    "http://www.w3.org/Graphics/SVG/1.1/DTD/svg11.dtd">
<svg xmlns="http://www.w3.org/2000/svg" xmlns:xlink="http://www.w3.org/1999/xlink" version="1.1" width="400.0" height="400.0" viewBox="0 0 400 400"><g fill="rgb(0,0,0)" fill-opacity="0" fill-rule="nonzero" font-family="Sans" font-size="1" font-style="normal" opacity="1" stroke="rgb(0,0,0)" stroke-opacity="1" stroke-width="0.5" stroke-linecap="butt" stroke-linejoin="miter" text-anchor="middle"><path d="M 105.86861726635738,202.60509664896892 h 68.9312624834181 h -65.48469935924719 l 68.88927142077358,-2.4056663677392787 l -65.4448078497349,2.2853830493523146 l 68.76334939248163,-4.808401801573964 l -65.32518192285755,4.567981711495266 l 68.55364981513692,-7.205278938490948 l -65.12596732438007,6.8450149915664 l 68.2604281753727,-9.593377552909518 l -64.84740676660407,9.113708675264043 l 67.88404171858969,-11.969788114526395 l -64.4898396326602,11.371298708800076 l 67.4249490137076,-14.331615333130236 l -64.05370156302223,13.615034566473724 l 66.88370939446952,-16.675981686066766 l -63.539523924746035,15.84218260176343 l 66.26098227797989,-19.00003092405688 l -62.9479331640809,18.050029377854035 l 65.55752636130643,-21.300931551096433 l -62.279650043241105,20.235884973541612 l 64.77419869712452,-23.575880274197946 l -61.535488762268294,22.397086260488052 l 63.91195364953058,-25.822105418771315 l -60.71635596705404,24.53100014783275 l 62.97184173129643,-28.036870305482317 l -59.82324964473161,26.635026790208205 l 61.955008323981325,-30.2174765844749 l -58.857257907782255,28.70660275525115 l 60.86269228246087,-32.36126752289474 l -57.81955766833783,30.743204146750003 l 59.69622442557329,-34.46563124170905 l -56.71141320429463,32.742349679623594 l 58.45702591472159,-36.52800389787884 l -55.53417461898551,34.7016037029849 l 57.14660652240736,-38.54587280800673 l -54.289276196286984,36.61857916760639 l 55.76656279280548,-40.5167795096546 l -52.97823465316522,38.49094053417187 l 54.31857609662105,-42.43832275660139 l -51.60264729179,40.31640661877132 l 52.80441058259812,-44.30816144439174 l -50.16419005346822,42.092753372172155 l 51.2259110281762,-46.12401746261117 l -48.66461547676739,43.817816589480614 l 49.585000591913136,-47.883678470412626 l -47.105750562317475,45.489494546892 l 47.88367847041263,-49.58500059191313 l -45.48949454689201,47.105750562317475 l 46.12401746261118,-51.22591102817619 l -43.817816589480614,48.66461547676737 l 44.30816144439175,-52.80441058259812 l -42.09275337217216,50.16419005346821 l 42.438322756601394,-54.31857609662105 l -40.316406618771325,51.60264729179 l 40.516779509654604,-55.76656279280547 l -38.49094053417187,52.9782346531652 l -38.54587280800676,57.14660652240734 l 36.61857916760643,-54.28927619628696 l -36.52800389787885,58.45702591472158 l 34.701603702984904,-55.534174618985496 l -34.465631241709076,59.69622442557326 l 32.74234967962363,-56.71141320429461 l -32.361267522894735,60.86269228246087 l 30.74320414675,-57.81955766833783 l 30.217476584474934,-61.9550083239813 l -28.706602755251186,58.857257907782234 l 28.036870305482324,-62.97184173129643 l -26.635026790208208,59.82324964473161 l 25.82210541877134,-63.91195364953056 l -24.531000147832774,60.716355967054035 l 23.575880274198,-64.7741986971245 l -22.397086260488102,61.53548876226828 l 21.300931551096458,-65.55752636130642 l -20.235884973541634,62.279650043241105 l 19.00003092405693,-66.26098227797988 l -18.050029377854084,62.947933164080894 l 16.675981686066837,-66.88370939446949 l -15.842182601763497,63.53952392474602 l 14.331615333130278,-67.42494901370759 l -13.615034566473764,64.05370156302222 l 11.969788114526402,-67.88404171858969 l -11.371298708800083,64.4898396326602 l 9.593377552909491,-68.2604281753727 l -9.113708675264016,64.84740676660407 l 7.205278938490948,-68.55364981513692 l -6.8450149915664005,65.12596732438007 l 4.808401801573992,-68.76334939248163 l -4.567981711495292,65.32518192285755 l 2.4056663677392724,-68.88927142077358 l -2.285383049352309,65.4448078497349 l 2.1104112490376002e-14,-68.9312624834181 l -2.0048906865857205e-14,65.48469935924719 l -2.4056663677392303,-68.88927142077358 l 2.285383049352269,65.4448078497349 l -4.808401801573949,-68.76334939248163 l 4.567981711495253,65.32518192285755 l -7.205278938490908,-68.55364981513692 l 6.845014991566361,65.12596732438008 l -9.59337755290945,-68.26042817537271 l 9.113708675263979,64.84740676660407 l -11.969788114526363,-67.8840417185897 l 11.371298708800044,64.48983963266022 l -14.331615333130296,-67.42494901370759 l 13.615034566473783,64.05370156302222 l -16.675981686066798,-66.8837093944695 l 15.842182601763456,63.539523924746035 l -19.000030924056883,-66.26098227797989 l 18.050029377854038,62.9479331640809 l -21.300931551096415,-65.55752636130644 l 20.235884973541594,62.27965004324112 l -23.575880274197903,-64.77419869712453 l 22.39708626048801,61.53548876226831 l -25.82210541877124,-63.91195364953061 l 24.531000147832682,60.71635596705407 l -28.03687030548234,-62.97184173129643 l 26.635026790208222,59.823249644731604 l -30.217476584474895,-61.955008323981325 l 28.706602755251147,58.857257907782255 l -32.36126752289471,-60.86269228246089 l 30.743204146749967,57.819557668337836 l -34.46563124170899,-59.69622442557333 l 32.742349679623544,56.71141320429466 l -36.52800389787876,-58.45702591472164 l 34.701603702984826,55.53417461898556 l 38.54587280800673,57.14660652240736 l -36.61857916760639,-54.289276196286984 l 40.51677950965457,55.7665627928055 l -38.49094053417184,-52.978234653165224 l 42.438322756601345,54.318576096621086 l -40.316406618771275,-51.602647291790035 l 44.30816144439177,52.804410582598095 l -42.09275337217218,-50.16419005346819 l 46.12401746261118,51.22591102817619 l -43.817816589480614,-48.66461547676737 l 47.88367847041261,49.585000591913136 l -45.489494546891976,-47.10575056231748 l 49.5850005919131,47.88367847041266 l -47.105750562317446,-45.489494546892026 l 51.22591102817615,46.124017462611214 l -48.664615476767345,-43.81781658948066 l 52.80441058259805,44.30816144439182 l -50.164190053468154,-42.092753372172226 l 54.31857609662105,42.43832275660139 l -51.60264729179,-40.31640661877132 l 55.76656279280547,40.51677950965462 l -52.978234653165195,-38.49094053417189 l 57.14660652240732,38.54587280800678 l -54.289276196286956,-36.618579167606434 l 58.45702591472161,36.528003897878804 l -55.534174618985524,-34.70160370298487 l 59.69622442557329,34.46563124170904 l -56.71141320429463,-32.74234967962359 l 60.86269228246086,32.36126752289476 l -57.81955766833781,-30.743204146750017 l 61.955008323981296,30.21747658447494 l -58.857257907782234,-28.706602755251197 l 62.9718417312964,28.036870305482392 l -59.82324964473158,-26.635026790208272 l 63.91195364953059,25.822105418771294 l -60.71635596705406,-24.531000147832728 l 64.77419869712452,23.575880274197957 l -61.53548876226829,-22.397086260488056 l 65.55752636130642,21.30093155109647 l -62.279650043241105,-20.235884973541644 l 66.26098227797988,19.00003092405694 l -62.947933164080894,-18.050029377854095 l 66.88370939446949,16.67598168606685 l -63.539523924746014,-15.842182601763508 l -67.4249490137076,-14.331615333130237 l 64.05370156302223,13.615034566473726 l -67.88404171858969,-11.969788114526425 l 64.4898396326602,11.371298708800103 l -68.2604281753727,-9.593377552909573 l 64.84740676660407,9.113708675264094 l -68.55364981513692,-7.205278938490909 l 65.12596732438008,6.845014991566364 l -68.76334939248163,-4.808401801573951 l 65.32518192285755,4.567981711495254 l -68.88927142077358,-2.4056663677392933 l 65.4448078497349,2.285383049352329 l -68.9312624834181,-4.2208224980752004e-14 l 65.48469935924719,4.009781373171441e-14 l -68.88927142077358,2.4056663677392094 l 65.4448078497349,-2.285383049352249 l -68.76334939248163,4.808401801573868 l 65.32518192285755,-4.5679817114951735 l -68.55364981513694,7.205278938490825 l 65.12596732438008,-6.845014991566283 l -68.2604281753727,9.59337755290949 l 64.84740676660407,-9.113708675264014 l -67.88404171858971,11.969788114526342 l 64.48983963266022,-11.371298708800024 l -67.42494901370763,14.331615333130156 l 64.05370156302223,-13.615034566473648 l -66.88370939446953,16.67598168606666 l 63.539523924746064,-15.842182601763326 l -66.26098227797993,19.000030924056748 l 62.94793316408094,-18.05002937785391 l -65.55752636130649,21.300931551096276 l 62.279650043241155,-20.235884973541463 l -64.77419869712455,23.575880274197882 l 61.535488762268315,-22.39708626048799 l -63.91195364953066,25.82210541877111 l 60.71635596705412,-24.531000147832554 l -62.97184173129639,28.036870305482434 l 59.82324964473156,-26.635026790208315 l -61.95500832398133,30.217476584474873 l 58.85725790778227,-28.70660275525113 l -60.86269228246084,32.36126752289479 l 57.8195576683378,-30.743204146750056 l -59.696224425573334,34.46563124170897 l 56.711413204294665,-32.74234967962352 l -58.45702591472158,36.52800389787885 l 55.534174618985496,-34.701603702984904 l -57.1466065224073,38.54587280800681 l 54.289276196286934,-36.61857916760647 l -55.766562792805516,40.516779509654555 l 52.978234653165245,-38.49094053417183 l -54.31857609662103,42.43832275660142 l 51.60264729178998,-40.31640661877135 l -52.804410582598194,44.308161444391665 l 50.16419005346828,-42.09275337217208 l -51.2259110281762,46.124017462611164 l 48.66461547676739,-43.8178165894806 l -49.585000591913236,47.88367847041253 l 47.105750562317574,-45.48949454689189 l -47.883678470412676,49.5850005919131 l 45.48949454689204,-47.105750562317446 l -46.12401746261114,51.22591102817623 l 43.817816589480586,-48.664615476767416 l -44.30816144439183,52.80441058259805 l 42.09275337217224,-50.164190053468154 l -42.4383227566014,54.31857609662104 l 40.31640661877133,-51.60264729178999 l -40.51677950965473,55.76656279280539 l 38.490940534172,-52.97823465316512 l -38.54587280800679,57.14660652240731 l 36.61857916760645,-54.28927619628695 l -36.52800389787903,58.45702591472147 l 34.701603702985075,-55.534174618985396 l -34.465631241709154,59.69622442557323 l 32.7423496796237,-56.71141320429456 l -32.361267522894764,60.86269228246086 l 30.743204146750028,-57.81955766833781 l -30.217476584475065,61.95500832398124 l 28.70660275525131,-58.85725790778218 l -28.036870305482402,62.9718417312964 l 26.635026790208283,-59.82324964473158 l -25.822105418771304,63.91195364953058 l 24.53100014783274,-60.71635596705404 l -23.575880274197853,64.77419869712455 l 22.39708626048796,-61.53548876226832 l -21.30093155109648,65.55752636130642 l 20.235884973541655,-62.279650043241105 l -19.000030924056833,66.26098227797992 l 18.050029377853992,-62.947933164080915 l -16.675981686066862,66.88370939446949 l 15.84218260176352,-63.539523924746014 l -14.331615333130243,67.42494901370759 l 13.61503456647373,-64.05370156302222 l 11.969788114526317,-67.88404171858971 l -11.371298708800001,64.48983963266022 l 9.593377552909587,-68.2604281753727 l -9.113708675264109,64.84740676660405 l 7.205278938490921,-68.55364981513692 l -6.845014991566376,65.12596732438008 l -4.808401801574094,68.76334939248162 l 4.567981711495389,-65.32518192285754 l -2.4056663677393146,68.88927142077358 l 2.285383049352349,-65.4448078497349 l -1.8575885703204162e-13,68.9312624834181 l 1.7647091418043955e-13,-65.48469935924719 l 2.4056663677391885,68.88927142077358 l -2.285383049352229,-65.4448078497349 l 4.808401801573969,68.76334939248163 l -4.56798171149527,-65.32518192285755 l 7.205278938490803,68.55364981513694 l -6.845014991566264,-65.12596732438008 l 9.593377552909468,68.2604281753727 l -9.113708675263995,-64.84740676660407 l 11.9697881145262,67.88404171858973 l -11.37129870879989,-64.48983963266025 l 14.331615333130134,67.42494901370763 l -13.615034566473627,-64.05370156302223 l 16.675981686066756,66.88370939446952 l -15.842182601763419,-63.539523924746035 l 19.000030924056727,66.26098227797995 l -18.05002937785389,-62.94793316408094 l 21.300931551096372,65.55752636130646 l -20.235884973541555,-62.279650043241126 l 23.575880274197747,64.77419869712459 l -22.397086260487857,-61.53548876226836 l 25.8221054187712,63.911953649530616 l -24.531000147832643,-60.71635596705409 l 28.036870305482303,62.97184173129644 l -26.635026790208187,-59.823249644731625 l 30.217476584474966,61.955008323981296 l -28.706602755251215,-58.85725790778223 l 32.36126752289467,60.8626922824609 l -30.743204146749935,-57.81955766833786 l 34.46563124170906,59.69622442557328 l -32.742349679623615,-56.71141320429461 l 36.52800389787894,58.457025914721534 l -34.701603702985,-55.534174618985446 l 38.5458728080067,57.14660652240737 l -36.61857916760636,-54.289276196287005 l 40.51677950965464,55.766562792805445 l -38.490940534171905,-52.978234653165174 l 42.438322756601316,54.31857609662112 l -40.31640661877125,-51.602647291790056 l 44.30816144439175,52.80441058259812 l -42.09275337217216,-50.16419005346821 l 46.124017462611064,51.22591102817629 l -43.81781658948051,-48.66461547676747 l 47.8836784704126,49.585000591913165 l -45.48949454689197,-47.1057505623175 l 49.58500059191316,47.8836784704126 l -47.1057505623175,-45.48949454689197 l 51.22591102817612,46.12401746261125 l -48.66461547676732,-43.81781658948068 l 52.804410582598116,44.30816144439175 l -50.16419005346821,-42.09275337217217 l 54.31857609662095,42.43832275660152 l -51.6026472917899,-40.316406618771445 l 55.766562792805445,40.51677950965465 l -52.978234653165174,-38.49094053417192 l 57.14660652240723,38.54587280800691 l -54.28927619628688,-36.61857916760656 l 58.457025914721534,36.528003897878946 l -55.534174618985446,-34.701603702985 l 59.69622442557328,34.465631241709076 l -56.71141320429461,-32.742349679623615 l 60.86269228246079,32.36126752289489 l -57.81955766833775,-30.743204146750145 l 61.95500832398128,30.217476584474973 l -58.85725790778222,-28.706602755251225 l 62.97184173129634,28.036870305482534 l -59.823249644731526,-26.635026790208407 l 63.911953649530616,25.822105418771212 l -60.716355967054085,-24.53100014783265 l 64.7741986971245,23.575880274197985 l -61.53548876226828,-22.397086260488088 l 65.55752636130646,21.300931551096383 l -62.279650043241126,-20.235884973541562 l 66.26098227797986,19.000030924056972 l -62.94793316408087,-18.050029377854123 l 66.88370939446952,16.675981686066766 l -63.539523924746035,-15.842182601763426 l 67.42494901370763,14.331615333130141 l -64.05370156302223,-13.615034566473634 l 67.88404171858969,11.969788114526448 l -64.48983963266019,-11.371298708800126 l -68.2604281753727,-9.593377552909486 l 64.84740676660407,9.11370867526401 l -68.55364981513691,-7.205278938491064 l 65.12596732438006,6.8450149915665115 l -68.76334939248163,-4.808401801573985 l 65.32518192285755,4.567981711495285 l -68.88927142077358,-2.4056663677394496 l 65.4448078497349,2.285383049352477 l -68.9312624834181,-7.59748049653536e-14 l 65.48469935924719,7.217606471708593e-14 l -68.88927142077358,2.4056663677392978 l 65.4448078497349,-2.285383049352333 l -68.76334939248164,4.808401801573834 l 65.32518192285755,-4.567981711495142 l -68.55364981513692,7.205278938490914 l 65.12596732438008,-6.845014991566368 l 68.26042817537272,-9.593377552909327 l -64.8474067666041,9.113708675263862 l 67.88404171858971,-11.969788114526299 l -64.48983963266022,11.371298708799985 l 67.42494901370766,-14.331615333129994 l -64.05370156302226,13.615034566473494 l 66.88370939446955,-16.675981686066617 l -63.53952392474607,15.842182601763287 l 66.26098227797992,-19.000030924056826 l -62.947933164080915,18.050029377853985 l 65.5575263613065,-21.300931551096237 l -62.279650043241176,20.235884973541427 l 64.77419869712456,-23.575880274197843 l -61.53548876226832,22.397086260487953 l 63.91195364953068,-25.822105418771073 l -60.71635596705414,24.53100014783252 l 62.97184173129649,-28.03687030548217 l -59.823249644731675,26.635026790208062 l 61.95500832398146,-30.217476584474614 l -58.85725790778238,28.706602755250888 l 60.86269228246097,-32.36126752289454 l -57.81955766833793,30.74320414674981 l 59.696224425573355,-34.46563124170894 l -56.711413204294686,32.742349679623494 l 58.45702591472174,-36.52800389787861 l -55.534174618985645,34.70160370298468 l 57.14660652240746,-38.54587280800658 l -54.289276196287084,36.618579167606256 l 55.76656279280568,-40.51677950965433 l -52.978234653165394,38.490940534171614 l 54.318576096621356,-42.43832275660101 l -51.602647291790284,40.31640661877096 l 52.80441058259821,-44.308161444391644 l -50.164190053468296,42.092753372172055 l 51.2259110281764,-46.12401746261096 l -48.66461547676757,43.81781658948041 l 49.58500059191343,-47.88367847041231 l -47.10575056231776,45.48949454689169 l 47.883678470412704,-49.585000591913065 l -45.48949454689207,47.10575056231741 l 46.12401746261099,-51.22591102817635 l -43.817816589480444,48.66461547676754 l 44.30816144439168,-52.80441058259817 l -42.0927533721721,50.16419005346827 l 42.43832275660143,-54.31857609662101 l -40.31640661877136,51.60264729178996 l 40.51677950965438,-55.76656279280565 l -38.49094053417165,52.97823465316536 l 38.54587280800663,-57.14660652240743 l -36.61857916760629,54.289276196287055 l -36.52800389787866,58.457025914721704 l 34.70160370298473,-55.53417461898562 l -34.46563124170899,59.69622442557333 l 32.742349679623544,-56.71141320429466 l -32.36126752289481,60.86269228246083 l 30.743204146750067,-57.81955766833779 l -30.217476584474667,61.95500832398143 l 28.70660275525093,-58.857257907782355 l -28.036870305482225,62.97184173129648 l 26.635026790208116,-59.82324964473165 l -25.822105418771354,63.91195364953056 l 24.531000147832785,-60.716355967054035 l -23.575880274198127,64.77419869712445 l 22.397086260488223,-61.53548876226823 l -21.30093155109629,65.55752636130649 l 20.235884973541477,-62.279650043241155 l -19.00003092405688,66.26098227797989 l 18.050029377854035,-62.9479331640809 l -16.675981686066912,66.88370939446948 l 15.842182601763566,-63.539523924746 l -14.33161533313005,67.42494901370765 l 13.61503456647355,-64.05370156302226 l -11.969788114526358,67.8840417185897 l 11.371298708800042,-64.48983963266022 l -9.59337755290963,68.2604281753727 l 9.113708675264148,-64.84740676660405 l -7.205278938491206,68.5536498151369 l 6.845014991566647,-65.12596732438006 l -4.808401801573884,68.76334939248163 l 4.5679817114951895,-65.32518192285755 l -2.4056663677393484,68.88927142077358 l 2.2853830493523812,-65.4448078497349 l -2.1952543701664326e-13,68.9312624834181 l 2.0854916516581106e-13,-65.48469935924719 l 2.4056663677393995,68.88927142077358 l -2.285383049352429,-65.4448078497349 l 4.808401801573936,68.76334939248163 l -4.567981711495238,-65.32518192285755 l 7.20527893849077,68.55364981513694 l -6.845014991566232,-65.12596732438008 l 9.593377552909192,68.26042817537275 l -9.113708675263734,-64.84740676660411 l 11.969788114526407,67.88404171858969 l -11.371298708800087,-64.4898396326602 l -14.331615333129855,-67.42494901370769 l 13.615034566473362,64.05370156302229 l -16.675981686066716,-66.88370939446952 l 15.84218260176338,63.53952392474605 l -19.000030924056684,-66.26098227797995 l 18.05002937785385,62.94793316408095 l -21.300931551096102,-65.55752636130654 l 20.235884973541296,62.27965004324121 l -23.57588027419794,-64.77419869712452 l 22.39708626048804,61.535488762268294 l -25.822105418771162,-63.91195364953064 l 24.531000147832607,60.716355967054106 l -28.03687030548204,-62.971841731296564 l 26.635026790207935,59.82324964473173 l -30.217476584474486,-61.955008323981524 l 28.70660275525076,58.85725790778244 l -32.36126752289463,-60.86269228246093 l 30.743204146749896,57.81955766833788 l -34.46563124170881,-59.69622442557342 l 32.74234967962337,56.71141320429476 l -36.52800389787849,-58.45702591472182 l 34.70160370298456,55.53417461898572 l -38.54587280800667,-57.14660652240741 l 36.618579167606335,54.289276196287034 l -40.51677950965441,-55.76656279280562 l 38.49094053417169,52.978234653165345 l -42.43832275660109,-54.31857609662129 l 40.31640661877103,51.60264729179023 l -44.30816144439172,-52.804410582598145 l 42.09275337217213,50.16419005346824 l -46.12401746261102,-51.22591102817632 l 43.81781658948047,48.6646154767675 l -47.88367847041239,-49.58500059191337 l 45.48949454689176,47.105750562317695 l -49.585000591913136,-47.883678470412626 l 47.105750562317475,45.489494546892 l -51.22591102817609,-46.12401746261128 l 48.66461547676729,43.81781658948071 l -52.80441058259825,-44.308161444391594 l 50.16419005346834,42.09275337217201 l -54.31857609662108,-42.438322756601345 l 51.60264729179003,40.31640661877128 l -55.76656279280542,-40.51677950965468 l 52.97823465316515,38.49094053417195 l -57.14660652240749,-38.545872808006536 l 54.28927619628711,36.618579167606214 l -58.45702591472164,-36.528003897878776 l 55.53417461898556,34.70160370298483 l -59.696224425573256,-34.465631241709104 l 56.71141320429459,32.74234967962364 l -60.86269228246076,-32.361267522894934 l 57.81955766833773,30.743204146750184 l -61.955008323981374,-30.21747658447479 l 58.857257907782305,28.706602755251055 l -62.97184173129643,-28.036870305482353 l 59.823249644731604,26.635026790208233 l -63.91195364953051,-25.822105418771475 l 60.716355967053985,24.531000147832906 l -64.77419869712458,-23.5758802741978 l 61.53548876226834,22.39708626048791 l -65.55752636130644,-21.300931551096422 l 62.27965004324112,20.2358849735416 l -66.26098227797986,-19.000030924057015 l 62.947933164080865,18.050029377854163 l 66.88370939446949,16.675981686066812 l -63.53952392474602,-15.842182601763474 l 67.42494901370756,14.331615333130433 l -64.05370156302219,-13.615034566473911 l 67.88404171858973,11.969788114526258 l -64.48983963266024,-11.371298708799944 l 68.2604281753727,9.593377552909528 l -64.84740676660407,-9.113708675264052 l 68.5536498151369,7.205278938491107 l -65.12596732438006,-6.8450149915665515 l 68.76334939248162,4.808401801574273 l -65.32518192285752,-4.567981711495558 l 68.88927142077358,2.405666367739247 l -65.4448078497349,-2.285383049352285 l 68.9312624834181,1.181830299461056e-13 l -65.48469935924719,-1.1227387844880033e-13 l 68.88927142077358,-2.4056663677390113 l -65.44480784973491,2.2853830493520606 l 68.76334939248163,-4.808401801574036 l -65.32518192285755,4.567981711495334 l 68.55364981513692,-7.205278938490871 l -65.12596732438008,6.845014991566328 l 68.26042817537272,-9.593377552909292 l -64.84740676660411,9.113708675263828 l 67.88404171858976,-11.969788114526024 l -64.48983963266028,11.371298708799724 l 67.42494901370762,-14.3316153331302 l -64.05370156302223,13.61503456647369 l 66.88370939446956,-16.675981686066585 l -63.53952392474608,15.842182601763255 l 66.26098227797999,-19.00003092405656 l -62.94793316408099,18.05002937785373 l 65.55752636130643,-21.300931551096436 l -62.279650043241105,20.235884973541616 l 64.77419869712458,-23.57588027419781 l -61.535488762268336,22.39708626048792 l 63.91195364953069,-25.82210541877104 l -60.716355967054156,24.53100014783249 l 62.971841731296614,-28.036870305481916 l -59.82324964473178,26.63502679020782 l 61.95500832398136,-30.217476584474806 l -58.8572579077823,28.706602755251065 l 60.86269228246098,-32.36126752289451 l -57.819557668337936,30.743204146749783 l 59.69622442557349,-34.4656312417087 l -56.711413204294814,32.74234967962327 l 58.457025914721626,-36.52800389787879 l -55.534174618985546,34.701603702984855 l 57.146606522407474,-38.54587280800655 l -54.289276196287105,36.61857916760623 l 55.7665627928057,-40.516779509654306 l -52.97823465316541,38.490940534171585 l 54.31857609662137,-42.43832275660098 l -51.602647291790305,40.316406618770934 l 52.80441058259823,-44.308161444391615 l -50.16419005346832,42.092753372172034 l 51.225911028176405,-46.12401746261094 l -48.664615476767594,43.81781658948039 l 49.58500059191345,-47.88367847041229 l -47.10575056231777,45.48949454689168 l 47.88367847041273,-49.58500059191303 l -45.4894945468921,47.10575056231738 l 46.124017462611015,-51.22591102817634 l -43.817816589480465,48.664615476767516 l 44.3081614443917,-52.80441058259815 l -42.09275337217211,50.164190053468246 l 42.438322756601465,-54.318576096621 l -40.31640661877139,51.60264729178995 l 40.5167795096544,-55.76656279280563 l -38.49094053417168,52.97823465316535 l 38.54587280800665,-57.14660652240741 l -36.61857916760632,54.28927619628705 l 36.52800389787888,-58.45702591472157 l -34.70160370298494,55.53417461898549 l 34.465631241709225,-59.696224425573185 l -32.742349679623764,56.71141320429453 " /></g></svg>