<?xml version="1.0" encoding="UTF-8"?>
<!DOCTYPE svg PUBLIC "-//W3C//DTD SVG 1.1//EN"
    "http://www.w3.org/Graphics/SVG/1.1/DTD/svg11.dtd">
<svg xmlns="http://www.w3.org/2000/svg" xmlns:xlink="http://www.w3.org/1999/xlink" version="1.1" width="400.0" height="400.0" viewBox="0 0 400 400"><g><g stroke="rgb(0,0,255)" stroke-opacity="1.0" fill="rgb(0,0,0)" fill-opacity="0.0" stroke-width="1.0"><path d="M 211.05379189657396,90.70751577509643 h 79.80668845614568 h -75.8163540333384 l 79.75807237784275,2.785213260612778 l -75.77016875895062,-2.6459525975821396 l 79.61228337413664,5.567033167896714 l -75.63166920542982,-5.288681509501878 l 79.3694990664713,8.342070502801288 l -75.40102411314773,-7.924966977661222 l 79.03001525012756,11.10694430979565 l -75.07851448762119,-10.551597094305869 l 78.59424553384216,13.858286016042143 l -74.66453325715004,-13.165371715240036 l 78.06272083588921,16.5927435354834 l -74.15958479409474,-15.763106358709232 l 77.43608873723805,19.306985352842883 l -73.56428430037614,-18.34163608520074 l 76.71511269257566,21.997704582563028 l -72.87935705794688,-20.897819353434876 l 75.90067110015455,24.661622997735947 l -72.10563754514682,-23.42854184784915 l 74.99375623160005,27.295495024117933 l -71.24406842002004,-25.93072027291204 l 73.9954730229799,29.896111694361725 l -70.29569937183089,-28.401306109643638 l 72.90703772861008,32.460304557648904 l -69.26168584217957,-30.83728932976646 l 71.7297764392362,34.9849495399592 l -68.1432876172744,-33.235702062961245 l 70.46512346639614,37.466970750273425 l -66.94186729307634,-35.593622212759755 l 69.11461959493248,39.90334422807283 l -65.65888861518584,-37.90817701666919 l 67.67991020578336,42.291101627569326 l -64.29591469549419,-40.176546546190856 l 66.1627432713395,44.627333834177435 l -62.854606107772504,-42.395967142468564 l 64.56496722580879,46.909194508822395 l -61.33671886451836,-44.56373478338128 l 62.88852871318423,49.13390355576583 l -59.744102277525016,-46.67720837797754 l 61.135470215557895,51.29875050972421 l -58.07869670478,-48.733812984238 l 59.30792756467116,53.401097838153255 l -56.3425311864376,-50.73104294624559 l 57.40812733973278,55.43838415467502 l -54.53772097274613,-52.666464946941275 l 55.438384154675035,57.408127339732765 l -52.66646494694129,-54.53772097274613 l 53.40109783815326,59.30792756467115 l -50.731042946245594,-56.34253118643759 l 51.29875050972422,61.135470215557895 l -48.73381298423801,-58.07869670477999 l 49.13390355576584,62.88852871318423 l -46.67720837797755,-59.744102277525016 l 46.909194508822395,64.56496722580879 l -44.56373478338128,-61.336718864518346 l 44.62733383417744,66.16274327133948 l -42.39596714246857,-62.854606107772504 l 42.291101627569326,67.67991020578336 l -40.176546546190856,-64.29591469549419 l 39.903344228072854,69.11461959493246 l -37.90817701666921,-65.65888861518583 l 37.466970750273425,70.46512346639614 l -35.59362221275976,-66.94186729307633 l 34.9849495399592,71.7297764392362 l -33.235702062961245,-68.1432876172744 l 32.460304557648925,72.90703772861008 l -30.837289329766474,-69.26168584217957 l 29.896111694361736,73.99547302297988 l -28.40130610964365,-70.29569937183089 l 27.295495024117944,74.99375623160003 l -25.930720272912048,-71.24406842002003 l 24.661622997735954,75.90067110015455 l -23.428541847849157,-72.10563754514682 l 21.997704582563028,76.71511269257566 l -20.897819353434876,-72.87935705794688 l 19.30698535284288,77.43608873723805 l -18.341636085200733,-73.56428430037614 l 16.592743535483397,78.06272083588921 l -15.763106358709226,-74.15958479409474 l 13.858286016042149,78.59424553384216 l -13.165371715240042,-74.66453325715004 l 11.106944309795654,79.03001525012756 l -10.551597094305873,-75.07851448762119 l 8.342070502801286,79.3694990664713 l -7.924966977661222,-75.40102411314773 l 5.567033167896708,79.61228337413664 l -5.288681509501873,-75.63166920542982 " /></g><g stroke="rgb(0,128,0)" stroke-opacity="1.0" fill="rgb(0,0,0)" fill-opacity="0.0" stroke-width="1.0"><path d="M 327.21275143321094,199.02749793306458 l -2.785213260612761,-79.75807237784275 l 2.645952597582123,75.77016875895062 l -1.4660250835255323e-14,-79.80668845614568 l 1.3927238293492556e-14,75.8163540333384 l 2.7852132606127324,-79.75807237784275 l -2.6459525975820957,75.77016875895062 l 5.5670331678967075,-79.61228337413665 l -5.288681509501871,75.63166920542982 l 8.34207050280132,-79.3694990664713 l -7.924966977661255,75.40102411314773 l 11.10694430979565,-79.03001525012756 l -10.551597094305869,75.07851448762119 l 13.858286016042115,-78.59424553384216 l -13.165371715240008,74.66453325715005 l 16.59274353548341,-78.0627208358892 l -15.76310635870924,74.15958479409473 l 19.306985352842858,-77.43608873723807 l -18.341636085200715,73.56428430037616 l 21.997704582562978,-76.71511269257566 l -20.89781935343483,72.87935705794688 l 24.661622997735936,-75.90067110015457 l -23.42854184784914,72.10563754514683 l 27.29549502411796,-74.99375623160003 l -25.930720272912062,71.24406842002003 l 29.896111694361718,-73.9954730229799 l -28.401306109643635,70.29569937183089 l 32.460304557648875,-72.90703772861009 l -30.83728932976643,69.26168584217959 l 34.9849495399592,-71.7297764392362 l -33.235702062961245,68.1432876172744 l 37.46697075027339,-70.46512346639615 l -35.593622212759726,66.94186729307636 " /></g><g stroke="rgb(0,255,255)" stroke-opacity="1.0" fill="rgb(0,0,0)" fill-opacity="0.0" stroke-width="1.0"><path d="M 341.38961253478703,137.62076609851016 l -39.903344228072775,69.1146195949325 l 37.908177016669136,-65.65888861518587 l -42.29110162756924,67.67991020578341 l 40.17654654619078,-64.29591469549425 l -44.62733383417744,66.16274327133948 l 42.39596714246857,-62.854606107772504 l -46.90919450882237,64.56496722580881 l 44.56373478338125,-61.33671886451837 l -49.133903555765784,62.88852871318427 l 46.6772083779775,-59.744102277525066 l -51.29875050972426,61.13547021555786 l 48.73381298423804,-58.078696704779965 l -53.40109783815326,59.30792756467114 l 50.731042946245594,-56.342531186437576 l -55.43838415467502,57.40812733973278 l 52.66646494694126,-54.53772097274614 l -57.408127339732744,55.43838415467506 l 54.53772097274611,-52.66646494694131 l -59.307927564671104,53.4010978381533 l 56.342531186437554,-50.731042946245644 l -61.135470215557824,51.2987505097243 l 58.07869670477994,-48.73381298423808 l -62.888528713184236,49.133903555765826 l 59.74410227752503,-46.67720837797753 l -64.56496722580879,46.90919450882241 l 61.33671886451833,-44.563734783381285 l -66.16274327133945,44.62733383417749 l 62.854606107772476,-42.39596714246861 l -67.67991020578339,42.29110162756928 l 64.29591469549422,-40.17654654619082 l -69.11461959493248,39.903344228072825 l 65.65888861518586,-37.90817701666918 l -70.46512346639614,37.46697075027343 l 66.94186729307633,-35.59362221275976 l -71.72977643923616,34.984949539959246 l 68.14328761727437,-33.23570206296128 l -72.90703772861005,32.46030455764898 l 69.26168584217955,-30.83728932976653 l -73.99547302297991,29.89611169436169 l 70.2956993718309,-28.40130610964361 l -74.99375623160005,27.295495024117933 l 71.24406842002004,-25.93072027291204 l -75.90067110015454,24.66162299773598 l 72.10563754514682,-23.428541847849182 l -76.71511269257563,21.997704582563088 l 72.87935705794686,-20.897819353434937 l -77.43608873723804,19.306985352842972 l 73.56428430037613,-18.341636085200822 l -78.06272083588918,16.592743535483525 l 74.15958479409473,-15.763106358709349 l -78.59424553384216,13.858286016042157 l 74.66453325715004,-13.165371715240049 l -79.03001525012756,11.106944309795695 l 75.07851448762118,-10.551597094305912 l -79.3694990664713,8.342070502801223 l 75.40102411314774,-7.924966977661161 l -79.61228337413665,5.56703316789668 l 75.63166920542982,-5.288681509501846 l -79.75807237784275,2.7852132606127764 l 75.77016875895062,-2.6459525975821374 l -79.80668845614568,2.9320501670510647e-14 l 75.8163540333384,-2.7854476586985112e-14 l -79.75807237784275,-2.7852132606127173 l 75.77016875895062,2.645952597582082 l -79.61228337413665,-5.567033167896622 l 75.63166920542982,5.2886815095017905 l -79.3694990664713,-8.342070502801166 l 75.40102411314774,7.924966977661107 l -79.03001525012756,-11.106944309795638 l 75.07851448762119,10.551597094305857 l -78.59424553384216,-13.8582860160421 l 74.66453325715005,13.165371715239997 l -78.06272083588918,-16.592743535483468 l 74.15958479409473,15.763106358709296 l -77.43608873723805,-19.306985352842915 l 73.56428430037614,18.34163608520077 l -76.71511269257566,-21.997704582563028 l 72.87935705794688,20.897819353434876 l -75.90067110015457,-24.661622997735922 l 72.10563754514683,23.428541847849125 l -74.99375623160005,-27.295495024117876 l 71.24406842002006,25.930720272911984 l -73.99547302297992,-29.896111694361633 l 70.29569937183092,28.401306109643553 " /></g><g stroke="rgb(255,0,0)" stroke-opacity="1.0" fill="rgb(0,0,0)" fill-opacity="0.0" stroke-width="1.0"><path d="M 196.73411718858333,187.42964756030275 l 72.90703772861008,32.46030455764891 l -69.26168584217957,-30.83728932976647 l 71.72977643923615,34.98494953995932 l -68.14328761727434,-33.235702062961344 l 70.4651234663961,37.4669707502735 l -66.9418672930763,-35.59362221275982 l 69.11461959493242,39.90334422807289 l -65.65888861518582,-37.90817701666925 l 67.67991020578336,42.291101627569354 l -64.29591469549418,-40.176546546190885 l 66.1627432713395,44.627333834177435 l -62.854606107772504,-42.395967142468564 l 64.56496722580881,46.90919450882237 l -61.33671886451837,-44.56373478338125 l 62.88852871318427,49.133903555765784 l -59.744102277525066,-46.67720837797749 l 61.13547021555786,51.29875050972424 l -58.078696704779965,-48.733812984238035 l 59.30792756467115,53.40109783815326 l -56.34253118643759,-50.731042946245594 l 57.40812733973278,55.438384154675006 l -54.53772097274614,-52.666464946941254 l 55.43838415467506,57.40812733973273 l -52.66646494694132,-54.537720972746094 l 53.40109783815331,59.30792756467109 l -50.731042946245644,-56.34253118643754 l 51.2987505097243,61.13547021555782 l -48.73381298423809,-58.07869670477992 l 49.13390355576584,62.88852871318423 l -46.67720837797755,-59.744102277525016 l 46.909194508822424,64.56496722580877 l -44.56373478338131,-61.336718864518325 " /></g><g stroke="rgb(255,0,255)" stroke-opacity="1.0" fill="rgb(0,0,0)" fill-opacity="0.0" stroke-width="1.0"><path d="M 245.71139530520298,227.0906653684926 l -44.627333834177506,-66.16274327133944 l 42.395967142468635,62.85460610777246 l -42.291101627569546,-67.67991020578323 l 40.17654654619107,64.29591469549406 l -39.90334422807297,-69.11461959493239 l 37.90817701666932,65.65888861518576 l -37.466970750273454,-70.46512346639614 l 35.59362221275978,66.94186729307631 l -34.9849495399594,-71.7297764392361 l 33.23570206296142,68.1432876172743 l -32.460304557648996,-72.90703772861004 l 30.83728932976655,69.26168584217955 l -29.896111694361714,-73.9954730229799 l 28.401306109643627,70.29569937183089 l -27.295495024117827,-74.99375623160007 l 25.930720272911934,71.24406842002007 l -24.661622997736,-75.90067110015454 l 23.428541847849203,72.10563754514682 l -21.99770458256297,-76.71511269257567 l 20.897819353434823,72.87935705794688 l -19.306985352842993,-77.43608873723804 l 18.341636085200847,73.56428430037613 l -16.59274353548341,-78.0627208358892 l 15.763106358709239,74.15958479409473 l -13.85828601604204,-78.59424553384217 l 13.16537171523994,74.66453325715007 l -11.106944309795722,-79.03001525012755 l 10.551597094305935,75.07851448762116 l -8.342070502801247,-79.3694990664713 l 7.924966977661185,75.40102411314774 l -5.567033167896847,-79.61228337413662 l 5.2886815095020046,75.6316692054298 l -2.7852132606128004,-79.75807237784275 l 2.6459525975821605,75.77016875895062 l -1.9551940993156227e-13,-79.80668845614568 l 1.857434394349841e-13,75.8163540333384 l 2.785213260612693,-79.75807237784275 l -2.6459525975820584,75.77016875895062 l 5.567033167896739,-79.61228337413664 l -5.2886815095019015,75.63166920542982 l 8.34207050280114,-79.3694990664713 l -7.924966977661083,75.40102411314774 l 11.106944309795614,-79.03001525012756 l -10.551597094305833,75.07851448762119 l 13.858286016041935,-78.59424553384218 l -13.165371715239841,74.66453325715007 l 16.592743535483304,-78.06272083588922 l -15.76310635870914,74.15958479409476 l 19.306985352842894,-77.43608873723805 l -18.341636085200747,73.56428430037614 l 21.99770458256287,-76.7151126925757 l -20.897819353434727,72.87935705794692 l 24.6616229977359,-75.90067110015458 l -23.428541847849104,72.10563754514685 l 27.295495024117724,-74.9937562316001 l -25.930720272911838,71.24406842002011 l 29.89611169436162,-73.99547302297994 l -28.40130610964354,70.29569937183093 l 32.460304557648904,-72.90703772861008 l -30.83728932976646,69.26168584217957 l 34.9849495399593,-71.72977643923616 l -33.23570206296134,68.14328761727434 l 37.46697075027336,-70.46512346639618 l -35.59362221275969,66.94186729307636 l 39.903344228072875,-69.11461959493244 l -37.908177016669235,65.65888861518582 " /></g><g stroke="rgb(255,255,0)" stroke-opacity="1.0" fill="rgb(0,0,0)" fill-opacity="0.0" stroke-width="1.0"><path d="M 241.36547353211552,102.63974872662588 l -42.291101627569454,67.6799102057833 l 40.17654654619098,-64.29591469549412 l -44.627333834177406,66.1627432713395 l 42.395967142468535,-62.85460610777252 l -46.90919450882245,64.56496722580874 l 44.563734783381335,-61.33671886451831 l -49.133903555765755,62.88852871318429 l 46.677208377977465,-59.74410227752507 l -51.29875050972422,61.13547021555788 l 48.733812984238014,-58.07869670477999 l -53.40109783815313,59.30792756467126 l 50.73104294624547,-56.3425311864377 l -55.438384154674985,57.4081273397328 l 52.66646494694124,-54.537720972746165 l -57.408127339732815,55.438384154674985 l 54.537720972746165,-52.66646494694124 l -59.30792756467108,53.40109783815335 l 56.34253118643753,-50.73104294624567 l -61.135470215557895,51.29875050972422 l 58.07869670477999,-48.73381298423801 l -62.88852871318412,49.133903555765976 l 59.74410227752492,-46.67720837797767 l -64.56496722580874,46.909194508822445 l 61.33671886451831,-44.56373478338132 l -66.16274327133934,44.627333834177634 l 62.85460610777238,-42.395967142468756 l -67.6799102057833,42.29110162756944 l 64.29591469549412,-40.17654654619097 l -69.11461959493245,39.903344228072854 l 65.65888861518582,-37.908177016669214 l -70.46512346639605,37.46697075027359 l 66.94186729307626,-35.59362221275991 l -71.72977643923616,34.98494953995929 l 68.14328761727435,-33.235702062961316 l -72.90703772860998,32.46030455764914 l 69.26168584217947,-30.837289329766687 l -73.99547302297994,29.896111694361593 l 70.29569937183095,-28.401306109643514 l -74.99375623160002,27.295495024117972 l 71.24406842002001,-25.930720272912076 l -75.90067110015458,24.661622997735876 l 72.10563754514685,-23.428541847849086 l -76.71511269257563,21.99770458256312 l 72.87935705794685,-20.897819353434965 l -77.43608873723805,19.306985352842872 l 73.56428430037614,-18.34163608520073 l -78.06272083588922,16.592743535483283 l 74.15958479409476,-15.76310635870912 l -78.59424553384214,13.858286016042197 l 74.66453325715003,-13.165371715240084 l -79.03001525012756,11.106944309795594 l 75.07851448762119,-10.551597094305816 l -79.36949906647129,8.342070502801404 l 75.40102411314773,-7.924966977661333 l -79.61228337413664,5.567033167896719 l 75.63166920542982,-5.288681509501884 l -79.75807237784275,2.785213260612957 l 75.77016875895062,-2.6459525975823093 l -79.80668845614568,6.841450389785818e-14 l 75.8163540333384,-6.499377870296527e-14 l -79.75807237784275,-2.78521326061282 l 75.77016875895062,2.6459525975821787 l -79.61228337413665,-5.567033167896582 l 75.63166920542982,5.288681509501753 l -79.3694990664713,-8.342070502801267 l 75.40102411314774,7.924966977661204 l -79.03001525012759,-11.106944309795459 l 75.0785144876212,10.551597094305686 l -78.59424553384217,-13.85828601604206 l 74.66453325715007,13.165371715239957 l -78.06272083588927,-16.59274353548315 l 74.15958479409478,15.763106358708994 " /></g><g stroke="rgb(255,255,255)" stroke-opacity="1.0" fill="rgb(0,0,0)" fill-opacity="0.0" stroke-width="1.0"><path d="M 117.6572004865429,155.15079519125305 l 77.4360887372381,19.30698535284273 l -73.56428430037619,-18.341636085200594 l 76.71511269257566,21.99770458256298 l -72.87935705794688,-20.897819353434834 l 75.90067110015463,24.66162299773574 l -72.10563754514689,-23.428541847848955 l 74.99375623160007,27.29549502411783 l -71.24406842002007,-25.930720272911945 l 73.99547302298,29.896111694361466 l -70.29569937183099,-28.40130610964339 l 72.90703772861015,32.46030455764875 l -69.26168584217965,-30.83728932976631 l 71.72977643923635,34.9849495399589 l -68.14328761727454,-33.23570206296095 l 70.46512346639625,37.46697075027321 l -66.94186729307644,-35.59362221275955 l 69.11461959493252,39.903344228072726 l -65.6588886151859,-37.90817701666909 l 67.67991020578351,42.29110162756908 l -64.29591469549435,-40.17654654619062 l 66.1627432713396,44.62733383417727 l -62.85460610777261,-42.39596714246841 l 64.564967225809,46.9091945088221 l -61.33671886451855,-44.563734783380994 l 62.888528713184385,49.13390355576563 l -59.744102277525165,-46.677208377977344 l 61.13547021555799,51.298750509724094 l -58.07869670478008,-48.7338129842379 l 59.30792756467137,53.401097838153014 l -56.3425311864378,-50.73104294624537 l 57.408127339732914,55.43838415467487 l -54.537720972746264,-52.666464946941126 l 55.43838415467489,57.4081273397329 l -52.666464946941154,-54.53772097274626 l 53.401097838153234,59.30792756467116 l -50.73104294624557,-56.34253118643761 l 51.298750509724115,61.13547021555797 l -48.733812984237915,-58.07869670478007 l 49.13390355576564,62.888528713184385 l -46.67720837797736,-59.744102277525165 l 46.90919450882234,64.56496722580883 l -44.56373478338122,-61.33671886451839 l 44.62733383417729,66.1627432713396 l -42.39596714246843,-62.85460610777261 l 42.291101627569326,67.67991020578336 l -40.176546546190856,-64.29591469549419 l 39.90334422807275,69.11461959493252 l -37.90817701666911,-65.65888861518589 l 37.46697075027348,70.46512346639611 l -35.593622212759804,-66.9418672930763 l 34.984949539959175,71.72977643923622 l -33.23570206296121,-68.1432876172744 l 32.46030455764877,72.90703772861013 l -30.837289329766328,-69.26168584217963 l 29.896111694361746,73.99547302297988 l -28.401306109643656,-70.29569937183089 l 27.295495024117855,74.99375623160006 l -25.930720272911962,-71.24406842002006 l 24.66162299773603,75.90067110015453 l -23.428541847849228,-72.1056375451468 l 21.997704582563003,76.71511269257566 l -20.89781935343485,-72.87935705794688 l 19.306985352843025,77.43608873723802 l -18.341636085200875,-73.56428430037612 l 16.59274353548344,78.0627208358892 l -15.763106358709267,-74.15958479409473 l 13.858286016042072,78.59424553384217 l -13.165371715239969,-74.66453325715007 l 11.10694430979575,79.03001525012755 l -10.551597094305963,-75.07851448762116 l 8.342070502801276,79.3694990664713 l -7.924966977661212,-75.40102411314774 l 5.5670331678968745,79.61228337413662 l -5.288681509502031,-75.6316692054298 l 2.7852132606128297,79.75807237784275 l -2.6459525975821885,-75.77016875895062 l -5.869040213584589e-14,79.80668845614568 l 5.575588202905359e-14,-75.8163540333384 l -2.785213260612664,79.75807237784275 l 2.645952597582031,-75.77016875895062 l -5.567033167896709,79.61228337413664 l 5.288681509501874,-75.63166920542982 l -8.34207050280111,79.36949906647132 l 7.924966977661055,-75.40102411314776 l -11.106944309795583,79.03001525012756 l 10.551597094305803,-75.07851448762119 l -13.858286016041905,78.5942455338422 l 13.165371715239809,-74.66453325715008 " /></g><g stroke="rgb(165,42,42)" stroke-opacity="1.0" fill="rgb(0,0,0)" fill-opacity="0.0" stroke-width="1.0"><path d="M 204.16076707863039,288.3546066314099 l 16.59274353548327,-78.06272083588922 l -15.763106358709106,74.15958479409477 l 19.306985352842855,-77.43608873723807 l -18.341636085200708,73.56428430037616 l 21.997704582562832,-76.71511269257572 l -20.89781935343469,72.87935705794692 l 24.66162299773586,-75.90067110015458 l -23.42854184784907,72.10563754514686 l 27.29549502411769,-74.99375623160013 l -25.930720272911802,71.24406842002011 l 29.89611169436158,-73.99547302297994 l -28.401306109643496,70.29569937183095 l 32.460304557648605,-72.9070377286102 l -30.83728932976618,69.2616858421797 l 34.98494953995901,-71.72977643923629 l -33.23570206296106,68.14328761727447 l 37.466970750273326,-70.4651234663962 l -35.593622212759655,66.94186729307638 l 39.9033442280726,-69.11461959493259 l -37.908177016668965,65.65888861518597 l 42.291101627569184,-67.67991020578346 l -40.17654654619073,64.29591469549428 l 44.62733383417715,-66.16274327133966 l -42.395967142468294,62.85460610777269 l 46.9091945088222,-64.56496722580893 l -44.56373478338109,61.33671886451848 l 49.133903555765514,-62.88852871318449 l -46.67720837797724,59.744102277525265 l 51.29875050972398,-61.13547021555807 l -48.73381298423779,58.07869670478017 l 53.401097838153106,-59.307927564671274 l -50.73104294624545,56.34253118643771 l 55.43838415467477,-57.408127339733014 l -52.666464946941026,54.53772097274637 l 57.408127339732786,-55.438384154675006 l -54.53772097274615,52.666464946941254 l 59.30792756467124,-53.40109783815314 l -56.342531186437675,50.73104294624549 l 61.13547021555787,-51.29875050972424 l -58.07869670477998,48.733812984238035 l 62.888528713184286,-49.13390355576577 l -59.74410227752507,46.67720837797748 l 64.5649672258089,-46.90919450882224 l -61.33671886451846,44.56373478338113 l 66.1627432713395,-44.62733383417743 l -62.85460610777252,42.39596714246855 l 67.67991020578341,-42.291101627569226 l -64.29591469549425,40.176546546190764 l 69.11461959493244,-39.90334422807288 l -65.65888861518582,37.908177016669235 l 70.46512346639618,-37.46697075027336 l -66.94186729307636,35.5936222127597 l 71.72977643923628,-34.984949539959054 l -68.14328761727445,33.235702062961096 l 72.90703772861008,-32.46030455764891 l -69.26168584217957,30.837289329766463 l 73.99547302297992,-29.89611169436163 l -70.29569937183092,28.401306109643542 l 74.99375623160002,-27.295495024117997 l -71.24406842002001,25.930720272912097 l 75.90067110015458,-24.661622997735908 l -72.10563754514685,23.428541847849115 l 76.71511269257562,-21.997704582563152 l -72.87935705794683,20.897819353434993 l 77.43608873723805,-19.3069853528429 l -73.56428430037614,18.341636085200754 l 78.06272083588922,-16.59274353548331 l -74.15958479409476,15.763106358709148 l 78.59424553384214,-13.858286016042225 l -74.66453325715003,13.165371715240113 l 79.03001525012756,-11.106944309795622 l -75.07851448762119,10.551597094305842 l 79.36949906647129,-8.342070502801432 l -75.40102411314773,7.924966977661361 " /></g><g stroke="rgb(210,180,140)" stroke-opacity="1.0" fill="rgb(0,0,0)" fill-opacity="0.0" stroke-width="1.0"><path d="M 306.4171577050341,196.28253895609595 l -79.61228337413664,5.567033167896758 l 75.63166920542982,-5.28868150950192 l -79.75807237784275,2.785213260612996 l 75.77016875895062,-2.645952597582346 l -79.80668845614568,3.9103881986312453e-13 l 75.8163540333384,-3.714868788699682e-13 l -79.75807237784275,-2.7852132606127813 l 75.77016875895062,2.645952597582142 l -79.61228337413667,-5.567033167896543 l 75.63166920542983,5.288681509501717 l -79.36949906647133,-8.342070502800945 l 75.40102411314777,7.924966977660898 l -79.03001525012756,-11.1069443097957 l 75.07851448762118,10.551597094305915 l -78.59424553384217,-13.85828601604202 l 74.66453325715007,13.165371715239921 l -78.06272083588927,-16.592743535483113 l 74.1595847940948,15.763106358708958 l -77.43608873723804,-19.306985352842975 l 73.56428430037613,18.34163608520083 l -76.71511269257567,-21.997704582562957 l 72.87935705794688,20.89781935343481 l -75.90067110015464,-24.661622997735716 l 72.1056375451469,23.42854184784893 l -74.99375623160017,-27.295495024117542 l 71.24406842002017,25.930720272911667 l -73.99547302297991,-29.896111694361696 l 70.2956993718309,28.40130610964361 l -72.90703772861016,-32.46030455764872 l 69.26168584217966,30.83728932976629 l -71.72977643923636,-34.98494953995887 l 68.14328761727454,33.235702062960925 l -70.46512346639614,-37.46697075027344 l 66.94186729307633,35.59362221275976 l -69.11461959493253,-39.90334422807271 l 65.65888861518592,37.90817701666907 l -67.67991020578354,-42.29110162756905 l 64.29591469549436,40.1765465461906 l -66.16274327133976,-44.627333834177016 l 62.85460610777277,42.395967142468166 l -64.56496722580886,-46.9091945088223 l 61.33671886451842,44.56373478338119 l -62.88852871318441,-49.13390355576561 l 59.74410227752519,46.67720837797733 l -61.13547021555818,-51.29875050972386 l 58.07869670478028,48.73381298423767 l -59.307927564671196,-53.401097838153206 l 56.34253118643763,50.731042946245545 l -57.408127339732935,-55.438384154674864 l 54.53772097274629,52.66646494694112 l -55.43838415467492,-57.40812733973287 l 52.666464946941176,54.53772097274622 l -53.40109783815326,-59.30792756467114 l 50.731042946245594,56.342531186437576 l -51.29875050972436,-61.13547021555777 l 48.73381298423814,58.07869670477988 l -49.13390355576567,-62.888528713184364 l 46.67720837797739,59.744102277525144 l -46.90919450882237,-64.56496722580881 l 44.56373478338125,61.33671886451837 l -44.627333834177556,-66.16274327133941 l 42.395967142468685,62.85460610777244 l -42.29110162756913,-67.6799102057835 l 40.176546546190664,64.29591469549432 l -39.903344228072775,-69.1146195949325 l 37.908177016669136,65.65888861518587 l -37.466970750273504,-70.4651234663961 l 35.593622212759826,66.9418672930763 l -34.98494953995894,-71.72977643923633 l 33.23570206296099,68.14328761727451 " /></g><g stroke="rgb(34,139,34)" stroke-opacity="1.0" fill="rgb(0,0,0)" fill-opacity="0.0" stroke-width="1.0"><path d="M 192.84394546786257,130.71101429823472 l 32.46030455764907,72.90703772861002 l -30.837289329766612,-69.2616858421795 l 29.896111694361522,73.99547302297997 l -28.401306109643446,-70.29569937183098 l 27.295495024117894,74.99375623160005 l -25.930720272911994,-71.24406842002006 l 24.66162299773607,75.90067110015453 l -23.428541847849264,-72.10563754514679 l 21.997704582563316,76.71511269257556 l -20.897819353435146,-72.87935705794679 l 19.306985352842783,77.43608873723808 l -18.341636085200648,-73.56428430037619 l 16.592743535483475,78.06272083588918 l -15.763106358709301,-74.15958479409473 l 13.85828601604239,78.5942455338421 l -13.16537171524027,-74.66453325715 l 11.106944309795509,79.03001525012758 l -10.551597094305732,-75.0785144876212 l 8.342070502801315,79.3694990664713 l -7.924966977661249,-75.40102411314773 l 5.567033167896914,79.61228337413662 l -5.288681509502068,-75.6316692054298 l 2.7852132606131526,79.75807237784274 l -2.645952597582495,-75.7701687589506 l -1.959639990849836e-14,79.80668845614568 l 1.8616579913073442e-14,-75.8163540333384 l -2.7852132606126245,79.75807237784275 l 2.645952597581993,-75.77016875895062 l -5.567033167896389,79.61228337413667 l 5.288681509501569,-75.63166920542983 l -8.342070502801354,79.3694990664713 l 7.924966977661287,-75.40102411314773 l -11.106944309795548,79.03001525012756 l 10.55159709430577,-75.07851448762119 l -13.858286016041868,78.59424553384221 l 13.165371715239775,-74.6645332571501 l -16.59274353548296,78.0627208358893 l 15.763106358708812,-74.15958479409483 l -19.306985352842826,77.43608873723807 l 18.341636085200683,-73.56428430037617 l -21.9977045825628,76.71511269257572 l 20.89781935343466,-72.87935705794693 l -24.661622997735567,75.90067110015468 l 23.428541847848784,-72.10563754514695 l -27.295495024117923,74.99375623160005 l 25.93072027291203,-71.24406842002004 l -29.89611169436155,73.99547302297997 l 28.401306109643475,-70.29569937183096 l -32.46030455764858,72.90703772861023 l 30.837289329766147,-69.26168584217972 l -34.98494953995873,71.72977643923643 l 33.23570206296079,-68.14328761727461 l -37.4669707502733,70.46512346639621 l 35.59362221275963,-66.9418672930764 l -39.90334422807257,69.11461959493262 l 37.908177016668944,-65.65888861518599 l -42.29110162756892,67.67991020578363 l 40.17654654619047,-64.29591469549445 l -44.627333834177364,66.16274327133955 l 42.39596714246849,-62.85460610777256 l -46.909194508822175,64.56496722580894 l 44.56373478338107,-61.3367188645185 l -49.133903555765485,62.88852871318451 l 46.677208377977216,-59.74410227752528 l -51.29875050972419,61.135470215557916 l 48.73381298423797,-58.07869670478002 l -53.401097838153085,59.307927564671296 l 50.731042946245424,-56.34253118643773 l -55.43838415467475,57.40812733973305 l 52.666464946941005,-54.53772097274639 l -57.40812733973278,55.43838415467502 l 54.53772097274613,-52.666464946941275 l -59.30792756467103,53.401097838153376 l 56.34253118643748,-50.7310429462457 l -61.135470215558044,51.29875050972404 l 58.078696704780135,-48.73381298423784 l -62.888528713184265,49.133903555765784 l 59.74410227752505,-46.6772083779775 l -64.56496722580873,46.90919450882249 l 61.33671886451829,-44.56373478338136 l -66.16274327133964,44.627333834177215 l 62.85460610777265,-42.39596714246835 l -67.67991020578341,42.29110162756925 l 64.29591469549425,-40.176546546190785 l -69.11461959493242,39.9033442280729 l 65.6588886151858,-37.908177016669256 " /></g><g stroke="rgb(0,255,255)" stroke-opacity="1.0" fill="rgb(0,0,0)" fill-opacity="0.0" stroke-width="1.0"><path d="M 144.65807923395272,279.0118615308691 l 70.46512346639615,-37.466970750273404 l -66.94186729307636,35.59362221275973 l 71.72977643923613,-34.984949539959345 l -68.14328761727432,33.23570206296137 l 72.90703772861018,-32.46030455764869 l -69.26168584217967,30.837289329766254 l 73.99547302297991,-29.89611169436166 l -70.29569937183092,28.401306109643578 l 74.9937562316,-27.295495024118036 l -71.24406842002,25.930720272912136 l 75.90067110015447,-24.661622997736213 l -72.10563754514676,23.428541847849402 l 76.71511269257567,-21.997704582562914 l -72.87935705794689,20.89781935343477 l 77.43608873723804,-19.306985352842936 l -73.56428430037613,18.34163608520079 l 78.06272083588915,-16.59274353548363 l -74.1595847940947,15.763106358709448 " /></g><g stroke="rgb(250,128,114)" stroke-opacity="1.0" fill="rgb(0,0,0)" fill-opacity="0.0" stroke-width="1.0"><path d="M 178.26836724668667,266.77871712911974 l -78.59424553384213,13.858286016042271 l 74.66453325715003,-13.165371715240159 l -79.0300152501275,11.106944309795953 l 75.07851448762115,-10.551597094306155 l -79.3694990664713,8.342070502801198 l 75.40102411314774,-7.924966977661138 l -79.61228337413664,5.567033167896797 l 75.63166920542982,-5.2886815095019575 l -79.75807237784275,2.7852132606130353 l 75.77016875895062,-2.6459525975823834 l -79.80668845614568,4.30132822090472e-13 l 75.8163540333384,-4.086261809859484e-13 l -79.75807237784275,-2.7852132606127418 l 75.77016875895062,2.6459525975821045 l -79.61228337413667,-5.567033167896504 l 75.63166920542983,5.2886815095016795 l -79.36949906647135,-8.342070502800908 l 75.40102411314778,7.924966977660862 l -79.03001525012756,-11.106944309795663 l 75.07851448762118,10.55159709430588 l -78.59424553384218,-13.858286016041983 l 74.66453325715007,13.165371715239884 l -78.06272083588927,-16.592743535483077 l 74.1595847940948,15.763106358708923 l -77.43608873723804,-19.306985352842936 l 73.56428430037613,18.34163608520079 l -76.71511269257567,-21.997704582562914 l 72.87935705794689,20.89781935343477 l -75.90067110015464,-24.661622997735677 l 72.10563754514692,23.42854184784889 l -74.99375623160019,-27.295495024117503 l 71.24406842002017,25.930720272911625 l -73.99547302297991,-29.89611169436166 l 70.29569937183092,28.401306109643578 l -72.90703772861018,-32.46030455764869 l 69.26168584217967,30.837289329766254 l -71.72977643923637,-34.98494953995884 l 68.14328761727457,33.23570206296089 l -70.46512346639615,-37.466970750273404 l 66.94186729307636,35.59362221275973 l -69.11461959493256,-39.90334422807267 l 65.65888861518593,37.908177016669036 l -67.67991020578357,-42.29110162756901 l 64.29591469549439,40.176546546190565 l -66.16274327133978,-44.62733383417698 l 62.8546061077728,42.39596714246813 l -64.56496722580889,-46.90919450882227 l 61.33671886451844,44.56373478338116 l -62.888528713184435,-49.13390355576558 l 59.74410227752521,46.6772083779773 l -61.135470215558215,-51.29875050972383 l 58.0786967047803,48.733812984237645 l -59.30792756467123,-53.40109783815318 l 56.34253118643767,50.73104294624551 l -57.40812733973296,-55.43838415467483 l 54.537720972746314,52.6664649469411 l -55.43838415467494,-57.40812733973286 l 52.66646494694118,54.53772097274621 l -53.40109783815329,-59.30792756467112 l 50.73104294624562,56.34253118643756 l -51.29875050972439,-61.135470215557746 l 48.73381298423816,58.07869670477985 l -49.1339035557657,-62.88852871318434 l 46.677208377977415,59.74410227752512 l -46.909194508822395,-64.56496722580879 l 44.56373478338128,61.336718864518346 l -44.627333834177584,-66.16274327133938 l 42.395967142468706,62.85460610777242 l -42.29110162756915,-67.67991020578347 l 40.17654654619069,64.2959146954943 l -39.903344228072804,-69.11461959493248 l 37.908177016669164,65.65888861518586 l -37.46697075027354,-70.46512346639608 l 35.59362221275986,66.94186729307627 l -34.984949539958976,-71.72977643923632 l 33.23570206296103,68.14328761727451 l -32.46030455764883,-72.90703772861012 l 30.837289329766392,69.26168584217962 " /></g></g></svg>