<?xml version="1.0" encoding="UTF-8"?>
<!DOCTYPE svg PUBLIC "-//W3C//DTD SVG 1.1//EN"
    "http://www.w3.org/Graphics/SVG/1.1/DTD/svg11.dtd">
<svg xmlns="http://www.w3.org/2000/svg" xmlns:xlink="http://www.w3.org/1999/xlink" version="1.1" width="400.0" height="400.0" viewBox="0 0 400 400"><g fill="rgb(0,0,0)" fill-opacity="0" fill-rule="nonzero" font-family="Sans" font-size="1" font-style="normal" opacity="1" stroke="rgb(0,0,0)" stroke-opacity="1" stroke-width="0.5" stroke-linecap="butt" stroke-linejoin="miter" text-anchor="middle"><path d="M 200.00000000007992,199.99999999991502 h 1.3365060868971164 l 1.3363025305465694,-2.332524743443183e-2 l 1.3346744517547233,-6.994732408227557e-2 l 1.3291845667121542,-0.13970292741122048 l 1.316201556324288,-0.2320818464304443 l 1.2909657463264665,-0.34591322918441825 l 1.2477359226215161,-0.4789609459161325 l 1.1800648322671128,-0.6274516012884448 l 1.0812561373853273,-0.7855785674772475 l 0.9450525171420482,-0.9450525171420481 l 0.7665883984839297,-1.0948016932864537 l 0.543605999234907,-1.2209590647965478 l 0.2778752403150065,-1.3073002222645416 l -2.332524743443178e-2,-1.3363025305465694 l -0.3459132291844184,-1.2909657463264665 l -0.6682530434485578,-1.1574482235654355 l -0.9614020216999634,-0.9284151404324821 l -1.1908356430427962,-0.6067610662953681 l -1.3200514791627138,-0.20907561472676287 l -1.316201556324288,0.23208184643044447 l -1.157448223565435,0.6682530434485583 l -0.8410905332465809,1.0386603078947536 l -0.39075656299842443,1.278107127273258 l 0.13970292741122103,1.3291845667121542 l 0.6682530434485582,1.157448223565435 l 1.0948016932864535,0.7665883984839299 l 1.3200514791627138,0.20907561472676303 l 1.2710928230116394,-0.4130030939367689 l 0.9284151404324824,-0.9614020216999632 l 0.34591322918441947,-1.290965746326466 l -0.34591322918441747,-1.2909657463264665 l -0.9614020216999632,-0.9284151404324824 l -1.3073002222645411,-0.27787524031500865 l -1.2477359226215161,0.47896094591613236 l -0.7665883984839312,1.0948016932864526 l -5.728617654758278e-16,1.3365060868971164 l 0.7855785674772471,1.0812561373853278 l 1.2781071272732576,0.390756562998426 l 1.247735922621517,-0.47896094591613003 l 0.6682530434485601,-1.157448223565434 l -0.23208184643044333,-1.3162015563242884 l -1.0386603078947525,-0.8410905332465822 l -1.3346744517547235,6.994732408227515e-2 l -0.9284151404324827,0.9614020216999629 l -3.2743230741074873e-15,1.3365060868971164 l 0.9450525171420465,0.9450525171420496 l 1.3363025305465694,-2.3325247434429396e-2 l 0.8942971283277719,-0.993217582696633 l -0.13970292741121787,-1.3291845667121547 l -1.0948016932864524,-0.7665883984839317 l -1.2909657463264674,0.34591322918441453 l -0.5436059992349087,1.2209590647965471 l 0.6274516012884434,1.1800648322671135 l 1.3200514791627134,0.20907561472676517 l 0.9450525171420483,-0.9450525171420481 l -0.23208184643044033,-1.3162015563242888 l -1.220959064796548,-0.5436059992349067 l -1.1208883189605219,0.7279133854593538 l 2.3325247434435946e-2,1.3363025305465692 l 1.1574482235654349,0.668253043448559 l 1.1574482235654364,-0.6682530434485561 l -2.332524743443578e-2,-1.3363025305465692 l -1.1908356430427962,-0.6067610662953685 l -1.0812561373853284,0.7855785674772461 l 0.23208184643044452,1.316201556324288 l 1.2909657463264654,0.345913229184422 l 0.8410905332465851,-1.0386603078947503 l -0.6274516012884427,-1.180064832267114 l -1.3291845667121551,0.13970292741121443 l -0.34591322918442463,1.2909657463264648 l 1.0948016932864517,0.7665883984839326 l 1.0812561373853316,-0.785578567477242 l -0.41300309393676243,-1.2710928230116414 l -1.3363025305465692,2.3325247434437424e-2 l -0.34591322918442496,1.2909657463264648 l 1.1574482235654366,0.6682530434485556 l 0.928415140432484,-0.9614020216999616 l -0.7279133854593508,-1.1208883189605239 l -1.247735922621518,0.47896094591612803 l 0.23208184643044358,1.3162015563242881 l 1.3365060868971164,2.9461462224471142e-15 l 0.20907561472676453,-1.3200514791627136 l -1.2781071272732563,-0.3907565629984306 l -0.543605999234906,1.2209590647965483 l 1.1574482235654315,0.6682530434485644 l 0.7665883984839238,-1.0948016932864577 l -1.038660307894757,-0.8410905332465769 l -0.8942971283277809,0.993217582696625 l 0.9614020216999594,0.9284151404324863 l 0.9450525171420465,-0.9450525171420499 l -0.9450525171420447,-0.9450525171420516 l -0.9284151404324882,0.9614020216999575 l 0.9932175826966264,0.8942971283277793 l 0.8410905332465719,-1.0386603078947612 l -1.0948016932864533,-0.7665883984839302 l -0.6682530434485673,1.15744822356543 l 1.2209590647965487,0.5436059992349049 l 0.390756562998425,-1.278107127273258 l -1.3200514791627138,-0.20907561472676356 l 2.621278456340628e-15,1.3365060868971164 l 1.3162015563242864,-0.23208184643045351 l -0.4789609459161329,-1.247735922621516 l -1.1208883189605237,0.7279133854593511 l 0.9614020216999585,0.9284151404324873 l 0.668253043448564,-1.157448223565432 l -1.2909657463264659,-0.34591322918442047 l 2.3325247434437094e-2,1.3363025305465692 l 1.2710928230116403,-0.41300309393676643 l -0.7855785674772566,-1.081256137385321 l -0.7665883984839216,1.0948016932864593 l 1.2909657463264645,0.3459132291844255 l -0.13970292741119916,-1.3291845667121567 l -1.18006483226711,0.6274516012884499 l 1.0386603078947405,0.8410905332465972 l 0.34591322918444206,-1.29096574632646 l -1.3162015563242893,0.23208184643043808 l 0.7855785674772598,1.0812561373853184 l 0.6067610662953662,-1.1908356430427973 l -1.3363025305465699,2.3325247434405005e-2 l 0.6682530434485456,1.1574482235654424 l 0.6682530434485571,-1.157448223565436 l -1.3363025305465697,2.332524743441418e-2 l 0.7279133854593274,1.120888318960539 l 0.5436059992349139,-1.2209590647965447 l -1.316201556324291,0.23208184643042776 l 0.945052517142032,0.9450525171420642 l 0.20907561472674996,-1.3200514791627158 l -1.1800648322671063,0.6274516012884569 l 1.2209590647965396,0.5436059992349253 l -0.3459132291844059,-1.2909657463264697 l -0.7665883984839312,1.0948016932864526 l 1.3291845667121571,-0.13970292741119458 l -0.9932175826966267,-0.8942971283277789 l 2.3325247434405665e-2,1.3363025305465699 l 0.9450525171420499,-0.9450525171420465 l -1.3365060868971164,-1.3095637753653005e-14 l 0.9614020216999493,0.9284151404324966 l -6.994732408225078e-2,-1.3346744517547247 l -0.8410905332466012,1.0386603078947372 l 1.3162015563242855,-0.23208184643045873 l -1.1574482235654264,-0.6682530434485736 l 0.4789609459161244,1.2477359226215192 l 0.39075656299842065,-1.2781071272732594 l -1.0812561373853162,0.785578567477263 l 1.3365060868971164,-3.309085553887168e-18 l -1.0948016932864448,-0.7665883984839426 l 0.4789609459161415,1.2477359226215126 l 0.2778752403150434,-1.3073002222645338 l -0.9284151404324859,0.9614020216999597 l 1.2909657463264685,-0.3459132291844104 l -1.2909657463264645,-0.3459132291844255 l 0.9614020216999611,0.9284151404324845 l -0.41300309393673656,-1.2710928230116498 l -0.20907561472674868,1.320051479162716 l 0.7665883984839377,-1.0948016932864482 l -1.1574482235654315,0.6682530434485644 l 1.3291845667121556,-0.1397029274112102 l -1.2781071272732512,-0.3907565629984475 l 1.038660307894731,0.841090533246609 l -0.6682530434485536,-1.1574482235654378 l 0.23208184643043486,1.3162015563242897 l 0.20907561472677325,-1.320051479162712 l -0.6067610662954094,1.1908356430427753 l 0.928415140432484,-0.9614020216999616 l -1.1574482235654322,0.6682530434485632 l 1.2909657463264717,-0.345913229184399 l -1.3363025305465694,2.3325247434427272e-2 l 1.3073002222645445,0.27787524031499283 l -1.2209590647965316,-0.5436059992349432 l 1.0948016932864455,0.7665883984839413 l -0.9450525171420313,-0.945052517142065 l 0.785578567477254,1.0812561373853227 l -0.6274516012884158,-1.180064832267128 l 0.4789609459161024,1.2477359226215277 l -0.3459132291843541,-1.2909657463264836 l 0.23208184643046065,1.3162015563242853 l -0.13970292741120957,-1.3291845667121556 l 6.994732408227826e-2,1.334674451754723 l -2.3325247434413523e-2,-1.3363025305465697 l 1.9698883813507117e-15,1.3365060868971164 l 1.2438456778943788e-14,-1.3365060868971164 l 2.3325247434446264e-2,1.336302530546569 l -6.994732408228217e-2,-1.334674451754723 l 0.1397029274111848,1.3291845667121582 l -0.2320818464304078,-1.3162015563242946 l 0.3459132291843477,1.2909657463264852 l -0.47896094591606936,-1.2477359226215403 l 0.6274516012884263,1.1800648322671226 l -0.7855785674772402,-1.0812561373853327 l 0.9450525171420258,0.9450525171420706 l -1.0948016932864462,-0.7665883984839403 l 1.220959064796536,0.5436059992349336 l -1.3073002222645407,-0.27787524031501076 l 1.3363025305465694,-2.332524743441811e-2 l -1.2909657463264814,0.34591322918436235 l 1.1574482235654278,-0.6682530434485713 l -0.9284151404324982,0.9614020216999478 l 0.6067610662953848,-1.1908356430427878 l -0.209075614726737,1.3200514791627178 l -0.2320818464304052,-1.316201556324295 l 0.6682530434485684,1.1574482235654293 l -1.0386603078947236,-0.8410905332466182 l 1.2781071272732394,0.3907565629984863 l -1.3291845667121587,0.13970292741117896 l 1.1574482235654238,-0.668253043448578 l -0.7665883984839484,1.0948016932864406 l 0.2090756147267901,-1.3200514791627094 l 0.4130030939367054,1.27109282301166 l -0.9614020216999712,-0.928415140432474 l 1.2909657463264608,0.3459132291844395 l -1.2909657463264699,0.34591322918440537 l 0.9284151404325103,-0.9614020216999363 l -0.27787524031503064,1.3073002222645365 l -0.4789609459160914,-1.2477359226215319 l 1.0948016932864408,0.7665883984839479 l -1.3365060868971164,-3.53587182976962e-14 l 1.0812561373853762,-0.7855785674771805 l -0.3907565629984369,1.2781071272732545 l -0.4789609459161525,-1.2477359226215083 l 1.157448223565446,0.6682530434485395 l -1.3162015563243035,0.23208184643035681 l 0.8410905332465861,-1.0386603078947496 l 6.99473240823175e-2,1.3346744517547213 l -0.9614020216999493,-0.9284151404324966 l 1.3365060868971164,4.190736444591118e-14 l -0.9450525171420637,0.9450525171420326 l -2.332524743439519e-2,-1.3363025305465699 l 0.9932175826966767,0.8942971283277233 l -1.3291845667121562,0.1397029274112024 l 0.7665883984839796,-1.0948016932864189 l 0.34591322918443135,1.290965746326463 l -1.2209590647965387,-0.5436059992349277 l 1.180064832267121,-0.6274516012884291 l -0.20907561472680944,1.3200514791627065 l -0.9450525171420229,-0.9450525171420734 l 1.3162015563242981,-0.23208184643038648 l -0.5436059992348744,1.2209590647965625 l -0.7279133854593712,-1.1208883189605106 l 1.3363025305465699,-2.3325247434399773e-2 l -0.6682530434485286,1.1574482235654522 l -0.6682530434484834,-1.1574482235654786 l 1.3363025305465694,-2.3325247434418113e-2 l -0.6067610662953463,1.1908356430428073 l -0.7855785674772086,-1.0812561373853558 l 1.316201556324315,-0.23208184643029106 l -0.3459132291844123,1.290965746326468 l -1.0386603078947418,-0.8410905332465957 l 1.1800648322670781,-0.6274516012885101 l 0.13970292741120047,1.3291845667121565 l -1.2909657463264672,-0.3459132291844154 l 0.7665883984839366,-1.0948016932864488 l 0.785578567477203,1.0812561373853598 l -1.2710928230116343,0.4130030939367846 l -2.332524743448425e-2,-1.3363025305465686 l 1.290965746326441,0.34591322918451284 l -0.66825304344854,1.1574482235654457 l -0.9614020216999312,-0.9284151404325155 l 1.1208883189605194,-0.7279133854593576 l 0.4789609459161488,1.24773592262151 l -1.3162015563243148,0.23208184643029234 l 5.696792695258407e-14,-1.3365060868971164 l 1.320051479162691,0.2090756147269071 l -0.39075656299839173,1.2781071272732683 l -1.220959064796559,-0.5436059992348822 l 0.6682530434485706,-1.157448223565428 l 1.0948016932864018,0.7665883984840036 l -0.8410905332466196,1.0386603078947223 l -0.9932175826966039,-0.8942971283278043 l 0.9284151404325329,-0.9614020216999143 l 0.9450525171420608,0.9450525171420354 l -0.9450525171421045,0.945052517141992 l -0.961402021699922,-0.928415140432525 l 0.8942971283277151,-0.9932175826966841 l 1.0386603078947707,0.84109053324656 l -0.7665883984839762,1.094801693286421 l -1.157448223565423,-0.6682530434485793 l 0.5436059992349307,-1.2209590647965374 l 1.27810712727324,0.3907565629984839 l -0.20907561472689484,1.320051479162693 l -1.3365060868971164,-8.7747887483416e-14 l -0.2320818464303691,-1.3162015563243012 l 1.2477359226214975,-0.4789609459161812 l 0.7279133854593505,1.1208883189605239 l -0.9284151404324436,0.9614020217000007 l -1.1574482235654742,-0.6682530434484907 l 0.34591322918449957,-1.2909657463264446 l 1.336302530546569,-2.332524743445478e-2 l 0.41300309393671547,1.2710928230116567 l -1.0812561373853384,0.7855785674772323 l -1.0948016932864448,-0.7665883984839426 l 0.3459132291844641,-1.2909657463264541 l 1.3291845667121664,-0.13970292741110732 l 0.6274516012883893,1.1800648322671423 l -0.8410905332466175,1.038660307894724 l -1.2909657463264494,-0.34591322918448125 l -0.2320818464303278,-1.3162015563243086 l 1.081256137385359,-0.7855785674772037 l 1.190835643042785,0.6067610662953902 l 2.3325247434401744e-2,1.3363025305465699 l -1.1574482235654704,0.6682530434484975 l -1.1574482235654389,-0.668253043448552 l -2.3325247434481635e-2,-1.3363025305465686 l 1.1208883189605723,-0.7279133854592764 l 1.2209590647965605,0.5436059992348786 l 0.23208184643041424,1.3162015563242933 l -0.9450525171420302,0.945052517142066 l -1.3200514791626972,-0.20907561472686706 l -0.6274516012884737,-1.1800648322670975 l 0.543605999234921,-1.2209590647965414 l 1.290965746326492,-0.3459132291843231 l 1.0948016932864169,0.7665883984839823 l 0.1397029274113073,1.3291845667121454 l -0.8942971283278464,0.9932175826965659 l -1.3363025305465723,2.3325247434262272e-2 l -0.9450525171420693,-0.945052517142027 l 1.0935709613830387e-13,-1.3365060868971164 l 0.9284151404325763,-0.9614020216998724 l 1.3346744517547253,-6.994732408223968e-2 l 1.038660307894769,0.8410905332465621 l 0.23208184643034457,1.3162015563243057 l -0.6682530434486534,1.1574482235653802 l -1.2477359226215166,0.4789609459161311 l -1.278107127273235,-0.3907565629985002 l -0.7855785674772149,-1.081256137385351 l 3.6004317472966816e-14,-1.3365060868971164 l 0.7665883984839837,-1.0948016932864157 l 1.2477359226215086,-0.4789609459161519 l 1.3073002222645251,0.27787524031508376 l 0.9614020216998155,0.9284151404326353 l 0.34591322918434275,1.2909657463264865 l -0.3459132291843971,1.290965746326472 l -0.9284151404326375,0.9614020216998133 l -1.2710928230116028,0.4130030939368817 l -1.3200514791627078,-0.20907561472679972 l -1.0948016932864102,-0.7665883984839919 l -0.6682530434485604,-1.157448223565434 l -0.13970292741126691,-1.3291845667121496 l 0.3907565629983705,-1.2781071272732747 l 0.8410905332465575,-1.0386603078947727 l 1.15744822356545,-0.6682530434485326 l 1.3162015563243097,-0.23208184643032198 l 1.3200514791626978,0.20907561472686317 l 1.1908356430428138,0.606761066295334 l 0.961402021699852,0.9284151404325975 l 0.6682530434486116,1.1574482235654044 l 0.34591322918421874,1.2909657463265198 l 2.3325247434378176e-2,1.3363025305465703 l -0.2778752403150921,1.3073002222645234 l -0.5436059992349104,1.2209590647965463 l -0.766588398484017,1.0948016932863924 l -0.9450525171421136,0.9450525171419826 l -1.0812561373853045,0.785578567477279 l -1.1800648322671206,0.6274516012884304 l -1.2477359226214997,0.47896094591617505 l -1.2909657463264868,0.3459132291843421 l -1.316201556324303,0.23208184643035942 l -1.329184566712152,0.1397029274112441 l -1.3346744517547262,6.994732408222268e-2 l -1.3363025305465694,2.3325247434419435e-2 l -1.3365060868971164,-1.5847194224991615e-13 l -1.3365060868971164,-1.8728863257050516e-13 l -1.336302530546571,2.3325247434332994e-2 l -1.3346744517547338,6.99473240820788e-2 l -1.3291845667121414,0.1397029274113457 l -1.3162015563242953,0.23208184643040325 l -1.2909657463264903,0.34591322918432943 l -1.2477359226215252,0.4789609459161091 l -1.1800648322671807,0.627451601288317 l -1.081256137385414,0.7855785674771284 l -0.9450525171420711,0.9450525171420252 l -0.7665883984840149,1.094801693286394 l -0.5436059992349606,1.220959064796524 l -0.277875240314905,1.307300222264563 l 2.3325247434207927e-2,1.3363025305465732 l 0.3459132291842921,1.2909657463265003 l 0.6682530434486273,1.1574482235653953 l 0.9614020216998247,0.9284151404326257 l 1.1908356430427696,0.6067610662954205 l 1.3200514791626976,0.20907561472686573 l 1.3162015563242937,-0.23208184643041233 l 1.157448223565357,-0.6682530434486939 l 0.8410905332464578,-1.0386603078948533 l 0.3907565629984482,-1.278107127273251 l -0.13970292741112883,-1.329184566712164 l -0.6682530434485219,-1.1574482235654562 l -1.0948016932863516,-0.7665883984840757 l -1.320051479162683,-0.20907561472695757 l -1.27109282301167,0.41300309393667495 l -0.9284151404326169,0.9614020216998332 l -0.3459132291842782,1.290965746326504 l 0.34591322918440603,1.2909657463264697 l 0.9614020216999264,0.9284151404325203 l 1.3073002222645462,0.2778752403149838 l 1.247735922621547,-0.47896094591605165 l 0.7665883984839945,-1.0948016932864082 l -4.521477837555753e-14,-1.3365060868971164 l -0.7855785674772339,-1.081256137385337 l -1.2781071272732696,-0.39075656299838735 l -1.2477359226215494,0.47896094591604554 l -0.6682530434486512,1.1574482235653816 l 0.23208184643044003,1.3162015563242888 l 1.038660307894698,0.8410905332466496 l 1.3346744517547262,-6.994732408222137e-2 l 0.928415140432631,-0.9614020216998196 l -6.093417639971658e-14,-1.3365060868971164 l -0.9450525171419341,-0.9450525171421623 l -1.3363025305465739,2.3325247434165364e-2 l -0.8942971283279614,0.9932175826964624 l 0.1397029274113985,1.3291845667121356 l 1.0948016932863494,0.7665883984840788 l 1.290965746326498,-0.3459132291843004 l 0.5436059992348564,-1.2209590647965702 l -0.6274516012884852,-1.180064832267091 l -1.3200514791626903,-0.20907561472691102 l -0.94505251714221,0.9450525171418863 l 0.23208184643025684,1.316201556324321 l 1.2209590647965338,0.5436059992349384 l 1.1208883189605565,-0.7279133854593005 l -2.3325247434149e-2,-1.3363025305465743 l -1.1574482235653958,-0.6682530434486267 l -1.1574482235654664,0.6682530434485043 l 2.3325247434200072e-2,1.3363025305465734 l 1.1908356430428053,0.6067610662953504 l 1.0812561373854561,-0.7855785674770702 l -0.2320818464304078,-1.3162015563242946 l -1.2909657463264557,-0.3459132291844585 l -0.841090533246526,1.0386603078947982 l 0.6274516012884425,1.180064832267114 l 1.3291845667121502,-0.13970292741126103 l 0.34591322918451733,-1.29096574632644 l -1.09480169328638,-0.7665883984840347 l -1.0812561373853493,0.7855785674772175 l 0.4130030939366432,1.2710928230116803 l 1.336302530546566,-2.3325247434625055e-2 l 0.34591322918468426,-1.290965746326395 l -1.1574482235654258,-0.6682530434485745 l -0.9284151404324453,0.9614020216999989 l 0.7279133854590452,1.1208883189607224 l 1.2477359226215397,-0.4789609459160712 l -0.23208184643019622,-1.3162015563243317 l -1.3365060868971164,-1.6997360032484726e-14 l -0.2090756147267318,1.3200514791627187 l 1.278107127273227,0.39075656299852646 l 0.543605999235024,-1.2209590647964959 l -1.157448223565419,-0.668253043448586 l -0.7665883984840299,1.0948016932863835 l 1.0386603078946932,0.8410905332466557 l 0.8942971283279623,-0.9932175826964615 l -0.9614020216999674,-0.9284151404324779 l -0.9450525171422062,0.94505251714189 l 0.9450525171420258,0.9450525171420706 l 0.928415140432501,-0.9614020216999452 l -0.9932175826964935,-0.8942971283279268 l -0.8410905332467926,1.0386603078945822 l 1.0948016932863283,0.7665883984841088 l 0.6682530434486001,-1.1574482235654109 l -1.2209590647965216,-0.5436059992349659 l -0.3907565629983893,1.278107127273269 l 1.320051479162706,0.20907561472681138 l 1.7649577378863115e-14,-1.3365060868971164 l -1.316201556324318,0.23208184643027427 l 0.478960945915936,1.2477359226215914 l 1.1208883189607577,-0.7279133854589909 l -0.9614020217000092,-0.9284151404324344 l -0.6682530434484923,1.1574482235654733 l 1.2909657463263617,0.3459132291848089 l -2.3325247434575952e-2,-1.3363025305465668 l -1.2710928230116707,0.4130030939366724 l 0.785578567477307,1.081256137385284 l 0.7665883984841275,-1.094801693286315 l -1.2909657463264312,-0.34591322918454953 l 0.13970292741100507,1.329184566712177 l 1.1800648322671974,-0.6274516012882857 l -1.0386603078945456,-0.8410905332468379 l -0.345913229184769,1.2909657463263724 l 1.3162015563243366,-0.2320818464301698 l -0.7855785674774312,-1.081256137385194 l -0.6067610662954234,1.190835643042768 l 1.3363025305465681,-2.3325247434501956e-2 l -0.6682530434483087,-1.1574482235655792 l -0.6682530434484901,1.1574482235654744 l 1.33630253054657,-2.3325247434386708e-2 l -0.7279133854590573,-1.1208883189607144 l -0.5436059992348529,1.2209590647965718 l 1.3162015563243439,-0.23208184643012852 l -0.9450525171418506,-0.9450525171422457 l -0.20907561472658176,1.3200514791627425 l 1.1800648322671825,-0.6274516012883135 l -1.2209590647965236,-0.5436059992349611 l 0.3459132291842668,1.290965746326507 l 0.7665883984842906,-1.094801693286201 l -1.329184566712186,0.13970292741091844 l 0.9932175826963964,0.8942971283280347 l -2.332524743445023e-2,-1.336302530546569 l -0.9450525171423342,0.9450525171417623 l 1.3365060868971164,4.060160611893284e-13 l -0.961402021699973,-0.9284151404324722 l 6.994732408191465e-2,1.3346744517547424 l 0.8410905332468264,-1.038660307894555 l -1.3162015563243672,0.23208184642999566 l 1.1574482235653478,0.6682530434487097 l -0.4789609459160571,-1.247735922621545 l -0.39075656299858974,1.2781071272732076 l 1.081256137385236,-0.7855785674773732 l -1.3365060868971164,-3.103952383516174e-13 l 1.09480169328625,0.7665883984842203 l -0.4789609459161525,-1.2477359226215083 l -0.27787524031539446,1.3073002222644592 l 0.9284151404323275,-0.9614020217001127 l -1.2909657463264583,0.3459132291844484 l 1.2909657463263788,0.3459132291847456 l -0.9614020217001858,-0.9284151404322517 l 0.4130030939369447,1.2710928230115823 l 0.2090756147268987,-1.3200514791626923 l -0.7665883984839612,1.0948016932864317 l 1.1574482235654984,-0.6682530434484487 l -1.3291845667121964,0.13970292741082208 l 1.278107127273184,0.3907565629986667 l -1.0386603078945686,-0.8410905332468094 l 0.6682530434481079,1.1574482235656953 l -0.23208184643012406,-1.3162015563243445 l -0.20907561472647562,1.3200514791627593 l 0.606761066295268,-1.1908356430428473 l -0.9284151404326639,0.9614020216997878 l 1.1574482235655337,-0.6682530434483874 l -1.290965746326394,0.34591322918468875 l 1.3363025305465699,-2.3325247434394573e-2 l -1.307300222264429,-0.277875240315536 l 1.2209590647965414,0.5436059992349216 l -1.09480169328629,-0.7665883984841635 l 0.9450525171419534,0.9450525171421429 l -0.7855785674771111,-1.0812561373854266 l 0.6274516012881001,1.180064832267296 l -0.47896094591595445,-1.2477359226215845 l 0.3459132291842466,1.2909657463265125 l -0.23208184643009822,-1.3162015563243492 l 0.13970292741111712,1.3291845667121653 l -6.994732408223252e-2,-1.3346744517547258 l 2.3325247434262952e-2,1.3363025305465723 l -1.2644711056629743e-13,-1.3365060868971164 l -3.7260737675965965e-13,1.3365060868971164 l -2.332524743458906e-2,-1.3363025305465666 l 6.994732408216842e-2,1.3346744517547289 l -0.13970292741066506,-1.3291845667122129 l 0.23208184643046328,1.3162015563242848 l -0.3459132291842277,-1.2909657463265174 l 0.4789609459161391,1.2477359226215134 l -0.6274516012884667,-1.180064832267101 l 0.7855785674771311,1.081256137385412 l -0.9450525171421249,-0.9450525171419715 l 1.094801693286205,0.7665883984842847 l -1.2209590647965696,-0.5436059992348582 l 1.3073002222644887,0.2778752403152554 l -1.3363025305465717,2.3325247434291114e-2 l 1.2909657463265218,-0.3459132291842118 l -1.157448223565672,0.6682530434481482 l 0.928415140432269,-0.9614020217001692 l -0.6067610662956684,1.1908356430426432 l 0.2090756147267046,-1.3200514791627231 l 0.23208184643010984,1.316201556324347 l -0.6682530434482837,-1.1574482235655936 l 1.0386603078944507,0.841090533246955 l -1.278107127273193,-0.39075656299863787 l 1.3291845667121704,-0.1397029274110683 l -1.1574482235655699,0.6682530434483251 l 0.7665883984839001,-1.0948016932864744 l -0.2090756147266102,1.3200514791627378 l -0.4130030939368512,-1.2710928230116127 l 0.9614020216998465,0.9284151404326032 l -1.2909657463263087,-0.34591322918500755 l 1.2909657463264723,-0.34591322918439654 l -0.928415140432647,0.9614020216998042 l 0.27787524031561606,-1.3073002222644121 l 0.47896094591614397,1.2477359226215117 l -1.0948016932863696,-0.7665883984840498 l 1.3365060868971164,-1.153197066512182e-13 l -1.0812561373852152,0.7855785674774018 l 0.3907565629983479,-1.2781071272732816 l 0.47896094591592875,1.2477359226215943 l -1.1574482235653878,-0.6682530434486403 l 1.3162015563243157,-0.23208184643028848 l -0.8410905332468984,1.0386603078944965 l -6.994732408203894e-2,-1.3346744517547358 l 0.9614020216997885,0.9284151404326635 l -1.3365060868971164,-4.5446545361234684e-13 l 0.9450525171422145,-0.9450525171418818 l 2.3325247434228914e-2,1.336302530546573 l -0.9932175826963937,-0.8942971283280378 l 1.3291845667121638,-0.1397029274111308 l -0.7665883984839377,1.0948016932864482 l -0.345913229184306,-1.2909657463264965 l 1.2209590647963815,0.5436059992352806 l -1.1800648322672445,0.6274516012881967 l 0.20907561472649763,-1.3200514791627558 l 0.9450525171420646,0.9450525171420315 l -1.316201556324359,0.23208184643004215 l 0.5436059992352896,-1.2209590647963775 l 0.7279133854588385,1.1208883189608565 l -1.3363025305465654,2.3325247434647346e-2 l 0.6682530434483391,-1.1574482235655617 l 0.6682530434481215,1.1574482235656873 l -1.3363025305465734,2.3325247434199444e-2 l 0.6067610662954992,-1.1908356430427296 l 0.7855785674770464,1.0812561373854737 l -1.3162015563242757,0.23208184643051424 l 0.3459132291848082,-1.290965746326362 l 1.0386603078944656,0.8410905332469366 l -1.1800648322671548,0.6274516012883655 l -0.13970292741070678,-1.3291845667122084 l 1.2909657463264885,0.3459132291843357 l -0.7665883984835192,1.0948016932867413 l -0.7855785674773462,-1.0812561373852558 l 1.2710928230117764,-0.4130030939363473 l 2.332524743384388e-2,1.3363025305465797 l -1.2909657463265432,-0.345913229184132 l 0.6682530434487499,-1.1574482235653247 l 0.9614020216997428,0.9284151404327107 l -1.1208883189605172,0.727913385459361 l -0.4789609459157001,-1.2477359226216822 l 1.3162015563242715,-0.23208184643053878 l -1.3943851212500297e-13,1.3365060868971164 l -1.320051479162721,-0.2090756147267169 l 0.39075656299838046,-1.2781071272732716 l 1.220959064796243,0.5436059992355917 l -0.6682530434490052,1.1574482235651773 l -1.0948016932865334,-0.7665883984838158 l 0.8410905332470543,-1.0386603078943704 l 0.9932175826964138,0.8942971283280154 l -0.9284151404326489,0.9614020216998024 l -0.9450525171418193,-0.945052517142277 l 0.9450525171420442,-0.9450525171420521 l 0.9614020216996445,0.9284151404328123 l -0.8942971283281462,0.993217582696296 l -1.0386603078946741,-0.8410905332466792 l 0.7665883984838765,-1.0948016932864908 l 1.1574482235651657,0.668253043449025 l -0.5436059992355661,1.2209590647962543 l -1.278107127273295,-0.3907565629983047 l 0.20907561472658817,-1.3200514791627416 l 1.3365060868971164,-4.198016432809669e-14 l 0.23208184643076774,1.316201556324231 l -1.2477359226217983,0.4789609459153974 l -0.7279133854596416,-1.120888318960335 l 0.9284151404328703,-0.9614020216995885 l 1.157448223565239,0.6682530434488978 l -0.3459132291842478,1.290965746326512 l -1.3363025305465808,2.3325247433775127e-2 l -0.41300309393633056,-1.2710928230117817 l 1.081256137385236,-0.7855785674773734 l 1.0948016932864408,0.7665883984839479 l -0.34591322918420464,1.2909657463265236 l -1.3291845667121889,0.13970292741089244 l -0.6274516012885755,-1.1800648322670433 l 0.8410905332467122,-1.0386603078946473 l 1.29096574632645,0.3459132291844799 l 0.2320818464308993,1.3162015563242078 l -1.0812561373852136,0.7855785674774041 l -1.1908356430424016,-0.6067610662961429 l -2.3325247434135943e-2,-1.3363025305465746 l 1.1574482235653898,-0.668253043448637 l 1.1574482235652772,0.6682530434488321 l 2.332524743412939e-2,1.3363025305465746 l -1.1208883189604488,0.7279133854594664 l -1.2209590647962083,-0.5436059992356695 l -0.23208184643087995,-1.3162015563242113 l 0.9450525171422534,-0.9450525171418428 l 1.3200514791627147,0.20907561472675704 l 0.6274516012885466,1.1800648322670586 l -0.5436059992354272,1.2209590647963162 l -1.2909657463265247,0.3459132291842004 l -1.0948016932864146,-0.7665883984839854 l -0.13970292741112364,-1.3291845667121647 l 0.8942971283280051,-0.9932175826964231 l 1.3363025305465819,-2.33252474337162e-2 l 0.945052517141985,0.9450525171421112 l -2.573141427928725e-13,1.3365060868971164 l -0.9284151404329221,0.9614020216995386 l -1.334674451754752,6.99473240817309e-2 l -1.038660307894717,-0.8410905332466262 l -0.23208184643068389,-1.316201556324246 l 0.6682530434487748,-1.1574482235653103 l 1.2477359226218494,-0.47896094591526417 l 1.2781071272732663,0.3907565629983986 l 0.7855785674774004,1.0812561373852165 l -4.433115770128365e-13,1.3365060868971164 l -0.7665883984839676,1.094801693286427 l -1.2477359226216753,0.47896094591571786 l -1.307300222264454,-0.2778752403154181 l -0.9614020216999803,-0.9284151404324646 l -0.34591322918410367,-1.2909657463265507 l 0.345913229184664,-1.2909657463264006 l 0.9284151404331848,-0.9614020216992847 l 1.271092823011659,-0.41300309393670853 l 1.3200514791627225,0.20907561472670785 l 1.0948016932867957,0.7665883984834413 l 0.6682530434488544,1.1574482235652643 l 0.13970292741051793,1.3291845667122282 l -0.39075656299853706,1.2781071272732236 l -0.8410905332468334,1.0386603078945493 l -1.15744822356549,0.6682530434484635 l -1.3162015563241967,0.2320818464309632 l -1.3200514791627715,-0.20907561472639866 l -1.1908356430425313,-0.6067610662958884 l -0.9614020216991886,-0.9284151404332844 l -0.6682530434485491,-1.1574482235654404 l -0.3459132291835343,-1.2909657463267032 l -2.332524743424858e-2,-1.3363025305465726 l 0.277875240315247,-1.3073002222644905 l 0.5436059992359141,-1.2209590647960995 l 0.766588398484194,-1.0948016932862685 l 0.9450525171422867,-0.9450525171418095 l 1.0812561373852867,-0.7855785674773034 l 1.1800648322672624,-0.6274516012881631 l 1.2477359226216185,-0.47896094591586585 l 1.2909657463267374,-0.34591322918340717 l 1.316201556324318,-0.23208184643027563 l 1.3291845667121638,-0.13970292741113083 l 1.3346744517547655,-6.994732408147322e-2 l 1.3363025305465885,-2.332524743333641e-2 l 1.3365060868971164,-2.489544443698934e-13 l 9.355542608279814,2.9151607711196783e-12 l 9.354117713825985,-0.16327673204105564 l 9.342721162283198,-0.4896312685733525 l 9.304291966985316,-0.9779204918763109 l 9.213410894269837,-1.6245729250141328 l 9.036760224285587,-2.4213926042897307 l 8.734151458350816,-3.352726621412396 l 8.260453825872352,-4.392161209014293 l 7.568792961696642,-5.499049972341628 l 6.615367619992844,-6.615367619995831 l 5.366118789389509,-7.663611853003776 l 3.8052419946480485,-8.546713453574188 l 1.945126682207698,-9.151101555851227 l -0.16327673203409288,-9.354117713826106 l -2.4213926042912233,-9.036760224285187 l -4.677771304141623,-8.102137564957056 l -6.729814151898422,-6.498905983028743 l -8.335849501298286,-4.247327464070108 l -9.240360354138867,-1.463529303088159 l -9.213410894269298,1.6245729250171757 l -8.102137564956283,4.677771304142961 l -5.887633732728118,7.270622155261615 l -2.7352959409864277,8.946749890913585 l 0.9779204918724583,9.30429196698572 l 4.67777130413693,8.102137564959765 l 7.663611853006433,5.366118789385712 l 9.24036035413935,1.4635293030851075 l 8.897649761082475,-2.891021657554309 l 6.49890598303153,-6.729814151895732 l 2.421392604287901,-9.036760224286077 l -2.4213926042889735,-9.036760224285787 l -6.7298141518968055,-6.4989059830304186 l -9.151101555851065,-1.945126682208465 l -8.734151458353594,3.3527266214051625 l -5.366118789388884,7.663611853004212 l -6.091600917839646e-13,9.355542608279814 l 5.499049972343494,7.5687929616952845 l 8.946749890913356,2.735295940987177 l 8.734151458352486,-3.352726621408048 l 4.677771304140661,-8.10213756495761 l -1.6245729250110672,-9.213410894270377 l -7.270622155263066,-5.887633732726326 l -9.34272116228328,0.48963126857178674 l -6.4989059830309825,6.729814151896258 l -2.938081032638431e-12,9.355542608279814 l 6.615367619995814,6.615367619992859 l 9.354117713826106,-0.16327673203406992 l 6.26007989829778,-6.95252307887339 l -0.9779204918793611,-9.304291966984996 l -7.663611853005533,-5.366118789386996 l -9.036760224286594,2.4213926042859666 l -3.8052419946516087,8.546713453572602 l 4.392161209019729,8.26045382586946 l 9.240360354139588,1.463529303083604 l 6.615367619993415,-6.61536761999526 l -1.6245729250148595,-9.213410894269707 l -8.546713453574489,-3.8052419946473743 l -7.8462182327219825,5.095393698218049 l 0.16327673203637558,9.354117713826067 l 8.1021375649576,4.677771304140681 l 8.102137564959396,-4.677771304137569 l -0.16327673203946508,-9.354117713826014 l -8.335849501296861,-4.247327464072902 l -7.568792961696669,5.499049972341591 l 1.6245729250156091,9.213410894269575 l 9.036760224284865,2.421392604292422 l 5.887633732728154,-7.270622155261584 l -4.392161209018345,-8.260453825870197 l -9.304291966985563,0.9779204918739491 l -2.4213926042879454,9.036760224286065 l 7.663611853008179,5.3661187893832185 l 7.5687929616962215,-5.499049972342207 l -2.891021657550582,-8.897649761083684 l -9.354117713826067,0.16327673203635265 l -2.4213926042901943,9.036760224285462 l 8.102137564954107,4.677771304146732 l 6.498905983031016,-6.729814151896227 l -5.095393698216077,-7.846218232723263 l -8.734151458353338,3.3527266214058304 l 1.6245729250171077,9.213410894269312 l 9.355542608279814,-1.6510000645142443e-12 l 1.4635293030851755,-9.240360354139339 l -8.946749890911981,-2.735295940991675 l -3.805241994648828,8.54671345357384 l 8.102137564956033,4.6777713041433975 l 5.366118789387676,-7.663611853005057 l -7.27062215526205,-5.88763373272758 l -6.2600798982949515,6.952523078875936 l 6.729814151896212,6.498905983031031 l 6.615367619992908,-6.615367619995765 l -6.615367619990841,-6.615367619997833 l -6.498905983027698,6.729814151899431 l 6.952523078875413,6.260079898295534 l 5.8876337327257895,-7.2706221552635 l -7.663611853008153,-5.366118789383256 l -4.677771304143417,8.10213756495602 l 8.546713453575087,3.8052419946460265 l 2.7352959409939244,-8.946749890911294 l -9.240360354139455,-1.4635293030844465 l -3.0297620787134406e-12,9.355542608279814 l 9.213410894269588,-1.6245729250155412 l -3.3527266214072307,-8.7341514583528 l -7.846218232725398,5.095393698212789 l 6.729814151895653,6.498905983031613 l 4.677771304144774,-8.102137564955237 l -9.036760224284643,-2.4213926042932457 l 0.1632767320362839,9.354117713826067 l 8.897649761082752,-2.891021657553455 l -5.499049972340267,-7.56879296169763 l -5.3661187893896205,7.663611853003695 l 9.03676022428484,2.4213926042925102 l -0.9779204918723216,-9.304291966985733 l -8.260453825869515,4.392161209019628 l 7.2706221552590895,5.887633732731236 l 2.4213926042932683,-9.036760224284638 l -9.213410894269192,1.6245729250177894 l 5.499049972338998,7.568792961698551 l 4.247327464073004,-8.335849501296808 l -9.35411771382611,0.16327673203393245 l 4.677771304142821,8.102137564956363 l 4.677771304140121,-8.102137564957925 l -9.354117713826001,0.1632767320401114 l 5.095393698216639,7.846218232722897 l 3.8052419946460887,-8.54671345357506 l -9.213410894270403,1.6245729250109089 l 6.6153676199946085,6.615367619994066 l 1.4635293030898664,-9.240360354138597 l -8.260453825870988,4.392161209016859 l 8.546713453572536,3.8052419946517557 l -2.4213926042887963,-9.036760224285837 l -5.366118789389035,7.663611853004106 l 9.304291966984932,-0.9779204918799583 l -6.952523078875859,-6.260079898295038 l 0.1632767320408494,9.354117713825989 l 6.6153676199979135,-6.61536761999076 l -9.355542608279814,1.5134784954017301e-12 l 6.729814151895588,6.498905983031678 l -0.48963126857390654,-9.34272116228317 l -5.887633732728888,7.270622155260991 l 9.213410894270412,-1.6245729250108638 l -8.1021375649548,-4.677771304145533 l 3.352726621405681,8.734151458353395 l 2.7352959409866466,-8.94674989091352 l -7.568792961698144,5.49904997233956 l 9.355542608279814,2.3833365803682154e-12 l -7.663611853004965,-5.366118789387808 l 3.3527266214092757,8.734151458352015 l 1.9451266822011328,-9.151101555852621 l -6.498905983028923,6.729814151898248 l 9.036760224286654,-2.4213926042857454 l -9.036760224286011,-2.4213926042881444 l 6.729814151897703,6.498905983029488 l -2.891021657551854,-8.897649761083272 l -1.4635293030846048,9.24036035413943 l 5.366118789389734,-7.6636118530036175 l -8.102137564956422,4.677771304142722 l 9.304291966985588,-0.9779204918737212 l -8.946749890912372,-2.7352959409903947 l 7.270622155260948,5.887633732728942 l -4.677771304137351,-8.102137564959522 l 1.6245729250138392,9.213410894269888 l 1.4635293030884535,-9.24036035413882 l -4.247327464075202,8.335849501295689 l 6.498905983030633,-6.729814151896598 l -8.102137564956825,4.6777713041420235 l 9.036760224286468,-2.421392604286436 l -9.35411771382599,0.1632767320407348 l 9.151101555851481,1.9451266822065008 l -8.546713453572481,-3.8052419946518814 l 7.663611853008022,5.366118789383444 l -6.615367619991217,-6.615367619997457 l 5.49904997233885,7.56879296169866 l -4.392161209021502,-8.26045382586852 l 3.352726621407016,8.734151458352882 l -2.421392604287149,-9.036760224286278 l 1.6245729250145435,9.213410894269764 l -0.9779204918797989,-9.304291966984948 l 0.4896312685714434,9.342721162283299 l -0.16327673203372614,-9.354117713826113 l 1.353036664770463e-12,9.355542608279814 l 4.065832022877457e-12,-9.355542608279814 l 0.1632767320344871,9.3541177138261 l -0.48963126856987765,-9.34272116228338 l 0.9779204918759234,9.304291966985357 l -1.624572925016792,-9.213410894269366 l 2.421392604287105,9.036760224286288 l -3.3527266214047993,-8.734151458353733 l 4.392161209017349,8.260453825870727 l -5.499049972340044,-7.568792961697792 l 6.6153676199906135,6.615367619998059 l -7.663611853006196,-5.36611878938605 l 8.5467134535737,3.805241994649142 l -9.15110155585162,-1.9451266822058457 l 9.35411771382602,-0.16327673203907545 l -9.036760224285297,2.421392604290802 l 8.10213756495573,-4.6777713041439215 l -6.498905983030731,6.729814151896502 l 4.2473274640698175,-8.335849501298433 l -1.4635293030847858,9.240360354139401 l -1.6245729250152028,-9.213410894269648 l 4.677771304143902,8.10213756495574 l -7.270622155264243,-5.887633732724872 l 8.946749890913223,2.735295940987616 l -9.304291966985527,0.9779204918742957 l 8.102137564957298,-4.677771304141206 l -5.366118789386107,7.663611853006157 l 1.4635293030909347,-9.240360354138426 l 2.891021657551637,8.897649761083342 l -6.729814151895926,-6.498905983031328 l 9.036760224284746,2.4213926042928646 l -9.036760224286319,2.4213926042869938 l 6.49890598302967,-6.7298141518975285 l -1.9451266822044244,9.151101555851923 l -3.352726621411904,-8.734151458351006 l 7.663611853005244,5.36611878938741 l -9.355542608279814,-4.226273853508724e-12 l 7.568792961695595,-5.499049972343067 l -2.7352959409928634,8.946749890911617 l -3.352726621405381,-8.73415145835351 l 8.102137564957728,4.6777713041404585 l -9.2134108942698,1.6245729250143404 l 5.887633732727954,-7.270622155261747 l 0.4896312685727802,9.342721162283228 l -6.729814151899098,-6.498905983028044 l 9.355542608279814,4.272114376546228e-12 l -6.6153676199976355,6.615367619991039 l -0.16327673203891505,-9.354117713826021 l 6.952523078873008,6.260079898298207 l -9.304291966985621,0.9779204918734021 l 5.366118789389373,-7.663611853003868 l 2.4213926042861487,9.036760224286546 l -8.546713453573934,-3.8052419946486142 l 8.260453825870467,-4.392161209017838 l -1.463529303091071,9.240360354138407 l -6.615367619992099,-6.615367619996575 l 9.213410894269947,-1.6245729250135006 l -3.805241994645812,8.546713453575183 l -5.09539369821494,-7.846218232724003 l 9.354117713826078,-0.16327673203575682 l -4.677771304145909,8.102137564954582 l -4.677771304142385,-8.102137564956616 l 9.35411771382601,-0.16327673203960724 l -4.247327464070022,8.335849501298329 l -5.499049972339822,-7.5687929616979535 l 9.213410894269419,-1.6245729250164984 l -2.421392604288565,9.036760224285898 l -7.270622155260687,-5.887633732729262 l 8.260453825869417,-4.392161209019814 l 0.9779204918786775,9.304291966985067 l -9.036760224285892,-2.421392604288587 l 5.366118789388201,-7.6636118530046895 l 5.499049972339784,7.56879296169798 l -8.897649761083656,2.891021657550673 l -0.1632767320395385,-9.354117713826012 l 9.036760224284883,2.421392604292351 l -4.67777130414599,8.102137564954536 l -6.729814151898971,-6.498905983028175 l 7.846218232724064,-5.095393698214843 l 3.3527266214073417,8.734151458352756 l -9.213410894269972,1.624572925013365 l -9.404719574329196e-13,-9.355542608279814 l 9.24036035413838,1.4635293030912295 l -2.735295940986445,8.94674989091358 l -8.546713453573862,-3.8052419946487817 l 4.677771304140677,-8.102137564957603 l 7.663611853003751,5.366118789389542 l -5.887633732726949,7.270622155262561 l -6.952523078872853,-6.260079898298376 l 6.498905983032124,-6.729814151895158 l 6.615367619990861,6.615367619997812 l -6.615367619994535,6.615367619994138 l -6.729814151898907,-6.498905983028242 l 6.2600798982937995,-6.952523078876974 l 7.2706221552615595,5.887633732728187 l -5.366118789383252,7.663611853008156 l -8.102137564957568,-4.677771304140736 l 3.8052419946481493,-8.546713453574142 l 8.946749890911518,2.7352959409931916 l -1.4635293030890424,9.240360354138726 l -9.355542608279814,-4.592998037808762e-12 l -1.6245729250170449,-9.213410894269323 l 8.734151458351144,-3.3527266214115397 l 5.095393698212116,7.8462182327258345 l -6.4989059830299665,6.729814151897242 l -8.102137564957925,-4.677771304140117 l 2.4213926042932856,-9.036760224284633 l 9.354117713826014,-0.1632767320393322 l 2.8910216575512,8.897649761083484 l -7.5687929616972065,5.499049972340849 l -7.6636118530058805,-5.366118789386501 l 2.4213926042940654,-9.036760224284425 l 9.30429196698558,-0.9779204918737942 l 4.392161209016151,8.260453825871364 l -5.887633732725282,7.27062215526391 l -9.036760224285219,-2.4213926042911025 l -1.624572925014661,-9.213410894269742 l 7.568792961698603,-5.499049972338929 l 8.335849501298172,4.247327464070328 l 0.16327673204002438,9.354117713826003 l -8.102137564956028,4.6777713041434055 l -8.102137564955552,-4.677771304144231 l -0.1632767320384567,-9.35411771382603 l 7.846218232722117,-5.095393698217841 l 8.54671345357344,3.8052419946497285 l 1.6245729250100285,9.21341089427056 l -6.61536761999853,6.6153676199901446 l -9.240360354139423,-1.4635293030846455 l -4.392161209016742,-8.26045382587105 l 3.805241994649054,-8.54671345357374 l 9.036760224286473,-2.4213926042864187 l 7.663611853004467,5.36611878938852 l 0.977920491875194,9.304291966985433 l -6.260079898296301,6.952523078874722 l -9.354117713826113,0.16327673203373083 l -6.615367619993927,-6.615367619994746 l -5.73747773132881e-13,-9.355542608279814 l 6.498905983030132,-6.729814151897082 l 9.342721162283341,-0.48963126857064226 l 7.270622155260878,5.887633732729026 l 1.6245729250137309,9.213410894269906 l -4.677771304140337,8.102137564957799 l -8.734151458353185,3.3527266214062243 l -8.946749890912104,-2.735295940991272 l -5.499049972338146,-7.568792961699172 l 1.039986884820103e-12,-9.355542608279814 l 5.366118789384175,-7.663611853007509 l 8.734151458352367,-3.352726621408356 l 9.151101555851291,1.9451266822073976 l 6.729814151895945,6.498905983031308 l 2.4213926042855287,9.036760224286711 l -2.4213926042935956,9.03676022428455 l -6.4989059830313245,6.729814151895928 l -8.897649761083107,2.8910216575523644 l -9.240360354138666,-1.4635293030894272 l -7.663611853007469,-5.366118789384233 l -4.677771304136478,-8.102137564960026 l -0.9779204918780847,-9.30429196698513 l 2.7352959409913806,-8.94674989091207 l 5.887633732727342,-7.270622155262243 l 8.102137564956948,-4.6777713041418085 l 9.213410894269936,-1.624572925013573 l 9.240360354139261,1.4635293030856686 l 8.335849501298371,4.2473274640699366 l 6.729814151896939,6.498905983030279 l 4.677771304137757,8.102137564959289 l 2.4213926042846605,9.036760224286944 l 0.16327673203347876,9.354117713826117 l -1.945126682202254,9.151101555852385 l -3.805241994652865,8.546713453572043 l -5.366118789388766,7.663611853004295 l -6.615367619993848,6.615367619994826 l -7.568792961698846,5.499049972338595 l -8.260453825871211,4.392161209016439 l -8.734151458353828,3.3527266214045466 l -9.036760224286162,2.4213926042875786 l -9.213410894269149,1.6245729250180245 l -9.304291966985145,0.9779204918779252 l -9.342721162283237,0.4896312685726476 l -9.354117713826037,0.1632767320380213 l -9.355542608279814,2.2994385035159485e-13 l -9.355542608279814,-2.0989770905028716e-12 l -9.354117713826012,0.16327673203954313 l -9.3427211622834,0.48963126856951605 l -9.30429196698507,0.9779204918786364 l -9.213410894269835,1.6245729250141416 l -9.036760224286185,2.42139260428749 l -8.734151458352482,3.352726621408056 l -8.260453825871632,4.3921612090156446 l -7.568792961697111,5.499049972340983 l -6.615367619995055,6.61536761999362 l -5.366118789387007,7.663611853005526 l -3.8052419946473868,8.546713453574483 l -1.9451266822092674,9.151101555850893 l 0.1632767320386676,9.354117713826026 l 2.4213926042851743,9.036760224286807 l 4.677771304141553,8.102137564957097 l 6.729814151896748,6.498905983030477 l 8.335849501296133,4.247327464074331 l 9.240360354139092,1.4635293030867376 l 9.213410894269455,-1.6245729250163 l 8.102137564957893,-4.677771304140174 l 5.887633732725818,-7.270622155263477 l 2.735295940993959,-8.946749890911283 l -0.9779204918792336,-9.304291966985009 l -4.677771304140814,-8.102137564957523 l -7.663611853007669,-5.366118789383947 l -9.240360354139323,-1.4635293030852796 l -8.897649761083247,2.8910216575519287 l -6.498905983028884,6.729814151898286 l -2.4213926042948177,9.036760224284222 l 2.421392604288026,9.036760224286041 l 6.729814151894506,6.498905983032799 l 9.15110155585166,1.9451266822056577 l 8.734151458353399,-3.3527266214056684 l 5.36611878938338,-7.6636118530080655 l 4.725861431101119e-12,-9.355542608279814 l -5.499049972338279,-7.5687929616990735 l -8.94674989091328,-2.7352959409874313 l -8.734151458353416,3.3527266214056257 l -4.677771304144925,8.102137564955148 l 1.6245729250123044,9.213410894270158 l 7.270622155262389,5.88763373272716 l 9.342721162283013,-0.4896312685768871 l 6.498905983028983,-6.729814151898189 l 2.4886215363216623e-12,-9.355542608279814 l -6.615367619994485,-6.615367619994188 l -9.354117713826032,0.1632767320383697 l -6.260079898296315,6.95252307887471 l 0.9779204918790059,9.304291966985032 l 7.663611853003994,5.366118789389198 l 9.03676022428569,-2.421392604289341 l 3.8052419946505442,-8.546713453573076 l -4.392161209018701,-8.260453825870009 l -9.240360354139042,-1.463529303087054 l -6.6153676199975315,6.615367619991143 l 1.6245729250152117,9.213410894269646 l 8.546713453573686,3.8052419946491756 l 7.846218232724325,-5.095393698214442 l -0.16327673203825516,-9.354117713826033 l -8.102137564957376,-4.67777130414107 l -8.10213756495653,4.677771304142533 l 0.16327673203435894,9.354117713826103 l 8.335849501297348,4.247327464071946 l 7.5687929616974055,-5.499049972340575 l -1.6245729250120786,-9.213410894270197 l -9.036760224285537,-2.4213926042899154 l -5.887633732727947,7.270622155261753 l 4.392161209016523,8.260453825871167 l 9.304291966985133,-0.9779204918780439 l 2.421392604294437,-9.036760224284325 l -7.663611853007868,-5.366118789383662 l -7.568792961697908,5.499049972339884 l 2.8910216575537295,8.897649761082663 l 9.35411771382605,-0.16327673203733384 l 2.421392604291496,-9.036760224285112 l -8.102137564956521,-4.677771304142547 l -6.498905983029214,6.729814151897966 l 5.095393698216223,7.846218232723168 l 8.734151458351059,-3.352726621411763 l -1.6245729250126926,-9.213410894270089 l -9.355542608279814,-5.161346399957415e-12 l -1.4635293030858,9.24036035413924 l 8.946749890911116,2.7352959409945066 l 3.8052419946458875,-8.54671345357515 l -8.102137564956477,-4.6777713041426265 l -5.366118789388855,7.663611853004233 l 7.270622155259678,5.887633732730509 l 6.260079898299484,-6.952523078871858 l -6.729814151896269,-6.498905983030972 l -6.6153676199944975,6.615367619994177 l 6.615367619993623,6.61536761999505 l 6.498905983032664,-6.729814151894636 l -6.952523078874927,-6.2600798982960715 l -5.887633732728161,7.27062215526158 l 7.663611853005065,5.366118789387664 l 4.677771304142727,-8.102137564956418 l -8.546713453574464,-3.805241994647425 l -2.735295940989478,8.946749890912653 l 9.240360354138486,1.4635293030905587 l 3.0387078127717204e-12,-9.355542608279814 l -9.213410894269993,1.6245729250132392 l 3.3527266214108167,8.734151458351423 l 7.846218232724575,-5.095393698214059 l -6.729814151895085,-6.4989059830321985 l -4.677771304147498,8.102137564953663 l 9.03676022428543,2.421392604290314 l -0.16327673203699006,-9.354117713826055 l -8.897649761083253,2.891021657551912 l 5.49904997233707,7.568792961699954 l 5.366118789387796,-7.663611853004975 l -9.036760224282613,-2.421392604300827 l 0.9779204918783675,9.3042919669851 l 8.26045382587175,-4.392161209015426 l -7.270622155259985,-5.887633732730132 l -2.421392604294144,9.036760224284404 l 9.213410894269753,-1.6245729250146026 l -5.499049972334496,-7.568792961701823 l -4.247327464072456,8.335849501297089 l 9.354117713826138,-0.16327673203221837 l -4.6777713041319515,-8.102137564962641 l -4.677771304138271,8.10213756495899 l 9.354117713826003,-0.1632767320399191 l -5.095393698214524,-7.846218232724272 l -3.805241994642746,8.54671345357655 l 9.213410894270174,-1.6245729250122185 l -6.615367619993902,-6.615367619994773 l -1.4635293030931535,9.240360354138076 l 8.26045382586965,-4.392161209019378 l -8.54671345357621,-3.8052419946435045 l 2.421392604295271,9.036760224284102 l 5.366118789385453,-7.663611853006615 l -9.304291966985609,0.9779204918735299 l 6.952523078881363,6.260079898288926 l -0.16327673203823687,-9.354117713826035 l -6.615367619995392,6.615367619993282 l 9.355542608279814,5.757273199444978e-12 l -6.72981415189483,-6.498905983032463 l 0.4896312685789885,9.342721162282905 l 5.8876337327267425,-7.270622155262729 l -9.213410894270337,1.6245729250112888 l 8.102137564958104,4.677771304139807 l -3.352726621417622,-8.73415145834881 l -2.7352959409929154,8.946749890911601 l 7.568792961703367,-5.499049972332371 l -9.355542608279814,-5.087927439581e-12 l 7.66361185300696,5.36611878938496 l -3.3527266214103464,-8.734151458351603 l -1.9451266822022892,9.151101555852378 l 6.498905983031449,-6.729814151895808 l -9.03676022428376,2.421392604296542 l 9.036760224283896,2.421392604296035 l -6.72981415189632,-6.4989059830309195 l 2.89102165755584,8.897649761081977 l 1.46352930309117,-9.24036035413839 l -5.366118789390117,7.663611853003349 l 8.102137564962074,-4.677771304132932 l -9.304291966985234,0.9779204918770864 l 8.946749890912681,2.735295940989386 l -7.2706221552601455,-5.887633732729932 l 4.677771304134231,8.102137564961325 l -1.6245729250163765,-9.21341089426944 l -1.463529303096613,9.240360354137527 l 4.247327464069475,-8.335849501298608 l -6.498905983033805,6.729814151893533 l 8.102137564960193,-4.677771304136188 l -9.03676022428441,2.421392604294115 l 9.35411771382604,-0.1632767320378473 l -9.151101555852167,-1.9451266822032804 l 8.546713453576332,3.805241994643228 l -7.663611853007239,-5.366118789384562 l 6.615367619994621,6.615367619994053 l -5.499049972333976,-7.568792961702201 l 4.392161209014127,8.26045382587244 l -3.352726621412932,-8.734151458350611 l 2.42139260429102,9.03676022428524 l -1.6245729250161962,-9.213410894269472 l 0.9779204918791519,9.304291966985017 l -0.489631268576965,-9.34272116228301 l 0.16327673203692594,9.354117713826057 l 6.284439214376283e-12,-9.355542608279814 l -5.523412408437296e-12,9.355542608279814 l -0.1632767320392087,-9.354117713826017 l 0.4896312685807649,9.34272116228281 l -0.9779204918759876,-9.30429196698535 l 1.6245729250145617,9.21341089426976 l -2.421392604290887,-9.036760224285276 l 3.352726621414224,8.734151458350114 l -4.3921612090166935,-8.260453825871075 l 5.49904997233756,7.568792961699598 l -6.615367619992813,-6.615367619995861 l 7.6636118530066435,5.36611878938541 l -8.546713453576533,-3.8052419946427833 l 9.151101555850815,1.9451266822096394 l -9.354117713826128,0.16327673203286935 l 9.036760224285306,-2.421392604290776 l -8.102137564961161,4.677771304134512 l 6.498905983027981,-6.729814151899159 l -4.247327464076067,8.335849501295248 l 1.4635293030940137,-9.24036035413794 l 1.6245729250120877,9.213410894270197 l -4.677771304131777,-8.10213756496274 l 7.270622155259321,5.887633732730951 l -8.946749890912743,-2.7352959409891846 l 9.304291966985053,-0.9779204918788098 l -8.102137564960447,4.677771304135751 l 5.366118789386205,-7.663611853006088 l -1.4635293030933525,9.240360354138044 l -2.8910216575551857,-8.897649761082189 l 6.729814151896901,6.498905983030319 l -9.036760224284507,-2.4213926042937595 l 9.036760224284958,-2.421392604292069 l -6.498905983033685,6.729814151893649 l 1.9451266822038413,-9.151101555852046 l 3.352726621410286,8.734151458351626 l -7.663611853002915,-5.366118789390736 l 9.355542608279814,2.107922824561151e-12 l -7.568792961700721,5.499049972336013 l 2.7352959409952913,-8.946749890910876 l 3.3527266214167235,8.734151458349155 l -8.102137564958383,-4.677771304139323 l 9.213410894269977,-1.6245729250133385 l -5.8876337327305555,7.27062215525964 l -0.48963126857560996,-9.34272116228308 l 6.729814151893538,6.498905983033801 l -9.355542608279814,-6.096418946406106e-12 l 6.615367619994555,-6.615367619994118 l 0.16327673203243392,9.354117713826135 l -6.952523078878499,-6.2600798982921075 l 9.304291966985895,-0.9779204918707854 l -5.366118789386467,7.663611853005905 l -2.421392604295545,-9.036760224284027 l 8.546713453576945,3.8052419946418543 l -8.26045382587208,4.392161209014803 l 1.4635293030967667,-9.240360354137502 l 6.615367619992392,6.615367619996283 l -9.213410894270279,1.6245729250116134 l 3.805241994641917,-8.546713453576917 l 5.0953936982165615,7.846218232722947 l -9.354117713826085,0.16327673203536297 l 4.677771304140899,-8.102137564957474 l 4.6777713041306415,8.102137564963396 l -9.354117713826138,0.16327673203222767 l 4.247327464071092,-8.335849501297783 l 5.499049972336968,7.568792961700028 l -9.213410894270437,1.6245729250107288 l 2.4213926042964733,-9.036760224283778 l 7.270622155259424,5.887633732730822 l -8.260453825871453,4.392161209015985 l -0.9779204918720483,-9.304291966985764 l 9.036760224283563,2.421392604297275 l -5.366118789390507,7.663611853003076 l -5.499049972335624,-7.5687929617010035 l 8.897649761083334,-2.8910216575516587 l 0.16327673203824616,9.354117713826033 l -9.036760224283945,-2.421392604295849 l 4.677771304136405,-8.102137564960069 l 6.729814151893219,6.498905983034131 l -7.8462182327252075,5.0953936982130825 l -3.3527266214111515,-8.734151458351295 l 9.213410894269668,-1.6245729250150904 l 3.6317786122598717e-13,9.355542608279814 l -9.240360354137925,-1.4635293030940997 l 2.7352959409914512,-8.946749890912049 l 8.546713453577706,3.805241994640145 l -4.677771304141875,8.10213756495691 l -7.663611853006502,-5.366118789385614 l 5.887633732731645,-7.270622155258757 l 6.952523078878641,6.26007989829195 l -6.4989059830336995,6.729814151893637 l -6.61536761999368,-6.615367619994993 l 6.615367619999378,-6.6153676199892955 l 6.7298141518984425,6.498905983028724 l -6.260079898289706,6.9525230788806605 l -7.2706221552582075,-5.8876337327323265 l 5.366118789389522,-7.663611853003765 l 8.10213756495683,4.677771304142015 l -3.805241994643852,8.546713453576057 l -8.946749890912212,-2.7352959409909205 l 1.4635293030974006,-9.240360354137403 l 9.355542608279814,6.875707838043688e-12 l 1.6245729250125032,9.213410894270122 l -8.734151458350583,3.3527266214130043 l -5.095393698211479,-7.846218232726248 l 6.498905983032189,-6.729814151895095 l 8.10213756495947,4.677771304137441 l -2.421392604300769,9.036760224282629 l -9.354117713826042,0.16327673203776494 l -2.8910216575555876,-8.897649761082059 l 7.568792961705867,-5.49904997232893 l 7.663611853005856,5.366118789386538 l -2.4213926042963587,9.03676022428381 l -9.304291966985183,0.9779204918775788 l -4.392161209017454,-8.260453825870671 l 5.887633732732557,-7.27062215525802 l 9.036760224284395,2.421392604294175 l 1.6245729250092347,9.2134108942707 l -7.568792961703211,5.499049972332586 l -8.33584950129742,-4.247327464071807 l -0.16327673203603688,-9.354117713826072 l 8.10213756496344,-4.677771304130566 l 8.10213756495548,4.67777130414435 l 0.16327673203599102,9.354117713826072 l -7.846218232720093,5.095393698220956 l -8.546713453574004,-3.805241994648463 l -1.6245729250090992,-9.213410894270723 l 6.6153676200008436,-6.615367619987831 l 9.240360354138549,1.4635293030901784 l 4.392161209017252,8.260453825870778 l -3.805241994650653,8.546713453573027 l -9.036760224285327,2.4213926042906966 l -7.663611853005671,-5.3661187893868 l -0.9779204918749663,-9.304291966985456 l 6.260079898291879,-6.952523078878703 l 9.354117713826197,-0.1632767320288449 l 6.615367619994841,6.615367619993832 l -8.970767987890473e-12,9.355542608279814 l -6.498905983032552,6.729814151894745 l -9.342721162282748,0.48963126858195094 l -7.270622155261185,-5.8876337327286485 l -1.6245729250119165,-9.213410894270227 l 4.677771304143949,-8.102137564955713 l 8.734151458349416,-3.352726621416043 l 8.946749890909523,2.735295940999715 l 5.499049972329119,7.56879296170573 l -6.018341810209535e-12,9.355542608279814 l -5.366118789390161,7.663611853003317 l -8.734151458352773,3.3527266214073035 l -9.151101555852343,-1.9451266822024555 l -6.729814151891927,-6.4989059830354705 l -2.4213926042941285,-9.036760224284407 l 2.4213926042954634,-9.03676022428405 l 6.49890598302827,-6.7298141518988785 l 8.897649761082514,-2.891021657554188 l 9.24036035413727,1.4635293030982384 l 7.663611853001017,5.366118789393448 l 4.6777713041320865,8.102137564962563 l 0.9779204918791885,9.304291966985012 l -2.73529594098441,8.946749890914202 l -5.8876337327234864,7.2706221552653645 l -8.102137564959886,4.677771304136719 l -9.213410894269881,1.6245729250138712 l -9.240360354138945,-1.4635293030876697 l -8.335849501296396,-4.247327464073817 l -6.729814151898206,-6.4989059830289655 l -4.67777130413732,-8.10213756495954 l -2.421392604298362,-9.036760224283272 l -0.16327673203682533,-9.354117713826058 l 1.9451266822095807,-9.151101555850827 l 3.8052419946385165,-8.546713453578432 l 5.366118789391747,-7.663611853002208 l 6.615367619998069,-6.615367619990606 l 7.568792961703723,-5.499049972331882 l 8.260453825872204,-4.392161209014568 l 8.734151458352374,-3.352726621408339 l 9.036760224283512,-2.4213926042974716 l 9.21341089427073,-1.6245729250090584 l 9.304291966985451,-0.9779204918750166 l 9.34272116228262,-0.48963126858439565 l 9.354117713826021,-0.1632767320389477 l 9.355542608279814,1.1724796605304243e-12 l 17.374579129662514,1.082774000701595e-11 l 17.37193289710577,-0.30322821662646204 l 17.35076787281194,-0.9093152130593911 l 17.279399367259007,-1.816138056336336 l 17.110620232213606,-3.017064003607905 l 16.78255470224606,-4.496871979389985 l 16.220566994082027,-6.2264922969036816 l 15.340842819479768,-8.156870816736049 l 14.056329786011231,-10.2125213772015 l 12.285682722847682,-12.285682722845571 l 9.965649180299238,-14.232422012718192 l 7.0668779900511725,-15.872467842356288 l 3.612378124089849,-16.994902889440155 l -0.30322821664513055,-17.371932897105445 l -4.49687197940802,-16.782554702241228 l -8.68728956481607,-15.046826906359428 l -12.498226282082333,-12.069396825640068 l -15.480863359551499,-7.887893861849309 l -17.16066922911419,-2.717982991454786 l -17.110620232218096,3.0170640035824325 l -15.04682690635009,8.687289564832241 l -10.934176932201288,13.502584002635249 l -5.079835318979971,16.61539265455222 l 1.8161380563291813,17.27939936725976 l 8.687289564821038,15.046826906356559 l 14.232422012732192,9.965649180279241 l 17.16066922911509,2.7179829914491185 l 16.524206699149957,-5.369040221182169 l 12.06939682562251,-12.49822628209929 l 4.496871979412309,-16.782554702240077 l -4.496871979388579,-16.782554702246436 l -12.498226282090306,-12.069396825631815 l -16.99490288943985,-3.6123781240912733 l -16.22056699407586,6.226492296919753 l -9.965649180285135,14.232422012728064 l -6.545167316821052e-12,17.374579129662514 l 10.212521377179396,14.05632978602729 l 16.615392654551794,5.079835318981363 l 16.220566994085125,-6.226492296895605 l 8.687289564837343,-15.046826906347142 l -3.01706400358665,-17.110620232217354 l -13.502584002618056,-10.934176932222522 l -17.350767872810437,0.9093152130880441 l -12.069396825632863,12.498226282089295 l 4.9317814569832036e-12,17.374579129662514 l 12.285682722834368,12.285682722858885 l 17.371932897105722,-0.30322821662928834 l 11.625862668259586,-12.911828575057536 l -1.8161380563262852,-17.279399367260066 l -14.232422012730522,-9.965649180281625 l -16.782554702243843,4.496871979398258 l -7.066877990043348,15.87246784235977 l 8.156870816732193,15.34084281948182 l 17.16066922911059,2.717982991477541 l 12.285682722859915,-12.285682722833338 l -3.017064003609255,-17.110620232213368 l -15.872467842356846,-7.066877990049919 l -14.571548146495235,9.462874010958584 l 0.3032282166335702,17.371932897105648 l 15.046826906355022,8.687289564823697 l 15.04682690635587,-8.687289564822226 l -0.30322821663930777,-17.371932897105548 l -15.480863359548854,-7.887893861854498 l -14.05632978601128,10.212521377201433 l 3.0170640035950846,17.11062023221587 l 16.78255470224192,4.496871979405442 l 10.934176932201357,-13.502584002635198 l -8.156870816757527,-15.340842819468348 l -17.279399367257817,1.8161380563476652 l -4.496871979412391,16.78255470224006 l 14.232422012717308,9.965649180300499 l 14.05632978601974,-10.21252137718979 l -5.369040221175245,-16.524206699152206 l -17.37193289710537,0.3032282166493273 l -4.496871979401305,16.78255470224303 l 15.046826906356436,8.68728956482125 l 12.069396825632921,-12.498226282089236 l -9.462874010981427,-14.571548146480401 l -16.220566994081047,6.226492296906241 l 3.017064003597869,17.11062023221538 l 17.374579129662514,2.347727026552949e-12 l 2.717982991464852,-17.1606692291126 l -16.615392654549236,-5.0798353189897165 l -7.066877990067055,15.872467842349218 l 15.046826906352113,8.68728956482874 l 9.965649180282888,-14.232422012729637 l -13.502584002636059,-10.93417693220029 l -11.625862668266077,12.911828575051688 l 12.498226282100182,12.069396825621586 l 12.2856827228478,-12.28568272284545 l -12.285682722836304,-12.285682722856945 l -12.069396825626763,12.498226282095185 l 12.911828575050714,11.62586266826716 l 10.934176932221522,-13.502584002618866 l -14.232422012717258,-9.965649180300568 l -8.687289564842462,15.04682690634419 l 15.87246784235796,7.0668779900474155 l 5.079835318993894,-16.615392654547964 l -17.160669229112813,-2.7179829914634976 l 4.761516657129615e-12,17.374579129662514 l 17.110620232213144,-3.0170640036105216 l -6.226492296923592,-16.220566994074385 l -14.571548146484366,9.462874010975323 l 12.498226282088165,12.06939682563403 l 8.687289564817613,-15.046826906358534 l -16.78255470223742,-4.496871979422235 l 0.30322821663339994,17.371932897105648 l 16.524206699155354,-5.369040221165553 l -10.212521377186189,-14.056329786022356 l -9.965649180299446,14.232422012718045 l 16.782554702241875,4.496871979405605 l -1.816138056328927,-17.27939936725979 l -15.3408428194745,8.156870816745956 l 13.502584002630561,10.934176932207079 l 4.496871979407013,-16.782554702241498 l -17.11062023221515,3.0170640035991347 l 10.212521377183833,14.056329786024067 l 7.887893861840609,-15.480863359555933 l -17.371932897105726,0.30322821662903293 l 8.687289564818297,15.046826906358143 l 8.687289564822658,-15.046826906355623 l -17.371932897105523,0.3032282166405081 l 9.462874010969216,14.57154814648833 l 7.066877990061968,-15.87246784235148 l -17.11062023221466,3.0170640036019187 l 12.285682722832126,12.285682722861123 l 2.717982991473564,-17.160669229111218 l -15.340842819477233,8.156870816740815 l 15.872467842353222,7.066877990058055 l -4.496871979388249,-16.782554702246525 l -9.965649180285414,14.23242201272787 l 17.27939936725995,-1.8161380563273946 l -12.91182857506212,-11.625862668254491 l 0.3032282166418787,17.371932897105502 l 12.285682722845923,-12.285682722847328 l -17.374579129662514,-2.603124226333333e-12 l 12.498226282088046,12.069396825634154 l -0.9093152130604198,-17.350767872811883 l -10.934176932215,13.502584002624149 l 17.110620232214675,-3.017064003601835 l -15.046826906357722,-8.687289564819022 l 6.226492296920715,16.22056699407549 l 5.079835318980378,-16.615392654552092 l -14.05632978602331,10.212521377184872 l 17.374579129662514,-5.962021154056461e-12 l -14.232422012720402,-9.965649180296078 l 6.22649229691264,16.22056699407859 l 3.6123781240931145,-16.99490288943946 l -12.069396825629036,12.498226282092984 l 16.782554702243953,-4.496871979397848 l -16.78255470224405,-4.496871979397497 l 12.498226282091974,12.069396825630086 l -5.36904022117761,-16.52420669915144 l -2.7179829914794,17.160669229110294 l 9.965649180299655,-14.232422012717898 l -15.046826906350345,8.687289564831797 l 17.279399367257863,-1.8161380563472422 l -16.615392654549968,-5.07983531898734 l 13.502584002634013,10.934176932202817 l -8.687289564808136,-15.046826906364007 l 3.017064003591799,17.110620232216444 l 2.7179829914709406,-17.160669229111633 l -7.88789386185877,15.48086335954668 l 12.069396825620844,-12.4982262821009 l -15.046826906358998,8.687289564816815 l 16.78255470223952,-4.496871979414394 l -17.371932897105783,0.3032282166258662 l 16.994902889437338,3.6123781241030826 l -15.872467842353121,-7.066877990058289 l 14.232422012717015,9.965649180300916 l -12.285682722848176,-12.285682722845072 l 10.212521377183556,14.056329786024266 l -8.156870816749437,-15.340842819472648 l 6.226492296923195,16.220566994074538 l -4.49687197938519,-16.782554702247346 l 3.017064003608669,17.110620232213474 l -1.8161380563428138,-17.27939936725833 l 0.909315213071626,17.350767872811296 l -0.30322821664444954,-17.371932897105456 l -1.870317529003966e-11,17.374579129662514 l 1.2964700903137536e-11,-17.374579129662514 l 0.30322821663006305,17.371932897105708 l -0.9093152130687182,-17.35076787281145 l 1.816138056351332,17.279399367257433 l -3.017064003597282,-17.110620232215478 l 4.496871979385109,16.782554702247367 l -6.2264922969043255,-16.220566994081782 l 8.156870816741725,15.34084281947675 l -10.212521377185775,-14.056329786022655 l 12.285682722835885,12.285682722857368 l -14.232422012731751,-9.96564918027987 l 15.872467842355386,7.066877990053201 l -16.994902889440887,-3.6123781240864097 l 17.371932897105832,-0.30322821662278454 l -16.78255470224553,4.496871979391976 l 15.046826906364862,-8.687289564806653 l -12.069396825621029,12.498226282100719 l 7.887893861848772,-15.480863359551774 l -2.717982991448521,17.160669229115182 l -3.017064003594331,-17.110620232216 l 8.687289564820302,15.046826906356982 l -13.502584002630186,-10.934176932207542 l 16.615392654551542,5.079835318982177 l -17.2793993672594,1.8161380563325935 l 15.046826906351972,-8.68728956482898 l -9.965649180292917,14.232422012722616 l 2.7179829914599405,-17.160669229113374 l 5.369040221177206,16.52420669915157 l -12.498226282099651,-12.069396825622135 l 16.7825547022417,4.496871979406264 l -16.78255470224333,4.496871979400166 l 12.069396825619059,-12.498226282102623 l -3.6123781240992265,16.99490288943816 l -6.226492296917519,-16.220566994076716 l 14.232422012729986,9.965649180282393 l -17.374579129662514,2.5394233610812318e-12 l 14.056329786018576,-10.21252137719139 l -5.0798353189919245,16.615392654548565 l -6.226492296920158,-16.2205669940757 l 15.046826906347361,8.687289564836968 l -17.11062023221628,3.017064003592729 l 10.934176932213266,-13.502584002625552 l 0.9093152130741088,17.35076787281117 l -12.498226282083586,-12.069396825638771 l 17.374579129662514,-2.4542909611544374e-12 l -12.285682722856578,12.285682722836674 l -0.3032282166382863,-17.371932897105562 l 12.911828575067396,11.625862668248635 l -17.279399367257927,1.8161380563466498 l 9.965649180286041,-14.23242201272743 l 4.496871979398596,16.782554702243754 l -15.872467842349392,-7.066877990066658 l 15.340842819476267,-8.156870816742634 l -2.7179829914601923,17.160669229113335 l -12.285682722849817,-12.285682722843436 l 17.11062023221381,-3.0170640036067313 l -7.066877990047019,15.872467842358137 l -9.462874010966061,-14.571548146490382 l 17.37193289710539,-0.30322821664822075 l -8.687289564833407,15.046826906349416 l -8.687289564817485,-15.046826906358607 l 17.37193289710554,-0.30322821663957183 l -7.88789386184915,15.48086335955158 l -10.212521377185361,-14.056329786022957 l 17.11062023221832,-3.017064003581175 l -4.496871979413542,16.78255470223975 l -13.502584002633531,-10.934176932203416 l 15.340842819481736,-8.15687081673235 l 1.8161380563250153,17.2793993672602 l -16.782554702243825,-4.49687197939832 l 9.965649180283865,-14.232422012728952 l 10.212521377185293,14.056329786023007 l -16.52420669915215,5.369040221175416 l -0.30322821662364446,-17.37193289710582 l 16.782554702237864,4.4968719794205745 l -8.687289564833554,15.046826906349333 l -12.49822628208335,-12.069396825639018 l 14.57154814648189,-9.462874010979135 l 6.226492296909046,16.22056699407997 l -17.110620232213858,3.01706400360648 l 1.9469366889380815e-11,-17.374579129662514 l 17.160669229110816,2.7179829914760947 l -5.079835318995115,16.615392654547588 l -15.872467842349254,-7.066877990066969 l 8.68728956482369,-15.046826906355026 l 14.232422012718148,9.965649180299298 l -10.9341769322114,13.502584002627062 l -12.91182857506711,-11.625862668248951 l 12.069396825623611,-12.498226282098226 l 12.285682722847515,12.285682722845735 l -12.285682722850822,12.28568272284243 l -12.49822628208323,-12.069396825639139 l 11.625862668252196,-12.911828575064188 l 13.502584002635148,10.934176932201417 l -9.965649180300561,14.232422012717265 l -15.046826906347063,-8.687289564837485 l 7.066877990065794,-15.872467842349778 l 16.615392654553,5.079835318977423 l -2.717982991472033,17.16066922911146 l -17.374579129662514,1.8583641616668746e-12 l -3.0170640035821896,-17.11062023221814 l 16.22056699408264,-6.226492296902091 l 9.462874010960817,14.571548146493784 l -12.069396825619608,12.498226282102092 l -15.046826906355626,-8.687289564822649 l 4.496871979422308,-16.782554702237398 l 17.37193289710555,-0.3032282166390611 l 5.3690402211763955,16.524206699151833 l -14.05632978601228,10.212521377200053 l -14.232422012731165,-9.965649180280705 l 4.4968719794084935,-16.7825547022411 l 17.2793993672595,-1.8161380563316623 l 8.156870816753452,15.340842819470513 l -10.934176932220582,13.502584002619626 l -16.782554702238485,-4.496871979418255 l -3.0170640035933243,-17.110620232216178 l 14.056329786024163,-10.212521377183702 l 15.480863359544117,7.887893861863799 l 0.30322821664034655,17.371932897105527 l -15.046826906365418,8.687289564805694 l -15.046826906351217,-8.687289564830287 l -0.30322821663743516,-17.37193289710558 l 14.571548146486878,-9.462874010971452 l 15.8724678423549,7.06687799005429 l 3.017064003584722,17.110620232217695 l -12.285682722847067,12.285682722846184 l -17.16066922911028,-2.7179829914794755 l -8.156870816740597,-15.340842819477349 l 7.0668779900530385,-15.872467842355457 l 16.78255470224362,-4.496871979399097 l 14.232422012719477,9.965649180297403 l 1.8161380563499774,17.279399367257575 l -11.62586266825684,12.911828575060005 l -17.371932897105456,0.3032282166444582 l -12.285682722830861,-12.28568272286239 l 2.0150426088795173e-11,-17.374579129662514 l 12.069396825619913,-12.498226282101799 l 17.35076787281055,-0.9093152130859187 l 13.502584002623939,10.934176932215257 l 3.017064003607159,17.110620232213737 l -8.68728956483674,15.046826906347492 l -16.220566994080762,6.226492296906972 l -16.615392654549467,-5.079835318988968 l -10.212521377182247,-14.056329786025218 l -8.45681344578867e-12,-17.374579129662514 l 9.965649180289333,-14.232422012725126 l 16.22056699408491,-6.226492296896178 l 16.994902889436986,3.612378124104748 l 12.498226282088709,12.069396825633467 l 4.496871979397444,16.782554702244063 l -4.496871979422885,16.782554702237245 l -12.069396825622132,12.498226282099658 l -16.524206699156014,5.3690402211635275 l -17.160669229113818,-2.7179829914571396 l -14.23242201271599,-9.965649180302382 l -8.687289564806512,-15.046826906364945 l -1.8161380563239147,-17.279399367260314 l 5.07983531897406,-16.615392654554025 l 10.934176932212129,-13.502584002626472 l 15.046826906351324,-8.6872895648301 l 17.110620232216533,-3.0170640035913032 l 17.160669229112454,2.7179829914657687 l 15.480863359551664,7.887893861848991 l 12.498226282090553,12.069396825631555 l 8.687289564808887,15.046826906363574 l 4.496871979411096,16.782554702240404 l 0.3032282166281904,17.37193289710574 l -3.612378124095196,16.994902889439018 l -7.06687799004568,15.872467842358732 l -9.965649180284911,14.23242201272822 l -12.285682722849545,12.285682722843704 l -14.056329786024614,10.21252137718308 l -15.34084281947023,8.156870816753985 l -16.22056699408196,6.2264922969038565 l -16.78255470224304,4.496871979401252 l -17.110620232215076,3.0170640035995713 l -17.279399367258694,1.816138056339334 l -17.35076787281118,0.9093152130738623 l -17.371932897105868,0.30322821662082683 l -17.374579129662514,-4.986831424283583e-12 l -17.374579129662514,6.490117349520672e-12 l -17.37193289710582,0.30322821662365307 l -17.350767872811485,0.9093152130680467 l -17.279399367260208,1.8161380563249394 l -17.110620232213602,3.017064003607923 l -16.782554702243086,4.496871979401087 l -16.22056699408512,6.226492296895621 l -15.340842819478434,8.156870816738559 l -14.05632978602139,10.212521377187517 l -12.285682722851787,12.285682722841466 l -9.965649180294593,14.232422012721443 l -7.066877990064379,15.872467842350407 l -3.612378124092764,16.994902889439533 l 0.30322821662202715,17.371932897105847 l 4.496871979396786,16.782554702244237 l 8.687289564815936,15.046826906359502 l 12.498226282090197,12.069396825631925 l 15.480863359547504,7.887893861857154 l 17.16066922911461,2.7179829914521454 l 17.11062023221564,-3.017064003596368 l 15.04682690635308,-8.687289564827063 l 10.934176932221575,-13.502584002618821 l 5.0798353189939585,-16.615392654547943 l -1.8161380563260485,-17.279399367260087 l -8.68728956482825,-15.046826906352392 l -14.232422012725424,-9.965649180288908 l -17.16066922911504,-2.717982991449437 l -16.524206699156277,5.36904022116272 l -12.069396825628965,12.498226282093055 l -4.49687197940989,16.782554702240727 l 4.496871979402083,16.78255470224282 l 12.498226282086035,12.069396825636236 l 16.994902889440958,3.6123781240860597 l 16.22056699408116,-6.226492296905938 l 9.965649180287855,-14.232422012726163 l -1.6116178598382115e-12,-17.374579129662514 l -10.212521377195282,-14.056329786015748 l -16.61539265455165,-5.079835318981836 l -16.220566994081192,6.22649229690586 l -8.687289564817892,15.046826906358373 l 3.0170640035889478,17.11062023221695 l 13.502584002626747,10.934176932211791 l 17.350767872810767,-0.9093152130817356 l 12.069396825629148,-12.49822628209288 l 1.0035595713819634e-11,-17.374579129662514 l -12.285682722831899,-12.285682722861353 l -17.371932897105584,0.30322821663727356 l -11.625862668268608,12.911828575049412 l 1.8161380563256253,17.279399367260133 l 14.232422012718596,9.965649180298657 l 16.78255470224625,-4.496871979389262 l 7.066877990041371,-15.872467842360651 l -8.156870816744236,-15.340842819475414 l -17.160669229114518,-2.7179829914527343 l -12.285682722856386,12.285682722836865 l 3.0170640035943475,17.110620232215997 l 15.872467842355354,7.066877990053264 l 14.571548146490981,-9.46287401096514 l -0.30322821662126115,-17.37193289710586 l -15.046826906354603,-8.68728956482442 l -15.04682690635055,8.687289564831444 l 0.3032282166298249,17.37193289710571 l 15.48086335954976,7.887893861852723 l 14.056329786021942,-10.212521377186759 l -3.0170640035885286,-17.110620232217023 l -16.782554702243168,-4.496871979400786 l -10.934176932213251,13.50258400262556 l 8.156870816754143,15.340842819470145 l 17.279399367260325,-1.8161380563238387 l 4.496871979424447,-16.782554702236826 l -14.23242201271673,-9.96564918030132 l -14.056329786013583,10.212521377198263 l 5.369040221166063,16.52420669915519 l 17.37193289710534,-0.3032282166511494 l 4.496871979418986,-16.78255470223829 l -15.046826906353022,-8.687289564827163 l -12.069396825629578,12.498226282092466 l 9.462874010968445,14.571548146488832 l 16.22056699408248,-6.226492296902506 l -3.017064003605231,-17.110620232214078 l -17.374579129662514,-1.4999227603428887e-11 l -2.7179829914660116,17.16066922911241 l 16.61539265455225,5.079835318979865 l 7.066877990047158,-15.872467842358075 l -15.046826906352937,-8.68728956482731 l -9.965649180298024,14.23242201271904 l 13.502584002631655,10.934176932205729 l 11.625862668262748,-12.911828575054685 l -12.49822628208931,-12.069396825632843 l -12.285682722850751,12.285682722842502 l 12.285682722841472,12.28568272285178 l 12.069396825635984,-12.498226282086277 l -12.911828575049816,-11.625862668268159 l -10.934176932213651,13.502584002625241 l 14.232422012729652,9.965649180282865 l 8.687289564841178,-15.046826906344931 l -15.872467842350376,-7.066877990064449 l -5.079835319000749,16.615392654545868 l 17.160669229113488,2.717982991459243 l 1.1057184512941168e-11,-17.374579129662514 l -17.110620232213897,3.0170640036062455 l 6.226492296900749,16.220566994083153 l 14.571548146491445,-9.462874010964427 l -12.49822628208711,-12.06939682563512 l -8.687289564836355,15.046826906347713 l 16.78255470224297,4.496871979401527 l -0.30322821663471133,-17.371932897105626 l -16.524206699151403,5.369040221177714 l 10.21252137718025,14.05632978602667 l 9.965649180296056,-14.232422012720416 l -16.782554702237736,-4.49687197942105 l 1.81613805632444,17.27939936726026 l 15.34084281947123,-8.156870816752106 l -13.502584002622278,-10.934176932217307 l -4.49687197940864,16.782554702241065 l 17.110620232213453,-3.0170640036087772 l -10.212521377201039,-14.056329786011565 l -7.887893861839591,15.480863359556452 l 17.371932897105506,-0.30322821664164923 l -8.687289564811792,-15.046826906361897 l -8.68728956481922,15.046826906357609 l 17.371932897105808,-0.30322821662435134 l -9.46287401096529,-14.571548146490882 l -7.066877990055761,15.872467842354244 l 17.110620232216977,-3.017064003588789 l -12.285682722830813,-12.285682722862436 l -2.7179829914640607,17.16066922911272 l 15.340842819482166,-8.156870816731539 l -15.872467842353617,-7.0668779900571685 l 4.496871979400273,16.782554702243303 l 9.965649180291704,-14.232422012723465 l -17.27939936725955,1.8161380563311715 l 12.911828575051194,11.625862668266628 l -0.30322821663702687,-17.371932897105587 l -12.285682722841239,12.285682722852012 l 17.374579129662514,1.6105948802477216e-11 l -12.498226282086637,-12.06939682563561 l 0.9093152130698581,17.35076787281139 l 10.934176932223297,-13.50258400261743 l -17.110620232214536,3.017064003602623 l 15.046826906348059,8.687289564835758 l -6.226492296913388,-16.220566994078304 l -5.079835318976909,16.615392654553155 l 14.056329786014434,-10.212521377197092 l -17.374579129662514,9.392095583755756e-13 l 14.232422012724106,9.96564918029079 l -6.226492296899875,-16.22056699408349 l -3.612378124095262,16.994902889439004 l 12.069396825622363,-12.498226282099433 l -16.78255470224676,4.49687197938737 l 16.782554702236034,4.496871979427415 l -12.498226282100385,-12.069396825621375 l 5.369040221169983,16.524206699153915 l 2.717982991475985,-17.160669229110834 l -9.965649180287423,14.232422012726463 l 15.046826906352944,-8.6872895648273 l -17.27939936726051,1.8161380563220606 l 16.615392654545918,5.079835319000578 l -13.502584002632524,-10.934176932204657 l 8.687289564816025,15.04682690635945 l -3.0170640035809493,-17.11062023221836 l -2.7179829914704854,17.160669229111704 l 7.887893861848134,-15.480863359552098 l -12.069396825626734,12.498226282095208 l 15.046826906357351,-8.68728956481966 l -16.78255470224388,4.496871979398127 l 17.371932897105875,-0.30322821662050364 l -16.99490288943861,-3.612378124097103 l 15.872467842360274,7.066877990042219 l -14.232422012715558,-9.965649180302997 l 12.285682722832153,12.2856827228611 l -10.212521377200074,-14.056329786012265 l 8.156870816749693,15.340842819472513 l -6.226492296904675,-16.220566994081647 l 4.496871979407643,16.782554702241328 l -3.017064003580614,-17.11062023221842 l 1.8161380563258964,17.27939936726011 l -0.9093152130661,-17.350767872811588 l 0.303228216650392,17.371932897105353 l 1.2828837376728073e-12,-17.374579129662514 l -1.5671635904891523e-11,17.374579129662514 l -0.30322821663883165,-17.371932897105555 l 0.9093152130889375,17.35076787281039 l -1.816138056351451,-17.27939936725742 l 3.0170640036087026,17.110620232213467 l -4.496871979407396,-16.782554702241395 l 6.226492296907075,16.220566994080723 l -8.156870816754461,-15.340842819469977 l 10.212521377181162,14.056329786026007 l -12.285682722839965,-12.285682722853284 l 14.23242201272352,9.965649180291628 l -15.872467842354213,-7.066877990055831 l 16.9949028894361,3.6123781241089117 l -17.371932897105484,0.3032282166428582 l 16.78255470224554,-4.496871979391925 l -15.046826906359152,8.687289564816547 l 12.069396825627287,-12.498226282094677 l -7.8878938618462975,15.480863359553034 l 2.717982991465658,-17.16066922911247 l 3.017064003588546,17.11062023221702 l -8.687289564825152,-15.046826906354182 l 13.502584002621045,10.934176932218831 l -16.615392654550654,-5.079835318985092 l 17.27939936725852,-1.8161380563409768 l -15.046826906357822,8.687289564818851 l 9.965649180293097,-14.23242201272249 l -2.7179829914800373,17.16066922911019 l -5.369040221168769,-16.52420669915431 l 12.49822628210146,12.069396825620263 l -16.782554702237164,-4.496871979423188 l 16.782554702244898,-4.496871979394328 l -12.069396825637883,12.498226282084444 l 3.6123781241136004,-16.994902889435103 l 6.2264922969145164,16.22056699407787 l -14.232422012716595,-9.965649180301517 l 17.374579129662514,9.328583820550112e-12 l -14.056329786018805,10.212521377191072 l 5.0798353189813215,-16.61539265455181 l 6.226492296911718,16.220566994078943 l -15.046826906348578,-8.68728956483486 l 17.110620232213865,-3.01706400360643 l -10.934176932218097,13.50258400262164 l -0.9093152130793639,-17.35076787281089 l 12.498226282095214,12.069396825626733 l -17.374579129662514,-9.337032400139073e-13 l 12.285682722850858,-12.285682722842392 l 0.3032282166262499,17.371932897105776 l -12.911828575067018,-11.62586266824905 l 17.279399367260087,-1.8161380563260743 l -9.965649180293587,14.232422012722148 l -4.496871979400784,-16.782554702243168 l 15.872467842354984,7.066877990054103 l -15.340842819479265,8.156870816736998 l 2.7179829914551634,-17.16066922911413 l 12.285682722839185,12.285682722854066 l -17.11062023221443,3.0170640036032275 l 7.066877990068655,-15.872467842348502 l 9.462874010955822,14.57154814649703 l -17.371932897105403,0.30322821664748933 l 8.687289564824104,-15.046826906354788 l 8.68728956480936,15.046826906363298 l -17.371932897105506,0.30322821664166655 l 7.8878938618652175,-15.480863359543395 l 10.212521377180058,14.05632978602681 l -17.110620232217464,3.017064003586022 l 4.49687197942823,-16.782554702235814 l 13.502584002631183,10.934176932206311 l -15.340842819478096,8.156870816739191 l -1.8161380563441354,-17.27939936725819 l 16.782554702243594,4.496871979399191 l -9.96564918030109,14.232422012716894 l -10.212521377177566,-14.056329786028622 l 16.524206699151556,-5.369040221177246 l 0.30322821663704413,17.371932897105584 l -16.782554702236126,-4.49687197942707 l 8.687289564829438,-15.046826906351706 l 12.498226282094622,12.069396825627342 l -14.571548146484012,9.462874010975867 l -6.226492296916122,-16.220566994077252 l 17.110620232216036,-3.0170640035941214 l -2.0541484496622265e-11,17.374579129662514 l -17.160669229112443,-2.7179829914658176 l 5.079835318974189,-16.615392654553986 l 15.872467842349968,7.0668779900653655 l -8.687289564839599,15.04682690634584 l -14.23242201271419,-9.965649180304947 l 10.93417693220784,-13.502584002629947 l 12.911828575056708,11.625862668260503 l -12.069396825626539,12.498226282095398 l -12.285682722830405,-12.285682722862845 l 12.285682722859816,-12.285682722833435 l 12.498226282082369,12.069396825640032 l -11.625862668268077,12.911828575049888 l -13.502584002628923,-10.934176932209104 l 9.965649180299264,-14.232422012718171 l 15.046826906353594,8.687289564826173 l -7.066877990043378,15.87246784235976 l -16.615392654554288,-5.0798353189732035 l 2.7179829914563407,-17.160669229113942 l 17.374579129662514,2.3809540387694167e-12 l 3.0170640035893173,17.110620232216885 l -16.22056699407593,6.226492296919563 l -9.462874010959633,-14.571548146494553 l 12.069396825635101,-12.49822628208713 l 15.046826906350596,8.687289564831364 l -4.496871979420943,16.782554702237764 l -17.371932897105875,0.3032282166203507 l -5.369040221169513,-16.524206699154067 l 14.056329786028364,-10.212521377177916 l 14.232422012722052,9.965649180293719 l -4.496871979412752,16.78255470223996 l -17.279399367258762,1.8161380563386909 l -8.156870816741922,-15.340842819476643 l 10.934176932221812,-13.502584002618628 l 16.782554702241047,4.496871979408698 l 3.017064003583247,17.110620232217954 l -14.056329786023431,10.212521377184707 l -15.480863359549893,-7.887893861852465 l -0.30322821663294114,-17.371932897105655 l 15.04682690636338,-8.68728956480922 l 15.046826906343188,8.687289564844194 l 0.30322821663285604,17.37193289710566 l -14.571548146483122,9.462874010977236 l -15.872467842349518,-7.066877990066378 l -3.017064003582995,-17.110620232217997 l 12.28568272286254,-12.285682722830712 l 17.160669229113598,2.717982991458536 l 8.15687081671364,15.340842819491684 l -7.066877990041573,15.87246784236056 l -16.78255470225376,4.496871979361251 l -14.232422012721713,-9.965649180294209 l -1.81613805636527,-17.279399367255966 l 11.625862668283856,-12.91182857503568 l 17.37193289710589,-0.30322821661958466 l 12.285682722843736,12.285682722849517 l -2.2073867695304565e-11,17.374579129662514 l -12.069396825635778,12.49822628208648 l -17.350767872812757,0.9093152130437986 l -13.502584002644397,-10.934176932189995 l -3.017064003588227,-17.110620232217073 l 8.68728956484345,-15.046826906343618 l 16.220566994079427,-6.226492296910454 l 16.615392654544674,5.079835319004649 l 10.212521377178268,14.05632978602811 l -1.6590790508182825e-11,17.374579129662514 l -9.965649180300447,14.232422012717343 l -16.220566994085658,6.226492296894223 l -16.994902889438936,-3.61237812409557 l -12.498226282081244,-12.069396825641197 l -4.496871979367625,-16.782554702252053 l 4.496871979380563,-16.782554702248586 l 12.069396825627827,-12.498226282094157 l 16.524206699145147,-5.369040221196972 l 17.160669229111228,2.717982991473504 l 14.23242201271307,9.965649180306551 l 8.687289564839414,15.046826906345949 l 1.816138056373111,17.279399367255145 l -5.079835319006448,16.615392654544124 l -10.934176932204968,13.502584002632272 l -15.04682690634098,8.687289564848019 l -17.110620232216437,3.0170640035918583 l -17.160669229114337,-2.7179829914538765 l -15.48086335956234,-7.887893861828037 l -12.49822628209291,-12.06939682562912 l -8.687289564849133,-15.046826906340337 l -4.496871979375488,-16.782554702249943 l -0.3032282166344055,-17.371932897105633 l 3.612378124108803,-16.994902889436126 l 7.066877990047905,-15.872467842357743 l 9.965649180303393,-14.23242201271528 l 12.285682722857384,-12.285682722835865 l 14.056329786024381,-10.212521377183402 l 15.340842819494332,-8.156870816708656 l 16.22056699408492,-6.226492296896147 l 16.782554702250387,-4.496871979373833 l 17.11062023221801,-3.01706400358292 l 17.27939936725596,-1.8161380563653635 l 17.35076787281252,-0.909315213048339 l 17.371932897105562,-0.3032282166383469 l 17.374579129662514,7.591332230207335e-12 " /></g></svg>