<?xml version="1.0" encoding="UTF-8"?>
<!DOCTYPE svg PUBLIC "-//W3C//DTD SVG 1.1//EN"
    "http://www.w3.org/Graphics/SVG/1.1/DTD/svg11.dtd">
<svg xmlns="http://www.w3.org/2000/svg" xmlns:xlink="http://www.w3.org/1999/xlink" version="1.1" width="400.0" height="400.0" viewBox="0 0 400 400"><g fill="rgb(0,0,0)" fill-opacity="0" fill-rule="nonzero" font-family="Sans" font-size="1" font-style="normal" opacity="1" stroke="rgb(0,0,0)" stroke-opacity="1" stroke-width="0.5" stroke-linecap="butt" stroke-linejoin="miter" text-anchor="middle"><path d="M 199.9999999999999,199.99999999999994 h 90.90909090909072 l 45.454545454545375,78.72958216222153 l -45.45454545454534,78.72958216222153 l -90.90909090909072,1.1133152719521369e-14 l -45.454545454545396,-78.7295821622215 l 45.45454545454536,-78.72958216222153 l 45.45454545454534,78.72958216222153 l -45.45454545454528,78.72958216222158 l -90.90909090909072,3.339945815856411e-14 l -45.45454545454535,-78.72958216222153 l 45.45454545454528,-78.72958216222158 l 90.90909090909072,-4.4532610878085476e-14 l -45.45454545454541,78.7295821622215 l -90.90909090909072,5.5665763597606845e-14 l -45.4545454545455,-78.72958216222145 l 45.454545454545396,-78.7295821622215 l 90.90909090909072,-6.679891631712821e-14 l 45.45454545454551,78.72958216222145 l -90.90909090909072,7.793206903664958e-14 l -45.45454545454552,-78.72958216222143 l 45.454545454545375,-78.72958216222152 l 90.90909090909072,-8.906522175617095e-14 l 45.45454545454525,78.72958216222159 l -45.45454545454509,78.72958216222167 l -45.454545454545254,-78.72958216222159 l 45.454545454545084,-78.72958216222167 l 90.90909090909072,-1.1133152719521369e-13 l 45.45454545454556,78.7295821622214 l -45.45454545454507,78.72958216222169 l -90.90909090909072,4.454386507147799e-13 l 45.45454545454534,-78.72958216222153 l 90.90909090909072,-1.3359783263425643e-13 l 45.454545454545574,78.72958216222139 l -45.45454545454505,78.7295821622217 l -90.90909090909072,-1.7824298544626706e-13 l -45.454545454545304,-78.72958216222156 l 86.36363636363618,-1.480709311696342e-13 l 43.18181818181831,74.79310305411033 l -43.18181818181778,74.79310305411063 l -86.36363636363618,4.654726985132221e-13 l -43.18181818181805,-74.79310305411047 l 43.18181818181804,-74.79310305411049 l 43.18181818181833,74.79310305411032 l -43.181818181818294,74.79310305411033 l -86.36363636363618,-1.270248558397725e-13 l -43.1818181818186,-74.79310305411016 l 43.18181818181802,-74.7931030541105 l 86.36363636363618,-1.9037691150381542e-13 l -43.18181818181829,74.79310305411035 l -86.36363636363618,5.077786788474034e-13 l -43.18181818181863,-74.79310305411013 l 43.181818181817995,-74.79310305411052 l 86.36363636363618,-2.1152990167090605e-13 l 43.18181818181837,74.79310305411029 l -86.36363636363618,-8.47188755055913e-14 l -43.18181818181865,-74.79310305411013 l 43.18181818181798,-74.79310305411052 l 86.36363636363618,-8.463334363580818e-13 l 43.181818181818386,74.79310305411029 l -43.18181818181823,74.79310305411038 l -43.18181818181813,-74.79310305411043 l 43.18181818181849,-74.79310305411022 l 86.36363636363618,-2.5383588200508716e-13 l 43.18181818181894,74.79310305410996 l -43.18181818181769,74.79310305411069 l -86.36363636363618,-4.24128951714101e-14 l 43.181818181817945,-74.79310305411053 l 86.36363636363618,3.386616723479074e-13 l 43.181818181818414,74.79310305411025 l -43.18181818181821,74.79310305411039 l -86.36363636363618,5.923906395157658e-13 l -43.18181818181816,-74.7931030541104 l 81.81818181818164,-2.8055544853193846e-13 l 40.90909090909165,70.8566239459989 l -40.90909090909041,70.85662394599963 l -81.81818181818164,-1.0128774053264013e-16 l -40.90909090909141,-70.85662394599905 l 40.90909090909065,-70.85662394599949 l 40.90909090909118,70.85662394599917 l -40.909090909090885,70.85662394599935 l -81.81818181818164,6.012915345946866e-13 l -40.909090909090935,-70.85662394599932 l 40.909090909091134,-70.85662394599919 l 81.81818181818164,-3.2063479832221545e-13 l -40.909090909090374,70.85662394599963 l -81.81818181818164,3.9978062049744287e-14 l -40.909090909090445,-70.8566239459996 l 40.909090909089606,-70.85662394600007 l 81.81818181818164,2.4067867422272683e-13 l 40.909090909090196,70.85662394599974 l -81.81818181818164,6.413708843849636e-13 l -40.909090909090956,-70.8566239459993 l 40.9090909090901,-70.8566239459998 l 81.81818181818164,-3.6071414811249234e-13 l 40.90909090909072,70.85662394599943 l -40.90909090909034,70.85662394599964 l -40.90909090909047,-70.85662394599959 l 40.90909090908958,-70.8566239460001 l 81.81818181818164,-9.621069704477116e-13 l 40.90909090909023,70.85662394599971 l -40.90909090908982,70.85662394599996 l -81.81818181818164,6.814502341752403e-13 l 40.909090909090054,-70.85662394599981 l 81.81818181818164,-4.0079349790276934e-13 l 40.90909090909075,70.85662394599942 l -40.9090909090903,70.85662394599967 l -81.81818181818164,1.2828430565104597e-12 l -40.90909090909152,-70.85662394599898 l 77.27272727272711,1.5160219827316337e-13 l 38.63636363636303,66.92014483788861 l -38.63636363636257,66.92014483788887 l -77.27272727272711,6.814446070785442e-13 l -38.636363636363754,-66.92014483788819 l 38.63636363636185,-66.92014483788928 l 38.63636363636257,66.92014483788887 l -38.63636363636303,66.92014483788861 l -77.27272727272711,1.5131521634165423e-13 l -38.63636363636329,-66.92014483788846 l 38.63636363636231,-66.92014483788903 l 77.27272727272711,-9.843620216933619e-13 l -38.63636363636349,66.92014483788833 l -77.27272727272711,-3.7881417439523567e-13 l -38.63636363636283,-66.92014483788871 l 38.636363636362766,-66.92014483788876 l 77.27272727272711,-4.542326309564719e-13 l 38.63636363636355,66.92014483788832 l -77.27272727272711,1.2872794363081794e-12 l -38.63636363636428,-66.92014483788789 l 38.63636363636323,-66.92014483788849 l 77.27272727272711,7.589675978041808e-14 l 38.6363636363631,66.92014483788856 l -38.6363636363625,66.9201448378889 l -38.63636363636382,-66.92014483788816 l 38.636363636361786,-66.92014483788932 l 77.27272727272711,6.06026150517308e-13 l 38.63636363636264,66.92014483788883 l -38.63636363636296,66.92014483788863 l -77.27272727272711,2.2702065483439956e-13 l 38.63636363636224,-66.92014483788905 l 77.27272727272711,-1.0600674601861071e-12 l 38.63636363636408,66.920144837888 l -38.63636363636343,66.92014483788837 l -77.27272727272711,-3.031087359024904e-13 l -38.636363636362894,-66.92014483788867 l 72.72727272727258,-4.987652418345574e-13 l 36.363636363636346,62.983665729777194 l -36.36363636363481,62.98366572977807 l -72.72727272727258,1.2828092939302822e-12 l -36.36363636363702,-62.9836657297768 l 36.36363636363592,-62.983665729777435 l 36.36363636363592,62.983665729777435 l -36.36363636363524,62.98366572977783 l -72.72727272727258,7.838639850014445e-13 l -36.3636363636366,-62.98366572977704 l 36.363636363634555,-62.983665729778224 l 72.72727272727258,-1.5679080370971693e-12 l -36.36363636363566,62.98366572977758 l -72.72727272727258,2.849186760726069e-13 l -36.36363636363616,-62.98366572977729 l 36.36363636363499,-62.98366572977797 l 72.72727272727258,-1.0689627281683316e-12 l 36.36363636363684,62.98366572977691 l -72.72727272727258,-2.1402663285623066e-13 l -36.363636363635734,-62.98366572977754 l 36.36363636363542,-62.98366572977772 l 72.72727272727258,-5.700174192394942e-13 l 36.3636363636382,62.98366572977612 l -36.36363636363654,62.98366572977709 l -36.363636363637085,-62.98366572977677 l 36.36363636363586,-62.98366572977748 l 72.72727272727258,-7.107211031065651e-14 l 36.36363636363777,62.98366572977638 l -36.363636363636964,62.98366572977683 l -72.72727272727258,8.551161624063812e-13 l 36.36363636363629,-62.983665729777215 l 72.72727272727258,4.2787319861818106e-13 l 36.36363636363733,62.98366572977661 l -36.36363636363739,62.98366572977658 l -72.72727272727258,3.561708534775437e-13 l -36.363636363638015,-62.98366572977622 l 68.18181818181804,-1.068951473974939e-12 l 34.0909090909096,59.047186621665816 l -34.09090909090879,59.04718662166628 l -68.18181818181804,-1.3385105198558802e-13 l -34.09090909091024,-59.04718662166545 l 34.090909090909825,-59.04718662166568 l 34.09090909091087,59.04718662166508 l -34.09090909090919,59.04718662166604 l -68.18181818181804,1.3362315456938958e-12 l -34.090909090909825,-59.04718662166568 l 34.09090909090856,-59.04718662166642 l 68.18181818181804,-1.3342901973336872e-13 l -34.0909090909096,59.047186621665816 l -68.18181818181804,8.684703185731107e-13 l -34.0909090909111,-59.04718662166495 l 34.09090909090896,-59.047186621666185 l 68.18181818181804,-1.6035116174128525e-12 l 34.09090909091006,59.04718662166554 l -68.18181818181804,4.007090914523254e-13 l -34.09090909091069,-59.047186621665176 l 34.09090909090937,-59.047186621665944 l 68.18181818181804,-1.1357503902920673e-12 l 34.090909090909655,59.04718662166577 l -34.09090909090873,59.04718662166631 l -34.090909090910294,-59.04718662166541 l 34.09090909090977,-59.04718662166571 l 68.18181818181804,-6.679891631712822e-13 l 34.09090909091093,59.047186621665034 l -34.090909090909136,59.047186621666086 l -68.18181818181804,1.403030462011024e-12 l 34.0909090909085,-59.04718662166645 l 68.18181818181804,-2.138071760850766e-12 l 34.090909090908845,59.04718662166625 l -34.090909090907864,59.04718662166682 l -68.18181818181804,-1.0025745899100304e-12 l -34.09090909090948,-59.04718662166588 l 63.636363636363505,2.496977383322691e-13 l 31.81818181818278,55.11070751355448 l -31.818181818182623,55.11070751355457 l -63.636363636363505,4.3634080725149e-13 l -31.818181818183366,-55.11070751355414 l 31.81818181818203,-55.110707513554914 l 31.81818181818396,55.1107075135538 l -31.81818181818143,55.110707513555255 l -63.636363636363505,1.8084178984190083e-12 l -31.81818181818456,-55.11070751355344 l 31.81818181818083,-55.1107075135556 l 63.636363636363505,-2.4944564440027675e-12 l -31.818181818183366,55.11070751355414 l -63.636363636363505,-4.368134833739757e-13 l -31.818181818182623,-55.11070751355457 l 31.81818181818278,-55.11070751355448 l 63.636363636363505,-2.492250622097834e-13 l 31.81818181818321,55.110707513554225 l -63.636363636363505,9.352636077935425e-13 l -31.818181818183806,-55.11070751355388 l 31.81818181818159,-55.11070751355516 l 63.636363636363505,-1.6213021533773017e-12 l 31.8181818181844,55.11070751355354 l -31.818181818180996,55.110707513555504 l -31.818181818181856,-55.110707513555006 l 31.818181818180403,-55.11070751355585 l 63.636363636363505,6.239292284156823e-13 l 31.81818181818245,55.110707513554665 l -31.81818181818294,55.11070751355438 l -63.636363636363505,6.210931716807685e-14 l 31.818181818182346,-55.11070751355472 l 63.636363636363505,-7.48147862751836e-13 l 31.818181818183636,55.11070751355398 l -31.818181818181753,55.11070751355507 l -63.636363636363505,1.434186408335595e-12 l -31.81818181818424,-55.110707513553635 l 59.090909090908966,-1.9687803143536865e-12 l 29.545454545454433,51.174228405444026 l -29.545454545453378,51.17422840544463 l -59.090909090908966,-7.53113189639004e-13 l -29.545454545454987,-51.1742284054437 l 29.545454545455737,-51.17422840544327 l 29.54545454545554,51.17422840544339 l -29.545454545455186,51.17422840544359 l -59.090909090908966,5.209583950165487e-13 l -29.545454545456092,-51.17422840544306 l 29.545454545454632,-51.174228405443905 l 59.090909090908966,-1.1579941873443248e-12 l -29.54545454545408,51.174228405444225 l -59.090909090908966,1.7950299796721016e-12 l -29.54545454545719,-51.17422840544243 l 29.545454545453534,-51.174228405444545 l 59.090909090908966,9.268635243205886e-13 l 29.54545454545483,51.17422840544379 l -59.090909090908966,-2.898277319928123e-13 l -29.54545454545538,-51.17422840544347 l 29.545454545455335,-51.17422840544349 l 59.090909090908966,-3.47208060334964e-13 l 29.54545454545593,51.17422840544316 l -29.54545454545479,51.17422840544382 l -29.545454545456494,-51.17422840544284 l 29.54545454545423,-51.17422840544414 l 59.090909090908966,-1.6212796449905168e-12 l 29.54545454545704,51.17422840544251 l -29.545454545453683,51.17422840544446 l -59.090909090908966,2.258315437318293e-12 l 29.545454545453126,-51.17422840544478 l 59.090909090908966,4.63578066674397e-13 l 29.54545454545524,51.17422840544356 l -29.545454545455485,51.174228405443415 l -59.090909090908966,1.734577256533793e-13 l -29.545454545455787,-51.174228405443245 l 54.54545454545443,-7.48147862751836e-13 l 27.27272727272893,47.23774929733193 l -27.272727272727124,47.23774929733297 l -54.54545454545443,1.3361809018236295e-12 l -27.272727272729437,-47.23774929733164 l 27.272727272726616,-47.237749297333266 l 27.272727272727256,47.23774929733289 l -27.272727272726108,47.23774929733356 l -54.54545454545443,-5.88303139713214e-13 l -27.272727272727767,-47.237749297332606 l 27.272727272728282,-47.23774929733231 l 54.54545454545443,2.701006414203737e-16 l -27.272727272727767,47.237749297332606 l -54.54545454545443,5.877629384303732e-13 l -27.27272727272879,-47.23774929733201 l 27.272727272727256,-47.23774929733289 l 54.54545454545443,-1.1757959775021668e-12 l 27.2727272727293,47.23774929733172 l -54.54545454545443,1.7638290165739604e-12 l -27.272727272729806,-47.23774929733142 l 27.272727272726243,-47.23774929733348 l 54.54545454545443,-2.351862055645754e-12 l 27.272727272727632,47.23774929733268 l -27.27272727272842,47.23774929733222 l -27.272727272728144,-47.237749297332385 l 27.272727272727913,-47.23774929733252 l 54.54545454545443,-4.2737801410891037e-13 l 27.27272727272865,47.237749297332094 l -27.2727272727274,47.23774929733281 l -54.54545454545443,1.015411053180704e-12 l 27.272727272726897,-47.2377492973331 l 54.54545454545443,-1.6034440922524976e-12 l 27.272727272729668,47.237749297331504 l -27.272727272726385,47.237749297333394 l -54.54545454545443,2.1914771313242908e-12 l -27.272727272727487,-47.237749297332755 l 49.99999999999989,2.942866201773172e-13 l 25.000000000000668,43.30127018922143 l -25.000000000000707,43.3012701892214 l -49.99999999999989,2.447436656384936e-13 l -25.000000000001137,-43.30127018922116 l 25.00000000000024,-43.30127018922167 l 24.999999999999144,43.3012701892223 l -24.999999999997314,43.30127018922336 l -49.99999999999989,1.322804237270115e-12 l -24.99999999999961,-43.30127018922204 l 24.99999999999685,-43.30127018922364 l 49.99999999999989,-1.861834523085926e-12 l -24.999999999998842,43.30127018922248 l -49.99999999999989,-4.4130613413865803e-13 l -25.00000000000054,-43.301270189221505 l 24.999999999998376,-43.30127018922275 l 49.99999999999989,-9.772415167715271e-14 l 24.999999999998547,43.30127018922265 l -49.99999999999989,6.367544374929634e-13 l -24.999999999999012,-43.30127018922238 l 24.999999999997446,-43.30127018922329 l 49.99999999999989,-1.1757847233087743e-12 l 24.999999999999478,43.30127018922211 l -24.999999999996977,43.30127018922356 l -24.999999999999943,-43.301270189221846 l 24.999999999998973,-43.30127018922241 l 49.99999999999989,5.883256480999989e-13 l 25.000000000000412,43.301270189221576 l -24.999999999998504,43.30127018922267 l -49.99999999999989,-4.92953622841882e-14 l 24.99999999999804,-43.30127018922294 l 49.99999999999989,-4.897349235316225e-13 l 24.999999999998888,43.30127018922245 l -24.99999999999757,43.30127018922322 l -49.99999999999989,1.0287652093474333e-12 l -24.999999999999353,-43.30127018922218 l 45.45454545454536,-1.4252686319665857e-12 l 22.727272727272563,39.36479108111084 l -22.727272727271906,39.36479108111121 l -45.45454545454536,1.915296164526414e-12 l -22.727272727272986,-39.36479108111058 l 22.727272727271483,-39.364791081111456 l 22.727272727271174,39.364791081111626 l -22.727272727271057,39.3647910811117 l -45.45454545454536,3.115594632457106e-13 l -22.727272727271597,-39.36479108111139 l 22.727272727270634,-39.364791081111946 l 45.45454545454536,-8.015869958055386e-13 l -22.72727272727021,39.36479108111219 l -45.45454545454536,1.2916145283653665e-12 l -22.727272727272442,-39.3647910811109 l 22.72727272726979,-39.36479108111243 l 45.45454545454536,-1.7816420609251946e-12 l 22.727272727272876,39.36479108111065 l -45.45454545454536,-3.1212217291533636e-13 l -22.7272727272733,-39.36479108111041 l 22.727272727271174,-39.364791081111626 l 45.45454545454536,-1.779053596444916e-13 l 22.727272727271483,39.364791081111456 l -22.727272727270748,39.364791081111875 l -22.727272727271906,-39.36479108111121 l 22.727272727270325,-39.36479108111212 l 45.45454545454536,-1.1579604247641476e-12 l 22.727272727272332,39.364791081110965 l -22.727272727269902,39.364791081112365 l -45.45454545454536,1.6479879573239754e-12 l 22.727272727271718,-39.36479108111133 l 45.45454545454536,-2.1380154898838033e-12 l 22.72727272727318,39.364791081110475 l -22.72727272727129,39.36479108111156 l -45.45454545454536,4.425125604327259e-14 l -22.72727272727137,-39.36479108111152 l 40.90909090909082,-4.808509097427905e-13 l 20.45454545454461,35.42831197300015 l -20.4545454545434,35.42831197300085 l -40.90909090909082,9.218756890466357e-13 l -20.454545454544995,-35.42831197299993 l 20.454545454543016,-35.42831197300107 l 20.454545454545375,35.42831197299971 l -20.454545454544647,35.42831197300013 l -40.90909090909082,1.803925247654326e-12 l -20.45454545454576,-35.42831197299949 l 20.454545454544263,-35.42831197300035 l 40.90909090909082,8.046256280215177e-14 l -20.454545454543883,35.428311973000575 l -40.90909090909082,3.6056221650169336e-13 l -20.45454545454451,-35.428311973000206 l 20.454545454543503,-35.42831197300079 l 40.90909090909082,-8.015869958055387e-13 l 20.45454545454489,35.42831197299999 l -40.90909090909082,1.2426117751093836e-12 l -20.454545454545272,-35.428311972999765 l 20.454545454542735,-35.428311973001236 l 40.90909090909082,-1.6836365544132288e-12 l 20.454545454545652,35.428311972999545 l -20.45454545454437,35.42831197300029 l -20.454545454546036,-35.428311972999325 l 20.454545454541975,-35.42831197300167 l 40.90909090909082,-2.5656861130209193e-12 l 20.454545454546416,35.428311972999104 l -20.45454545454562,35.428311972999566 l -40.90909090909082,3.0067108923247643e-12 l 20.454545454545237,-35.42831197299979 l 40.90909090909082,1.2030895078920365e-12 l 20.454545454543158,35.42831197300099 l -20.454545454544856,35.42831197300001 l -40.90909090909082,-7.620647285881911e-13 l -20.45454545454354,-35.428311973000774 l 36.36363636363629,2.8536884380830756e-13 l 18.181818181816816,31.49183286488938 l -18.181818181816972,31.491832864889286 l -36.36363636363629,1.0665318223955484e-13 l -18.181818181817157,-31.491832864889183 l 18.18181818181663,-31.491832864889485 l 18.181818181817494,31.491832864888984 l -18.181818181816293,31.49183286488968 l -36.36363636363629,8.906972343352796e-13 l -18.18181818181783,-31.49183286488879 l 18.181818181815952,-31.491832864889876 l 36.36363636363629,-1.282719260383142e-12 l -18.181818181815615,31.491832864890068 l -36.36363636363629,1.6747412864310045e-12 l -18.18181818181851,-31.4918328648884 l 18.181818181815274,-31.491832864890267 l 36.36363636363629,-2.0667633124788668e-12 l 18.18181818181885,31.491832864888202 l -36.36363636363629,2.458785338526729e-12 l -18.181818181819192,-31.491832864888 l 18.181818181818173,-31.491832864888597 l 36.36363636363629,-2.850807364574591e-12 l 18.181818181819533,31.491832864887808 l -18.18181818181783,31.49183286488879 l -18.181818181816293,-31.49183286488968 l 18.181818181817494,-31.491832864888984 l 36.36363636363629,4.99215409570258e-13 l 18.18181818181663,31.491832864889485 l -18.181818181817157,31.491832864889183 l -36.36363636363629,-1.0719338352239558e-13 l 18.181818181816816,-31.49183286488938 l 36.36363636363629,-2.848286425254668e-13 l 18.18181818181731,31.491832864889094 l -18.181818181816478,31.491832864889577 l -36.36363636363629,6.768506685733292e-13 l -18.18181818181765,-31.4918328648889 l 31.818181818181753,-9.352636077935425e-13 l 15.90909090909074,27.555353756777613 l -15.909090909088825,27.555353756778718 l -31.818181818181753,1.2782828805854223e-12 l -15.909090909091034,-27.555353756777443 l 15.909090909088528,-27.55535375677889 l 15.909090909091335,27.55535375677727 l -15.909090909088228,27.555353756779066 l -31.818181818181753,1.9643214261691813e-12 l -15.909090909091631,-27.555353756777098 l 15.90909090908793,-27.555353756779237 l 31.818181818181753,-2.3073406989610605e-12 l -15.90909090909077,27.5553537567776 l -31.818181818181753,-9.669485012075619e-13 l -15.909090909092226,-27.555353756776757 l 15.909090909090468,-27.55535375677777 l 31.818181818181753,6.239292284156823e-13 l 15.90909090908939,27.55535375677839 l -31.818181818181753,-2.8090995562380276e-13 l -15.909090909089686,-27.55535375677822 l 15.909090909089874,-27.55535375677811 l 31.818181818181753,-6.210931716807685e-14 l 15.909090909089985,27.55535375677805 l -15.90909090908958,27.555353756778285 l -15.909090909090281,-27.55535375677788 l 15.909090909089283,-27.555353756778455 l 31.818181818181753,-7.48147862751836e-13 l 15.909090909090578,27.55535375677771 l -15.909090909088986,27.555353756778626 l -31.818181818181753,1.0911671355437155e-12 l 15.90909090908869,-27.5553537567788 l 31.818181818181753,-1.434186408335595e-12 l 15.909090909091173,27.55535375677736 l -15.909090909088391,27.55535375677897 l -31.818181818181753,1.7772056811274749e-12 l -15.90909090909147,-27.55535375677719 l 27.272727272727217,-1.817335674788018e-12 l 13.63636363636437,23.618874648666015 l -13.636363636363653,23.618874648666434 l -27.272727272727217,2.111352194323915e-12 l -13.636363636364624,-23.618874648665873 l 13.636363636363399,-23.61887464866658 l 13.636363636362194,23.618874648667273 l -13.636363636363145,23.61887464866673 l -27.272727272727217,-4.0116488628472226e-13 l -13.63636363636245,-23.618874648667127 l 13.63636363636289,-23.61887464866687 l 27.272727272727217,1.0714836674882553e-13 l -13.636363636362635,23.61887464866702 l -27.272727272727217,1.8686815278707126e-13 l -13.636363636362958,-23.618874648666836 l 13.636363636362383,-23.618874648667166 l 27.272727272727217,-4.80884672322968e-13 l 13.636363636363212,23.61887464866669 l -27.272727272727217,7.749011918588648e-13 l -13.636363636363468,-23.61887464866654 l 13.636363636361873,-23.61887464866746 l 27.272727272727217,-1.0689177113947616e-12 l 13.636363636363726,23.61887464866639 l -13.636363636361617,23.61887464866761 l -13.636363636363981,-23.618874648666246 l 13.636363636361363,-23.61887464866776 l 27.272727272727217,-1.6569507504665555e-12 l 13.636363636364234,23.618874648666097 l -13.636363636361105,23.6188746486679 l -27.272727272727217,1.950967270002452e-12 l 13.636363636363539,-23.618874648666498 l 27.272727272727217,8.555663301420817e-13 l 13.636363636364743,23.618874648665805 l -13.636363636363283,23.618874648666647 l -27.272727272727217,-5.615498106061851e-13 l -13.636363636362313,-23.61887464866721 l 22.72727272727268,2.2294440922524025e-13 l 11.363636363635472,19.68239554055588 l -11.363636363635646,19.68239554055578 l -22.72727272727268,2.2069357054673715e-14 l -11.363636363635685,-19.68239554055576 l 11.363636363635434,-19.682395540555905 l 11.363636363635896,19.682395540555635 l -11.363636363635223,19.682395540556026 l -22.72727272727268,5.120968896145016e-13 l -11.36363636363611,-19.682395540555515 l 11.363636363635008,-19.68239554055615 l 22.72727272727268,-7.571106558944157e-13 l -11.363636363634797,19.68239554055627 l -22.72727272727268,1.0021244221743297e-12 l -11.363636363636534,-19.68239554055527 l 11.363636363634583,-19.682395540556396 l 22.72727272727268,-1.2471381884542438e-12 l 11.363636363636747,19.68239554055515 l -22.72727272727268,1.4921519547341578e-12 l -11.363636363636958,-19.682395540555028 l 11.363636363634159,-19.68239554055664 l 22.72727272727268,-1.7371657210140718e-12 l 11.36363636363717,19.6823955405549 l -11.363636363636186,19.682395540555472 l -11.363636363637381,-19.68239554055478 l 11.363636363635973,-19.682395540555593 l 22.72727272727268,3.5659851282645923e-13 l 11.363636363635356,19.68239554055595 l -11.363636363635761,19.682395540555717 l -22.72727272727268,-1.115847465465453e-13 l 11.36363636363555,-19.682395540555838 l 22.72727272727268,-1.3342901973336872e-13 l 11.363636363635779,19.682395540555707 l -11.363636363635338,19.68239554055596 l -22.72727272727268,3.784427860132827e-13 l -11.363636363635994,-19.682395540555582 l 18.181818181818144,-4.987652418345574e-13 l 9.090909090908966,15.74591643244437 l -9.090909090907928,15.745916432444966 l -18.181818181818144,6.947762548584885e-13 l -9.090909090909134,-15.745916432444272 l 9.090909090907761,-15.745916432445062 l 9.090909090909305,15.745916432444172 l -9.090909090907589,15.74591643244516 l -18.181818181818144,1.0867982809063509e-12 l -9.090909090909474,-15.745916432444075 l 9.090909090907422,-15.74591643244526 l 18.181818181818144,-1.2828092939302822e-12 l -9.09090909090904,15.745916432444323 l -18.181818181818144,1.4788203069542132e-12 l -9.090909090909813,-15.745916432443877 l 9.090909090908871,-15.745916432444421 l 18.181818181818144,3.9220209314214264e-13 l 9.090909090908191,15.745916432444814 l -18.181818181818144,-1.9619108011821143e-13 l -9.090909090908362,-15.745916432444718 l 9.090909090908532,-15.745916432444618 l 18.181818181818144,1.8006709428024914e-16 l 9.09090909090853,15.745916432444618 l -9.090909090908363,15.745916432444714 l -9.090909090908703,-15.745916432444517 l 9.090909090908191,-15.745916432444814 l 18.181818181818144,-3.918419589535821e-13 l 9.090909090908871,15.745916432444421 l -9.090909090908022,15.745916432444911 l -18.181818181818144,5.878529719775132e-13 l 9.090909090907852,-15.745916432445009 l 18.181818181818144,-7.838639850014445e-13 l 9.09090909090921,15.745916432444227 l -9.090909090907683,15.745916432445108 l -18.181818181818144,9.798749980253757e-13 l -9.09090909090938,-15.745916432444126 l 13.636363636363608,-8.819145082869802e-13 l 6.818181818182162,11.809437324333024 l -6.818181818180508,11.809437324333976 l -13.636363636363608,1.0289227680549286e-12 l -6.81818181818229,-11.809437324332949 l 6.818181818181724,-11.809437324333276 l 6.818181818182417,11.809437324332876 l -6.818181818181596,11.809437324333349 l -13.636363636363608,-2.2733577224938995e-13 l -6.818181818181201,-11.809437324333578 l 6.818181818181469,-11.809437324333421 l 13.636363636363608,8.032751248144159e-14 l -6.818181818181342,11.809437324333496 l -13.636363636363608,6.668074728650681e-14 l -6.818181818181458,-11.80943732433343 l 6.8181818181812135,-11.80943732433357 l 13.636363636363608,-2.1368900705445519e-13 l 6.818181818181584,11.809437324333356 l -13.636363636363608,3.6069726682240357e-13 l -6.818181818181712,-11.809437324333283 l 6.8181818181809595,-11.809437324333718 l 13.636363636363608,-5.07705526590352e-13 l 6.818181818181839,11.809437324333208 l -6.818181818180832,11.809437324333791 l -6.818181818181966,-11.809437324333135 l 6.818181818180705,-11.809437324333864 l 13.636363636363608,-8.017220461262488e-13 l 6.818181818182093,11.809437324333063 l -6.818181818180578,11.809437324333937 l -13.636363636363608,9.487303058941971e-13 l 6.8181818181804505,-11.80943732433401 l 13.636363636363608,-1.0957385656621454e-12 l 6.818181818182347,11.809437324332915 l -6.818181818181665,11.80943732433331 l -13.636363636363608,-3.075282344101214e-13 l -6.818181818182475,-11.809437324332842 l 9.090909090909072,1.0701331642811533e-13 l 4.545454545454174,7.872958216222362 l -4.545454545454273,7.872958216222304 l -9.090909090909072,-9.007809916149735e-15 l -4.545454545454258,-7.8729582162223135 l 4.545454545454189,-7.8729582162223535 l 4.5454545454543425,7.872958216222265 l -4.5454545454541035,7.872958216222402 l -9.090909090909072,1.8700320310778147e-13 l -4.545454545454428,-7.872958216222215 l 4.545454545454019,-7.872958216222451 l 9.090909090909072,-2.850087096197471e-13 l -4.54545454545483,7.872958216221984 l -9.090909090909072,3.8301421613171266e-13 l -4.545454545455493,-7.872958216221599 l 4.545454545454745,-7.872958216222033 l 9.090909090909072,-4.810197226436782e-13 l 4.545454545455577,7.8729582162215515 l -9.090909090909072,5.790252291556438e-13 l -4.545454545455662,-7.872958216221503 l 4.545454545454575,-7.87295821622213 l 9.090909090909072,-6.770307356676094e-13 l 4.545454545454851,7.872958216221972 l -4.54545454545449,7.872958216222179 l -4.545454545454937,-7.872958216221921 l 4.545454545454405,-7.872958216222228 l 9.090909090909072,1.604749578686029e-13 l 4.545454545455022,7.872958216221871 l -4.545454545454319,7.872958216222278 l -9.090909090909072,-6.246945135663733e-14 l 4.545454545455129,-7.87295821622181 l 9.090909090909072,-3.5536055155328255e-14 l 4.545454545455192,7.872958216221774 l -4.545454545455044,7.872958216221858 l -9.090909090909072,1.3354156166729385e-13 l -4.545454545455277,-7.8729582162217255 " /></g></svg>