<?xml version="1.0" encoding="UTF-8"?>
<!DOCTYPE svg PUBLIC "-//W3C//DTD SVG 1.1//EN"
    "http://www.w3.org/Graphics/SVG/1.1/DTD/svg11.dtd">
<svg xmlns="http://www.w3.org/2000/svg" xmlns:xlink="http://www.w3.org/1999/xlink" version="1.1" width="400.0" height="400.0" viewBox="0 0 400 400"><g fill="rgb(0,0,0)" fill-opacity="0" fill-rule="nonzero" font-family="Sans" font-size="1" font-style="normal" opacity="1" stroke="rgb(0,0,0)" stroke-opacity="1" stroke-width="0.5" stroke-linecap="butt" stroke-linejoin="miter" text-anchor="middle"><path d="M 275.3115567951081,381.8181818181817 l 9.223005696793328e-15,-150.62311359021626 l -150.62311359021626,-1.8446011393586657e-14 l -2.7669017090379984e-14,150.62311359021626 l 150.62311359021626,3.6892022787173314e-14 l -150.62311359021626,-3.6892022787173314e-14 l 106.50662502307358,-106.50662502307354 l -106.50662502307343,-106.50662502307368 l -106.50662502307351,106.5066250230736 l 106.50662502307341,106.50662502307368 l -106.50662502307341,-106.50662502307368 l 150.62311359021626,7.378404557434663e-14 l 8.300705127113995e-14,-150.62311359021626 l -150.62311359021626,-9.223005696793328e-14 l -3.690134606624681e-13,150.62311359021626 l 3.690134606624681e-13,-150.62311359021626 l 106.50662502307338,106.50662502307372 l 106.50662502307354,-106.50662502307355 l -106.50662502307338,-106.50662502307375 l -106.50662502307354,106.50662502307355 l 106.50662502307354,-106.50662502307355 l -4.0590548344964137e-13,150.62311359021626 l 150.62311359021626,1.4756809114869326e-13 l -1.1076930115225491e-13,-150.62311359021626 l -150.62311359021626,-1.660141025422799e-13 l 150.62311359021626,1.660141025422799e-13 l -106.50662502307358,106.50662502307354 l 106.50662502307333,106.50662502307377 l 106.50662502307398,-106.50662502307314 l -106.5066250230733,-106.5066250230738 l 106.5066250230733,106.5066250230738 l -150.62311359021626,-7.380269213249362e-13 l -4.79689529023988e-13,150.62311359021626 l 150.62311359021626,2.2135213672303987e-13 l -3.69852555779083e-14,-150.62311359021626 l 3.69852555779083e-14,150.62311359021626 l -106.5066250230733,-106.50662502307381 l -106.50662502307362,106.50662502307347 l 106.50662502307367,106.50662502307345 l 106.50662502307401,-106.50662502307308 l -106.50662502307401,106.50662502307308 " /></g></svg>