<?xml version="1.0" encoding="UTF-8"?>
<!DOCTYPE svg PUBLIC "-//W3C//DTD SVG 1.1//EN"
    "http://www.w3.org/Graphics/SVG/1.1/DTD/svg11.dtd">
<svg xmlns="http://www.w3.org/2000/svg" xmlns:xlink="http://www.w3.org/1999/xlink" version="1.1" width="400.0" height="400.0" viewBox="0 0 400 400"><g fill="rgb(0,0,0)" fill-opacity="0" fill-rule="nonzero" font-family="Sans" font-size="1" font-style="normal" opacity="1" stroke="rgb(0,0,0)" stroke-opacity="1" stroke-width="0.5" stroke-linecap="butt" stroke-linejoin="miter" text-anchor="middle"><path d="M 191.43883323578663,220.20202020201734 h 0.0 h 0.0 h 0.0 h 0.0 h 0.0 h 0.0 h 0.0 h 0.0 h 0.0 l 2.701269441035122,-1.5595786389353326 l -3.0128745709527918,-0.8072973081830618 l 1.559578638935337,2.7012694410351195 l 0.8072973081830784,-3.012874570952787 l -2.7012694410351226,1.5595786389353317 l 3.012874570952788,0.8072973081830735 l -1.5595786389353263,-2.7012694410351257 l -0.8072973081830794,3.012874570952787 l 2.701269441035129,-1.5595786389353212 l 3.1191572778706873,-5.402538882070231 l -6.0257491419055755,1.6145946163661518 l 5.402538882070248,3.1191572778706593 l -1.61459461636614,-6.025749141905578 l -3.11915727787067,5.402538882070242 l 6.025749141905592,-1.6145946163660856 l -5.402538882070213,-3.119157277870719 l 1.614594616366116,6.025749141905584 l 3.119157277870691,-5.402538882070229 l 4.578047077785362e-15,-9.357471833612017 l -6.616731788309184,6.616731788309164 l 9.357471833612017,2.2919195858288946e-14 l -6.616731788309199,-6.616731788309151 l -4.126034463879253e-14,9.357471833612017 l 6.616731788309164,-6.6167317883091865 l -9.357471833612017,-5.960149341929611e-14 l 6.616731788309174,6.616731788309176 l 7.794264219979968e-14,-9.357471833612017 l -6.238314555741287,-10.805077764140513 l -3.229189232732253,12.051498283811164 l 10.805077764140437,-6.238314555741419 l -12.051498283811158,-3.229189232732277 l 6.2383145557413995,10.805077764140448 l 3.2291892327323004,-12.051498283811151 l -10.80507776414046,6.238314555741377 l 12.051498283811146,3.229189232732324 l -6.238314555741355,-10.805077764140472 l -13.50634720517552,-7.79789319467682 l 4.036486540915265,15.064372854763969 l 7.797893194676655,-13.506347205175613 l -15.064372854763919,4.036486540915449 l 13.506347205175597,7.797893194676682 l -4.03648654091542,-15.064372854763928 l -7.797893194676708,13.506347205175583 l 15.064372854763935,-4.03648654091539 l -13.506347205175569,-7.797893194676735 l -18.714943667224034,-1.831218831114145e-14 l 13.23346357661823,13.233463576618467 l 5.4994485872148614e-14,-18.714943667224034 l -13.233463576618496,13.233463576618202 l 18.714943667224034,9.167678343315578e-14 l -13.23346357661818,-13.23346357661852 l 1.3759626446394766e-13,18.714943667224034 l 13.233463576618359,-13.23346357661834 l -18.714943667224034,-1.6504137855517013e-13 l -18.908886087246056,10.917050472546975 l 21.090121996669534,5.651081157281453 l -10.917050472547206,-18.908886087245925 l -5.651081157281794,21.090121996669446 l 18.9088860872461,-10.917050472546899 l -21.09012199666951,-5.651081157281537 l 10.917050472547132,18.908886087245964 l 5.651081157281878,-21.09012199666942 l -18.908886087245833,10.917050472547364 l -12.476629111482923,21.610155528280824 l 24.10299656762226,-6.4583784654647545 l -21.610155528280977,-12.476629111482659 l 6.458378465464365,24.102996567622366 l 12.476629111482394,-21.61015552828113 l -24.102996567622288,6.458378465464659 l 21.610155528280927,12.476629111482746 l -6.45837846546427,-24.10299656762239 l -12.47662911148248,21.61015552828108 l -4.120242370006826e-14,28.072415500836055 l 19.850195364927714,-19.850195364927334 l -28.072415500836055,-4.951588882287449e-13 l 19.85019536492758,19.850195364927472 l 1.5124931638308977e-13,-28.072415500836055 l -19.85019536492779,19.85019536492726 l 28.072415500836055,6.052057809117663e-13 l -19.8501953649275,-19.850195364927547 l -2.6129620906611124e-13,28.072415500836055 l 15.595786389352806,27.012694410351518 l 8.072973081831519,-30.12874570952767 l -27.01269441035133,15.595786389353139 l 30.12874570952777,8.072973081831151 l -15.59578638935347,-27.012694410351138 l -8.07297308183078,30.12874570952787 l 27.012694410350946,-15.595786389353801 l -30.128745709527973,-8.072973081830412 l 15.595786389353364,27.012694410351195 l 29.713963851386122,17.155365028289033 l -8.880270390013079,-33.141620280480865 l -17.155365028289513,29.713963851385845 l 33.141620280481014,-8.880270390012544 l -29.713963851386055,-17.155365028289147 l 8.880270390012948,33.14162028048091 l 17.155365028289633,-29.713963851385778 l -33.141620280480794,8.880270390013356 l 29.71396385138599,17.155365028289268 l 37.42988733444807,7.32487532445658e-14 l -26.46692715323643,-26.46692715323697 l -6.785240392828012e-13,37.42988733444807 l 26.466927153236636,-26.466927153236757 l -37.42988733444807,-2.1997794348859445e-13 l 26.46692715323633,26.46692715323707 l 8.252532295268299e-13,-37.42988733444807 l -26.466927153236746,26.466927153236657 l 37.42988733444807,3.6670713373262314e-13 l 35.11650273345641,-20.274522306159632 l -39.167369422386265,-10.49486500637988 l 20.274522306159064,35.116502733456734 l 10.494865006379401,-39.1673694223864 l -35.11650273345591,20.27452230616049 l 39.16736942238623,10.494865006380033 l -20.274522306159927,-35.11650273345624 l -10.494865006380667,39.16736942238605 l 35.11650273345657,-20.274522306159355 l 21.83410094509623,-37.8177721744908 l -42.180243993339296,11.302162314562079 l 37.81777217449169,21.83410094509469 l -11.302162314561398,-42.180243993339474 l -21.834100945095305,37.81777217449134 l 42.18024399333965,-11.302162314560714 l -37.81777217449098,-21.834100945095912 l 11.302162314562432,42.1802439933392 l 21.834100945096527,-37.81777217449063 l 1.4442279042351867e-12,-46.78735916806009 l -33.083658941546226,33.08365894154552 l 46.78735916806009,-4.587314427981245e-13 l -33.08365894154499,-33.08365894154676 l -2.9786266474966987e-13,46.78735916806009 l 33.08365894154541,-33.08365894154634 l -46.78735916806009,-1.0544567722974641e-12 l 33.0836589415458,33.08365894154595 l 1.8110508798452584e-12,-46.78735916806009 l -24.953258222964447,-43.22031105656246 l -12.916756930929107,48.20599313524463 l 43.220311056561435,-24.953258222966205 l -48.20599313524442,-12.916756930929887 l 24.95325822296551,43.22031105656184 l 12.916756930927924,-48.205993135244945 l -43.220311056562245,24.95325822296481 l 48.20599313524474,12.916756930928704 l -24.953258222966568,-43.22031105656123 l -45.92158049759671,-26.51283686190128 l 13.724054239109616,51.218867706198104 l 26.51283686190202,-45.92158049759629 l -51.21886770619755,13.7240542391117 l 45.921580497595855,26.512836861902766 l -13.724054239110874,-51.21886770619777 l -26.5128368619009,45.921580497596935 l 51.21886770619799,-13.724054239110043 l -45.9215804975965,-26.512836861901636 l -56.14483100167211,-1.6480969480027303e-13 l 39.70039072985348,39.700390729856615 l 1.0727226238576262e-12,-56.14483100167211 l -39.700390729855,39.700390729855094 l 56.14483100167211,1.9806355529149794e-12 l -39.70039072985446,-39.70039072985565 l 3.029156635249942e-13,56.14483100167211 l 39.70039072985628,-39.700390729853815 l -56.14483100167211,-6.049972655323591e-13 l -51.32411937966709,29.631994139771717 l 57.244616848103426,15.338648855476714 l -29.631994139770885,-51.324119379667565 l -15.338648855477642,57.24461684810318 l 51.32411937966804,-29.63199413977006 l -57.244616848102936,-15.338648855478565 l 29.63199413977215,51.32411937966684 l 15.338648855479493,-57.24461684810268 l -51.324119379667316,29.63199413977131 l -31.19157277870895,54.02538882070112 l 60.257491419056144,-16.145946163660057 l -54.025388820700606,-31.191572778709823 l 16.145946163659083,60.25749141905641 l 31.191572778707624,-54.02538882070187 l -60.25749141905667,16.14594616365811 l 54.02538882070137,31.1915727787085 l -16.14594616366056,-60.25749141905601 l -31.191572778706306,54.025388820702645 l -2.0860117250182566e-12,65.50230283528413 l 46.31712251816476,-46.31712251816369 l -65.50230283528413,5.781313608283792e-13 l 46.31712251816294,46.317122518165505 l 4.811003897385329e-13,-65.50230283528413 l -46.31712251816626,46.31712251816219 l 65.50230283528413,1.5403321403054448e-12 l -46.317122518164076,-46.31712251816437 l -2.5995638908723573e-12,65.50230283528413 l 34.31073005657606,59.42792770277341 l 17.760540780031356,-66.28324056096035 l -59.427927702773964,34.3107300565751 l 66.28324056096106,17.76054078002866 l -34.310730056574144,-59.42792770277452 l -17.760540780029732,66.28324056096078 l 59.42792770277507,-34.31073005657318 l -66.2832405609605,-17.7605407800308 l 34.31073005657559,59.42792770277367 l 62.12919714380728,35.870308695513565 l -18.567838088211005,-69.29611513191405 l -35.87030869551103,62.12919714380874 l 69.29611513191435,-18.567838088209875 l -62.129197143808156,-35.87030869551204 l 18.567838088212696,69.2961151319136 l 35.870308695513046,-62.12919714380757 l -69.2961151319139,18.567838088211577 l 62.129197143809044,35.87030869551051 l 74.85977466889614,2.929950129782632e-13 l -52.93385430647127,-52.93385430647553 l -1.503545585054734e-12,74.85977466889614 l 52.933854306473386,-52.93385430647341 l -74.85977466889614,-2.714096157131205e-12 l 52.933854306472554,52.933854306474245 l -3.306387981220931e-13,-74.85977466889614 l -52.9338543064751,52.9338543064717 l 74.85977466889614,8.799117739543778e-13 l 67.53173602588,-38.989465973379936 l -75.32186427381913,-20.182432704578982 l 38.989465973378834,67.53173602588063 l 20.182432704580197,-75.3218642738188 l -67.53173602587904,38.98946597338159 l 75.32186427381849,20.18243270458142 l -38.9894659733805,-67.53173602587968 l -20.182432704578353,75.3218642738193 l 67.53173602588029,-38.98946597337941 l 40.54904461231771,-70.23300546691372 l -78.3347388447718,20.989730012762447 l 70.23300546691306,40.54904461231885 l -20.989730012761182,-78.33473884477215 l -40.54904461231998,70.2330054669124 l 78.33473884477249,-20.98973001275991 l -70.23300546691405,-40.549044612317125 l 20.9897300127631,78.33473884477165 l 40.549044612314276,-70.23300546691569 l 2.764419922423609e-12,-84.21724650250816 l -59.55058609478332,59.55058609478183 l 84.21724650250816,-6.60906902236351e-13 l -59.55058609478425,-59.5505860947809 l -5.488158709595669e-12,84.21724650250816 l 59.55058609478524,-59.55058609477991 l -84.21724650250816,-2.0628318849357085e-12 l 59.550586094782325,59.55058609478282 l -1.3624949397242521e-12,-84.21724650250816 l -43.66820189018335,-75.63554434898687 l -22.6043246291309,84.36048798667677 l 75.63554434898508,-43.66820189018642 l -84.3604879866777,-22.60432462912747 l 43.668201890189486,75.6355443489833 l 22.60432462913362,-84.36048798667605 l -75.6355443489865,43.66820189018397 l 84.36048798667696,22.604324629130197 l -43.66820189018705,-75.63554434898472 l -78.33681379001784,-45.22778052912586 l 23.411621937309434,87.37336255763077 l 45.22778052912268,-78.33681379001968 l -87.37336255762983,23.41162193731299 l 78.33681379001638,45.2277805291284 l -23.411621937306606,-87.37336255763154 l -45.227780529125205,78.3368137900182 l 87.37336255763059,-23.411621937310162 l -78.33681379002005,-45.22778052912203 l -93.57471833612018,-5.776911616940747e-12 l 66.16731788308901,66.16731788309448 l 1.9709929228741248e-12,-93.57471833612018 l -66.1673178830918,66.16731788309171 l 93.57471833612018,-1.834925771192498e-12 l -66.16731788308688,-66.16731788309663 l -4.997369353065302e-12,93.57471833612018 l 66.16731788309394,-66.16731788308955 l -93.57471833612018,-1.1914506589986795e-12 " /></g></svg>