<?xml version="1.0" encoding="UTF-8"?>
<!DOCTYPE svg PUBLIC "-//W3C//DTD SVG 1.1//EN"
    "http://www.w3.org/Graphics/SVG/1.1/DTD/svg11.dtd">
<svg xmlns="http://www.w3.org/2000/svg" xmlns:xlink="http://www.w3.org/1999/xlink" version="1.1" width="400.0" height="400.0" viewBox="0 0 400 400"><g fill="rgb(0,0,0)" fill-opacity="0" fill-rule="nonzero" font-family="Sans" font-size="1" font-style="normal" opacity="1" stroke="rgb(0,0,0)" stroke-opacity="1" stroke-width="0.5" stroke-linecap="butt" stroke-linejoin="miter" text-anchor="middle"><path d="M 200.00000000000009,200.00000000000006 h 112.3698161363446 l 34.72418284091868,106.87004587135883 l -90.90909090909096,66.04932072776015 l -90.90909090909098,-66.04932072776012 l 34.72418284091866,-106.87004587135884 l 34.72418284091871,106.87004587135881 l -90.90909090909096,66.04932072776016 l -90.909090909091,-66.04932072776009 l 34.72418284091863,-106.87004587135885 l 112.3698161363446,-5.504533426086041e-14 l -90.90909090909093,66.04932072776019 l -90.90909090909102,-66.04932072776006 l 34.7241828409186,-106.87004587135885 l 112.3698161363446,-8.25680013912906e-14 l 34.72418284091876,106.87004587135881 l -90.90909090909103,-66.04932072776005 l 34.72418284091857,-106.87004587135887 l 112.3698161363446,-1.1009066852172082e-13 l 34.724182840918786,106.8700458713588 l -90.90909090909113,66.0493207277599 l 34.724182840918544,-106.87004587135887 l 112.3698161363446,-1.3761333565215103e-13 l 34.724182840918814,106.8700458713588 l -90.90909090909089,66.04932072776025 l -90.90909090909108,-66.04932072776 l 101.13283452271014,-1.4862240250432308e-13 l 31.251764556826956,96.1830412842229 l -81.81818181818178,59.444388654984245 l -81.81818181818197,-59.44438865498398 l 31.25176455682665,-96.18304128422301 l 31.25176455682698,96.1830412842229 l -81.81818181818177,59.44438865498427 l -81.818181818182,-59.44438865498395 l 31.251764556826625,-96.18304128422302 l 101.13283452271014,-1.9816320333909747e-13 l -81.81818181818176,59.44438865498429 l -81.81818181818201,-59.44438865498394 l 31.251764556827286,-96.1830412842228 l 101.13283452271014,-2.2293360375648464e-13 l 31.251764556827712,96.18304128422265 l -81.81818181818203,-59.444388654983925 l 31.25176455682726,-96.1830412842228 l 101.13283452271014,-2.4770400417387187e-13 l 31.25176455682773,96.18304128422265 l -81.81818181818173,59.44438865498432 l 31.251764556826558,-96.18304128422304 l 101.13283452271014,-9.910664137606587e-13 l 31.251764556827077,96.18304128422285 l -81.81818181818214,59.444388654983754 l -81.81818181818205,-59.4443886549839 l 89.89585290907569,-2.6421760445212995e-13 l 27.7793462727358,85.49603669708678 l -72.72727272727262,52.83945658220833 l -72.72727272727333,-52.83945658220736 l 27.77934627273467,-85.49603669708715 l 27.779346272735214,85.49603669708698 l -72.72727272727299,52.83945658220782 l -72.72727272727296,-52.839456582207866 l 27.77934627273526,-85.49603669708696 l 89.89585290907569,-3.082538718608183e-13 l -72.72727272727259,52.83945658220836 l -72.72727272727334,-52.839456582207326 l 27.779346272734628,-85.49603669708716 l 89.89585290907569,-9.690204581601843e-13 l 27.77934627273526,85.49603669708696 l -72.72727272727299,-52.83945658220782 l 27.779346272735218,-85.49603669708698 l 89.89585290907569,-3.5229013926950663e-13 l 27.779346272735893,85.49603669708675 l -72.72727272727182,52.839456582209415 l 27.77934627273459,-85.49603669708718 l 89.89585290907569,2.644401796211712e-13 l 27.779346272735303,85.49603669708695 l -72.72727272727218,52.83945658220893 l -72.72727272727225,-52.839456582208825 l 78.65887129544122,-3.467856058434206e-13 l 24.306927988643938,74.8090321099509 l -63.63636363636281,46.234524509433285 l -63.63636363636356,-46.23452450943225 l 24.306927988642727,-74.8090321099513 l 24.306927988643427,74.80903210995106 l -63.636363636363136,46.234524509432845 l -63.63636363636325,-46.23452450943268 l 24.306927988643242,-74.80903210995112 l 78.65887129544122,-3.853173398260229e-13 l -63.636363636362795,46.234524509433314 l -63.63636363636294,-46.23452450943313 l 24.30692798864269,-74.80903210995132 l 78.65887129544122,1.543216892033202e-13 l 24.306927988644528,74.8090321099507 l -63.636363636363924,-46.23452450943176 l 24.306927988643206,-74.80903210995113 l 78.65887129544122,-1.5416588658499133e-12 l 24.306927988644013,74.80903210995086 l -63.63636363636343,46.23452450943245 l 24.30692798864372,-74.80903210995096 l 78.65887129544122,-1.0020198368205704e-12 l 24.3069279886435,74.80903210995105 l -63.636363636362425,46.23452450943381 l -63.636363636363306,-46.23452450943263 l 67.42188968180676,-3.963264066781949e-13 l 20.834509704551127,64.12202752281533 l -54.54545454545379,39.62959243665718 l -54.545454545453985,-39.62959243665691 l 20.834509704550822,-64.12202752281543 l 20.83450970455251,64.12202752281488 l -54.54545454545406,39.62959243665681 l -54.54545454545483,-39.629592436655734 l 20.834509704551255,-64.12202752281527 l 67.42188968180676,5.287690716578217e-13 l -54.545454545454334,39.62959243665643 l -54.54545454545456,-39.62959243665612 l 20.8345097045517,-64.12202752281513 l 67.42188968180676,-9.249285469592358e-13 l 20.834509704551632,64.12202752281516 l -54.54545454545429,-39.62959243665649 l 20.834509704550317,-64.12202752281559 l 67.42188968180676,-4.623808077912274e-13 l 20.83450970455119,64.1220275228153 l -54.545454545453744,39.62959243665723 l 20.834509704550758,-64.12202752281544 l 67.42188968180676,1.6693137678093912e-16 l 20.834509704552573,64.12202752281486 l -54.54545454545402,39.62959243665686 l -54.545454545454874,-39.62959243665568 l 56.1849080681723,-1.2112755727002304e-12 l 17.36209142046011,53.435022935679164 l -45.45454545454524,33.0246603638804 l -45.4545454545455,-33.024660363880045 l 17.36209142045969,-53.4350229356793 l 17.36209142045975,53.435022935679285 l -45.45454545454453,33.02466036388138 l -45.454545454545276,-33.02466036388036 l 17.36209142045854,-53.435022935679676 l 56.1849080681723,-4.4036267408688326e-13 l -45.45454545454476,33.024660363881075 l -45.45454545454505,-33.02466036388067 l 17.362091420457386,-53.43502293568005 l 56.1849080681723,-5.4906224780209627e-14 l 17.362091420459013,53.43502293567951 l -45.454545454545766,-33.02466036387969 l 17.362091420457755,-53.43502293567993 l 56.1849080681723,3.3055022452646396e-13 l 17.362091420458647,53.43502293567963 l -45.45454545454522,33.02466036388044 l 17.362091420458125,-53.43502293567981 l 56.1849080681723,-8.808644576544173e-13 l 17.36209142045828,53.435022935679754 l -45.4545454545445,33.02466036388143 l -45.454545454545304,-33.024660363880315 l 44.94792645453784,-3.9632640667819495e-13 l 13.889673136367547,42.7480183485435 l -36.36363636363578,26.419728291104896 l -36.36363636363606,-26.4197282911045 l 13.889673136365872,-42.74801834854406 l 13.889673136367252,42.74801834854361 l -36.36363636363596,26.419728291104644 l -36.36363636363663,-26.41972829110372 l 13.889673136366163,-42.74801834854396 l 44.94792645453784,-1.057092992977561e-12 l -36.36363636363615,26.41972829110439 l -36.363636363636445,-26.419728291103965 l 13.889673136366456,-42.748018348543866 l 44.94792645453784,-7.487278335322221e-13 l 13.889673136366666,42.74801834854379 l -36.363636363636274,-26.419728291104217 l 13.889673136366751,-42.748018348543766 l 44.94792645453784,-4.4036267408688326e-13 l 13.88967313636759,42.748018348543496 l -36.363636363635756,26.419728291104924 l 13.889673136365827,-42.748018348544065 l 44.94792645453784,-1.4094944198315881e-12 l 13.889673136366078,42.74801834854398 l -36.36363636363594,26.419728291104683 l -36.363636363636665,-26.41972829110368 l 33.71094484090338,1.322757336028459e-13 l 10.417254852275251,32.061013761407764 l -27.27272727272652,19.814796218329096 l -27.272727272726797,-19.814796218328727 l 10.41725485227481,-32.06101376140791 l 10.417254852275944,32.06101376140754 l -27.272727272727224,19.814796218328134 l -27.272727272727224,-19.814796218328134 l 10.417254852274121,-32.061013761408134 l 33.71094484090338,-1.3214218850142115e-12 l -27.272727272726797,19.814796218328727 l -27.27272727272765,-19.814796218327547 l 10.417254852275253,-32.061013761407764 l 33.71094484090338,-1.320253365376745e-13 l 10.417254852275502,32.061013761407686 l -27.27272727272695,-19.81479621832851 l 10.41725485227456,-32.061013761407985 l 33.71094484090338,-8.588741458462033e-13 l 10.417254852276193,32.06101376140746 l -27.272727272727064,19.81479621832835 l 10.417254852273869,-32.06101376140821 l 33.71094484090338,3.305224026303339e-13 l 10.417254852275061,32.06101376140782 l -27.272727272726637,19.814796218328937 l -27.272727272727806,-19.81479621832733 l 22.47396322726892,-2.6421760445212995e-13 l 6.9448365681838355,21.37400917427173 l -18.181818181818223,13.209864145551983 l -18.181818181818073,-13.209864145552196 l 6.944836568182873,-21.374009174272047 l 6.9448365681830815,21.37400917427198 l -18.181818181817942,13.209864145552375 l -18.181818181818358,-13.209864145551808 l 6.944836568183626,-21.374009174271805 l 22.47396322726892,4.414755499320895e-14 l -18.181818181817658,13.209864145552768 l -18.18181818181789,-13.209864145552448 l 6.944836568183166,-21.37400917427195 l 22.47396322726892,-4.404183178791435e-13 l 6.944836568184003,21.37400917427168 l -18.181818181818176,-13.209864145552054 l 6.944836568182706,-21.374009174272103 l 22.47396322726892,3.525127144385478e-13 l 6.9448365681832485,21.374009174271922 l -18.181818181817835,13.209864145552519 l 6.944836568183458,-21.374009174271855 l 22.47396322726892,-1.3205315843380466e-13 l 6.94483656818371,21.374009174271777 l -18.181818181817555,13.20986414555291 l -18.18181818181799,-13.209864145552302 l 11.23698161363446,-3.083095156530786e-13 l 3.472418284092085,10.687004587135812 l -9.09090909090901,6.604932072776134 l -9.09090909090914,-6.604932072775956 l 3.4724182840912685,-10.687004587136078 l 3.472418284091708,10.687004587135936 l -9.090909090908868,6.60493207277633 l -9.090909090909282,-6.604932072775761 l 3.472418284091646,-10.687004587135956 l 11.23698161363446,-1.5412693593040916e-13 l -9.0909090909091,6.60493207277601 l -9.090909090909047,-6.60493207277608 l 3.472418284091416,-10.68700458713603 l 11.23698161363446,-3.964098723665854e-13 l 3.4724182840915625,10.687004587135982 l -9.09090909090919,-6.604932072775885 l 3.4724182840917925,-10.687004587135908 l 11.23698161363446,5.564379226031303e-17 l 3.4724182840917925,10.687004587135908 l -9.090909090908816,6.604932072776401 l 3.4724182840915625,-10.687004587135982 l 11.23698161363446,-2.4222729264391596e-13 l 3.4724182840920226,10.687004587135831 l -9.090909090909047,6.60493207277608 l -9.0909090909091,-6.60493207277601 " /></g></svg>