<?xml version="1.0" encoding="UTF-8"?>
<!DOCTYPE svg PUBLIC "-//W3C//DTD SVG 1.1//EN"
    "http://www.w3.org/Graphics/SVG/1.1/DTD/svg11.dtd">
<svg xmlns="http://www.w3.org/2000/svg" xmlns:xlink="http://www.w3.org/1999/xlink" version="1.1" width="400.0" height="400.0" viewBox="0 0 400 400"><g fill="rgb(0,0,0)" fill-opacity="0" fill-rule="nonzero" font-family="Sans" font-size="1" font-style="normal" opacity="1" stroke="rgb(0,0,0)" stroke-opacity="1" stroke-width="0.5" stroke-linecap="butt" stroke-linejoin="miter" text-anchor="middle"><path d="M 191.07133593444976,220.20202020201788 h 0.0 h 0.0 h 0.0 h 0.0 h 0.0 h 0.0 l 2.6159913954809455,-1.5103433363786716 l -3.0041390351043122,-0.31574773591640415 l 2.2448076702481408,2.0212339049622434 l -0.6280360735636459,-2.9546774215261746 l -1.2286239570611326,2.759534588859007 l 2.6159913954809495,-1.5103433363786651 l 3.0206866727573316,-5.231982790961898 l -5.5190691777180225,2.457247914122244 l 5.909354843052349,1.2560721471272933 l -4.042467809924469,-4.489615340496297 l 0.6314954718327962,6.008278070208626 l 3.0206866727573534,-5.231982790961885 l -2.225173798690518e-15,-9.062060018272017 l -5.326545234129551,7.331360558827808 l 8.618531231435378,-2.8003305496918 l -8.618531231435378,-2.8003305496918 l 5.326545234129497,7.331360558827847 l 2.213955319332694e-15,-9.062060018272017 l -6.041373345514707,-10.46396558192377 l -1.2629909436656777,12.016556140417244 l 8.084935619849,-8.979230680992535 l -11.818709686104706,2.5121442942545444 l 11.038138355436045,4.914495828244488 l -6.041373345514626,-10.46396558192382 l -13.07995697740472,-7.551716681893373 l 6.143119785305614,13.797672944295055 l 3.140180367818282,-14.77338710763086 l -11.22403835124074,10.106169524811175 l 15.020695175521563,-1.578738679581994 l -13.079956977404715,-7.551716681893382 l -18.124120036544035,8.900695194762072e-15 l 14.66272111765562,10.653090468259096 l -5.600661099383605,-17.237062462870757 l -5.600661099383841,17.237062462870682 l 14.662721117655614,-10.653090468259105 l -18.124120036544035,2.2436958715647668e-17 l -18.311939768366596,10.57240335465074 l 21.028973245730157,2.2102341514150803 l -15.713653691736841,-14.14863733473586 l 4.396252514945311,20.682741950683265 l 8.60036769942785,-19.316742122013082 l -18.311939768366752,10.572403354650472 l -12.082746691029243,20.927931163847642 l 22.076276710872154,-9.828991656488828 l -23.63741937220934,-5.024288588509413 l 16.169871239698015,17.958461361985062 l -2.525981887331026,-24.03311228083452 l -12.082746691029252,20.92793116384764 l -1.73142863321942e-13,27.18618005481605 l 15.979635702389107,-21.994081676483095 l -25.855593694306197,8.400991649075229 l 25.855593694306084,8.400991649075571 l -15.979635702388817,-21.994081676483304 l 1.9987860434430171e-13,27.18618005481605 l 15.103433363786593,26.15991395480953 l 3.1574773591637526,-30.04139035104315 l -20.212339049622493,22.448076702481348 l 29.54677421526167,-6.280360735636796 l -27.595345888590035,-12.2862395706114 l 15.103433363786207,26.15991395480975 l 28.77590535029039,16.613776700165406 l -13.514863527671931,-30.354880477449306 l -6.908396809201128,32.5014516367877 l 24.69288437272993,-22.233572954584247 l -33.045529386147436,3.4732250950804033 l 28.77590535029062,16.613776700165012 l 36.24824007308807,-3.560278077904829e-14 l -29.32544223531095,-21.306180936518594 l 11.201322198767226,34.474124925741506 l 11.201322198767665,-34.47412492574137 l -29.325442235311215,21.306180936518224 l 36.24824007308807,4.972722090534623e-13 l 34.0078881412528,-19.63446337292185 l -39.05380745635601,-4.104720566913701 l 29.18249971322595,26.276040764509023 l -8.164468956328118,-38.41080647984011 l -15.972111441794558,35.87394965516716 l 34.007888141252536,-19.63446337292232 l 21.144806709301157,-36.62387953673338 l -38.63348424402626,17.20073539885547 l 41.365483901366225,8.792505029892041 l -28.29727466947109,-31.42730738347425 l 4.420468302828717,42.05794649146046 l 21.144806709301697,-36.62387953673307 l 9.102177925835203e-13,-45.310300091360084 l -26.632726170647974,36.65680279413888 l 43.09265615717718,-14.001652748458124 l -43.09265615717721,-14.001652748458039 l 26.63272617064805,36.656802794138834 l 2.885153464731142e-13,-45.310300091360084 l -24.16549338205916,-41.855862327694894 l -5.051963774662664,48.066224561668975 l 32.339742479396484,-35.91692272396971 l -47.2748387444191,10.048577177016881 l 44.15255342174378,19.657983312978846 l -24.165493382058546,-41.85586232769524 l -44.471853723175705,-25.675836718438052 l 20.88660727003913,46.91208801060317 l 10.676613250581394,-50.229516165945086 l -38.16173039421848,34.36097638435803 l 51.07036359677339,-5.367711510578105 l -44.471853723175336,-25.67583671843871 l -54.3723601096321,-6.92571453287768e-13 l 43.98816335296598,31.959271404778494 l -16.80198329814866,-51.71118738861297 l -16.801983298150738,51.7111873886123 l 43.98816335296727,-31.95927140477673 l -54.3723601096321,5.347148204471937e-14 l -49.70383651413747,28.696523391195626 l 57.07864166698195,5.9992069824114935 l -42.651345734714326,-38.40344419428301 l 11.932685397709553,56.138871008997256 l 23.343855184163488,-52.43115718832025 l -49.70383651413708,28.6965233911963 l -30.206866727573797,52.3198279096187 l 55.190691777180014,-24.572479141222914 l -59.093548430523725,-12.560721471271796 l 40.4246780992438,44.89615340496377 l -6.314954718327623,-60.08278070208629 l -30.20686672757606,52.3198279096174 l -2.144609804815992e-12,63.43442012790412 l 37.28581663890787,-51.31952391179392 l -60.32971862004777,19.60231384784226 l 60.32971862004783,19.602313847842087 l -37.28581663890802,-51.31952391179381 l -1.2742263802614239e-12,63.43442012790412 l 33.22755340033056,57.55181070058094 l 6.94645019016019,-66.09105877229494 l -44.46714590917084,49.38576874545775 l 65.00290327357605,-13.816793618399165 l -60.709760954896566,-27.02972705534848 l 33.22755340033135,57.551810700580475 l 60.167802096060775,34.73789673671114 l -28.258351012405008,-63.46929554375762 l -14.444829691963998,67.95758069510198 l 51.63057641570666,-46.488379814132216 l -69.09519780739939,7.26219792607531 l 60.16780209606125,34.737896736710304 l 72.49648014617614,-1.4241112311619315e-13 l -58.65088447062073,-42.6123618730388 l 22.402644397532562,68.94824985148365 l 22.402644397535262,-68.94824985148276 l -58.6508844706224,42.6123618730365 l 72.49648014617614,-1.1371350368928429e-12 l 65.39978488702458,-37.75858340946516 l -75.10347587760772,-7.893693397910892 l 56.1201917562038,50.53084762405577 l -15.700901839088406,-73.86693553815493 l -30.71559892652989,68.98836472147447 l 65.39978488702405,-37.75858340946606 l 39.2689267458488,-68.01577628250264 l -71.74789931033355,31.944222883590843 l 76.82161295968015,16.32893791265657 l -52.5520815290178,-58.36499942645212 l 8.20944113382706,78.10761491271205 l 39.26892674584787,-68.0157762825032 l 1.558285769897478e-12,-81.55854016444815 l -47.93890710716629,65.98224502945004 l 77.56678108291963,-25.202974947222497 l -77.566781082919,-25.2029749472244 l 47.938907107164674,65.9822450294512 l 4.392213668987469e-13,-81.55854016444815 l -42.289613418603594,-73.24775907346601 l -8.84093660566197,84.11589298292046 l 56.594549338943786,-62.85461476694706 l -82.7309678027329,17.585010059781975 l 77.26696848805068,34.40147079771511 l -42.28961341860461,-73.24775907346545 l -75.86375046894685,-43.79995675498249 l 35.63009475477271,80.02650307691125 l 18.213046133344648,-85.68564522425929 l -65.09942243719783,58.61578324390309 l 87.12003201802517,-9.156684341574499 l -75.86375046894494,-43.799956754985764 l -90.62060018272017,-3.640871170334081e-12 l 73.3136055882767,53.26545234129742 l -28.00330549691697,-86.18531231435414 l -28.003305496917807,86.18531231435387 l 73.31360558828024,-53.26545234129254 l -90.62060018272017,-2.3974662781132693e-12 l -81.09573325991245,46.820643427733394 l 93.12831008823372,9.788179813408135 l -69.58903777769363,-62.65825105382814 l 19.46911828047097,91.59500006731184 l 38.0873426688958,-85.54557225462891 l -81.09573325991182,46.8206434277345 " /></g></svg>