<?xml version="1.0" encoding="UTF-8"?>
<!DOCTYPE svg PUBLIC "-//W3C//DTD SVG 1.1//EN"
    "http://www.w3.org/Graphics/SVG/1.1/DTD/svg11.dtd">
<svg xmlns="http://www.w3.org/2000/svg" xmlns:xlink="http://www.w3.org/1999/xlink" version="1.1" width="400.0" height="400.0" viewBox="0 0 400 400"><g fill="rgb(0,0,0)" fill-opacity="0" fill-rule="nonzero" font-family="Sans" font-size="1" font-style="normal" opacity="1" stroke="rgb(0,0,0)" stroke-opacity="1" stroke-width="0.5" stroke-linecap="butt" stroke-linejoin="miter" text-anchor="middle"><path d="M 143.81509193182785,200.00000000000006 h 112.36981613634455 l 34.724182840918665,106.87004587135878 l -90.90909090909092,66.04932072776012 l -90.90909090909093,-66.04932072776009 l 34.724182840918644,-106.8700458713588 l 112.36981613634455,-2.7522667130430194e-14 l -90.90909090909098,-66.04932072776006 l 34.724182840918616,-106.87004587135881 l 112.36981613634455,-5.504533426086039e-14 l 34.72418284091853,106.87004587135883 l -90.90909090909089,66.04932072776018 l -90.90909090909099,-66.04932072776005 l 34.72418284091874,106.87004587135877 l -90.90909090909088,66.04932072776018 l -90.909090909091,-66.04932072776002 l 34.72418284091856,-106.87004587135883 l 112.36981613634455,-1.1009066852172078e-13 l 34.72418284091877,106.87004587135876 l 34.72418284091854,-106.87004587135883 l 112.36981613634455,-1.3761333565215098e-13 l 34.7241828409188,106.87004587135876 l -90.90909090909086,66.04932072776022 l -90.90909090909103,-66.04932072775998 l 34.724182840918516,-106.87004587135883 l -90.90909090909085,66.04932072776025 l -90.90909090909105,-66.04932072775995 l 34.72418284091849,-106.87004587135884 l 112.36981613634455,-1.9265866991301134e-13 l 34.72418284091885,106.87004587135871 l -90.9090909090908,66.04932072776027 l 106.75132532952733,-2.0917227019126945e-13 l 32.98797369887365,101.52654357779055 l -86.36363636363627,62.74685469137228 l -86.36363636363653,-62.746854691371915 l 32.987973698873226,-101.5265435777907 l 106.75132532952733,-2.353188039651782e-13 l -86.36363636363654,-62.746854691371894 l 32.98797369887321,-101.5265435777907 l 106.75132532952733,-2.614653377390869e-13 l 32.9879736988737,101.52654357779053 l -86.36363636363623,62.74685469137231 l -86.36363636363701,-62.746854691371254 l 32.98797369887301,101.52654357779076 l -86.36363636363667,62.74685469137172 l -86.36363636363657,-62.746854691371865 l 32.98797369887316,-101.52654357779072 l 106.75132532952733,-3.1375840528690414e-13 l 32.98797369887375,101.5265435777905 l 32.987973698872416,-101.52654357779095 l 106.75132532952733,4.1860884839577535e-13 l 32.987973698873056,101.52654357779075 l -86.36363636363664,62.746854691371766 l -86.36363636363662,-62.746854691371816 l 32.987973698873105,-101.52654357779073 l -86.36363636363618,62.746854691372405 l -86.36363636363706,-62.746854691371176 l 32.98797369887236,-101.52654357779097 l 106.75132532952733,-1.1507117940652185e-12 l 32.987973698873105,101.52654357779073 l -86.36363636363662,62.746854691371816 l 101.1328345227101,-3.963264066781948e-13 l 31.251764556827865,96.18304128422257 l -81.81818181818078,59.44438865498558 l -81.81818181818167,-59.44438865498434 l 31.2517645568264,-96.18304128422305 l 101.1328345227101,2.9749520207381743e-13 l -81.81818181818127,-59.4443886549849 l 31.251764556827066,-96.18304128422282 l 101.1328345227101,-4.4586720751296914e-13 l 31.25176455682791,96.18304128422255 l -81.81818181818073,59.444388654985616 l -81.81818181818169,-59.4443886549843 l 31.251764556827247,96.18304128422275 l -81.81818181818115,59.44438865498506 l -81.81818181818129,-59.44438865498486 l 31.251764556827013,-96.18304128422284 l 101.1328345227101,-4.954080083477435e-13 l 31.251764556827954,96.18304128422254 l 31.251764556826306,-96.18304128422308 l 101.1328345227101,1.984136004042688e-13 l 31.25176455682866,96.1830412842223 l -81.81818181818112,59.444388654985104 l -81.81818181818217,-59.44438865498367 l 31.25176455682697,-96.18304128422285 l -81.81818181818151,59.44438865498454 l -81.81818181818176,-59.44438865498422 l 31.25176455682763,-96.18304128422263 l 101.1328345227101,-1.2883112187693043e-12 l 31.251764556827343,96.18304128422274 l -81.81818181818024,59.444388654986305 l 95.51434371589288,-5.61462409460776e-13 l 29.515555414780753,90.83953899065502 l -77.27272727272617,56.14192261859765 l -77.27272727272644,-56.14192261859726 l 29.515555414780312,-90.83953899065516 l 95.51434371589288,9.381355436056898e-14 l -77.27272727272765,-56.1419226185956 l 29.515555414780938,-90.83953899065494 l 95.51434371589288,7.490895181819138e-13 l 29.51555541478209,90.83953899065457 l -77.27272727272694,56.14192261859659 l -77.27272727272727,-56.14192261859614 l 29.515555414781463,90.83953899065477 l -77.27272727272573,56.14192261859825 l -77.27272727272688,-56.141922618596666 l 29.5155554147796,-90.83953899065537 l 95.51434371589288,-6.550394777042386e-13 l 29.515555414780845,90.83953899065497 l 29.515555414780227,-90.83953899065519 l 95.51434371589288,2.364861171063303e-16 l 29.515555414782803,90.83953899065433 l -77.2727272727265,56.14192261859719 l -77.2727272727277,-56.14192261859552 l 29.515555414780845,-90.83953899065497 l -77.27272727272688,56.141922618596666 l -77.27272727272732,-56.141922618596055 l 29.515555414781463,-90.83953899065477 l 95.51434371589288,-1.403892509769046e-12 l 29.51555541478156,90.83953899065473 l -77.27272727272566,56.14192261859833 l 89.89585290907564,-7.04580278539013e-13 l 27.779346272734998,85.496036697087 l -72.72727272727157,52.8394565822097 l -72.72727272727205,-52.83945658220905 l 27.77934627273181,-85.49603669708804 l 89.89585290907564,-8.784995964833536e-14 l -72.72727272727319,-52.83945658220748 l 27.779346272732397,-85.49603669708785 l 89.89585290907564,5.288803592423422e-13 l 27.77934627273382,85.49603669708739 l -72.72727272727232,52.8394565822087 l -72.72727272727282,-52.83945658220799 l 27.77934627273324,85.49603669708758 l -72.72727272727117,52.83945658221026 l -72.72727272727245,-52.839456582208484 l 27.779346272733573,-85.49603669708749 l 89.89585290907564,-7.926528133563896e-13 l 27.779346272735083,85.49603669708698 l 27.77934627273173,-85.49603669708807 l 89.89585290907564,-1.75922494465712e-13 l 27.779346272734493,85.49603669708718 l -72.7272727272719,52.83945658220927 l -72.72727272727323,-52.83945658220742 l 27.779346272732315,-85.49603669708789 l -72.72727272727226,52.83945658220876 l -72.72727272727286,-52.839456582207916 l 27.7793462727329,-85.49603669708769 l 89.89585290907564,-1.4974556670644437e-12 l 27.77934627273332,85.49603669708755 l -72.72727272727111,52.83945658221033 l 84.27736210225842,-8.256800139129059e-13 l 26.04313713068922,80.15253440351901 l -68.18181818181701,49.536990545821716 l -68.18181818181763,-49.53699054582085 l 26.043137130685913,-80.1525344035201 l 84.27736210225842,-2.642802037184227e-12 l -68.18181818181871,-49.53699054581938 l 26.043137130688745,-80.15253440351918 l 84.27736210225842,3.3068933400711465e-13 l 26.043137130688113,80.15253440351938 l -68.18181818181628,49.536990545822725 l -68.18181818181696,-49.536990545821794 l 26.043137130689846,80.15253440351881 l -68.18181818181803,49.53699054582032 l -68.18181818181803,-49.53699054582032 l 26.043137130685288,-80.15253440352029 l 84.27736210225842,-3.3035547125355275e-12 l 26.043137130687015,80.15253440351974 l 26.04313713068812,-80.15253440351938 l 84.27736210225842,-3.300633413441861e-13 l 26.043137130688745,80.15253440351918 l -68.1818181818159,49.536990545823265 l -68.18181818181735,-49.53699054582126 l 26.04313713068639,-80.15253440351995 l -68.18181818181763,49.53699054582085 l -68.18181818181843,-49.53699054581978 l 26.04313713068466,-80.1525344035205 l 84.27736210225842,8.263060065758343e-13 l 26.043137130687644,80.15253440351952 l -68.18181818181657,49.53699054582232 l 78.65887129544119,-9.247616155824543e-13 l 24.306927988643416,74.80903210995103 l -63.63636363636377,46.23452450943192 l -63.63636363636322,-46.23452450943267 l 24.306927988640044,-74.80903210995213 l 78.65887129544119,-2.620742170635688e-12 l -63.63636363636422,-46.23452450943131 l 24.30692798864268,-74.80903210995129 l 78.65887129544119,1.5451644247623127e-13 l 24.30692798864239,74.80903210995136 l -63.63636363636178,46.23452450943467 l -63.63636363636259,-46.234524509433555 l 24.306927988644002,74.80903210995083 l -63.6363636363634,46.234524509432426 l -63.63636363636359,-46.23452450943217 l 24.30692798863946,-74.80903210995233 l 78.65887129544119,1.2337945005349168e-12 l 24.306927988641363,74.8090321099517 l 24.306927988642098,-74.80903210995146 l 78.65887129544119,-4.621860545183161e-13 l 24.306927988642975,74.80903210995119 l -63.63636363636141,46.23452450943517 l -63.63636363636295,-46.234524509433044 l 24.306927988640485,-74.80903210995199 l -63.63636363636304,46.23452450943292 l -63.63636363636395,-46.234524509431665 l 24.30692798863887,-74.80903210995251 l 78.65887129544119,6.170920035403696e-13 l 24.30692798864195,74.8090321099515 l -63.63636363636205,46.234524509434294 l 73.04038048862397,-1.001825083547659e-12 l 22.57071884659759,69.46552981638307 l -59.090909090909136,42.93205847304404 l -59.09090909090879,-42.932058473044506 l 22.570718846594193,-69.46552981638416 l 73.04038048862397,-2.576664170382804e-12 l -59.09090909090972,-42.932058473043234 l 22.57071884659664,-69.46552981638337 l 73.04038048862397,3.6168464969203456e-16 l 22.57071884659664,69.46552981638337 l -59.09090909090728,42.93205847304659 l -59.090909090908205,-42.932058473045316 l 22.570718846598137,69.46552981638288 l -59.09090909090879,42.932058473044506 l -59.090909090909136,-42.93205847304404 l 22.570718846593646,-69.46552981638435 l 73.04038048862397,-3.149316489020598e-12 l 22.57071884659569,69.46552981638368 l 22.570718846596094,-69.46552981638355 l 73.04038048862397,-5.72290633988102e-13 l 22.570718846597185,69.4655298163832 l -59.09090909090694,42.93205847304706 l -59.09090909090854,-42.932058473044854 l 22.5707188465946,-69.46552981638403 l -59.090909090908454,42.93205847304497 l -59.09090909090947,-42.93205847304358 l 22.5707188465931,-69.46552981638453 l 73.04038048862397,4.298961342092491e-13 l 22.570718846596233,69.46552981638351 l -59.09090909090754,42.93205847304625 l 67.42188968180673,-1.0568704178085196e-12 l 20.83450970455175,64.12202752281509 l -54.545454545454504,39.62959243665614 l -54.5454545454566,-39.62959243665327 l 20.834509704548353,-64.1220275228162 l 67.42188968180673,-2.510568036425576e-12 l -54.54545454545745,-39.629592436652075 l 20.83450970455062,-64.12202752281546 l 67.42188968180673,-1.3177493947250305e-13 l 20.834509704550868,64.12202752281539 l -54.54545454545505,39.62959243665541 l -54.54545454545605,-39.62959243665401 l 20.834509704552254,64.12202752281493 l -54.545454545456444,39.629592436653475 l -54.54545454545691,-39.62959243665283 l 20.834509704547855,-64.12202752281635 l 67.42188968180673,7.933205388635132e-13 l 20.83450970454999,64.12202752281567 l 20.83450970455012,-64.12202752281563 l 67.42188968180673,-6.603770797535437e-13 l 20.834509704551376,64.12202752281522 l -54.54545454545474,39.62959243665582 l -54.54545454545636,-39.62959243665359 l 20.834509704548733,-64.12202752281607 l -54.54545454545613,39.62959243665391 l -54.54545454545722,-39.6295924366524 l 20.83450970454735,-64.12202752281652 l 67.42188968180673,2.6471839858247263e-13 l 20.83450970455049,64.1220275228155 l -54.54545454545528,39.62959243665508 l 61.803398874989504,-1.0898976183650357e-12 l 19.098300562505887,58.77852522924713 l -49.999999999999886,36.327126400268234 l -50.000000000001954,-36.327126400265385 l 19.098300562502544,-58.77852522924822 l 61.803398874989504,-2.4224537687640047e-12 l -50.00000000000274,-36.32712640026431 l 19.09830056250462,-58.77852522924755 l 61.803398874989504,-2.41893429890354e-13 l 19.09830056250508,58.77852522924739 l -50.00000000000039,36.32712640026754 l -50.00000000000146,-36.32712640026608 l 19.098300562506346,58.77852522924698 l -50.00000000000167,36.32712640026578 l -50.000000000002245,-36.327126400265 l 19.098300562502086,-58.778525229248366 l 61.803398874989504,-2.9070057306882918e-12 l 19.098300562504274,58.778525229247656 l 19.098300562504157,-58.7785252292477 l 61.803398874989504,-7.264453918146413e-13 l 19.098300562505543,58.77852522924724 l -50.00000000000011,36.32712640026794 l -50.00000000000174,-36.32712640026568 l 19.098300562502892,-58.7785252292481 l -50.00000000000138,36.327126400266174 l -50.00000000000252,-36.32712640026461 l 19.098300562501628,-58.77852522924852 l 61.803398874989504,1.2155879666004043e-13 l 19.098300562504736,58.778525229247506 l -50.0000000000006,36.32712640026725 l 56.18490806817228,-1.1009066852172078e-12 l 17.36209142046,53.43502293567917 l -45.45454545454529,33.0246603638803 l -45.454545454547294,-33.02466036387754 l 17.362091420456757,-53.43502293568024 l 56.18490806817228,-2.3123213673980886e-12 l -45.454545454548004,-33.024660363876556 l 17.36209142045864,-53.43502293567961 l 56.18490806817228,-3.5237360495789693e-12 l 17.36209142045927,53.43502293567941 l -45.45454545454762,33.024660363877096 l -45.45454545454872,-33.02466036387558 l 17.36209142046042,53.43502293567904 l -45.45454545454691,33.02466036387808 l -45.45454545454568,-33.02466036387977 l 17.362091420456334,-53.435022935680365 l 56.18490806817228,4.4091911200948623e-13 l 17.36209142046157,53.435022935678674 l 17.362091420455187,-53.43502293568074 l 56.18490806817228,-7.704955701713945e-13 l 17.36209142045665,53.435022935680266 l -45.45454545454549,33.02466036388003 l -45.4545454545471,-33.02466036387781 l 17.362091420460104,-53.43502293567914 l -45.45454545454478,33.02466036388102 l -45.45454545454782,-33.024660363876826 l 17.362091420458956,-53.43502293567952 l 56.18490806817228,-3.1933249345331564e-12 l 17.362091420458956,53.43502293567952 l -45.45454545454782,33.024660363876826 l 50.56641726135505,-3.964265655042633e-12 l 15.625882278414096,48.09152064211123 l -40.90909090909239,29.722194327490026 l -40.90909090909432,-29.722194327487383 l 15.625882278410986,-48.09152064211224 l 50.56641726135505,6.941972043497693e-13 l -40.90909090909158,-29.72219432749115 l 15.62588227840995,-48.09152064211258 l 50.56641726135505,-3.960760096130233e-13 l 15.625882278416167,48.09152064211056 l -40.909090909091105,29.722194327491792 l -40.90909090909222,-29.722194327490264 l 15.62588227841174,48.091520642111995 l -40.909090909090466,29.72219432749267 l -40.90909090909285,-29.722194327489387 l 15.625882278413341,-48.091520642111476 l 50.56641726135505,-2.5766224375386087e-12 l 15.625882278412776,48.09152064211166 l 15.625882278412305,-48.09152064211181 l 50.56641726135505,-3.6668956515014014e-12 l 15.625882278413812,48.09152064211131 l -40.90909090909256,29.722194327489785 l -40.90909090909413,-29.722194327487625 l 15.625882278411266,-48.091520642112144 l -40.90909090909193,29.722194327490666 l -40.9090909090914,-29.72219432749139 l 15.62588227841023,-48.091520642112485 l 50.56641726135505,-9.870600607179158e-14 l 15.625882278415885,48.091520642110645 l -40.90909090909128,29.72219432749155 l 44.94792645453782,-1.0568704178085192e-12 l 13.88967313636574,42.74801834854408 l -36.36363636363613,26.41972829110438 l -36.363636363637944,-26.419728291101887 l 13.889673136367666,-42.74801834854345 l 44.94792645453782,-2.026002163553224e-12 l -36.36363636363851,-26.419728291101105 l 13.889673136366746,-42.74801834854375 l 44.94792645453782,-2.995133909297929e-12 l 13.889673136367584,42.74801834854348 l -36.363636363638,26.419728291101816 l -36.363636363639074,-26.419728291100324 l 13.889673136368504,42.748018348543184 l -36.363636363637426,26.419728291102608 l -36.36363636363665,-26.41972829110367 l 13.889673136364902,-42.74801834854435 l 44.94792645453782,1.7659021997283571e-13 l 13.889673136369424,42.74801834854288 l 13.889673136363976,-42.74801834854465 l 44.94792645453782,-7.925415257718689e-13 l 13.889673136365488,42.74801834854416 l -36.36363636363628,26.41972829110417 l -36.36363636363778,-26.4197282911021 l 13.889673136367918,-42.74801834854337 l -36.36363636363571,26.419728291104953 l -36.36363636363835,-26.41972829110132 l 13.889673136366998,-42.74801834854367 l 44.94792645453782,-2.7308050172612784e-12 l 13.88967313636733,42.74801834854356 l -36.36363636363815,26.419728291101602 l 39.329435647720594,1.2337945005349168e-12 l 12.153463994322221,37.40451605497535 l -31.81818181818288,23.117262254714593 l -31.818181818184556,-23.11726225471228 l 12.15346399431951,-37.404516054976234 l 39.329435647720594,3.858042230083004e-13 l -31.81818181818243,-23.11726225471521 l 12.153463994318702,-37.4045160549765 l 39.329435647720594,-4.621860545183161e-13 l 12.153463994323834,37.40451605497483 l -31.818181818181884,23.11726225471596 l -31.818181818182925,-23.117262254714525 l 12.153463994320386,37.40451605497594 l -31.818181818181383,23.11726225471665 l -31.818181818183426,-23.117262254713843 l 12.153463994321342,-37.40451605497564 l 39.329435647720594,-2.1581666095715495e-12 l 12.153463994321195,37.40451605497568 l 12.153463994320536,-37.4045160549759 l 39.329435647720594,-3.0061568870981655e-12 l 12.153463994322001,37.40451605497542 l -31.818181818183017,23.117262254714404 l -31.818181818184424,-23.117262254712468 l 12.15346399431973,-37.40451605497616 l -31.818181818182513,23.117262254715087 l -31.818181818182296,-23.1172622547154 l 12.15346399431892,-37.404516054976426 l 39.329435647720594,-2.3089827398624696e-13 l 12.153463994323614,37.4045160549749 l -31.818181818182023,23.117262254715776 l 33.710944840903366,-9.247616155824543e-13 l 10.417254852274429,32.06101376140802 l -27.272727272727018,19.814796218328393 l -27.272727272728535,-19.81479621832631 l 10.417254852275626,-32.06101376140763 l 33.710944840903366,-1.651610424890983e-12 l -27.27272727272896,-19.814796218325725 l 10.417254852274933,-32.06101376140785 l 33.710944840903366,-2.3784592341995113e-12 l 10.41725485227581,32.061013761407565 l -27.272727272728414,19.81479621832647 l -27.272727272729384,-19.81479621832513 l 10.417254852276503,32.061013761407345 l -27.272727272727987,19.814796218327057 l -27.27272727272756,-19.814796218327647 l 10.41725485227355,-32.061013761408304 l 33.710944840903366,3.338627535618781e-16 l 10.417254852277194,32.06101376140712 l 10.417254852272858,-32.061013761408525 l 33.710944840903366,-7.265149465549667e-13 l 10.41725485227424,32.06101376140808 l -27.272727272727135,19.814796218328233 l -27.272727272728414,-19.81479621832647 l 10.41725485227581,-32.061013761407565 l -27.272727272726705,19.814796218328823 l -27.272727272728844,-19.814796218325885 l 10.417254852275121,-32.06101376140779 l 33.710944840903366,-2.1802125651720235e-12 l 10.417254852275624,32.06101376140763 l -27.272727272728535,19.81479621832631 l 28.09245403408614,-2.4225511454004596e-12 l 8.681045710230263,26.717511467839504 l -22.727272727273423,16.51233018193908 l -22.727272727274748,-16.512330181937255 l 8.681045710228114,-26.717511467840204 l 28.09245403408614,1.654837764842081e-13 l -22.727272727273228,-16.51233018193935 l 8.68104571022754,-26.71751146784039 l 28.09245403408614,-4.4022356460623227e-13 l 8.681045710231414,26.717511467839127 l -22.727272727272712,16.51233018194006 l -22.727272727273586,-16.512330181938857 l 8.681045710228954,26.71751146783993 l -22.727272727272357,16.51233018194055 l -22.72727272727394,-16.51233018193837 l 8.681045710229425,-26.717511467839774 l 28.09245403408614,-1.651638246787113e-12 l 8.68104571022953,26.717511467839742 l 8.68104571022885,-26.717511467839962 l 28.09245403408614,-2.2573455878775536e-12 l 8.681045710230107,26.717511467839554 l -22.72727272727352,16.512330181938946 l -22.727272727274652,-16.512330181937386 l 8.681045710228272,-26.717511467840147 l -22.727272727273164,16.512330181939436 l -22.72727272727313,-16.512330181939483 l 8.681045710227698,-26.717511467840335 l 28.09245403408614,-2.7501800708332573e-13 l 8.681045710231258,26.71751146783918 l -22.72727272727281,16.512330181939927 l 22.47396322726891,-7.04580278539013e-13 l 6.944836568185468,21.374009174271198 l -18.18181818181796,13.209864145552334 l -18.18181818181907,-13.209864145550805 l 6.944836568183665,-21.37400917427178 l 22.47396322726891,-1.1891461514113652e-12 l -18.18181818181936,-13.209864145550409 l 6.944836568185635,-21.37400917427114 l 22.47396322726891,-1.6737120242837174e-12 l 6.944836568186389,21.374009174270892 l -18.18181818181889,13.20986414555105 l -18.181818181819644,-13.209864145550018 l 6.944836568186849,21.374009174270746 l -18.18181818181861,13.209864145551443 l -18.181818181818425,-13.209864145551695 l 6.944836568184713,-21.37400917427144 l 22.47396322726891,-8.784995964833536e-14 l 6.944836568184881,21.374009174271386 l 6.944836568184252,-21.374009174271592 l 22.47396322726891,-5.724158325206877e-13 l 6.944836568185341,21.374009174271237 l -18.181818181818038,13.209864145552228 l -18.181818181819,-13.209864145550908 l 6.944836568183792,-21.37400917427174 l -18.181818181817754,13.20986414555262 l -18.18181818181928,-13.209864145550517 l 6.94483656818576,-21.374009174271098 l 22.47396322726891,-1.5415475782653924e-12 l 6.944836568186263,21.374009174270938 l -18.181818181818972,13.209864145550943 l 16.855472420451683,3.966602694317566e-13 l 5.208627426140042,16.03050688070309 l -13.636363636364013,9.907398109163502 l -13.636363636364889,-9.9073981091623 l 5.20862742613863,-16.03050688070355 l 16.855472420451683,3.32358647774924e-14 l -13.636363636363974,-9.907398109163557 l 5.208627426138284,-16.03050688070366 l 16.855472420451683,-3.3018853987677186e-13 l 5.208627426138912,16.030506880703456 l -13.636363636363585,9.907398109164092 l -13.636363636364187,-9.90739810916326 l 5.208627426139257,16.030506880703346 l -13.636363636363372,9.907398109164385 l -13.6363636363644,-9.907398109162967 l 5.208627426137593,-16.030506880703886 l 16.855472420451683,-1.0570373491853004e-12 l 5.2086274261396035,16.030506880703232 l 5.208627426139068,-16.030506880703406 l 16.855472420451683,-1.4204617538395646e-12 l 5.208627426139949,16.03050688070312 l -13.636363636364072,9.907398109163422 l -13.63636363636483,-9.907398109162381 l 5.208627426138723,-16.03050688070352 l -13.636363636363859,9.907398109163717 l -13.636363636363916,-9.907398109163639 l 5.208627426138377,-16.03050688070363 l 16.855472420451683,-2.310652053630279e-13 l 5.208627426138817,16.030506880703488 l -13.636363636363646,9.90739810916401 l 11.236981613634455,-3.963264066781948e-13 l 3.472418284092775,10.687004587135585 l -9.090909090908955,6.604932072776203 l -9.090909090909564,-6.604932072775365 l 3.472418284091791,-10.687004587135904 l 11.236981613634455,-6.386093431143709e-13 l -9.090909090909705,-6.60493207277517 l 3.4724182840927753,-10.687004587135583 l 11.236981613634455,-8.808922795505471e-13 l 3.472418284093236,10.687004587135435 l -9.09090909090942,6.604932072775562 l -9.090909090909847,-6.604932072774974 l 3.4724182840934663,10.687004587135359 l -9.09090909090928,6.604932072775758 l -9.090909090909241,-6.604932072775811 l 3.472418284092315,-10.687004587135734 l 11.236981613634455,-8.7961247232856e-14 l 3.4724182840924813,10.687004587135679 l 3.4724182840920843,-10.687004587135808 l 11.236981613634455,-3.3024418366903215e-13 l 3.4724182840927122,10.687004587135604 l -9.090909090908992,6.6049320727761485 l -9.090909090909523,-6.604932072775419 l 3.4724182840918534,-10.687004587135883 l -9.09090909090885,6.604932072776345 l -9.090909090909665,-6.604932072775224 l 3.472418284092839,-10.687004587135561 l 11.236981613634455,-8.148100565413844e-13 l 3.472418284093173,10.687004587135455 l -9.09090909090946,6.604932072775508 " /></g></svg>