<?xml version="1.0" encoding="UTF-8"?>
<!DOCTYPE svg PUBLIC "-//W3C//DTD SVG 1.1//EN"
    "http://www.w3.org/Graphics/SVG/1.1/DTD/svg11.dtd">
<svg xmlns="http://www.w3.org/2000/svg" xmlns:xlink="http://www.w3.org/1999/xlink" version="1.1" width="400.0" height="400.0" viewBox="0 0 400 400"><g fill="rgb(0,0,0)" fill-opacity="0" fill-rule="nonzero" font-family="Sans" font-size="1" font-style="normal" opacity="1" stroke="rgb(0,0,0)" stroke-opacity="1" stroke-width="0.5" stroke-linecap="butt" stroke-linejoin="miter" text-anchor="middle"><path d="M 191.9621297363399,195.38266950706404 h 9.109928577765645 l 6.441692273463209,-6.441692273463208 l 5.578222436610849e-16,-9.109928577765645 l -6.441692273463208,-6.441692273463209 l -9.109928577765645,-1.1156444873221697e-15 l -6.44169227346321,6.441692273463208 l -1.6734667309832545e-15,9.109928577765645 l 6.441692273463208,6.44169227346321 l 2.815122748071582,-8.664056936867457 l -4.135821027611394,-8.117005797679255 l -8.664056936867457,-2.815122748071583 l -8.117005797679255,4.135821027611394 l -2.815122748071583,8.664056936867457 l 4.135821027611393,8.117005797679255 l 8.664056936867457,2.8151227480715835 l 8.117005797679248,-4.135821027611407 l -7.370087036954398,-5.354681667448396 l -8.997770239913576,1.4251068036174663 l -5.35468166744841,7.37008703695439 l 1.425106803617466,8.997770239913576 l 7.370087036954398,5.354681667448396 l 8.997770239913573,-1.4251068036174817 l 5.35468166744841,-7.370087036954388 l -1.4251068036174648,-8.997770239913576 l -7.370087036954407,5.354681667448384 l -1.4251068036174803,8.997770239913574 l 5.354681667448397,7.370087036954398 l 8.997770239913573,1.4251068036174968 l 7.370087036954427,-5.354681667448357 l 1.4251068036175134,-8.997770239913569 l -5.354681667448371,-7.370087036954417 l -8.997770239913573,-1.425106803617498 l 2.8151227480715693,8.664056936867462 l 8.117005797679234,4.135821027611436 l 8.664056936867468,-2.8151227480715533 l 4.135821027611422,-8.11700579767924 l -2.8151227480715377,-8.664056936867471 l -8.117005797679248,-4.135821027611408 l -8.664056936867468,2.815122748071552 l -4.135821027611452,8.117005797679225 l 13.664892866648469,2.0081600771799053e-14 l 9.662538410194854,-9.662538410194772 l -3.3553917660520193e-15,-13.664892866648469 l -9.66253841019479,-9.662538410194836 l -13.664892866648469,2.679238430390309e-14 l -9.66253841019482,9.662538410194808 l -4.6865526771616643e-14,13.664892866648469 l 9.662538410194824,9.662538410194804 l 4.222684122107392,-12.996085405301178 l -6.203731541417138,-12.175508696518857 l -12.996085405301187,-4.22268412210737 l -12.175508696518891,6.203731541417073 l -4.2226841221073474,12.996085405301194 l 6.203731541417094,12.17550869651888 l 12.996085405301171,4.222684122107417 l 12.175508696518914,-6.203731541417028 l -11.055130555431587,-8.032022501172609 l -13.496655359870354,2.137660205426252 l -8.03202250117259,11.055130555431601 l 2.137660205426179,13.496655359870367 l 11.055130555431614,8.032022501172571 l 13.496655359870363,-2.137660205426202 l 8.032022501172552,-11.055130555431628 l -2.1376602054262253,-13.49665535987036 l -11.055130555431623,8.03202250117256 l -2.1376602054262883,13.49665535987035 l 8.0320225011725,11.055130555431665 l 13.496655359870354,2.137660205426265 l 11.055130555431653,-8.03202250117252 l 2.1376602054262417,-13.496655359870356 l -8.032022501172538,-11.055130555431639 l -13.496655359870346,-2.137660205426315 l 4.222684122107335,12.9960854053012 l 12.17550869651893,6.203731541416999 l 12.99608540530116,-4.222684122107449 l 6.2037315414170635,-12.175508696518895 l -4.222684122107379,-12.996085405301184 l -12.175508696518863,-6.20373154141713 l -12.996085405301207,4.222684122107308 l -6.203731541417023,12.175508696518916 l 18.21985715553129,5.3550935391464145e-14 l 12.88338454692649,-12.883384546926345 l 1.5176148349215713e-13,-18.21985715553129 l -12.883384546926456,-12.883384546926377 l -18.21985715553129,8.947711376138718e-15 l -12.883384546926443,12.883384546926388 l -8.926283672455425e-14,18.21985715553129 l 12.883384546926319,12.883384546926514 l 5.630245496143214,-17.3281138737349 l -8.271642055222712,-16.23401159535855 l -17.328113873734864,-5.630245496143309 l -16.23401159535859,8.271642055222625 l -5.630245496143402,17.328113873734836 l 8.271642055222767,16.23401159535852 l 17.32811387373489,5.630245496143249 l 16.234011595358563,-8.27164205522268 l -14.740174073908767,-10.709363334896835 l -17.995540479827163,2.8502136072348483 l -10.709363334896706,14.74017407390886 l 2.850213607235007,17.99554047982714 l 14.740174073908802,10.709363334896784 l 17.995540479827156,-2.85021360723491 l 10.709363334896864,-14.740174073908744 l -2.8502136072348123,-17.99554047982717 l -14.740174073908847,10.709363334896725 l -2.8502136072350774,17.995540479827127 l 10.709363334896647,14.740174073908902 l 17.995540479827113,2.8502136072351743 l 14.740174073908808,-10.709363334896777 l 2.85021360723476,-17.99554047982718 l -10.709363334896906,-14.740174073908717 l -17.995540479827163,-2.8502136072348567 l 5.630245496143087,17.32811387373494 l 16.23401159535856,8.271642055222689 l 17.32811387373489,-5.63024549614324 l 8.271642055222776,-16.234011595358517 l -5.630245496143147,-17.32811387373492 l -16.23401159535847,-8.271642055222863 l -17.32811387373495,5.630245496143054 l -8.27164205522272,16.234011595358545 l 22.774821444414115,1.0040800385899528e-13 l 16.104230683658134,-16.104230683657907 l 2.231711889848615e-13,-22.774821444414115 l -16.104230683658052,-16.104230683657995 l -22.774821444414115,-2.2284695399491697e-14 l -16.10423068365808,16.10423068365796 l -1.450478805253579e-13,22.774821444414115 l 16.104230683657875,16.10423068365817 l 7.03780687017905,-21.660142342168612 l -10.339552569028362,-20.2925144941982 l -21.660142342168573,-7.037806870179167 l -20.292514494198258,10.339552569028253 l -7.037806870179284,21.660142342168538 l 10.339552569028431,20.292514494198166 l 21.660142342168598,7.037806870179092 l 20.292514494198223,-10.339552569028323 l -18.42521759238575,-13.386704168621332 l -22.49442559978401,3.562767009043208 l -13.386704168621431,18.425217592385675 l 3.5627670090430863,22.494425599784034 l 18.425217592385987,13.386704168621005 l 22.494425599783952,-3.5627670090436045 l 13.386704168621108,-18.425217592385913 l -3.5627670090434824,-22.49442559978397 l -18.425217592386076,13.386704168620883 l -3.56276700904388,22.494425599783902 l 13.386704168621304,18.42521759238577 l 22.494425599783987,3.562767009043361 l 18.42521759238584,-13.386704168621206 l 3.5627670090434824,-22.49442559978397 l -13.386704168621108,-18.425217592385913 l -22.494425599783952,-3.5627670090436045 l 7.037806870179136,21.660142342168584 l 20.292514494198187,10.33955256902839 l 21.66014234216862,-7.037806870179018 l 10.3395525690285,-20.29251449419813 l -7.037806870178901,-21.660142342168662 l -20.292514494198077,-10.33955256902861 l -21.660142342168697,7.037806870178785 l -10.339552569028719,20.292514494198016 l 27.329785733296937,1.6065280617439242e-13 l 19.325076820389793,-19.325076820389462 l 3.079686283254319e-13,-27.329785733296937 l -19.32507682038936,-19.325076820389896 l -27.329785733296937,-4.552844504764714e-13 l -19.325076820390002,19.325076820389253 l 1.7415895627945563e-13,27.329785733296937 l 19.325076820389697,19.325076820389555 l 8.445368244215267,-25.992170810602204 l -12.407463082833651,-24.351017393038035 l -25.9921708106024,-8.44536824421467 l -24.35101739303775,12.407463082834212 l -8.44536824421481,25.99217081060235 l 12.407463082834079,24.351017393037818 l 25.992170810602307,8.445368244214949 l 24.351017393037882,-12.40746308283395 l -22.110261110863107,-16.064045002345317 l -26.993310719740762,4.275320410852193 l -16.064045002345434,22.110261110863014 l 4.275320410852047,26.993310719740784 l 22.11026111086293,16.064045002345555 l 26.993310719740805,-4.2753204108519025 l 16.064045002345676,-22.110261110862844 l -4.275320410851757,-26.99331071974083 l -22.110261110863085,16.06404500234534 l -4.275320410852312,26.99331071974074 l 16.064045002345217,22.110261110863174 l 26.99331071974072,4.275320410852458 l 22.11026111086326,-16.0640450023451 l 4.275320410852602,-26.993310719740695 l -16.064045002344983,-22.110261110863348 l -26.993310719740673,-4.275320410852748 l 8.445368244214556,25.992170810602435 l 24.35101739303763,12.40746308283445 l 25.99217081060248,-8.445368244214414 l 12.407463082834582,-24.351017393037562 l -8.445368244215015,-25.992170810602286 l -24.351017393037846,-12.40746308283402 l -25.99217081060233,8.445368244214873 l -12.40746308283415,24.351017393037782 l 31.88475002217976,6.87394892533386e-13 l 22.54592295712114,-22.545922957121324 l -4.6955748681862076e-14,-31.88475002217976 l -22.545922957121203,-22.545922957121256 l -31.88475002217976,-1.2491271049435063e-13 l -22.545922957121377,22.545922957121082 l -2.9678116967056336e-13,31.88475002217976 l 22.545922957120958,22.5459229571215 l 9.85292961825076,-30.324199279036026 l -14.475373596639622,-28.409520291877524 l -30.324199279035977,-9.852929618250922 l -28.4095202918776,14.475373596639468 l -9.852929618251085,30.324199279035923 l 14.475373596639315,28.409520291877676 l 30.324199279035867,9.852929618251249 l 28.409520291877346,-14.47537359663997 l -25.79530462933999,-18.74138583606994 l -31.49219583969763,4.987873812660398 l -18.74138583607008,25.795304629339892 l 4.987873812660228,31.492195839697658 l 25.795304629340325,18.741385836069487 l 31.492195839697548,-4.987873812660953 l 18.741385836069625,-25.795304629340226 l -4.987873812660784,-31.492195839697573 l -25.795304629340563,18.741385836069156 l -4.987873812661524,31.492195839697455 l 18.74138583606975,25.795304629340126 l 31.492195839697573,4.987873812660799 l 25.795304629340233,-18.741385836069608 l 4.987873812660969,-31.49219583969754 l -18.741385836069473,-25.795304629340336 l -31.492195839697516,-4.987873812661137 l 9.852929618249838,30.324199279036325 l 28.409520291877005,14.475373596640637 l 30.324199279036385,-9.852929618249675 l 14.475373596640791,-28.409520291876927 l -9.852929618249512,-30.324199279036435 l -28.409520291876845,-14.475373596640944 l -30.32419927903649,9.852929618249348 l -14.47537359664029,28.409520291877183 l 36.43971431106258,3.213056123487849e-13 l 25.76676909385313,-25.76676909385254 l 5.177267085501708e-13,-36.43971431106258 l -25.766769093852396,-25.766769093853274 l -36.43971431106258,-7.141478047515569e-13 l -25.766769093853412,25.766769093852258 l 1.2511007092301253e-13,36.43971431106258 l 25.76676909385285,25.766769093852815 l 11.26049099228614,-34.65622774746989 l -16.543284110445697,-32.46802319071696 l -34.65622774746983,-11.260490992286327 l -32.46802319071705,16.543284110445523 l -11.26049099228553,34.65622774747009 l 16.543284110446265,32.46802319071667 l 34.65622774747003,11.260490992285717 l 32.46802319071676,-16.543284110446095 l -29.48034814781741,-21.418726669793838 l -35.99108095965436,5.700427214469484 l -21.418726669793998,29.480348147817292 l 5.700427214469292,35.99108095965439 l 29.480348147817175,21.418726669794157 l 35.99108095965443,-5.700427214469097 l 21.41872666979432,-29.48034814781706 l -5.7004272144689025,-35.991080959654454 l -29.480348147817512,21.4187266697937 l -5.700427214469856,35.991080959654305 l 21.418726669793536,29.48034814781763 l 35.991080959654276,5.700427214470048 l 29.480348147817747,-21.41872666979338 l 5.700427214470243,-35.99108095965424 l -21.41872666979322,-29.480348147817864 l -35.99108095965421,-5.700427214470436 l 11.260490992284986,34.65622774747026 l 32.46802319071679,16.54328411044603 l 34.656227747470325,-11.260490992284799 l 16.543284110446205,-32.4680231907167 l -11.260490992284613,-34.65622774747038 l -32.46802319071661,-16.54328411044638 l -34.656227747470446,11.260490992284424 l -16.543284110446553,32.46802319071652 l 40.99467859994541,-1.6085580547244468e-13 l 28.98761523058523,-28.98761523058365 l 6.011792775411452e-14,-40.99467859994541 l -28.987615230583494,-28.98761523058538 l -40.99467859994541,-2.810916609806737e-13 l -28.987615230585536,28.98761523058334 l -5.020653942072328e-13,40.99467859994541 l 28.98761523058483,28.987615230584048 l 12.66805236632252,-38.98825621590343 l -18.611194624251873,-36.52652608955634 l -38.988256215903355,-12.668052366322728 l -36.52652608955645,18.611194624251674 l -12.668052366320726,38.98825621590401 l 18.61119462425148,36.52652608955654 l 38.98825621590394,12.668052366320934 l 36.52652608955664,-18.611194624251283 l -33.165391666294205,-24.096067503518594 l -40.48996607961108,6.412980616278687 l -24.096067503518768,33.16539166629407 l 6.412980616278468,40.489966079611115 l 33.16539166629395,24.09606750351895 l 40.48996607961115,-6.41298061627825 l 24.09606750351913,-33.165391666293814 l -6.412980616278032,-40.48996607961118 l -33.16539166629439,24.09606750351833 l -6.4129806162792224,40.489966079610994 l 24.09606750351815,33.165391666294525 l 40.48996607961096,6.41298061627944 l 33.16539166629465,-24.096067503517972 l 6.4129806162796585,-40.48996607961092 l -24.096067503517794,-33.16539166629479 l -40.48996607961089,-6.412980616279875 l 12.66805236632,38.988256215904244 l 36.52652608955609,18.611194624252356 l 38.9882562159036,-12.668052366322005 l 18.61119462425255,-36.526526089556 l -12.668052366321794,-38.98825621590366 l -36.52652608955589,-18.61119462425275 l -38.98825621590373,12.668052366321582 l -18.611194624252946,36.526526089555794 l 45.54964288882823,5.355093539146415e-13 l 32.20846136731559,-32.208461367316495 l 7.810357241663739e-13,-45.54964288882823 l -32.20846136731632,-32.20846136731576 l -45.54964288882823,-1.0265620944181065e-12 l -32.20846136731594,32.20846136731615 l -1.272088464669839e-12,45.54964288882823 l 32.20846136731597,32.20846136731612 l 14.075613740356571,-43.32028468433772 l -20.679105138057,-40.58502898839626 l -43.32028468433765,-14.075613740356806 l -40.585028988396374,20.679105138056784 l -14.07561374035704,43.320284684337565 l 20.679105138056563,40.58502898839648 l 43.32028468433749,14.075613740357273 l 40.585028988396594,-20.679105138056343 l -36.850435184770916,-26.773408337243456 l -44.988851199567975,7.125534018086722 l -26.773408337243655,36.850435184770774 l 7.125534018086481,44.98885119956802 l 36.85043518477215,26.773408337241765 l 44.98885119956805,-7.125534018086238 l 26.77340833724196,-36.850435184772 l -7.125534018085997,-44.98885119956809 l -36.850435184771975,26.77340833724201 l -7.1255340180887305,44.988851199567655 l 26.773408337241815,36.85043518477212 l 44.98885119956802,7.125534018086416 l 36.85043518477226,-26.773408337241616 l 7.125534018086657,-44.98885119956799 l -26.773408337241417,-36.8504351847724 l -44.98885119956795,-7.125534018086899 l 14.075613740357337,43.320284684337466 l 40.58502898839534,20.67910513805881 l 43.320284684337544,-14.075613740357102 l 20.679105138059025,-40.58502898839522 l -14.075613740356868,-43.32028468433762 l -40.58502898839511,-20.679105138059246 l -43.32028468433769,14.075613740356635 l -20.67910513805716,40.585028988396175 l 50.10460717771105,1.3747221186340881e-12 l 35.42930750404771,-35.42930750404759 l 1.644801125910994e-12,-50.10460717771105 l -35.4293075040474,-35.4293075040479 l -50.10460717771105,-1.9148801331878995e-12 l -35.42930750404809,35.4293075040472 l 6.631580321940718e-13,50.10460717771105 l 35.42930750404702,35.429307504048275 l 15.483175114392976,-47.65231315277125 l -22.747015651862,-44.643531887236236 l -47.652313152771164,-15.483175114393235 l -44.643531887236364,22.74701565186176 l -15.483175114393491,47.65231315277108 l 22.747015651864054,44.6435318872352 l 47.652313152771,15.483175114393747 l 44.64353188723532,-22.747015651863816 l -40.535478703249225,-29.450749170966134 l -49.4877363195249,7.838087419894618 l -29.450749170966354,40.53547870324907 l 7.838087419894353,49.487736319524934 l 40.5354787032489,29.450749170966574 l 49.487736319524984,-7.8380874198940855 l 29.450749170966795,-40.53547870324874 l -7.83808741989382,-49.48773631952503 l -40.53547870324962,29.450749170965576 l -7.838087419895566,49.48773631952475 l 29.450749170965363,40.53547870324979 l 49.4877363195247,7.8380874198958335 l 40.53547870324995,-29.450749170965143 l 7.838087419896099,-49.487736319524664 l -29.450749170964922,-40.53547870325011 l -49.48773631952462,-7.8380874198963655 l 15.483175114392326,47.65231315277146 l 44.643531887234516,22.74701565186539 l 47.65231315277155,-15.483175114392067 l 22.74701565186309,-44.64353188723568 l -15.48317511439181,-47.65231315277163 l -44.64353188723557,-22.747015651863336 l -47.65231315277172,15.483175114391553 l -22.747015651863578,44.64353188723543 l 54.659571466593874,2.3567824886858953e-12 l 38.65015364077992,-38.650153640778576 l -4.556227826398918e-13,-54.659571466593874 l -38.65015364077837,-38.650153640780125 l -54.659571466593874,1.6099113833781282e-13 l -38.65015364078034,38.650153640778164 l -1.3364050596426609e-13,54.659571466593874 l 38.65015364077795,38.65015364078055 l 16.890736488429518,-51.984341621204734 l -24.814926165669643,-48.70203478607488 l -51.98434162120464,-16.890736488429795 l -48.70203478607501,24.814926165669377 l -16.890736488430075,51.98434162120455 l 24.81492616566912,48.702034786075146 l 51.984341621204464,16.89073648843036 l 48.70203478607528,-24.81492616566885 l -44.22052222172593,-32.12809000469102 l -53.98662143948184,8.550640821702373 l -32.12809000469126,44.220522221725744 l 8.550640821702084,53.98662143948189 l 44.220522221725574,32.1280900046915 l 53.986621439481446,-8.550640821704862 l 32.12809000469174,-44.2205222217254 l -8.55064082170457,-53.986621439481496 l -44.22052222172737,32.128090004689035 l -8.5506408217051,53.98662143948141 l 32.1280900046913,44.22052222172572 l 53.98662143948136,8.550640821705391 l 44.22052222172771,-32.12809000468855 l 8.55064082170875,-53.986621439480835 l -32.12809000468831,-44.22052222172789 l -53.986621439480786,-8.550640821709042 l 16.89073648842717,51.984341621205495 l 48.70203478607504,24.81492616566933 l 51.98434162120559,-16.890736488426892 l 24.814926165669593,-48.702034786074904 l -16.89073648842661,-51.98434162120568 l -48.702034786074776,-24.814926165669853 l -51.98434162120577,16.890736488426334 l -24.814926165670116,48.702034786074634 l 59.214535755476696,1.15733805473208e-13 l 41.870999777512246,-41.870999777509475 l 4.3491808680046015e-13,-59.214535755476696 l -41.87099977750925,-41.870999777512466 l -59.214535755476696,-7.541023681277123e-13 l -41.870999777512694,41.87099977750902 l -1.0732866494549646e-12,59.214535755476696 l 41.87099977751117,41.870999777510534 l 18.298297862466196,-56.31637008963818 l -26.882836679474615,-52.76053768491487 l -56.31637008963808,-18.298297862466498 l -52.760537684915015,26.882836679474334 l -18.298297862463595,56.31637008963902 l 26.882836679474046,52.760537684915164 l 56.31637008963892,18.298297862463905 l 52.760537684915306,-26.882836679473762 l -47.905565740204516,-34.8054308384133 l -58.48550655943828,9.263194223513315 l -34.805430838413564,47.905565740204324 l 9.263194223516322,58.485506559437795 l 47.905565740204146,34.80543083841382 l 58.485506559437844,-9.26319422351601 l 34.805430838414075,-47.90556574020395 l -9.263194223515693,-58.4855065594379 l -47.90556574020519,34.80543083841236 l -9.2631942235181,58.485506559437525 l 34.80543083841211,47.90556574020538 l 58.48550655943799,9.263194223515091 l 47.90556574020557,-34.805430838411844 l 9.263194223515406,-58.48550655943795 l -34.80543083841159,-47.90556574020576 l -58.4855065594379,-9.263194223515722 l 18.298297862461887,56.31637008963958 l 52.760537684914205,26.882836679475936 l 56.31637008963863,-18.29829786246479 l 26.88283667947622,-52.760537684914055 l -18.298297862464487,-56.31637008963873 l -52.76053768491391,-26.8828366794765 l -56.31637008963883,18.298297862464178 l -26.88283667947679,52.76053768491376 l 63.76950004435952,1.1245696432207473e-12 l 45.09184591424209,-45.091845914242825 l 1.4683065615731725e-12,-63.76950004435952 l -45.09184591424258,-45.09184591424235 l -63.76950004435952,-1.812043479925598e-12 l -45.09184591424258,45.09184591424235 l -2.1557803982780234e-12,63.76950004435952 l 45.09184591424209,45.091845914242825 l 19.705859236499556,-60.64839855807269 l -28.950747193279465,-56.81904058375493 l -60.648398558072586,-19.70585923649988 l -56.81904058375509,28.95074719327916 l -19.70585923650021,60.648398558072486 l 28.950747193278854,56.819040583755246 l 60.64839855807238,19.70585923650054 l 56.8190405837554,-28.950747193278545 l -51.5906092586812,-37.482771672138206 l -62.984391679394655,9.975747625324624 l -37.48277167213849,51.59060925868099 l 9.975747625324283,62.98439167939472 l 51.59060925868079,37.48277167213877 l 62.98439167939477,-9.975747625323944 l 37.482771672139044,-51.590609258680594 l -9.975747625323605,-62.98439167939482 l -51.59060925868311,37.48277167213558 l -9.97574762532459,62.98439167939467 l 37.4827716721353,51.59060925868331 l 62.98439167939461,9.975747625324932 l 51.590609258683514,-37.48277167213502 l 9.97574762532527,-62.98439167939455 l -37.48277167213475,-51.59060925868371 l -62.9843916793945,-9.97574762532561 l 19.70585923649991,60.64839855807257 l 56.8190405837533,28.950747193282666 l 60.64839855807269,-19.705859236499588 l 28.95074719328297,-56.81904058375314 l -19.705859236499258,-60.64839855807279 l -56.81904058375299,-28.950747193283277 l -60.6483985580729,19.70585923649893 l -28.950747193280353,56.81904058375448 l 68.32446433324235,2.2762530863006466e-12 l 48.31269205097443,-48.312692050973695 l 2.644542641678245e-12,-68.32446433324235 l -48.31269205097344,-48.31269205097469 l -68.32446433324235,-3.012832197055844e-12 l -48.31269205097495,48.312692050973176 l 5.026743921013896e-13,68.32446433324235 l 48.31269205097292,48.312692050975215 l 21.11342061053626,-64.98042702650612 l -31.018657707084188,-60.87754348259506 l -64.980427026506,-21.113420610536608 l -60.877543482595215,31.01865770708386 l -21.113420610536963,64.9804270265059 l 31.01865770708699,60.87754348259362 l 64.98042702650578,21.11342061053731 l 60.877543482593794,-31.01865770708666 l -55.275652777157795,-40.16011250586324 l -67.48327679935159,10.688301027132468 l -40.16011250586354,55.27565277715758 l 10.688301027132102,67.48327679935166 l 55.27565277715964,40.16011250586069 l 67.4832767993517,-10.68830102713174 l 40.16011250586099,-55.27565277715943 l -10.688301027131375,-67.48327679935176 l -55.2756527771611,40.160112505858685 l -10.688301027138383,67.48327679935066 l 40.16011250586153,55.27565277715904 l 67.4832767993512,10.688301027134914 l 55.27565277716154,-40.16011250585809 l 10.688301027131441,-67.48327679935174 l -40.16011250586094,-55.27565277715947 l -67.48327679935109,-10.68830102713564 l 21.113420610534604,64.98042702650666 l 60.87754348259233,31.01865770708953 l 64.98042702650558,-21.113420610537947 l 31.018657707086398,-60.877543482593936 l -21.113420610533904,-64.98042702650689 l -60.877543482591996,-31.018657707090178 l -64.9804270265058,21.11342061053725 l -31.01865770708706,60.8775434825936 l 72.87942862212516,-5.719317527909144e-13 l 51.53353818770686,-51.53353818770447 l 3.963626327115679e-12,-72.87942862212516 l -51.53353818770712,-51.53353818770422 l -72.87942862212516,-2.1375263201462942e-13 l -51.53353818770742,51.53353818770392 l -4.749310711921222e-12,72.87942862212516 l 51.53353818770656,51.53353818770478 l 22.520981984569158,-69.31245549494079 l -33.086568220892474,-64.93604638143336 l -69.3124554949394,-22.52098198457347 l -64.93604638143542,33.08656822088844 l -22.520981984569904,69.31245549494055 l 33.08656822089178,64.93604638143373 l 69.31245549493916,22.520981984574217 l 64.93604638143579,-33.08656822088773 l -58.960696295634314,-42.83745333958837 l -71.98216191930788,11.400854428944262 l -42.83745333958534,58.96069629563652 l 11.40085442893978,71.9821619193086 l 58.960696295633845,42.83745333958902 l 71.982161919308,-11.400854428943484 l 42.83745333958597,-58.96069629563605 l -11.400854428939004,-71.98216191930872 l -58.96069629563918,42.83745333958168 l -11.400854428940555,71.98216191930848 l 42.8374533395847,58.96069629563698 l 71.98216191930777,11.400854428945038 l 58.960696295639636,-42.83745333958103 l 11.400854428941333,-71.98216191930835 l -42.83745333958407,-58.96069629563743 l -71.98216191930764,-11.400854428945811 l 22.520981984569158,69.31245549494079 l 64.93604638143131,33.08656822089651 l 69.31245549493964,-22.52098198457272 l 33.08656822089317,-64.93604638143302 l -22.52098198456841,-69.31245549494105 l -64.93604638143094,-33.08656822089721 l -69.31245549493988,22.520981984571975 l -33.086568220893874,64.93604638143265 " /></g></svg>