<?xml version="1.0" encoding="UTF-8"?>
<!DOCTYPE svg PUBLIC "-//W3C//DTD SVG 1.1//EN"
    "http://www.w3.org/Graphics/SVG/1.1/DTD/svg11.dtd">
<svg xmlns="http://www.w3.org/2000/svg" xmlns:xlink="http://www.w3.org/1999/xlink" version="1.1" width="400.0" height="400.0" viewBox="0 0 400 400"><g fill="rgb(0,0,0)" fill-opacity="0" fill-rule="nonzero" font-family="Sans" font-size="1" font-style="normal" opacity="1" stroke="rgb(0,0,0)" stroke-opacity="1" stroke-width="0.5" stroke-linecap="butt" stroke-linejoin="miter" text-anchor="middle"><path d="M 312.0905275776772,156.05695610458574 h 12.542166970137707 l -12.465189594634705,0.8716509686242179 l -0.3773612709087927,1.7753451972685577 l -7.79053439080151,9.620508767089298 l 7.571590189729134e-2,-0.17006070003063983 l 12.589168940517046,1.3231749741234673 l 9.94903654263254,-3.6211531611449606 l 5.509063239860775,1.3735637351312695 l 13.834002268464893,-11.20255415218636 l 13.57340153115391,-6.620190264433447 l -5.544963809416978,5.544963809416973 l 9.723365667031068,-1.1938791839248035 l 2.027527193004148,4.776554734410861 l -13.910658275827453,2.703958055964509 l 0.37370864596630254,-0.533711257839076 l 22.230315008722762,-6.796489356657425 l -1.4246168452989894,-0.9251569967342509 l -1.3234685753831008,-1.4698607628036462 l 8.440981593707237,7.871342677942356 l 1.6959934996804424,-2.3343347901967717 l -18.6623263995056,-7.540069300496142 l 11.686740033114765,12.101973573680208 l 0.5347601472436592,-0.448717042320459 l -14.02483402174675,-10.18963836501554 l 2.762854600997991,-17.443977421876905 l 5.345286703197622,-13.92494793815315 l -0.46586689767783934,2.0178912279190833 l 4.967966338627672,7.649997306263123 l -18.640440767248574,10.76206349478413 l 7.893641355026418,10.103400199899388 l 5.421876421859488,13.419615052592532 l -10.74387996076929,-0.37518455555716945 l -15.853772853355732,17.001089943777224 l -14.751737783491182,-7.843638112879508 l 3.1835160525425015,-0.7937396993996091 l 3.4802587869933017,10.711135173838718 l -7.260029860265148,-12.574740582446626 l -5.040870046558258,-18.81278312810712 l -2.3221183304918376,11.94626318268923 l 4.116725001615317,1.2586091401217767 l 5.345286703197396,13.924947938153235 l 7.046121268157948,7.556039975012245 l -13.703912397755778,-7.286499472549544 l -4.518102154571422,2.504424919667144 l 9.97617738577231,9.633882516924514 l 0.7406240577233162,-21.20869810437574 l -0.14003830251410532,0.18583710417985605 l 4.163615101375616,-13.618571356695057 l 0.8637447683202125,-2.034855155914916 l -2.047236217019523,0.6259029237361888 l -2.4722880243613994,-3.6653177278396236 l 11.935227878909247,8.671450635462978 l 7.7198210248586125,-21.210033948029768 l 2.9295534215572436,2.3723055851689105 l 4.3520236917798005,4.202700426846333 l -7.374449281178938,18.252402467030887 l -13.915838760325038,-5.622363813664623 l 2.271774679836945,-21.61449226184361 l -0.4515208071201094,-12.929864195211549 l 15.318042535407006,-3.25595045284081 l -4.382418598504451,3.4239206603472168 l -0.9007393373259174,0.11059688402154733 l 0.7562218329652182,-0.13334231255258502 l -8.088811391734197,21.072074102977506 l -1.5555524133776695,1.8538351771112864 l 8.419550364601248,16.524297997195593 l 1.3101238091911183,-14.974783662148912 l -3.3910610627816107,-6.655332066624609 l -1.617919530153058,2.6926702781280407 l 12.772077883844979,3.662334399744753 l -8.68092851292138,13.892389643364911 l -3.447258144430321,2.6932932391015223 l 1.8330028336139854,-1.6504431645953672 l -0.720321863157663,20.627319318619854 l 0.8124425247899691,5.6811515645932634e-2 l -9.280863319088692,-6.742941897923168 l -11.510075246560138,14.213759193481547 l -1.2926851187245552,-1.9905605235684602 l -20.494614737771375,6.2658325300116955 l -0.25950156988395195,-14.866834981766743 l 10.143520390513848,-14.48644842706069 l -12.749709971614136,3.655920504123271 l -3.811027184103953,-11.72913562424497 l 6.035438432530908,10.888219156287136 l 13.353031465231288,-2.1149124152561463 l 2.204251418207956,8.226378285408932 l 8.618831705521323,15.548783991407866 l -22.42412638847065,-1.1751986663828171 l 11.231568835324385,-10.846199947745355 l 7.806804246415184,-12.0214243384133 l -16.526406961874518,6.677101831421538 l 10.543580378528254,-13.020237429143494 l -3.0742227263255337,-2.4894564782636324 l -1.925331819753887,-6.297476624092609 l -0.1003081185623301,-5.746648263687615 l 1.5909081197404036,-1.4324601051205479 l -20.714096121308067,-6.730417819474245 l -1.1942075077085852,-2.9557673025806763 l 5.0577360814575085,4.396622898985503 l 14.928447488919678,-10.846151977795088 l -6.728518328940489,-0.9456315822600341 l -1.5556603131131508,-8.82258805126094 l -0.8829212778510795,-16.847141587193043 l 3.651815276836908,-7.487330890836843 l -3.518869388665833,3.9081003811013004 l -16.867451387228083,12.254920771884768 l -4.992577528084312,3.119708684331045 l 3.247099977466364,8.921333866800127 l -7.576072166013186,10.053787336130144 l 0.32836143659322325,-3.124150380459185 l -8.667791306276358,-3.3272533456719926 l 2.8512389240410343,-5.362400503469701 l -2.212115614994133,-0.3108925749896046 l -5.359553057222444,11.493598622051035 l 17.628121195314037,9.373038302020237 l -17.5592368662475,14.219189649376531 l -21.600033233434367,4.591228796055807 l -5.983954754591375,-4.509233340954176 l 1.2614504788186929,-14.418444950242451 l 0.9662642873473115,1.282276018841018 l 7.713336561182906,4.2755722727647845 l 1.6981257190894825,7.989053387708527 l 19.242092653882445,7.003548971006383 l 6.0930733422504755,15.080885726305747 l -4.901340587993526,6.504298646295082 l -1.1197896344387852,-2.197710900505324 l -7.053024810351423,20.48347137473945 l -9.01228986840125,2.7553335229688005 l 2.93271134422882,-1.1257624101898325 l -11.693619547435507,-4.724528972103706 l -5.939785912859186,3.7115901738484207 l 0.5975220034992627,0.19414666786947568 l -1.6153813523537373,1.9251365300771022 l 4.814975955939106,-3.008730905046405 l 0.642637883912635,1.3176029221305081 l 1.2008330938590508,3.6957842438659068 l -8.404489032215448,-15.162099572773947 l -19.402038040893377,-9.047318922283996 l 3.22767781845928,7.6039324247348805 l 1.8939379189989167,-5.500395105998728 l 4.237085975300772,3.1928732973215284 l -2.3182366669093053,-6.039212990337915 l -9.358197878744258e-2,-0.762164054660394 l -14.897311868015656,-14.386166845743025 l 3.6802348692512057,0.9175856099444489 l -10.934785470725652,3.765148582969326 l -10.026742460009743,13.305936659277839 l 18.880212458315164,5.058937681134576 l 3.5041709350286125,-8.673127413411711 l -4.278441527808484,-8.39691428966661 l 16.336288376740775,6.27091357379949 l -5.5013965250064025,0.38469512023045266 l -15.071771066544882,-15.071771066546807 l 0.2947002533755924,-2.096901260046518 l 0.2238699265778726,-0.1240931266501569 l -9.828353007524129,-7.678750937013641 l -5.946965065656817,17.271240632835934 l 1.7945814470259722,-11.330541329361267 l -18.9814401425834,-5.80320862985767 l -1.7756444685522956,2.841625154324519 l 7.469453798540944,12.937473483863982 l 7.812491434932587,5.676107277156533 l -20.286902134389496,-9.894583291989969 l -7.738933836397894,4.650020575550568 l 15.20241811627262,9.872565759671216 l 0.3102924811240524,3.5466592884037036 l -1.7386518754573195,2.782424630276177 l 0.30910411175246433,2.5174509684237254 l 7.469453798541577,12.937473483863617 l 8.539380125425224,-5.979338335460832 l 11.232238140804226,0.3922383989924667 l 0.8364199605569826,4.743573315872757 l 2.99897679159249,6.148813636608945 l -12.645577454320227,7.5982294971626 l 8.168691864878145,7.617428398008548 l -1.0557393692350723,-7.511975942584307 l -16.245581978387825,1.7074794702841165 l -12.519239639871826,17.879327137608566 l -1.027634423238632,1.1413036511181356 l -1.8807009619873856,1.5229616102318693 l -10.094041248329942,18.98413051803026 l 7.952063488760739,1.2594831250926901 l -11.23581407518518,-12.925325541502517 l -14.212909346617478,-5.173075944494006 l 10.677442838632137,-9.28175945341428 l -17.259955051565512,6.9734744975695735 l 9.859007517146889,9.520732890048482 l 2.999656986615215,-1.5949459115325695 l -12.982306603796314,0.22660700468742653 l 1.1789926275482228,-0.2721918952724691 l -3.490089129093785,11.415567166641592 l 8.928393289371,21.033976453774034 l -4.190875529765419,5.985190534337893 l -17.75754892588672,5.429027534146559 l 0.8082079986191384,-6.582325926612455 l 19.054698071032117,-0.9986144108111658 l -15.668472314238421,-13.14740933999039 l 19.02894375911816,10.547915765265165 l 14.99957267250257,0.5237966197716374 l -7.539261777967571,-13.058384451002315 l -0.9231094187760276,17.61397699736862 l 0.32239884968880445,9.23229511780391 l 0.4602196323796829,0.49352513350305477 l -0.4320307003385404,12.371740560885847 l 5.883869107324562,-14.563087074758307 l 4.603132471401835,-1.495648404327479 l -15.060224452882238,-10.941893546325657 l 5.963766023409673,-3.5833921445609516 l -12.022610403850061,14.8466874018424 l 0.49078941458850245,5.609748678390161 l -3.6609460530265423,10.058366614529286 l 7.090344503223704,-15.205292855961487 l 3.5268764934932486,16.592649343702387 l -7.79565376028305,-3.9720839863111346 l -13.554954811926349,-3.886820746489854 l 2.77281338753914,0.4889218126927738 l -11.221297069135224,-7.287195522222841 l -4.535039719396776,-8.181428225845815 l -1.4944758430609026,12.17152899412195 l -18.944167695497693,11.837629790347197 l -1.42358040458496,-11.594131983015664 l 3.7991147485820838,-6.322788727159643 l -8.984016094071267,9.97776070750231 l 2.285796381412279,1.722471120923429 l -1.2514765303697695,-17.89694818894489 l 5.347435571496798,-12.010536939663671 l -8.62818078227769,-8.045908745396368 l 13.602052093737955,-15.647371002007814 l 0.113804179312087,2.418982505825613e-2 l -17.479120604767203,1.2222591794659634 l -1.67779720074171,-0.38735000481078685 l 16.60723048400725,8.461806577221312 l -16.15301455970756,-1.6977502425331463 l -1.9144236463661186,-1.1052930075723393 l -3.2326033931200486,11.273427764374453 l 1.2493123813051716,-2.8060015505056177 l 8.335037939360536,-16.358433023572577 l 5.385216083237187,-0.9495588924197654 l -7.128782327109345,-20.7034871789801 l -0.5968845202045288,17.092536301223873 l -13.797455073408933,5.021862955346501 l -6.647200329392151,9.149086355126457 l 1.2185857758010632,11.594069189704133 l -18.943360745059827,-6.522722193031664 l -12.751801388811614,18.905323017277933 l 11.099468728675253,19.224843775086295 l 1.2532813437227863,-0.6663815109828031 l -5.528696180095021,-20.633375043730695 l -11.112630832863179,7.781147878513288 l 22.362305706832892,-3.5418412737436675 l -0.7657987789841427,-21.929607798713054 l 2.8090504255351014,-11.266485888075866 l 4.852008121063991,1.1201743382360436 l 1.5943745918804755,10.066484994442765 l -4.170967245125463,1.601084316714351 l 0.4815680550772413,-13.790304798130256 l 6.125270318312727,21.361356180511137 l 10.134802009885904,-2.3398034074373872 l -4.973351455486877,11.71648179247808 l -4.578113040877325,-7.61925960181429 l 2.341813581207767,-9.392501261401888 l -7.678824021492425,8.833476558934132 l -7.2356583401086985,-0.12629888612502838 l -20.876305752464315,3.681055961677446 l 3.6609460530249347,-10.058366614529872 l 16.02556472301266,8.520943910927677 l -11.771343743539726,-14.028541196025591 l -3.3104510101735176,0.9492565519477187 l 0.17462546956196082,-10.00428645095415 l 10.461950135249081,9.419982213021342 l 10.740924247506292,-6.201275505643495 l -16.336288376741148,-6.270913573798514 l 12.29582071238996,1.947466681864252 l 0.4113340842067085,-2.597061197196405 l -2.8237679395724284,-4.51897333569683 l 14.693287261552372,-15.215344368567493 l 4.069422638315855,-10.601208414693803 l -2.454853552068284,5.783272548389628 l -1.9253303466233356,1.504232926093913 l 12.262935052435198,9.613190787117501e-13 l -10.623901591906668,-8.914511907433946 l 10.273330576520253,1.627135713632093 l -4.837141073656485,15.821575546748818 l -14.405460851783804,-9.00153098641129 l 8.78551549218956,-0.7686330087975625 l -6.893663657089631,14.783509420288711 l -4.441240109874956,-3.10978980393418 l -5.836645015355923,20.354800130120463 l -2.195761155021332,4.931760300888607 l -2.59411408056724,-14.711952023141734 l 0.30864036480566204,17.68199465750038 l 5.4197918741532405,-14.890755792379688 l 3.370677668268198e-2,1.931059942858595 l 0.6703758846225262,-9.586821792521599 l 0.19381142530699064,-0.39737230984888083 l 17.963920038861428,1.1969483794583275e-12 l 6.272722387722591,18.217308591068416 l 14.134586833094888,-16.844944638174905 l -19.778440156221095,-4.931318983505582 l 2.370004195946425,-5.082490399842586 l -10.39217448386429,16.002545385550224 l 14.115038102543345,6.284419857474647 l 6.614207373934315,-4.631317862510892 l -18.473762154232436,0.9681688495044446 l 5.6765949977714865,-5.676594997770689 l -17.993503141257936,-7.2698471637140925 l 12.99159183817621,-2.9993453075190337 l -1.476410311201123,-14.047105784731245 l 3.5962017627805904,20.39507367694095 l 3.994371810969824,10.405694325078562 l 0.3094525762934865,-17.728526222388513 l -4.928337662386429,-12.838758551401789 l -6.227267877667851,18.08529910852402 l -9.904713798789073,1.0410273693478267 l 1.8209375615457033,-1.6980517470561256 l -10.266284277830955,1.8102229098041371 " /></g></svg>