<?xml version="1.0" encoding="UTF-8"?>
<!DOCTYPE svg PUBLIC "-//W3C//DTD SVG 1.1//EN"
    "http://www.w3.org/Graphics/SVG/1.1/DTD/svg11.dtd">
<svg xmlns="http://www.w3.org/2000/svg" xmlns:xlink="http://www.w3.org/1999/xlink" version="1.1" width="400.0" height="400.0" viewBox="0 0 400 400"><g fill="rgb(0,0,0)" fill-opacity="0" fill-rule="nonzero" font-family="Sans" font-size="1" font-style="normal" opacity="1" stroke="rgb(0,0,0)" stroke-opacity="1" stroke-width="0.5" stroke-linecap="butt" stroke-linejoin="miter" text-anchor="middle"><path d="M 200.0,18.181818181818187 h 0.0 M 200.0,18.181818181818187 l 19.005175139573357,0.9960190239503022 M 200.0,18.181818181818187 l 37.802125603228966,3.9731635029444283 M 200.0,18.181818181818187 l 56.18490806817226,8.898815219062987 M 200.0,18.181818181818187 l 73.95211692287278,15.71900770134529 M 200.0,18.181818181818187 l 90.9090909090909,24.35901749373842 M 200.0,18.181818181818187 l 106.87004587135873,34.724182840918644 M 200.0,18.181818181818187 l 121.66011024706513,46.700940822291955 M 200.0,18.181818181818187 l 135.11724099588983,60.15807157111668 M 200.0,18.181818181818187 l 147.09399897726317,74.94813594682304 M 200.0,18.181818181818187 l 157.45916432444338,90.90909090909088 M 200.0,18.181818181818187 l 166.09917411683654,107.86606489530902 M 200.0,18.181818181818187 l 172.91936659911883,125.63327375000955 M 200.0,18.181818181818187 l 177.84501831523735,144.01605621495284 M 200.0,18.181818181818187 l 180.82216279423153,162.81300667860847 M 200.0,18.181818181818187 l 181.81818181818178,181.81818181818176 M 200.0,18.181818181818187 l 180.82216279423156,200.82335695775515 M 200.0,18.181818181818187 l 177.84501831523738,219.6203074214107 M 200.0,18.181818181818187 l 172.91936659911883,238.003089886354 M 200.0,18.181818181818187 l 166.09917411683656,255.77029874105457 M 200.0,18.181818181818187 l 157.4591643244434,272.7272727272727 M 200.0,18.181818181818187 l 147.09399897726314,288.6882276895405 M 200.0,18.181818181818187 l 135.1172409958899,303.47829206524693 M 200.0,18.181818181818187 l 121.66011024706509,316.93542281407167 M 200.0,18.181818181818187 l 106.87004587135876,328.91218079544495 M 200.0,18.181818181818187 l 90.90909090909089,339.2773461426252 M 200.0,18.181818181818187 l 73.95211692287272,347.9173559350183 M 200.0,18.181818181818187 l 56.184908068172284,354.7375484173007 M 200.0,18.181818181818187 l 37.80212560322896,359.66320013341914 M 200.0,18.181818181818187 l 19.005175139573407,362.6403446124133 M 200.0,18.181818181818187 l 2.2266305439042785e-14,363.6363636363636 M 200.0,18.181818181818187 l -19.00517513957336,362.6403446124133 M 200.0,18.181818181818187 l -37.802125603228916,359.6632001334192 M 200.0,18.181818181818187 l -56.18490806817232,354.7375484173007 M 200.0,18.181818181818187 l -73.95211692287269,347.91735593501835 M 200.0,18.181818181818187 l -90.90909090909093,339.2773461426252 M 200.0,18.181818181818187 l -106.87004587135873,328.912180795445 M 200.0,18.181818181818187 l -121.66011024706513,316.93542281407167 M 200.0,18.181818181818187 l -135.11724099588983,303.47829206524693 M 200.0,18.181818181818187 l -147.09399897726317,288.68822768954055 M 200.0,18.181818181818187 l -157.45916432444332,272.7272727272728 M 200.0,18.181818181818187 l -166.09917411683654,255.77029874105457 M 200.0,18.181818181818187 l -172.91936659911877,238.0030898863541 M 200.0,18.181818181818187 l -177.84501831523738,219.62030742141093 M 200.0,18.181818181818187 l -180.82216279423145,200.82335695775527 M 200.0,18.181818181818187 l -181.8181818181818,181.81818181818184 M 200.0,18.181818181818187 l -180.8221627942316,162.81300667860845 M 200.0,18.181818181818187 l -177.84501831523735,144.0160562149528 M 200.0,18.181818181818187 l -172.91936659911883,125.63327375000961 M 200.0,18.181818181818187 l -166.09917411683656,107.86606489530914 M 200.0,18.181818181818187 l -157.45916432444338,90.90909090909088 M 200.0,18.181818181818187 l -147.0939989772632,74.94813594682309 M 200.0,18.181818181818187 l -135.11724099588992,60.158071571116686 M 200.0,18.181818181818187 l -121.66011024706509,46.700940822292 M 200.0,18.181818181818187 l -106.87004587135877,34.72418284091867 M 200.0,18.181818181818187 l -90.90909090909098,24.359017493738477 M 200.0,18.181818181818187 l -73.95211692287276,15.719007701345284 M 200.0,18.181818181818187 l -56.18490806817229,8.898815219063 M 200.0,18.181818181818187 l -37.80212560322906,3.973163502944449 M 200.0,18.181818181818187 l -19.005175139573346,0.99601902395031 M 200.0,18.181818181818187 l -4.453261087808557e-14,5.4536719369522094e-30 M 200.0,18.181818181818187 " /></g></svg>