<?xml version="1.0" encoding="UTF-8"?>
<!DOCTYPE svg PUBLIC "-//W3C//DTD SVG 1.1//EN"
    "http://www.w3.org/Graphics/SVG/1.1/DTD/svg11.dtd">
<svg xmlns="http://www.w3.org/2000/svg" xmlns:xlink="http://www.w3.org/1999/xlink" version="1.1" width="400.0" height="400.0" viewBox="0 0 400 400"><g fill="rgb(0,0,0)" fill-opacity="0" fill-rule="nonzero" font-family="Sans" font-size="1" font-style="normal" opacity="1" stroke="rgb(0,0,0)" stroke-opacity="1" stroke-width="0.5" stroke-linecap="butt" stroke-linejoin="miter" text-anchor="middle"><path d="M 199.99999999999997,209.06467102301468 h 0.0 M 199.99999999999997,209.06467102301468 l 22.74091050014297,0.39694406930678056 M 199.99999999999997,209.06467102301468 l 45.12217895193865,1.5757012101460408 M 199.99999999999997,209.06467102301468 l 66.79025414137197,3.5003288972992506 M 199.99999999999997,209.06467102301468 l 87.40365793319583,6.111859151469497 M 199.99999999999997,209.06467102301468 l 106.63875234001472,9.329681922299887 M 199.99999999999997,209.06467102301468 l 124.19518880162495,13.053440342671092 M 199.99999999999997,209.06467102301468 l 139.80094292299185,17.165397390611584 M 199.99999999999997,209.06467102301468 l 153.21684556315003,21.533223365912505 M 199.99999999999997,209.06467102301468 l 164.24053044821872,26.01314449364608 M 199.99999999999997,209.06467102301468 l 172.70972922471825,30.4533850931711 M 199.99999999999997,209.06467102301468 l 178.5048568720664,34.697829261376455 M 199.99999999999997,209.06467102301468 l 181.5508434295717,38.58982304768229 M 199.99999999999997,209.06467102301468 l 181.81818181818184,41.97603475010238 M 199.99999999999997,209.06467102301468 l 179.32317589085338,44.71028930836288 M 199.99999999999997,209.06467102301468 l 174.12738745822315,46.65729284957209 M 199.99999999999997,209.06467102301468 l 166.33629563429972,47.69616525734839 M 199.99999999999997,209.06467102301468 l 156.09719615691094,47.723702154838556 M 199.99999999999997,209.06467102301468 l 143.59638209229269,46.65729284957209 M 199.99999999999997,209.06467102301468 l 129.05566027614958,44.437427484408445 M 199.99999999999997,209.06467102301468 l 112.72826973427567,41.02973474360796 M 199.99999999999997,209.06467102301468 l 94.8942789443329,36.42650081734792 M 199.99999999999997,209.06467102301468 l 75.85554795115212,30.647630747361756 M 199.99999999999997,209.06467102301468 l 55.930348863727694,23.741024554469885 M 199.99999999999997,209.06467102301468 l 35.44774400707129,15.782352461421892 M 199.99999999999997,209.06467102301468 l 14.741824874375405,6.874225834101101 M 199.99999999999997,209.06467102301468 l -5.854083041616163,-2.8552270755669626 M 199.99999999999997,209.06467102301468 l -26.013144493646067,-13.254359140888537 M 199.99999999999997,209.06467102301468 l -45.42056475115615,-24.15054266958063 M 199.99999999999997,209.06467102301468 l -63.77886675569232,-35.353203134080346 M 199.99999999999997,209.06467102301468 l -80.81280175907898,-46.6572928495721 M 199.99999999999997,209.06467102301468 l -96.27380749942465,-57.84713957024447 M 199.99999999999997,209.06467102301468 l -109.9439369937626,-68.70059665565238 M 199.99999999999997,209.06467102301468 l -121.63919143911099,-78.99341455096429 M 199.99999999999997,209.06467102301468 l -131.21220231209097,-88.50374797315689 M 199.99999999999997,209.06467102301468 l -138.55422031521144,-97.01670951547996 M 199.99999999999997,209.06467102301468 l -143.59638209229269,-104.32887845775808 M 199.99999999999997,209.06467102301468 l -146.3102393702582,-110.25267344896734 M 199.99999999999997,209.06467102301468 l -146.70754911588375,-114.62049942426825 M 199.99999999999997,209.06467102301468 l -144.83933715755094,-117.28858260873308 M 199.99999999999997,209.06467102301468 l -140.7942612495216,-118.14041268635117 M 199.99999999999997,209.06467102301468 l -134.69631249317123,-117.08971808306386 M 199.99999999999997,209.06467102301468 l -126.70190613183266,-114.0829087013474 M 199.99999999999997,209.06467102301468 l -116.99642377635784,-109.10093019560871 M 199.99999999999997,209.06467102301468 l -105.7902788915717,-102.16048480930054 M 199.99999999999997,209.06467102301468 l -93.31458569914422,-93.3145856991442 M 199.99999999999997,209.06467102301468 l -79.81651837846438,-82.65242432212196 M 199.99999999999997,209.06467102301468 l -65.55445245381614,-70.2985436142732 M 199.99999999999997,209.06467102301468 l -50.79298345727465,-56.41132309316137 M 199.99999999999997,209.06467102301468 l -35.7979193013376,-41.18079540850595 M 199.99999999999997,209.06467102301468 l -20.831342268636337,-24.825826987206977 M 199.99999999999997,209.06467102301468 l -6.146834149779292,-7.590708013254996 M 199.99999999999997,209.06467102301468 l 8.015046108112035,10.258791197719699 M 199.99999999999997,209.06467102301468 l 21.43094874827023,28.439829558804412 M 199.99999999999997,209.06467102301468 l 33.89850749681454,46.65729284957205 M 199.99999999999997,209.06467102301468 l 45.239634616067235,64.60889400267797 M 199.99999999999997,209.06467102301468 l 55.30327963753299,81.9904838213518 M 199.99999999999997,209.06467102301468 l 63.96760583092508,98.50147503814293 M 199.99999999999997,209.06467102301468 l 71.14155041242701,113.85027957452154 M 199.99999999999997,209.06467102301468 l 76.76574701224605,127.75965769979162 M 199.99999999999997,209.06467102301468 l 80.81280175907898,139.9718785487163 M 199.99999999999997,209.06467102301468 l 83.28692724287097,150.25359413595572 M 199.99999999999997,209.06467102301468 l 84.22295133249175,158.4003335605933 M 199.99999999999997,209.06467102301468 l 83.68473010183206,164.2405304482187 M 199.99999999999997,209.06467102301468 l 81.76300571617413,167.63900471894178 M 199.99999999999997,209.06467102301468 l 78.57276082476879,168.499829352259 M 199.99999999999997,209.06467102301468 l 74.25013058840689,166.7685237687521 M 199.99999999999997,209.06467102301468 l 68.94894175826028,162.4335275622416 M 199.99999999999997,209.06467102301468 l 62.83695505661961,155.52692136934974 M 199.99999999999997,209.06467102301468 l 56.09189236299732,146.1243754128261 M 199.99999999999997,209.06467102301468 l 48.897333783882246,134.34432044275206 M 199.99999999999997,209.06467102301468 l 41.43857151835923,120.34635015896637 M 199.99999999999997,209.06467102301468 l 33.898507496814574,104.32887845775811 M 199.99999999999997,209.06467102301468 l 26.45368007326307,86.52608873617424 M 199.99999999999997,209.06467102301468 l 19.270501635736377,67.20422574452691 M 199.99999999999997,209.06467102301468 l 12.501783940065241,46.65729284957211 M 199.99999999999997,209.06467102301468 l 6.283621379182751,25.20222882118439 M 199.99999999999997,209.06467102301468 l 0.7326944119921249,3.1736481687667024 M 199.99999999999997,209.06467102301468 l -4.055953840464429,-19.081762560503737 M 199.99999999999997,209.06467102301468 l -8.010625077557611,-41.21109341318146 M 199.99999999999997,209.06467102301468 l -11.084125706560341,-62.86120060597294 M 199.99999999999997,209.06467102301468 l -13.254359140888562,-83.68473010183214 M 199.99999999999997,209.06467102301468 l -14.524342555378338,-103.3460672560755 M 199.99999999999997,209.06467102301468 l -14.921652301003908,-121.52710561716005 M 199.99999999999997,209.06467102301468 l -14.497314206146768,-137.93273096465896 M 199.99999999999997,209.06467102301468 l -13.324166640870553,-152.29592159585803 M 199.99999999999997,209.06467102301468 l -11.494735258637846,-164.38237264303925 M 199.99999999999997,209.06467102301468 l -9.118668533186012,-173.99456069180795 M 199.99999999999997,209.06467102301468 l -6.3197923706031185,-180.97517502002796 M 199.99999999999997,209.06467102301468 l -3.232850012964394,-185.20985320072933 M 199.99999999999997,209.06467102301468 l -1.1427740869021831e-14,-186.62917139828838 M 199.99999999999997,209.06467102301468 l 3.232850012964371,-185.20985320072933 M 199.99999999999997,209.06467102301468 l 6.319792370603054,-180.9751750200279 M 199.99999999999997,209.06467102301468 l 9.118668533185994,-173.99456069180803 M 199.99999999999997,209.06467102301468 l 11.494735258637869,-164.3823726430393 M 199.99999999999997,209.06467102301468 l 13.32416664087053,-152.29592159585798 M 199.99999999999997,209.06467102301468 l 14.497314206146763,-137.93273096465907 M 199.99999999999997,209.06467102301468 l 14.921652301003908,-121.52710561716016 M 199.99999999999997,209.06467102301468 l 14.524342555378318,-103.3460672560756 M 199.99999999999997,209.06467102301468 l 13.25435914088855,-83.68473010183197 M 199.99999999999997,209.06467102301468 l 11.084125706560364,-62.8612006059731 M 199.99999999999997,209.06467102301468 l 8.010625077557638,-41.21109341318162 M 199.99999999999997,209.06467102301468 l 4.05595384046446,-19.081762560503893 M 199.99999999999997,209.06467102301468 l -0.7326944119921626,3.1736481687668703 M 199.99999999999997,209.06467102301468 l -6.283621379182709,25.202228821184235 M 199.99999999999997,209.06467102301468 l -12.501783940065204,46.65729284957195 M 199.99999999999997,209.06467102301468 l -19.270501635736412,67.20422574452706 M 199.99999999999997,209.06467102301468 l -26.45368007326302,86.52608873617412 M 199.99999999999997,209.06467102301468 l -33.89850749681453,104.32887845775802 M 199.99999999999997,209.06467102301468 l -41.43857151835915,120.34635015896627 M 199.99999999999997,209.06467102301468 l -48.89733378388227,134.34432044275218 M 199.99999999999997,209.06467102301468 l -56.09189236299731,146.12437541282605 M 199.99999999999997,209.06467102301468 l -62.83695505661956,155.52692136934968 M 199.99999999999997,209.06467102301468 l -68.94894175826026,162.43352756224164 M 199.99999999999997,209.06467102301468 l -74.25013058840683,166.7685237687521 M 199.99999999999997,209.06467102301468 l -78.57276082476878,168.499829352259 M 199.99999999999997,209.06467102301468 l -81.76300571617416,167.63900471894178 M 199.99999999999997,209.06467102301468 l -83.68473010183205,164.24053044821872 M 199.99999999999997,209.06467102301468 l -84.22295133249169,158.40033356059334 M 199.99999999999997,209.06467102301468 l -83.28692724287096,150.25359413595578 M 199.99999999999997,209.06467102301468 l -80.81280175907888,139.97187854871626 M 199.99999999999997,209.06467102301468 l -76.76574701224604,127.75965769979165 M 199.99999999999997,209.06467102301468 l -71.14155041242705,113.85027957452164 M 199.99999999999997,209.06467102301468 l -63.96760583092513,98.50147503814303 M 199.99999999999997,209.06467102301468 l -55.30327963753297,81.99048382135182 M 199.99999999999997,209.06467102301468 l -45.23963461606721,64.608894002678 M 199.99999999999997,209.06467102301468 l -33.89850749681462,46.65729284957219 M 199.99999999999997,209.06467102301468 l -21.43094874827032,28.439829558804533 M 199.99999999999997,209.06467102301468 l -8.01504610811203,10.258791197719697 M 199.99999999999997,209.06467102301468 l 6.146834149779189,-7.590708013254875 M 199.99999999999997,209.06467102301468 l 20.83134226863623,-24.825826987206856 M 199.99999999999997,209.06467102301468 l 35.79791930133739,-41.18079540850574 M 199.99999999999997,209.06467102301468 l 50.792983457274424,-56.41132309316118 M 199.99999999999997,209.06467102301468 l 65.55445245381622,-70.29854361427333 M 199.99999999999997,209.06467102301468 l 79.81651837846447,-82.65242432212206 M 199.99999999999997,209.06467102301468 l 93.3145856991442,-93.31458569914422 M 199.99999999999997,209.06467102301468 l 105.79027889157167,-102.16048480930057 M 199.99999999999997,209.06467102301468 l 116.99642377635779,-109.10093019560865 M 199.99999999999997,209.06467102301468 l 126.70190613183257,-114.08290870134726 M 199.99999999999997,209.06467102301468 l 134.69631249317115,-117.0897180830638 M 199.99999999999997,209.06467102301468 l 140.79426124952158,-118.14041268635121 M 199.99999999999997,209.06467102301468 l 144.83933715755094,-117.28858260873305 M 199.99999999999997,209.06467102301468 l 146.70754911588375,-114.62049942426827 M 199.99999999999997,209.06467102301468 l 146.31023937025816,-110.25267344896739 M 199.99999999999997,209.06467102301468 l 143.5963820922927,-104.32887845775811 M 199.99999999999997,209.06467102301468 l 138.55422031521152,-97.01670951547997 M 199.99999999999997,209.06467102301468 l 131.2122023120911,-88.503747973157 M 199.99999999999997,209.06467102301468 l 121.63919143911089,-78.99341455096429 M 199.99999999999997,209.06467102301468 l 109.9439369937625,-68.70059665565232 M 199.99999999999997,209.06467102301468 l 96.27380749942456,-57.84713957024446 M 199.99999999999997,209.06467102301468 l 80.81280175907898,-46.6572928495721 M 199.99999999999997,209.06467102301468 l 63.778866755692434,-35.35320313408043 M 199.99999999999997,209.06467102301468 l 45.42056475115636,-24.150542669580737 M 199.99999999999997,209.06467102301468 l 26.013144493646344,-13.254359140888683 M 199.99999999999997,209.06467102301468 l 5.854083041615935,-2.8552270755668534 M 199.99999999999997,209.06467102301468 l -14.74182487437556,6.874225834101175 M 199.99999999999997,209.06467102301468 l -35.44774400707138,15.782352461421926 M 199.99999999999997,209.06467102301468 l -55.93034886372771,23.741024554469895 M 199.99999999999997,209.06467102301468 l -75.85554795115206,30.64763074736175 M 199.99999999999997,209.06467102301468 l -94.8942789443327,36.42650081734789 M 199.99999999999997,209.06467102301468 l -112.72826973427543,41.0297347436079 M 199.99999999999997,209.06467102301468 l -129.0556602761493,44.43742748440833 M 199.99999999999997,209.06467102301468 l -143.5963820922928,46.657292849572144 M 199.99999999999997,209.06467102301468 l -156.097196156911,47.72370215483862 M 199.99999999999997,209.06467102301468 l -166.33629563429972,47.6961652573484 M 199.99999999999997,209.06467102301468 l -174.12738745822313,46.657292849572144 M 199.99999999999997,209.06467102301468 l -179.32317589085335,44.710289308362874 M 199.99999999999997,209.06467102301468 l -181.81818181818178,41.976034750102414 M 199.99999999999997,209.06467102301468 l -181.55084342957173,38.58982304768229 M 199.99999999999997,209.06467102301468 l -178.50485687206634,34.69782926137648 M 199.99999999999997,209.06467102301468 l -172.70972922471822,30.45338509317116 M 199.99999999999997,209.06467102301468 l -164.2405304482187,26.0131444936461 M 199.99999999999997,209.06467102301468 l -153.2168455631501,21.53322336591249 M 199.99999999999997,209.06467102301468 l -139.800942922992,17.16539739061161 M 199.99999999999997,209.06467102301468 l -124.19518880162516,13.05344034267115 M 199.99999999999997,209.06467102301468 l -106.63875234001502,9.329681922299917 M 199.99999999999997,209.06467102301468 l -87.40365793319563,6.1118591514695035 M 199.99999999999997,209.06467102301468 l -66.79025414137186,3.5003288972992728 M 199.99999999999997,209.06467102301468 l -45.12217895193862,1.5757012101460475 M 199.99999999999997,209.06467102301468 l -22.740910500143038,0.39694406930677995 M 199.99999999999997,209.06467102301468 l -1.5998837216630563e-13,1.9592924787426168e-29 M 199.99999999999997,209.06467102301468 " /></g></svg>