<?xml version="1.0" encoding="UTF-8"?>
<!DOCTYPE svg PUBLIC "-//W3C//DTD SVG 1.1//EN"
    "http://www.w3.org/Graphics/SVG/1.1/DTD/svg11.dtd">
<svg xmlns="http://www.w3.org/2000/svg" xmlns:xlink="http://www.w3.org/1999/xlink" version="1.1" width="400.0" height="400.0" viewBox="0 0 400 400"><g fill="rgb(0,0,0)" fill-opacity="0" fill-rule="nonzero" font-family="Sans" font-size="1" font-style="normal" opacity="1" stroke="rgb(0,0,0)" stroke-opacity="1" stroke-width="0.5" stroke-linecap="butt" stroke-linejoin="miter" text-anchor="middle"><path d="M 195.53546711116937,198.88045930027346 h 9.2367778126172 h -9.2367778126172 l 18.462302034286274,-0.6447177936263362 l -18.462302034286274,0.6447177936263362 l 27.64283245831348,-1.9329751468984526 l -27.64283245831348,1.9329751468984526 l 36.74471110919868,-3.8620247611905336 l -36.74471110919868,3.8620247611905336 l 45.7344306294771,-6.427555055305329 l -45.7344306294771,6.427555055305329 l 54.57870241629938,-9.623697808051869 l -54.57870241629938,9.623697808051869 l 63.24452439145934,-13.443038649104444 l -63.24452439145934,13.443038649104444 l 71.69924828914732,-17.876630381290443 l -71.69924828914732,17.876630381290443 l 79.9106463464566,-22.914009112850373 l -79.9106463464566,22.914009112850373 l 87.84697728260082,-28.54321317364168 l -87.84697728260082,28.54321317364168 l 95.47705145390925,-34.75080478472561 l -95.47705145390925,34.75080478472561 l 102.77029507295272,-41.5218944462905 l -102.77029507295272,41.5218944462905 l 109.69681338161521,-48.84016800443237 l -109.69681338161521,48.84016800443237 l 116.22745266956015,-56.68791635294071 l -116.22745266956015,56.68791635294071 l 122.33386103134653,-65.04606772193158 l -122.33386103134653,65.04606772193158 l 127.98854775742328,-73.89422250093759 l -127.98854775742328,73.89422250093759 l 133.16494125636885,-83.21069053991087 l -133.16494125636885,83.21069053991087 l 137.83744540804375,-92.97253086752853 l -137.83744540804375,92.97253086752853 l 141.9814942497826,-103.15559376221566 l -141.9814942497826,103.15559376221566 l 145.57360490036655,-113.73456510742425 l -145.57360490036655,113.73456510742425 l 7.075782315680075,-5.93728633137787 l -7.075782315680075,5.93728633137787 l 13.72852727106175,-12.36122147711719 l -13.72852727106175,12.36122147711719 l 19.933145722501617,-19.249215070813456 l -19.933145722501617,19.249215070813456 l 25.665620094417942,-26.577527630002155 l -25.665620094417942,26.577527630002155 l 30.903053692792984,-34.321318177654376 l -30.903053692792984,34.321318177654376 l 35.623717988267224,-42.45469389408044 l -35.623717988267224,42.45469389408044 l 39.80709778759849,-50.950761715128294 l -39.80709778759849,50.950761715128294 l 43.43393421566976,-59.781681789382134 l -43.43393421566976,59.781681789382134 l 46.48626543376428,-68.91872270402187 l -46.48626543376428,68.91872270402187 l 48.94746502347699,-78.33231838609933 l -48.94746502347699,78.33231838609933 l 50.80227796939461,-87.99212658322848 l -50.80227796939461,87.99212658322848 l 52.036854177545266,-97.8670888250772 l -52.036854177545266,97.8670888250772 l 52.6387794705878,-107.92549176459157 l -52.6387794705878,107.92549176459157 l 52.59710400477336,-118.13502979558562 l -52.59710400477336,118.13502979558562 l 51.90236805786315,-128.4628688411909 l -51.90236805786315,128.4628688411909 l 50.54662514141908,-138.87571120568617 l -50.54662514141908,138.87571120568617 l 48.52346239519086,-149.33986138042138 l -48.52346239519086,149.33986138042138 l 45.828018225700745,-159.8212926929132 l -45.828018225700745,159.8212926929132 l 42.45699715556479,-170.28571468672487 l -42.45699715556479,170.28571468672487 l 38.40868185458411,-180.69864111845527 l -38.40868185458411,180.69864111845527 l 1.6039496346753124,-9.096450402716561 l -1.6039496346753124,9.096450402716561 l 2.5710220221221323,-18.29377225179084 l -2.5710220221221323,18.29377225179084 l 2.8965185708928995,-27.558533331899014 l -2.8965185708928995,27.558533331899014 l 2.5773001958646007,-36.85710994441797 l -2.5773001958646007,36.85710994441797 l 1.6117944840658456,-46.15575508571568 l -1.6117944840658456,46.15575508571568 l 3.3935371147970837e-15,-55.4206668757032 l -3.3935371147970837e-15,55.4206668757032 l -2.256512277692161,-64.61805712000196 l 2.256512277692161,64.61805712000196 l -5.15460039172921,-73.71421988883594 l 5.15460039172921,73.71421988883594 l -8.68955571267869,-82.67559999569704 l 8.68955571267869,82.67559999569704 l -12.855110110610632,-91.4688612589542 l 12.855110110610632,91.4688612589542 l -17.643445981428425,-100.06095442988219 l 17.643445981428425,100.06095442988219 l -23.045209112750456,-108.41918467107317 l 23.045209112750456,108.41918467107317 l -29.04952436959695,-116.51127846986441 l 29.04952436959695,116.51127846986441 l -35.64401417554501,-124.30544987226583 l 35.64401417554501,124.30544987226583 l -42.81481976046251,-131.77046592390124 l 42.81481976046251,131.77046592390124 l -50.54662514141906,-138.8757112056862 l 50.54662514141906,138.8757112056862 l -58.822683798911555,-145.5912513533497 l 58.822683798911555,145.5912513533497 l -67.62484800613713,-151.88789545146724 l 67.62484800613713,151.88789545146724 l -76.93360076470526,-157.73725719440304 l 76.93360076470526,157.73725719440304 l -86.72809029590873,-163.11181470846205 l 86.72809029590873,163.11181470846205 l -4.618388906308598,-7.999284234838957 l 4.618388906308598,7.999284234838957 l -9.789493004695395,-15.666463677219868 l 9.789493004695395,15.666463677219868 l -15.495421811254753,-22.972907568007297 l 15.495421811254753,22.972907568007297 l -21.71696710783487,-29.890840894691074 l 21.71696710783487,29.890840894691074 l -28.433641276856058,-36.393401225091644 l 28.433641276856058,36.393401225091644 l -35.62371798826722,-42.45469389408045 l 35.62371798826722,42.45469389408045 l -43.26427516991014,-48.04984544871615 l 43.26427516991014,48.04984544871615 l -51.331240188835885,-53.15505526000431 l 51.331240188835885,53.15505526000431 l -59.79943716750484,-57.74764521244038 l 59.79943716750484,57.74764521244038 l -68.64263635530877,-61.806107385585925 l 68.64263635530877,61.806107385585925 l -77.83360547248081,-65.3101496451566 l 77.83360547248081,65.3101496451566 l -87.34416294021993,-68.24073906445454 l 87.34416294021993,68.24073906445454 l -97.14523290774598,-70.58014310046335 l 97.14523290774598,70.58014310046335 l -107.20690198403402,-72.31196845252221 l 107.20690198403402,72.31196845252221 l -117.498477579149,-73.42119753521547 l 117.498477579149,73.42119753521547 l -127.98854775742328,-73.89422250093759 l 127.98854775742328,73.89422250093759 l -138.64504250219272,-73.71887675152244 l 138.64504250219272,73.71887675152244 l -149.43529628943446,-72.88446388235238 l 149.43529628943446,72.88446388235238 l -160.32611186543764,-71.38178400647807 l 160.32611186543764,71.38178400647807 l -171.28382512158788,-69.20315741048421 l 171.28382512158788,69.20315741048421 l -8.679731950355386,-3.159164071338693 l 8.679731950355386,3.159164071338693 l -17.569395456520162,-5.708642634728338 l 17.569395456520162,5.708642634728338 l -26.636882115485534,-7.638003037616792 l 26.636882115485534,7.638003037616792 l -35.84962414457366,-8.938315190645222 l 35.84962414457366,8.938315190645222 l -45.17466027961382,-9.602170463646031 l 45.17466027961382,9.602170463646031 l -54.57870241629938,-9.62369780805189 l 54.57870241629938,9.62369780805189 l -64.02820288126794,-8.998577077427452 l 64.02820288126794,8.998577077427452 l -73.48942221839737,-7.724049522381087 l 73.48942221839737,7.724049522381087 l -82.92849737494043,-5.798925440695376 l 82.92849737494043,5.798925440695376 l -92.31151017143137,-3.223588968131697 l 92.31151017143137,3.223588968131697 l -101.60455593878919,-1.2442969420922638e-14 l 101.60455593878919,1.2442969420922638e-14 l -110.77381220571766,3.8683067617580082 l 110.77381220571766,-3.8683067617580082 l -119.7856073193584,8.376225636559903 l 119.7856073193584,-8.376225636559903 l -128.60648888219538,13.51708666416687 l 128.60648888219538,-13.51708666416687 l -137.2032918884313,19.282665165916 l 137.2032918884313,-19.282665165916 l -145.54320644346498,25.66319415480501 l 145.54320644346498,-25.66319415480501 l -153.593844950687,32.647379576396474 l 153.593844950687,-32.647379576396474 l -161.32330865058148,40.222418357903464 l 161.32330865058148,-40.222418357903464 l -168.70025339807506,48.374019238239576 l 168.70025339807506,-48.374019238239576 l -175.6939545652016,57.08642634728342 l 175.6939545652016,-57.08642634728342 l -8.679731950355388,3.159164071338691 l 8.679731950355388,-3.159164071338691 l -17.12838251215879,6.920315741048417 l 17.12838251215879,-6.920315741048417 l -25.314649241911212,11.270808001022846 l 25.314649241911212,-11.270808001022846 l -33.20784361987433,16.196547529411617 l 33.20784361987433,-16.196547529411617 l -40.77795367711551,21.68202257397718 l 40.77795367711551,-21.68202257397718 l -47.99570540903372,27.710333437851606 l 47.99570540903372,-27.710333437851606 l -54.83262287026954,34.263225516433884 l 54.83262287026954,-34.263225516433884 l -61.26108684801946,41.32112483001267 l 61.26108684801946,-41.32112483001267 l -67.25439201305491,48.86317599262846 l 67.25439201305491,-48.86317599262846 l -72.78680245018332,56.86728255371208 l 72.78680245018332,-56.86728255371208 l -77.83360547248083,65.31014964515657 l 77.83360547248083,-65.31014964515657 l -82.37116362637052,74.16732886270313 l 82.37116362637052,-74.16732886270313 l -86.376964797507,83.4132653068583 l 86.376964797507,-83.4132653068583 l -89.82967033046283,93.02134670500752 l 89.82967033046283,-93.02134670500752 l -92.70916107837895,102.96395453296311 l 92.70916107837895,-102.96395453296311 l -94.99658130204598,113.21251705088117 l 94.99658130204598,-113.21251705088117 l -96.67438034131058,123.73756416531158 l 96.67438034131058,-123.73756416531158 l -97.72635198525697,134.5087840261098 l 97.72635198525697,-134.5087840261098 l -98.13767147128021,145.49508126404612 l 98.13767147128021,-145.49508126404612 l -97.89493004695399,156.66463677219863 l 97.89493004695399,-156.66463677219863 l -4.618388906308604,7.999284234838952 l 4.618388906308604,-7.999284234838952 l -8.672809029590876,16.311181470846204 l 8.672809029590876,-16.311181470846204 l -12.147410647058733,24.90588271490574 l 12.147410647058733,-24.90588271490574 l -15.027744001363805,33.752865655881614 l 15.027744001363805,-33.752865655881614 l -17.300789352621056,42.82095628039697 l 17.300789352621056,-42.82095628039697 l -18.954984428032184,52.07839170213231 l 18.954984428032184,-52.07839170213231 l -19.980249221549187,61.49288409782057 l 19.980249221549187,-61.49288409782057 l -20.36800810031142,71.03168564129477 l 20.36800810031142,-71.03168564129477 l -20.111209178951754,80.66165432529074 l 20.111209178951754,-80.66165432529074 l -19.204340927292108,90.34932055922762 l 19.204340927292108,-90.34932055922762 l -17.643445981428428,100.06095442988219 l 17.643445981428428,-100.06095442988219 l -15.426132132732835,109.76263351074503 l 15.426132132732835,-109.76263351074503 l -12.551580473869327,119.42031110489573 l 12.551580473869327,-119.42031110489573 l -9.020550685526148,128.99988480546293 l 9.020550685526148,-128.99988480546293 l -4.835383452197491,138.46726525714706 l 4.835383452197491,-138.46726525714706 l -2.7148296918376663e-14,147.7884450018752 l 2.7148296918376663e-14,-147.7884450018752 l 5.480101245823767,156.92956729143333 l -5.480101245823767,-156.92956729143333 l 11.597850881390702,165.8569947498809 l -11.597850881390702,-165.8569947498809 l 18.344617615655107,174.53737776869374 l -18.344617615655107,-174.53737776869374 l 25.710220221221316,182.9377225179084 l -25.710220221221316,-182.9377225179084 l 1.6039496346753082,9.096450402716563 l -1.6039496346753082,-9.096450402716563 l 3.8408681854584152,18.069864111845522 l -3.8408681854584152,-18.069864111845522 l 6.703736392983908,26.88721810843025 l -6.703736392983908,-26.88721810843025 l 10.1840040501557,35.515842820647386 l -10.1840040501557,-35.515842820647386 l 14.271606586820832,43.923488641300416 l -14.271606586820832,-43.923488641300416 l 18.954984428032166,52.078391702132315 l -18.954984428032166,-52.078391702132315 l 24.221105093669454,59.94933879255576 l -24.221105093669454,-59.94933879255576 l 30.05548800272759,67.50573131176323 l -30.05548800272759,-67.50573131176323 l 36.442231941176175,74.71764814471724 l -36.442231941176175,-74.71764814471724 l 43.36404514795435,81.55590735423102 l -43.36404514795435,-81.55590735423102 l 50.802277969394595,87.99212658322848 l -50.802277969394595,-87.99212658322848 l 58.73695802817235,93.99878206331923 l -58.73695802817235,-93.99878206331923 l 67.14682784877063,99.5492661280316 l -67.14682784877063,-99.5492661280316 l 76.00938487742204,104.61794313141877 l -76.00938487742204,-104.61794313141877 l 85.30092383056811,109.18020367527498 l -85.30092383056811,-109.18020367527498 l 94.99658130204593,113.2125170508812 l -94.99658130204593,-113.2125170508812 l 105.07038255549615,116.69248180402487 l -105.07038255549615,-116.69248180402487 l 115.49529042488072,119.59887433500971 l -115.49529042488072,-119.59887433500971 l 126.2432562425102,121.91169544848528 l -126.2432562425102,-121.91169544848528 l 137.28527271061742,123.612214771172 l -137.28527271061742,-123.612214771172 l 7.075782315680073,5.937286331377874 l -7.075782315680073,-5.937286331377874 l 14.557360490036658,11.373456510742422 l -14.557360490036658,-11.373456510742422 l 22.418130671018304,16.28772533087616 l -22.418130671018304,-16.28772533087616 l 30.630543424009712,20.660562415006364 l -30.630543424009712,-20.660562415006364 l 39.16615919304966,24.473732511738497 l -39.16615919304966,-24.473732511738497 l 47.99570540903371,27.710333437851624 l -47.99570540903371,-27.710333437851624 l 57.08913514796171,30.35483160356807 l -57.08913514796171,-30.35483160356807 l 66.41568723974864,32.393095058823285 l -66.41568723974864,-32.393095058823285 l 75.94394772573362,33.812424003068564 l -75.94394772573362,-33.812424003068564 l 85.64191256079394,34.60157870524211 l -85.64191256079394,-34.60157870524211 l 95.47705145390923,34.75080478472567 l -95.47705145390923,-34.75080478472567 l 105.41637273912099,34.251855808370046 l -105.41637273912099,-34.251855808370046 l 115.42648916710398,33.09801316300607 l -115.42648916710398,-33.09801316300607 l 125.47368450600781,31.284103167258298 l -125.47368450600781,-31.284103167258298 l 135.52398083884142,28.806511390938173 l -135.52398083884142,-28.806511390938173 l 145.54320644346498,25.663194154804994 l -145.54320644346498,-25.663194154804994 l 155.49706414022214,21.85368718803819 l -155.49706414022214,-21.85368718803819 l 165.35119999139405,17.379111425357543 l -165.35119999139405,-17.379111425357543 l 175.0712722359854,12.242175930356925 l -175.0712722359854,-12.242175930356925 l 184.62302034286273,6.4471779362633335 l -184.62302034286273,-6.4471779362633335 " /></g></svg>