<?xml version="1.0" encoding="UTF-8"?>
<!DOCTYPE svg PUBLIC "-//W3C//DTD SVG 1.1//EN"
    "http://www.w3.org/Graphics/SVG/1.1/DTD/svg11.dtd">
<svg xmlns="http://www.w3.org/2000/svg" xmlns:xlink="http://www.w3.org/1999/xlink" version="1.1" width="400.0" height="400.0" viewBox="0 0 400 400"><g fill="rgb(0,0,0)" fill-opacity="0" fill-rule="nonzero" font-family="Sans" font-size="1" font-style="normal" opacity="1" stroke="rgb(0,0,0)" stroke-opacity="1" stroke-width="0.5" stroke-linecap="butt" stroke-linejoin="miter" text-anchor="middle"><path d="M 23.5084892433093,81.2267402681849 h 1.7246689907087762 l 1.6869808353217837,-0.35857884595922007 l 1.5366913227868872,-0.7829833369771769 l 0.964422660440403,-1.4298153935181575 l 0.8096830463564143,-1.5227923338247487 l 6.0190079754146794e-2,-1.7236183689586329 l -3.0099624195629032e-2,-1.7244063152678695 l -0.836136118436155,-1.508429487566107 l -1.1085958580381903,-1.3211730965520745 l -1.5630809363400033,-0.7288766109314295 l -1.7118135695831185,-0.21018427748889706 l -1.7118135695831185,0.21018427748889737 l -1.6984673934297425,0.2994856273152432 l -1.5366913227868875,0.7829833369771763 l -0.9139353226022189,1.462602254070602 l -0.728876610931429,1.563080936340004 l -0.2697976709330026,1.703435453509042 l 9.026220083129527e-2,1.7223053917971456 l 0.21018427748889731,1.7118135695831185 l 0.6180660898446667,1.6101172119123977 l 0.8882701968317139,1.478329863370478 l 0.9393220548199678,1.4464291219555907 l 1.0618122552681781,1.359057711090568 l 1.1085958580381903,1.3211730965520745 l 1.1314846633744375,1.3016242100010527 l 1.154028807521284,1.2816788361065468 l 1.154028807521284,1.2816788361065468 l 1.154028807521284,1.2816788361065468 l 1.154028807521284,1.2816788361065468 l 1.17622142331403,1.2613430504226621 l 1.1980557506669218,1.2406230474267141 l 1.2613430504226615,1.1762214233140305 l 1.321173096552074,1.108595858038191 l 1.3773818990574531,1.0379317085730217 l 1.5755635223990514,0.701486075697816 l 1.665902319925508,0.4463771812931735 l 1.6869808353217832,0.35857884595922107 l 1.711813569583119,-0.21018427748889565 l 1.5084294875661077,-0.8361361184361542 l 1.3016242100010527,-1.1314846633744375 l 1.0137349978247647,-1.3952865231548872 l 3.009962419562929e-2,-1.7244063152678695 l -9.026220083129506e-2,-1.7223053917971456 l -0.3290823574742184,-1.6929819637289818 l -0.8623344953543867,-1.4936071590730688 l -0.9393220548199676,-1.4464291219555911 l -1.301624210001052,-1.1314846633744382 l -1.6206587238673174,-0.589871535391552 l -1.6929819637289818,0.32908235747421827 l -1.686980835321783,0.3585788459592215 l -1.377381899057453,1.0379317085730222 l -1.0618122552681792,1.3590577110905673 l -1.0618122552681792,1.3590577110905673 l -1.0137349978247636,1.3952865231548877 l -0.8623344953543878,1.4936071590730682 l -0.8361361184361538,1.508429487566108 l -0.7560451232885679,1.5501222206858407 l -0.5042444128959691,1.6493091582767698 l -0.4463771812931739,1.6659023199255079 l -0.38796610785410957,1.6804658362099962 l -0.32908235747421954,1.6929819637289814 l -0.32908235747421954,1.6929819637289814 l -0.32908235747421954,1.6929819637289814 l -0.32908235747421954,1.6929819637289814 l -0.32908235747421954,1.6929819637289814 l -0.32908235747421954,1.6929819637289814 l -0.2697976709330015,1.7034354535090421 l -0.180276999244162,1.715221073522579 l -0.15031480687907794,1.718106104507325 l -3.0099624195631034e-2,1.7244063152678695 l -3.0099624195631034e-2,1.7244063152678695 l 0.26979767093300006,1.7034354535090424 l 0.5042444128959677,1.6493091582767705 l 0.5329520278004994,1.6402576820657675 l 0.6180660898446664,1.6101172119123977 l 1.061812255268178,1.359057711090568 l 1.4127661294609246,0.9892294935758974 l 1.707884630647653,0.24002753156660786 l 1.5084294875661068,-0.8361361184361552 l 0.7829833369771793,-1.536691322786886 l -0.26979767093299983,-1.7034354535090424 l -0.7829833369771775,-1.5366913227868868 l -0.989229493575896,-1.4127661294609255 l -1.3211730965520725,-1.1085958580381927 l -1.6929819637289814,-0.3290823574742199 l -1.7034354535090424,0.26979767093299967 l -1.321173096552076,1.1085958580381885 l -1.2195251386323342,1.2195251386323345 l -1.0618122552681795,1.3590577110905668 l -0.8623344953543908,1.4936071590730666 l -0.8361361184361595,1.5084294875661048 l -0.5042444128959637,1.6493091582767718 l -0.15031480687907833,1.7181061045073245 l -0.15031480687907833,1.7181061045073245 l 6.019007975414477e-2,1.7236183689586329 l 0.15031480687907603,1.718106104507325 l 0.21018427748889795,1.7118135695831185 l 0.21018427748889795,1.7118135695831185 l 0.21018427748889795,1.7118135695831185 l 0.21018427748889795,1.7118135695831185 l 0.21018427748889795,1.7118135695831185 l 0.24002753156660583,1.7078846306476532 l 0.29948562731523853,1.6984673934297432 l 0.38796610785410474,1.6804658362099973 l 0.4753832002585364,1.657858238940948 l 0.701486075697816,1.5755635223990514 l 1.0379317085730217,1.3773818990574531 l 1.1980557506669214,1.2406230474267146 l 1.2816788361065456,1.1540288075212852 l 1.5501222206858405,0.7560451232885683 l 1.6984673934297425,0.29948562731524386 l 1.7152210735225788,0.18027699924416554 l 1.7078846306476534,-0.24002753156660273 l 1.4626022540706023,-0.9139353226022188 l 1.0618122552681795,-1.3590577110905668 l 0.5898715353915498,-1.6206587238673182 l 0.15031480687907853,-1.7181061045073245 l -0.9644226604404023,-1.4298153935181577 l -1.5630809363400018,-0.7288766109314327 l -1.5875661765463496,-0.6738818610100981 l -1.6929819637289814,-0.3290823574742203 l -1.6929819637289818,0.3290823574742174 l -1.3590577110905666,1.0618122552681797 l -0.7829833369771798,1.5366913227868857 l -0.7014860756978185,1.5755635223990505 l -0.6460723753794742,1.5990852426571736 l -0.2994856273152412,1.698467393429743 l 0.12030682716768396,1.7204677837289697 l 0.3879661078541043,1.6804658362099973 l 0.6180660898446656,1.610117211912398 l 0.8096830463564122,1.5227923338247498 l 0.9139353226022212,1.4626022540706007 l 0.9139353226022212,1.4626022540706007 l 0.9393220548199693,1.44642912195559 l 0.9393220548199693,1.44642912195559 l 0.9393220548199693,1.44642912195559 l 0.9393220548199693,1.44642912195559 l 0.9393220548199693,1.44642912195559 l 0.9892294935758931,1.4127661294609277 l 1.013734997824764,1.3952865231548872 l 1.085369363664377,1.3403195409793942 l 1.1314846633744366,1.3016242100010535 l 1.1762214233140302,1.2613430504226617 l 1.4783298633704753,0.8882701968317185 l 1.493607159073068,0.8623344953543886 l 1.6402576820657677,0.5329520278004988 l 1.698467393429742,0.2994856273152443 l 1.6804658362099953,-0.3879661078541132 l 1.5501222206858445,-0.7560451232885602 l 1.4783298633704773,-0.8882701968317155 l 1.1980557506669192,-1.240623047426717 l 0.2400275315666088,-1.7078846306476527 l -0.836136118436157,-1.5084294875661062 l -1.3016242100010489,-1.1314846633744415 l -1.7204677837289697,-0.12030682716768436 l -1.6578582389409473,0.47538320025853864 l -1.1980557506669194,1.2406230474267164 l -1.0853693636643797,1.3403195409793918 l -0.9139353226022189,1.462602254070602 l -0.5898715353915504,1.6206587238673178 l -0.2697976709330088,1.7034354535090408 l 3.0099624195634413e-2,1.7244063152678692 l 0.26979767093300483,1.703435453509042 l 0.4463771812931772,1.6659023199255072 l 0.7014860756978095,1.5755635223990543 l 0.9393220548199691,1.4464291219555903 l 1.0618122552681724,1.3590577110905726 l 1.1314846633744364,1.3016242100010535 l 1.1540288075212803,1.2816788361065499 l 1.1540288075212803,1.2816788361065499 l 1.1540288075212803,1.2816788361065499 l 1.1540288075212803,1.2816788361065499 l 1.1540288075212803,1.2816788361065499 l 1.17622142331403,1.2613430504226621 l 1.1980557506669163,1.2406230474267195 l 1.2613430504226613,1.1762214233140307 l 1.340319540979394,1.0853693636643775 l 1.4626022540706036,0.9139353226022165 l 1.6101172119123957,0.6180660898446718 l 1.698467393429742,0.2994856273152447 l 1.7034354535090417,0.2697976709330059 l 1.7244063152678695,-3.0099624195631242e-2 l 1.6984673934297432,-0.2994856273152406 l 1.6804658362099956,-0.3879661078541128 l 1.6101172119123972,-0.618066089844668 l 1.4936071590730697,-0.8623344953543853 l 0.9644226604404005,-1.4298153935181592 l -9.026220083129796e-2,-1.7223053917971456 l -1.0137349978247585,-1.3952865231548912 l -1.4127661294609273,-0.9892294935758936 l -1.7118135695831185,-0.2101842774888984 l -1.4936071590730697,0.8623344953543852 l -1.3773818990574518,1.0379317085730233 l -1.2613430504226602,1.1762214233140318 l -0.7829833369771859,1.5366913227868826 l -9.026220083130261e-2,1.7223053917971454 l 0.3879661078541095,1.6804658362099962 l 0.504244412895972,1.6493091582767692 l 0.6738818610100916,1.5875661765463525 l 1.0853693636643762,1.3403195409793947 l 1.3403195409793898,1.0853693636643824 l 1.4464291219555863,0.9393220548199752 l 1.4936071590730704,0.862334495354384 l 1.5227923338247495,0.8096830463564132 l 1.55012222068584,0.7560451232885694 l 1.55012222068584,0.7560451232885694 l 1.55012222068584,0.7560451232885694 l 1.55012222068584,0.7560451232885694 l 1.55012222068584,0.7560451232885694 l 1.5630809363400042,0.7288766109314282 l 1.5875661765463494,0.6738818610100991 l 1.6206587238673167,0.5898715353915537 l 1.6307065674752703,0.5614973003545526 l 1.6929819637289814,0.3290823574742214 l 1.7244063152678695,-3.009962419563082e-2 l 1.6734389509254628,-0.41723519151422866 l 1.5366913227868861,-0.7829833369771789 l 1.1762214233140287,-1.261343050422663 l 0.5614973003545499,-1.630706567475271 l 0.1503148068790859,-1.7181061045073238 l -0.6738818610100972,-1.5875661765463498 l -1.3952865231548868,-1.0137349978247652 l -1.6101172119123977,-0.6180660898446667 l -1.6804658362099971,0.3879661078541062 l -1.1314846633744444,1.3016242100010467 l -0.32908235747422465,1.6929819637289802 l 6.01900797541492e-2,1.7236183689586326 l 0.6460723753794643,1.5990852426571778 l 1.1085958580381847,1.3211730965520792 l 1.63070656747527,0.561497300354553 l 1.7204677837289697,-0.1203068271676856 l 1.649309158276772,-0.5042444128959627 l 1.5875661765463513,-0.673881861010094 l 1.5630809363400062,-0.7288766109314233 l 1.3211730965520772,-1.1085958580381874 l 1.1540288075212797,-1.2816788361065505 l 1.1540288075212797,-1.2816788361065505 l 0.9393220548199732,-1.4464291219555874 l 0.782983336977181,-1.5366913227868852 l 0.7560451232885671,-1.5501222206858414 l 0.6738818610100967,-1.5875661765463502 l 0.6460723753794696,-1.5990852426571756 l 0.6460723753794696,-1.5990852426571756 l 0.6460723753794696,-1.5990852426571756 l 0.6460723753794696,-1.5990852426571756 l 0.6180660898446699,-1.610117211912396 l 0.5898715353915512,-1.6206587238673176 l 0.47538320025854636,-1.6578582389409449 l 0.4172351915142312,-1.6734389509254621 l 0.4172351915142312,-1.6734389509254621 l 0.18027699924416427,-1.7152210735225788 l -6.019007975414286e-2,-1.7236183689586329 l -0.35857884595921014,-1.6869808353217857 l -0.6180660898446699,-1.610117211912396 l -0.9139353226022096,-1.4626022540706078 l -1.085369363664371,-1.340319540979399 l -1.6206587238673187,-0.5898715353915486 l -1.71522107352258,0.18027699924415505 l -1.5366913227868892,0.7829833369771729 l -1.1085958580381943,1.3211730965520712 l -0.26979767093301005,1.7034354535090408 l -0.2400275315666102,1.7078846306476525 l -6.337398613890369e-15,1.7246689907087762 l 0.12030682716768225,1.72046778372897 l 1.131484663374435,1.3016242100010544 l 1.6734389509254612,0.41723519151423444 l 1.7034354535090415,0.26979767093300716 l 1.7034354535090415,0.26979767093300716 l 1.7204677837289697,-0.12030682716768522 l 1.67343895092546,-0.41723519151423977 l 1.5990852426571722,-0.6460723753794779 l 1.5875661765463562,-0.6738818610100823 l 1.4464291219555891,-0.9393220548199702 l 1.340319540979401,-1.0853693636643684 l 1.2406230474267226,-1.1980557506669132 l 1.1980557506669245,-1.2406230474267113 l 1.1762214233140293,-1.2613430504226626 l 1.1762214233140293,-1.2613430504226626 l 1.1762214233140293,-1.2613430504226626 l 1.1762214233140293,-1.2613430504226626 l 1.1762214233140293,-1.2613430504226626 l 1.1762214233140293,-1.2613430504226626 l 1.1314846633744404,-1.3016242100010502 l 1.1314846633744404,-1.3016242100010502 l 1.0379317085730206,-1.3773818990574542 l 0.9892294935758871,-1.412766129460932 l 0.6460723753794815,-1.599085242657171 l 0.3290823574742193,-1.6929819637289816 l 0.18027699924417692,-1.7152210735225775 l 6.019007975415554e-2,-1.7236183689586326 l -0.3879661078541144,-1.6804658362099951 l -0.8623344953543921,-1.4936071590730655 l -1.281678836106544,-1.154028807521287 l -1.6804658362099956,-0.38796610785411234 l -1.587566176546354,0.6738818610100877 l -1.5366913227868948,0.7829833369771614 l -1.1980557506669203,1.2406230474267155 l -0.180276999244171,1.7152210735225784 l 0.12030682716768185,1.72046778372897 l 0.35857884595921546,1.6869808353217846 l 1.176221423314024,1.2613430504226673 l 1.3590577110905633,1.061812255268184 l 1.5755635223990532,0.701486075697812 l 1.7223053917971456,-9.026220083129331e-2 l 1.5630809363400067,-0.7288766109314224 l 1.301624210001053,-1.131484663374437 l 1.2406230474267228,-1.1980557506669127 l 0.862334495354393,-1.493607159073065 l 0.6460723753794819,-1.5990852426571707 l 0.5614973003545394,-1.630706567475275 l 0.44637718129317694,-1.6659023199255072 l 0.3879661078541156,-1.6804658362099947 l 0.3879661078541156,-1.6804658362099947 l 0.35857884595922296,-1.6869808353217828 l 0.35857884595922296,-1.6869808353217828 l 0.35857884595922296,-1.6869808353217828 l 0.35857884595922296,-1.6869808353217828 l 0.35857884595922296,-1.6869808353217828 l 0.2994856273152496,-1.6984673934297414 l 0.21018427748889085,-1.7118135695831194 l 0.12030682716768941,-1.7204677837289695 l -9.026220083128403e-2,-1.7223053917971463 l -0.12030682716767553,-1.7204677837289704 l -0.5898715353915505,-1.6206587238673176 l -0.9393220548199622,-1.4464291219555947 l -1.429815393518153,-0.9644226604404095 l -1.550122220685837,-0.7560451232885763 l -1.722305391797146,9.0262200831287e-2 l -1.6101172119124003,0.6180660898446605 l -1.3773818990574531,1.037931708573022 l -1.301624210001057,1.1314846633744322 l -1.1314846633744455,1.3016242100010456 l -0.15031480687908128,1.7181061045073243 l 0.4463771812931692,1.6659023199255092 l 0.9644226604404051,1.4298153935181561 l 0.9892294935758809,1.4127661294609364 l 1.4936071590730635,0.8623344953543961 l 1.5630809363400033,0.7288766109314297 l 1.7246689907087762,4.224220718120398e-15 l 1.7034354535090424,-0.2697976709329996 l 1.6659023199255116,-0.44637718129316023 l 1.377381899057457,-1.037931708573017 l 1.131484663374441,-1.3016242100010498 l 0.8882701968317128,-1.478329863370479 l 0.836136118436157,-1.5084294875661062 l 0.8096830463564121,-1.52279233382475 l 0.8096830463564121,-1.52279233382475 l 0.7829833369771714,-1.5366913227868901 l 0.7560451232885794,-1.5501222206858354 l 0.7288766109314381,-1.5630809363399996 l 0.7288766109314381,-1.5630809363399996 l 0.7288766109314381,-1.5630809363399996 l 0.7288766109314381,-1.5630809363399996 l 0.701486075697821,-1.5755635223990494 l 0.6738818610100865,-1.5875661765463545 l 0.5898715353915526,-1.6206587238673171 l 0.41723519151425614,-1.673438950925456 l 0.21018427748889124,-1.7118135695831194 l -9.026220083129584e-2,-1.7223053917971456 l -0.5042444128959761,-1.6493091582767678 l -0.6738818610100843,-1.5875661765463556 l -1.013734997824757,-1.3952865231548925 l -1.1540288075212783,-1.2816788361065512 l -1.4936071590730666,-0.8623344953543909 l -1.6804658362099953,-0.3879661078541132 l -1.7244063152678692,3.0099624195635048e-2 l -1.6101172119124003,0.61806608984466 l -1.5755635223990592,0.7014860756977989 l -1.301624210001049,1.1314846633744413 l -0.6460723753794768,1.599085242657173 l 0.2697976709330084,1.7034354535090412 l 0.7829833369771635,1.5366913227868941 l 0.9393220548199565,1.4464291219555983 l 1.0618122552681846,1.3590577110905628 l 1.19805575066691,1.2406230474267255 l 1.5227923338247424,0.809683046356426 l 1.5990852426571691,0.6460723753794855 l 1.6578582389409435,0.4753832002585509 l 1.7246689907087762,1.6901153019320683e-14 l 1.7223053917971456,-9.02622008312925e-2 l 1.7204677837289697,-0.12030682716768396 l 1.6734389509254632,-0.41723519151422667 l 1.6659023199255085,-0.4463771812931716 l 1.6402576820657637,-0.5329520278005102 l 1.6206587238673191,-0.5898715353915469 l 1.610117211912398,-0.6180660898446656 l 1.610117211912398,-0.6180660898446656 l 1.610117211912398,-0.6180660898446656 l 1.610117211912398,-0.6180660898446656 l 1.599085242657173,-0.6460723753794768 l 1.599085242657173,-0.6460723753794768 l 1.5875661765463571,-0.6738818610100811 l 1.5875661765463571,-0.6738818610100811 l 1.4936071590730617,-0.8623344953543992 l 1.478329863370482,-0.8882701968317078 l 1.3211730965520858,-1.1085958580381765 l 1.061812255268192,-1.3590577110905573 l 0.7014860756978213,-1.5755635223990492 l 0.21018427748890386,-1.7118135695831178 l -0.5614973003545254,-1.6307065674752794 l -0.8623344953543909,-1.4936071590730666 l -1.5227923338247453,-0.8096830463564206 l -1.5755635223990554,-0.7014860756978074 l -1.7078846306476534,-0.2400275315666027 l -1.7204677837289697,-0.1203068271676873 l -1.7244063152678695,3.009962419562237e-2 l -1.5227923338247555,0.8096830463564012 l -1.19805575066693,1.240623047426706 l -0.4463771812931839,1.665902319925505 l 0.24002753156659598,1.7078846306476545 l 0.26979767093299584,1.7034354535090432 l 0.41723519151424715,1.6734389509254581 l 1.037931708573014,1.3773818990574593 l 1.3952865231548817,1.013734997824772 l 1.5875661765463482,0.6738818610101015 l 1.680465836209994,0.3879661078541198 l 1.7246689907087762,5.069064861744478e-15 l 1.7246689907087762,5.069064861744478e-15 l 1.7118135695831185,-0.21018427748889712 l 1.6929819637289827,-0.32908235747421394 l 1.6869808353217841,-0.35857884595921713 l 1.6869808353217841,-0.35857884595921713 l 1.6869808353217841,-0.35857884595921713 l 1.6869808353217841,-0.35857884595921713 l 1.6869808353217841,-0.35857884595921713 l 1.6804658362099962,-0.38796610785410984 l 1.6734389509254604,-0.4172351915142381 l 1.6659023199255119,-0.44637718129315934 l 1.6101172119124025,-0.6180660898446537 l 1.5755635223990516,-0.7014860756978151 l 1.412766129460928,-0.9892294935758926 l 1.0853693636643633,-1.3403195409794053 l 0.5898715353915533,-1.620658723867317 l 0.5614973003545406,-1.6307065674752743 l -3.0099624195618995e-2,-1.7244063152678695 l -0.3879661078541008,-1.6804658362099982 l -0.8361361184361433,-1.5084294875661137 l -1.0853693636643598,-1.3403195409794082 l -1.5755635223990498,-0.7014860756978191 l -1.6206587238673136,-0.589871535391562 l -1.7034354535090401,-0.269797670933015 l -1.722305391797146,9.026220083128572e-2 l -1.4464291219555938,0.9393220548199634 l -1.0379317085730173,1.3773818990574564 l -1.0379317085730173,1.3773818990574564 l -0.26979767093300006,1.7034354535090424 l 0.1203068271676679,1.720467783728971 l 0.7288766109314294,1.5630809363400036 l 1.061812255268184,1.3590577110905633 l 1.2613430504226593,1.1762214233140333 l 1.429815393518149,0.9644226604404158 l 1.6101172119123943,0.618066089844675 l 1.6402576820657606,0.5329520278005199 l 1.6734389509254608,0.4172351915142365 l 1.7034354535090408,0.2697976709330092 l 1.7181061045073234,0.1503148068790918 l 1.7223053917971454,9.026220083130261e-2 l 1.7223053917971454,9.026220083130261e-2 l 1.7223053917971454,9.026220083130261e-2 l 1.7223053917971454,9.026220083130261e-2 l 1.7223053917971454,9.026220083130261e-2 l 1.7223053917971454,9.026220083130261e-2 l 1.7246689907087762,-6.7630232958317286e-15 l 1.7244063152678692,-3.0099624195640114e-2 l 1.72046778372897,-0.12030682716768311 l 1.6734389509254632,-0.41723519151422583 l 1.6402576820657642,-0.5329520278005094 l 1.6402576820657642,-0.5329520278005094 l 1.5501222206858436,-0.7560451232885622 l 1.5501222206858436,-0.7560451232885622 l 1.3952865231548952,-1.0137349978247534 l 0.9139353226022117,-1.4626022540706067 l 0.6460723753794948,-1.5990852426571656 l -0.15031480687907162,-1.7181061045073254 l -0.8882701968316989,-1.478329863370487 l -1.3016242100010424,-1.1314846633744489 l -1.5227923338247449,-0.8096830463564214 l -1.5875661765463553,-0.673881861010085 l -1.7204677837289697,-0.12030682716768813 l -1.6869808353217857,0.3585788459592105 l -1.563080936340005,0.7288766109314263 l -0.8623344953543893,1.493607159073067 l -0.26979767093301255,1.7034354535090404 l 0.47538320025853775,1.6578582389409473 l 1.108595858038192,1.321173096552073 l 1.2195251386323334,1.2195251386323351 l 1.5630809363399976,0.7288766109314425 l 1.6402576820657646,0.5329520278005088 l 1.6804658362099936,0.3879661078541206 l 1.6984673934297385,0.2994856273152666 l 1.7078846306476507,0.240027531566622 l 1.7181061045073245,0.15031480687908003 l 1.7223053917971458,9.026220083129079e-2 l 1.7223053917971458,9.026220083129079e-2 l 1.7223053917971458,9.026220083129079e-2 l 1.7223053917971458,9.026220083129079e-2 l 1.7223053917971458,9.026220083129079e-2 l 1.7236183689586324,6.0190079754161026e-2 l 1.7246689907087762,5.913909005368557e-15 l 1.7244063152678695,-3.0099624195627447e-2 l 1.7181061045073254,-0.15031480687906823 l 1.6734389509254606,-0.4172351915142373 l 1.649309158276773,-0.5042444128959599 l 1.5875661765463525,-0.6738818610100913 l 1.3403195409794026,-1.0853693636643664 l 1.1540288075212997,-1.281678836106532 l 1.0379317085730226,-1.3773818990574527 l 0.7829833369771837,-1.5366913227868837 l 0.7014860756978112,-1.5755635223990536 l -0.12030682716768565,-1.7204677837289697 l -0.26979767093300083,-1.7034354535090424 l -0.6180660898446673,-1.6101172119123974 l -0.8096830463563975,-1.5227923338247578 l -1.2816788361065423,-1.1540288075212886 l -1.5501222206858358,-0.7560451232885781 l -1.707884630647655,0.2400275315665918 l -1.412766129460939,0.9892294935758765 l -1.2195251386323376,1.2195251386323311 l -0.8096830463564191,1.5227923338247462 l -0.5042444128959744,1.6493091582767685 l 0.15031480687906487,1.7181061045073258 l 0.417235191514234,1.6734389509254612 l 0.8882701968316933,1.4783298633704907 l 1.1085958580381823,1.3211730965520811 l 1.198055750666909,1.2406230474267266 l 1.2195251386323245,1.2195251386323442 l 1.3211730965520792,1.1085958580381847 l 1.3773818990574502,1.0379317085730253 l 1.3952865231548879,1.0137349978247632 l 1.4127661294609284,0.9892294935758918 l 1.4127661294609284,0.9892294935758918 l 1.4127661294609284,0.9892294935758918 l 1.4127661294609284,0.9892294935758918 l 1.4298153935181483,0.9644226604404164 l 1.4626022540705983,0.9139353226022252 l 1.4783298633704762,0.8882701968317172 l 1.4936071590730564,0.8623344953544084 l 1.5501222206858385,0.7560451232885728 l 1.6734389509254606,0.4172351915142373 l 1.7034354535090408,0.26979767093301005 l 1.7181061045073245,-0.15031480687908003 l 1.5630809363400078,-0.7288766109314202 l 1.3952865231548954,-1.013734997824753 l 0.7014860756978228,-1.5755635223990485 l 0.5329520278005062,-1.6402576820657653 l 9.026220083128825e-2,-1.722305391797146 l -0.5614973003545238,-1.63070656747528 l -1.061812255268188,-1.3590577110905604 l -1.610117211912396,-0.6180660898446703 l -1.630706567475275,-0.5614973003545389 l -1.7236183689586329,6.0190079754142436e-2 l -1.657858238940952,0.47538320025852243 l -1.359057711090566,1.0618122552681808 l -1.359057711090566,1.0618122552681808 l -1.1314846633744382,1.301624210001052 l -0.9892294935758947,1.4127661294609266 l -0.26979767093301343,1.7034354535090404 l 0.3879661078541173,1.6804658362099945 l 0.6738818610100764,1.587566176546359 l 0.8096830463564134,1.5227923338247495 l 1.0379317085730124,1.3773818990574602 l 1.176221423314022,1.2613430504226695 l 1.219525138632333,1.2195251386323358 l 1.2406230474267155,1.1980557506669203 l 1.2613430504226666,1.1762214233140251 l 1.2613430504226666,1.1762214233140251 l 1.2613430504226666,1.1762214233140251 l 1.2613430504226666,1.1762214233140251 l 1.2613430504226666,1.1762214233140251 l 1.281678836106538,1.1540288075212937 l 1.3016242100010458,1.131484663374445 l 1.321173096552071,1.1085958580381945 l 1.429815393518155,0.9644226604404066 l 1.4936071590730622,0.8623344953543982 l 1.5366913227868875,0.7829833369771763 l 1.6493091582767692,0.504244412895972 l 1.6929819637289802,0.3290823574742255 l 1.7152210735225784,0.180276999244171 l 1.72046778372897,0.1203068271676831 l 1.6869808353217794,-0.3585788459592395 l 1.3590577110905775,-1.0618122552681661 l 1.1762214233140318,-1.2613430504226602 l 1.0379317085730233,-1.3773818990574518 l 0.26979767093298335,-1.703435453509045 l -0.561497300354535,-1.6307065674752763 l -0.5898715353915708,-1.6206587238673105 l -1.4127661294609246,-0.9892294935758974 l -1.493607159073065,-0.862334495354393 l -1.7152210735225788,-0.18027699924416513 l -1.5084294875661068,0.8361361184361552 l -1.3211730965520756,1.108595858038189 l -0.939322054819951,1.446429121955602 l -0.939322054819951,1.446429121955602 l -0.44637718129319776,1.6659023199255014 l -0.21018427748891225,1.711813569583117 l 0.2697976709329817,1.7034354535090455 l 0.329082357474209,1.6929819637289834 l 0.35857884595923617,1.68698083532178 l 0.4753832002585248,1.6578582389409509 l 0.5329520278004934,1.6402576820657693 l 0.5898715353915533,1.620658723867317 l 0.5898715353915533,1.620658723867317 l 0.5898715353915533,1.620658723867317 l 0.5898715353915533,1.620658723867317 l 0.5898715353915533,1.620658723867317 l 0.5898715353915533,1.620658723867317 l 0.5898715353915533,1.620658723867317 l 0.6180660898446718,1.6101172119123957 l 0.756045123288569,1.5501222206858403 l 0.8361361184361469,1.5084294875661115 l 0.9892294935758885,1.4127661294609308 l 1.1085958580381816,1.3211730965520818 l 1.4626022540705976,0.9139353226022263 l 1.657858238940943,0.47538320025855324 l 1.686980835321779,0.3585788459592411 l 1.6984673934297403,0.29948562731525574 l 1.7204677837289681,-0.12030682716770588 l 1.4464291219556045,-0.9393220548199465 l 1.3016242100010633,-1.1314846633744253 l 0.6180660898446853,-1.6101172119123905 l 0.32908235747422304,-1.692981963728981 l 0.1503148068790783,-1.7181061045073245 l -0.4172351915142152,-1.6734389509254661 l -0.701486075697816,-1.5755635223990514 l -1.5084294875661002,-0.8361361184361678 l -1.6659023199255008,-0.44637718129320103 l -1.7118135695831165,-0.2101842774889156 l -1.7181061045073238,0.15031480687908508 l -1.6659023199255076,0.44637718129317494 l -1.4464291219556016,0.9393220548199515 l -1.377381899057455,1.037931708573019 l -1.06181225526817,1.3590577110905744 l -0.8096830463564311,1.5227923338247398 l -0.8096830463564311,1.5227923338247398 l -0.7014860756978182,1.5755635223990505 l -0.6180660898446798,1.6101172119123925 l -0.5614973003545486,1.6307065674752717 l -0.5614973003545486,1.6307065674752717 l -0.5614973003545486,1.6307065674752717 l -0.5614973003545486,1.6307065674752717 l -0.5614973003545486,1.6307065674752717 l -0.5329520278005246,1.640257682065759 l -0.47538320025855635,1.657858238940942 l -0.3879661078541132,1.6804658362099953 l -0.21018427748892482,1.7118135695831156 l -0.18027699924416263,1.715221073522579 l -3.0099624195631662e-2,1.7244063152678692 l 0.18027699924414162,1.7152210735225815 l 0.5329520278005047,1.6402576820657657 l 0.9892294935758781,1.4127661294609382 l 1.1540288075212901,1.281678836106541 l 1.3403195409793789,1.0853693636643962 l 1.5501222206858325,0.756045123288585 l 1.7204677837289692,-0.12030682716769321 l 1.4783298633704771,-0.8882701968317156 l 0.809683046356426,-1.5227923338247424 l 0.21018427748891894,-1.711813569583116 l -0.3290823574742023,-1.692981963728985 l -0.4463771812931716,-1.6659023199255085 l -0.8623344953543779,-1.493607159073074 l -0.9892294935758829,-1.4127661294609348 l -1.4783298633704722,-0.8882701968317238 l -1.6206587238673127,-0.5898715353915646 l -1.7078846306476552,0.2400275315665902 l -1.5755635223990605,0.7014860756977958 l -1.3211730965520763,1.108595858038188 l -1.06181225526818,1.3590577110905664 l -0.9644226604404099,1.4298153935181528 l -0.78298333697718,1.5366913227868857 l -0.7288766109314249,1.5630809363400058 l -0.5614973003545375,1.6307065674752754 l -0.44637718129319864,1.6659023199255014 l -0.41723519151422994,1.6734389509254626 l -0.41723519151422994,1.6734389509254626 l -0.41723519151422994,1.6734389509254626 l -0.41723519151422994,1.6734389509254626 l -0.41723519151422994,1.6734389509254626 l -0.3879661078541255,1.6804658362099925 l -0.32908235747422965,1.6929819637289796 l -0.2994856273152474,1.6984673934297416 l -9.026220083129584e-2,1.7223053917971456 l 0.12030682716768983,1.7204677837289695 l 0.26979767093298085,1.7034354535090455 l 0.7014860756978097,1.5755635223990543 l 0.9892294935758879,1.4127661294609315 l 1.240623047426706,1.19805575066693 l 1.5755635223990514,0.701486075697816 l 1.5875661765463422,0.6738818610101154 l 1.6307065674752723,0.5614973003545463 l 1.6804658362099996,-0.3879661078540951 l 1.4783298633704711,-0.8882701968317258 l 1.1085958580381932,-1.321173096552072 l 0.9892294935759008,-1.4127661294609222 l 0.7829833369771747,-1.5366913227868884 l 0.7014860756978244,-1.5755635223990478 l -0.21018427748889712,-1.7118135695831185 l -0.3585788459592411,-1.686980835321779 l -0.5898715353915581,-1.6206587238673151 l -1.0379317085730064,-1.3773818990574647 l -1.1762214233140165,-1.2613430504226746 l -1.2816788361065323,-1.1540288075212992 l -1.5875661765463447,-0.6738818610101099 l -1.6804658362099918,-0.3879661078541288 l -1.7236183689586322,-6.019007975416947e-2 l -1.703435453509046,0.26979767093297746 l -1.6578582389409522,0.4753832002585207 l -1.5875661765463462,0.673881861010106 l -1.5366913227868972,0.7829833369771575 l -1.5366913227868972,0.7829833369771575 l -1.5227923338247458,0.8096830463564199 l -1.5227923338247458,0.8096830463564199 l -1.5227923338247458,0.8096830463564199 l -1.5227923338247458,0.8096830463564199 l -1.5227923338247458,0.8096830463564199 l -1.4936071590730726,0.86233449535438 l -1.446429121955602,0.939322054819951 l -1.3952865231548786,1.013734997824776 l -1.2613430504226808,1.1762214233140098 l -1.1762214233140376,1.261343050422655 l -0.9139353226022295,1.4626022540705956 l -0.3585788459592452,1.6869808353217781 l -0.24002753156661522,1.7078846306476516 l 0.12030682716770164,1.7204677837289686 l 0.5042444128959429,1.649309158276778 l 0.8623344953543718,1.4936071590730773 l 1.2613430504226653,1.1762214233140262 l 1.5084294875661026,0.8361361184361632 l 1.71522107352258,-0.18027699924415588 l 1.649309158276781,-0.504244412895934 l 1.301624210001072,-1.1314846633744153 l 1.0853693636643849,-1.3403195409793878 l 0.18027699924415758,-1.71522107352258 l -0.8096830463564171,-1.522792333824747 l -0.8096830463564171,-1.522792333824747 l -1.3773818990574602,-1.0379317085730124 l -1.6402576820657653,-0.5329520278005053 l -1.6984673934297392,-0.2994856273152633 l -1.6869808353217786,0.35857884595924355 l -1.6307065674752719,0.5614973003545478 l -1.5875661765463418,0.673881861010117 l -1.5755635223990607,0.701486075697795 l -1.5630809363400113,0.7288766109314125 l -1.5501222206858476,0.756045123288554 l -1.4936071590730668,0.8623344953543903 l -1.446429121955609,0.9393220548199404 l -1.4298153935181466,0.9644226604404191 l -1.4298153935181466,0.9644226604404191 l -1.4298153935181466,0.9644226604404191 l -1.4298153935181466,0.9644226604404191 l -1.4127661294609406,0.9892294935758748 l -1.3590577110905748,1.0618122552681695 l -1.281678836106544,1.154028807521287 l -1.2406230474267046,1.1980557506669316 l -1.0137349978247974,1.3952865231548632 l -0.7560451232885669,1.5501222206858416 l -0.4172351915142308,1.6734389509254624 l -3.0099624195620678e-2,1.7244063152678695 l 0.15031480687906235,1.718106104507326 l 0.7829833369771596,1.536691322786896 l 1.412766129460927,0.989229493575894 l 1.5875661765463513,0.6738818610100937 l 1.72440631526787,-3.009962419558772e-2 l 1.587566176546349,-0.6738818610100998 l 0.939322054819968,-1.4464291219555907 l 0.26979767093299756,-1.703435453509043 l -0.387966107854109,-1.6804658362099962 l -1.3211730965520811,-1.1085958580381823 l -1.3211730965520811,-1.1085958580381823 l -1.446429121955586,-0.9393220548199757 l -1.723618368958633,6.019007975413992e-2 l -1.575563522399056,0.7014860756978057 l -1.2406230474266966,1.1980557506669398 l -0.5898715353915629,1.6206587238673134 l 3.0099624195608857e-2,1.7244063152678697 l 0.5614973003545501,1.6307065674752708 l 0.9139353226021889,1.462602254070621 l 1.1085958580381894,1.3211730965520752 l 1.1314846633744031,1.3016242100010826 l 1.1540288075212886,1.2816788361065423 l 1.1980557506669332,1.2406230474267033 l 1.1980557506669332,1.2406230474267033 l 1.2195251386323136,1.2195251386323551 l 1.2195251386323136,1.2195251386323551 l 1.2195251386323136,1.2195251386323551 l 1.2195251386323136,1.2195251386323551 l 1.2195251386323136,1.2195251386323551 l 1.2406230474266966,1.1980557506669398 l 1.321173096552069,1.1085958580381967 l 1.340319540979393,1.0853693636643784 l 1.4464291219556025,0.9393220548199502 l 1.4783298633704682,0.8882701968317301 l 1.599085242657181,0.6460723753794556 l 1.7223053917971456,9.026220083129416e-2 l 1.7118135695831191,-0.21018427748889298 l 1.707884630647653,-0.2400275315666069 l 1.4936071590730702,-0.8623344953543843 l 1.1762214233140158,-1.261343050422675 l 0.5898715353915803,-1.620658723867307 l -0.21018427748888371,-1.7118135695831203 l -0.8361361184361397,-1.5084294875661157 l -1.0137349978247727,-1.395286523154881 l -1.5501222206858343,-0.7560451232885812 l -1.680465836209994,-0.38796610785411817 l -1.7223053917971451,9.026220083130598e-2 l -1.5875661765463513,0.6738818610100937 l -1.21952513863234,1.2195251386323285 l -0.9393220548199734,1.4464291219555871 l -0.728876610931404,1.5630809363400153 l -0.41723519151420785,1.673438950925468 l 0.12030682716768813,1.7204677837289697 l 0.2101842774889139,1.7118135695831167 l 0.2400275315665793,1.7078846306476567 l 0.3585788459592097,1.6869808353217857 l 0.4463771812931758,1.6659023199255076 l 0.4463771812931758,1.6659023199255076 l 0.5042444128959299,1.6493091582767823 l 0.5614973003545152,1.630706567475283 l 0.589871535391574,1.6206587238673094 l 0.589871535391574,1.6206587238673094 l 0.589871535391574,1.6206587238673094 l 0.589871535391574,1.6206587238673094 l 0.589871535391574,1.6206587238673094 l 0.646072375379458,1.5990852426571802 l 0.7014860756978082,1.5755635223990547 l 0.8096830463564214,1.5227923338247449 l 0.8361361184361662,1.5084294875661008 l 1.0853693636643802,1.3403195409793913 l 1.301624210001052,1.1314846633744382 l 1.5755635223990407,0.7014860756978398 l 1.7223053917971463,9.026220083128234e-2 l 1.6402576820657653,-0.5329520278005054 l 1.176221423314043,-1.26134305042265 l 0.475383200258541,-1.6578582389409464 l -0.41723519151421273,-1.6734389509254666 l -1.0137349978247823,-1.395286523154874 l -1.5501222206858394,-0.7560451232885705 l -1.6984673934297365,-0.2994856273152765 l -1.711813569583116,-0.21018427748891813 l -1.5501222206858323,0.7560451232885858 l -1.1762214233140207,1.2613430504226704 l -0.6460723753794705,1.599085242657175 l 3.0099624195583503e-2,1.72440631526787 l 0.47538320025851016,1.6578582389409553 l 1.1762214233140194,1.2613430504226717 l 1.6206587238673016,0.5898715353915954 l 1.7246689907087762,1.0138129723488956e-14 l 1.7118135695831163,-0.21018427748891644 l 1.6929819637289834,-0.329082357474209 l 1.5990852426571793,-0.6460723753794603 l 1.5875661765463542,-0.6738818610100873 l 1.563080936340025,-0.7288766109313835 l 1.5227923338247438,-0.8096830463564237 l 1.4936071590730828,-0.8623344953543624 l 1.4783298633704658,-0.8882701968317346 l 1.4783298633704658,-0.8882701968317346 l 1.4783298633704658,-0.8882701968317346 l 1.4783298633704658,-0.8882701968317346 l 1.4783298633704658,-0.8882701968317346 l 1.4783298633704658,-0.8882701968317346 l 1.4783298633704658,-0.8882701968317346 l 1.4626022540706134,-0.913935322602201 l 1.2816788361065656,-1.154028807521263 l 1.0618122552681672,-1.3590577110905766 l 0.913935322602226,-1.4626022540705976 l 0.41723519151421434,-1.6734389509254664 l 0.24002753156661108,-1.7078846306476523 l 6.019007975417454e-2,-1.7236183689586322 l -0.701486075697802,-1.5755635223990576 l -1.085369363664375,-1.340319540979396 l -1.3211730965520725,-1.1085958580381927 l -1.5630809363400087,-0.7288766109314186 l -1.686980835321777,-0.3585788459592502 l -1.69846739342974,0.2994856273152566 l -1.563080936340012,0.7288766109314111 l -0.8361361184361678,1.5084294875661002 l -0.29948562731527406,1.698467393429737 l -0.2697976709329808,1.7034354535090455 l 0.18027699924415083,1.7152210735225804 l 0.35857884595923284,1.6869808353217808 l 0.7288766109314027,1.5630809363400162 l 0.939322054819931,1.4464291219556147 l 1.0379317085729995,1.37738189905747 l 1.4127661294609257,0.9892294935758954 l 1.462602254070609,0.913935322602208 l 1.5366913227868804,0.7829833369771905 l 1.5501222206858367,0.7560451232885765 l 1.563080936340001,0.7288766109314354 l 1.5990852426571762,0.6460723753794682 l 1.6101172119124012,0.6180660898446568 l 1.6206587238673054,0.5898715353915842 l 1.6206587238673054,0.5898715353915842 l 1.6206587238673054,0.5898715353915842 l 1.6206587238673054,0.5898715353915842 l 1.6206587238673054,0.5898715353915842 l 1.6307065674752794,0.5614973003545254 l 1.6659023199255045,0.44637718129318626 l 1.6869808353217735,0.3585788459592684 l 1.7181061045073232,0.15031480687909685 l 1.7246689907087762,-1.6939584340872517e-15 l 1.711813569583121,-0.21018427748887952 l 1.5501222206858352,-0.7560451232885796 l 1.478329863370485,-0.8882701968317026 l 1.4626022540706072,-0.9139353226022111 l 1.3403195409793824,-1.0853693636643915 l 1.013734997824774,-1.39528652315488 l 0.9644226604404074,-1.4298153935181546 l 0.6460723753794768,-1.599085242657173 l -0.3290823574742114,-1.6929819637289831 l -0.8623344953543646,-1.4936071590730817 l -1.2406230474267086,-1.1980557506669276 l -1.6206587238673158,-0.5898715353915558 l -1.6734389509254632,0.41723519151422667 l -1.2406230474266977,1.1980557506669387 l -0.5329520278005047,1.6402576820657657 l 0.32908235747419323,1.6929819637289865 l 0.5042444128959639,1.6493091582767718 l 0.6180660898446798,1.6101172119123925 l 0.8623344953543485,1.493607159073091 l 0.939322054819941,1.4464291219556087 l 1.1540288075212874,1.2816788361065434 l 1.2406230474266955,1.1980557506669411 l 1.3016242100010433,1.1314846633744482 l 1.3952865231548637,1.0137349978247965 l 1.429815393518139,0.9644226604404303 l 1.429815393518139,0.9644226604404303 l 1.429815393518139,0.9644226604404303 l 1.429815393518139,0.9644226604404303 l 1.429815393518139,0.9644226604404303 l 1.429815393518139,0.9644226604404303 l 1.429815393518139,0.9644226604404303 l 1.4464291219556016,0.9393220548199515 l 1.4936071590730602,0.8623344953544019 l 1.5084294875661015,0.8361361184361654 l 1.5227923338247453,0.8096830463564206 l 1.5630809363400058,0.7288766109314249 l 1.587566176546336,0.6738818610101293 l 1.7118135695831167,0.21018427748891308 l 1.72440631526787,-3.009962419559787e-2 l 1.5875661765463451,-0.6738818610101092 l 1.35905771109058,-1.0618122552681626 l 1.2816788361065499,-1.1540288075212806 l 0.9892294935758932,-1.4127661294609273 l -3.0099624195588575e-2,-1.72440631526787 l -0.4172351915141995,-1.67343895092547 l -1.377381899057444,-1.037931708573034 l -1.7152210735225808,-0.18027699924414498 l -1.4936071590730804,0.8623344953543669 l -0.9139353226022218,1.4626022540706005 l 0.15031480687908425,1.718106104507324 l 0.2400275315665776,1.707884630647657 l 0.3879661078541008,1.6804658362099982 l 0.44637718129317416,1.6659023199255079 l 0.5614973003545135,1.6307065674752836 l 0.7014860756978066,1.5755635223990556 l 1.0379317085730186,1.3773818990574558 l 1.3016242100010509,1.1314846633744393 l 1.4783298633704733,0.8882701968317216 l 1.4936071590730657,0.8623344953543919 l 1.536691322786891,0.7829833369771695 l 1.536691322786891,0.7829833369771695 l 1.5630809363400109,0.728876610931414 l 1.5755635223990403,0.7014860756978414 l 1.5755635223990403,0.7014860756978414 l 1.5755635223990403,0.7014860756978414 l 1.5755635223990403,0.7014860756978414 l 1.587566176546341,0.6738818610101185 l 1.6101172119123923,0.6180660898446805 l 1.6493091582767714,0.5042444128959647 l 1.665902319925498,0.4463771812932108 l 1.6869808353217781,0.3585788459592452 l 1.7152210735225788,0.18027699924416346 l 1.7181061045073251,0.1503148068790733 l 1.7223053917971463,9.026220083128403e-2 l 1.7152210735225788,-0.18027699924416513 l 1.5084294875661064,-0.8361361184361564 l 0.9393220548199495,-1.4464291219556031 l 3.0099624195617302e-2,-1.7244063152678695 l -3.0099624195600402e-2,-1.7244063152678697 l -0.7829833369771627,-1.5366913227868944 l -0.7829833369771627,-1.5366913227868944 l -1.198055750666927,-1.2406230474267088 l -1.3773818990574511,-1.0379317085730246 l -1.446429121955598,-0.9393220548199572 l -1.7244063152678695,-3.0099624195626586e-2 l -1.6101172119123985,0.6180660898446648 l -1.5084294875661155,0.8361361184361402 l -1.176221423314022,1.2613430504226695 l -0.939322054819965,1.446429121955593 l -0.7288766109314393,1.563080936339999 l -0.210184277488929,1.7118135695831147 l -0.15031480687910106,1.7181061045073225 l 0.3290823574742164,1.6929819637289822 l 0.7014860756978175,1.575563522399051 l 0.9139353226022073,1.4626022540706094 l 0.9139353226022073,1.4626022540706094 l 1.0137349978247658,1.395286523154886 l 1.0618122552681502,1.35905771109059 l 1.0853693636643882,1.340319540979385 l 1.0853693636643882,1.340319540979385 l 1.0853693636643882,1.340319540979385 " /></g></svg>