<?xml version="1.0" encoding="UTF-8"?>
<!DOCTYPE svg PUBLIC "-//W3C//DTD SVG 1.1//EN"
    "http://www.w3.org/Graphics/SVG/1.1/DTD/svg11.dtd">
<svg xmlns="http://www.w3.org/2000/svg" xmlns:xlink="http://www.w3.org/1999/xlink" version="1.1" width="400.0" height="400.0" viewBox="0 0 400 400"><g fill="rgb(0,0,0)" fill-opacity="0" fill-rule="nonzero" font-family="Sans" font-size="1" font-style="normal" opacity="1" stroke="rgb(0,0,0)" stroke-opacity="1" stroke-width="0.5" stroke-linecap="butt" stroke-linejoin="miter" text-anchor="middle"><path d="M 255.94941163221216,272.91469283463545 h 111.89882326442351 h -111.89882326442351 l 111.47301445872398,-9.752625054199763 l -111.47301445872398,9.752625054199763 l 110.1988287037471,-19.43102674294105 l -110.1988287037471,19.43102674294105 l 108.08596332246269,-28.961546585393826 l -108.08596332246269,28.961546585393826 l 105.15049849620532,-38.271651570871796 l -105.15049849620532,38.271651570871796 l 101.41477488478486,-47.2904861788404 l -101.41477488478486,47.2904861788404 l 96.90722360057592,-55.94941163221175 l -96.90722360057592,55.94941163221175 l 91.66214983058511,-64.18252827988357 l -91.66214983058511,64.18252827988357 l 85.71947175326426,-71.9271771328753 l -85.71947175326426,71.9271771328753 l 79.12441673706887,-79.12441673706886 l -79.12441673706887,79.12441673706886 l 71.92717713287531,-85.71947175326426 l -71.92717713287531,85.71947175326426 l 64.18252827988357,-91.66214983058511 l -64.18252827988357,91.66214983058511 l 55.94941163221177,-96.9072236005759 l -55.94941163221177,96.9072236005759 l 47.2904861788404,-101.41477488478486 l -47.2904861788404,101.41477488478486 l 38.27165157087181,-105.15049849620529 l -38.27165157087181,105.15049849620529 l 28.961546585393826,-108.08596332246269 l 28.961546585393826,-108.08596332246269 l -28.961546585393826,108.08596332246269 l 19.431026742941057,-110.1988287037471 l -19.431026742941057,110.1988287037471 l 9.752625054199783,-111.47301445872398 l -9.752625054199783,111.47301445872398 l 6.8518267869565815e-15,-111.89882326442351 l -6.8518267869565815e-15,111.89882326442351 l -9.752625054199768,-111.47301445872398 l 9.752625054199768,111.47301445872398 l -19.431026742941047,-110.1988287037471 l 19.431026742941047,110.1988287037471 l -28.961546585393837,-108.08596332246269 l 28.961546585393837,108.08596332246269 l -38.271651570871796,-105.15049849620532 l 38.271651570871796,105.15049849620532 l -47.29048617884039,-101.41477488478488 l 47.29048617884039,101.41477488478488 l -55.94941163221173,-96.90722360057592 l 55.94941163221173,96.90722360057592 l -64.18252827988353,-91.66214983058514 l 64.18252827988353,91.66214983058514 l -71.9271771328753,-85.71947175326426 l 71.9271771328753,85.71947175326426 l -79.12441673706886,-79.12441673706887 l 79.12441673706886,79.12441673706887 l -85.71947175326424,-71.92717713287531 l 85.71947175326424,71.92717713287531 l -91.66214983058512,-64.18252827988356 l 91.66214983058512,64.18252827988356 l -96.90722360057592,-55.94941163221175 l -96.90722360057592,-55.94941163221175 l 96.90722360057592,55.94941163221175 l -101.41477488478486,-47.29048617884041 l 101.41477488478486,47.29048617884041 l -105.15049849620529,-38.271651570871825 l 105.15049849620529,38.271651570871825 l -108.08596332246269,-28.961546585393858 l 108.08596332246269,28.961546585393858 l -110.1988287037471,-19.43102674294109 l 110.1988287037471,19.43102674294109 l -111.47301445872398,-9.752625054199765 l 111.47301445872398,9.752625054199765 l -111.89882326442351,-1.3703653573913163e-14 l 111.89882326442351,1.3703653573913163e-14 l -111.47301445872398,9.752625054199736 l 111.47301445872398,-9.752625054199736 l -110.1988287037471,19.431026742941068 l 110.1988287037471,-19.431026742941068 l -108.0859633224627,28.96154658539378 l 108.0859633224627,-28.96154658539378 l -105.15049849620532,38.271651570871796 l 105.15049849620532,-38.271651570871796 l -101.41477488478488,47.29048617884038 l 101.41477488478488,-47.29048617884038 l -96.9072236005759,55.94941163221177 l 96.9072236005759,-55.94941163221177 l -91.66214983058514,64.18252827988353 l 91.66214983058514,-64.18252827988353 l -85.71947175326426,71.9271771328753 l 85.71947175326426,-71.9271771328753 l -79.12441673706888,79.12441673706886 l -79.12441673706888,79.12441673706886 l 79.12441673706888,-79.12441673706886 l -71.92717713287533,85.71947175326424 l 71.92717713287533,-85.71947175326424 l -64.1825282798836,91.6621498305851 l 64.1825282798836,-91.6621498305851 l -55.9494116322118,96.90722360057588 l 55.9494116322118,-96.90722360057588 l -47.29048617884036,101.41477488478489 l 47.29048617884036,-101.41477488478489 l -38.27165157087187,105.15049849620527 l 38.27165157087187,-105.15049849620527 l -28.961546585393812,108.08596332246269 l 28.961546585393812,-108.08596332246269 l -19.43102674294105,110.1988287037471 l 19.43102674294105,-110.1988287037471 l -9.75262505419977,111.47301445872398 l 9.75262505419977,-111.47301445872398 l -2.0555480360869744e-14,111.89882326442351 l 2.0555480360869744e-14,-111.89882326442351 l 9.752625054199731,111.47301445872398 l -9.752625054199731,-111.47301445872398 l 19.43102674294101,110.19882870374713 l -19.43102674294101,-110.19882870374713 l 28.961546585393773,108.0859633224627 l -28.961546585393773,-108.0859633224627 l 38.27165157087184,105.15049849620529 l -38.27165157087184,-105.15049849620529 l 47.29048617884033,101.4147748847849 l -47.29048617884033,-101.4147748847849 l 55.949411632211756,96.9072236005759 l 55.949411632211756,96.9072236005759 l -55.949411632211756,-96.9072236005759 l 64.18252827988357,91.66214983058511 l -64.18252827988357,-91.66214983058511 l 71.9271771328753,85.71947175326426 l -71.9271771328753,-85.71947175326426 l 79.12441673706886,79.12441673706888 l -79.12441673706886,-79.12441673706888 l 85.71947175326424,71.92717713287533 l -85.71947175326424,-71.92717713287533 l 91.6621498305851,64.1825282798836 l -91.6621498305851,-64.1825282798836 l 96.90722360057588,55.9494116322118 l -96.90722360057588,-55.9494116322118 l 101.41477488478488,47.290486178840375 l -101.41477488478488,-47.290486178840375 l 105.15049849620527,38.271651570871875 l -105.15049849620527,-38.271651570871875 l 108.08596332246269,28.961546585393815 l -108.08596332246269,-28.961546585393815 l 110.1988287037471,19.431026742941057 l -110.1988287037471,-19.431026742941057 l 111.47301445872398,9.752625054199779 l -111.47301445872398,-9.752625054199779 l 111.89882326442351,2.7407307147826326e-14 l -111.89882326442351,-2.7407307147826326e-14 l 111.47301445872398,-9.752625054199724 l -111.47301445872398,9.752625054199724 l 110.19882870374713,-19.431026742941004 l -110.19882870374713,19.431026742941004 l 108.08596332246269,-28.96154658539387 l 108.08596332246269,-28.96154658539387 l -108.08596332246269,28.96154658539387 l 105.15049849620529,-38.27165157087183 l -105.15049849620529,38.27165157087183 l 101.4147748847849,-47.290486178840325 l -101.4147748847849,47.290486178840325 l 96.90722360057595,-55.94941163221167 l -96.90722360057595,55.94941163221167 l 91.66214983058511,-64.18252827988357 l -91.66214983058511,64.18252827988357 l 85.71947175326426,-71.9271771328753 l -85.71947175326426,71.9271771328753 l 79.12441673706888,-79.12441673706886 l -79.12441673706888,79.12441673706886 l 71.92717713287534,-85.71947175326423 l -71.92717713287534,85.71947175326423 l 64.18252827988361,-91.66214983058507 l -64.18252827988361,91.66214983058507 l 55.94941163221173,-96.90722360057592 l -55.94941163221173,96.90722360057592 l 47.29048617884038,-101.41477488478488 l -47.29048617884038,101.41477488478488 l 38.27165157087188,-105.15049849620527 l -38.27165157087188,105.15049849620527 l 28.961546585393926,-108.08596332246267 l -28.961546585393926,108.08596332246267 l 19.43102674294106,-110.1988287037471 l -19.43102674294106,110.1988287037471 l 9.752625054199784,-111.47301445872398 l -9.752625054199784,111.47301445872398 l 3.425913393478291e-14,-111.89882326442351 l 3.425913393478291e-14,-111.89882326442351 l -3.425913393478291e-14,111.89882326442351 l -9.752625054199717,-111.47301445872398 l 9.752625054199717,111.47301445872398 l -19.431026742940997,-110.19882870374713 l 19.431026742940997,110.19882870374713 l -28.96154658539376,-108.0859633224627 l 28.96154658539376,108.0859633224627 l -38.271651570871725,-105.15049849620533 l 38.271651570871725,105.15049849620533 l -47.29048617884032,-101.4147748847849 l 47.29048617884032,101.4147748847849 l -55.94941163221166,-96.90722360057596 l 55.94941163221166,96.90722360057596 l -64.18252827988364,-91.66214983058505 l 64.18252827988364,91.66214983058505 l -71.92717713287536,-85.7194717532642 l 71.92717713287536,85.7194717532642 l -79.12441673706877,-79.12441673706897 l 79.12441673706877,79.12441673706897 l -85.71947175326416,-71.92717713287543 l 85.71947175326416,71.92717713287543 l -91.66214983058502,-64.1825282798837 l 91.66214983058502,64.1825282798837 l -96.90722360057592,-55.94941163221173 l 96.90722360057592,55.94941163221173 l -101.41477488478488,-47.29048617884039 l 101.41477488478488,47.29048617884039 l -105.15049849620532,-38.271651570871796 l 105.15049849620532,38.271651570871796 l -108.08596332246269,-28.961546585393837 l -108.08596332246269,-28.961546585393837 l 108.08596332246269,28.961546585393837 l -110.1988287037471,-19.43102674294107 l 110.1988287037471,19.43102674294107 l -111.47301445872398,-9.752625054199791 l 111.47301445872398,9.752625054199791 l -111.89882326442351,-4.111096072173949e-14 l 111.89882326442351,4.111096072173949e-14 l -111.47301445872398,9.752625054199711 l 111.47301445872398,-9.752625054199711 l -110.19882870374713,19.43102674294099 l 110.19882870374713,-19.43102674294099 l -108.0859633224627,28.961546585393748 l 108.0859633224627,-28.961546585393748 l -105.15049849620533,38.27165157087172 l 105.15049849620533,-38.27165157087172 l -101.41477488478493,47.29048617884031 l 101.41477488478493,-47.29048617884031 l -96.90722360057596,55.94941163221166 l 96.90722360057596,-55.94941163221166 l -91.66214983058505,64.18252827988364 l 91.66214983058505,-64.18252827988364 l -85.7194717532642,71.92717713287536 l 85.7194717532642,-71.92717713287536 l -79.12441673706884,79.1244167370689 l 79.12441673706884,-79.1244167370689 l -71.92717713287543,85.71947175326414 l 71.92717713287543,-85.71947175326414 l -64.18252827988371,91.66214983058501 l 64.18252827988371,-91.66214983058501 l -55.949411632211735,96.90722360057592 l -55.949411632211735,96.90722360057592 l 55.949411632211735,-96.90722360057592 l -47.290486178840396,101.41477488478488 l 47.290486178840396,-101.41477488478488 l -38.2716515708718,105.15049849620532 l 38.2716515708718,-105.15049849620532 l -28.961546585393844,108.08596332246269 l 28.961546585393844,-108.08596332246269 l -19.431026742941075,110.1988287037471 l 19.431026742941075,-110.1988287037471 l -9.752625054199799,111.47301445872398 l 9.752625054199799,-111.47301445872398 l -4.7962787508696066e-14,111.89882326442351 l 4.7962787508696066e-14,-111.89882326442351 l 9.752625054199703,111.47301445872398 l -9.752625054199703,-111.47301445872398 l 19.431026742940986,110.19882870374713 l -19.431026742940986,-110.19882870374713 l 28.961546585393744,108.0859633224627 l -28.961546585393744,-108.0859633224627 l 38.27165157087171,105.15049849620533 l -38.27165157087171,-105.15049849620533 l 47.2904861788403,101.41477488478493 l -47.2904861788403,-101.41477488478493 l 55.94941163221166,96.90722360057596 l -55.94941163221166,-96.90722360057596 l 64.18252827988363,91.66214983058507 l -64.18252827988363,-91.66214983058507 l 71.92717713287534,85.7194717532642 l -71.92717713287534,-85.7194717532642 l 79.12441673706876,79.12441673706897 l 79.12441673706876,79.12441673706897 l -79.12441673706876,-79.12441673706897 l 85.71947175326414,71.92717713287543 l -85.71947175326414,-71.92717713287543 l 91.66214983058501,64.18252827988371 l -91.66214983058501,-64.18252827988371 l 96.90722360057592,55.949411632211735 l -96.90722360057592,-55.949411632211735 l 101.41477488478486,47.2904861788404 l -101.41477488478486,-47.2904861788404 l 105.15049849620529,38.27165157087181 l -105.15049849620529,-38.27165157087181 l 108.08596332246269,28.961546585393847 l -108.08596332246269,-28.961546585393847 l 110.1988287037471,19.431026742941086 l -110.1988287037471,-19.431026742941086 l 111.47301445872398,9.752625054199804 l -111.47301445872398,-9.752625054199804 l 111.89882326442351,5.481461429565265e-14 l -111.89882326442351,-5.481461429565265e-14 l 111.47301445872398,-9.752625054199697 l -111.47301445872398,9.752625054199697 l 110.19882870374713,-19.431026742940976 l -110.19882870374713,19.431026742940976 l 108.08596332246272,-28.961546585393737 l -108.08596332246272,28.961546585393737 l 105.15049849620533,-38.27165157087171 l -105.15049849620533,38.27165157087171 l 101.41477488478483,-47.290486178840474 l -101.41477488478483,47.290486178840474 l 96.90722360057586,-55.94941163221183 l 96.90722360057586,-55.94941163221183 l -96.90722360057586,55.94941163221183 l 91.66214983058507,-64.18252827988363 l -91.66214983058507,64.18252827988363 l 85.7194717532642,-71.92717713287534 l -85.7194717532642,71.92717713287534 l 79.12441673706884,-79.1244167370689 l -79.12441673706884,79.1244167370689 l 71.92717713287543,-85.71947175326414 l -71.92717713287543,85.71947175326414 l 64.18252827988371,-91.66214983058501 l -64.18252827988371,91.66214983058501 l 55.94941163221191,-96.9072236005758 l -55.94941163221191,96.9072236005758 l 47.29048617884059,-101.41477488478478 l -47.29048617884059,101.41477488478478 l 38.271651570871825,-105.15049849620529 l -38.271651570871825,105.15049849620529 l 28.961546585393858,-108.08596332246269 l -28.961546585393858,108.08596332246269 l 19.43102674294109,-110.1988287037471 l -19.43102674294109,110.1988287037471 l 9.752625054199813,-111.47301445872398 l -9.752625054199813,111.47301445872398 l 6.166644108260923e-14,-111.89882326442351 l -6.166644108260923e-14,111.89882326442351 l -9.75262505419969,-111.47301445872398 l 9.75262505419969,111.47301445872398 l -19.431026742940972,-110.19882870374714 l 19.431026742940972,110.19882870374714 l -28.961546585393734,-108.08596332246272 l -28.961546585393734,-108.08596332246272 l 28.961546585393734,108.08596332246272 l -38.271651570871704,-105.15049849620534 l 38.271651570871704,105.15049849620534 l -47.290486178840474,-101.41477488478485 l 47.290486178840474,101.41477488478485 l -55.94941163221182,-96.90722360057588 l 55.94941163221182,96.90722360057588 l -64.18252827988361,-91.66214983058507 l 64.18252827988361,91.66214983058507 l -71.92717713287534,-85.71947175326423 l 71.92717713287534,85.71947175326423 l -79.12441673706874,-79.12441673706898 l 79.12441673706874,79.12441673706898 l -85.71947175326414,-71.92717713287544 l 85.71947175326414,71.92717713287544 l -91.662149830585,-64.18252827988373 l 91.662149830585,64.18252827988373 l -96.9072236005758,-55.94941163221193 l 96.9072236005758,55.94941163221193 l -101.41477488478478,-47.290486178840595 l 101.41477488478478,47.290486178840595 l -105.15049849620529,-38.27165157087183 l 105.15049849620529,38.27165157087183 l -108.08596332246269,-28.96154658539386 l 108.08596332246269,28.96154658539386 l -110.1988287037471,-19.431026742941096 l 110.1988287037471,19.431026742941096 l -111.47301445872397,-9.752625054199818 l 111.47301445872397,9.752625054199818 l -111.89882326442351,-6.851826786956582e-14 l -111.89882326442351,-6.851826786956582e-14 l 111.89882326442351,6.851826786956582e-14 l -111.47301445872398,9.752625054199683 l 111.47301445872398,-9.752625054199683 l -110.19882870374714,19.43102674294096 l 110.19882870374714,-19.43102674294096 l -108.08596332246272,28.961546585393727 l 108.08596332246272,-28.961546585393727 l -105.15049849620534,38.2716515708717 l 105.15049849620534,-38.2716515708717 l -101.41477488478485,47.29048617884047 l 101.41477488478485,-47.29048617884047 l -96.90722360057599,55.94941163221163 l 96.90722360057599,-55.94941163221163 l -91.6621498305851,64.1825282798836 l 91.6621498305851,-64.1825282798836 l -85.71947175326437,71.92717713287517 l 85.71947175326437,-71.92717713287517 l -79.12441673706886,79.12441673706888 l 79.12441673706886,-79.12441673706888 l -71.92717713287544,85.71947175326414 l 71.92717713287544,-85.71947175326414 l -64.18252827988357,91.66214983058511 l 64.18252827988357,-91.66214983058511 l -55.94941163221193,96.9072236005758 l 55.94941163221193,-96.9072236005758 l -47.29048617884041,101.41477488478486 l 47.29048617884041,-101.41477488478486 l -38.27165157087165,105.15049849620536 l 38.27165157087165,-105.15049849620536 l -28.96154658539387,108.08596332246269 l -28.96154658539387,108.08596332246269 l 28.96154658539387,-108.08596332246269 l -19.431026742940908,110.19882870374714 l 19.431026742940908,-110.19882870374714 l -9.752625054199827,111.47301445872397 l 9.752625054199827,-111.47301445872397 l -2.7414233468312096e-13,111.89882326442351 l 2.7414233468312096e-13,-111.89882326442351 l 9.752625054199676,111.47301445872398 l -9.752625054199676,-111.47301445872398 l 19.43102674294076,110.19882870374715 l -19.43102674294076,-110.19882870374715 l 28.961546585393716,108.08596332246272 l -28.961546585393716,-108.08596332246272 l 38.271651570871505,105.1504984962054 l -38.271651570871505,-105.1504984962054 l 47.29048617884028,101.41477488478493 l -47.29048617884028,-101.41477488478493 l 55.9494116322118,96.90722360057588 l -55.9494116322118,-96.90722360057588 l 64.18252827988344,91.6621498305852 l -64.18252827988344,-91.6621498305852 l 71.92717713287533,85.71947175326424 l -71.92717713287533,-85.71947175326424 l 79.12441673706874,79.124416737069 l -79.12441673706874,-79.124416737069 l 85.71947175326426,71.9271771328753 l -85.71947175326426,-71.9271771328753 l 91.662149830585,64.18252827988373 l -91.662149830585,-64.18252827988373 l 96.9072236005759,55.94941163221177 l 96.9072236005759,55.94941163221177 l -96.9072236005759,-55.94941163221177 l 101.41477488478478,47.2904861788406 l -101.41477488478478,-47.2904861788406 l 105.15049849620529,38.27165157087184 l -105.15049849620529,-38.27165157087184 l 108.08596332246273,28.96154658539368 l -108.08596332246273,-28.96154658539368 l 110.1988287037471,19.43102674294111 l -110.1988287037471,-19.43102674294111 l 111.47301445872398,9.752625054199635 l -111.47301445872398,-9.752625054199635 l 111.89882326442351,8.222192144347897e-14 l -111.89882326442351,-8.222192144347897e-14 l 111.473014458724,-9.75262505419947 l -111.473014458724,9.75262505419947 l 110.19882870374714,-19.43102674294095 l -110.19882870374714,19.43102674294095 l 108.08596332246277,-28.961546585393528 l -108.08596332246277,28.961546585393528 l 105.15049849620534,-38.27165157087169 l -105.15049849620534,38.27165157087169 l 101.41477488478485,-47.29048617884046 l -101.41477488478485,47.29048617884046 l 96.90722360057599,-55.94941163221162 l -96.90722360057599,55.94941163221162 l 91.66214983058511,-64.1825282798836 l -91.66214983058511,64.1825282798836 l 85.71947175326437,-71.92717713287517 l -85.71947175326437,71.92717713287517 l 79.12441673706886,-79.12441673706887 l 79.12441673706886,-79.12441673706887 l -79.12441673706886,79.12441673706887 l 71.92717713287546,-85.71947175326413 l -71.92717713287546,85.71947175326413 l 64.18252827988357,-91.66214983058511 l -64.18252827988357,91.66214983058511 l 55.949411632211934,-96.9072236005758 l -55.949411632211934,96.9072236005758 l 47.290486178840425,-101.41477488478486 l -47.290486178840425,101.41477488478486 l 38.271651570871654,-105.15049849620536 l -38.271651570871654,105.15049849620536 l 28.96154658539388,-108.08596332246269 l -28.96154658539388,108.08596332246269 l 19.431026742940922,-110.19882870374714 l -19.431026742940922,110.19882870374714 l 9.752625054199841,-111.47301445872397 l -9.752625054199841,111.47301445872397 l -1.09698491796163e-13,-111.89882326442351 l 1.09698491796163e-13,111.89882326442351 l -9.752625054199664,-111.47301445872398 l 9.752625054199664,111.47301445872398 l -19.431026742940745,-110.19882870374717 l 19.431026742940745,110.19882870374717 l -28.961546585393712,-108.08596332246272 l 28.961546585393712,108.08596332246272 l -38.27165157087149,-105.15049849620542 l 38.27165157087149,105.15049849620542 l -47.29048617884027,-101.41477488478493 l 47.29048617884027,101.41477488478493 l -55.94941163221179,-96.90722360057589 l -55.94941163221179,-96.90722360057589 l 55.94941163221179,96.90722360057589 l -64.18252827988343,-91.6621498305852 l 64.18252827988343,91.6621498305852 l -71.92717713287531,-85.71947175326424 l 71.92717713287531,85.71947175326424 l -79.12441673706874,-79.12441673706901 l 79.12441673706874,79.12441673706901 l -85.71947175326426,-71.92717713287531 l 85.71947175326426,71.92717713287531 l -91.662149830585,-64.18252827988375 l 91.662149830585,64.18252827988375 l -96.90722360057589,-55.94941163221178 l 96.90722360057589,55.94941163221178 l -101.41477488478476,-47.29048617884061 l 101.41477488478476,47.29048617884061 l -105.15049849620527,-38.27165157087185 l 105.15049849620527,38.27165157087185 l -108.08596332246273,-28.961546585393695 l 108.08596332246273,28.961546585393695 l -110.19882870374708,-19.431026742941125 l 110.19882870374708,19.431026742941125 l -111.47301445872398,-9.75262505419965 l 111.47301445872398,9.75262505419965 l -111.89882326442351,-9.592557501739213e-14 l 111.89882326442351,9.592557501739213e-14 l -111.473014458724,9.752625054199457 l 111.473014458724,-9.752625054199457 l -110.19882870374714,19.431026742940936 l 110.19882870374714,-19.431026742940936 l -108.08596332246279,28.961546585393513 l -108.08596332246279,28.961546585393513 l 108.08596332246279,-28.961546585393513 l -105.15049849620534,38.27165157087167 l 105.15049849620534,-38.27165157087167 l -101.41477488478486,47.290486178840446 l 101.41477488478486,-47.290486178840446 l -96.90722360057599,55.949411632211614 l 96.90722360057599,-55.949411632211614 l -91.66214983058511,64.18252827988358 l 91.66214983058511,-64.18252827988358 l -85.71947175326437,71.92717713287516 l 85.71947175326437,-71.92717713287516 l -79.12441673706886,79.12441673706887 l 79.12441673706886,-79.12441673706887 l -71.92717713287546,85.71947175326413 l 71.92717713287546,-85.71947175326413 l -64.18252827988358,91.66214983058511 l 64.18252827988358,-91.66214983058511 l -55.949411632211955,96.90722360057579 l 55.949411632211955,-96.90722360057579 l -47.290486178840446,101.41477488478486 l 47.290486178840446,-101.41477488478486 l -38.27165157087167,105.15049849620534 l 38.27165157087167,-105.15049849620534 l -28.9615465853939,108.08596332246267 l 28.9615465853939,-108.08596332246267 l -19.431026742940936,110.19882870374714 l 19.431026742940936,-110.19882870374714 l -9.752625054199854,111.47301445872397 l 9.752625054199854,-111.47301445872397 l -3.0154964183094725e-13,111.89882326442351 l -3.0154964183094725e-13,111.89882326442351 l 3.0154964183094725e-13,-111.89882326442351 l 9.75262505419965,111.47301445872398 l -9.75262505419965,-111.47301445872398 l 19.431026742940734,110.19882870374717 l -19.431026742940734,-110.19882870374717 l 28.961546585393695,108.08596332246273 l -28.961546585393695,-108.08596332246273 l 38.27165157087147,105.15049849620542 l -38.27165157087147,-105.15049849620542 l 47.290486178840254,101.41477488478495 l -47.290486178840254,-101.41477488478495 l 55.94941163221178,96.90722360057589 l -55.94941163221178,-96.90722360057589 l 64.18252827988343,91.66214983058522 l -64.18252827988343,-91.66214983058522 l 71.92717713287531,85.71947175326426 l -71.92717713287531,-85.71947175326426 l 79.12441673706871,79.12441673706901 l -79.12441673706871,-79.12441673706901 l 85.71947175326424,71.92717713287531 l -85.71947175326424,-71.92717713287531 l 91.66214983058498,64.18252827988375 l -91.66214983058498,-64.18252827988375 l 96.90722360057589,55.94941163221179 l -96.90722360057589,-55.94941163221179 l 101.41477488478476,47.29048617884063 l -101.41477488478476,-47.29048617884063 l 105.15049849620527,38.27165157087186 l -105.15049849620527,-38.27165157087186 l 108.08596332246272,28.961546585393712 l 108.08596332246272,28.961546585393712 l -108.08596332246272,-28.961546585393712 l 110.19882870374708,19.43102674294114 l -110.19882870374708,-19.43102674294114 l 111.47301445872398,9.752625054199664 l -111.47301445872398,-9.752625054199664 l 111.89882326442351,1.096292285913053e-13 l -111.89882326442351,-1.096292285913053e-13 l 111.47301445872397,-9.752625054199841 l -111.47301445872397,9.752625054199841 l 110.19882870374714,-19.431026742940922 l -110.19882870374714,19.431026742940922 l 108.08596332246269,-28.96154658539388 l -108.08596332246269,28.96154658539388 l 105.15049849620536,-38.271651570871654 l -105.15049849620536,38.271651570871654 l 101.41477488478486,-47.290486178840425 l -101.41477488478486,47.290486178840425 l 96.907223600576,-55.94941163221159 l -96.907223600576,55.94941163221159 l 91.66214983058511,-64.18252827988357 l -91.66214983058511,64.18252827988357 l 85.71947175326439,-71.92717713287514 l -85.71947175326439,71.92717713287514 l 79.12441673706888,-79.12441673706886 l -79.12441673706888,79.12441673706886 l 71.92717713287517,-85.71947175326437 l -71.92717713287517,85.71947175326437 l 64.1825282798836,-91.66214983058511 l -64.1825282798836,91.66214983058511 l 55.94941163221162,-96.90722360057599 l 55.94941163221162,-96.90722360057599 l -55.94941163221162,96.90722360057599 l 47.29048617884046,-101.41477488478485 l -47.29048617884046,101.41477488478485 l 38.27165157087169,-105.15049849620534 l -38.27165157087169,105.15049849620534 l 28.96154658539429,-108.08596332246258 l -28.96154658539429,108.08596332246258 l 19.43102674294095,-110.19882870374714 l -19.43102674294095,110.19882870374714 l 9.752625054200264,-111.47301445872391 l -9.752625054200264,111.47301445872391 l -8.229118464833667e-14,-111.89882326442351 l 8.229118464833667e-14,111.89882326442351 l -9.752625054200033,-111.47301445872394 l 9.752625054200033,111.47301445872394 l -19.431026742940716,-110.19882870374717 l 19.431026742940716,110.19882870374717 l -28.961546585394068,-108.08596332246263 l 28.961546585394068,108.08596332246263 l -38.27165157087146,-105.15049849620544 l 38.27165157087146,105.15049849620544 l -47.29048617884025,-101.41477488478495 l 47.29048617884025,101.41477488478495 l -55.94941163221143,-96.90722360057609 l 55.94941163221143,96.90722360057609 l -64.18252827988341,-91.66214983058522 l 64.18252827988341,91.66214983058522 l -71.927177132875,-85.71947175326451 l 71.927177132875,85.71947175326451 l -79.12441673706871,-79.12441673706903 l -79.12441673706871,-79.12441673706903 l 79.12441673706871,79.12441673706903 l -85.71947175326424,-71.92717713287533 l 85.71947175326424,71.92717713287533 l -91.66214983058498,-64.18252827988375 l 91.66214983058498,64.18252827988375 l -96.90722360057588,-55.9494116322118 l 96.90722360057588,55.9494116322118 l -101.41477488478475,-47.290486178840645 l 101.41477488478475,47.290486178840645 l -105.15049849620527,-38.271651570871875 l 105.15049849620527,38.271651570871875 l -108.08596332246263,-28.961546585394103 l 108.08596332246263,28.961546585394103 l -110.19882870374708,-19.431026742941153 l 110.19882870374708,19.431026742941153 l -111.47301445872394,-9.75262505420007 l 111.47301445872394,9.75262505420007 l -111.89882326442351,-1.2333288216521846e-13 l 111.89882326442351,1.2333288216521846e-13 l -111.47301445872397,9.752625054199827 l 111.47301445872397,-9.752625054199827 l -110.19882870374714,19.431026742940908 l 110.19882870374714,-19.431026742940908 l -108.08596332246269,28.96154658539387 l 108.08596332246269,-28.96154658539387 l -105.15049849620536,38.27165157087165 l 105.15049849620536,-38.27165157087165 l -101.41477488478486,47.29048617884041 l 101.41477488478486,-47.29048617884041 l -96.907223600576,55.949411632211586 l -96.907223600576,55.949411632211586 l 96.907223600576,-55.949411632211586 l -91.66214983058511,64.18252827988357 l 91.66214983058511,-64.18252827988357 l -85.71947175326439,71.92717713287514 l 85.71947175326439,-71.92717713287514 l -79.12441673706888,79.12441673706886 l 79.12441673706888,-79.12441673706886 l -71.92717713287517,85.71947175326437 l 71.92717713287517,-85.71947175326437 l -64.1825282798836,91.6621498305851 l 64.1825282798836,-91.6621498305851 l -55.94941163221163,96.90722360057599 l 55.94941163221163,-96.90722360057599 l -47.29048617884047,101.41477488478485 l 47.29048617884047,-101.41477488478485 l -38.2716515708717,105.15049849620534 l 38.2716515708717,-105.15049849620534 l -28.961546585394302,108.08596332246256 l 28.961546585394302,-108.08596332246256 l -19.43102674294096,110.19882870374714 l 19.43102674294096,-110.19882870374714 l -9.752625054200278,111.47301445872391 l 9.752625054200278,-111.47301445872391 l -3.289569489787736e-13,111.89882326442351 l 3.289569489787736e-13,-111.89882326442351 l 9.752625054200017,111.47301445872394 l -9.752625054200017,-111.47301445872394 l 19.431026742940706,110.19882870374717 l -19.431026742940706,-110.19882870374717 l 28.961546585394057,108.08596332246263 l 28.961546585394057,108.08596332246263 l -28.961546585394057,-108.08596332246263 l 38.271651570871455,105.15049849620544 l -38.271651570871455,-105.15049849620544 l 47.29048617884023,101.41477488478496 l -47.29048617884023,-101.41477488478496 l 55.949411632211415,96.90722360057609 l -55.949411632211415,-96.90722360057609 l 64.1825282798834,91.66214983058522 l -64.1825282798834,-91.66214983058522 l 71.92717713287497,85.71947175326451 l -71.92717713287497,-85.71947175326451 l 79.1244167370687,79.12441673706903 l -79.1244167370687,-79.12441673706903 l 85.71947175326423,71.92717713287534 l -85.71947175326423,-71.92717713287534 l 91.66214983058497,64.18252827988377 l -91.66214983058497,-64.18252827988377 l 96.90722360057588,55.94941163221182 l -96.90722360057588,-55.94941163221182 l 101.41477488478475,47.29048617884066 l -101.41477488478475,-47.29048617884066 l 105.15049849620527,38.27165157087188 l -105.15049849620527,-38.27165157087188 l 108.08596332246262,28.961546585394114 l -108.08596332246262,-28.961546585394114 l 110.19882870374708,19.431026742941164 l -110.19882870374708,-19.431026742941164 l 111.47301445872394,9.752625054200085 l -111.47301445872394,-9.752625054200085 l 111.89882326442351,1.3703653573913163e-13 l 111.89882326442351,1.3703653573913163e-13 l -111.89882326442351,-1.3703653573913163e-13 l 111.47301445872398,-9.752625054199813 l -111.47301445872398,9.752625054199813 l 110.19882870374714,-19.431026742940894 l -110.19882870374714,19.431026742940894 l 108.08596332246269,-28.961546585393858 l -108.08596332246269,28.961546585393858 l 105.15049849620537,-38.27165157087163 l -105.15049849620537,38.27165157087163 l 101.41477488478486,-47.29048617884041 l -101.41477488478486,47.29048617884041 l 96.90722360057602,-55.94941163221158 l -96.90722360057602,55.94941163221158 l 91.66214983058512,-64.18252827988356 l -91.66214983058512,64.18252827988356 l 85.7194717532644,-71.92717713287514 l -85.7194717532644,71.92717713287514 l 79.12441673706918,-79.12441673706857 l -79.12441673706918,79.12441673706857 l 71.9271771328752,-85.71947175326433 l -71.9271771328752,85.71947175326433 l 64.18252827988363,-91.66214983058507 l -64.18252827988363,91.66214983058507 l 55.949411632212,-96.90722360057576 l -55.949411632212,96.90722360057576 l 47.290486178840844,-101.41477488478468 l -47.290486178840844,101.41477488478468 l 38.27165157087171,-105.15049849620533 l -38.27165157087171,105.15049849620533 l 28.961546585393933,-108.08596332246266 " /></g></svg>