<?xml version="1.0" encoding="UTF-8"?>
<!DOCTYPE svg PUBLIC "-//W3C//DTD SVG 1.1//EN"
    "http://www.w3.org/Graphics/SVG/1.1/DTD/svg11.dtd">
<svg xmlns="http://www.w3.org/2000/svg" xmlns:xlink="http://www.w3.org/1999/xlink" version="1.1" width="400.0" height="400.0" viewBox="0 0 400 400"><g fill="rgb(0,0,0)" fill-opacity="0" fill-rule="nonzero" font-family="Sans" font-size="1" font-style="normal" opacity="1" stroke="rgb(0,0,0)" stroke-opacity="1" stroke-width="0.5" stroke-linecap="butt" stroke-linejoin="miter" text-anchor="middle"><path d="M 257.04587711765834,250.40764701135595 h 120.0965834055963 h -114.09175423531649 l 118.27204644810853,-20.854552852406304 l -112.3584441257031,19.81182520978599 l 112.85387320783823,-41.07545066930517 l -107.21117954744632,39.02167813583991 l 104.00669213696307,-60.048291702798146 l -98.80635753011491,57.045877117658236 l 91.99932035543192,-77.19659577880334 l -87.39935433766033,73.33676598986318 l 77.19659577880336,-91.99932035543192 l -73.33676598986318,87.39935433766031 l 60.04829170279817,-104.00669213696305 l -57.04587711765825,98.8063575301149 l 41.07545066930519,-112.85387320783822 l -39.02167813583993,107.2111795474463 l 20.85455285240631,-118.27204644810853 l -19.811825209785997,112.3584441257031 l 7.353794822809832e-15,-120.0965834055963 l -6.9861050816693404e-15,114.09175423531649 l -20.8545528524063,-118.27204644810853 l 19.811825209785987,112.3584441257031 l -41.07545066930517,-112.85387320783823 l 39.02167813583991,107.21117954744632 l -60.048291702798124,-104.00669213696307 l 57.045877117658215,98.80635753011492 l -77.19659577880334,-91.99932035543192 l 73.33676598986318,87.39935433766033 l -91.9993203554319,-77.19659577880336 l 87.39935433766031,73.33676598986321 l -104.00669213696307,-60.048291702798146 l -104.00669213696307,-60.048291702798146 l 98.80635753011491,57.045877117658236 l -112.85387320783822,-41.0754506693052 l 107.2111795474463,39.021678135839934 l -118.27204644810853,-20.854552852406346 l 112.3584441257031,19.81182520978603 l -120.0965834055963,-1.4707589645619665e-14 l 114.09175423531649,1.3972210163338681e-14 l -118.27204644810853,20.85455285240632 l 112.3584441257031,-19.811825209786004 l -112.85387320783823,41.07545066930517 l 107.21117954744632,-39.021678135839906 l -104.00669213696305,60.04829170279817 l 98.8063575301149,-57.04587711765825 l -91.99932035543192,77.19659577880334 l 87.39935433766033,-73.33676598986318 l -77.19659577880338,91.9993203554319 l 73.33676598986321,-87.39935433766031 l -60.0482917027982,104.00669213696301 l 57.04587711765829,-98.80635753011488 l -41.07545066930525,112.85387320783819 l 39.021678135839984,-107.21117954744629 l -20.854552852406304,118.27204644810853 l 19.81182520978599,-112.3584441257031 l -2.2061384468429496e-14,120.0965834055963 l 2.095831524500802e-14,-114.09175423531649 l 20.85455285240626,118.27204644810854 l -19.811825209785948,-112.35844412570312 l 41.07545066930521,112.85387320783822 l -39.02167813583995,-107.2111795474463 l 60.04829170279815,104.00669213696305 l 60.04829170279815,104.00669213696305 l -57.04587711765824,-98.8063575301149 l 77.19659577880334,91.99932035543192 l -73.33676598986318,-87.39935433766033 l 91.9993203554319,77.19659577880338 l -87.39935433766031,-73.33676598986321 l 104.00669213696301,60.0482917027982 l -98.80635753011488,-57.04587711765829 l 112.85387320783819,41.075450669305255 l -107.21117954744629,-39.02167813583999 l 118.27204644810853,20.85455285240631 l -112.3584441257031,-19.811825209785994 l 120.0965834055963,2.941517929123933e-14 l -114.09175423531649,-2.7944420326677362e-14 l 118.27204644810854,-20.854552852406254 l -112.35844412570312,19.811825209785944 l 112.85387320783822,-41.075450669305205 l -107.2111795474463,39.02167813583995 l 104.0066921369631,-60.04829170279807 l -98.80635753011494,57.04587711765816 l 91.99932035543192,-77.19659577880334 l -87.39935433766033,73.33676598986318 l 77.1965957788034,-91.99932035543189 l -73.33676598986322,87.3993543376603 l 60.048291702798124,-104.00669213696307 l -57.045877117658215,98.80635753011492 l 41.07545066930526,-112.85387320783819 l -39.021678135840006,107.21117954744629 l 20.854552852406318,-118.27204644810853 l -19.811825209786004,112.3584441257031 l 3.676897411404916e-14,-120.0965834055963 l 3.676897411404916e-14,-120.0965834055963 l -3.4930525408346706e-14,114.09175423531649 l -20.854552852406247,-118.27204644810854 l 19.811825209785933,112.35844412570312 l -41.07545066930509,-112.85387320783825 l 39.02167813583984,107.21117954744633 l -60.048291702798046,-104.00669213696311 l 57.04587711765815,98.80635753011497 l -77.19659577880341,-91.99932035543188 l 73.33676598986324,87.39935433766028 l -91.99932035543182,-77.19659577880348 l 87.39935433766023,73.3367659898633 l -104.00669213696307,-60.048291702798124 l 98.80635753011492,57.045877117658215 l -112.85387320783823,-41.07545066930517 l 107.21117954744632,39.02167813583991 l -118.27204644810853,-20.854552852406325 l 112.3584441257031,19.811825209786008 l -120.0965834055963,-4.412276893685899e-14 l 114.09175423531649,4.191663049001604e-14 l -118.27204644810854,20.85455285240624 l 112.35844412570312,-19.81182520978593 l -112.85387320783825,41.075450669305084 l 107.21117954744633,-39.02167813583983 l -104.00669213696311,60.048291702798046 l 98.80635753011497,-57.04587711765815 l -91.99932035543188,77.19659577880341 l 87.39935433766028,-73.33676598986324 l -77.19659577880348,91.9993203554318 l 73.3367659898633,-87.39935433766021 l -60.04829170279813,104.00669213696307 l -60.04829170279813,104.00669213696307 l 57.04587711765823,-98.80635753011491 l -41.07545066930518,112.85387320783823 l 39.02167813583993,-107.21117954744632 l -20.85455285240633,118.27204644810853 l 19.811825209786015,-112.3584441257031 l -5.147656375966882e-14,120.0965834055963 l 4.890273557168538e-14,-114.09175423531649 l 20.854552852406236,118.27204644810854 l -19.811825209785923,-112.35844412570312 l 41.07545066930508,112.85387320783825 l -39.02167813583982,-107.21117954744633 l 60.048291702798046,104.00669213696311 l -57.045877117658144,-98.80635753011497 l 77.1965957788034,91.99932035543188 l -73.33676598986322,-87.39935433766028 l 91.9993203554318,77.19659577880348 l -87.39935433766021,-73.3367659898633 l 104.00669213696307,60.04829170279813 l -98.80635753011491,-57.04587711765823 l 112.85387320783822,41.07545066930519 l -107.2111795474463,-39.02167813583993 l 118.27204644810853,20.854552852406343 l -112.3584441257031,-19.811825209786026 l 120.0965834055963,5.883035858247866e-14 l -114.09175423531649,-5.5888840653354724e-14 l 118.27204644810854,-20.854552852406222 l -112.35844412570312,19.811825209785912 l 112.85387320783825,-41.07545066930508 l -107.21117954744633,39.02167813583982 l 104.006692136963,-60.04829170279823 l 104.006692136963,-60.04829170279823 l -98.80635753011485,57.04587711765832 l 91.99932035543188,-77.1965957788034 l -87.39935433766028,73.33676598986322 l 77.19659577880348,-91.9993203554318 l -73.33676598986331,87.39935433766021 l 60.04829170279832,-104.00669213696294 l -57.04587711765841,98.80635753011478 l 41.0754506693052,-112.85387320783822 l -39.021678135839934,107.2111795474463 l 20.854552852406346,-118.27204644810853 l -19.81182520978603,112.3584441257031 l 6.618415340528849e-14,-120.0965834055963 l -6.287494573502406e-14,114.09175423531649 l -20.85455285240622,-118.27204644810855 l 19.811825209785905,112.35844412570313 l -41.07545066930507,-112.85387320783826 l 39.021678135839814,107.21117954744635 l -60.04829170279822,-104.00669213696301 l 57.0458771176583,98.80635753011488 l -77.1965957788034,-91.99932035543189 l 73.33676598986322,87.3993543376603 l -91.9993203554318,-77.1965957788035 l 87.39935433766021,73.33676598986332 l -104.00669213696294,-60.04829170279834 l 98.80635753011478,57.04587711765842 l -112.85387320783822,-41.075450669305205 l 107.2111795474463,39.02167813583994 l -118.27204644810853,-20.854552852406353 l 112.3584441257031,19.811825209786036 l -120.0965834055963,-7.353794822809832e-14 l -120.0965834055963,-7.353794822809832e-14 l 114.09175423531649,6.986105081669341e-14 l -118.27204644810855,20.85455285240621 l 112.35844412570313,-19.8118252097859 l -112.85387320783826,41.07545066930506 l 107.21117954744635,-39.02167813583981 l -104.00669213696314,60.04829170279802 l 98.80635753011498,-57.045877117658115 l -91.99932035543205,77.19659577880321 l 87.39935433766044,-73.33676598986305 l -77.1965957788035,91.9993203554318 l 73.33676598986332,-87.39935433766021 l -60.04829170279834,104.00669213696294 l 57.04587711765842,-98.80635753011478 l -41.075450669305006,112.85387320783828 l 39.02167813583976,-107.21117954744638 l -20.85455285240615,118.27204644810855 l 19.811825209785844,-112.35844412570313 l -2.9422613037204177e-13,120.0965834055963 l 2.7951482385343967e-13,-114.09175423531649 l 20.85455285240599,118.27204644810857 l -19.811825209785695,-112.35844412570314 l 41.07545066930486,112.85387320783833 l -39.02167813583961,-107.21117954744642 l 60.0482917027982,104.00669213696301 l -57.04587711765829,-98.80635753011488 l 77.19659577880338,91.9993203554319 l -73.33676598986321,-87.39935433766031 l 91.99932035543192,77.19659577880334 l -87.39935433766033,-73.33676598986318 l 104.00669213696305,60.04829170279817 l 104.00669213696305,60.04829170279817 l -98.8063575301149,-57.04587711765825 l 112.85387320783822,41.07545066930521 l -107.2111795474463,-39.02167813583995 l 118.27204644810853,20.854552852406368 l -112.3584441257031,-19.81182520978605 l 120.0965834055963,8.824553787371798e-14 l -114.09175423531649,-8.383326098003208e-14 l 118.27204644810855,-20.854552852406197 l -112.35844412570313,19.811825209785887 l 112.85387320783826,-41.07545066930505 l -107.21117954744635,39.0216781358398 l 104.00669213696314,-60.048291702798004 l -98.80635753011498,57.04587711765811 l 91.99932035543205,-77.19659577880321 l -87.39935433766044,73.33676598986305 l 77.19659577880351,-91.99932035543179 l -73.33676598986334,87.3993543376602 l 60.048291702798345,-104.00669213696294 l -57.04587711765843,98.80635753011478 l 41.07545066930502,-112.85387320783828 l -39.02167813583977,107.21117954744638 l 20.854552852406165,-118.27204644810855 l -19.81182520978586,112.35844412570313 l -1.1773505462460578e-13,-120.0965834055963 l 1.1184830189337549e-13,114.09175423531649 l -20.854552852405973,-118.2720464481086 l 19.811825209785678,112.35844412570316 l -41.075450669304836,-112.85387320783835 l 39.0216781358396,107.21117954744642 l -60.048291702798196,-104.00669213696303 l -60.048291702798196,-104.00669213696303 l 57.04587711765828,98.80635753011488 l -77.19659577880336,-91.9993203554319 l 73.33676598986321,87.39935433766031 l -91.99932035543192,-77.19659577880336 l 87.39935433766031,73.33676598986318 l -104.00669213696303,-60.048291702798174 l 98.80635753011488,57.04587711765827 l -112.85387320783819,-41.07545066930523 l 107.21117954744629,39.02167813583997 l -118.27204644810851,-20.854552852406385 l 112.35844412570307,19.81182520978606 l -120.0965834055963,-1.0295312751933765e-13 l 114.09175423531649,9.780547114337076e-14 l -118.27204644810855,20.85455285240618 l 112.35844412570313,-19.81182520978587 l -112.85387320783826,41.075450669305035 l 107.21117954744635,-39.02167813583978 l -104.00669213696314,60.048291702798 l 98.80635753011498,-57.0458771176581 l -91.99932035543205,77.19659577880319 l 87.39935433766045,-73.33676598986304 l -77.19659577880351,91.99932035543179 l 73.33676598986334,-87.3993543376602 l -60.048291702798366,104.00669213696293 l 57.04587711765845,-98.80635753011477 l -41.075450669305035,112.85387320783826 l 39.02167813583978,-107.21117954744635 l -20.85455285240618,118.27204644810855 l 19.81182520978587,-112.35844412570313 l -3.2364130966328105e-13,120.0965834055963 l -3.2364130966328105e-13,120.0965834055963 l 3.0745924418011706e-13,-114.09175423531649 l 20.854552852405963,118.2720464481086 l -19.811825209785667,-112.35844412570316 l 41.07545066930482,112.85387320783835 l -39.02167813583957,-107.21117954744642 l 60.048291702798174,104.00669213696303 l -57.04587711765827,-98.80635753011488 l 77.19659577880336,91.99932035543192 l -73.33676598986318,-87.39935433766031 l 91.9993203554319,77.19659577880336 l -87.39935433766031,-73.33676598986321 l 104.00669213696303,60.048291702798196 l -98.80635753011488,-57.04587711765828 l 112.85387320783819,41.07545066930524 l -107.21117954744629,-39.02167813583998 l 118.27204644810851,20.854552852406396 l -112.35844412570307,-19.811825209786075 l 120.0965834055963,1.1766071716495732e-13 l -114.09175423531649,-1.1177768130670945e-13 l 118.27204644810855,-20.854552852406165 l -112.35844412570313,19.81182520978586 l 112.85387320783828,-41.07545066930502 l -107.21117954744638,39.02167813583977 l 104.00669213696315,-60.04829170279798 l -98.806357530115,57.04587711765808 l 91.99932035543206,-77.19659577880317 l -87.39935433766045,73.33676598986303 l 77.19659577880321,-91.99932035543205 l -73.33676598986305,87.39935433766044 l 60.048291702798004,-104.00669213696314 l 60.048291702798004,-104.00669213696314 l -57.04587711765811,98.80635753011498 l 41.07545066930505,-112.85387320783826 l -39.0216781358398,107.21117954744635 l 20.854552852406197,-118.27204644810855 l -19.811825209785887,112.35844412570313 l -8.831987533336646e-14,-120.0965834055963 l 8.390388156669814e-14,114.09175423531649 l -20.854552852405945,-118.2720464481086 l 19.81182520978565,112.35844412570316 l -41.075450669304814,-112.85387320783836 l 39.02167813583957,107.21117954744643 l -60.048291702797805,-104.00669213696325 l 57.04587711765791,98.8063575301151 l -77.19659577880302,-91.99932035543219 l 73.33676598986287,87.39935433766058 l -91.9993203554319,-77.19659577880338 l 87.39935433766031,73.33676598986321 l -104.00669213696301,-60.0482917027982 l 98.80635753011488,57.04587711765829 l -112.85387320783819,-41.075450669305255 l 107.21117954744629,39.02167813583999 l -118.27204644810851,-20.854552852406414 l 112.35844412570307,19.811825209786093 l -120.0965834055963,-1.3236830681057698e-13 l 114.09175423531649,1.2574989147004813e-13 l -118.27204644810855,20.85455285240615 l 112.35844412570313,-19.811825209785844 l -112.85387320783828,41.075450669305006 l 107.21117954744638,-39.02167813583976 l -104.00669213696315,60.048291702797975 l -104.00669213696315,60.048291702797975 l 98.806357530115,-57.04587711765807 l -91.99932035543206,77.19659577880317 l 87.39935433766045,-73.33676598986301 l -77.19659577880321,91.99932035543205 l 73.33676598986305,-87.39935433766044 l -60.04829170279802,104.00669213696314 l 57.045877117658115,-98.80635753011498 l -41.07545066930506,112.85387320783826 l 39.02167813583981,-107.21117954744635 l -20.85455285240621,118.27204644810855 l 19.8118252097859,-112.35844412570313 l -3.530564889545204e-13,120.0965834055963 l 3.354036645067944e-13,-114.09175423531649 l 20.85455285240593,118.2720464481086 l -19.811825209785635,-112.35844412570316 l 41.07545066930481,112.85387320783836 l -39.02167813583956,-107.21117954744643 l 60.04829170279778,104.00669213696325 l -57.045877117657895,-98.8063575301151 l 77.196595778803,91.99932035543219 l -73.33676598986285,-87.39935433766058 l 91.99932035543189,77.1965957788034 l -87.3993543376603,-73.33676598986322 l 104.00669213696301,60.04829170279822 l -98.80635753011488,-57.0458771176583 l 112.85387320783819,41.07545066930526 l -107.21117954744629,-39.021678135840006 l 118.27204644810851,20.854552852406428 l -112.35844412570307,-19.811825209786104 l 120.0965834055963,1.4707589645619664e-13 " /></g></svg>