<?xml version="1.0" encoding="UTF-8"?>
<!DOCTYPE svg PUBLIC "-//W3C//DTD SVG 1.1//EN"
    "http://www.w3.org/Graphics/SVG/1.1/DTD/svg11.dtd">
<svg xmlns="http://www.w3.org/2000/svg" xmlns:xlink="http://www.w3.org/1999/xlink" version="1.1" width="400.0" height="400.0" viewBox="0 0 400 400"><g fill="rgb(0,0,0)" fill-opacity="0" fill-rule="nonzero" font-family="Sans" font-size="1" font-style="normal" opacity="1" stroke="rgb(0,0,0)" stroke-opacity="1" stroke-width="0.5" stroke-linecap="butt" stroke-linejoin="miter" text-anchor="middle"><path d="M 96.62199612697962,286.74444492170335 l 242.65881171283462,-203.61491941015652 l -297.66509865513405,108.34123569038137 l 316.7685816306432,7.758592591288285e-14 l -297.66509865513405,-108.34123569038137 l 242.6588117128343,203.6149194101569 l -242.6588117128343,-203.61491941015694 l 158.38429081532172,274.3296388129016 l -55.00628694229859,-311.95615510053807 l -55.00628694229913,311.956155100538 l 158.3842908153212,-274.3296388129019 l -158.38429081532124,274.3296388129019 l 242.65881171283502,-203.61491941015606 l -297.6650986551346,108.3412356903798 l 316.7685816306432,4.655155554772971e-13 l -297.6650986551343,-108.34123569038069 l 297.66509865513393,108.34123569038177 l -242.6588117128351,-203.61491941015595 l 158.38429081532138,274.3296388129018 l -55.00628694230043,-311.9561551005377 l -55.00628694230173,311.9561551005375 l 55.006286942300655,-311.95615510053767 l -158.38429081532357,274.32963881290055 l 242.65881171283525,-203.61491941015575 l -297.6650986551348,108.34123569037942 l 316.7685816306432,3.1042213309885496e-12 l -316.7685816306432,-2.017626220971572e-12 l 297.66509865513456,108.34123569038002 l -242.65881171283485,-203.61491941015626 l 158.38429081532107,274.329638812902 l -55.00628694229782,-311.95615510053824 l 55.0062869422989,311.956155100538 l 55.00628694230104,-311.9561551005376 l -158.38429081532388,274.3296388129004 l 242.65881171283695,-203.61491941015373 l -297.6650986551341,108.34123569038121 l 297.66509865513376,-108.34123569038219 l -316.7685816306432,-1.5477970458914786e-13 l 297.6650986551321,108.34123569038672 l -242.6588117128331,-203.61491941015828 l 158.3842908153188,274.32963881290334 l -158.38429081531973,-274.3296388129028 l 55.00628694230073,311.95615510053767 l 55.00628694230364,-311.9561551005372 l -158.3842908153223,274.3296388129013 l 242.65881171283573,-203.61491941015512 l -242.65881171283505,203.61491941015598 l 297.66509865513467,-108.34123569037972 l -316.7685816306432,-2.7934854801004008e-12 l 297.66509865513274,108.34123569038499 l -242.65881171283147,-203.61491941016027 l 242.65881171283505,203.61491941015598 l -158.38429081532132,-274.32963881290186 l 55.00628694229813,311.9561551005381 l 55.006286942301806,-311.9561551005375 l -158.38429081532453,274.3296388129 l 158.38429081531973,-274.3296388129028 l -242.65881171283385,203.61491941015743 l 297.66509865513405,-108.34123569038148 l -316.7685816306432,-9.306389637179764e-13 l 297.66509865513336,108.34123569038321 l -297.66509865513217,-108.34123569038643 l 242.65881171283624,203.61491941015456 l -158.38429081531515,-274.3296388129054 l 55.00628694229996,311.95615510053784 l 55.00628694229996,-311.95615510053784 l -55.00628694230333,311.9561551005372 l 158.3842908153181,-274.3296388129037 l -242.65881171283843,203.61491941015194 l 297.66509865513336,-108.34123569038321 l -316.7685816306432,9.322075526644478e-13 l 316.7685816306432,2.482749629212251e-12 l -297.66509865513285,-108.34123569038468 l 242.6588117128317,203.61491941016004 l -158.38429081532453,-274.3296388129 l 55.006286942301806,311.9561551005375 l -55.00628694229844,-311.95615510053807 l -55.0062869423015,311.95615510053756 l 158.3842908153243,-274.3296388129001 l -242.65881171283147,203.61491941016027 l 297.66509865513274,-108.34123569038499 l -297.66509865513393,108.34123569038177 l 316.7685816306432,6.199031128298271e-13 l -297.6650986551335,-108.34123569038292 l 242.65881171282706,203.61491941016553 l -158.38429081532615,-274.329638812899 l 158.38429081532323,274.3296388129007 l -55.00628694230027,-311.9561551005378 l -55.00628694229967,311.95615510053784 l 158.38429081533047,-274.3296388128965 l -242.65881171283024,203.61491941016175 " /></g></svg>