<?xml version="1.0" encoding="UTF-8"?>
<!DOCTYPE svg PUBLIC "-//W3C//DTD SVG 1.1//EN"
    "http://www.w3.org/Graphics/SVG/1.1/DTD/svg11.dtd">
<svg xmlns="http://www.w3.org/2000/svg" xmlns:xlink="http://www.w3.org/1999/xlink" version="1.1" width="400.0" height="400.0" viewBox="0 0 400 400"><g fill="rgb(0,0,0)" fill-opacity="0" fill-rule="nonzero" font-family="Sans" font-size="1" font-style="normal" opacity="1" stroke="rgb(0,0,0)" stroke-opacity="1" stroke-width="0.5" stroke-linecap="butt" stroke-linejoin="miter" text-anchor="middle"><path d="M 301.01010101010104,227.06557499304293 h 80.8080808080808 h -80.8080808080808 l 80.7588547086138,-2.820161349697048 l -80.7588547086138,2.820161349697048 l 80.61123638463225,-5.636886767202045 l -80.61123638463225,5.636886767202045 l 80.36540568632512,-8.446744506477048 l -80.36540568632512,8.446744506477048 l 80.02166212053093,-11.246311188692156 l -80.02166212053093,11.246311188692156 l 79.580424485835,-14.032175973085279 l -79.580424485835,14.032175973085279 l 79.04223036232773,-16.800944712546205 l -79.04223036232773,16.800944712546205 l 78.40773545664618,-19.54924408886204 l -78.40773545664618,19.54924408886204 l 77.67771280309647,-22.27372572258579 l -77.67771280309647,22.27372572258579 l 76.85305182183059,-24.971070252521 l -76.85305182183059,24.971070252521 l 75.93475723522492,-27.637991379852014 l -75.93475723522492,27.637991379852014 l 74.92394784378081,-30.27123987199289 l -74.92394784378081,30.27123987199289 l 73.82185516303845,-32.867607521276774 l -73.82185516303845,32.867607521276774 l 72.62982192316501,-35.42393105366282 l -72.62982192316501,35.42393105366282 l 71.3493004330446,-37.937095982698246 l -71.3493004330446,37.937095982698246 l 69.98185081086373,-40.404040404040394 l -69.98185081086373,40.404040404040394 l 68.52913908334756,-42.82175872591555 l -68.52913908334756,42.82175872591555 l 66.99293515596297,-45.18730533096944 l -66.99293515596297,45.18730533096944 l 65.3751106565614,-47.49779816504834 l -65.3751106565614,47.49779816504834 l 63.677636655088634,-49.750422248538044 l -63.677636655088634,49.750422248538044 l 61.90258126213964,-51.94243310598297 l -61.90258126213964,51.94243310598297 l 60.052107109284385,-54.071160109806726 l -60.052107109284385,54.071160109806726 l 58.128468714234444,-56.13400973406038 l -58.128468714234444,56.13400973406038 l 56.13400973406039,-58.12846871423443 l -56.13400973406039,58.12846871423443 l 54.07116010980674,-60.05210710928438 l -54.07116010980674,60.05210710928438 l 51.942433105982985,-61.90258126213964 l -51.942433105982985,61.90258126213964 l 49.75042224853805,-63.677636655088634 l -49.75042224853805,63.677636655088634 l 47.49779816504834,-65.37511065656139 l -47.49779816504834,65.37511065656139 l 45.18730533096945,-66.99293515596295 l -45.18730533096945,66.99293515596295 l 42.82175872591555,-68.52913908334756 l -42.82175872591555,68.52913908334756 l 40.404040404040416,-69.98185081086372 l -40.404040404040416,69.98185081086372 l 37.937095982698246,-71.34930043304459 l -37.937095982698246,71.34930043304459 l 35.42393105366282,-72.62982192316501 l -35.42393105366282,72.62982192316501 l 32.8676075212768,-73.82185516303845 l -32.8676075212768,73.82185516303845 l 30.2712398719929,-74.9239478437808 l -30.2712398719929,74.9239478437808 l 27.637991379852025,-75.93475723522491 l -27.637991379852025,75.93475723522491 l 24.971070252521006,-76.85305182183059 l -24.971070252521006,76.85305182183059 l 22.27372572258579,-77.67771280309647 l -22.27372572258579,77.67771280309647 l 19.549244088862032,-78.40773545664618 l -19.549244088862032,78.40773545664618 l 16.8009447125462,-79.04223036232773 l -16.8009447125462,79.04223036232773 l 14.032175973085284,-79.580424485835 l -14.032175973085284,79.580424485835 l 11.24631118869216,-80.02166212053093 l -11.24631118869216,80.02166212053093 l 8.446744506477046,-80.36540568632512 l -8.446744506477046,80.36540568632512 l 5.636886767202039,-80.61123638463225 l -5.636886767202039,80.61123638463225 l 2.820161349697057,-80.7588547086138 l -2.820161349697057,80.7588547086138 l 4.948067875342841e-15,-80.8080808080808 l -4.948067875342841e-15,80.8080808080808 l -2.820161349697029,-80.7588547086138 l 2.820161349697029,80.7588547086138 l -5.636886767202048,-80.61123638463225 l 5.636886767202048,80.61123638463225 l -8.446744506477037,-80.36540568632512 l 8.446744506477037,80.36540568632512 l -11.246311188692133,-80.02166212053093 l 11.246311188692133,80.02166212053093 l -14.032175973085277,-79.580424485835 l 14.032175973085277,79.580424485835 l -16.80094471254619,-79.04223036232773 l 16.80094471254619,79.04223036232773 l -19.549244088862025,-78.40773545664618 l 19.549244088862025,78.40773545664618 l -22.27372572258578,-77.67771280309647 l 22.27372572258578,77.67771280309647 l -24.971070252520995,-76.85305182183059 l 24.971070252520995,76.85305182183059 l -27.637991379852014,-75.93475723522492 l 27.637991379852014,75.93475723522492 l -30.271239871992897,-74.92394784378081 l 30.271239871992897,74.92394784378081 l -32.867607521276774,-73.82185516303846 l 32.867607521276774,73.82185516303846 l -35.42393105366283,-72.629821923165 l 35.42393105366283,72.629821923165 l -37.937095982698224,-71.34930043304462 l 37.937095982698224,71.34930043304462 l -40.40404040404039,-69.98185081086373 l 40.40404040404039,69.98185081086373 l -42.82175872591554,-68.52913908334756 l 42.82175872591554,68.52913908334756 l -45.18730533096943,-66.99293515596298 l 45.18730533096943,66.99293515596298 l -47.49779816504832,-65.3751106565614 l 47.49779816504832,65.3751106565614 l -49.75042224853804,-63.67763665508865 l 49.75042224853804,63.67763665508865 l -51.94243310598297,-61.90258126213964 l 51.94243310598297,61.90258126213964 l -54.07116010980669,-60.0521071092844 l 54.07116010980669,60.0521071092844 l -56.13400973406039,-58.12846871423443 l 56.13400973406039,58.12846871423443 l -58.12846871423442,-56.1340097340604 l 58.12846871423442,56.1340097340604 l -60.052107109284385,-54.071160109806705 l 60.052107109284385,54.071160109806705 l -61.90258126213963,-51.942433105982985 l 61.90258126213963,51.942433105982985 l -63.677636655088634,-49.75042224853805 l 63.677636655088634,49.75042224853805 l -65.37511065656139,-47.49779816504834 l 65.37511065656139,47.49779816504834 l -66.99293515596295,-45.18730533096945 l 66.99293515596295,45.18730533096945 l -68.52913908334756,-42.82175872591555 l 68.52913908334756,42.82175872591555 l -174.95462702715932,-101.010101010101 l -69.98185081086373,-40.404040404040394 l 69.98185081086373,40.404040404040394 l -71.3493004330446,-37.93709598269824 l 71.3493004330446,37.93709598269824 l -72.629821923165,-35.42393105366284 l 72.629821923165,35.42393105366284 l -73.82185516303846,-32.867607521276774 l 73.82185516303846,32.867607521276774 l -74.9239478437808,-30.271239871992908 l 74.9239478437808,30.271239871992908 l -75.93475723522491,-27.637991379852032 l 75.93475723522491,27.637991379852032 l -76.85305182183059,-24.971070252521013 l 76.85305182183059,24.971070252521013 l -77.67771280309647,-22.273725722585795 l 77.67771280309647,22.273725722585795 l -78.40773545664618,-19.54924408886204 l 78.40773545664618,19.54924408886204 l -79.04223036232773,-16.800944712546205 l 79.04223036232773,16.800944712546205 l -79.580424485835,-14.032175973085307 l 79.580424485835,14.032175973085307 l -80.02166212053093,-11.246311188692145 l 80.02166212053093,11.246311188692145 l -80.36540568632512,-8.446744506477069 l 80.36540568632512,8.446744506477069 l -80.61123638463225,-5.636886767202063 l 80.61123638463225,5.636886767202063 l -80.7588547086138,-2.820161349697062 l 80.7588547086138,2.820161349697062 l -80.8080808080808,-9.896135750685682e-15 l 80.8080808080808,9.896135750685682e-15 l -80.7588547086138,2.8201613496970417 l 80.7588547086138,-2.8201613496970417 l -80.61123638463226,5.636886767202006 l 80.61123638463226,-5.636886767202006 l -80.36540568632512,8.44674450647705 l 80.36540568632512,-8.44674450647705 l -80.02166212053093,11.246311188692163 l 80.02166212053093,-11.246311188692163 l -79.580424485835,14.032175973085291 l 79.580424485835,-14.032175973085291 l -79.04223036232773,16.800944712546187 l 79.04223036232773,-16.800944712546187 l -78.40773545664618,19.549244088862018 l 78.40773545664618,-19.549244088862018 l -77.67771280309648,22.273725722585745 l 77.67771280309648,-22.273725722585745 l -76.85305182183058,24.971070252521027 l 76.85305182183058,-24.971070252521027 l -75.93475723522492,27.637991379852014 l 75.93475723522492,-27.637991379852014 l -74.92394784378081,30.27123987199289 l 74.92394784378081,-30.27123987199289 l -73.82185516303846,32.86760752127675 l 73.82185516303846,-32.86760752127675 l -72.62982192316503,35.4239310536628 l 72.62982192316503,-35.4239310536628 l -71.34930043304462,37.93709598269822 l 71.34930043304462,-37.93709598269822 l -69.98185081086372,40.404040404040416 l 69.98185081086372,-40.404040404040416 l -68.52913908334756,42.82175872591554 l 68.52913908334756,-42.82175872591554 l -66.99293515596298,45.18730533096943 l 66.99293515596298,-45.18730533096943 l -65.3751106565614,47.49779816504832 l 65.3751106565614,-47.49779816504832 l -63.67763665508867,49.75042224853801 l 63.67763665508867,-49.75042224853801 l -61.90258126213964,51.94243310598297 l 61.90258126213964,-51.94243310598297 l -60.052107109284385,54.071160109806726 l 60.052107109284385,-54.071160109806726 l -58.12846871423443,56.13400973406039 l 58.12846871423443,-56.13400973406039 l -56.13400973406041,58.12846871423441 l 56.13400973406041,-58.12846871423441 l -54.07116010980674,60.052107109284364 l 54.07116010980674,-60.052107109284364 l -51.94243310598299,61.90258126213963 l 51.94243310598299,-61.90258126213963 l -49.75042224853804,63.67763665508865 l 49.75042224853804,-63.67763665508865 l -47.49779816504834,65.37511065656139 l 47.49779816504834,-65.37511065656139 l -45.18730533096948,66.99293515596294 l 45.18730533096948,-66.99293515596294 l -42.82175872591556,68.52913908334754 l 42.82175872591556,-68.52913908334754 l -40.40404040404044,69.9818508108637 l 40.40404040404044,-69.9818508108637 l -37.937095982698246,71.3493004330446 l 37.937095982698246,-71.3493004330446 l -35.42393105366285,72.629821923165 l 35.42393105366285,-72.629821923165 l -32.867607521276774,73.82185516303846 l 32.867607521276774,-73.82185516303846 l -30.271239871992915,74.9239478437808 l 30.271239871992915,-74.9239478437808 l -27.637991379852068,75.93475723522491 l 27.637991379852068,-75.93475723522491 l -24.971070252521013,76.85305182183059 l 24.971070252521013,-76.85305182183059 l -22.273725722585766,77.67771280309648 l 22.273725722585766,-77.67771280309648 l -19.549244088862046,78.40773545664618 l 19.549244088862046,-78.40773545664618 l -16.800944712546247,79.04223036232771 l 16.800944712546247,-79.04223036232771 l -14.032175973085279,79.580424485835 l 14.032175973085279,-79.580424485835 l -11.246311188692188,80.02166212053093 l 11.246311188692188,-80.02166212053093 l -8.44674450647711,80.36540568632512 l 8.44674450647711,-80.36540568632512 l -5.636886767202067,80.61123638463225 l 5.636886767202067,-80.61123638463225 l -2.8201613496970306,80.7588547086138 l 2.8201613496970306,-80.7588547086138 l -1.4844203626028523e-14,80.8080808080808 l 1.4844203626028523e-14,-80.8080808080808 l 2.8201613496970013,80.7588547086138 l -2.8201613496970013,-80.7588547086138 l 5.6368867672020375,80.61123638463226 l -5.6368867672020375,-80.61123638463226 l 8.44674450647708,80.36540568632512 l -8.44674450647708,-80.36540568632512 l 11.246311188692156,80.02166212053093 l -11.246311188692156,-80.02166212053093 l 14.03217597308525,79.580424485835 l -14.03217597308525,-79.580424485835 l 16.80094471254622,79.04223036232771 l -16.80094471254622,-79.04223036232771 l 19.549244088862014,78.4077354566462 l -19.549244088862014,-78.4077354566462 l 22.27372572258574,77.67771280309648 l -22.27372572258574,-77.67771280309648 l 24.971070252520988,76.85305182183059 l -24.971070252520988,-76.85305182183059 l 27.637991379852043,75.93475723522491 l -27.637991379852043,-75.93475723522491 l 30.271239871992886,74.92394784378081 l -30.271239871992886,-74.92394784378081 l 32.867607521276746,73.82185516303846 l -32.867607521276746,-73.82185516303846 l 35.42393105366282,72.62982192316501 l -35.42393105366282,-72.62982192316501 l 37.93709598269822,71.34930043304462 l -37.93709598269822,-71.34930043304462 l 101.01010101010101,174.95462702715932 l 40.4040404040404,69.98185081086372 l -40.4040404040404,-69.98185081086372 l 42.82175872591553,68.52913908334756 l -42.82175872591553,-68.52913908334756 l 45.18730533096945,66.99293515596295 l -45.18730533096945,-66.99293515596295 l 47.497798165048316,65.37511065656142 l -47.497798165048316,-65.37511065656142 l 49.750422248537994,63.67763665508867 l -49.750422248537994,-63.67763665508867 l 51.94243310598297,61.90258126213964 l -51.94243310598297,-61.90258126213964 l 54.07116010980674,60.052107109284364 l -54.07116010980674,-60.052107109284364 l 56.13400973406038,58.128468714234444 l -56.13400973406038,-58.128468714234444 l 58.12846871423441,56.13400973406041 l -58.12846871423441,-56.13400973406041 l 60.05210710928434,54.071160109806776 l -60.05210710928434,-54.071160109806776 l 61.90258126213963,51.94243310598299 l -61.90258126213963,-51.94243310598299 l 63.67763665508865,49.75042224853804 l -63.67763665508865,-49.75042224853804 l 65.37511065656139,47.49779816504834 l -65.37511065656139,-47.49779816504834 l 66.99293515596294,45.18730533096948 l -66.99293515596294,-45.18730533096948 l 68.52913908334754,42.82175872591556 l -68.52913908334754,-42.82175872591556 l 69.9818508108637,40.40404040404044 l -69.9818508108637,-40.40404040404044 l 71.3493004330446,37.937095982698246 l -71.3493004330446,-37.937095982698246 l 72.629821923165,35.423931053662855 l -72.629821923165,-35.423931053662855 l 73.82185516303846,32.867607521276774 l -73.82185516303846,-32.867607521276774 l 74.9239478437808,30.271239871992915 l -74.9239478437808,-30.271239871992915 l 75.93475723522491,27.63799137985207 l -75.93475723522491,-27.63799137985207 l 76.85305182183059,24.97107025252102 l -76.85305182183059,-24.97107025252102 l 77.67771280309647,22.273725722585773 l -77.67771280309647,-22.273725722585773 l 78.40773545664618,19.54924408886205 l -78.40773545664618,-19.54924408886205 l 79.04223036232771,16.80094471254625 l -79.04223036232771,-16.80094471254625 l 79.580424485835,14.032175973085284 l -79.580424485835,-14.032175973085284 l 80.02166212053093,11.246311188692193 l -80.02166212053093,-11.246311188692193 l 80.36540568632512,8.446744506477115 l -80.36540568632512,-8.446744506477115 l 80.61123638463225,5.636886767202073 l -80.61123638463225,-5.636886767202073 l 80.7588547086138,2.820161349697036 l -80.7588547086138,-2.820161349697036 l 80.8080808080808,1.9792271501371363e-14 l -80.8080808080808,-1.9792271501371363e-14 l 80.7588547086138,-2.8201613496969964 l -80.7588547086138,2.8201613496969964 l 80.61123638463226,-5.636886767202032 l -80.61123638463226,5.636886767202032 l 80.36540568632512,-8.446744506477005 l -80.36540568632512,8.446744506477005 l 80.02166212053095,-11.246311188692081 l -80.02166212053095,11.246311188692081 l 79.580424485835,-14.032175973085245 l -79.580424485835,14.032175973085245 l 79.04223036232771,-16.80094471254621 l -79.04223036232771,16.80094471254621 l 78.40773545664617,-19.54924408886208 l -78.40773545664617,19.54924408886208 l 77.67771280309647,-22.273725722585805 l -77.67771280309647,22.273725722585805 l 76.85305182183059,-24.97107025252098 l -76.85305182183059,24.97107025252098 l 75.93475723522491,-27.637991379852036 l -75.93475723522491,27.637991379852036 l 74.92394784378081,-30.27123987199288 l -74.92394784378081,30.27123987199288 l 73.82185516303846,-32.86760752127674 l -73.82185516303846,32.86760752127674 l 72.62982192316501,-35.42393105366282 l -72.62982192316501,35.42393105366282 l 71.34930043304462,-37.93709598269822 l -71.34930043304462,37.93709598269822 l 69.98185081086376,-40.404040404040344 l -69.98185081086376,40.404040404040344 l 68.52913908334762,-42.821758725915466 l -68.52913908334762,42.821758725915466 l 66.99293515596295,-45.18730533096945 l -66.99293515596295,45.18730533096945 l 65.37511065656138,-47.49779816504838 l -65.37511065656138,47.49779816504838 l 63.67763665508862,-49.75042224853806 l -63.67763665508862,49.75042224853806 l 61.90258126213964,-51.94243310598297 l -61.90258126213964,51.94243310598297 l 60.052107109284364,-54.07116010980674 l -60.052107109284364,54.07116010980674 l 58.128468714234444,-56.13400973406038 l -58.128468714234444,56.13400973406038 l 56.13400973406042,-58.12846871423441 l -56.13400973406042,58.12846871423441 l 54.071160109806776,-60.05210710928433 l -54.071160109806776,60.05210710928433 l 51.94243310598301,-61.90258126213962 l -51.94243310598301,61.90258126213962 l 49.750422248538094,-63.6776366550886 l -49.750422248538094,63.6776366550886 l 47.497798165048415,-65.37511065656136 l -47.497798165048415,65.37511065656136 l 45.187305330969494,-66.99293515596294 l -45.187305330969494,66.99293515596294 l 42.8217587259155,-68.52913908334757 l -42.8217587259155,68.52913908334757 l 40.40404040404039,-69.98185081086373 l -40.40404040404039,69.98185081086373 l 37.937095982698246,-71.34930043304459 l -37.937095982698246,71.34930043304459 l 35.423931053662855,-72.629821923165 l -35.423931053662855,72.629821923165 l 32.86760752127678,-73.82185516303845 l -32.86760752127678,73.82185516303845 l 30.27123987199292,-74.92394784378078 l -30.27123987199292,74.92394784378078 l 27.637991379852078,-75.93475723522491 l -27.637991379852078,75.93475723522491 l 24.971070252521027,-76.85305182183058 l -24.971070252521027,76.85305182183058 l 22.273725722585848,-77.67771280309645 l -22.273725722585848,77.67771280309645 l 19.54924408886212,-78.40773545664615 l -19.54924408886212,78.40773545664615 l 16.800944712546258,-79.04223036232771 l -16.800944712546258,79.04223036232771 l 14.032175973085288,-79.580424485835 l -14.032175973085288,79.580424485835 l 11.246311188692125,-80.02166212053093 l -11.246311188692125,80.02166212053093 l 8.446744506477048,-80.36540568632512 l -8.446744506477048,80.36540568632512 l 5.6368867672020775,-80.61123638463225 l -5.6368867672020775,80.61123638463225 l 2.820161349697041,-80.7588547086138 l -2.820161349697041,80.7588547086138 l 6.185084844178552e-14,-202.02020202020202 l 2.4740339376714207e-14,-80.8080808080808 l -2.4740339376714207e-14,80.8080808080808 l -2.8201613496969915,-80.7588547086138 l 2.8201613496969915,80.7588547086138 l -5.636886767202028,-80.61123638463226 l 5.636886767202028,80.61123638463226 l -8.446744506477,-80.36540568632512 l 8.446744506477,80.36540568632512 l -11.246311188692077,-80.02166212053095 l 11.246311188692077,80.02166212053095 l -14.032175973085241,-79.580424485835 l 14.032175973085241,79.580424485835 l -16.80094471254628,-79.04223036232771 l 16.80094471254628,79.04223036232771 l -19.549244088862075,-78.40773545664617 l 19.549244088862075,78.40773545664617 l -22.273725722585795,-77.67771280309647 l 22.273725722585795,77.67771280309647 l -24.97107025252098,-76.85305182183059 l 24.97107025252098,76.85305182183059 l -27.63799137985196,-75.93475723522494 l 27.63799137985196,75.93475723522494 l -30.271239871992805,-74.92394784378084 l 30.271239871992805,74.92394784378084 l -32.8676075212768,-73.82185516303845 l 32.8676075212768,73.82185516303845 l -35.42393105366281,-72.62982192316501 l 35.42393105366281,72.62982192316501 l -37.93709598269821,-71.34930043304462 l 37.93709598269821,71.34930043304462 l -40.40404040404034,-69.98185081086378 l 40.40404040404034,69.98185081086378 l -42.82175872591546,-68.52913908334762 l 42.82175872591546,68.52913908334762 l -45.18730533096945,-66.99293515596295 l 45.18730533096945,66.99293515596295 l -47.49779816504831,-65.37511065656143 l 47.49779816504831,65.37511065656143 l -49.750422248537994,-63.67763665508868 l 49.750422248537994,63.67763665508868 l -51.942433105983014,-61.902581262139606 l 51.942433105983014,61.902581262139606 l -54.07116010980674,-60.052107109284364 l 54.07116010980674,60.052107109284364 l -56.13400973406038,-58.128468714234444 l 56.13400973406038,58.128468714234444 l -58.12846871423441,-56.13400973406042 l 58.12846871423441,56.13400973406042 l -60.05210710928433,-54.071160109806776 l 60.05210710928433,54.071160109806776 l -61.90258126213957,-51.94243310598306 l 61.90258126213957,51.94243310598306 l -63.67763665508865,-49.75042224853804 l 63.67763665508865,49.75042224853804 l -65.37511065656139,-47.49779816504835 l 65.37511065656139,47.49779816504835 l -66.99293515596294,-45.187305330969494 l 66.99293515596294,45.187305330969494 l -68.52913908334757,-42.8217587259155 l 68.52913908334757,42.8217587259155 l -69.98185081086373,-40.40404040404039 l 69.98185081086373,40.40404040404039 l -71.34930043304459,-37.93709598269825 l 71.34930043304459,37.93709598269825 l -72.62982192316498,-35.423931053662855 l 72.62982192316498,35.423931053662855 l -73.82185516303842,-32.86760752127686 l 73.82185516303842,32.86760752127686 l -74.92394784378081,-30.271239871992858 l 74.92394784378081,30.271239871992858 l -75.93475723522492,-27.637991379852014 l 75.93475723522492,27.637991379852014 l -76.85305182183058,-24.97107025252103 l 76.85305182183058,24.97107025252103 l -77.67771280309645,-22.273725722585855 l 77.67771280309645,22.273725722585855 l -78.40773545664615,-19.549244088862128 l 78.40773545664615,19.549244088862128 l -79.04223036232771,-16.80094471254633 l 79.04223036232771,16.80094471254633 l -79.580424485835,-14.032175973085293 l 79.580424485835,14.032175973085293 l -80.02166212053093,-11.2463111886922 l 80.02166212053093,11.2463111886922 l -80.36540568632512,-8.446744506476982 l 80.36540568632512,8.446744506476982 l -80.61123638463226,-5.63688676720201 l 80.61123638463226,5.63688676720201 l -80.7588547086138,-2.8201613496970457 l 80.7588547086138,2.8201613496970457 l -80.8080808080808,-2.9688407252057045e-14 l 80.8080808080808,2.9688407252057045e-14 l -80.7588547086138,2.820161349696986 l 80.7588547086138,-2.820161349696986 l -80.61123638463226,5.636886767201951 l 80.61123638463226,-5.636886767201951 l -80.36540568632513,8.446744506476923 l 80.36540568632513,-8.446744506476923 l -80.02166212053093,11.246311188692143 l 80.02166212053093,-11.246311188692143 l -79.580424485835,14.032175973085236 l 79.580424485835,-14.032175973085236 l -79.04223036232771,16.800944712546276 l 79.04223036232771,-16.800944712546276 l -78.40773545664617,19.54924408886207 l 78.40773545664617,-19.54924408886207 l -77.67771280309647,22.27372572258579 l 77.67771280309647,-22.27372572258579 l -76.85305182183059,24.971070252520974 l 76.85305182183059,-24.971070252520974 l -75.93475723522494,27.637991379851957 l 75.93475723522494,-27.637991379851957 l -74.92394784378084,30.271239871992798 l 74.92394784378084,-30.271239871992798 l -73.82185516303845,32.8676075212768 l 73.82185516303845,-32.8676075212768 l -72.62982192316501,35.423931053662805 l 72.62982192316501,-35.423931053662805 l -71.34930043304462,37.9370959826982 l 71.34930043304462,-37.9370959826982 l -69.98185081086378,40.40404040404034 l 69.98185081086378,-40.40404040404034 l -68.52913908334762,42.82175872591546 l 68.52913908334762,-42.82175872591546 l -66.99293515596295,45.18730533096945 l 66.99293515596295,-45.18730533096945 l -65.37511065656143,47.49779816504831 l 65.37511065656143,-47.49779816504831 l -63.67763665508868,49.750422248537994 l 63.67763665508868,-49.750422248537994 l -61.902581262139606,51.942433105983014 l 61.902581262139606,-51.942433105983014 l -60.052107109284364,54.07116010980674 l 60.052107109284364,-54.07116010980674 l -58.128468714234444,56.13400973406038 l 58.128468714234444,-56.13400973406038 l -56.13400973406042,58.1284687142344 l 56.13400973406042,-58.1284687142344 l -54.071160109806776,60.05210710928433 l 54.071160109806776,-60.05210710928433 l -51.94243310598306,61.90258126213956 l 51.94243310598306,-61.90258126213956 l -49.750422248538044,63.677636655088634 l 49.750422248538044,-63.677636655088634 l -47.497798165048366,65.37511065656139 l 47.497798165048366,-65.37511065656139 l -45.187305330969494,66.99293515596293 l 45.187305330969494,-66.99293515596293 l -42.82175872591551,68.52913908334757 l 42.82175872591551,-68.52913908334757 l -101.01010101010097,174.95462702715932 l -40.404040404040394,69.98185081086373 l 40.404040404040394,-69.98185081086373 l -37.93709598269826,71.34930043304459 l 37.93709598269826,-71.34930043304459 l -35.42393105366286,72.62982192316498 l 35.42393105366286,-72.62982192316498 l -32.86760752127686,73.82185516303842 l 32.86760752127686,-73.82185516303842 l -30.27123987199286,74.92394784378081 l 30.27123987199286,-74.92394784378081 l -27.63799137985202,75.93475723522492 l 27.63799137985202,-75.93475723522492 l -24.971070252521038,76.85305182183058 l 24.971070252521038,-76.85305182183058 l -22.27372572258586,77.67771280309645 l 22.27372572258586,-77.67771280309645 l -19.54924408886213,78.40773545664615 l 19.54924408886213,-78.40773545664615 l -16.800944712546336,79.04223036232771 l 16.800944712546336,-79.04223036232771 l -14.032175973085296,79.580424485835 l 14.032175973085296,-79.580424485835 l -11.246311188692205,80.02166212053093 l 11.246311188692205,-80.02166212053093 l -8.446744506476987,80.36540568632512 l 8.446744506476987,-80.36540568632512 l -5.636886767202015,80.61123638463226 l 5.636886767202015,-80.61123638463226 l -2.820161349697051,80.7588547086138 l 2.820161349697051,-80.7588547086138 l -3.463647512739988e-14,80.8080808080808 l 3.463647512739988e-14,-80.8080808080808 l 2.8201613496969813,80.7588547086138 l -2.8201613496969813,-80.7588547086138 l 5.636886767201946,80.61123638463226 l -5.636886767201946,-80.61123638463226 l 8.446744506476918,80.36540568632513 l -8.446744506476918,-80.36540568632513 l 11.24631118869214,80.02166212053093 l -11.24631118869214,-80.02166212053093 l 14.032175973085232,79.580424485835 l -14.032175973085232,-79.580424485835 l 16.80094471254627,79.04223036232771 l -16.80094471254627,-79.04223036232771 l 19.549244088862064,78.40773545664617 l -19.549244088862064,-78.40773545664617 l 22.273725722585784,77.67771280309647 l -22.273725722585784,-77.67771280309647 l 24.971070252520967,76.8530518218306 l -24.971070252520967,-76.8530518218306 l 27.63799137985195,75.93475723522494 l -27.63799137985195,-75.93475723522494 l 30.271239871992798,74.92394784378084 l -30.271239871992798,-74.92394784378084 l 32.867607521276796,73.82185516303845 l -32.867607521276796,-73.82185516303845 l 35.4239310536628,72.62982192316503 l -35.4239310536628,-72.62982192316503 l 37.937095982698196,71.34930043304462 l -37.937095982698196,-71.34930043304462 l 40.40404040404034,69.98185081086378 l -40.40404040404034,-69.98185081086378 l 42.821758725915444,68.52913908334762 l -42.821758725915444,-68.52913908334762 l 45.18730533096944,66.99293515596297 l -45.18730533096944,-66.99293515596297 l 47.49779816504831,65.37511065656143 l -47.49779816504831,-65.37511065656143 l 49.750422248537994,63.67763665508868 l -49.750422248537994,-63.67763665508868 l 51.94243310598301,61.902581262139606 l -51.94243310598301,-61.902581262139606 l 54.07116010980674,60.05210710928438 l -54.07116010980674,-60.05210710928438 l 56.13400973406036,58.128468714234444 l -56.13400973406036,-58.128468714234444 l 58.1284687142344,56.13400973406042 l -58.1284687142344,-56.13400973406042 l 60.05210710928433,54.071160109806776 l -60.05210710928433,-54.071160109806776 l 61.90258126213956,51.94243310598306 l -61.90258126213956,-51.94243310598306 l 63.677636655088634,49.750422248538044 l -63.677636655088634,-49.750422248538044 l 65.37511065656139,47.497798165048366 l -65.37511065656139,-47.497798165048366 l 66.99293515596293,45.187305330969494 l -66.99293515596293,-45.187305330969494 l 68.52913908334757,42.82175872591551 l -68.52913908334757,-42.82175872591551 l 69.98185081086373,40.404040404040394 l -69.98185081086373,-40.404040404040394 l 71.34930043304459,37.93709598269827 l -71.34930043304459,-37.93709598269827 l 72.62982192316498,35.42393105366287 l -72.62982192316498,-35.42393105366287 l 73.8218551630384,32.86760752127686 l -73.8218551630384,-32.86760752127686 l 74.92394784378081,30.27123987199287 l -74.92394784378081,-30.27123987199287 l 75.93475723522491,27.637991379852025 l -75.93475723522491,-27.637991379852025 l 76.85305182183058,24.97107025252104 l -76.85305182183058,-24.97107025252104 l 77.67771280309645,22.273725722585862 l -77.67771280309645,-22.273725722585862 l 78.40773545664615,19.549244088862135 l -78.40773545664615,-19.549244088862135 l 79.0422303623277,16.80094471254634 l -79.0422303623277,-16.80094471254634 l 79.580424485835,14.032175973085305 l -79.580424485835,-14.032175973085305 l 80.02166212053093,11.246311188692212 l -80.02166212053093,-11.246311188692212 l 80.36540568632512,8.44674450647699 l -80.36540568632512,-8.44674450647699 l 80.61123638463226,5.63688676720202 l -80.61123638463226,-5.63688676720202 l 80.7588547086138,2.820161349697056 l -80.7588547086138,-2.820161349697056 l 80.8080808080808,3.958454300274273e-14 l -80.8080808080808,-3.958454300274273e-14 l 80.7588547086138,-2.8201613496969764 l -80.7588547086138,2.8201613496969764 l 80.61123638463226,-5.636886767201942 l -80.61123638463226,5.636886767201942 l 80.36540568632513,-8.446744506476914 l -80.36540568632513,8.446744506476914 l 80.02166212053093,-11.246311188692133 l -80.02166212053093,11.246311188692133 l 79.580424485835,-14.032175973085224 l -79.580424485835,14.032175973085224 l 79.04223036232776,-16.800944712546123 l -79.04223036232776,16.800944712546123 l 78.40773545664621,-19.54924408886192 l -78.40773545664621,19.54924408886192 l 77.67771280309651,-22.273725722585645 l -77.67771280309651,22.273725722585645 l 76.85305182183065,-24.971070252520825 l -76.85305182183065,24.971070252520825 l 75.93475723522494,-27.63799137985195 l -75.93475723522494,27.63799137985195 l 74.92394784378084,-30.271239871992794 l -74.92394784378084,30.271239871992794 l 73.82185516303845,-32.86760752127679 l -73.82185516303845,32.86760752127679 l 72.62982192316495,-35.423931053662926 l -72.62982192316495,35.423931053662926 l 71.34930043304456,-37.93709598269832 l -71.34930043304456,37.93709598269832 l 174.95462702715923,-101.01010101010115 l 69.98185081086369,-40.40404040404046 l -69.98185081086369,40.40404040404046 l 68.52913908334754,-42.82175872591557 l -68.52913908334754,42.82175872591557 l 66.99293515596297,-45.18730533096944 l -66.99293515596297,45.18730533096944 l 65.37511065656143,-47.49779816504831 l -65.37511065656143,47.49779816504831 l 63.67763665508868,-49.750422248537994 l -63.67763665508868,49.750422248537994 l 61.902581262139606,-51.94243310598301 l -61.902581262139606,51.94243310598301 l 60.05210710928438,-54.07116010980674 l -60.05210710928438,54.07116010980674 l 58.128468714234444,-56.13400973406036 l -58.128468714234444,56.13400973406036 l 56.13400973406042,-58.1284687142344 l -56.13400973406042,58.1284687142344 l 54.07116010980678,-60.05210710928432 l -54.07116010980678,60.05210710928432 l 51.94243310598306,-61.90258126213956 l -51.94243310598306,61.90258126213956 l 49.75042224853805,-63.677636655088634 l -49.75042224853805,63.677636655088634 l 47.497798165048366,-65.37511065656139 l -47.497798165048366,65.37511065656139 l 45.1873053309695,-66.99293515596293 l -45.1873053309695,66.99293515596293 l 42.82175872591564,-68.52913908334749 l -42.82175872591564,68.52913908334749 l 40.404040404040515,-69.98185081086366 l -40.404040404040515,69.98185081086366 l 37.937095982698395,-71.34930043304452 l -37.937095982698395,71.34930043304452 l 35.423931053663004,-72.62982192316493 l -35.423931053663004,72.62982192316493 l 32.86760752127687,-73.8218551630384 l -32.86760752127687,73.8218551630384 l 30.271239871992872,-74.92394784378081 l -30.271239871992872,74.92394784378081 l 27.637991379852032,-75.93475723522491 l -27.637991379852032,75.93475723522491 l 24.971070252520907,-76.85305182183062 l -24.971070252520907,76.85305182183062 l 22.273725722585727,-77.6777128030965 l -22.273725722585727,77.6777128030965 l 19.549244088862004,-78.4077354566462 l -19.549244088862004,78.4077354566462 l 16.800944712546205,-79.04223036232773 l -16.800944712546205,79.04223036232773 l 14.032175973085307,-79.580424485835 l -14.032175973085307,79.580424485835 l 11.246311188692216,-80.02166212053093 l -11.246311188692216,80.02166212053093 l 8.446744506476998,-80.36540568632512 l -8.446744506476998,80.36540568632512 l 5.636886767202025,-80.61123638463226 l -5.636886767202025,80.61123638463226 l 2.8201613496970603,-80.7588547086138 l -2.8201613496970603,80.7588547086138 l 4.453261087808557e-14,-80.8080808080808 l -4.453261087808557e-14,80.8080808080808 l -2.8201613496969715,-80.7588547086138 l 2.8201613496969715,80.7588547086138 l -5.636886767201935,-80.61123638463226 l 5.636886767201935,80.61123638463226 l -8.446744506476909,-80.36540568632513 l 8.446744506476909,80.36540568632513 l -11.246311188692127,-80.02166212053093 l 11.246311188692127,80.02166212053093 l -14.032175973085222,-79.58042448583501 l 14.032175973085222,79.58042448583501 l -16.800944712546116,-79.04223036232776 l 16.800944712546116,79.04223036232776 l -19.549244088861915,-78.40773545664621 l 19.549244088861915,78.40773545664621 l -22.27372572258564,-77.67771280309653 l 22.27372572258564,77.67771280309653 l -24.97107025252082,-76.85305182183065 l 24.97107025252082,76.85305182183065 l -27.637991379851947,-75.93475723522495 l 27.637991379851947,75.93475723522495 l -30.271239871992794,-74.92394784378084 l 30.271239871992794,74.92394784378084 l -32.86760752127678,-73.82185516303845 l 32.86760752127678,73.82185516303845 l -35.42393105366292,-72.62982192316495 l 35.42393105366292,72.62982192316495 l -37.93709598269831,-71.34930043304456 l 37.93709598269831,71.34930043304456 l -40.40404040404045,-69.9818508108637 l 40.40404040404045,69.9818508108637 l -42.821758725915565,-68.52913908334754 l 42.821758725915565,68.52913908334754 l -45.18730533096943,-66.99293515596298 l 45.18730533096943,66.99293515596298 l -47.4977981650483,-65.37511065656145 l 47.4977981650483,65.37511065656145 l -49.75042224853798,-63.67763665508869 l 49.75042224853798,63.67763665508869 l -51.94243310598301,-61.90258126213962 l 51.94243310598301,61.90258126213962 l -54.071160109806726,-60.052107109284385 l 54.071160109806726,60.052107109284385 l -56.13400973406036,-58.12846871423446 l 56.13400973406036,58.12846871423446 l -58.1284687142344,-56.134009734060434 l 58.1284687142344,56.134009734060434 l -60.05210710928431,-54.0711601098068 l 60.05210710928431,54.0711601098068 l -61.90258126213956,-51.94243310598307 l 61.90258126213956,51.94243310598307 l -63.67763665508862,-49.75042224853806 l 63.67763665508862,49.75042224853806 l -65.37511065656138,-47.49779816504838 l 65.37511065656138,47.49779816504838 l -66.99293515596291,-45.18730533096951 l 66.99293515596291,45.18730533096951 l -68.52913908334749,-42.82175872591564 l 68.52913908334749,42.82175872591564 l -69.98185081086366,-40.40404040404053 l 69.98185081086366,40.40404040404053 l -71.3493004330445,-37.937095982698395 l 71.3493004330445,37.937095982698395 l -72.62982192316491,-35.42393105366301 l 72.62982192316491,35.42393105366301 l -73.8218551630384,-32.867607521276874 l 73.8218551630384,32.867607521276874 l -74.92394784378081,-30.271239871992872 l 74.92394784378081,30.271239871992872 l -75.93475723522491,-27.637991379852036 l 75.93475723522491,27.637991379852036 l -76.85305182183062,-24.97107025252091 l 76.85305182183062,24.97107025252091 l -77.6777128030965,-22.273725722585734 l 77.6777128030965,22.273725722585734 l -78.4077354566462,-19.549244088862007 l 78.4077354566462,19.549244088862007 l -79.04223036232773,-16.800944712546208 l 79.04223036232773,16.800944712546208 l -79.580424485835,-14.032175973085314 l 79.580424485835,14.032175973085314 l -80.02166212053093,-11.246311188692221 l 80.02166212053093,11.246311188692221 l -80.36540568632512,-8.446744506477001 l 80.36540568632512,8.446744506477001 l -80.61123638463226,-5.6368867672020295 l 80.61123638463226,5.6368867672020295 l -80.7588547086138,-2.8201613496970652 l 80.7588547086138,2.8201613496970652 l -202.02020202020202,-1.2370169688357103e-13 l -80.8080808080808,-4.9480678753428415e-14 l 80.8080808080808,4.9480678753428415e-14 l -80.7588547086138,2.8201613496969666 l 80.7588547086138,-2.8201613496969666 l -80.61123638463226,5.636886767201932 l 80.61123638463226,-5.636886767201932 l -80.36540568632513,8.446744506476904 l 80.36540568632513,-8.446744506476904 l -80.02166212053093,11.246311188692124 l 80.02166212053093,-11.246311188692124 l -79.58042448583501,14.032175973085216 l 79.58042448583501,-14.032175973085216 l -79.04223036232776,16.800944712546112 l 79.04223036232776,-16.800944712546112 l -78.40773545664621,19.54924408886191 l 78.40773545664621,-19.54924408886191 l -77.67771280309653,22.273725722585638 l 77.67771280309653,-22.273725722585638 l -76.85305182183065,24.971070252520818 l 76.85305182183065,-24.971070252520818 l -75.93475723522495,27.63799137985194 l 75.93475723522495,-27.63799137985194 l -74.9239478437809,30.27123987199265 l 74.9239478437809,-30.27123987199265 l -73.8218551630384,32.867607521276916 l 73.8218551630384,-32.867607521276916 l -72.62982192316503,35.42393105366279 l 72.62982192316503,-35.42393105366279 l -71.34930043304456,37.93709598269831 l 71.34930043304456,-37.93709598269831 l -69.98185081086379,40.40404040404031 l 69.98185081086379,-40.40404040404031 l -68.52913908334754,42.82175872591556 l 68.52913908334754,-42.82175872591556 l -66.9929351559629,45.18730533096954 l 66.9929351559629,-45.18730533096954 l -65.37511065656145,47.49779816504829 l 65.37511065656145,-47.49779816504829 l -63.67763665508861,49.75042224853809 l 63.67763665508861,-49.75042224853809 l -61.90258126213972,51.94243310598288 l 61.90258126213972,-51.94243310598288 l -60.052107109284385,54.07116010980672 l 60.052107109284385,-54.07116010980672 l -58.12846871423456,56.134009734060264 l 58.12846871423456,-56.134009734060264 l -56.134009734060434,58.1284687142344 l 56.134009734060434,-58.1284687142344 l -54.07116010980669,60.05210710928442 l 54.07116010980669,-60.05210710928442 l -51.94243310598307,61.90258126213956 l 51.94243310598307,-61.90258126213956 l -49.75042224853806,63.67763665508862 l 49.75042224853806,-63.67763665508862 l -47.49779816504849,65.37511065656129 l 47.49779816504849,-65.37511065656129 l -45.18730533096951,66.99293515596291 l 45.18730533096951,-66.99293515596291 l -42.82175872591577,68.52913908334742 l 42.82175872591577,-68.52913908334742 l -40.40404040404053,69.98185081086366 l 40.40404040404053,-69.98185081086366 l -37.937095982698274,71.34930043304459 l 37.937095982698274,-71.34930043304459 l -35.42393105366301,72.62982192316491 l 35.42393105366301,-72.62982192316491 l -32.867607521276874,73.8218551630384 l 32.867607521276874,-73.8218551630384 l -30.27123987199288,74.92394784378081 l 30.27123987199288,-74.92394784378081 l -27.637991379851904,75.93475723522496 l 27.637991379851904,-75.93475723522496 l -24.971070252521056,76.85305182183058 l 24.971070252521056,-76.85305182183058 l -22.273725722585734,77.6777128030965 l 22.273725722585734,-77.6777128030965 l -19.549244088862153,78.40773545664615 l 19.549244088862153,-78.40773545664615 l -16.800944712546215,79.04223036232771 l 16.800944712546215,-79.04223036232771 l -14.032175973085176,79.58042448583501 l 14.032175973085176,-79.58042448583501 l -11.246311188692227,80.02166212053092 l 11.246311188692227,-80.02166212053092 l -8.446744506477007,80.36540568632512 l 8.446744506477007,-80.36540568632512 l -5.636886767202179,80.61123638463225 l 5.636886767202179,-80.61123638463225 l -2.82016134969707,80.7588547086138 l 2.82016134969707,-80.7588547086138 l -1.979727336510137e-13,80.8080808080808 l 1.979727336510137e-13,-80.8080808080808 l 2.8201613496969613,80.7588547086138 l -2.8201613496969613,-80.7588547086138 l 5.6368867672020695,80.61123638463225 l -5.6368867672020695,-80.61123638463225 l 8.446744506476898,80.36540568632513 l -8.446744506476898,-80.36540568632513 l 11.246311188692118,80.02166212053093 l -11.246311188692118,-80.02166212053093 l 14.032175973085069,79.58042448583502 l -14.032175973085069,-79.58042448583502 l 16.80094471254611,79.04223036232776 l -16.80094471254611,-79.04223036232776 l 19.549244088862046,78.40773545664618 l -19.549244088862046,-78.40773545664618 l 22.27372572258563,77.67771280309653 l -22.27372572258563,-77.67771280309653 l 24.971070252520953,76.8530518218306 l -24.971070252520953,-76.8530518218306 l 27.6379913798518,75.93475723522499 l -27.6379913798518,-75.93475723522499 l 30.271239871992783,74.92394784378085 l -30.271239871992783,-74.92394784378085 l 32.867607521276774,73.82185516303846 l -32.867607521276774,-73.82185516303846 l 35.42393105366292,72.62982192316497 l -35.42393105366292,-72.62982192316497 l 37.93709598269818,71.34930043304463 l -37.93709598269818,-71.34930043304463 l 40.40404040404044,69.9818508108637 l -40.40404040404044,-69.9818508108637 l 42.82175872591568,68.52913908334747 l -42.82175872591568,-68.52913908334747 l 45.187305330969416,66.99293515596298 l -45.187305330969416,-66.99293515596298 l 47.4977981650484,65.37511065656136 l -47.4977981650484,-65.37511065656136 l 49.75042224853797,63.677636655088705 l -49.75042224853797,-63.677636655088705 l 51.94243310598299,61.90258126213963 l -51.94243310598299,-61.90258126213963 l 54.07116010980661,60.05210710928448 l -54.07116010980661,-60.05210710928448 l 56.134009734060356,58.128468714234465 l -56.134009734060356,-58.128468714234465 l 58.12846871423448,56.13400973406034 l -58.12846871423448,-56.13400973406034 l 60.05210710928431,54.07116010980681 l -60.05210710928431,-54.07116010980681 l 61.90258126213964,51.94243310598297 l -61.90258126213964,-51.94243310598297 l 63.67763665508854,49.75042224853817 l -63.67763665508854,-49.75042224853817 l 65.37511065656138,47.49779816504838 l -65.37511065656138,-47.49779816504838 l 66.99293515596283,45.18730533096963 l -66.99293515596283,-45.18730533096963 l 68.52913908334749,42.82175872591565 l -68.52913908334749,-42.82175872591565 l 174.95462702715932,101.01010101010102 l 69.98185081086372,40.404040404040416 l -69.98185081086372,-40.404040404040416 l 71.3493004330445,37.93709598269841 l -71.3493004330445,-37.93709598269841 l 72.62982192316498,35.42393105366289 l -72.62982192316498,-35.42393105366289 l 73.82185516303835,32.86760752127701 l -73.82185516303835,-32.86760752127701 l 74.92394784378085,30.27123987199275 l -74.92394784378085,-30.27123987199275 l 75.93475723522491,27.637991379852043 l -75.93475723522491,-27.637991379852043 l 76.85305182183062,24.97107025252092 l -76.85305182183062,-24.97107025252092 l 77.67771280309645,22.27372572258588 l -77.67771280309645,-22.27372572258588 l 78.4077354566462,19.549244088862018 l -78.4077354566462,-19.549244088862018 l 79.04223036232776,16.800944712546077 l -79.04223036232776,-16.800944712546077 l 79.580424485835,14.032175973085321 l -79.580424485835,-14.032175973085321 l 80.02166212053095,11.246311188692088 l -80.02166212053095,-11.246311188692088 l 80.3654056863251,8.446744506477154 l -80.3654056863251,-8.446744506477154 l 80.61123638463225,5.63688676720204 l -80.61123638463225,-5.63688676720204 l 80.7588547086138,2.8201613496972193 l -80.7588547086138,-2.8201613496972193 l 80.8080808080808,5.937681450411409e-14 l -80.8080808080808,-5.937681450411409e-14 l 80.7588547086138,-2.8201613496971 l -80.7588547086138,2.8201613496971 l 80.61123638463226,-5.636886767201921 l -80.61123638463226,5.636886767201921 l 80.36540568632512,-8.446744506477035 l -80.36540568632512,8.446744506477035 l 80.02166212053096,-11.246311188691973 l -80.02166212053096,11.246311188691973 l 79.58042448583501,-14.032175973085208 l -79.58042448583501,14.032175973085208 l 79.04223036232777,-16.800944712545963 l -79.04223036232777,16.800944712545963 l 78.40773545664621,-19.549244088861904 l -78.40773545664621,19.549244088861904 l 77.67771280309648,-22.273725722585766 l -77.67771280309648,22.273725722585766 l 76.85305182183065,-24.971070252520807 l -76.85305182183065,24.971070252520807 l 75.93475723522495,-27.637991379851933 l -75.93475723522495,27.637991379851933 l 74.9239478437809,-30.271239871992645 l -74.9239478437809,30.271239871992645 l 73.8218551630384,-32.8676075212769 l -73.8218551630384,32.8676075212769 l 72.62982192316503,-35.423931053662784 l -72.62982192316503,35.423931053662784 l 71.34930043304456,-37.93709598269831 l -71.34930043304456,37.93709598269831 l 69.98185081086379,-40.40404040404031 l -69.98185081086379,40.40404040404031 l 68.52913908334756,-42.82175872591555 l -68.52913908334756,42.82175872591555 l 66.9929351559629,-45.18730533096954 l -66.9929351559629,45.18730533096954 l 65.37511065656145,-47.49779816504828 l -65.37511065656145,47.49779816504828 l 63.67763665508861,-49.75042224853808 l -63.67763665508861,49.75042224853808 l 61.90258126213972,-51.94243310598288 l -61.90258126213972,51.94243310598288 l 60.052107109284385,-54.071160109806705 l -60.052107109284385,54.071160109806705 l 58.12846871423457,-56.13400973406025 l -58.12846871423457,56.13400973406025 l 56.134009734060434,-58.12846871423439 l -56.134009734060434,58.12846871423439 l 54.07116010980669,-60.0521071092844 l -54.07116010980669,60.0521071092844 l 51.942433105983085,-61.90258126213955 l -51.942433105983085,61.90258126213955 l 49.75042224853806,-63.67763665508862 l -49.75042224853806,63.67763665508862 l 47.49779816504849,-65.37511065656128 l -47.49779816504849,65.37511065656128 l 45.187305330969515,-66.99293515596291 l -45.187305330969515,66.99293515596291 l 42.82175872591578,-68.5291390833474 l -42.82175872591578,68.5291390833474 l 40.404040404040536,-69.98185081086366 l -40.404040404040536,69.98185081086366 l 37.93709598269828,-71.34930043304458 l -37.93709598269828,71.34930043304458 l 35.42393105366302,-72.62982192316491 l -35.42393105366302,72.62982192316491 l 32.86760752127688,-73.8218551630384 l -32.86760752127688,73.8218551630384 l 30.27123987199289,-74.92394784378081 l -30.27123987199289,74.92394784378081 l 27.63799137985191,-75.93475723522496 l -27.63799137985191,75.93475723522496 l 24.971070252521063,-76.85305182183058 l -24.971070252521063,76.85305182183058 l 22.273725722585745,-77.67771280309648 l -22.273725722585745,77.67771280309648 l 19.549244088862164,-78.40773545664615 l -19.549244088862164,78.40773545664615 l 16.800944712546226,-79.04223036232771 l -16.800944712546226,79.04223036232771 l 14.032175973085186,-79.58042448583501 l -14.032175973085186,79.58042448583501 l 11.246311188692237,-80.02166212053092 l -11.246311188692237,80.02166212053092 l 8.446744506477016,-80.36540568632512 l -8.446744506477016,80.36540568632512 l 5.636886767202187,-80.61123638463225 l -5.636886767202187,80.61123638463225 l 2.8201613496970808,-80.7588547086138 l -2.8201613496970808,80.7588547086138 l -7.921910464278552e-14,-80.8080808080808 l 7.921910464278552e-14,80.8080808080808 l -2.8201613496969515,-80.7588547086138 l 2.8201613496969515,80.7588547086138 l -5.63688676720206,-80.61123638463225 l 5.63688676720206,80.61123638463225 l -8.446744506476888,-80.36540568632513 l 8.446744506476888,80.36540568632513 l -11.246311188692108,-80.02166212053093 l 11.246311188692108,80.02166212053093 l -14.032175973085058,-79.58042448583504 l 14.032175973085058,79.58042448583504 l -16.800944712546098,-79.04223036232776 l 16.800944712546098,79.04223036232776 l -19.549244088862036,-78.40773545664618 l 19.549244088862036,78.40773545664618 l -22.273725722585624,-77.67771280309653 l 22.273725722585624,77.67771280309653 l -24.971070252520942,-76.85305182183062 l 24.971070252520942,76.85305182183062 l -27.63799137985179,-75.934757235225 l 27.63799137985179,75.934757235225 l -30.27123987199277,-74.92394784378085 l 30.27123987199277,74.92394784378085 l -32.867607521276774,-73.82185516303846 l 32.867607521276774,73.82185516303846 l -35.423931053662905,-72.62982192316497 l 35.423931053662905,72.62982192316497 l -37.937095982698175,-71.34930043304463 l 37.937095982698175,71.34930043304463 l -101.01010101010108,-174.9546270271593 l -40.40404040404043,-69.98185081086372 l 40.40404040404043,69.98185081086372 l -42.82175872591568,-68.52913908334749 l 42.82175872591568,68.52913908334749 l -45.18730533096941,-66.99293515596298 l 45.18730533096941,66.99293515596298 l -47.497798165048394,-65.37511065656136 l 47.497798165048394,65.37511065656136 l -49.75042224853796,-63.677636655088705 l 49.75042224853796,63.677636655088705 l -51.942433105982985,-61.90258126213963 l 51.942433105982985,61.90258126213963 l -54.0711601098066,-60.05210710928449 l 54.0711601098066,60.05210710928449 l -56.13400973406034,-58.128468714234465 l 56.13400973406034,58.128468714234465 l -58.12846871423448,-56.13400973406034 l 58.12846871423448,56.13400973406034 l -60.05210710928431,-54.07116010980682 l 60.05210710928431,54.07116010980682 l -61.90258126213964,-51.942433105982985 l 61.90258126213964,51.942433105982985 l -63.677636655088534,-49.750422248538186 l 63.677636655088534,49.750422248538186 l -65.37511065656136,-47.49779816504839 l 65.37511065656136,47.49779816504839 l -66.99293515596283,-45.18730533096964 l 66.99293515596283,45.18730533096964 l -68.52913908334749,-42.821758725915664 l 68.52913908334749,42.821758725915664 l -69.98185081086372,-40.40404040404042 l 69.98185081086372,40.40404040404042 l -71.3493004330445,-37.937095982698416 l 71.3493004330445,37.937095982698416 l -72.62982192316498,-35.4239310536629 l 72.62982192316498,35.4239310536629 l -73.82185516303835,-32.867607521277016 l 73.82185516303835,32.867607521277016 l -74.92394784378085,-30.27123987199276 l 74.92394784378085,30.27123987199276 l -75.93475723522491,-27.637991379852053 l 75.93475723522491,27.637991379852053 l -76.85305182183062,-24.971070252520928 l 76.85305182183062,24.971070252520928 l -77.67771280309645,-22.273725722585887 l 77.67771280309645,22.273725722585887 l -78.40773545664618,-19.54924408886203 l 78.40773545664618,19.54924408886203 l -79.04223036232776,-16.800944712546087 l 79.04223036232776,16.800944712546087 l -79.58042448583498,-14.032175973085334 l 79.58042448583498,14.032175973085334 l -80.02166212053093,-11.246311188692097 l 80.02166212053093,11.246311188692097 l -80.3654056863251,-8.446744506477165 l 80.3654056863251,8.446744506477165 l -80.61123638463225,-5.63688676720205 l 80.61123638463225,5.63688676720205 l -80.7588547086138,-2.820161349697229 l 80.7588547086138,2.820161349697229 l -80.8080808080808,-6.927295025479977e-14 l 80.8080808080808,6.927295025479977e-14 l -80.7588547086138,2.82016134969709 l 80.7588547086138,-2.82016134969709 l -80.61123638463226,5.636886767201911 l 80.61123638463226,-5.636886767201911 l -80.36540568632512,8.446744506477028 l 80.36540568632512,-8.446744506477028 l -80.02166212053096,11.24631118869196 l 80.02166212053096,-11.24631118869196 l -79.58042448583501,14.032175973085195 l 79.58042448583501,-14.032175973085195 l -79.04223036232779,16.800944712545952 l 79.04223036232779,-16.800944712545952 l -78.40773545664621,19.549244088861894 l 78.40773545664621,-19.549244088861894 l -77.67771280309648,22.27372572258576 l 77.67771280309648,-22.27372572258576 l -76.85305182183065,24.971070252520803 l 76.85305182183065,-24.971070252520803 l -75.93475723522495,27.637991379851922 l 75.93475723522495,-27.637991379851922 l -74.9239478437809,30.271239871992634 l 74.9239478437809,-30.271239871992634 l -73.8218551630384,32.867607521276895 l 73.8218551630384,-32.867607521276895 l -72.62982192316503,35.42393105366277 l 72.62982192316503,-35.42393105366277 l -71.34930043304456,37.937095982698295 l 71.34930043304456,-37.937095982698295 l -69.98185081086379,40.4040404040403 l 69.98185081086379,-40.4040404040403 l -68.52913908334756,42.82175872591555 l 68.52913908334756,-42.82175872591555 l -66.9929351559629,45.18730533096953 l 66.9929351559629,-45.18730533096953 l -65.37511065656145,47.49779816504827 l 65.37511065656145,-47.49779816504827 l -63.67763665508862,49.75042224853807 l 63.67763665508862,-49.75042224853807 l -61.90258126213972,51.942433105982865 l 61.90258126213972,-51.942433105982865 l -60.0521071092844,54.071160109806705 l 60.0521071092844,-54.071160109806705 l -58.12846871423457,56.13400973406024 l 58.12846871423457,-56.13400973406024 l -56.13400973406045,58.12846871423437 l 56.13400973406045,-58.12846871423437 l -54.071160109806705,60.0521071092844 l 54.071160109806705,-60.0521071092844 l -51.942433105983085,61.90258126213955 l 51.942433105983085,-61.90258126213955 l -49.75042224853807,63.67763665508862 l 49.75042224853807,-63.67763665508862 l -47.49779816504851,65.37511065656128 l 47.49779816504851,-65.37511065656128 l -45.18730533096953,66.9929351559629 l 45.18730533096953,-66.9929351559629 l -42.82175872591579,68.5291390833474 l 42.82175872591579,-68.5291390833474 l -40.40404040404054,69.98185081086365 l 40.40404040404054,-69.98185081086365 l -37.937095982698295,71.34930043304456 l 37.937095982698295,-71.34930043304456 l -35.42393105366303,72.6298219231649 l 35.42393105366303,-72.6298219231649 l -32.867607521276895,73.8218551630384 l 32.867607521276895,-73.8218551630384 l -30.2712398719929,74.9239478437808 l 30.2712398719929,-74.9239478437808 l -27.637991379851922,75.93475723522495 l 27.637991379851922,-75.93475723522495 l -24.971070252521073,76.85305182183058 l 24.971070252521073,-76.85305182183058 l -22.27372572258576,77.67771280309648 l 22.27372572258576,-77.67771280309648 l -19.54924408886217,78.40773545664615 l 19.54924408886217,-78.40773545664615 l -16.800944712546233,79.04223036232771 l 16.800944712546233,-79.04223036232771 l -14.032175973085195,79.58042448583501 l 14.032175973085195,-79.58042448583501 l -11.246311188692246,80.02166212053092 l 11.246311188692246,-80.02166212053092 l -8.446744506477028,80.36540568632512 l 8.446744506477028,-80.36540568632512 l -5.636886767202197,80.61123638463225 l 5.636886767202197,-80.61123638463225 l -2.82016134969709,80.7588547086138 l 2.82016134969709,-80.7588547086138 l -5.444125128809627e-13,202.02020202020202 l -2.1776500515238506e-13,80.8080808080808 l 2.1776500515238506e-13,-80.8080808080808 l 2.820161349696942,80.7588547086138 l -2.820161349696942,-80.7588547086138 l 5.63688676720205,80.61123638463225 l -5.63688676720205,-80.61123638463225 l 8.446744506476879,80.36540568632513 l -8.446744506476879,-80.36540568632513 l 11.246311188692097,80.02166212053093 l -11.246311188692097,-80.02166212053093 l 14.03217597308505,79.58042448583504 l -14.03217597308505,-79.58042448583504 l 16.800944712546087,79.04223036232776 l -16.800944712546087,-79.04223036232776 l 19.54924408886203,78.40773545664618 l -19.54924408886203,-78.40773545664618 l 22.273725722585613,77.67771280309653 l -22.273725722585613,-77.67771280309653 l 24.971070252520928,76.85305182183062 l -24.971070252520928,-76.85305182183062 l 27.63799137985178,75.934757235225 l -27.63799137985178,-75.934757235225 l 30.27123987199276,74.92394784378085 l -30.27123987199276,-74.92394784378085 l 32.86760752127676,73.82185516303846 l -32.86760752127676,-73.82185516303846 l 35.4239310536629,72.62982192316498 l -35.4239310536629,-72.62982192316498 l 37.93709598269816,71.34930043304463 l -37.93709598269816,-71.34930043304463 l 40.40404040404042,69.98185081086372 l -40.40404040404042,-69.98185081086372 l 42.821758725915664,68.52913908334749 l -42.821758725915664,-68.52913908334749 l 45.1873053309694,66.99293515596298 l -45.1873053309694,-66.99293515596298 l 47.49779816504839,65.37511065656136 l -47.49779816504839,-65.37511065656136 l 49.75042224853796,63.67763665508871 l -49.75042224853796,-63.67763665508871 l 51.942433105982985,61.90258126213964 l -51.942433105982985,-61.90258126213964 l 54.0711601098066,60.05210710928449 l -54.0711601098066,-60.05210710928449 l 56.13400973406034,58.12846871423448 l -56.13400973406034,-58.12846871423448 l 58.128468714234465,56.13400973406034 l -58.128468714234465,-56.13400973406034 l 60.05210710928429,54.07116010980682 l -60.05210710928429,-54.07116010980682 l 61.90258126213963,51.942433105982985 l -61.90258126213963,-51.942433105982985 l 63.67763665508852,49.7504222485382 l -63.67763665508852,-49.7504222485382 l 65.37511065656136,47.497798165048394 l -65.37511065656136,-47.497798165048394 l 66.99293515596283,45.18730533096966 l -66.99293515596283,-45.18730533096966 l 68.52913908334749,42.82175872591568 l -68.52913908334749,-42.82175872591568 l 69.98185081086372,40.40404040404043 l -69.98185081086372,-40.40404040404043 l 71.3493004330445,37.93709598269843 l -71.3493004330445,-37.93709598269843 l 72.62982192316497,35.423931053662905 l -72.62982192316497,-35.423931053662905 l 73.82185516303835,32.86760752127703 l -73.82185516303835,-32.86760752127703 l 74.92394784378085,30.27123987199277 l -74.92394784378085,-30.27123987199277 l 75.93475723522491,27.63799137985206 l -75.93475723522491,-27.63799137985206 l 76.85305182183062,24.971070252520942 l -76.85305182183062,-24.971070252520942 l 77.67771280309644,22.2737257225859 l -77.67771280309644,-22.2737257225859 l 78.40773545664618,19.549244088862036 l -78.40773545664618,-19.549244088862036 l 79.04223036232776,16.800944712546098 l -79.04223036232776,-16.800944712546098 l 79.58042448583498,14.032175973085343 l -79.58042448583498,-14.032175973085343 l 80.02166212053093,11.246311188692108 l -80.02166212053093,-11.246311188692108 l 80.3654056863251,8.446744506477176 l -80.3654056863251,-8.446744506477176 l 80.61123638463225,5.63688676720206 l -80.61123638463225,-5.63688676720206 l 80.7588547086138,2.8201613496972384 l -80.7588547086138,-2.8201613496972384 l 80.8080808080808,7.916908600548545e-14 l -80.8080808080808,-7.916908600548545e-14 l 80.7588547086138,-2.8201613496970808 l -80.7588547086138,2.8201613496970808 l 80.61123638463228,-5.636886767201901 l -80.61123638463228,5.636886767201901 l 80.36540568632512,-8.446744506477016 l -80.36540568632512,8.446744506477016 l 80.02166212053096,-11.246311188691953 l -80.02166212053096,11.246311188691953 l 79.58042448583501,-14.032175973085186 l -79.58042448583501,14.032175973085186 l 79.04223036232779,-16.800944712545945 l -79.04223036232779,16.800944712545945 l 78.40773545664621,-19.549244088861883 l -78.40773545664621,19.549244088861883 l 77.67771280309648,-22.273725722585745 l -77.67771280309648,22.273725722585745 l 76.85305182183065,-24.97107025252079 l -76.85305182183065,24.97107025252079 l 75.93475723522496,-27.63799137985191 l -75.93475723522496,27.63799137985191 l 74.92394784378091,-30.271239871992627 l -74.92394784378091,30.271239871992627 l 73.82185516303853,-32.867607521276625 l -73.82185516303853,32.867607521276625 l 72.62982192316517,-35.42393105366251 l -72.62982192316517,35.42393105366251 l 71.34930043304472,-37.93709598269803 l -71.34930043304472,37.93709598269803 l 69.98185081086379,-40.40404040404029 l -69.98185081086379,40.40404040404029 l 68.52913908334772,-42.821758725915295 l -68.52913908334772,42.821758725915295 l 66.99293515596307,-45.187305330969274 l -66.99293515596307,45.187305330969274 l 65.37511065656163,-47.49779816504804 l -65.37511065656163,47.49779816504804 l 63.6776366550888,-49.75042224853784 l -63.6776366550888,49.75042224853784 l 61.902581262139734,-51.94243310598286 l -61.902581262139734,51.94243310598286 l 60.05210710928459,-54.071160109806485 l -60.05210710928459,54.071160109806485 l 58.12846871423458,-56.13400973406023 l -58.12846871423458,56.13400973406023 l 56.13400973406025,-58.12846871423457 l -56.13400973406025,58.12846871423457 l 54.071160109806705,-60.052107109284385 l -54.071160109806705,60.052107109284385 l 51.94243310598288,-61.90258126213972 l -51.94243310598288,61.90258126213972 l 49.75042224853785,-63.6776366550888 l -49.75042224853785,63.6776366550888 l 47.49779816504828,-65.37511065656145 l -47.49779816504828,65.37511065656145 l 45.187305330969295,-66.99293515596307 l -45.187305330969295,66.99293515596307 l 42.82175872591555,-68.52913908334756 l -42.82175872591555,68.52913908334756 l 101.01010101010077,-174.95462702715946 l 40.40404040404031,-69.98185081086379 l -40.40404040404031,69.98185081086379 l 37.93709598269831,-71.34930043304456 l -37.93709598269831,71.34930043304456 l 35.423931053662784,-72.62982192316503 l -35.423931053662784,72.62982192316503 l 32.86760752127664,-73.82185516303852 l -32.86760752127664,73.82185516303852 l 30.271239871992915,-74.9239478437808 l -30.271239871992915,74.9239478437808 l 27.637991379851933,-75.93475723522495 l -27.637991379851933,75.93475723522495 l 24.971070252521084,-76.85305182183056 l -24.971070252521084,76.85305182183056 l 22.273725722585766,-77.67771280309648 l -22.273725722585766,77.67771280309648 l 19.54924408886218,-78.40773545664615 l -19.54924408886218,78.40773545664615 l 16.800944712546247,-79.04223036232771 l -16.800944712546247,79.04223036232771 l 14.032175973085208,-79.58042448583501 l -14.032175973085208,79.58042448583501 l 11.246311188692257,-80.02166212053092 l -11.246311188692257,80.02166212053092 l 8.446744506477035,-80.36540568632512 l -8.446744506477035,80.36540568632512 l 5.636886767202207,-80.61123638463225 l -5.636886767202207,80.61123638463225 l 2.8201613496971,-80.7588547086138 l -2.8201613496971,80.7588547086138 l -5.942683314141416e-14,-80.8080808080808 l 5.942683314141416e-14,80.8080808080808 l -2.820161349696932,-80.7588547086138 l 2.820161349696932,80.7588547086138 l -5.63688676720204,-80.61123638463225 l 5.63688676720204,80.61123638463225 l -8.446744506476868,-80.36540568632513 l 8.446744506476868,80.36540568632513 l -11.246311188692088,-80.02166212053095 l 11.246311188692088,80.02166212053095 l -14.032175973085037,-79.58042448583504 l 14.032175973085037,79.58042448583504 l -16.800944712546077,-79.04223036232776 l 16.800944712546077,79.04223036232776 l -19.549244088862018,-78.4077354566462 l 19.549244088862018,78.4077354566462 l -22.273725722585603,-77.67771280309653 l 22.273725722585603,77.67771280309653 l -24.97107025252092,-76.85305182183062 l 24.97107025252092,76.85305182183062 l -27.637991379851773,-75.93475723522502 l 27.637991379851773,75.93475723522502 l -30.27123987199275,-74.92394784378085 l 30.27123987199275,74.92394784378085 l -32.86760752127649,-73.82185516303859 l 32.86760752127649,73.82185516303859 l -35.42393105366263,-72.62982192316511 l 35.42393105366263,72.62982192316511 l -37.93709598269815,-71.34930043304465 l 37.93709598269815,71.34930043304465 l -40.40404040404017,-69.98185081086386 l 40.40404040404017,69.98185081086386 l -42.82175872591541,-68.52913908334764 l 42.82175872591541,68.52913908334764 l -45.18730533096916,-66.99293515596315 l 45.18730533096916,66.99293515596315 l -47.49779816504816,-65.37511065656155 l 47.49779816504816,65.37511065656155 l -49.750422248537724,-63.67763665508889 l 49.750422248537724,63.67763665508889 l -51.94243310598275,-61.902581262139826 l 51.94243310598275,61.902581262139826 l -54.07116010980659,-60.0521071092845 l 54.07116010980659,60.0521071092845 l -56.134009734060136,-58.128468714234685 l 56.134009734060136,58.128468714234685 l -58.128468714234465,-56.134009734060356 l 58.128468714234465,56.134009734060356 l -60.05210710928448,-54.07116010980661 l 60.05210710928448,54.07116010980661 l -61.90258126213963,-51.94243310598299 l 61.90258126213963,51.94243310598299 l -63.677636655088705,-49.75042224853797 l 63.677636655088705,49.75042224853797 l -65.37511065656152,-47.497798165048174 l 65.37511065656152,47.497798165048174 l -66.99293515596298,-45.187305330969416 l 66.99293515596298,45.187305330969416 l -68.52913908334762,-42.82175872591544 l 68.52913908334762,42.82175872591544 l -69.9818508108637,-40.40404040404044 l 69.9818508108637,40.40404040404044 l -71.34930043304463,-37.93709598269818 l 71.34930043304463,37.93709598269818 l -72.62982192316508,-35.423931053662656 l 72.62982192316508,35.423931053662656 l -73.82185516303846,-32.867607521276774 l 73.82185516303846,32.867607521276774 l -74.92394784378085,-30.271239871992783 l 74.92394784378085,30.271239871992783 l -75.93475723522491,-27.63799137985207 l 75.93475723522491,27.63799137985207 l -76.8530518218306,-24.971070252520953 l 76.8530518218306,24.971070252520953 l -77.67771280309644,-22.273725722585908 l 77.67771280309644,22.273725722585908 l -78.40773545664618,-19.549244088862046 l 78.40773545664618,19.549244088862046 l -79.04223036232776,-16.80094471254611 l 79.04223036232776,16.80094471254611 l -79.58042448583498,-14.032175973085353 l 79.58042448583498,14.032175973085353 l -80.02166212053093,-11.246311188692118 l 80.02166212053093,11.246311188692118 l -80.3654056863251,-8.446744506477184 l 80.3654056863251,8.446744506477184 l -80.61123638463225,-5.6368867672020695 l 80.61123638463225,5.6368867672020695 l -80.7588547086138,-2.8201613496972486 l 80.7588547086138,2.8201613496972486 l -80.8080808080808,-8.906522175617114e-14 l 80.8080808080808,8.906522175617114e-14 l -80.7588547086138,2.82016134969707 l 80.7588547086138,-2.82016134969707 l -80.61123638463228,5.636886767201892 l 80.61123638463228,-5.636886767201892 l -80.36540568632512,8.446744506477007 l 80.36540568632512,-8.446744506477007 l -80.02166212053096,11.24631118869194 l 80.02166212053096,-11.24631118869194 l -79.58042448583501,14.032175973085176 l 79.58042448583501,-14.032175973085176 l -79.04223036232779,16.800944712545935 l 79.04223036232779,-16.800944712545935 l -78.40773545664622,19.549244088861872 l 78.40773545664622,-19.549244088861872 l -77.6777128030965,22.273725722585734 l 77.6777128030965,-22.273725722585734 l -76.85305182183065,24.971070252520782 l 76.85305182183065,-24.971070252520782 l -75.93475723522496,27.637991379851904 l 75.93475723522496,-27.637991379851904 l -74.92394784378091,30.271239871992616 l 74.92394784378091,-30.271239871992616 l -73.82185516303853,32.86760752127662 l 73.82185516303853,-32.86760752127662 l -72.62982192316517,35.4239310536625 l 72.62982192316517,-35.4239310536625 l -71.34930043304472,37.93709598269802 l 71.34930043304472,-37.93709598269802 l -174.9546270271595,101.01010101010071 l -69.98185081086379,40.40404040404028 l 69.98185081086379,-40.40404040404028 l -68.52913908334773,42.82175872591529 l 68.52913908334773,-42.82175872591529 l -66.99293515596307,45.187305330969274 l 66.99293515596307,-45.187305330969274 l -65.37511065656163,47.49779816504803 l 65.37511065656163,-47.49779816504803 l -63.677636655088804,49.75042224853783 l 63.677636655088804,-49.75042224853783 l -61.902581262139734,51.94243310598286 l 61.902581262139734,-51.94243310598286 l -60.052107109284606,54.07116010980648 l 60.052107109284606,-54.07116010980648 l -58.12846871423459,56.13400973406023 l 58.12846871423459,-56.13400973406023 l -56.134009734060264,58.12846871423456 l 56.134009734060264,-58.12846871423456 l -54.07116010980672,60.052107109284385 l 54.07116010980672,-60.052107109284385 l -51.94243310598288,61.90258126213972 l 51.94243310598288,-61.90258126213972 l -49.750422248537866,63.67763665508878 l 49.750422248537866,-63.67763665508878 l -47.49779816504829,65.37511065656145 l 47.49779816504829,-65.37511065656145 l -45.1873053309693,66.99293515596305 l 45.1873053309693,-66.99293515596305 l -42.82175872591556,68.52913908334754 l 42.82175872591556,-68.52913908334754 l -40.40404040404031,69.98185081086379 l 40.40404040404031,-69.98185081086379 l -37.93709598269831,71.34930043304456 l 37.93709598269831,-71.34930043304456 l -35.42393105366279,72.62982192316503 l 35.42393105366279,-72.62982192316503 l -32.86760752127665,73.82185516303852 l 32.86760752127665,-73.82185516303852 l -30.271239871992915,74.9239478437808 l 30.271239871992915,-74.9239478437808 l -27.63799137985194,75.93475723522495 l 27.63799137985194,-75.93475723522495 l -24.97107025252109,76.85305182183056 l 24.97107025252109,-76.85305182183056 l -22.273725722585773,77.67771280309647 l 22.273725722585773,-77.67771280309647 l -19.549244088862192,78.40773545664615 l 19.549244088862192,-78.40773545664615 l -16.800944712546254,79.04223036232771 l 16.800944712546254,-79.04223036232771 l -14.032175973085216,79.58042448583501 l 14.032175973085216,-79.58042448583501 l -11.246311188692268,80.02166212053092 l 11.246311188692268,-80.02166212053092 l -8.446744506477046,80.36540568632512 l 8.446744506477046,-80.36540568632512 l -5.636886767202217,80.61123638463225 l 5.636886767202217,-80.61123638463225 l -2.82016134969711,80.7588547086138 l 2.82016134969711,-80.7588547086138 l -2.3755727665375643e-13,80.8080808080808 l 2.3755727665375643e-13,-80.8080808080808 l 2.820161349696922,80.7588547086138 l -2.820161349696922,-80.7588547086138 l 5.6368867672020295,80.61123638463226 l -5.6368867672020295,-80.61123638463226 l 8.446744506476858,80.36540568632513 l -8.446744506476858,-80.36540568632513 l 11.246311188692077,80.02166212053095 l -11.246311188692077,-80.02166212053095 l 14.03217597308503,79.58042448583504 l -14.03217597308503,-79.58042448583504 l 16.80094471254607,79.04223036232776 l -16.80094471254607,-79.04223036232776 l 19.549244088862007,78.4077354566462 l -19.549244088862007,-78.4077354566462 l 22.273725722585592,77.67771280309653 l -22.273725722585592,-77.67771280309653 l 24.97107025252091,76.85305182183062 l -24.97107025252091,-76.85305182183062 l 27.63799137985177,75.93475723522502 l -27.63799137985177,-75.93475723522502 l 30.27123987199274,74.92394784378085 l -30.27123987199274,-74.92394784378085 l 32.867607521276476,73.82185516303859 l -32.867607521276476,-73.82185516303859 l 35.42393105366262,72.62982192316511 l -35.42393105366262,-72.62982192316511 l 37.937095982698146,71.34930043304466 l -37.937095982698146,-71.34930043304466 l 40.40404040404016,69.98185081086386 l -40.40404040404016,-69.98185081086386 l 42.82175872591541,68.52913908334764 l -42.82175872591541,-68.52913908334764 l 45.18730533096915,66.99293515596315 l -45.18730533096915,-66.99293515596315 l 47.497798165048145,65.37511065656155 l -47.497798165048145,-65.37511065656155 l 49.750422248537724,63.6776366550889 l -49.750422248537724,-63.6776366550889 l 51.942433105982744,61.902581262139826 l -51.942433105982744,-61.902581262139826 l 54.07116010980658,60.0521071092845 l -54.07116010980658,-60.0521071092845 l 56.13400973406012,58.128468714234685 l -56.13400973406012,-58.128468714234685 l 58.12846871423446,56.13400973406036 l -58.12846871423446,-56.13400973406036 l 60.05210710928447,54.07116010980661 l -60.05210710928447,-54.07116010980661 l 61.90258126213962,51.94243310598301 l -61.90258126213962,-51.94243310598301 l 63.67763665508869,49.75042224853798 l -63.67763665508869,-49.75042224853798 l 65.37511065656152,47.49779816504818 l -65.37511065656152,-47.49779816504818 l 66.99293515596298,45.18730533096943 l -66.99293515596298,-45.18730533096943 l 68.52913908334762,42.821758725915444 l -68.52913908334762,-42.821758725915444 l 69.9818508108637,40.40404040404045 l -69.9818508108637,-40.40404040404045 l 71.34930043304463,37.93709598269819 l -71.34930043304463,-37.93709598269819 l 72.62982192316508,35.42393105366266 l -72.62982192316508,-35.42393105366266 l 73.82185516303845,32.86760752127678 l -73.82185516303845,-32.86760752127678 l 74.92394784378084,30.271239871992794 l -74.92394784378084,-30.271239871992794 l 75.93475723522491,27.637991379852078 l -75.93475723522491,-27.637991379852078 l 76.8530518218306,24.97107025252096 l -76.8530518218306,-24.97107025252096 l 77.67771280309644,22.273725722585915 l -77.67771280309644,-22.273725722585915 l 78.40773545664617,19.549244088862057 l -78.40773545664617,-19.549244088862057 l 79.04223036232776,16.800944712546116 l -79.04223036232776,-16.800944712546116 l 79.58042448583498,14.032175973085362 l -79.58042448583498,-14.032175973085362 l 80.02166212053093,11.246311188692127 l -80.02166212053093,-11.246311188692127 l 80.3654056863251,8.446744506477193 l -80.3654056863251,-8.446744506477193 l 80.61123638463225,5.636886767202079 l -80.61123638463225,-5.636886767202079 l 80.7588547086138,2.8201613496972584 l -80.7588547086138,-2.8201613496972584 l 202.02020202020202,2.4740339376714206e-13 " /></g></svg>