<?xml version="1.0" encoding="UTF-8"?>
<!DOCTYPE svg PUBLIC "-//W3C//DTD SVG 1.1//EN"
    "http://www.w3.org/Graphics/SVG/1.1/DTD/svg11.dtd">
<svg xmlns="http://www.w3.org/2000/svg" xmlns:xlink="http://www.w3.org/1999/xlink" version="1.1" width="400.0" height="400.0" viewBox="0 0 400 400"><g fill="rgb(0,0,0)" fill-opacity="0" fill-rule="nonzero" font-family="Sans" font-size="1" font-style="normal" opacity="1" stroke="rgb(0,0,0)" stroke-opacity="1" stroke-width="0.5" stroke-linecap="butt" stroke-linejoin="miter" text-anchor="middle"><path d="M 152.79380984801452,159.83565075591864 h 14.088675013796943 l 14.088653555523234,-2.458936413950255e-2 l 14.085585134548888,-0.2950509477390955 l 14.06531340695871,-0.8110008683187891 l 14.000873252190875,-1.5704495599898831 l 13.852758848389511,-2.567457094627374 l 13.569684389066696,-3.7887239574170497 l 13.09024684507676,-5.209241900636242 l 12.346000027557334,-6.787270951121711 l 11.266497266943816,-8.45912542632711 l 9.786816027010577,-10.134544671460835 l 7.857889580949616,-11.693773342167606 l 5.459581160304611,-12.98783034992501 l 2.6157966050790313,-13.84371235490117 l -0.5899724763809844,-14.076316852127876 l -4.001399890465074,-13.508499641372923 l -7.382267141022405,-11.999703975639031 l -10.42042212725241,-9.481854583057826 l -12.747814285885541,-5.998666066465006 l -13.980642178679984,-1.7413810370221956 l -13.780803662263798,2.9292002435004316 l -11.934825447416175,7.486701889623598 l -8.439448805081279,11.281244058648783 l -3.5751132134244346,13.627521020185009 l 2.0581163144470276,13.937536399256263 l 7.569839567038781,11.882267989474082 l 11.89546174747125,7.549089578143484 l 14.003592877811126,1.546011046824625 l 13.170455149296355,-5.002986588504855 l 9.261546200107883,-10.616709736432163 l 2.9292002435004125,-13.780803662263802 l -4.377019251514153,-13.391507238405271 l -10.665057326128757,-9.205830536935471 l -13.926569124372527,-2.1310645387834 l -12.8303261374731,5.8200940585578955 l -7.361312473458311,12.012570179295246 l 0.8846352235960302,14.060874231908892 l 8.999392190249655,10.839820286815634 l 13.716436762868948,3.2171611981067185 l 12.779048340562204,-5.931836743704323 l 6.1760686225367065,-12.662817222644566 l -3.432212729535633,-13.664211628323086 l -11.568904345321178,-8.040597981070505 l -13.974478449642186,1.7901719763398136 l -8.980459437567069,10.855510671294965 l 1.1053847015860632,14.045244330586986 l 10.729065725442105,9.131150656052597 l 14.019014545852203,-1.3992836765897996 l 8.518000442925263,-11.222051153809241 l -2.664104242874567,-13.83449718014659 l -12.201150467611228,-7.044337506898474 l -13.23059372508707,4.841709752357416 l -4.5402966481980505,13.33703377782136 l 7.735004057934605,11.775418288456741 l 14.06087423190889,0.8846352235960749 l 8.961499328847845,-10.871167988005976 l -3.7887239574169267,-13.569684389066731 l -13.376147004315667,-4.423737668908868 l -10.979839313833518,8.828017460720284 l 1.6925688795260223,13.986635558004874 l 12.870645063056902,5.730380380497901 l 11.383506888675019,-8.300995998064009 l -1.7657791961154887,-13.97758160322994 l -13.179166943958132,-4.979992199558905 l -10.403857306281015,9.500027199694191 l 4.001399890464723,13.508499641373026 l 13.937536399256205,2.058116314447422 l 7.528316593412462,-11.90861926982876 l -8.04059798107021,-11.56890434532138 l -13.733093681020836,3.1452983312703253 l -1.960764590089235,13.951564997040244 l 12.451086750682867,6.592511082384003 l 10.270202086994225,-9.644361707064173 l -6.020906051852276,-12.737325227815884 l -13.93753639925635,2.058116314446435 l -1.8389411029772058,13.96814444599451 l 13.02562860285864,5.368776689784846 l 8.34068127998749,-11.354461653026645 l -9.20583053693503,-10.665057326129135 l -12.334135207011046,6.80880843757238 l 4.353640007488257,13.399126177836521 l 13.948121569539223,-1.9851116658115053 l 0.19670862128293823,-14.087301706242375 l -13.926569124372415,-2.131064538784145 l -3.7887239574178406,13.569684389066474 l 13.10835074242578,5.163516675477262 l 6.264320539238627,-12.619391896048691 l -12.164099320856675,-7.108125727413696 l -7.71444030529432,11.78890047546576 l 11.526645481430453,8.10106212726487 l 8.281115397451998,-11.397977514386916 l -11.412413419883295,-8.261209571125404 l -8.040597981071166,11.568904345320716 l 11.855771927433228,7.61127030455971 l 6.958986434013883,-12.250031487943083 l -12.716230743440484,-6.065330932765777 l -4.910918293611145,13.205061346236212 l 13.652147723048033,3.4798888189798105 l 1.7657791961158995,-13.977581603229886 l -14.086936928923802,0.22129528894464265 l 2.446472741887429,13.874636383256611 l 13.230593725087068,-4.841709752357429 l -7.298314183427346,-12.050949079818135 l -10.253353866527059,9.662271892891491 l 11.734756672453218,7.796553692670947 l 4.702896357120583,-13.280569622518767 l -14.04715219773692,-1.0808694546526318 l 2.8570043012054116,13.795951944946752 l 12.346000027556993,-6.78727095112233 l -10.287019022644554,-9.626422142838708 l -5.730380380496863,12.870645063057365 l 14.05604957088927,0.9582453261507933 l -4.166134616035135,-13.458606391653637 l -10.902383227444446,8.92349727440561 l 12.485434223852725,6.5272272739834465 l 0.8600930335723932,-14.062396794927475 l -13.099318745149198,5.1863871873751535 l 10.420422127253493,9.481854583056633 l 3.6938981300039573,-13.595803773574387 l -13.733093681020332,3.1452983312725262 l 9.42716365477623,10.469925934334606 l 4.330247501519607,-13.406704301205776 l -13.716436762868458,3.2171611981088115 l 10.014222787375877,9.909899374322025 l 2.8329214834733945,-13.80091734316459 l -13.016238485449378,5.391502511757995 l 11.895461747472384,7.549089578141697 l -0.9091747188683057,-14.059308837028833 l -10.665057326127192,9.205830536937285 l 13.825113436410268,2.7123794193981325 l -6.614232276312183,-12.439561690002442 l -5.2549036528249555,13.071983447201623 l 13.30501177098412,-4.633295308779733 l -12.357827240048275,-6.765712789463288 l 3.5037109994864473,13.646053380976639 l 7.361312473455756,-12.012570179296809 l -13.693642663235227,3.312840813563236 l 12.164099320858643,7.108125727410326 l -4.0720750558078365,-13.487363285099645 l -5.976407808097081,12.758264511903745 l 12.870645063055605,-5.730380380500818 l -13.549660757583318,-3.8597223991879175 l 8.121167569969609,11.512488911823553 l 0.6636674750979061,-14.073034822911632 l -8.98045943756436,10.855510671297205 l 13.639917470660537,-3.5275225070799694 l -13.205061346237787,-4.910918293606906 l 8.22132248395719,11.441180894434206 l -0.6882285311534665,-14.071855070789091 l -6.851821122494067,12.31029288643168 l 12.201150467609008,-7.044337506902315 l -14.088653555523226,2.4589364144072277e-2 l 12.346000027559421,6.787270951117914 l -7.735004057938457,-11.77541828845421 l 1.5704495599942245,14.000873252190386 l 4.702896357116112,-13.280569622520348 l -9.857329423556822,10.065973389586686 l 13.090246845074953,-5.2092419006407775 l -14.085585134548994,-0.29505094773384166 l 12.959066146471965,5.527510131673261 l -10.134544671464244,-9.786816027007045 l 6.198159989944434,12.65201866831686 l -1.7657791961208449,-13.977581603229261 l -2.6157966050738772,13.843712354902143 l 6.527227273979579,-12.48543422385475 l -9.698003911205296,10.219563776533374 l 11.999703975635942,-7.382267141027427 l -13.421738007542428,4.283422988834663 l 14.039264047535088,-1.1789099405700867 l -13.980642178680782,-1.7413810370157787 l 13.399126177838289,4.353640007482824 l -12.451086750685928,-6.5925110823782225 l 11.281244058652463,8.43944880507636 l -10.014222787378536,-9.909899374319336 l 8.751149211887755,11.041202430698506 l -7.569839567044275,-11.88226798947058 l 6.527227273990336,12.485434223849124 l -5.662911597830054,-12.900472699848953 l 5.00298658851122,13.170455149293934 l -4.563567236308236,-13.329089155830577 l 4.3536400074956605,13.399126177834116 l -4.377019251520812,-13.391507238403094 l 4.6332953087833255,13.305011770982869 l -5.11772853450186,-13.1262949186559 l 5.820094058564364,12.830326137470164 l -6.722534703288843,-12.381368696855104 l 7.796553692675582,11.734756672450137 l -8.999392190253902,-10.83982028681211 l 10.270202086997589,9.644361707060591 l -11.526645481433745,-8.101062127260187 l 12.662817222646249,6.176068622533256 l -13.549660757583489,-3.8597223991873197 l 14.039264047535852,1.1789099405610193 l -13.974478449641817,1.7901719763426998 l 13.20506134623525,-4.910918293613727 l -11.610846041853186,7.979913397823842 l 9.131150656051185,-10.729065725443306 l -5.7976920618969325,12.840464571027155 l 1.7657791961147487,-13.977581603230032 l 2.6641042428753763,13.834497180146437 l -7.04433750689871,-12.20115046761109 l 10.808340505836554,9.037175396896926 l -13.337033777821258,-4.540296648198341 l 14.065313406958735,-0.8110008683183675 l -12.619391896049118,6.264320539237769 l 8.961499328848417,-10.871167988005505 l -3.503710999484641,13.646053380977103 l -2.8570043012028634,-13.795951944947278 l 8.828017460718671,10.979839313834812 l -12.959066146468926,-5.527510131680387 l 14.011495777949296,-1.4726675486664926 l -11.38350688867705,8.300995998061222 l 5.459581160308157,-12.987830349923524 l 2.2767837165087292,13.903489473963973 l -9.500027199691143,-10.403857306283799 l 13.699403801673325,3.28893586484819 l -13.09931874515154,5.1863871873692355 l 7.528316593416609,-11.908619269826138 l 1.178909940558398,14.039264047536069 l -9.590455097867004,-10.320558834684443 l 13.95156499703934,1.9607645900956612 l -11.93482544742003,7.486701889617455 l 4.0720750558119345,-13.487363285098406 l 6.020906051845523,12.737325227819076 l -13.099318745146874,-5.186387187381022 l 13.016238485453178,-5.391502511748823 l -5.36877668979201,13.025628602855688 l -5.6629115978156666,-12.90047269985527 l 13.305011770981903,4.633295308786097 l -12.3341352070157,6.808808437563949 l 2.9292002435100803,-13.780803662261746 l 8.693217916704125,11.086871781394455 l -14.087301706242231,-0.1967086212930479 l 8.808840589885799,-10.99523037986775 l 3.503710999472993,13.646053380980094 l -13.108350742421901,-5.1635166754871165 l 11.734756672460373,-7.7965536926601775 l -7.376779281764234e-2,14.088481889725704 l -11.788900475459203,-7.714440305304336 l 12.779048340567813,-5.931836743692233 l -1.4726675486835274,14.011495777947504 l -11.41241341987535,-8.261209571136382 l 12.747814285891966,-5.998666066451357 l -0.6636674751161397,14.073034822910774 l -12.250031487935807,-6.958986434026692 l 11.610846041863878,-7.979913397808288 l 2.3495506749256276,13.891377731180691 l -13.652147723044154,-3.4798888189950365 l 8.518000442938526,-11.222051153799175 l 7.235115806410934,12.088997597493721 l -13.874636383259578,2.4464727418705947 l 2.422253219269547,-13.878885149251888 l 12.346000027548913,6.787270951137031 l -10.25335386653973,9.662271892878046 l -6.26432053922052,-12.61939189605768 l 13.852758848393002,-2.5674570946085287 l -1.080869454672429,14.047152197735397 l -13.37614700430995,-4.423737668926165 l 7.298314183443714,-12.05094907980822 l 10.287019022630865,9.626422142853336 l -11.397977514398676,8.281115397435812 l -6.1981599899220035,-12.652018668327848 l 13.458606391659968,-4.166134616014678 l 2.2767837164917237,13.903489473966758 l -14.076316852128777,0.5899724763594644 l 0.8600930335953471,-14.06239679492607 l 13.937536399252972,2.0581163144693253 l -3.001315880313245,13.765277571882297 l -13.595803773567837,-3.6938981300280616 l 4.142638583171605,-13.465857165943957 l 13.399126177828848,4.3536400075118715 l -4.330247501543548,13.406704301198046 l -13.487363285093549,-4.072075055828027 l 3.5751132134483194,-13.627521020178744 l 13.800917343159135,2.832921483499979 l -1.83894110300235,13.9681444459912 l -14.076316852126745,-0.5899724764079696 l -0.9091747188408443,-14.059308837030608 l 13.839125845717659,-2.639954444829642 l 4.563567236275591,13.329089155841755 l -12.439561690016482,6.614232276285782 l -8.693217916689337,-11.086871781406051 l 9.20583053695599,-10.665057326111045 l 12.357827240032774,6.765712789491604 l -3.7887239574444056,13.569684389059057 l -14.083847176741449,-0.3687985175921977 l -3.3128408135311003,-13.693642663243002 l 12.237867113676783,-6.980356162286745 l 10.270202086973995,9.644361707085714 l -5.976407808127366,12.75826451188956 l -14.011495777945834,-1.4726675486994083 l -3.432212729504738,-13.664211628330847 l 11.512488911844432,-8.121167569940008 l 11.855771927416425,7.611270304585883 l -2.3495506749739445,13.89137773117252 l -13.6399174706694,3.5275225070456937 l -8.980459437541285,-10.855510671316294 l 5.797692061928305,-12.84046457101299 l 14.071855070790955,-0.6882285311153269 l 7.235115806396907,12.088997597502114 l -7.044337506928031,12.201150467594164 l -14.088653555523297,2.4589364104706603e-2 l -7.29831418339653,-12.050949079836798 l 6.330309349055866,-12.586419156759487 l 14.000873252194861,-1.5704495599543289 l 9.149862491239826,10.71311252791591 l -3.5037109995194937,13.646053380968153 l -13.09024684509038,5.209241900602008 l -12.050949079799139,-7.298314183458707 l -1.6925688794892617,-13.986635558009322 l 9.786816027039066,-10.134544671433325 l 14.056049570886662,0.9582453261890483 l 8.518000442894223,11.2220511538328 l -2.6157966051175925,13.843712354893883 l -11.895461747492604,7.549089578109832 l -13.699403801664936,-3.288935864883138 l -7.382267140987848,-11.99970397566029 l 3.001315880331525,-13.765277571878313 l 11.568904345344624,-8.040597981036765 l 13.980642178674795,1.7413810370638587 l 9.427163654742737,10.469925934364763 l 0.5162613032253726,14.079212972008708 l -8.439448805116102,11.281244058622732 l -13.589336000809682,3.717621645821994 l -13.099318745133656,-5.1863871874144 l -7.569839567002095,-11.882267989497453 l 0.5899724764230412,-14.07631685212611 l 8.34068128002402,-11.354461652999808 l 13.17045514931183,-5.002986588464113 l 13.825113436400837,2.7123794194462056 l 10.46992593430472,9.427163654809421 l 4.37701925147103,13.391507238419367 l -2.6399544449016417,13.839125845703924 l -8.808840589913784,10.995230379845331 l -12.830326137492618,5.820094058514865 l -14.08384717674098,-0.3687985176100588 l -12.61939189602769,-6.264320539280932 l -8.99939219021302,-10.839820286846049 l -4.072075055759101,-13.48736328511436 l 1.2524028591801615,-14.032898870964033 l 6.176068622579913,-12.662817222623492 l 10.117448028080743,-9.804489229096609 l 12.747814285906193,-5.998666066421123 l 13.974478449648766,-1.7901719762884507 l 13.89137773116934,2.3495506749927255 l 12.716230743418645,6.065330932811565 l 10.729065725410209,9.131150656090075 l 8.221322483911363,11.441180894467136 l 5.459581160257776,12.987830349944698 l 2.66410424282407,13.834497180156315 l -5.396731627209541e-11,14.088675013796943 l -2.4222532193055786,13.878885149245598 l -4.540296648247403,13.337033777804558 l -6.330309349069644,12.586419156752557 l -7.79655369271695,11.734756672422654 l -8.961499328889936,10.87116798797128 l -9.857329423598227,10.065973389546137 l -10.519142703148566,9.372214275995963 l -10.979839313868267,8.828017460677065 l -11.266497266977836,8.4591254262818 l -11.397977514420623,8.281115397405605 l -11.383506888709203,8.30099599801713 l -11.222051153842838,8.518000442881 l -10.902383227482023,8.923497274359697 l -10.40385730631869,9.500027199652932 l -9.698003911247852,10.219563776492988 l -8.751149211923087,11.041202430670504 l -7.528316593456606,11.908619269800854 l -5.998666066509283,12.747814285864708 l -4.1426385831973,13.465857165936052 l -1.960764590135758,13.951564997033703 l 0.5162613032204052,14.079212972008891 l 3.2171611980636237,13.716436762879058 l 6.020906051815812,12.737325227833118 l 8.75114921184906,11.041202430729175 l 11.17729738244917,8.576641934270151 l 13.025628602843936,5.368776689820524 l 14.003592877807044,1.5460110468616026 l 13.839125845719538,-2.639954444819795 l 12.334135207026533,-6.80880843754433 l 9.427163654799708,-10.469925934313466 l 5.254903652854921,-13.071983447189577 l 0.19670862131022976,-14.087301706241991 l -5.117728534469365,-13.12629491866857 l -9.857329423540929,-10.065973389602247 l -13.108350742415757,-5.163516675502713 l -14.060874231910445,0.8846352235713719 l -12.237867113673397,6.980356162292682 l -7.714440305310639,11.788900475455078 l -1.252402859150771,14.032898870966656 l 5.730380380481652,12.870645063064138 l 11.412413419873527,8.261209571138899 l 14.039264047534212,1.1789099405805297 l 12.519439402541419,-6.461764518340142 l 6.958986434024849,-12.250031487936853 l -1.10538470157475,-14.045244330587874 l -8.980459437560777,-10.855510671300172 l -13.652147723046363,-3.479888818986367 l -12.987830349928135,5.459581160297179 l -6.85182112250461,12.31029288642581 l 2.4464727418845533,13.87463638325712 l 10.808340505833808,9.037175396900208 l 14.085585134548937,-0.29505094773660284 l 10.253353866527522,-9.662271892890999 l 0.884635223593069,-14.06087423190908 l -9.14986249127188,-10.713112527888534 l -14.047152197737164,-1.080869454649472 l -10.519142703108132,9.372214276041346 l -0.2950509477329924,14.085585134549016 l 10.287019022650165,9.62642214283271 l 14.011495777947891,-1.4726675486798404 l 7.857889580939093,-11.693773342174676 l -4.166134616046657,-13.458606391650067 l -13.179166943963443,-4.979992199544854 l -11.895461747463557,7.549089578155604 l -0.8600930335583146,14.062396794928338 l 11.041202430713495,8.751149211868846 l 13.421738007537877,-4.283422988848923 l 3.6938981299841225,-13.595803773579776 l -9.590455097887457,-10.320558834665439 l -13.780803662258506,2.9292002435253353 l -4.330247501498295,13.406704301212661 l 9.644361707084423,10.27020208697521 l 13.58933600079135,-3.717621645888999 l 2.832921483445139,-13.800917343170392 l -11.177297382492533,-8.576641934213637 l -12.485434223836949,6.527227274013629 l 0.9091747189019267,14.059308837026657 l 13.305011770997172,4.633295308742257 l 9.261546200080897,-10.616709736455707 l -6.614232276344442,-12.439561689985291 l -13.948121569533837,1.985111665849358 l -2.639954444816844,13.8391258457201 l 12.357827240066417,6.765712789430152 l 10.06597338955099,-9.85732942359327 l -6.722534703327163,-12.381368696834299 l -13.69364266322492,3.312840813605833 l -7.376779275512156e-2,14.08848188972603 l 13.716436762881136,3.217161198054757 l 5.976407808053006,-12.758264511924391 l -11.397977514417828,-8.281115397409447 l -10.117448028007818,9.804489229171859 l 8.12116757000876,11.512488911795934 l 12.519439402508365,-6.461764518404191 l -4.910918293667079,-13.205061346215409 l -13.639917470646624,3.527522507133762 l 2.349550675003938,13.891377731167447 l 14.019014545846023,-1.3992836766517134 l -0.6882285312146034,-14.0718550707861 l -14.086936928922801,0.22129528900838538 l 6.928063292213274e-11,14.088675013796943 l 14.08865355552312,-2.4589364206124426e-2 l -0.29505094780748325,-14.085585134547454 l -14.065313406954415,0.8110008683932884 l 1.5704495600650836,14.000873252182439 l 13.852758848376471,-2.5674570946977266 l -3.788723957489357,-13.569684389046508 l -13.090246845048425,5.209241900707438 l 6.787270951191306,12.346000027519073 l 11.266497266895637,-8.45912542639128 l -10.134544671518006,-9.786816026951374 l -7.8578895808812295,11.69377334221356 l 12.987830349957454,5.459581160227437 l 2.615796604997396,-13.843712354916594 l -14.076316852124101,0.5899724764709884 l 4.001399890553207,13.508499641346816 l 11.99970397559262,-7.382267141097849 l -10.420422127312765,-9.481854582991494 l -5.998666066378851,12.747814285926085 l 13.980642178691403,1.7413810369305118 l -2.929200243595506,-13.78080366224359 l -11.934825447364718,7.4867018897056266 l 11.281244058709236,8.439448805000469 l 3.575113213330975,-13.627521020209528 l -13.937536399241194,2.058116314549084 l 7.5698395671269445,11.882267989417915 l 7.5490895780584255,-11.895461747525228 l -14.003592877822603,-1.5460110467206671 l 5.002986588604389,13.170455149258546 l 9.261546200025313,-10.616709736504195 l -13.780803662286823,-2.9292002433921116 l 4.377019251621674,13.39150723837013 l 9.205830536849543,-10.665057326202929 l -13.92656912438995,-2.131064538669539 l 5.820094058662495,12.83032613742565 l 7.361312473359593,-12.01257017935574 l -14.060874231901487,0.8846352237137246 l 8.999392190340538,10.839820286740183 l 3.2171611979872132,-13.716436762896977 l -12.779048340509405,5.931836743818064 l 12.662817222697033,6.176068622429131 l -3.432212729656734,-13.664211628292666 l -8.040597980965387,11.568904345394238 l 13.974478449625769,-1.7901719764679753 l -10.855510671376843,-8.980459437468093 l 1.1053847017177842,14.045244330576617 l 9.131150655955581,-10.72906572552467 l -14.01901454583893,1.39928367672276 l 11.222051153892552,8.518000442815502 l -2.6641042430120607,-13.834497180120115 l -7.044337506782528,12.201150467678168 l 13.230593725039437,-4.841709752487584 l -13.337033777866905,-4.540296648064257 l 7.735004058053375,11.775418288378724 l 0.8846352234490351,-14.06087423191814 l -8.961499328736618,10.871167988097664 l 13.569684389027625,-3.7887239575569893 l -13.376147004363128,-4.423737668765365 l 8.828017460835989,10.979839313740488 l -1.6925688796752212,-13.98663555798682 l -5.7303803803549185,12.870645063120561 l 11.383506888584087,-8.300995998188707 l -13.977581603211107,1.765779196264553 l 13.179166944013621,4.97999219941206 l -9.500027199808871,-10.403857306176297 l 4.001399890616331,13.508499641328118 l 2.058116314290186,-13.937536399279425 l -7.528316593279112,11.908619269913062 l 11.568904345229448,-8.040597981202485 l -13.73309368098458,3.1452983314286334 l 13.951564997062764,1.9607645899289827 l -12.45108675076033,-6.592511082237694 l 9.644361707186183,10.270202086879651 l -6.020906052003525,-12.737325227744387 l 2.058116314616214,13.93753639923128 l 1.83894110280485,-13.9681444460172 l -5.36877668962373,13.02562860292505 l 8.3406812798484,-11.354461653128816 l -10.665057326014459,9.205830537067888 l 12.334135206925783,-6.808808437726837 l -13.399126177782337,4.353640007655023 l 13.948121569514049,-1.9851116659883956 l -14.087301706244885,-0.1967086211029612 l 13.926569124399553,2.1310645386067946 l -13.569684389115778,-3.7887239572412548 l 13.108350742493641,5.163516675304985 l -12.61939189613103,-6.264320539072758 l 12.164099320952237,7.108125727250161 l -11.788900475570797,-7.7144403051338015 l 11.526645481540998,8.101062127107578 l -11.39797751449899,-8.281115397297741 l 11.412413419996755,8.261209570968665 l -11.568904345431617,-8.040597980911603 l 11.85577192754103,7.611270304391792 l -12.250031488040074,-6.958986433843149 l 12.716230743528389,6.065330932581479 l -13.205061346304879,-4.910918293426497 l 13.652147723097688,3.4798888187850117 l -13.977581603255286,-1.7657791959148474 l 14.086936928920622,-0.22129528914728802 l -13.874636383220684,2.4464727420911814 l 13.230593725017334,-4.841709752547982 l -12.050949079709588,7.298314183606578 l 10.253353866380042,-9.6622718930475 l -7.796553692495215,11.734756672569974 l 4.7028963569209274,-13.280569622589466 l -1.0808694544426287,14.04715219775308 l -2.8570043014148165,-13.795951944903386 l 6.787270951310973,12.346000027453286 l -10.287019022795487,-9.626422142677416 l 12.870645063146243,5.73038038029724 l -14.056049570904271,-0.9582453259307665 l 13.458606391588471,-4.166134616245639 l -10.902383227302199,8.923497274579402 l 6.5272272737820956,-12.485434223957991 l -0.8600930333451898,14.062396794941371 l -5.186387187585141,-13.099318745066057 l 10.420422127407392,9.4818545828875 l -13.59580377363461,-3.6938981297822995 l 13.733093680969315,-3.1452983314952703 l -10.469925934179411,9.427163654948593 l 4.330247501297354,-13.406704301277562 l 3.21716119833544,13.716436762815304 l -10.01422278754244,-9.909899374153705 l 13.800917343212614,2.832921483239447 l -13.016238485357976,5.39150251197866 l 7.549089577941704,-11.895461747599303 l 0.9091747191134891,14.059308837012976 l -9.205830537123594,-10.665057325966373 l 13.825113436457347,2.7123794191581716 l -12.439561689886315,6.61423227653059 l 5.2549036525943125,-13.071983447294341 l 4.633295309013373,13.305011770902759 l -12.35782724016863,-6.765712789243454 l 13.646053380913909,-3.503710999730769 l -7.361312473241003,12.01257017942841 l -3.312840813811564,-13.69364266317515 l 12.164099320985535,7.108125727193177 l -13.487363285025209,4.0720750560543815 l 5.9764078078652965,-12.758264512012323 l 5.7303803807368565,12.870645062950512 l -13.549660757654221,-3.85972239893902 l 11.512488911675284,-8.121167570179791 l -0.6636674748377532,14.073034822923903 l -10.855510671468078,-8.980459437357808 l 13.639917470593714,-3.5275225073383587 l -4.910918293359738,13.205061346329709 l -8.22132248417266,-11.441180894279372 l 14.071855070775834,-0.6882285314244995 l -6.851821122259043,12.310292886562495 l -7.044337507137007,-12.201150467473513 l 14.088653555522756,-2.458936441509059e-2 l -6.787270950876189,12.346000027692309 l -7.735004058171034,-11.775418288301436 l 14.000873252159279,-1.570449560271575 l -4.7028963568548985,13.28056962261285 l -10.06597338978282,-9.857329423356534 l 13.09024684497085,-5.209241900902378 l -0.29505094744712423,14.085585134555002 l -12.959066146583545,-5.527510131411665 l 9.786816026796693,-10.134544671667381 l 6.19815999020059,12.652018668191369 l -13.977581603192155,1.7657791964145833 l 2.6157966047872603,-13.8437123549563 l 12.485434223989895,6.527227273721066 l -9.698003910995135,10.219563776732809 l -7.38226714127626,-11.999703975482857 l 13.421738007453355,-4.283422989113768 l 1.1789099408608559,14.039264047510672 l -13.980642178717147,-1.7413810367238192 l 4.353640007201846,-13.399126177929583 l 12.451086750829987,6.592511082106135 l -8.439448804837195,11.281244058831382 l -10.014222787594559,-9.909899374101041 l 11.041202430508477,-8.751149212127514 l 7.569839567306027,11.882267989303825 l -12.485434223707369,6.527227274261491 l -5.662911598116474,-12.900472699723226 l 13.170455149181285,-5.0029865888077705 l 4.56356723660497,13.329089155728983 l -13.399126177739046,4.353640007788259 l -4.377019251818213,-13.391507238305888 l 13.305011770878782,-4.6332953090822295 l 5.117728534791918,13.126294918542813 l -12.830326137339396,5.82009405885264 l -6.7225347035716245,-12.381368696701566 l 11.734756672267405,-7.796553692950616 l 8.999392190507672,10.839820286601428 l -9.644361706826274,10.270202087217628 l -11.526645481623879,-8.101062126989651 l 6.176068622240713,-12.662817222788933 l 13.549660757675626,3.859722398863871 l -1.1789099402222714,14.039264047564295 l -13.974478449599282,1.7901719766747413 l -4.910918293926381,-13.205061346118974 l 11.610846041662194,-7.979913398101739 l 10.729065725667315,9.131150655787975 l -5.79769206158811,12.840464571166594 l -13.977581603273055,-1.7657791957741875 l -2.6641042432207285,-13.834497180079932 l 12.201150467435031,-7.044337507203655 l 10.808340506064745,9.037175396624011 l -4.540296647864211,13.337033777935007 l -14.065313406938392,0.8110008686711634 l -6.2643205395525206,-12.619391895892873 l 8.961499328569525,-10.871167988235406 l 13.646053381065698,3.5037109991395865 l 2.8570043015576103,13.795951944873815 l -10.979839313609554,8.828017460998838 l -12.959066146610763,-5.527510131347857 l -1.4726675490256493,-14.011495777911545 l 11.383506888461666,-8.300995998356589 l 12.987830350065964,5.459581159969296 l 2.2767837168718965,13.903489473904502 l -10.403857306032668,9.500027199966166 l -13.699403801760928,-3.2889358644833044 l -5.186387187724486,-13.099318745010887 l 7.528316593100064,-11.90861927002625 l 14.039264047503893,-1.1789099409415749 l 9.590455098144886,10.320558834426215 l -1.9607645897140438,13.951564997092971 l -11.934825447216724,7.486701889941551 l -13.487363285211423,-4.072075055437609 l -6.020906052204482,-12.737325227649396 l 5.186387187014447,-13.09931874529201 l 13.01623848530398,-5.391502512109021 l 13.025628603004417,5.368776689431163 l 5.6629115981836975,12.900472699693717 l -4.633295308415957,13.305011771110802 l -12.334135206825692,6.808808437908148 l -13.780803662345743,-2.9292002431149142 l -8.693217917024265,-11.086871781143435 l 0.196708620884247,-14.08730170624794 l 8.808840589567023,-10.995230380123138 l 13.646053380879405,-3.5037109998651506 l 13.108350742571028,5.163516675108529 l 7.796553693005448,11.734756672230974 l -7.376779239308733e-2,14.088481889727927 l -7.714440304958108,11.78890047568577 l -12.779048340396121,5.931836744062111 l -14.011495777991344,-1.4726675482664076 l -11.412413420122938,-8.26120957079435 l -5.998666066828721,-12.747814285714393 l 0.6636674747015254,-14.073034822930328 l 6.958986433651494,-12.250031488148949 l 11.61084604161469,-7.979913398170858 l 13.891377731107521,-2.349550675358245 l 13.652147723150255,3.479888818578774 l 11.22205115406399,8.518000442589642 l 7.235115806787132,12.088997597268571 l 2.4464727423059274,13.87463638318282 l -2.422253218836822,13.87888514932741 l -6.787270950753133,12.346000027759962 l -10.253353866235697,9.662271893200675 l -12.619391895861805,6.26432053961511 l -13.852758848312646,2.5674570950420956 l -14.047152197769629,-1.080869454227567 l -13.376147004448669,-4.423737668506716 l -12.05094908003813,-7.29831418306409 l -10.287019022937683,-9.626422142525465 l -8.281115397796842,-11.39797751413637 l -6.198159990336082,-12.652018668124994 l -4.166134616449434,-13.458606391525388 l -2.2767837169523326,-13.90348947389133 l -0.5899724768150171,-14.076316852109684 l 0.8600930331334296,-14.062396794954322 l 2.058116314012677,-13.937536399320404 l 3.001315879847745,-13.765277571983793 l 3.693898129572523,-13.595803773691603 l 4.142638582721549,-13.465857166082415 l 4.353640007060599,-13.399126177975477 l 4.330247501097714,-13.406704301342046 l 4.072075055366844,-13.487363285232789 l 3.575113212991231,-13.62752102029866 l 2.832921483028817,-13.800917343255849 l 1.8389411025250613,-13.968144446054037 l 0.5899724759345651,-14.076316852146585 l -0.9091747193077037,-14.059308837000417 l -2.6399544452911767,-13.839125845629615 l -4.563567236712938,-13.329089155692017 l -6.614232276690072,-12.439561689801517 l -8.693217917041173,-11.086871781130178 l -10.665057326405554,-9.205830536614798 l -12.357827240242498,-6.765712789108534 l -13.569684389176615,-3.7887239570233615 l -14.083847176752736,-0.36879851716118445 l -13.69364266314227,3.3128408139474677 l -12.237867113469886,6.980356162649477 l -9.644361706786837,10.270202087254662 l -5.976407807757151,12.758264512062981 l -1.4726675483035594,14.011495777987442 l 3.432212729886524,13.664211628234948 l 8.121167570260708,11.512488911618203 l 11.855771927622621,7.611270304264702 l 13.89137773123544,2.349550674601938 l 13.639917470575632,-3.5275225074082734 l 10.85551067108241,-8.980459437824003 l 5.7976920615993475,-12.84046457116152 l -0.6882285314762516,-14.071855070773303 l -7.235115806699088,-12.088997597321264 l -12.201150467768054,-7.044337506626842 l -14.088653555522688,2.4589364452910246e-2 l -12.050949079660345,7.298314183687881 l -6.330309348766932,12.586419156904805 l 1.570449560276151,14.000873252158764 l 9.149862491481525,10.713112527709479 l 13.64605338104611,3.5037109992158713 l 13.09024684497432,-5.209241900893655 l 7.298314183196706,-12.050949079957816 l -1.692568879790586,-13.986635557972859 l -10.134544671637787,-9.786816026827337 l -14.056049570906056,-0.9582453259045647 l -11.222051153661116,8.51800044312041 l -2.615796604849169,13.843712354944604 l 7.549089578335428,11.895461747349435 l 13.699403801727032,3.2889358646244813 l 11.999703975526561,-7.382267141205221 l 3.001315880075496,-13.765277571934135 l -8.040597981240452,-11.568904345203062 l -13.980642178704317,-1.7413810368268294 l -10.469925934199292,9.427163654926511 l 0.5162613034569116,14.07921297200022 l 11.281244058756979,8.43944880493665 l 13.58933600075255,-3.71762164603084 l 5.186387187211204,-13.09931874521411 l -7.569839567189469,-11.882267989378082 l -14.076316852134628,-0.5899724762198516 l -8.340681279857202,11.354461653122351 l 5.002986588647528,13.170455149242157 l 13.825113436438382,2.712379419254833 l 9.4271636546737,-10.469925934426923 l -4.3770192516480675,-13.3915072383615 l -13.839125845735902,-2.639954444734007 l -8.808840589779019,10.995230379953298 l 5.820094058665212,12.830326137424418 l 14.08384717674523,0.3687985174478037 l 6.264320539145213,-12.619391896095062 l -8.999392190323764,-10.839820286754112 l -13.487363285073561,4.072075055894228 l -1.2524028590487224,14.032898870975764 l 12.662817222678017,6.176068622468125 l 10.117448027995009,-9.804489229185076 l -5.998666066534422,-12.747814285852877 l -13.97447844963321,1.7901719764098922 l -2.349550674885804,13.891377731187427 l 12.7162307434662,6.065330932711863 l 9.131150656011732,-10.729065725476884 l -8.221322483986144,-11.4411808944134 l -12.987830349913198,5.459581160332718 l 2.664104242899593,13.834497180141776 l 14.088675013796943,-2.496544755015352e-11 l 2.422253219222673,-13.87888514926007 l -13.337033777825106,-4.540296648187047 l -6.33030934901374,12.586419156780675 l 11.734756672454857,7.79655369266848 l 8.961499328848415,-10.871167988005507 l -10.065973389573992,-9.85732942356978 l -10.519142703124997,9.372214276022419 l 8.828017460701263,10.97983931384881 l 11.26649726695798,-8.459125426308246 l -8.281115397426223,-11.397977514405643 l -11.383506888694885,8.300995998036766 l 8.518000442889209,11.222051153836606 l 10.902383227478271,-8.923497274364282 l -9.500027199654069,-10.403857306317652 l -9.698003911247591,10.219563776493237 l 11.041202430666015,8.75114921192875 l 7.528316593474544,-11.908619269789513 l -12.747814285849714,-5.998666066541148 l -4.14263858323515,13.46585716592441 l 13.951564997027582,1.9607645901793136 l -0.5162613031656677,-14.079212972010898 l -13.716436762890371,3.2171611980153845 l 6.02090605175547,12.737325227861641 l 11.041202430775348,-8.751149211790807 l -11.1772973823993,-8.576641934335145 l -5.368776689897353,13.025628602812269 l 14.003592877796741,1.5460110469549275 l -2.63995444472326,-13.839125845737954 l -12.334135207076145,6.808808437454455 l 10.469925934239697,9.427163654881639 l 5.25490365297614,-13.071983447140846 l -14.087301706240149,-0.19670862144204532 l 5.117728534339474,13.126294918719214 l 10.065973389702858,-9.85732942343819 l -13.108350742359098,-5.163516675646546 l 0.8846352234063171,14.060874231920828 l 12.237867113751161,-6.98035616215635 l -11.788900475361476,-7.714440305453681 l -1.2524028593285972,14.032898870950786 l 12.870645063138536,-5.730380380314548 l -11.412413419759941,-8.26120957129581 l -1.1789099407811185,14.039264047517369 l 12.519439402641632,-6.461764518145986 l -12.250031487829931,-6.95898643421307 l 1.1053847013513836,14.045244330605454 l 10.855510671445785,-8.98045943738476 l -13.652147722987271,-3.479888819218186 l 5.459581160072599,12.98783035002254 l 6.8518211227185075,-12.310292886306758 l -13.87463638330206,2.446472741629694 l 10.808340505664995,9.037175397102107 l -0.2950509474594951,-14.085585134554744 l -10.25335386672501,9.66227189268143 l 14.060874231891326,0.8846352238752441 l -9.149862491046248,-10.713112528081242 l -1.0808694549528897,14.047152197713816 l 10.519142703313488,-9.37221427581086 l -14.085585134542525,-0.2950509480428036 l 10.287019022431062,9.62642214306685 l -1.472667548343824,-14.011495777983209 l -7.857889581231144,11.693773341978426 l 13.458606391748782,-4.166134615727765 l -13.179166943839366,-4.979992199873213 l 7.549089577860936,11.895461747650558 l 0.860093033927023,-14.062396794905787 l -8.751149212161776,11.04120243048132 l 13.421738007655774,-4.283422988479503 l -13.595803773479476,-3.693898130353289 l 9.590455097596973,10.320558834935373 l -2.9292002431363033,-13.780803662341196 l -4.330247501893132,13.406704301085133 l 10.270202087262243,-9.64436170677876 l -13.58933600090146,3.7176216454865063 l 13.800917343084958,2.8329214838613312 l -11.17729738222537,-8.576641934561811 l 6.527227273615142,12.485434224045271 l -0.9091747184456377,-14.059308837056166 l -4.63329530917518,13.305011770846413 l 9.261546200432065,-10.616709736149364 l -12.439561690201616,6.614232275937595 l 13.948121569602089,-1.9851116653698022 l -13.839125845629713,-2.6399544452906656 l 12.35782723983267,6.765712789857101 l -9.857329423233214,-10.065973389903583 l 6.722534702874804,12.38136869707991 l -3.3128408131043807,-13.693642663346237 l -7.376779328502643e-2,14.088481889723255 l 3.217161198581174,-13.716436762757668 l -5.976407808543718,12.758264511694525 l 8.28111539785657,-11.397977514092977 l -10.117448028391024,9.804489228776422 l 11.512488912119567,-8.121167569549979 l -12.519439402767878,6.461764517901389 l 13.205061346415286,-4.910918293129629 l -13.639917470790492,3.527522506577471 l 13.891377731265605,-2.349550674423592 l -14.019014545903644,1.3992836760744236 l 14.071855070815907,-0.6882285306051622 l -14.086936928932303,0.2212952884035167 l 14.088675013796943,5.464534489553926e-10 l -14.088653555524212,2.458936357960056e-2 l 14.0855851345608,-0.29505094717030744 l -14.065313406990986,0.811000867759049 l 14.000873252253387,-1.5704495594325771 l -13.852758848495593,2.5674570940550017 l 13.569684389224333,-3.7887239568524573 l -13.090246845293358,5.2092419000919445 l 12.346000027843404,-6.787270950601349 l -11.266497267294795,8.45912542585965 l 9.786816027448875,-10.134544671037574 l -7.85788958146157,11.693773341823588 l 5.4595811608760405,-12.987830349684804 l -2.6157966056867545,13.843712354786339 l -0.5899724757560658,-14.076316852154067 l 4.00139988986292,13.508499641551287 l -7.382267140467285,-11.999703975980543 l 10.420422126809404,9.481854583544685 l -12.74781428560986,-5.998666067050862 l 13.980642178598668,1.7413810376750423 l -13.780803662404491,2.9292002428385304 l 11.934825447769782,-7.486701889059903 l -8.439448805622035,11.281244058244246 l 3.5751132140829567,-13.627521020012251 l 2.058116313759813,13.937536399357743 l -7.569839566466575,-11.882267989838615 l 11.895461747098182,7.549089578731345 l -14.003592877734667,-1.5460110475171998 l 13.170455149546948,-5.002986587845158 l -9.261546200643046,10.616709735965314 l 2.929200244207637,-13.780803662113478 l 4.377019250831109,13.391507238628526 l -10.665057325648226,-9.20583053749217 l 13.926569124259425,2.1310645395225234 l -12.830326137779965,5.820094057881414 l 7.3613124741055564,-12.012570178898612 l 0.8846352228521766,14.060874231955692 l -8.999392189660657,-10.839820287304631 l 13.716436762693462,3.217161198854906 l -12.779048340885147,5.931836743008599 l 6.176068623232296,-12.662817222305305 l 3.4322127287702697,13.664211628515332 l -11.568904344871928,-8.040597981716887 l 13.974478449743021,-1.7901719755526853 l -8.98045943818001,10.855510670787897 l -1.105384700782731,-14.045244330650206 l 10.729065724916007,9.131150656670762 l -14.01901454593423,1.3992836757679787 l 8.518000443580735,-11.22205115331171 l 2.664104242073819,13.834497180300794 l -12.20115046719023,-7.044337507627667 l 13.230593725379618,-4.841709751557998 l -4.540296648996375,13.337033777549587 l -7.7350040572187035,-11.775418288927 l 14.060874231855363,0.884635224446886 l -8.961499329518904,10.871167987452798 l -3.788723956579381,-13.569684389300576 l 13.376147004040032,4.423737669742317 l -10.979839314377971,8.82801746004312 l -1.692568878651337,-13.986635558110724 l 12.870645062695383,5.730380381309891 l -11.383506889208249,8.30099599733277 l -1.7657791952060369,-13.977581603344829 l 13.179166943640599,4.9799922003992325 l -10.40385730689732,9.500027199019247 l -4.001399889577657,-13.50849964163579 l 13.937536399120066,2.0581163153693556 l -7.528316594202181,11.908619269329519 l -8.040597980304776,-11.56890434585337 l 13.733093681233196,-3.1452983303431066 l -1.9607645910202591,13.951564996909394 l -12.451086750238126,-6.592511083223971 l 10.270202087657566,-9.644361706357786 l 6.020906050975061,12.73732522823054 l -13.937536399399507,2.0581163134769977 l 1.8389411039413877,-13.968144445867573 l 13.02562860248776,5.36877669068467 l -8.34068128079999,11.354461652429803 l -9.20583053617803,-10.665057326782561 l 12.334135207494459,-6.808808436696683 l 4.353640006528705,13.399126178148299 l -13.94812156968018,1.9851116648211033 l 0.19670862230870625,-14.087301706228049 l 13.926569124216003,2.131064539806283 l -3.788723958404971,13.569684388790865 l -13.108350742050394,-5.163516676430236 l 6.264320540162831,-12.619391895589912 l 12.164099320327937,7.10812572831852 l -7.714440306170195,11.788900474892602 l -11.526645480824449,-8.101062128127124 l 8.28111539831723,-11.39797751375829 l 11.412413419257144,8.261209571990399 l -8.040597981953578,11.568904344707425 l -11.855771926844485,-7.611270305476773 l 6.958986434959665,-12.250031487405804 l 12.716230742969547,6.065330933753116 l -4.910918294650288,13.205061345849757 l -13.652147722774894,-3.479888820051379 l 1.7657791972189298,-13.977581603090542 l 14.086936928941086,-0.22129528784463515 l 2.44647274078176,13.874636383451572 l -13.230593725474678,4.841709751298233 l -7.298314182450807,-12.050949080409547 l 10.253353867307533,-9.662271892063274 l 11.734756671820923,7.796553693622627 l -4.702896358210045,13.280569622132965 l -14.047152197646598,-1.080869455826497 l -2.8570043000482657,-13.795951945186387 l 12.346000028119992,-6.787270950098239 l 10.287019021849089,9.62642214368876 l -5.730380381587076,12.87064506257197 l -14.05604957080903,-0.9582453273277923 l -4.166134614888504,-13.458606392008578 l 10.902383228206828,-8.923497273474158 l 12.4854342232898,6.527227275060223 l -0.8600930347795341,14.062396794853644 l -13.099318745595497,5.186387186247931 l -10.420422126430044,-9.481854583961592 l 3.693898131178653,-13.595803773255229 l 13.733093681292615,-3.145298330083666 l 9.427163653842959,10.469925935174924 l -4.33024750270814,13.406704300821891 l -13.716436763154116,3.217161196890912 l -10.01422278648895,-9.909899375218286 l 2.83292148470146,-13.800917342912506 l 13.01623848593939,-5.391502510575005 l 11.895461746794885,7.549089579209264 l 0.909174717588601,14.059308837111589 l -10.66505732696562,9.205830535965957 l -13.825113436161471,-2.7123794206662626 l -6.614232275178253,-12.439561690605366 l 5.254903654040272,-13.071983446713068 l 13.305011771409339,-4.633295307558672 l 12.357827239419109,6.765712790612488 l 3.503710998217877,13.646053381302352 l -7.3613124745792655,12.012570178608323 l -13.693642663549014,3.312840812266192 l -12.164099320185999,-7.108125728561421 l -4.0720750545238955,-13.487363285487291 l 5.976407809302515,-12.75826451133908 l 12.870645063606943,-5.730380379262491 l 13.54966075721,3.859722400498466 l 8.121167568864314,11.512488912603255 l -0.6636674764725932,14.073034822846806 l -8.98045943860991,10.85551067043225 l -13.639917471010508,3.5275225057267354 l -13.205061345751282,-4.910918294915082 l -8.221322482818913,-11.44118089525214 l -0.6882285297647035,-14.071855070857012 l 6.851821123728886,-12.310292885744389 l 12.201150468305581,-7.04433750569582 l 14.08865355552573,-2.4589362711330758e-2 l 12.346000026870946,6.787270952370242 l 7.735004056761106,11.775418289227584 l 1.5704495585812777,14.000873252348875 l -4.702896358477466,13.280569622038268 l -9.857329424591775,10.065973388573182 l -13.090246845615274,5.209241899283012 l -14.085585134518478,-0.29505094919080205 l -12.959066145898822,-5.5275101330169765 l -10.134544670440865,-9.786816028066788 l -6.1981599886254415,-12.652018668963025 l -1.765779194660521,-13.977581603413745 l 2.615796606531978,-13.843712354626632 l 6.527227275312679,-12.485434223157819 l 9.698003912298757,-10.219563775495718 l 11.999703976418457,-7.382267139755468 l 13.421738008002421,-4.283422987393318 l 14.039264047661888,-1.1789099390600735 l 13.980642178492054,1.741381038530969 l 13.399126177360522,4.3536400089532306 l 12.451086749973733,6.5925110837233225 l 11.28124405771918,8.439448806323904 l 10.014222786287743,9.909899375421611 l 8.751149210670587,11.041202431663223 l 7.569839565726317,11.882267990310213 l 6.527227272611901,12.485434224569753 l 5.662911596405101,12.900472700474463 l 5.002986587023544,13.170455149859052 l 4.563567234810257,13.32908915634345 l 4.353640005989088,13.399126178323632 l 4.377019250006763,13.391507238897963 l 4.633295307263213,13.30501177151223 l 5.117728533002205,13.126294919240593 l 5.820094057113875,12.830326138128134 l 6.7225347018532515,12.381368697634567 l 7.7965536913156654,11.734756673353663 l 8.999392189011285,10.839820287843748 l 10.270202085881076,9.644361708249555 l 11.526645480496843,8.101062128593263 l 12.662817221929183,6.176068624003453 l 13.549660757130983,3.8597224007758473 l 14.039264047397843,1.1789099422045113 l 13.974478449852189,-1.7901719747004774 l 13.20506134681765,-4.9109182920477 l 11.610846042798165,-7.979913396448894 l 9.131150657325954,-10.729065724358394 l 5.797692063435665,-12.840464570332392 l 1.765779197786528,-13.97758160301884 l -2.6641042412152465,-13.834497180466126 l -7.044337505422827,-12.201150468463194 l -10.808340504744963,-9.037175398202457 l -13.337033777271563,-4.540296649813062 l -14.065313407057705,0.811000866601923 l -12.619391896812134,6.264320537700681 l -8.961499330175618,10.871167986911443 l -3.5037110011629884,13.646053380546176 l 2.8570042995108262,13.795951945297682 l 8.828017459368935,10.97983931492003 l 12.959066145784739,5.527510133284439 l 14.011495778133751,-1.472667546911506 l 11.383506889703542,-8.300995996653551 l 5.459581161948877,-12.987830349233825 l -2.2767837147579093,-13.903489474250682 l -9.500027198378683,-10.403857307482237 l -13.699403801255816,-3.2889358665872463 l -13.099318745807844,5.186387185711607 l -7.528316594925558,11.90861926887222 l 1.17890993876914,14.039264047686318 l 9.590455096556404,10.320558835902325 l 13.951564996790125,1.960764591868902 l 11.934825448377099,-7.4867018880917575 l 4.072075057529163,-13.487363284579947 l -6.02090605019921,-12.737325228597284 l -13.099318744472711,-5.186387189083763 l -13.016238486151229,5.391502510063578 l -5.368776691502866,13.025628602150526 l 5.662911596113219,12.900472700602592 l 13.305011770373108,4.633295310534327 l 12.334135207910334,-6.808808435943324 l 2.9292002453301467,-13.780803661874879 l -8.693217915226022,-11.086871782553438 l -14.087301706216374,-0.19670862314470308 l -8.808840591357246,10.995230378688898 l 3.503710997654594,13.646053381446977 l 13.108350741724752,5.163516677256924 l 11.734756673502357,-7.796553691091867 l 7.37677947172958e-2,-14.088481889715757 l -11.788900474419467,-7.7144403068932155 l -12.77904834137031,5.931836741963403 l -1.4726675505686941,14.011495777749365 l 11.412413418749786,8.261209572691284 l 12.747814286711975,-5.99866606470875 l 0.6636674770302611,-14.073034822820507 l -12.250031486977841,-6.958986435713018 l -11.610846042965536,7.979913396205365 l 2.3495506730181748,13.891377731503313 l 13.652147722560594,3.4798888208921053 l 8.518000444502347,-11.22205115261217 l -7.235115804736647,-12.088997598495762 l -13.874636383597984,2.446472739951408 l -2.4222532212184706,13.878885148911747 l 12.346000026600853,6.787270952861543 l 10.253353867904172,-9.662271891430132 l -6.264320537434942,-12.619391896944048 l -13.852758848758757,2.567457092635088 l -1.080869456669528,14.04715219758173 l 13.376147003679273,4.423737670833151 l 7.298314185172011,-12.050949078761528 l -10.287019021253048,-9.626422144325705 l -11.39797751558627,8.281115395801228 l 6.198159988096829,12.65201866922199 l 13.458606392259304,-4.166134614078539 l -2.276783714489255,-13.903489474294675 l -14.07631685221425,0.5899724743201428 l -0.8600930356270151,14.062396794801808 l 13.937536398951538,2.058116316510642 l 3.0013158823159904,-13.76527757144563 l -13.595803773025587,-3.693898132023885 l -4.14263858515061,13.465857165335137 l 13.399126177185812,4.35364000949093 l 4.330247503518352,-13.406704300560202 l -13.487363284486108,-4.0720750578399745 l -3.5751132154664136,13.627521019649308 l 13.800917342741066,2.8329214855366516 l 1.8389411050898625,-13.968144445716375 l -14.076316852038206,-0.5899724785204079 l 0.9091747167365939,14.059308837166684 l 13.839125846112623,-2.6399544427591732 l -4.563567234273135,-13.329089156527347 l -12.43956169101878,6.6142322744007345 l 8.693217915009933,11.086871782722874 l 9.205830538579349,-10.6650573247098 l -12.357827239007964,-6.765712791363455 l -3.788723959525232,13.56968438847808 l 14.083847176685378,0.3687985197334136 l -3.3128408114329027,-13.69364266375061 l -12.237867114758624,6.980356160390079 l 10.27020208549082,9.644361708665135 l 5.976407810103161,-12.758264510964029 l -14.01149577771786,-1.472667550868445 l 3.4322127273840657,13.664211628863521 l 11.512488913113577,-8.12116756814088 l -11.85577192622742,-7.611270306437949 l -2.3495506771494914,13.891377730804551 l 13.639917471219634,-3.527522504918098 l -8.98045943583138,-10.855510672730851 l -5.797692063957402,12.84046457009682 l 14.071855070899122,-0.688228528903682 l -7.235115804477011,-12.088997598651149 l -7.044337508870556,12.201150466472644 l 14.088653555527188,-2.4589361873727966e-2 l -7.298314181469769,-12.050949081003687 l -6.330309351073213,12.586419155744867 l 14.000873252448084,-1.5704495576967852 l -9.149862489516707,-10.713112529387594 l -3.5037110017197444,13.646053380403226 l 13.090246845935324,-5.209241898478762 l -12.050949078617446,-7.298314185409919 l 1.692568877220704,13.986635558283849 l 9.786816028690293,-10.134544669838753 l -14.0560495707307,-0.9582453284767726 l 8.518000441065873,11.222051155220596 l 2.6157966073848398,-13.843712354465481 l -11.895461748725927,7.549089576166428 l 13.699403801121077,3.2889358671484747 l -7.3822671390370305,-11.99970397686044 l -3.0013158825888953,13.765277571386127 l 11.568904346679178,-8.040597979116598 l -13.980642178384484,-1.7413810393946099 l 9.427163653021701,10.469925935914393 l -0.5162613008814722,-14.079212972094657 l -8.439448807001217,11.281244057212486 l 13.589336001429837,-3.7176216435550935 l -13.099318744259369,-5.186387189622603 l 7.569839564990309,11.882267990779102 l 0.5899724788006588,-14.076316852026459 l -8.340681281939924,11.35446165159244 l 13.170455150160263,-5.002986586230597 l -13.82511343594287,-2.712379421780485 l 10.4699259327125,9.427163656577765 l -4.377019249175026,-13.391507239169815 l -2.6399544472656977,13.839125845252957 l 8.808840591811377,-10.995230378325072 l -12.830326138490106,5.820094056315918 l 14.083847176678006,0.36879852001499464 l -12.61939189495838,-6.264320541435044 l 8.999392188316499,10.839820288420572 l -4.072075053432372,-13.487363285816839 l -1.2524028615985672,14.032898870748197 l 6.176068624770082,-12.662817221555278 l -10.117448029787093,9.80448922733579 l 12.747814286960741,-5.998666064180096 l -13.97447844996072,1.7901719738532689 l 13.891377730761656,2.3495506774031205 l -12.716230742355533,-6.065330935040421 l 10.72906572380405,9.131150657977306 l -8.221322481909962,-11.441180895905287 l 5.459581157962973,12.987830350909345 l -2.664104240374206,-13.834497180628086 l -2.5351867336347213e-9,14.088675013796943 l 2.4222532217711117,-13.878885148815295 l -4.540296650624978,13.337033776995165 l 6.33030935130407,-12.586419155628755 l -7.796553694815491,11.734756671028386 l 8.961499330858107,-10.871167986348844 l -9.857329425413154,10.065973387768826 l 10.519142704833586,-9.372214274104742 l -10.97983931545893,8.828017458698676 l 11.266497268493833,-8.459125424262682 l -11.397977515932464,8.281115395324731 l 11.383506890210967,-8.300995995957697 l -11.222051155393038,8.518000440838687 l 10.902383229117659,-8.923497272361342 l -10.403857308063753,9.500027197741844 l 9.698003913117505,-10.219563774718754 l -8.75114921395997,11.04120242905609 l 7.528316595655508,-11.908619268410765 l -5.998666068853683,12.747814284761516 l 4.142638585715811,-13.465857165161259 l -1.9607645927506208,13.951564996666209 l -0.5162613005952648,-14.079212972105152 l 3.2171611954851125,13.716436763483843 l -6.020906049416333,-12.737325228967348 l 8.75114920978231,11.041202432367262 l -11.17729738083061,-8.576641936379499 l 13.02562860182009,5.368776692304558 l -14.003592877513713,-1.546011049518565 l 13.83912584622387,-2.639954442175985 l -12.334135208329968,6.80880843518316 l 9.427163656791475,-10.46992593252007 l -5.254903655337943,13.071983446191409 l 0.1967086240397222,-14.08730170620388 l 5.117728531965657,13.126294919644725 l -9.857329421607817,-10.065973391495291 l 13.108350741415048,5.163516678043157 l -14.060874232082641,0.8846352208343773 l 12.237867115041253,-6.980356159894578 l -7.714440307622741,11.788900473942082 l 1.2524028618861849,-14.032898870722528 l 5.7303803779560045,12.870645064188627 l -11.412413418252898,-8.261209573377709 l 14.03926404730221,1.1789099433433958 l -12.519439403809743,6.4617645158828125 l 6.958986436450851,-12.250031486558694 l 1.1053846987844844,14.04524433080747 l -8.980459435390031,-10.855510673095967 l 13.652147722350707,3.4798888217155306 l -12.987830351011771,5.4595811577193105 l 6.851821124983649,-12.310292885045996 l 2.4464727390629246,13.874636383754648 l -10.808340504008823,-9.037175399082866 l 14.085585134608303,-0.2950509449025826 l -10.253353868470994,9.662271890828636 l 0.8846352264300272,-14.06087423173059 l 9.14986248907935,10.713112529761132 l -14.047152197518232,-1.0808694574947582 l 10.51914270502725,-9.372214273887378 l -0.2950509506324194,14.08558513448828 l -10.287019020651696,-9.626422144968323 l 14.011495778251525,-1.472667545790968 l -7.857889583362696,11.693773340546084 l -4.166134613261148,-13.458606392512328 l 13.179166942930772,4.979992202277733 l -11.895461749049112,7.549089575657172 l 0.8600930365078344,-14.062396794747936 l 11.041202428874525,8.751149214189047 l -13.42173800844261,4.28342298601402 l 3.693898132851887,-13.595803772800624 l 9.590455095727583,10.320558836672516 l -13.780803662874678,2.9292002406264643 l 4.330247504360348,-13.406704300288244 l 9.64436170490657,10.270202089020346 l -13.589336001589613,3.7176216429710434 l 2.8329214864045626,-13.800917342562908 l 11.17729738066755,8.576641936592003 l -12.48543422523139,6.527227271346303 l -0.9091747158512556,-14.059308837223938 l 13.30501177000789,4.633295311583082 l -9.261546202354335,10.61670973447246 l -6.614232273661606,-12.43956169141178 l 13.948121569965458,-1.9851116628166343 l -2.6399544478376287,13.839125845143855 l -12.357827238593089,-6.76571279212124 l 10.065973391701457,-9.857329421397287 l 6.722534700593014,12.38136869831882 l -13.69364266395403,3.3128408105920566 l 7.3767795858157e-2,-14.088481889709783 l 13.716436762175665,3.217161201062553 l -5.976407810864432,12.758264510607424 l -11.397977512593489,-8.28111539992044 l 10.117448030193925,-9.80448922691597 l 8.121167567432039,11.512488913613609 l -12.519439403945432,6.4617645156199215 l -4.910918290722112,-13.205061347310634 l 13.63991747144354,-3.5275225040523117 l 2.34955067186335,13.891377731698636 l -14.019014546160381,1.3992836735022336 l -0.6882285280604926,-14.07185507094036 l 14.086936928972744,-0.22129528582931535 l -3.147780136557545e-9,14.088675013796943 l -14.088653555528666,2.45893610283515e-2 l -0.2950509446056229,-14.085585134614522 l 14.065313407139456,-0.8110008651840847 l 1.570449556855503,14.000873252542453 l -13.852758848963717,2.5674570915292274 l -3.7887239543524767,-13.56968438992234 l 13.090246846248771,-5.209241897691101 l 6.7872709483471985,12.346000029082633 l -11.266497268863063,8.459125423770914 l -10.134544669249044,-9.786816029300955 l 7.857889583610211,-11.693773340379764 l 12.987830348681191,5.459581163263543 l -2.6157966082453408,13.84371235430289 l -14.076316852261545,0.589972473191717 l -4.001399887400882,-13.508499642280578 l 11.99970397733336,-7.382267138268317 l 10.420422125096913,9.481854585426685 l -5.998666069389059,12.74781428450959 l -13.980642178279117,-1.7413810402405345 l -2.929200240333621,-13.780803662936925 l 11.93482544913806,-7.486701886878679 l 11.281244056685782,8.439448807705276 l -3.575113216538642,13.627521019368015 l -13.937536399734404,2.058116311209067 l -7.56983956426936,-11.882267991238395 l 7.549089580931996,-11.895461745701605 l 14.003592877451338,1.5460110500835549 l 5.002986585454341,13.170455150455135 l -9.261546202561519,10.616709734291721 l -13.780803661575924,-2.9292002467366274 l -4.37701924836026,-13.391507239436121 l 9.205830539422061,-10.66505732398239 l 13.926569123871683,2.1310645420564316 l 5.820094055557559,12.830326138834112 l -7.361312476304154,12.012570177551309 l -14.060874232118481,0.8846352202647199 l -8.999392187674882,-10.839820288953254 l 3.217161201331378,-13.716436762112613 l 12.779048341967414,-5.9318367406770545 l 12.662817221166726,6.176068625566729 l 3.4322127262749365,13.664211629142116 l -8.040597983830548,11.568904343402897 l -13.974478450070238,1.7901719729983494 l -10.855510669137477,-8.980459440175025 l -1.1053846981875584,-14.04524433085445 l 9.131150658634578,-10.729065723244666 l 14.019014546187924,-1.3992836732263039 l 11.222051151766665,8.518000445616254 l 2.664104239500367,13.834497180796362 l -7.044337509842826,12.201150465911306 l -13.230593726263454,4.8417097491427965 l -13.33703377672452,-4.540296651419993 l -7.735004055099296,-11.775418290319191 l 0.884635227029974,-14.060874231692848 l 8.961499331507044,-10.871167985813903 l 13.56968438999723,-3.788723954084254 l 13.37614700322222,4.423737672215143 l 8.828017458022362,10.979839316002701 l 1.6925688761014688,13.986635558419293 l -5.730380383645679,12.870645061655422 l -11.383506890738072,8.300995995234857 l -13.977581603663976,1.7657791926797304 l -13.179166942726512,-4.979992202818297 l -9.500027197099262,-10.403857308650512 l -4.001399887108165,-13.508499642367285 l 2.058116317905772,-13.937536398745522 l 7.5283165964136876,-11.908619267931464 l 11.568904347325295,-8.040597978186955 l 13.733093681809246,-3.1452983278279527 l 13.95156499655191,1.9607645935639046 l 12.451086749023636,6.592511085517742 l 9.644361704483604,10.27020208941754 l 6.020906048649593,12.737325229329784 l 2.0581163109312373,13.93753639977543 l -1.838941106519316,13.968144445528182 l -5.3687766930660485,13.025628601506225 l -8.340681282835485,11.354461650934583 l -10.665057328467137,9.20583053422643 l -12.334135208740971,6.8088084344386255 l -13.399126178945702,4.353640004074552 l -13.948121570047546,1.9851116622398568 l -14.087301706192346,-0.19670862486564022 l -13.9265691238329,-2.1310645423098773 l -13.56968438809566,-3.7887239608949113 l -13.108350741102493,-5.163516678836623 l -12.619391894439405,-6.2643205424805135 l -12.16409931902186,-7.1081257305536045 l -11.788900473488502,-7.714440308315883 l -11.526645479364038,-8.10106213020508 l -11.397977512219537,-8.281115400435137 l -11.412413417751452,-8.26120957407043 l -11.568904343241268,-8.040597984063101 l -11.855771925455976,-7.611270307639598 l -12.25003148612305,-6.958986437217723 l -12.716230741862045,-6.065330936075045 l -13.205061344943703,-4.9109182970866 l -13.652147722145228,-3.479888822521656 l -13.977581602770888,-1.765779199749264 l -14.08693692898237,0.22129528521645242 l -13.874636383890412,2.4464727382929747 l -13.230593726334764,4.841709748947933 l -12.050949081693366,7.29831418033097 l -10.253353869007995,9.662271890258783 l -7.796553695646118,11.734756670476516 l -4.702896360501204,13.280569621321627 l -1.0808694581999807,14.047152197463967 l 2.8570042977411654,13.795951945664163 l 6.787270948077494,12.346000029230908 l 10.287019020272666,9.626422145373363 l 12.870645061664353,5.730380383625615 l 14.056049570655434,0.9582453295808293 l 13.458606392661556,-4.166134612779066 l 10.902383229589972,-8.923497271784289 l 6.527227276973802,-12.485434222289406 l 0.860093036884826,-14.062396794724878 l -5.186387184285725,-13.09931874637239 l -10.420422125043414,-9.481854585485479 l -13.595803772708004,-3.6938981331927776 l -13.733093681741671,3.1452983281229927 l -10.469925936487332,9.427163652385381 l -4.330247504526914,13.406704300234441 l 3.2171611950289694,13.716436763590831 l 10.01422278517895,9.909899376542077 l 13.800917342532628,2.83292148655208 l 13.016238486643193,-5.391502508875869 l 7.549089580763092,-11.895461745808795 l -0.9091747158276667,-14.059308837225464 l -9.205830534629259,-10.665057328119424 l -13.825113435831158,-2.712379422349885 l -12.439561691399367,6.614232273684949 l -5.254903655563036,13.07198344610092 l 4.633295306007648,13.305011771949463 l 12.357827238642138,6.7657127920316515 l 13.64605338170501,-3.503710996649631 l 7.361312475917091,-12.0125701777885 l -3.3128408107898166,-13.693642663906187 l -12.164099319431969,-7.108125729851783 l -13.487363285912188,4.072075053116566 l -5.97640781058842,12.758264510736716 l 5.730380377987591,12.870645064174566 l 13.549660756827352,3.8597224018417613 l 11.512488913394282,-8.121167567742956 l 0.663667477793338,-14.073034822784521 l -10.855510669588687,-8.980459439629604 l -13.639917471316487,3.5275225045435965 l -4.910918296061608,13.205061345324891 l 8.221322481824576,11.441180895966644 l 14.071855070915632,-0.6882285285661565 l 6.8518211247336405,-12.31029288518515 l -7.044337504698949,-12.201150468881123 l -14.08865355552765,2.4589361610319615e-2 l -6.787270953291187,12.346000026364653 l 7.735004055903158,11.775418289791151 l 14.000873252463428,-1.570449557560009 l 4.702896359398991,-13.28056962171194 l -10.065973387906297,-9.857329425272777 l -13.090246845939708,5.209241898467742 l -0.2950509501204848,14.085585134499004 l 12.959066145553638,5.5275101338262465 l 9.786816028663653,-10.134544669864479 l -6.198159987902266,-12.652018669317307 l -13.977581603511611,1.7657791938858323 l -2.6157966072752252,13.843712354486195 l 12.485434222842454,6.527227275915918 l 9.698003912793373,-10.219563775026343 l -7.382267139195516,-11.999703976762941 l -13.421738008202661,4.283422986765882 l 1.1789099384792054,14.039264047710667 l 13.980642178416693,1.7413810391360134 l 4.353640009461112,-13.399126177195502 l -12.451086749711305,-6.592511084218962 l -8.43944880671236,11.28124405742858 l 10.014222785963703,9.909899375749063 l 11.041202431934188,-8.751149210328714 l -7.569839565422246,-11.882267990503925 l -12.485434224737334,6.527227272291349 l 5.662911596072814,12.900472700620329 l 13.170455149961036,-5.002986586755069 l -4.563567234513187,-13.329089156445159 l -13.399126178413107,4.353640005713706 l 4.377019249803493,13.391507238964401 l 13.305011771574518,-4.633295307084342 l -5.11772853287239,-13.126294919291206 l -12.830326138196769,5.820094056962574 l 6.722534701773773,12.38136869767772 l 11.734756673390184,-7.7965536912607 l -8.999392188959604,-10.839820287886656 l -9.644361708280702,10.27020208585183 l 11.526645480471595,8.101062128629186 l 6.17606862399791,-12.662817221931888 l -13.549660757146393,-3.859722400721758 l -1.1789099421241067,14.039264047404595 l 13.974478449838832,-1.7901719748047593 l -4.910918292169154,-13.205061346772482 l -11.610846042696407,7.979913396596952 l 10.729065724474067,9.131150657190037 l 5.797692063227366,-12.840464570426441 l -13.977581603050547,-1.7657791975355284 l 2.664104241487682,13.834497180413665 l 12.201150468286624,-7.044337505728657 l -10.808340504970726,-9.037175397932442 l -4.5402966494324755,13.337033777401126 l 14.06531340703463,-0.8110008670021127 l -6.264320538081629,-12.619391896623029 l -8.961499329828582,10.871167987197518 l 13.646053380664103,3.503711000703692 l -2.8570042999740113,-13.795951945201763 l -10.97983931459226,8.828017459776598 l 12.959066146009611,5.527510132757233 l -1.4726675475313264,-14.011495778068607 l -11.38350688933703,8.300995997156166 l 12.987830349494287,5.459581161329266 l -2.2767837154706183,-13.90348947413397 l -10.40385730699605,9.500027198911125 l 13.699403801423859,3.288935865887295 l -5.1863871864036275,-13.099318745533852 l -7.528316594275777,11.908619269282994 l 14.039264047615658,-1.1789099396106129 l -9.590455097174125,-10.320558835328304 l -1.960764590984268,13.951564996914453 l 11.93482544790301,-7.486701888847515 l -13.487363284844873,-4.0720750566516895 l 6.020906051073158,12.73732522818417 l 5.186387188162247,-13.099318744837566 l -13.016238485772398,5.391502510978157 l 13.025628602556607,5.368776690517639 l -5.6629115971348325,-12.900472700154134 l -4.6332953094575915,13.305011770748065 l 12.334135207347503,-6.8088084369628925 l -13.780803662122096,-2.9292002441670824 l 8.693217916180963,11.086871781804668 l 0.1967086219581319,-14.087301706232944 l -8.80884059037204,10.995230379478198 l 13.646053381126956,-3.503710998901 l -13.10835074221473,-5.1635166760130415 l 7.796553692204422,11.734756672763176 l 7.376779335714033e-2,-14.088481889722878 l -7.714440305713171,11.788900475191669 l 12.779048340777043,-5.9318367432414885 l -14.01149577789921,-1.472667549143033 l 11.412413419619721,8.261209571489516 l -5.998666066073261,-12.747814286069884 l -0.6636674754738829,14.0730348228939 l 6.958986434336996,-12.250031487759529 l -11.610846042040805,7.979913397550857 l 13.891377731235512,-2.3495506746015073 l -13.6521477229696,-3.4798888192875177 l 11.222051153628103,8.518000443163904 l -7.2351158061774745,-12.088997597633444 l 2.446472741654371,13.874636383297707 l 2.4222532194909037,-13.878885149213257 l -6.7872709513033564,12.346000027457473 l 10.25335386665036,-9.662271892760646 l -12.619391896120296,6.264320539094381 l 13.852758848416684,-2.5674570944807504 l -14.04715219772958,-1.0808694547480397 l 13.376147004284018,4.423737669004568 l -12.05094907978518,-7.298314183481758 l 10.287019022619942,9.626422142865009 l -8.281115397439452,-11.39797751439603 l 6.198159989937247,12.65201866832038 l -4.166134616084122,-13.45860639163847 l 2.2767837165599683,13.903489473955583 l -0.589972476466626,-14.076316852124284 l -0.8600930334582534,14.062396794934457 l 2.058116314311601,-13.937536399276263 l -3.0013158801452806,13.765277571918919 l 3.6938981298563083,-13.595803773614502 l -4.1426385829558905,13.46585716601032 l 4.35364000730821,-13.399126177895024 l -4.330247501311135,13.406704301273113 l 4.0720750555224745,-13.4873632851858 l -3.5751132131259733,13.62752102026331 l 2.8329214831675875,-13.800917343227365 l -1.8389411026678542,13.968144446035238 l 0.5899724760296134,-14.076316852142602 l 0.9091747192487745,14.05930883700423 l -2.639954445256024,-13.839125845636321 l 4.563567236701093,13.329089155696073 l -6.614232276688247,-12.439561689802488 l 8.693217917088104,11.086871781093379 l -10.66505732643461,-9.20583053658114 l 12.357827240287332,6.765712789026645 l -13.569684389207977,-3.788723956911035 l 14.083847176756397,0.3687985170213427 l -13.693642663106921,3.3128408140935943 l 12.237867113364825,-6.980356162833668 l -9.644361706596618,10.270202087433288 l 5.976407807534591,-12.758264512167237 l -1.472667547972283,14.01149577802226 l -3.432212730232154,-13.66421162814813 l 8.121167570560454,11.512488911406756 l -11.85577192782644,-7.611270303947221 l 13.89137773130651,2.349550674181741 l -13.639917470459894,3.5275225078557937 l 10.855510670797438,-8.980459438168477 l -5.797692061170682,12.84046457135507 l -0.6882285320076595,-14.071855070747313 l 7.235115807208564,12.08899759701635 l -12.201150468063748,-7.044337506114685 l 14.088653555521592,-2.458936508037767e-2 l -12.050949079316611,7.298314184255458 l 6.330309348141905,-12.586419157219161 l 1.5704495609818059,14.000873252079613 l -9.149862492029422,-10.713112527241531 l 13.646053381237458,3.503710998470618 l -13.090246844676487,5.209241901642076 l 7.298314182520685,-12.050949080367227 l 1.69256888059829,13.986635557875116 l -10.134544672254723,-9.78681602618848 l 14.056049570967174,0.9582453250080759 l -11.222051153119269,8.518000443834266 l 2.615796603870137,-13.843712355129593 l 7.549089579163866,11.895461746823695 l -13.699403801961518,-3.2889358636477866 l 11.999703974961198,-7.382267142124208 l -3.0013158790236023,13.765277572163486 l -8.040597982175175,-11.568904344553411 l 13.980642178844723,1.741381035699588 l -10.469925933423623,9.427163655787979 l -0.5162613046514064,-14.079212971956421 l 11.281244059486925,8.439448803960909 l -13.589336000414718,3.7176216472657337 l 5.186387186023034,-13.099318745684538 l 7.569839568297677,11.882267988672076 l -14.0763168521917,-0.589972474858165 l 8.340681278781371,-11.354461653912624 l 5.002986589965084,13.170455148741665 l -13.825113436711739,-2.7123794178615284 l 9.427163653610767,-10.469925935383994 l 4.377019253041903,13.391507237905925 l -13.83912584601984,-2.6399544432455544 l 8.808840588578281,-10.995230380915268 l 5.82009406008754,12.830326136779222 l -14.08384717678773,-0.3687985158248293 l 6.264320537681636,-12.619391896821588 l 8.999392191618568,10.839820285679142 l -13.487363284591543,4.072075057490751 l 1.2524028573516863,-14.032898871127221 l 12.662817223435102,6.176068620915866 l -10.11744802678586,9.804489230432822 l -5.9986660681508,-12.74781428509227 l 13.974478449406522,-1.7901719781794634 l -2.349550673028011,13.891377731501649 l -12.716230744265312,-6.065330931036492 l 9.13115065454142,-10.729065726728216 l 8.221322485572935,11.441180893273174 l -12.98783034915195,5.459581162143654 l -2.6641042448262633,-13.834497179770755 l 14.088675013796943,-2.02311371593056e-9 l -2.4222532172313587,13.87888514960761 l -13.337033778488165,-4.540296646239321 l 6.330309347120506,-12.58641915773287 l 11.734756673633388,7.796553690894646 l -8.961499327167395,10.871167989391234 l -10.065973391132452,-9.857329421978337 l 10.519142701653331,-9.37221427767418 l 8.82801746248344,10.979839312415903 l -11.266497265609447,8.459125428104324 l -8.281115399293183,-11.397977513049216 l 11.38350688730639,-8.300995999940863 l 8.518000444764418,11.222051152413245 l -10.9023832259643,8.923497276213993 l -9.500027201436382,-10.403857304690176 l 9.69800390948927,-10.219563778161822 l 11.041202432210017,8.751149209980703 l -7.528316591364618,11.908619271123351 l -12.74781428691153,-5.998666064284674 l 4.142638580768103,-13.465857166683374 l 13.951564997390049,1.9607645876002415 l 0.516261305791587,14.079212971914611 l -13.716436762279173,3.217161200621244 l -6.020906054184766,-12.73732522671332 l 11.041202429075934,-8.75114921393493 l 11.177297384055585,8.57664193217663 l -5.368776687312999,13.025628603877463 l -14.003592878100406,-1.5460110442043586 l -2.639954447502138,-13.839125845207855 l 12.334135205685318,-6.808808439973938 l 10.469925936163794,9.42716365274471 l -5.254903650262764,13.071983448231617 l -14.087301706281306,-0.19670861849465418 l -5.117728537107476,-13.126294917640013 l 10.065973387581023,-9.857329425604936 l 13.1083507434744,5.163516672815189 l 0.8846352264922127,14.060874231726679 l -12.237867112207676,6.980356164862366 l -11.788900477087035,-7.714440302816749 l 1.2524028562176082,-14.032898871228433 l 12.870645061843055,-5.7303803832242455 l 11.412413421633705,8.26120956870731 l -1.1789099375480907,14.039264047788851 l -12.519439401131162,6.461764521072469 l -12.250031489442804,-6.958986431373897 l -1.10538470468092,-14.045244330343412 l 10.855510669310233,-8.980459439966198 l 13.652147723830032,3.479888815911912 l 5.45958116321581,12.987830348701255 l -6.851821119707741,12.310292887982529 l -13.874636382706349,2.446472745008112 l -10.808340507913313,-9.03717539441315 l -0.2950509509870426,-14.08558513448085 l 10.253353864298054,-9.662271895256852 l 14.060874232112576,0.884635220358598 l 9.149862493762793,10.713112525761094 l -1.08086945130385,14.047152197994597 l -10.519142700863382,9.372214278560797 l -14.085585134619874,-0.2950509443500689 l -10.287019024961905,-9.62642214036233 l -1.472667552088899,-14.011495777589584 l 7.857889578107522,-11.693773344077412 l 13.45860639063284,-4.166134619332789 l 13.179166945186061,4.979992196309288 l 7.549089581129822,11.895461745576059 l -0.8600930300394399,14.062396795143561 l -8.75114920911126,11.04120243289913 l -13.421738006441883,4.283422992283132 l -13.595803774518963,-3.693898126527341 l -9.590455100565219,-10.320558832177106 l -2.9292002470598275,-13.780803661507225 l 4.330247498005205,-13.406704302340898 l 10.270202084467009,-9.644361709755385 l 13.589335999814457,-3.71762164945992 l 13.800917343920537,2.83292147979071 l 11.177297384745838,8.576641931277075 l 6.527227277350351,12.485434222092552 l 0.9091747226621247,14.059308836783497 l -4.633295305138739,13.30501177225205 l -9.261546197174349,10.61670973899125 l -12.43956168816113,6.614232279775191 l -13.948121568982794,1.9851116697211935 l -13.839125846455259,-2.6399544409630105 l -12.357827241953403,-6.765712785983498 l -9.857329426395898,-10.065973386806457 l -6.722534706807941,-12.381368694944392 l -3.3128408174396338,-13.693642662297428 l 7.376778873743918e-2,-14.088481889747067 l 3.2171611941310267,-13.71643676380144 l 5.976407804394974,-12.75826451363794 l 8.281115394100244,-11.397977516822106 l 10.11744802517041,-9.80448923209984 l 11.512488909423713,-8.121167573371599 l 12.519439400612198,-6.461764522077942 l 13.205061344768867,-4.910918297556717 l 13.63991746960525,-3.5275225111604653 l 13.891377730465868,-2.3495506791519207 l 14.019014545423774,-1.3992836808820985 l 14.07185507058188,-0.6882285353902051 l 14.086936928856689,-0.22129529321695118 " /></g></svg>