<?xml version="1.0" encoding="UTF-8"?>
<!DOCTYPE svg PUBLIC "-//W3C//DTD SVG 1.1//EN"
    "http://www.w3.org/Graphics/SVG/1.1/DTD/svg11.dtd">
<svg xmlns="http://www.w3.org/2000/svg" xmlns:xlink="http://www.w3.org/1999/xlink" version="1.1" width="400.0" height="400.0" viewBox="0 0 400 400"><g fill="rgb(0,0,0)" fill-opacity="0" fill-rule="nonzero" font-family="Sans" font-size="1" font-style="normal" opacity="1" stroke="rgb(0,0,0)" stroke-opacity="1" stroke-width="0.5" stroke-linecap="butt" stroke-linejoin="miter" text-anchor="middle"><path d="M 200.257174504768,202.1176032240228 h 1.4047255534780825 l 9.909938308353472e-2,-2.807274608717971 l -4.2016386436437605,-0.3018210185500924 l -0.6165357371105383,5.580670845438447 l 6.935249842407612,1.0552505976563393 l 1.6332499140845897,-8.253334547887945 l -9.518882241836353,-2.36853892640668 l -3.281019378855457,10.710618402709326 l 11.8006716504869,4.391303795783083 l 5.71905256401329,-12.753123375039872 l -13.522572616005958,-7.280698437259687 l -9.08641261814155,14.05288602889026 l 14.276393046900612,11.136174205530603 l 13.41484351481894,-14.113898110560505 l -13.476011002146851,-15.886226910036465 l -18.48627756045167,12.266430918050247 l 10.387935767427397,21.11582610121403 l 23.633598015741885,-7.751883991984562 l -4.291968990113062,-25.85076002325587 l -27.528830586939055,-1.7310686414972045e-2 l -5.137595348674849,28.38343088969186 l 28.09691603067953,10.940173367703117 l 17.178740066309025,-26.343194610818035 l -22.827695792716604,-23.466139879273047 l -29.26223072102421,17.34405955560545 l 9.846256856863898,33.88235047098042 l 36.53736456874184,-0.530141096329294 l 10.088127262574455,-36.4157528864479 l -32.814159041138204,-21.117114060655638 l -31.2862555050417,25.31377602542368 l 13.984999832326478,39.024679039381034 l 42.65059373875469,0.41734347913761893 l 16.327742378429097,-40.683211687569795 l -32.25750454200777,-31.38867689115071 l -42.69031922187635,17.575193332650915 l -1.729029479828099,47.278601479367154 l 42.91178464011899,22.471290630375286 l 40.22450662844732,-28.941000291360982 l -7.06837974465177,-50.157725761465265 l -48.37087064867221,-18.357719302196454 l -40.851932561708644,33.459519342859046 l 7.798195187705966,53.29005602935514 l 50.23914357569542,22.120239286350518 l 46.86382104088253,-30.495388482937486 l 1.2132187251851128,-56.90133724886433 l -46.4924438093573,-34.50701940366458 l -56.301657115480765,17.18473257034745 l -20.991503216258447,56.01056180483026 l 31.167826240081734,52.14033888991126 l 60.936603378495995,9.40486811025679 l 47.539475486375096,-40.653499055698155 l 1.318499044614492,-63.41243797293289 l -46.286153008267696,-44.605829628746505 l -65.06445065614186,2.613373451272819 l -44.50378676519667,48.64699732131894 l 2.113486405521884,66.69487011552863 l 47.833777365775624,47.63065209817851 l 68.19275451240149,2.9948407189260906 l 53.6746141437911,-43.34741241235205 l 12.752674814874949,-68.5289749350029 l -34.245578519044734,-61.50615394280771 l -65.84408308374795,-26.742242121333657 l -68.99196903587776,19.57846546871296 l -43.564610244468355,57.75491708492141 l -0.8795485432514555,72.94244310749053 l 42.045512865457454,60.323126515545454 l 69.48882250021427,25.70405990758544 l 72.47189239029848,-17.80923609778952 l 51.035391413436145,-55.152905172882775 l 13.172502466686625,-74.47896700672713 l -28.611060704227363,-70.52086623514512 l -61.603546390510196,-45.44042883034515 l -76.6188175534487,-7.364620562846664 l -70.18960515294654,32.552721909732426 l -44.89275392452757,63.475457681476676 l -8.045414860820062,77.68255476027551 l 30.620200865231478,72.20139669961816 l 61.56693125356166,49.0707105795237 l 77.68848881203756,14.390911263040854 l 75.72244413767224,-23.435654386776605 l 56.653609416485104,-55.770039451511565 l 25.16525568084517,-75.62866938240472 l -11.62274221230033,-79.03898359958099 l -45.790174130598416,-65.65777240674959 l -70.26972936593309,-38.618933846059534 l -80.20661326245761,-3.720664770516969 l -73.80468358325454,31.836959319711266 l -52.55107403644791,60.901249305474536 l -20.82422814481576,77.73574743359931 l 15.0110226863223,79.07678141325043 l 47.84360082700106,64.71077782560074 l 71.17015568777143,37.48848474838865 l 80.33045241618184,2.7823932433819065 l 73.41268937409862,-32.51955098444804 l 51.66719797174544,-61.316862039053056 l 19.34090197037871,-77.67633252992351 l -17.064402511676835,-78.04521274176845 l -50.009122966282035,-62.06507348081266 l -72.41493016045862,-32.802540300938695 l -79.17968826116321,3.7007309527102534 l -68.4049915257435,39.53930645878559 l -42.04623132697705,66.56227228662273 l -5.7689275454313576,78.21354014093927 l 32.06907290467449,71.2101297386866 l 62.2039796260227,46.63858918842287 l 76.70819210968662,10.105129317446918 l 71.19242865440805,-29.262927768943115 l 46.37102330182899,-60.90613842721142 l 8.431526069646178,-75.63527442478869 l -32.13536403139935,-68.46860394511825 l -63.20193409155472,-40.64442954229281 l -74.62803784640954,6.649261492077554e-3 l -61.84045460326758,40.806290233985116 l -28.10893516592821,67.94551132022994 l 15.601016415854266,71.25995999803588 l 53.69071647748392,48.485179976700316 l 71.35569709840085,7.181406071123462 l 60.670811155612796,-37.008694445163876 l 24.849212576498747,-65.8656454858555 l -21.675911469769783,-66.2495734516903 l -58.360010582160726,-36.79771095029528 l -67.54328050072526,9.85525738480433 l -43.62445343601726,51.5136519651351 l 2.449548739259075,66.68337300622665 l 46.95437508499874,46.286110715848196 l 65.11589129994019,0.36491121620330264 l 45.512765864882795,-45.39467083812688 l -1.2912887060066216,-63.41299790168773 l -46.78819088198367,-41.515947646445134 l -61.23824605789307,7.183202296496986 l -33.96913743405142,50.36016316567342 l 16.844203374811354,57.39424233874765 l 54.490742634443365,22.26994823995749 l 50.01404186192834,-29.169801784112433 l 6.1380782037215305,-56.5823123983912 l -41.84162955986523,-37.08725491394788 l -53.22249003095345,13.440352979360478 l -17.543644432673485,50.920157696312145 l 33.16017542659944,41.095286765743595 l 51.24544234582616,-7.1169954383449126 l 18.968157897579392,-46.96773820133834 l -31.322350958719028,-38.399254703514664 l -47.46850262385368,9.649944157555446 l -12.352395946412466,45.669180145586004 l 35.011012132384664,30.092853062010846 l 40.841791971717726,-18.91411284712144 l -1.1043764294648415,-43.82350096801954 l -39.84446767985415,-15.220568884142862 l -27.85342755637402,30.703295715585696 l 18.588975960743443,35.69407531962369 l 38.618057802436255,-5.598852685644184 l 6.569200140954451,-37.21186611097084 l -32.47401830220514,-16.754050093013795 l -24.335054374132177,25.54931654932703 l 17.53064191944246,29.150834336792638 l 31.378269876770336,-9.33635879660744 l -1.6545982574679403,-31.405975819509692 l -29.723679378241506,-5.062308561314576 l -10.571482473590926,26.837618995492114 l 23.213843840911377,14.797103340655466 l 17.78379502164579,-19.2462834391511 l -15.244126374166356,-19.653378123959026 l -20.5689874484944,11.432588367845161 l 7.9617894985280016,20.707913788947632 l 20.242842650614758,-4.919593417102949 l -2.34548477840224,-19.330257307047074 l -18.1044306755786,0.24364785795567814 l -1.4057373734543874,16.675443095911255 l 15.129866933843743,2.6373597505179336 l 3.4937917952972,-13.533038717895147 l -11.932123564397115,-4.0204263049362625 l -4.262008088742294,10.359426711183188 l 8.835607674014607,4.260414628970457 l 4.053365280865492,-7.3726024130623395 l -5.976163832108683,-3.6737868817155093 l -3.1496193029291115,4.647999746867209 l 3.387529265284661,2.5038986991967414 l 1.7550044344828748,-2.193301359007854 l -1.0641296725961298,-0.9169961398472415 l -6.69404678347558e-15,7.235412750382394e-15 l -0.9971955117711547,-0.989371008215724 l -2.0475583738576533,1.9230486530833129 l 2.770108525802396,3.173540920529603 l 4.368227370514985,-3.52740599304146 l -4.18000915096795,-5.633717041021213 l -6.972379325243105,4.70860520601808 l 5.089124267241998,8.385696749371485 l 9.872813299361495,-5.292446720452805 l -5.284269317629737,-11.428731259777738 l -13.042109210954727,5.025246797766803 l 4.471575783143037,14.692635907320321 l 16.34799612123197,-3.5762442349881485 l -2.291228461879195,-17.96051353667238 l -19.463661980016404,0.5709717418807803 l -1.6224910561100299,20.768789101437587 l 21.762602710220275,4.312413336691005 l 7.497965142829331,-22.306228730151265 l -22.236946620412844,-11.14256997266675 l -15.160299633634052,21.374005394649167 l 19.53014917853907,19.401290838711347 l 23.638019951110955,-16.530518679930182 l -12.240275805457802,-27.55539388135799 l -30.74889283304274,6.601409100434178 l -0.3225133063118634,32.73620932859625 l 32.98856115613662,8.297552740819118 l 16.874165947998467,-30.98749701232896 l -26.310763764036434,-25.357518990710343 l -32.809629797436486,18.745814533060567 l 8.421197763705859,38.10229609947945 l 40.03858941592942,4.065513224021355 l 17.55795423561773,-37.55294978422908 l -29.98313300961283,-30.335771900113965 l -40.24468796907345,17.380563128503063 l 0.7916079017143475,45.00187766287816 l 42.68376931193877,17.591094714967483 l 34.526500873846004,-32.34465084361314 l -14.63559591938027,-46.17552918678208 l -48.93844490827372,-7.7859515363516065 l -30.309154015282058,40.58466001649975 l 21.408181678125292,47.10028389007008 l 52.566312331644404,5.020222757364308 l 31.99721903631049,-43.32227941532787 l -20.084439251740935,-51.08710045841192 l -54.74638449147288,-11.358689466173379 l -40.93778284868452,39.538993611599246 l 8.700497894252903,57.24144526375301 l 52.07126458885059,27.45496369659667 l 54.35072965471501,-24.976477473234336 l 14.597672240800353,-58.965721374684186 l -36.634062375968654,-49.59502645742911 l -62.3805445257515,-4.623459706977177 l -45.59839383690743,44.086984574769865 l 1.441298907030465,64.2651589481744 l 48.029007466576715,43.970750525285034 l 65.85550108096493,-3.189100531111165 l 45.47394441076336,-48.83434144370503 l -0.4095047679886893,-67.50245611991686 l -46.29979143791864,-50.15526045915449 l -68.63316268681537,-7.03216509593776 l -57.31901930063376,39.66586879156657 l -19.009313438168018,67.78209662993542 l 27.906821358237895,65.35900942100433 l 62.765888876032896,34.693678028692666 l 71.60364820339719,-10.316165818884345 l 51.998926165921254,-51.161365205792755 l 12.639021007270548,-72.43590195964723 l -31.225380744916432,-67.1890671577901 l -63.990142040361725,-38.40059633224652 l -75.07441463905045,3.2072406107988845 l -61.807725218575726,43.59399558344078 l -29.35838897778699,70.21303558318192 l 11.727085795070096,75.64591832298996 l 49.203631797672244,59.19192054024314 l 72.75405382528882,26.326944890091056 l 76.57554888321611,-13.441666415861544 l 60.424414508115035,-49.47926985837002 l 29.115752663345294,-72.82109126653934 l -9.144226847610323,-78.19721718910213 l -45.01424624733428,-64.93317530864446 l -70.26044211902688,-36.69589508321346 l -79.49736866367128,-0.3116663137701427 l -71.13097120430238,35.96346286953046 l -47.41761289866677,64.29478246312536 l -13.73801473834958,78.86032003089984 l 22.683580534778947,76.90716540537689 l 54.31705625025753,59.13206877553303 l 74.8162254878598,29.381213407532897 l 80.19902913840731,-6.220391837230725 l 69.5333842351263,-40.51670499556901 l 45.03894041561604,-66.70803555050065 l 11.61333147795273,-79.634323246141 l -24.11897454845271,-76.73885988261021 l -55.06580784266221,-58.553224541303216 l -75.01871453408344,-28.62056301021536 l -79.86430036930949,7.137957907448849 l -68.43854433349195,41.51925786715977 l -42.854723523739956,67.42196776045792 l -8.21264433222933,79.28138620828784 l 28.303009704074135,74.28908669535447 l 58.81506566654453,53.14044122285205 l 76.40794585229814,20.110331461989233 l 76.72893494435935,-17.637806072877613 l 59.18234883359361,-51.459576105343075 l 27.389052752885622,-73.13786846542328 l -11.30944137160952,-76.91937089357434 l -47.33689277756558,-61.200318278781616 l -71.14888913987623,-29.368629751572765 l -75.81533889761229,10.576572602388856 l -59.256576818342026,47.75398907890467 l -25.411092470474035,71.23838661200176 l 16.239659569266188,73.36707424182849 l 52.98210941986893,52.55701816540632 l 72.64022786084921,14.587407052760875 l 67.80927618986874,-28.436012507662774 l 39.11459771175787,-61.574522799423896 l -3.9654081071183986,-72.23421108991627 l -45.59645530917749,-55.35495790618292 l -69.13520557477645,-16.459469643610504 l -64.03036031540265,29.255419648675833 l -31.273215995678626,62.29636491693422 l 15.511750450156342,67.22609585795882 l 54.88927136673168,40.57571598566911 l 67.25030573949803,-5.843428301977069 l 45.2272807428112,-49.062873959079276 l -0.7322114023584455,-65.92860722997843 l -45.96787024447533,-46.12122467116869 l -64.28109525018289,0.16967796099168655 l -43.74613547379534,45.925497934263646 l 3.9739427801927945,62.42528729426131 l 48.53144163795224,38.03183335077988 l 59.58370771135291,-11.824978116461237 l 28.466226235257416,-52.607035697652144 l -22.997148991179163,-54.1878470299479 l -56.04905105904925,-14.518457041683916 l -44.20917904331497,35.84386375239502 l 3.5816465384666585,55.797475295488354 l 47.248178548313014,27.94434034239269 l 48.31788748971297,-23.791251928572585 l 5.404121236779915,-52.5282333830078 l -41.39105600686056,-31.04073884310343 l -46.54537696564083,19.982175279567425 l -4.809908618713953,49.319947388923474 l 40.49385490749001,26.582473141637724 l 40.93434227065911,-23.71993515285117 l -3.6589551419448734,-46.02133008958997 l -42.314547775380085,-15.338666266001887 l -30.081621290996598,31.88753588625224 l 17.564950459992097,38.867979587134485 l 41.39759787265888,-2.178229742361549 l 11.943856113599004,-38.43125474571074 l -31.357795358164864,-23.224775781550733 l -30.872306893623158,21.789401942657452 l 11.252713264000354,34.76544985196309 l 35.26992155268356,-0.9975375668296235 l 8.086642183924091,-33.04089536964789 l -28.850754870638834,-15.472471018965576 l -20.945161801586057,23.46003430676571 l 17.534968509047403,24.5285336524052 l 26.406721901848044,-11.605992996512654 l -6.057351072756663,-26.85414886243145 l -26.179943361453105,1.1372586263306843 l -3.02059581507447,24.6883507249233 l 22.6538012115834,6.371233170350379 l 8.932954027036967,-20.307883145719575 l -17.83506740781997,-10.765010382051072 l -11.949586326977549,15.374249022845794 l 13.0236935566756,12.578282096825651 l 12.742699030046214,-10.847585972821863 l -8.882950903703245,-12.528436579712059 l -12.011733976151717,7.146185341501993 l 5.638800275205658,11.258034103954618 l 10.32185379635709,-4.3522142570776845 l -3.2715982050975962,-9.24747213914446 l -8.070072278649329,2.3788589404572944 l 1.6548894651321775,6.817080391095853 l 5.509533452460401,-1.0812236292650987 l -0.6412243278478309,-4.1633753830726885 l -2.790631459918491,0.3209166112766616 l 0.10955587563947769,1.4004468539388362 l 1.9696062311272765e-14,-8.431900506315178e-16 l 1.106543321570068e-2,1.4046819699782416 l 2.807968144014235,7.698258687225251e-2 l 0.2687141201179601,-4.203885814416045 l -5.585354329583146,-0.5725560350461524 l -1.000586869720508,6.943347183931638 l 8.265944063391013,1.5681853149765752 l 2.293482425376663,-9.537244578196566 l -10.736131638723633,-3.196546913292216 l -4.298210214539951,11.834897100570334 l 12.797778338636618,5.61841504732943 l 7.173951292142648,-13.579505246784041 l -14.124026343660843,-8.975432014765394 l -11.023369375522508,14.363672997402483 l 14.2191328459658,13.303248006075004 l 15.779579546246667,-13.600733337244058 l -12.411672139909742,-18.389077741984423 l -21.03334215208946,10.553948993530613 l 7.937812229432764,23.571800898640138 l 25.816148876118906,-4.49546980838697 l -0.19954248470700178,-27.52811282927062 l -28.423020593764633,-4.913851377796378 l -10.71850632521252,28.18222322505511 l 26.47769922764402,16.970694039421634 l 23.285591387692083,-23.01183716620345 l -17.574028565687044,-29.12469860120887 l -33.80373738615692,10.11285252821495 l 0.817940133732686,36.5320548716986 l 36.49409016184242,9.800956749830606 l 20.857972164762426,-32.97948660913097 l -25.559441598356493,-31.08588080418941 l -38.91330432040469,14.291974716758018 l -8.135935416242734e-2,42.652557983119465 l 40.81056782888872,16.00676225461104 l 31.133601236178322,-32.50376147957874 l -17.91093214419518,-42.55054976932494 l -47.29075466706737,-1.356548490168221 l -22.13256477505404,43.08746615981007 l 29.256962537900687,39.99528190202484 l 50.10048986008997,-7.463267485222702 l 17.97611826199535,-48.51397899079782 l -33.78028381348452,-40.58709467505629 l -53.22697397394574,8.217734564603335 l -21.723804577724948,50.411832420311406 l 30.86360232009453,46.62214595129867 l 56.909128686367225,0.7649526407754941 l 34.139714226221066,-46.762823182984654 l -17.62770397811881,-56.16454112625994 l -56.174180199938185,-20.549640382151996 l -51.89320310076811,31.577583885236557 l -8.924560899732931,61.00879762973871 l 41.02672005110256,47.21776103162636 l 63.42085671858452,0.8189398527890495 l 44.23983613498633,-46.63609005827017 l -3.125824037585257,-65.04184563853788 l -48.996057301526605,-44.11919937768619 l -66.67615226814134,2.638795791491618 l -47.252373666427545,48.20749380816857 l -2.4575735676175565,68.21422997498497 l 43.768878103479395,53.33148859627072 l 68.62730527332226,12.212456407227734 l 61.23448321357495,-34.72901793179341 l 26.22273934535558,-66.05269662959321 l -20.121327898928612,-68.83560317990172 l -58.096296312074784,-43.1083062536466 l -72.94710843068775,-0.3049323382549275 l -59.990050131731415,42.51939122238468 l -25.15587866634883,69.68914489877864 l 18.3795657927559,72.32935530120236 l 55.553214654901794,50.59935243891997 l 74.58041984349829,12.585401209001796 l 70.29330055384627,-29.16568645553966 l 44.95374986329064,-61.959582579308105 l 6.7608432751396625,-76.6744536174361 l -33.10461592547022,-69.93100013360323 l -63.827121596612045,-44.391346358185864 l -77.74352063578999,-7.433237082079664 l -71.9579522940964,31.18800230927429 l -48.5842074062163,61.95156536738945 l -13.778489862475823,77.79943983081404 l 24.03141505948676,75.53548525665278 l 56.21458612925326,56.21253478233812 l 75.82455696579792,24.568725790643988 l 78.94497557578174,-12.244994745921417 l 65.29503271853234,-46.30595886722187 l 38.06420047215176,-70.57176176760532 l 3.0887384273814695,-80.23343350683196 l -32.41735257096705,-73.55160467208644 l -61.313319911833716,-52.069706651189485 l -77.89737410103918,-20.211234871982185 l -78.95608174240934,15.63346783839867 " /></g></svg>