<?xml version="1.0" encoding="UTF-8"?>
<!DOCTYPE svg PUBLIC "-//W3C//DTD SVG 1.1//EN"
    "http://www.w3.org/Graphics/SVG/1.1/DTD/svg11.dtd">
<svg xmlns="http://www.w3.org/2000/svg" xmlns:xlink="http://www.w3.org/1999/xlink" version="1.1" width="400.0" height="400.0" viewBox="0 0 400 400"><g fill="rgb(0,0,0)" fill-opacity="0" fill-rule="nonzero" font-family="Sans" font-size="1" font-style="normal" opacity="1" stroke="rgb(0,0,0)" stroke-opacity="1" stroke-width="0.5" stroke-linecap="butt" stroke-linejoin="miter" text-anchor="middle"><path d="M 200.00000000000625,200.000000000002 h 22.727272727273053 l 11.363636363636529,-19.682395540555703 l -11.363636363636523,-19.682395540555714 l -22.727272727273053,-2.7832881798803884e-15 l -11.363636363636537,19.6823955405557 l 11.363636363636527,19.682395540555703 l 11.363636363636523,-19.682395540555714 l -11.363636363636509,-19.682395540555717 l -22.727272727273053,-8.349864539641164e-15 l -11.363636363636523,19.682395540555707 l 11.363636363636507,19.682395540555717 l 22.727272727273053,1.1133152719521554e-14 l -11.36363636363654,-19.6823955405557 l -22.727272727273053,-1.391644089940194e-14 l -11.363636363636562,19.682395540555685 l 11.363636363636537,19.6823955405557 l 22.727272727273053,1.6699729079282328e-14 l 11.363636363636566,-19.682395540555685 l -22.727272727273053,-1.9483017259162718e-14 l -11.363636363636568,19.682395540555685 l 11.36363636363653,19.682395540555703 l 22.727272727273053,2.2266305439043107e-14 l 11.363636363636498,-19.682395540555724 l -11.36363636363646,-19.682395540555746 l -11.363636363636502,19.68239554055572 l 11.363636363636457,19.682395540555746 l 22.727272727273053,2.783288179880388e-14 l 11.363636363636576,-19.682395540555675 l -11.363636363636454,-19.68239554055575 l -22.727272727273053,-1.113596626786968e-13 l 11.363636363636523,19.682395540555714 l 22.727272727273053,3.3399458158564656e-14 l 11.36363636363658,-19.682395540555675 l -11.36363636363645,-19.682395540555753 l -22.727272727273053,4.456074636156749e-14 l -11.363636363636513,19.682395540555717 l 45.45454545454611,7.793206903665087e-14 l 22.72727272727317,-39.36479108111134 l -22.727272727272886,-39.364791081111505 l -45.45454545454611,-2.4498563079643674e-13 l -22.727272727273032,39.36479108111143 l 22.727272727273025,39.364791081111434 l 22.727272727273178,-39.36479108111134 l -22.72727272727316,-39.36479108111135 l -45.45454545454611,6.685518728409189e-14 l -22.72727272727332,39.364791081111264 l 22.727272727273018,39.364791081111434 l 45.45454545454611,1.0019837447569398e-13 l -22.727272727273153,-39.36479108111135 l -45.45454545454611,-2.672519362354798e-13 l -22.727272727273338,39.36479108111125 l 22.727272727273004,39.36479108111144 l 45.45454545454611,1.1133152719521552e-13 l 22.7272727272732,-39.36479108111133 l -45.45454545454611,4.4588881845048794e-14 l -22.727272727273345,39.36479108111125 l 22.727272727272997,39.36479108111145 l 45.45454545454611,4.454386507147872e-13 l 22.72727272727321,-39.36479108111133 l -22.72727272727313,-39.36479108111137 l -22.727272727273075,39.3647910811114 l 22.727272727273263,39.364791081111285 l 45.45454545454611,1.3359783263425863e-13 l 22.727272727273498,-39.36479108111116 l -22.727272727272844,-39.36479108111154 l -45.45454545454611,2.2322576406005683e-14 l 22.727272727272975,39.364791081111456 l 45.45454545454611,-1.7824298544626997e-13 l 22.727272727273224,-39.36479108111131 l -22.727272727273114,-39.36479108111138 l -45.45454545454611,-3.117845471135661e-13 l -22.72727272727309,39.36479108111139 l 68.18181818181915,2.337962071099526e-13 l 34.09090909091027,-59.047186621666725 l -34.090909090909236,-59.04718662166732 l -68.18181818181915,8.440645044386818e-17 l -34.090909090910074,59.04718662166684 l 34.09090909090943,59.04718662166721 l 34.090909090909875,-59.04718662166695 l -34.09090909090963,-59.04718662166709 l -68.18181818181915,-5.010762788289137e-13 l -34.09090909090967,59.04718662166707 l 34.09090909090984,59.04718662166697 l 68.18181818181915,2.671956652685173e-13 l -34.0909090909092,-59.047186621667336 l -68.18181818181915,-3.331505170812079e-14 l -34.090909090909264,59.04718662166731 l 34.09090909090857,59.0471866216677 l 68.18181818181915,-2.0056556185227566e-13 l 34.09090909090906,-59.04718662166742 l -68.18181818181915,-5.344757369874784e-13 l -34.09090909090969,59.04718662166706 l 34.09090909090897,59.04718662166747 l 68.18181818181915,3.0059512342708195e-13 l 34.09090909090949,-59.047186621667166 l -34.09090909090918,-59.04718662166734 l -34.09090909090929,59.047186621667294 l 34.09090909090854,59.04718662166772 l 68.18181818181915,8.017558087064396e-13 l 34.090909090909086,-59.0471866216674 l -34.090909090908745,-59.0471866216676 l -68.18181818181915,-5.67875195146043e-13 l 34.090909090908944,59.047186621667485 l 68.18181818181915,3.3399458158564655e-13 l 34.09090909090953,-59.04718662166715 l -34.09090909090914,-59.04718662166737 l -68.18181818181915,-1.0690358804254006e-12 l -34.09090909091016,59.04718662166678 l 90.90909090909221,-1.7835552738019517e-13 l 45.454545454545496,-78.72958216222318 l -45.45454545454494,-78.7295821622235 l -90.90909090909221,-8.016995377394769e-13 l -45.45454545454634,78.72958216222268 l 45.454545454544096,78.72958216222398 l 45.45454545454494,-78.7295821622235 l -45.454545454545496,-78.72958216222318 l -90.90909090909221,-1.7801790157841968e-13 l -45.4545454545458,78.72958216222301 l 45.45454545454464,78.72958216222368 l 90.90909090909221,1.1580729666980917e-12 l -45.454545454546036,-78.72958216222287 l -90.90909090909221,4.456637345826376e-13 l -45.454545454545254,78.72958216222332 l 45.45454545454518,78.72958216222335 l 90.90909090909221,5.343913305370345e-13 l 45.4545454545461,-78.72958216222283 l -90.90909090909221,-1.5144463956567067e-12 l -45.45454545454695,78.72958216222233 l 45.454545454545716,78.72958216222305 l 90.90909090909221,-8.929030562402273e-14 l 45.454545454545574,-78.72958216222314 l -45.45454545454487,-78.72958216222354 l -45.45454545454642,78.72958216222266 l 45.454545454544025,78.72958216222403 l 90.90909090909221,-7.129719417850799e-13 l 45.45454545454503,-78.72958216222345 l -45.45454545454541,-78.72958216222322 l -90.90909090909221,-2.670831233345921e-13 l 45.454545454544565,78.72958216222372 l 90.90909090909221,1.2471381884542644e-12 l 45.45454545454672,-78.72958216222246 l -45.45454545454595,-78.72958216222291 l -90.90909090909221,3.5659851282646514e-13 l -45.45454545454533,78.72958216222327 " /></g></svg>