<?xml version="1.0" encoding="UTF-8"?>
<!DOCTYPE svg PUBLIC "-//W3C//DTD SVG 1.1//EN"
    "http://www.w3.org/Graphics/SVG/1.1/DTD/svg11.dtd">
<svg xmlns="http://www.w3.org/2000/svg" xmlns:xlink="http://www.w3.org/1999/xlink" version="1.1" width="400.0" height="400.0" viewBox="0 0 400 400"><g fill="rgb(0,0,0)" fill-opacity="0" fill-rule="nonzero" font-family="Sans" font-size="1" font-style="normal" opacity="1" stroke="rgb(0,0,0)" stroke-opacity="1" stroke-width="0.5" stroke-linecap="butt" stroke-linejoin="miter" text-anchor="middle"><path d="M 199.9999999999999,199.99999999999994 h 90.90909090909072 l 45.454545454545375,78.72958216222153 l -45.45454545454534,78.72958216222153 l -90.90909090909072,1.1133152719521369e-14 l -45.454545454545396,-78.7295821622215 l 45.45454545454536,-78.72958216222153 l 45.45454545454534,78.72958216222153 l -45.45454545454528,78.72958216222158 l -90.90909090909072,3.339945815856411e-14 l -45.45454545454535,-78.72958216222153 l 45.45454545454528,-78.72958216222158 l 90.90909090909072,-4.4532610878085476e-14 l -45.45454545454541,78.7295821622215 l -90.90909090909072,5.5665763597606845e-14 l -45.4545454545455,-78.72958216222145 l 45.454545454545396,-78.7295821622215 l 90.90909090909072,-6.679891631712821e-14 l 45.45454545454551,78.72958216222145 l -90.90909090909072,7.793206903664958e-14 l -45.45454545454552,-78.72958216222143 l 45.454545454545375,-78.72958216222152 l 90.90909090909072,-8.906522175617095e-14 l 45.45454545454525,78.72958216222159 l -45.45454545454509,78.72958216222167 l -45.454545454545254,-78.72958216222159 l 45.454545454545084,-78.72958216222167 l 90.90909090909072,-1.1133152719521369e-13 l 45.45454545454556,78.7295821622214 l -45.45454545454507,78.72958216222169 l -90.90909090909072,4.454386507147799e-13 l 45.45454545454534,-78.72958216222153 l 90.90909090909072,-1.3359783263425643e-13 l 45.454545454545574,78.72958216222139 l -45.45454545454505,78.7295821622217 l -90.90909090909072,-1.7824298544626706e-13 l -45.454545454545304,-78.72958216222156 l 45.45454545454536,-7.793206903664958e-14 l 22.727272727272794,39.364791081110695 l -22.727272727272513,39.36479108111086 l -45.45454545454536,2.4498563079643265e-13 l -22.72727272727266,-39.36479108111077 l 22.727272727272652,-39.36479108111078 l 22.727272727272805,39.364791081110695 l -22.727272727272787,39.364791081110695 l -45.45454545454536,-6.685518728409078e-14 l -22.727272727272947,-39.36479108111061 l 22.72727272727264,-39.36479108111079 l 45.45454545454536,-1.0019837447569232e-13 l -22.72727272727278,39.3647910811107 l -45.45454545454536,2.672519362354754e-13 l -22.727272727272965,-39.3647910811106 l 22.727272727272627,-39.364791081110795 l 45.45454545454536,-1.1133152719521369e-13 l 22.727272727272826,39.36479108111068 l -45.45454545454536,-4.4588881845048055e-14 l -22.72727272727297,-39.364791081110596 l 22.72727272727262,-39.364791081110795 l 45.45454545454536,-4.454386507147799e-13 l 22.727272727272833,39.36479108111068 l -22.727272727272755,39.364791081110724 l -22.727272727272698,-39.36479108111075 l 22.727272727272894,-39.36479108111064 l 45.45454545454536,-1.3359783263425643e-13 l 22.727272727273125,39.36479108111051 l -22.727272727272467,39.36479108111089 l -45.45454545454536,-2.2322576406005317e-14 l 22.727272727272606,-39.36479108111081 l 45.45454545454536,1.7824298544626706e-13 l 22.72727272727285,39.36479108111066 l -22.72727272727274,39.36479108111073 l -45.45454545454536,3.1178454711356094e-13 l -22.727272727272716,-39.364791081110745 " /></g></svg>