<?xml version="1.0" encoding="UTF-8"?>
<!DOCTYPE svg PUBLIC "-//W3C//DTD SVG 1.1//EN"
    "http://www.w3.org/Graphics/SVG/1.1/DTD/svg11.dtd">
<svg xmlns="http://www.w3.org/2000/svg" xmlns:xlink="http://www.w3.org/1999/xlink" version="1.1" width="400.0" height="400.0" viewBox="0 0 400 400"><g fill="rgb(0,0,0)" fill-opacity="0" fill-rule="nonzero" font-family="Sans" font-size="1" font-style="normal" opacity="1" stroke="rgb(0,0,0)" stroke-opacity="1" stroke-width="0.5" stroke-linecap="butt" stroke-linejoin="miter" text-anchor="middle"><path d="M 19.799657166321907,200.57444231091114 h 0.0 h 0.3800457284483114 l 0.7598599433073441,-1.3263404646781423e-2 l 1.135337353917518,-9.932914774530262e-2 l 1.4739039209251874,-0.3674855209870103 l 1.6436417992321997,-0.948957035238031 l 1.3055887649683626,-1.8645739923144657 l -4.631592338992659e-2,-2.6534374739020934 l -2.321612897283098,-1.9480645258466651 l -3.112025457971602,1.3855630032993898 l 0.9786941621106187,3.6525363380678866 l 3.7657812924036747,-1.7560126555846582 l -3.7534761528756646,-2.531751632879586 l 1.6754067270398434,4.603142150944356 l -0.8241156383062496,-5.203261359623522 l 2.3819082418492235,5.108018708664431 l -5.640328891264337,-2.052911827891913 l 3.5602256800864147,-5.27825163239287 l 6.4999000634485995,1.741642972884074 l 4.461637263302869,5.509663169943534 l 4.787400034500247,5.705401190301363 l 7.685305890742571,1.3551267835356033 l 2.6558153208339443,-7.713047743864106 l -8.218684839634433,2.2021899656259167 l 8.835571119868279,-0.617843320112476 l -7.049896857339646,5.915565852831469 l -5.4753741348765566,-7.819644656891534 l 1.546534965553313,-9.764437481260385 l 3.004141952730047e-14,-10.223269937352114 l -9.488814427578498,-4.628004023184142 l 0.9489570352378514,10.84662854584405 l -0.9774980092025438,-11.172853371031918 l 10.541936781892664,4.6935726540078 l 2.059489261370274,11.679944005707561 l 3.964460600644801,11.513629600510614 l 12.442741095497546,-1.088598789043675 l -11.084850856441244,-6.399841625893244 l 13.03340560922449,-1.3698661294650614 l 5.665924397821588,12.15061408221218 l 6.6439073898530205,11.985926212895967 l 13.153273492685708,-4.787400034500457 l -14.286421329561822,-2.6595415235461734e-13 l 7.064194714791075,-12.744144618019286 l 13.459830133821187,-6.276421868865916 l 4.16955671438824,-14.540972310169469 l -13.335096752531523,7.69902169974316 l 4.054253103166979,-15.130678567758665 l 13.651286968425529,-8.202520738369522 l 2.810115855304873,-15.936958961209568 l -11.822096230960206,11.416465624927149 l -4.317483975189076,-16.113069556271636 l 1.4749562550627842,-16.85882713965318 l -16.650098222173213,-4.151335736878838 l 17.126972983243256,3.0199474348109963 l 2.755945488386068,17.400355001664998 l 12.613338728740349,12.613338728740848 l -3.1349093035567366,-17.778954139421142 l 18.218504713973115,1.273961953027536 l 18.396925376038237,-1.6095224141325373 l -11.746755686449427,-14.506035195713528 l 18.572169039341233,-3.2747744919115163 l 18.75647639797772,-3.307272851982441 l -12.614161323502262,-14.510932670151767 l 18.741536771528587,-5.021779642846338 l 17.880138835371355,-7.960750706805447 l -18.545650245587996,-6.750064664504673 l 8.407346739114656,-18.0296132651487 l -3.824771238072269,-19.676742232988182 l -3.4524888577513174e-12,20.190468556907796 l -16.854135781717865,11.368258128784086 l 8.647978734983464,18.545650245586817 l -18.660630525228466,-8.701594919919708 l -18.919821088781056,-8.423647069629983 l 10.41230442645174,18.034640290504118 l -13.73298959614556,15.79799736809745 l 12.06467470364341,17.23014112999651 l -20.808276717749813,-3.66906060738779 l -21.10176678760692,2.2178850609588436 l 21.219207376335962,1.8564400944389496 l 16.132696981569612,14.023939531281842 l 3.723936151193306,-21.11949139167337 l 21.50802161468624,3.919831067931727e-12 l 3.3733837920815426,-21.2987070268271 l 17.704993287650954,12.3971697639644 l 21.013529531411475,-5.239261350749418 l -13.944156872282385,16.617999048238477 l -5.62234585722441,20.98288039689698 l -0.37952488897744857,-21.74296632791488 l -3.779080351999588,-21.43222969517569 l 5.267318306683809,21.1260598353159 l 5.636075052773743,21.034118452278605 l -5.635216651250797,-21.030914854155533 l -5.998656188850368,-20.91980023665635 l 7.437665252243884,20.434817333995365 l 10.531556357665629,18.999430606574627 l -15.3394491955559,-15.339449195555696 l -20.35076328030271,-7.4070720786314475 l 20.77652371488188,-5.957572307347131 l 9.113423912227267,-19.5438006492938 l 13.53543657326422,16.714872136781416 l 18.57216903934297,-10.722646794294793 l 13.740249232706415,16.37499138623608 l 6.934686761329907,-20.139792725508048 l 17.380769073751395,-12.170145525305028 l -19.302555873200877,8.594051574495705 l -16.113069556281527,13.52047072178939 l 1.8243920981323463,-20.85289710238192 l -19.69005450002761,-6.779829471522391 l 1.0948379402359256e-11,-20.710322546623225 l -12.102338276343195,16.657439599002586 l -11.737014874891262,16.762194398674115 l -1.771855427371079,-20.252400207771508 l -20.14128559027105,-1.4084158897932983 l -10.022512907519303,-17.35950157538097 l 6.476682646080644,18.80965219201263 l 16.166677246694057,11.320029275929343 l -12.580798915597754,14.993212305351802 l 19.296376766053278,-2.028130923383254 l 18.57202425534071,-4.976358901049489 l -3.6341147877524156,18.695899825758445 l 17.72135743740226,-6.450046618015032 l 17.54009530554271,-6.384072597401301 l -2.8889063404107946,18.23983678242349 l 16.55189226810908,-7.718274121572338 l 14.966800309223636,-10.095234278459824 l 6.100939822095982,16.762194398677593 l 4.559680499307261,-17.01695928957817 l -6.232443003374982,-16.236069114396138 l 13.145183344708432,-11.030118496294728 l -12.173549379264598,11.755859985116457 l 9.568102190881019,13.66466607225073 l 4.253599837160571,15.874650707481237 l -15.702113557291595,-3.914976613650886 l 10.237065870807056,12.200060029132814 l 15.662045345911226,0.27338201841191556 l 10.8880609047797,10.888060904784691 l -15.126965291148627,-1.3532540075361825e-11 l 10.683116331490222,10.316565521293706 l 14.515622271661094,-1.2699523927803993 l 12.245853207746501,7.358050938943254 l -12.122122421333781,6.998710643105654 l 13.49596054735332,-2.379701975082784 l -0.23397951383838259,-13.404677371864901 l -1.1421932002600337,-13.055328018877951 l 11.69309249393616,-5.206100198259342 l -6.245135172541187,10.81689141896967 l 11.036157758601856,-5.146244879431138 l -2.26301872113526,-11.642222050019273 l -3.9467710105619886,-10.84366423134075 l 6.592324221468204,-9.073555872292735 l 4.601493373284658,9.867934383743329 l -4.461696509731064,-9.568139042399215 l -5.716779999235418,8.475474892435782 l 4.943076211359489,8.561659143753248 l 6.007507235856683,7.418653603455084 l -0.8020931453779858,9.16796660358505 l -8.722586723997008,-1.5380273810336487 l 7.647486795816415,-3.7299285309177064 l -7.879519458914314,2.111310875758048 l 5.889651015570956,5.11979551823332 l 5.705401190307694,-4.78740003449271 l 1.2310981674868187,-6.98190465543146 l 1.0526775054242572,-6.6463441943213715 l 4.501952198102141,-4.5019521981034005 l 5.394842860847831,2.6312406734255447 l -3.6227992112002467,4.31748397518532 l -0.4591469696060986,-5.248073877352879 l 1.755487462175829,4.573201190955249 l -0.7861939137893648,-4.458727250092261 l -1.821467152016347,3.734561099100731 l 3.7669945616331675,-0.32956931969147946 l -0.8816763858104362,-3.290461067674202 l -3.014048179133124,0.3167892289167892 l -0.9076673072570643,2.493795431065688 l 1.1035355590355527,1.990830848156427 l 1.7200943011972039,0.8020931454014056 l 1.5190254692577576,1.2469104162376328e-12 l 1.0955251140963431,-0.3141367714490497 l 0.6887718869722533,-0.32117960561429115 l 0.33239548371609345,-0.18424982528336525 l 2.309521558675788e-15,-1.333402893583049e-15 l -0.32912925543685606,0.19002286422267844 l -0.6514263119002173,0.3914164170163825 l -0.9335664164825215,0.6536902422464398 l -1.0926954777629247,1.055203757162657 l -0.9489570352317761,1.6436417992358052 l -0.19838604119918318,2.267562827064432 l 1.3668295032044664,2.2747862980590496 l 2.9846080097228773,0.5262669189598285 l 2.002311602190605,-2.755945488377493 l -2.673842175951876,-2.6738421759626605 l -2.3832559365345523,3.4036422152987496 l 4.516481517329015,0.31582315371134884 l -3.7525158627465895,-3.1487346764448434 l 3.3153357582397693,4.094098700811795 l -4.616802401242798,-3.2327198438055 l 5.91112401948367,-1.0422906509284644 l -0.44412006595256026,6.351212841262925 l -6.499900063444094,1.7416429729008822 l -6.618722797457647,-2.5406896398299805 l -6.998710643108208,-2.547322352327847 l -7.333233529016586,2.6690787254491 l 1.5565203362983373,8.007602947211678 l 6.016494874004653,-6.016494874012272 l -7.342907386689066,4.9528535707170995 l 3.14760684613655,-8.647978734968499 l 8.651635424467548,4.034323854008971 l 3.542880172627867,9.229518395210116 l 5.111634968687916,8.853611475485831 l 10.531556357672137,-0.7364381608838853 l -6.245135172534915,-8.91897734849763 l 6.432964793655725,9.187225847455814 l -11.47637138521426,1.206215238051028 l -7.623542022036552,-9.085383593024915 l -9.190138392683123,-7.988865423522336 l -10.231430486878383,7.164124753608528 l 12.799683251786428,4.428430565478429e-11 l -10.602327290677493,7.703041672519714 l -10.982141505529485,-7.689778267883241 l -11.746755686423244,-7.0581628933748455 l -8.997368970348154,10.722646794291961 l 12.37240380056876,-7.143210664780271 l 0.2543002286742066,14.568850346103785 l -8.51834389212882,12.165455850182134 l 3.659544117847986,14.677629773541081 l 7.6990216997945815,-13.335096752501835 l 4.054253103089305,15.130678567779482 l -7.721100939944668,13.929234818642131 l 5.534847762197294,15.206869247179492 l 4.530002849522994,-15.797997368101452 l 11.795585581043937,11.795585581120195 l 7.152063983475341,15.337650708479776 l 16.49507590440374,-4.72988690311535 l -16.342367410851935,5.948135294904656 l -11.086896305206613,-13.691176722127267 l -17.230141130021888,-4.616802401167165 l 11.604388165228912,13.829571285613378 l -16.414668877731945,8.005968942310526 l -15.127443520126217,10.59234998659437 l 17.42600643439104,6.689217144402887 l -14.446582945531539,12.12212242128483 l -14.589948620133379,12.242420506061025 l 18.179650488701444,6.259755663097055 l -13.719757128821445,13.7197571285361 l -11.504279101194932,15.83428176299347 l 19.436036574667884,-3.4270976459455 l 1.7338307778654516,19.817776477603495 l 13.150720172199069,15.128173018562483 l -10.095234278500273,-17.48545868456631 l 8.911980681676171,-18.27226822703406 l -16.76219439854422,-11.737014875076772 l 20.511377545459712,-1.794513008331794 l 20.596869232763858,-2.1648181895013 l -18.034640290478798,-10.412304426495595 l 3.9941191760922363,-20.547961847770416 l -19.063385346729834,-8.889402577587365 l 19.855026550284396,-7.226638664734489 l 17.16572357237351,-12.471628199198179 l -19.304592683347074,9.00187940567155 l -20.983295183219486,-4.078739404530884 l 7.334722386677922,20.151984135848654 l -18.62649310342043,10.754010807416995 l 7.727917452916597,20.131913248973618 l -21.53155884288522,-1.8837673072037435 l -15.578619722182355,15.044098192334085 l 3.766994561521845,-21.363687772000876 l -5.622345857436153,-20.982880396840244 l 11.20016135907243,18.640198749180072 l 13.988894435228488,16.671315199877704 l -15.124661380772473,-15.662045346194212 l -15.398043399441697,-15.398043399532805 l 15.395698202920919,15.395698202869909 l 15.654888766464229,15.117750352591223 l -16.658615720309204,-13.97823830678461 l -18.620310650359965,-11.18821138398911 l 20.954077281115477,5.614628085912297 l 21.327814026469053,-3.760669052350743 l -15.014211185661187,15.547670820566177 l 1.8794437012146425,21.48213980489972 l -20.079467992067894,-7.707785605044509 l -10.722646794159148,18.572169039421286 l -20.086900582994566,-7.311033910815026 l 4.064281460367708,20.90891550786655 l -8.967114792673158,19.230039729475262 l 12.419477956682147,-17.093944921714822 l 7.194092207669858,-19.76560589437811 l 8.846478647578298,18.971334682309447 l 20.442002134726025,-3.9735226941390134 l 10.355161273217076,17.935665445999923 l 2.1522125931054097,-20.476934992902123 l 1.783455847227485,-20.38499360984326 l 11.660671916009994,16.653165353722507 l 18.147072931114916,-8.850918855140337 l 17.35950157536037,10.022512907555006 l -15.01379779977998,-13.051295311571563 l -19.660767828347538,-1.7200943016262125 l 3.3986853079501644,-19.274902198599662 l -15.697087018725133,11.404601284851445 l -13.59566535439346,13.595665354235658 l -6.200714186246577,-18.008181589650736 l -12.122122421256268,14.446582945555514 l -11.998131820648593,14.29881670176771 l -6.618052111343024,-17.24061518463488 l -10.475222124111262,14.960167596699993 l -7.914012141781361,16.226129496984296 l -13.664666072205504,-11.46601626141402 l 4.559680499487103,17.016959289529986 l 13.51548852562299,10.94462680914792 l -5.869003465716997,16.12495449691889 l 4.664673024253675,-16.267648080034665 l -15.118552599454985,-7.049896857314671 l -11.621050870245275,-11.621050870312832 l 15.555917540557799,-4.460587575968033 l -14.965589118874345,-5.447028977591042 l -13.70042015412161,7.594266899833646 l -14.873367793802114,-3.985306889410533 l 13.100336224479653,-7.563482645263472 l -14.410132895285578,-3.592849655566938 l -11.935921442623407,8.357622169552458 l -14.284245438389247,-0.24933243193582266 l 6.9987106430209325,-12.122122421382699 l -10.497993695220588,8.808862637198931 l 6.904970888867429,11.49180137665876 l 7.516832336846582,10.735149118990266 l -7.523465049266022,10.355161273419874 l 1.5893662038420134e-10,-12.490270345076242 l -6.9844705394698705,9.974857678939408 l 7.780942726690711,8.950950691302145 l 8.839836073821616,7.417503189067962 l -1.172342309898471,11.154091998768717 l -8.918977348657892,-6.245135172306048 l 8.648012042676255,6.055403222689374 l 0.7131392609266433,-10.198366565607088 l -8.561659143613015,-4.943076211602383 l -8.91198068137518,-3.4209888646008917 l -3.889350261646738,-8.340738552462932 l 8.322995380266944,-3.0293225781539137 l -4.757953574885789,7.053956259941784 l 5.768208583229096,-5.7682085830754914 l -7.6604851580231195,-1.489047473200797 l -2.547322352299017,6.998710643118698 l 2.4247900399763105,6.662055882200076 l 2.411526635440214,6.282241667301415 l -1.6478288710291513,6.1497810692582915 l -5.987691303642229,0.4187001636217515 l 0.9786941622083747,-5.550450408526711 l 3.0216698782968363,4.315391814012462 l -3.8068973337947183,-3.0827646768376167 l 2.91022752667484,3.4682741102425703 l -0.2898437236664206,-4.144958359820052 l -3.0975283264874776,2.1689126839187125 l 2.408784681857067,2.408784681873034 l 2.4518476769439355,-1.7813716093948786 l -0.4608347693108384,-2.613523848764649 l -1.9511052521897985,-1.1723423096111898 l -1.8906919344407274,0.16541411049789115 l -1.3155146453768112,0.7595127346219297 l -0.7916841935546183,0.819812981397611 l -0.43590414872211586,0.6225356411264394 l -0.19573802035823423,0.3257627711971519 l -2.666805787302147e-15,4.6190431172730274e-15 l 0.19002286423990022,-0.32912925542689875 l 0.36844352628547306,-0.6646897165476524 l 0.48164711169441415,-1.0328955642216064 l 0.41870016373918606,-1.460180998759573 l 7.565935670500364e-11,-1.8979140704760546 l -0.9619740621044651,-2.062960033511387 l -2.321102221442185,-1.2866079707057447 l -2.8478798162824077,1.0365434837500473 l -0.35607996971382416,3.3878746054634234 l 3.652536338046234,0.9786941621913928 l 0.3621390772403902,-4.139268592097703 l -4.069299306575824,1.9847298844669699 l 4.824141403417209,0.8506262884762077 l -4.918214339054164,-1.8879256015463315 l 5.614628085629306,0.4912163074629902 l -4.5980382404238656,3.8582121914598675 l -2.7909871611272554,-5.722371698380627 l 4.758257090512695,-4.758257090616395 l 7.002326903126249,-1.1090596274678688 l 7.334722386813102,-1.293309452918364 l 5.016227165359222,-5.978106745387725 l -5.351787626225132,-6.15652740766148 l -2.2021899655141577,8.21868483966437 l 3.8827175496207427,-7.960750706580705 l 1.5980818777739378,9.063172698908682 l -9.509697988857456,0.8319907677660981 l -7.682983429879067,-6.221557308369445 l -8.853611475320728,-5.111634968973865 l -8.752376266636073,5.903552334557236 l 9.867934383761641,4.601493373245388 l -10.164723856585649,-4.739888577586264 l 9.33572154413316,-6.782798730780614 l 11.144872854425307,4.056401983637414 l 11.953326024075173,2.3234912080716783 l 5.278616341806261,-11.320029275982757 l -11.084850856408908,6.399841625949244 l 5.330363936882382,-11.97219342007151 l 13.355702665654375,1.168472577049013 l 13.702070283176274,0.23917052667067656 l 2.4306266986142226,-13.784769004800449 l -7.143210664873218,12.372403800515093 l -7.504655630973542,-12.489844389501789 l 1.294374283552362,-14.794765760949968 l -10.508073059014306,-10.881428192385089 l 1.0528740108152669e-10,15.39804339948725 l -11.07642546417936,-11.076425465006723 l -0.2779478501741962,-15.92362167819464 l -12.39675339184791,-10.402111198849068 l 3.975901137310454,15.946468474416529 l -16.1130695561904,-4.317483975492228 l -13.86269445334454,-9.7067631562878 l -11.920211318778975,12.343740167548757 l 11.178837688441723,-13.322419975861772 l 16.44712221020302,6.313458697225338 l 17.23014112980474,-4.616802401977562 l -16.96448058877776,-6.174565975528115 l 10.212535772151767,-15.140706924491436 l 7.80457538885973,-16.736965934503164 l -18.43597283105248,2.9199712377190097 l 6.45004661948984,-17.72135743686547 l 6.514055892705913,-17.897221471839106 l -18.87391698680696,3.668717818003695 l 5.021779644187288,-18.741536771169283 l 2.045857072032004,-19.465029808065406 l -15.118552599788156,12.685971909716322 l -11.41042973824722,-16.29578248722814 l -18.952944256660224,-6.526022060258129 l 17.485458685000584,10.095234277748085 l 1.4181324455726754,20.28023881018323 l 20.384993609865766,1.7834558469702637 l -16.86611751698663,11.80978262512302 l -16.75500289894147,12.1732221634879 l 20.824608852916803,4.186257409671832e-10 l 6.814972251381843,19.792116544299947 l 20.954077281175184,-1.833244216919462 l -13.581638052850767,16.185965942892928 l -8.63013858847068,19.383608633223172 l 12.21732797057433,-17.448152588844852 l 20.21143638613123,-6.95935565160781 l -16.42804798413335,-13.784769005396582 l 10.754010806838112,-18.626493103754648 l -16.75852945632583,-13.570789574846112 l 19.588760594985207,-9.134389077802263 l 5.969431338677886,-20.8178810728126 l 7.419530899832929,20.38499360982238 l 15.360534538918946,15.360534540419163 l -19.019723637896572,-10.542804969088257 l -20.450395551334537,-7.4433352609966725 l 20.929363652773965,6.001398453628804 l 21.03411845212471,5.63607505334809 l -21.030914853647413,-5.635216653147123 l -21.116406541653376,-5.264911469460662 l 21.41590355891359,3.7762016145203074 l 21.719767741567043,0.37911995610332905 l -20.954077281180016,5.6146280856714315 l -16.590094228979602,13.92074194655358 l 5.228852895209682,-20.971783492888147 l -12.3687158920099,-17.664356948557003 l 21.243222178468336,-3.364595853002461 l 1.3740431620239277e-9,-21.445293588597245 l 21.05128314376899,-3.711909195691953 l -13.974228744862767,-16.075511266844437 l -1.8492706549712707,-21.13726031790395 l -2.208610951665141,21.0135295314071 l 3.652536337429461,20.714562929690025 l -17.14694258351978,-12.006418455465061 l -15.716531806941667,13.662172661709862 l -17.93566544630006,-10.355161272697229 l 8.374596715484733,18.809652192490248 l 8.647978733973877,18.5456502460576 l -18.42502078126896,-8.591728291854603 l -11.29036673531784,16.738657040799616 l -20.04502581507556,5.528485760716606e-10 l 19.5279779577941,3.795854391627212 l 17.886771548369666,-8.34073855141776 l 6.6941032842852755,18.391897613008272 l 7.891775480617487,-17.725217942338215 l 4.9763589028697055,-18.572024254852998 l 14.374066801759325,12.495185639433926 l 3.2747744934052436,-18.572169039077863 l 3.241278603934252,-18.38220441808027 l 14.351708843602554,11.621784671967323 l 1.5917246720472016,-18.19349624561532 l -1.259329188035021,-18.009246420362228 l 17.56695608333702,3.097528327231879 l -12.457278789875375,-12.457278790740984 l -17.17706981238956,-2.7205805884150687 l -2.9797711512695093,-16.899121962231213 l 4.094098700087642,16.420533009406125 l 16.617999048227233,-1.4538865273400192 l 15.874650707249646,4.253599838024898 l -11.241525981644793,11.64094092655395 l 15.684094848227963,-2.765529090332658 l 8.067778445907777,-13.427038135535195 l 14.873367793724576,-3.985306889699854 l -7.563482645347995,13.100336224430858 l 14.27596598696606,-4.093567374098937 l 6.158000102500663,-13.205873835194485 l 12.495185639455292,-6.926194499240498 l 1.6162284595028868e-10,13.997421286212804 l 4.687097911088673,-12.877695669559783 l -11.725780890275047,-6.499706483368566 l -11.87734231947705,-5.538495681426495 l 1.3379312207117617,-12.72956524767075 l 6.245135171270163,10.816891419703495 l 1.0613000806824413,-12.13071541874439 l -11.213969412541909,-3.8612793228071403 l -11.364274199738125,-2.0038281575617725 l -4.561767777221769,-10.245898181968998 l 10.84662854580954,0.9489570356322559 l -10.517099732533145,-0.9201269997027842 l 4.481586566022602,9.188614153571434 l 9.886152422713371,-2.624061381237287e-10 l 9.428496100499915,-1.4933270772960667 l 7.538645406955936,5.278616342044119 l -5.693264145465595,6.784967999365526 l 0.5935305364785805,-8.487882105696794 l -2.1113108760373014,7.879519458839474 l 7.378698488727497,-2.540689639879057 l -1.2933094529107962,-7.33472238681443 l -5.430957714409016,-4.557114615612155 l -5.2295641618442925,-4.2348175588765935 l -1.6478288704769628,-6.1497810694062345 l 4.976142697626101,-3.3564506293989114 l 1.9276511974641186,5.296178137258062 l -4.7745387836625275,-2.2264039986386903 l 4.838252139095392,0.766303857063212 l -4.25446802385857,-1.5484997238487488 l 2.323491207254684,3.4447173757220337 l 1.5980818777634425,-3.427097646087703 l -3.290461067660195,-0.8816763858626557 l -1.232676570052694,2.768636905651699 l 1.705856541580707,2.0329606617477083 l 2.2758778686539123,3.9725596264153014e-2 l 1.5546801908027152,-1.0885987889193474 l 0.7595127347427908,-1.3155146453070123 l 0.27571213278810563,-1.1058209649964619 l 6.623624580992567e-2,-0.7570837543408725 l 6.632712564939853e-3,-0.3799878456422345 l 2.8682595241040246e-25,-8.000417361577769e-15 l -2.873091555567076e-11,0.3800457284483184 l 1.3263404698406362e-2,0.7598599433064263 l 9.932914762215908e-2,1.1353373539282898 l 0.36748552106971577,1.4739039209045808 l 0.9489570353340742,1.6436417991767376 l 1.8645739922849087,1.3055887650105837 l 2.6534374739016977,-4.6315923411520306e-2 l 1.9480645261243783,-2.3216128970500645 l -1.3855630033683894,-3.1120254579408932 l -3.652536338136106,0.9786941618559793 l 1.7560126552698387,3.765781292550481 l 2.5317516326567664,-3.753476153025933 l -4.603142150990671,1.67540672691258 l 5.203261359650681,-0.8241156381348353 l -5.108018708927658,2.381908241284697 l 2.0529118282591097,-5.6403288911306895 l 5.278251632626894,3.5602256797394842 l -1.741642972808747,6.499900063468777 l -5.509663170087554,4.461637263125027 l -5.70540119023916,4.787400034574355 l -1.355126783586371,7.685305890733616 l 7.713047743831701,2.6558153209280904 l -2.2021899643290865,-8.218684839981906 l 0.6178433199774804,8.835571119877722 l -5.915565853032494,-7.049896857170942 l 7.819644656604346,-5.475374135286701 l 9.764437481109619,1.5465349665052706 l 10.223269937352102,-6.981264541736159e-11 l 4.628004024491954,-9.488814426940639 l -10.84662854594215,0.9489570341163854 l 11.172853371188568,-0.9774980074120065 l -4.6935726552007715,10.54193678136153 l -11.679944005706844,2.059489261374286 l -11.513629600867969,3.9644605996069715 l 1.088598786687576,12.442741095703692 l 6.399841627025053,-11.084850855787785 l 1.3698661281785904,13.033405609359708 l -12.150614082120956,5.6659243980171885 l -11.985926213082637,6.64390738951626 l 4.787400034025765,13.153273492858494 l 6.480291443982894e-10,-14.286421329561813 l 12.744144617358517,7.064194715983144 l 6.27642186906363,13.459830133728978 l 14.5409723102065,4.16955671425909 l -7.699021700867253,-13.335096751882539 l 15.130678567639393,4.054253103612073 l 8.202520736498549,13.651286969549721 l 15.936958961087544,2.810115855996817 l -11.416465624705603,-11.822096231174147 l 16.1130695567062,-4.3174839735672785 l 16.858827139858015,1.4749562527214404 l 4.1513357374789654,-16.650098222023583 l -3.0199474342078756,17.126972983349614 l -17.40035500207921,2.7559454857708543 l -12.613338727880995,12.613338729600208 l 17.778954139563076,-3.134909302751718 l -1.2739619541703473,18.2185047138932 l 1.609522413735546,18.39692537607297 l 14.50603519523868,-11.746755687035806 l 3.2747744935043195,18.57216903906038 l 3.30727285342524,18.756476397723308 l 14.510932670449632,-12.614161323159607 l 5.0217796424572745,18.741536771632845 l 7.960750707663124,17.88013883498948 l 6.75006466613257,-18.545650244995493 l 18.029613265151845,8.407346739107897 l 19.676742232829845,-3.8247712388868096 l -20.1904685569078,-3.4706219648347057e-11 l -11.368258125975233,-16.854135783612453 l -18.545650245809806,8.647978734505273 l 8.701594921439217,-18.660630524519913 l 8.423647072267602,-18.91982108760671 l -18.03464029053828,10.41230442639258 l -15.797997368856205,-13.7329895952727 l -17.230141130004373,12.064674703632182 l 3.6690606068768696,-20.808276717839902 l -2.217885058010757,-21.101766787916773 l -1.8564400958388698,21.21920737621349 l -14.023939531674909,16.13269698122792 l 21.11949139148079,3.723936152285482 l 9.985556564355131e-10,21.50802161468624 l 21.298707026827202,3.3733837920808782 l -12.397169763891938,17.70499328770169 l 5.239261351201302,21.013529531298804 l -16.617999045188014,-13.94415687591778 l -20.982880396584907,-5.622345858389095 l 21.74296632791155,-0.3795248891683014 l 21.432229695421398,-3.7790803506060926 l -21.12605983573963,5.267318304984331 l -21.034118452700124,5.636075051200608 l 21.03091485464671,-5.635216649417703 l 20.919800237579793,-5.99865618562995 l -20.434817334594065,7.437665250598976 l -18.99943060800729,10.531556355081037 l 15.339449197501324,-15.339449193610275 l 7.407072080448451,-20.350763279641374 l 5.957572306067879,20.776523715248697 l 19.543800648555695,9.113423913810133 l -16.714872136144017,13.535436574051342 l 10.72264679528773,18.5721690387697 l -16.374991384411945,13.74024923488033 l 20.13979272560476,6.934686761049039 l 12.170145523453579,17.38076907504779 l -8.594051573839106,-19.30255587349321 l -13.520470721151911,-16.11306955681644 l 20.852897102513968,1.8243920966230665 l 6.779829470898501,-19.690054500242425 l 20.710322546623228,-7.288549770220612e-10 l -16.657439596700936,-12.10233827951114 l -16.76219439889496,-11.737014874575873 l 20.25240020790581,-1.7718554258360444 l 1.408415890675962,-20.141285590209318 l 17.35950157463217,-10.02251290881628 l -18.809652191949848,6.476682646262978 l -11.320029276615296,16.16667724621376 l -14.993212303866803,-12.580798917367511 l 2.0281309229140416,19.296376766102593 l 4.976358900449696,18.572024255501436 l -18.695899825969633,-3.634114786665941 l 6.450046617490895,17.72135743759304 l 6.384072595730154,17.540095306150963 l -18.239836781906366,-2.8889063436757643 l 7.718274120146828,16.551892268773816 l 10.09523428065963,14.96680030773984 l -16.762194398566145,6.100939822402163 l 17.016959288312272,4.5596805040316974 l 16.236069114920017,-6.232443002010218 l 11.030118497640835,13.145183343578925 l -11.755859982368296,-12.173549381918463 l -13.664666071666288,9.568102191715676 l -15.874650707517173,4.253599837026471 l 3.914976617443307,-15.702113556346033 l -12.200060028850228,10.237065871143846 l -0.27338202108361326,15.662045345864595 l -10.888060906698787,10.888060902865595 l 4.103890742004659e-10,-15.12696529114864 l -10.31656552121812,10.683116331563214 l 1.2699523911510684,14.515622271803649 l -7.358050938413484,12.245853208064823 l -6.998710639916425,-12.122122423175075 l 2.3797019732424536,13.495960547677836 l 13.404677371882862,-0.2339795128092768 l 13.055328019026193,-1.1421931985654887 l 5.206100197165701,11.693092494423087 l -10.816891418919798,-6.245135172627563 l 5.14624487785985,11.036157759334575 l 11.642222050180079,-2.2630187203079655 l 10.843664231575994,-3.9467710099156292 l 9.073555872827757,6.592324220731823 l -9.867934384420531,4.601493371832384 l 9.568139042783457,-4.461696508907091 l -8.475474891055985,-5.716780001281066 l -8.5616591446429,4.943076209818547 l -7.418653603084787,6.007507236313986 l -9.167966603561428,-0.8020931456479783 l 1.5380273811158098,-8.722586723982538 l 3.7299285296785882,7.647486796420781 l -2.1113108753010303,-7.879519459036761 l -5.1197955193647084,5.8896510145874785 l 4.787400034988404,5.705401189891754 l 6.981904655490172,1.2310981671537846 l 6.646344194202224,1.0526775061765776 l 4.501952198237777,4.501952197967762 l -2.6312406735615923,5.3948428607814956 l -4.317483974888473,-3.6227992115540144 l 5.248073877435669,-0.4591469686596898 l -4.573201190764125,1.7554874626737496 l 4.458727250235352,-0.786193912977849 l -3.7345610987929994,-1.8214671526473296 l 0.32956931930351163,3.7669945616671185 l 3.2904610677115054,-0.8816763856711748 l -0.3167892288903449,-3.014048179135922 l -2.493795430809295,-0.9076673079614945 l -1.990830848627499,1.1035355581857524 l -0.8020931458424438,1.720094300991553 l -5.694402684686399e-11,1.519025469257746 l 0.31413677140866675,1.0955251141079412 l 0.32117960557258524,0.6887718869916992 l 0.18424982515686109,0.3323954837862029 l 5.333611571205642e-15,9.238086236508269e-15 l -0.19002286415573916,-0.3291292554755054 l -0.3914164168570289,-0.6514263119959459 l -0.6536902424263622,-0.9335664163565403 l -1.055203757078128,-1.0926954778445694 l -1.643641799291162,-0.9489570351358796 l -2.26756282703909,-0.1983860414888643 l -2.2747862980327964,1.3668295032481248 l -0.526266918273457,2.9846080098438947 l 2.755945488848767,2.002311601541971 l 2.6738421766073612,-2.6738421753071506 l -3.4036422151452266,-2.383255936753808 l -0.31582315360604457,4.516481517336351 l 3.148734677344894,-3.752515861991346 l -4.094098701495974,3.3153357573948963 l 3.232719844409723,-4.616802400819693 l 1.042290649171963,5.91112401979339 l -6.351212841243804,-0.44412006622615463 l -1.7416429722752693,-6.499900063611719 l 2.540689641552285,-6.618722796796517 l 2.5473223547989563,-6.998710642208779 l -2.669078724247622,-7.333233529453881 l -8.007602947174728,1.5565203364884843 l 6.016494873654071,6.016494874362847 l -4.952853569175405,-7.342907387728953 l 8.647978734241175,3.1476068481348105 l -4.034323853498243,8.651635424705695 l -9.2295183954484,3.5428801720071457 l -8.853611477599355,5.111634965027156 l 0.7364381575399067,10.531556357905972 l 8.918977348846552,-6.2451351720365675 l -9.187225846798018,6.432964794595146 l -1.2062152368451595,-11.476371385341013 l 9.085383593255866,-7.6235420217612955 l 7.988865427140776,-9.190138389537662 l -7.164124752693497,-10.231430487519104 l -3.834406493360972e-9,12.799683251786423 l -7.703041668559996,-10.6023272935544 l 7.689778269097072,-10.982141504679536 l 7.058162896304652,-11.746755684662832 l -10.72264679307464,-8.997368971798913 l 7.1432106644076825,12.372403800783864 l -14.568850346155427,0.25430022571566824 l -12.165455846221098,-8.51834389778574 l -14.677629774103846,3.659544115590836 l 13.335096752468806,7.699021699851808 l -15.130678567050015,4.054253105811656 l -13.929234819643169,-7.721100938138744 l -15.206869246990959,5.5348477627153185 l 15.797997366365012,4.530002855578657 l -11.79558558080053,11.795585581363612 l -15.3376507081725,7.15206398413428 l 4.729886901177909,16.49507590495929 l -5.948135297708674,-16.342367409831365 l 13.691176725105619,-11.086896301528654 l 4.61680240663961,-17.23014112855556 l -13.829571288366733,11.604388161947568 l -8.005968937318737,-16.414668880166598 l -10.592349988882725,-15.127443518523906 l -6.689217146032219,17.426006433765593 l -12.12212242289103,-14.44658294418379 l -12.242420506186733,-14.589948620027888 l -6.259755666686958,18.179650487465338 l -13.719757124573926,-13.71975713278363 l -15.834281761614779,-11.504279103092534 l 3.4270976386657153,19.4360365759515 l -19.817776477536796,1.7338307786278742 l -15.128173019536046,13.15072017107911 l 17.485458685143996,-10.095234277499705 l 18.27226822575131,8.91198068430618 l 11.7370148782389,-16.76219439633007 l 1.794513008883947,20.511377545411406 l 2.1648181845707373,20.596869233282078 l 10.412304423835623,-18.03464029201454 l 20.547961847689482,3.994119176508541 l 8.889402578983832,-19.06338534607865 l 7.226638659016741,19.85502655236549 l 12.4716281910402,17.16572357830063 l -9.001879406333968,-19.30459268303819 l 4.078739403840475,-20.98329518335368 l -20.15198413787124,7.334722381120912 l -10.754010802734765,-18.62649310612372 l -20.131913250065878,7.7279174500711605 l 1.8837673113600166,-21.531558842521594 l -15.044098188042424,-15.578619726326764 l 21.36368777135891,3.7669945651625905 l 20.98288039754425,-5.622345854808779 l -18.640198753680426,11.20016135158259 l -16.671315198602084,13.988894436748717 l 15.662045350589196,-15.124661376221333 l 15.398043399379938,-15.398043399594565 l -15.395698205509191,15.395698200281632 l -15.1177503554063,15.654888763745738 l 13.978238311644459,-16.658615716231306 l 11.188211380968418,-18.620310652174975 l -5.614628086452022,20.954077280970857 l 3.7606690477567994,21.32781402727909 l -15.547670817737295,-15.014211188590584 l -21.48213980528828,1.879443696773369 l 7.707785606675134,-20.079467991441955 l -18.572169038162432,-10.72264679633956 l 7.311033912179739,-20.086900582497858 l -20.908915508835527,4.064281455382736 l -19.230039730100003,-8.9671147913334 l 17.093944922409754,12.41947795572565 l 19.765605894251326,7.1940922080181995 l -18.971334682101055,8.8464786480252 l 3.973522691858863,20.442002135169233 l -17.935665443447718,10.355161277637634 l 20.476934991694012,2.1522126045997734 l 20.384993609838084,1.7834558472867705 l -16.65316535133658,11.66067191941746 l 8.850918853082637,18.147072932118515 l -10.022512914567304,17.35950157131181 l 13.051295310662603,-15.013797800570119 l 1.7200942999193658,-19.66076782849688 l 19.274902197890324,3.398685311973029 l -11.404601283763103,-15.697087019515852 l -13.595665350417187,-13.59566535821194 l 18.00818159072904,-6.200714183114959 l -14.446582945076779,-12.122122421826793 l -14.298816700442304,-11.998131822228158 l 17.24061518603925,-6.618052107684496 l -14.960167595223274,-10.475222126220247 l -16.22612949549794,-7.914012144828857 l 11.46601626305235,-13.664666070830775 l -17.016959290703475,4.55968049510761 l -10.944626807426214,13.515488527017194 l -16.1249544982068,-5.869003462178537 l 16.267648079172044,4.664673027262021 l 7.049896864488984,-15.118552596109541 l 11.621050869742188,-11.621050870815923 l 4.460587578513545,15.555917539827874 l 5.447028976501777,-14.96558911927082 l -7.594266893183685,-13.700420157807747 l 3.9853068885071745,-14.873367794044162 l 7.563482645947677,13.100336224084636 l 3.59284966041288,-14.410132894077353 l -8.357622170260797,-11.935921442127418 l 0.24933243128063778,-14.28424543840069 l 12.122122419560897,6.998710646176375 l -8.808862636428717,-10.497993695866883 l -11.49180137849851,6.904970885805586 l -10.735149119612757,7.516832335957564 l -10.35516127460379,-7.52346504763652 l 12.490270345076235,2.8480854325272725e-9 l -9.974857677870386,-6.984470540996631 l -8.950950694059802,7.780942723518405 l -7.417503190650891,8.83983607249337 l -11.154091998421217,-1.1723423132047712 l 6.245135173934631,-8.918977347517536 l -6.055403226318769,8.648012040134956 l 10.198366565303594,0.7131392652669032 l 4.943076215310826,-8.561659141471935 l 3.4209888675057427,-8.911980680260118 l 8.340738551848649,-3.889350262964093 l 3.029322572823927,8.322995382206887 l -7.053956260981574,-4.757953573344256 l 5.768208581390743,5.768208584913828 l 1.4890474778017733,-7.660485157128788 l -6.998710643022695,-2.547322352562808 l -6.6620558827653475,2.4247900384232066 l -6.282241667637058,2.411526634565856 l -6.149781069276933,-1.6478288709595432 l -0.41870016370941887,-5.987691303636125 l 5.550450408485712,0.9786941624409424 l -4.31539181369932,3.0216698787440275 l 3.0827646764493846,-3.8068973341091117 l -3.468274110802369,2.91022752600768 l 4.144958359742301,-0.2898437247786959 l -2.168912683377179,-3.097528326866673 l -2.4087846817532363,2.4087846819768473 l 1.781371608921607,2.451847677287797 l 2.613523848926009,-0.4608347683957623 l 1.1723423098090995,-1.9511052520708692 l -0.1654141100028075,-1.8906919344840494 l -0.7595127344471087,-1.3155146454777304 l -0.8198129810015033,-0.791684193964811 l -0.6225356410519228,-0.4359041488285505 l -0.32576277111958857,-0.19573802048729916 l -1.1547607789998424e-14,-6.6670144737704706e-15 l 0.3291292552927224,0.1900228644723233 l 0.6646897167066135,0.36844352599864344 l 1.0328955637850747,0.48164711263053994 l 1.4601809985626035,0.4187001644261425 l 1.897914070476047,5.311261605561921e-10 l 2.0629600332701625,-0.9619740626217986 l 1.2866079708123552,-2.3211022213830588 l -1.0365434823550992,-2.8478798167901194 l -3.387874605285822,-0.35607997140369746 l -0.97869416330801,3.652536337747029 l 4.139268592045772,0.3621390778338835 l -1.984729882997721,-4.069299307292438 l -0.850626289170081,4.824141403294853 l 1.8879256013366699,-4.918214339134658 l -0.4912163073298582,5.614628085640945 l -3.858212189466976,-4.59803824209609 l 5.722371697865299,-2.7909871621837747 l 4.758257089580991,4.758257091548139 l 1.1090596273956106,7.002326903137704 l 1.2933094494411344,7.334722387426203 l 5.9781067457847445,5.016227164886116 l 6.156527410672139,-5.351787622761779 l -8.21868483989289,-2.202189964661288 l 7.960750706965251,3.88271754883221 l -9.063172699179187,1.5980818762398852 l -0.8319907694012824,-9.509697988714386 l 6.221557309582445,-7.682983428896764 l 5.1116349725335715,-8.853611473265563 l -5.903552333726433,-8.752376267196444 l -4.601493376049891,9.867934382453852 l 4.739888580936817,-10.16472385502329 l 6.782798725905321,9.335721547675277 l -4.056401986757008,11.144872853289842 l -2.323491215846644,11.953326022563834 l 11.320029275039895,5.278616343828251 l -6.399841626277496,-11.084850856219383 l 11.97219341838292,5.330363940674955 l -1.1684725723237765,13.355702666067788 l -0.23917052820975446,13.702070283149403 l 13.784769004592997,2.430626699790601 l -12.372403794889076,-7.143210674617811 l 12.48984439392436,-7.504655623613138 l 14.79476576115744,1.2943742811807424 l 10.881428188651755,-10.508073062880321 l -15.398043399487255,-5.339585259406271e-9 l 11.076425468089877,-11.076425461096198 l 15.923621678405217,-0.2779478381084342 l 10.40211120013472,-12.396753390769131 l -15.94646847628512,3.975901129815938 l 4.3174839791454875,-16.1130695552115 l 9.706763165361194,-13.862694446991288 l -12.343740166076131,-11.920211320303915 l 13.322419967709399,11.178837698157317 l -6.313458696711712,16.4471222104002 l 4.616802400045217,17.230141130322515 l 6.174565978409908,-16.964480587728854 l 15.140706926014111,10.212535769894332 l 16.736965932919023,7.804575392256944 l -2.9199712301383576,-18.43597283225313 l 17.721357436801753,6.4500466196648345 l 17.897221470396904,6.514055896668347 l -3.668717812547994,-18.873916987867446 l 18.741536773608015,5.02177963508577 l 19.465029807603823,2.045857076423798 l -12.68597190124707,-15.118552606894697 l 16.295782487826024,-11.410429737393333 l 6.526022057726154,-18.952944257532067 l -10.095234281857948,17.48545868262776 l -20.280238809514564,1.418132455134885 l -1.7834558461274173,20.38499360993949 l -11.80978262688212,-16.8661175157549 l -12.173222153096265,-16.755002906491434 l -8.455862997956615e-9,20.824608852916796 l -19.792116547923428,6.814972240858507 l 1.8332442093979553,20.954077281833232 l -16.18596594152722,-13.581638054478347 l -19.383608632812887,-8.630138589392216 l 17.448152582846756,12.21732797914049 l 6.9593556556306035,20.211436384746065 l 13.784769007553086,-16.428047982323832 l 18.626493094078317,10.754010823598021 l 13.570789564300991,-16.758529464865095 l 9.134389082990555,19.58876059256586 l 20.817881070297588,5.969431347448779 l -20.38499361438081,7.419530887308736 l -15.360534549718118,15.360534529619986 l 10.542804966624013,-19.019723639262523 l 7.443335249898107,-20.450395555374087 l -6.001398469596478,20.929363648195306 l -5.636075054653508,21.034118451774923 l 5.635216645255966,-21.030914855761843 l 5.2649114677028495,-21.116406542091646 l -3.7762016121697686,21.415903559328054 l -0.379119958868719,21.71976774151877 l -5.614628070073103,-20.954077285359574 l -13.920741944700783,-16.59009423053429 l 20.971783489973294,5.228852906900507 l 17.66435695270667,-12.368715886083567 l 3.364595859829233,21.243222177387086 l 21.44529358859724,1.0279409846595341e-9 l 3.7119091865081195,21.05128314538835 l 16.075511271558547,-13.974228739439813 l 21.137260318186453,-1.8492706517421345 l -21.01352952935248,-2.208610971213604 l -20.714562930087187,3.652536335177055 l 12.00641845375085,-17.1469425847201 l -13.662172653270272,-15.716531814278072 l 10.355161283864526,-17.935665439852617 l -18.809652192829784,8.374596714722154 l -18.545650248687625,8.64797872833375 l 8.591728305026196,-18.42502077512695 l -16.738657046144773,-11.29036672739335 l -5.759065643519168e-10,-20.04502581507555 l -3.795854399154643,19.52797795633092 l 8.340738551633454,17.88677154826909 l -18.391897615148135,6.694103278406017 l 17.725217939711015,7.891775486518285 l 18.572024257611996,4.976358892573004 l -12.495185640906064,14.374066800479644 l 18.57216903801567,3.274774499429113 l 18.382204418851252,3.2412785995617965 l -11.621784675963164,14.351708840366815 l 18.193496244857297,1.5917246807113208 l 18.00924641993034,-1.2593291942114326 l -3.097528323717547,17.566956083956697 l 12.457278796213101,-12.457278784403229 l 2.720580587473843,-17.177069812538644 l 16.899121963115626,-2.979771146253778 l -16.420533009803595,4.094098698493404 l 1.453886518861386,16.617999048969025 l -4.253599834690188,15.874650708143182 l -11.640940923579741,-11.241525984724719 l 2.765529085559757,15.684094849069533 l 13.427038135328923,8.067778446251083 l 3.9853068774245846,14.873367797013762 l -13.100336217190025,-7.563482657889446 l 4.093567376389515,14.275965986309252 l 13.205873832123181,6.158000109087116 l 6.926194493115088,12.495185642850634 l -13.99742128621281,-4.933017396142526e-10 l 12.877695668546469,4.687097913872754 l 6.499706480060327,-11.725780892108807 l 5.538495687731797,-11.877342316536815 l 12.729565247700666,1.3379312204272178 l -10.81689142139029,6.245135168348622 l 12.130715417744044,1.0613000921161722 l 3.861279337346164,-11.213969407535728 l 2.0038281621150698,-11.364274198935295 l 10.245898184629954,-4.561767771245098 l -0.9489570480623175,10.846628544722059 l 0.9201270057527696,-10.517099732003848 l -9.1886141573816,4.48158655821054 l -5.4103391019198315e-9,9.886152422713376 l 1.4933270709088982,9.428496101511552 l -5.27861634816415,7.538645402670695 l -6.7849680037451385,-5.69326414024613 l 8.487882105277052,0.5935305424812797 l -7.879519456376241,-2.1113108852303837 l 2.5406896413967273,7.378698488204892 l 7.3347223875233825,-1.2933094488901706 l 4.557114615263447,-5.430957714701675 l 4.2348175603695815,-5.229564160635255 l 6.14978106896897,-1.647828872108886 l 3.3564506263558767,4.976142699678662 l -5.296178138391205,1.9276511943507448 l 2.226404000923412,-4.774538782597153 l -0.7663038556188001,4.8382521393241715 l 1.5484997213846603,-4.254468024755474 l -3.444717375959615,2.323491206902402 l 3.4270976457163345,1.5980818785598634 l 0.8816763883059033,-3.2904610670055767 l -2.768636905648164,-1.232676570060557 l -2.032960662727723,1.705856540412782 l -3.972559682307931e-2,2.275877868644164 l 1.088598789182037,1.554680190618741 l 1.3155146458152838,0.7595127338624547 l 1.1058209649894406,0.2757121328163 l 0.7570837542525475,6.623624681913406e-2 l 0.37998784563996746,6.632712695278789e-3 l 1.6000834723155538e-14,1.120332513564694e-23 l -0.3800457284482718,-1.4954754242631051e-10 l -0.7598599433049427,1.3263404785163631e-2 l -1.1353373538423885,9.932914860392474e-2 l -1.4739039208783935,0.3674855211745533 l -1.6436418002229587,0.9489570335220271 l -1.3055887654046696,1.8645739920089568 l 4.63159245157832e-2,2.6534374738824145 l 2.321612898569759,1.9480645243133248 l 3.1120254589792045,-1.3855630010362867 l -0.9786941644755001,-3.652536337434199 l -3.765781292653885,1.7560126550479784 l 3.7534761537814196,2.5317516315367667 l -1.6754067228228668,-4.603142152479196 l 0.8241156356567161,5.203261360043131 l -2.3819082437736148,-5.10801870776709 l 5.640328890460983,2.052911830099094 l -3.5602256816161253,5.27825163136103 l -6.4999000625421655,-1.741642976267022 l -4.461637266107164,-5.509663167672659 l -4.787400027669872,-5.7054011960327005 l -7.685305890307059,-1.355126786005673 l -2.655815327462342,7.7130477415817715 l 8.21868483821665,-2.2021899709170873 l -8.835571119749355,0.6178433218125772 l 7.049896861014839,-5.9155658484515605 l 5.475374133273402,7.819644658014065 l -1.5465349632153549,9.76443748163065 l -5.005244235092047e-9,10.22326993735213 l 9.488814428186872,4.628004021936776 l -0.9489570349071518,-10.846628545872957 l 0.9774980160943071,11.172853370428989 l -10.541936781612762,-4.693572654636468 l -2.0594892559085363,-11.679944006670594 l -3.9644606012642956,-11.51362960029733 l -12.442741095167813,1.0885987928126015 l 11.084850856500198,6.399841625791106 l -13.033405610727991,1.3698661151598714 l -5.665924403136412,-12.150614079733847 l -6.643907397266187,-11.985926208786774 l -13.15327349663436,4.787400023651553 l 14.286421329561835,6.2502085841800575e-9 l -7.0641947311545765,12.74414460894884 l -13.459830133252451,6.276421870085522 l -4.169556705344678,14.540972312762689 l 13.335096759397144,-7.6990216878515625 l -4.054253118229756,15.130678563722592 l -13.651286968095807,8.20252073891821 l -2.810115853993854,15.936958961440741 l 11.822096243969733,-11.416465611455381 l 4.317483972443595,16.113069557007265 l -1.4749562563222478,16.858827139543003 l 16.650098217512376,4.151335755572407 l -17.126972980853914,-3.019947448361509 l -2.7559454672825625,-17.400355005007484 l -12.613338718705407,-12.61333873877579 l 3.1349093069401226,17.778954138824545 l -18.218504713478342,-1.2739619601033527 l -18.396925374551994,1.609522431120393 l 11.746755688332575,14.506035194188572 l -18.572169043195146,3.274774470054773 l -18.756476402622177,3.307272825642458 l 12.614161311561103,14.510932680532054 l -18.741536770038156,5.0217796484086445 l -17.880138836790067,7.960750703618989 l 18.545650241162527,6.750064676663541 l -8.407346764456129,18.029613253331764 l 3.824771221614962,19.676742236187163 l 2.1817996064148144e-8,-20.190468556907796 l 16.854135787925987,-11.368258119580148 l -8.6479787441877,-18.545650241294826 l 18.660630524483935,8.701594921516373 l 18.919821082880066,8.423647082883814 l -10.41230439727532,-18.03464030734912 l 13.732989586410849,-15.797997376559712 l -12.064674706122238,-17.23014112826082 l 20.808276719292174,3.669060598640567 l 21.101766789131723,-2.217885046451341 l -21.219207373387675,-1.8564401281380298 l -16.13269697190686,-14.023939542397564 l -3.7239361537793023,21.119491391217398 l -21.50802161468624,-3.4334303733455543e-9 l -3.373383775212284,21.29870702949892 l -17.704993271988336,-12.397169786332922 l -21.01352953669233,5.2392613295690476 l 13.944156881841966,-16.617999040217025 l 5.622345862165212,-20.98288039557309 l 0.37952488336244555,21.74296632801289 l 3.779080332377895,21.432229698635524 l -5.267318293715195,-21.126059838549335 l -5.636075060695179,-21.03411845015606 l 5.635216649595574,21.03091485459905 l 5.998656180768117,20.9198002389739 l -7.437665235541474,-20.43481734007455 l -10.531556361878033,-18.999430604239656 l 15.339449176130248,15.33944921498135 l 20.350763280577375,7.407072077876815 l -20.77652372516972,5.957572271469153 l -9.113423936468806,19.543800637989783 l -13.535436562614386,-16.714872145405486 l -18.57216904134161,10.722646790833045 l -13.74024923010049,-16.37499138842271 l -6.934686777973739,20.139792719777123 l -17.380769080989996,12.170145514967224 l 19.30255587092582,-8.59405157960556 l 16.11306956144048,-13.520470715641205 l -1.8243921177575861,20.852897100664926 l 19.690054488609814,6.779829504682071 l -2.105441594862873e-8,20.71032254662323 l 12.10233829424079,-16.657439585999235 l 11.737014879299913,-16.762194395587137 l 1.7718554505677768,20.252400205742063 l 20.141285589083953,1.408415906769685 l 10.022512891675966,17.35950158452812 l -6.476682658605496,-18.80965218769998 l -16.166677245542104,-11.32002927757452 l 12.580798911991742,-14.993212308377592 l -19.296376766951337,2.028130914838754 l -18.572024258127907,4.976358890647584 l 3.6341147947990433,-18.69589982438874 l -17.721357438497197,6.450046615006689 l -17.540095306846403,6.384072593819466 l 2.888906320173019,-18.239836785628857 l -16.551892269844448,7.718274117850805 l -14.96680031680779,10.09523426721585 l -6.100939809709812,-16.762194403185806 l -4.559680507116218,17.016959287485758 l 6.232443000358304,16.23606911555413 l -13.145183346731514,11.030118493883736 l 12.173549387804002,-11.755859976273612 l -9.568102187881646,-13.66466607435091 l -4.253599824489251,-15.874650710876518 l 15.70211355387487,3.9149766273547284 l -10.237065862161446,-12.200060036387333 l -15.6620453457535,-0.2733820274486542 l -10.888060896627174,-10.888060912937256 l 15.126965291148618,-5.547646515555773e-9 l -10.683116338077582,-10.316565514472304 l -14.51562227192184,1.2699523898002807 l -12.245853203535987,-7.3580509459506915 l 12.12212242646583,-6.998710634216684 l -13.495960549632331,2.379701962157991 l 0.23397951852789628,13.40467737178302 l 1.142193213946274,13.055328017680557 l -11.693092499083049,5.206100186699272 l 6.2451351773646975,-10.816891416184859 l -11.03615775579932,5.146244885441169 l 2.263018719358412,11.642222050364664 l 3.9467710003641514,10.843664235052492 l -6.592324223579885,9.073555870758485 l -4.6014933717284805,-9.867934384468994 l 4.461696500275819,9.568139046808295 l 5.7167799930635095,-8.475474896598763 l -4.943076203979492,-8.561659148014087 l -6.007507232592175,-7.418653606098658 l 0.802093146741679,-9.16796660346578 l 8.722586723623644,1.5380273831510374 l -7.647486799568042,3.729928523225764 l 7.879519460697363,-2.1113108691037437 l -5.889651015464642,-5.119795518355603 l -5.705401193550454,4.787400030628149 l -1.2310981629803828,6.9819046562261 l -1.0526775057357767,6.646344194272008 l -4.501952203344698,4.501952192860851 l -5.394842862817652,-2.631240669386869 l 3.6227992119110493,-4.317483974588845 l 0.45914696723481885,5.248073877560336 l -1.755487460427999,-4.573201191626195 l 0.7861939127865749,4.458727250269125 l 1.8214671529877384,-3.734561098626938 l -3.766994561262806,0.32956932392491883 l 0.8816763855161662,3.290461067753087 l 3.0140481792690936,-0.3167892276230034 l 0.9076673076953584,-2.493795430906169 l -1.103535559850068,-1.9908308477049632 l -1.720094300541568,-0.8020931468073687 l -1.519025469257754,-6.021117764751199e-10 l -1.0955251142400113,0.3141367709481131 l -0.6887718867824257,0.32117960602130113 l -0.33239548360304205,0.18424982548730862 l -1.616665091691185e-14,9.333820244374953e-15 l 0.32912925574903656,-0.19002286368187585 l 0.6514263121880908,-0.3914164165373057 l 0.9335664165338361,-0.6536902421731439 l 1.0926954796512676,-1.05520375520717 l 0.9489570361595759,-1.643641798700166 l 0.19838604208447624,-2.267562826986973 l -1.3668295039295344,-2.274786297623355 l -2.984608009423539,-0.5262669206575886 l -2.0023116062135533,2.755945485454654 l 2.673842173898923,2.673842178015577 l 2.3832559386365086,-3.4036422138268883 l -4.516481516923004,-0.3158231595176134 l 3.7525158649241153,3.148734673849745 l -3.3153357559557723,-4.094098702661294 l 4.616802402210735,3.2327198424231662 l -5.911124020260836,1.0422906465209114 l 0.4441200674574569,-6.3512128411576585 l 6.49990006396503,-1.7416429709568078 l 6.6187227944055405,2.540689647780975 l 6.998710644376742,2.547322348842504 l 7.333233531802676,-2.6690787177944464 l -1.5565203321135594,-8.007602948025122 l -6.016494874426797,6.016494873590109 l 7.342907386433772,-4.952853571095519 l -3.1476068498266354,8.647978733625429 l -8.6516354247661,-4.034323853368693 l -3.5428801673584696,-9.229518397232816 l -5.111634961887782,-8.853611479411905 l -10.531556358251423,0.7364381525996139 l 6.2451351644804864,8.918977354137365 l -6.432964798029039,-9.187225844393607 l 11.476371385982123,-1.2062152307453362 l 7.623542014774106,9.085383599118803 l 9.190138390550581,7.988865425975585 l 10.231430495425432,-7.16412474140208 l -12.799683251786414,-1.3207119628764318e-9 l 10.602327284058179,-7.7030416816303555 l 10.98214150219794,7.689778272641199 l 11.746755682692456,7.058162899583896 l 8.997368967165379,-10.72264679696259 l -12.372403801151787,7.143210663770471 l -0.254300227647508,-14.5688503461217 l 8.518343891474597,-12.165455850640203 l -3.659544118169677,-14.67762977346089 l -7.6990217055988275,13.335096749150756 l -4.0542531072605,-15.130678566661793 l 7.72110096557122,-13.929234804437126 l -5.534847739840965,-15.206869255316537 l -4.53000286144406,15.79799736468313 l -11.795585581745879,-11.79558558041822 l -7.1520639939222335,-15.337650703608327 l -16.495075909132545,4.729886886624033 l 16.34236742015174,-5.94813526935359 l 11.086896313493181,13.69117671541696 l 17.23014112836911,4.616802407335431 l -11.604388151539668,-13.82957129709999 l 16.414668890275838,-8.00596891659176 l 15.127443545026932,-10.592349951032476 l -17.426006435009047,-6.689217142792913 l 14.446582968989683,-12.122122393328478 l 14.589948635729034,-12.242420487474853 l -18.17965047673851,-6.2597556978399185 l 13.719757133881197,-13.719757123476331 l 11.504279112159542,-15.834281755027225 l -19.436036572526188,3.427097658091622 l -1.7338307689967787,-19.817776478379386 l -13.150720193623965,-15.128172999938121 l 10.095234284650122,17.485458681015693 l -8.911980684391203,18.27226822570984 l 16.762194415654765,11.737014850640394 l -20.511377546651918,1.7945129947048413 l -20.596869235369656,2.164818164708799 l 18.03464026668899,10.412304467700729 l -3.9941191855192772,20.547961845937987 l 19.06338533272381,8.88940260762338 l -19.855026552623947,7.226638658306596 l -17.165723581166294,12.471628187095956 l 19.304592693417668,-9.001879384075096 l 20.983295183306446,4.078739404083453 l -7.334722361042281,-20.15198414517927 l 18.62649310021723,-10.754010812965106 l -7.727917430689642,-20.131913257505744 l 21.531558839117714,1.8837673502666021 l 15.578619707127872,-15.044098207923456 l -3.766994597041945,21.36368776573772 l 5.622345838045182,20.982880402036034 l -11.20016134470054,-18.64019875781558 l -13.988894410073502,-16.67131522098524 l 15.124661386100504,15.662045341048989 l 15.398043382236784,15.398043416737718 l -15.395698194817115,-15.395698210973713 l -15.654888737911918,-15.117750382158006 l 16.658615721808026,13.978238304998383 l 18.620310646012467,11.188211391224556 l -20.954077281523837,-5.614628084388266 l -21.327814021955813,3.7606690779466296 l 15.01421120088382,-15.54767080586585 l -1.8794437167621953,-21.48213980353949 l 20.079467995491754,7.707785596125063 l 10.722646833593277,-18.572169016653977 l 20.086900584848266,7.311033905722044 l -4.064281456573884,-20.908915508604004 l 8.967114827257536,-19.230039713348297 l -12.419477977312626,17.093944906725902 l -7.194092217021236,19.76560589097449 l -8.846478649699845,-18.97133468132015 l -20.44200213370522,3.9735226993906 l -10.35516126783943,-17.935665449104718 l -2.152212592238331,20.476934992993268 l -1.7834558643744236,20.384993608343095 l -11.660671892565258,-16.653165370138694 l -18.147072947332358,8.850918821889682 l -17.359501569043676,-10.022512918495808 l 15.013797777191774,13.051295337556324 l 19.660767825474377,1.7200943344667963 l -3.3986853592415915,19.27490218955559 l 15.69708701062184,-11.404601296004667 l 13.595665370558738,-13.59566533807039 l 6.2007141987019905,18.008181585361978 l 12.122122414415518,-14.44658295129558 l 11.998131823702643,-14.298816699205073 l 6.61805208271143,17.24061519562554 l 10.475222102296893,-14.960167611974565 l 7.914012149265549,-16.22612949333402 l 13.664666069898859,11.466016264163008 l -4.559680468736383,-17.016959297769603 l -13.51548850638949,-10.944626832899305 l 5.869003472187455,-16.12495449456386 l -4.6646730513856705,16.267648072254676 l 15.118552597415489,7.049896861688389 l 11.62105086764537,11.621050872912749 l -15.55591754010967,4.460587577530905 l 14.965589121169428,5.44702897128533 l 13.700420164644731,-7.594266880849454 l 14.873367793707795,3.985306889762639 l -13.100336220545877,7.563482652076939 l 14.410132895122524,3.5928496562209653 l 11.93592145894554,-8.357622146242086 l 14.284245438419992,0.24933243017347936 l -6.998710662612705,12.12212241007138 l 10.497993710453546,-8.808862619045023 l -6.904970881704561,-11.491801380962622 l -7.516832313248652,-10.735149135513714 l 7.52346506154887,-10.355161264495884 l -1.9096788294115896e-8,12.490270345076272 l 6.984470537597634,-9.974857680250356 l -7.780942726399217,-8.950950691555557 l -8.839836069331179,-7.417503194419506 l 1.1723423084690492,-11.154091998918936 l 8.91897734802059,6.245135173216208 l -8.648012045402686,-6.055403218795682 l -0.7131392462840372,10.19836656663098 l 8.56165913815803,4.943076221050693 l 8.911980681147895,3.420988865193029 l 3.8893502512664515,8.340738557303318 l -8.322995383824761,3.0293225683788814 l 4.757953576130003,-7.053956259102572 l -5.76820858522361,5.7682085810810255 l 7.660485157857784,1.4890474740512678 l 2.5473223504378018,-6.99871064379614 l -2.424790031246543,-6.662055885377487 l -2.4115266262435773,-6.282241670831651 l 1.6478288736581812,-6.149781068553843 l 5.987691304534162,-0.41870015086699164 l -0.9786941697698298,5.550450407193401 l -3.0216698774755097,-4.315391814587556 l 3.806897325506011,3.0827646870733414 l -2.9102275212904773,-3.4682741147606326 l 0.2898437201180173,4.144958360068176 l 3.097528328355988,-2.1689126812502306 l -2.408784677377362,-2.408784686352787 l -2.4518476775304907,1.7813716085875158 l 0.4608347683340704,2.6135238489368953 l 1.9511052496826216,1.172342313783902 l 1.8906919341963269,-0.16541411329114397 l 1.3155146460865206,-0.75951273339267 l 0.791684195393963,-0.8198129796213989 l 0.43590414805510264,-0.6225356415934593 l 0.1957380199543111,-0.3257627714398495 l 1.0667223185623867e-14,-1.847617244806774e-14 l -0.1900228647011913,0.3291292551605315 l -0.36844352703433136,0.6646897161325573 l -0.48164711299834984,1.0328955636135535 l -0.4187001669755553,1.4601809978315223 l -7.96442624021449e-10,1.8979140704760775 l 0.9619740622211753,2.0629600334569673 l 2.3211022201249403,1.2866079730820443 l 2.8478798164758583,-1.0365434832186138 l 0.35607997481741016,-3.3878746049270188 l -3.652536336587201,-0.9786941676365197 l -0.3621390787822769,4.139268591962828 l 4.069299310994086,-1.9847298754081983 l -4.824141400488676,-0.8506263050846553 l 4.918214337613965,1.8879256052980824 l -5.614628084739496,-0.49121631763380724 l 4.59803825236997,-3.858212177223029 l 2.790987154024746,5.722371701844713 l -4.758257091484807,4.758257089644313 l -7.002326903368541,1.1090596259381122 l -7.334722384106995,1.2933094682652562 l -5.016227170721721,5.978106740888082 l 5.351787636321908,6.156527398884491 l 2.202189949390412,-8.218684843984699 l -3.8827175500024467,7.96075070639448 l -1.5980818670074375,-9.06317270080711 l 9.509697990119015,-0.8319907533462257 l 7.682983421278497,6.221557318990214 l 8.853611470410007,5.111634977479519 l 8.752376270868627,-5.903552328282186 l -9.867934380229698,-4.601493380819591 l 10.16472384993298,4.739888591853006 l -9.335721538643748,6.782798738336149 l -11.144872846601364,-4.056402005133432 l -11.953326018769088,-2.3234912353692097 l -5.278616349309438,11.320029272483971 l 11.084850862592006,-6.399841615239772 l -5.330363978601284,11.972193401497027 l -13.355702664417166,-1.1684725911904066 l -13.70207028283418,-0.23917054626855136 l -2.4306267138679445,13.784769002110776 l 7.143210669558669,-12.372403797809966 l 7.5046556374741495,12.489844385595815 l -1.2943743202963527,14.79476575773526 l 10.508073076537647,10.881428175463016 l 3.758953809760054e-8,-15.39804339948725 l 11.076425464929336,11.076425464256724 l 0.2779478115478887,15.923621678868884 l 12.396753403008526,10.40211118554836 l -3.975901122906456,-15.94646847800784 l 16.113069551283367,4.317483993805451 l 13.86269445357608,9.706763155957132 l 11.920211335815779,-12.343740151096496 l -11.178837713171317,13.32241995511115 l -16.447122223019225,-6.313458663838006 l -17.230141135829033,4.616802379494612 l 16.964480584908216,6.174565986159542 l -10.212535776710228,15.14070692141673 l -7.804575396298159,16.73696593103457 l 18.43597283447812,-2.919971216090311 l -6.450046605803398,17.7213574418469 l -6.514055868084418,17.897221480800603 l 18.873916985110515,-3.6687178267311347 l -5.02177961560931,18.74153677882671 l -2.045857064789412,19.46502980882664 l 15.118552637793876,-12.68597186442286 l 11.410429712269478,16.295782505417932 l 18.952944236389843,6.526022119127618 l -17.485458681830877,-10.095234283238181 l -1.4181324272954885,-20.28023881146128 l -20.384993607205228,-1.7834558773804898 l 16.86611754436763,-11.809782586018903 l 16.75500289900607,-12.17322216339898 l -20.824608852916793,-4.45502901747886e-8 l -6.814972219376495,-19.792116555320273 l -20.954077278850157,1.8332442434946299 l 13.581638071409893,-16.185965927319955 l 8.630138621464742,-19.383608618533277 l -12.217327982603303,17.44815258042207 l -20.21143637458703,6.959355685134565 l 16.428048002414027,13.784768983610522 l -10.754010844773047,18.626493081852903 l 16.7585294422514,13.57078959222658 l -19.58876059376396,9.134389080421247 l -5.969431391565912,20.817881057647202 l -7.419530864657184,-20.3849936226253 l -15.360534516833368,-15.360534562504736 l 19.019723655193093,10.542804937884501 l 20.450395550907828,7.443335262169059 l -20.929363633137573,-6.001398522109016 l -21.034118449009426,-5.636075064974475 l 21.030914855012963,5.635216648050821 l 21.116406534532903,5.264911498019312 l -21.415903553266947,-3.7762016465440027 l -21.71976774127572,-0.3791199727929085 l 20.954077298099083,-5.61462802252862 l 16.590094243074752,-13.92074192975563 l -5.228852951457321,20.971783478864037 l 12.368715879859892,17.664356957064538 l -21.24322218759727,3.364595795364682 l -3.9404233964777136e-8,21.44529358859724 l -21.051283136288095,3.711909238118238 l 13.974228760449021,16.075511253295517 l 1.8492706200701237,21.1372603209574 l 2.2086109986922327,-21.01352952646436 l -3.6525363162261386,-20.714562933428752 l 17.14694260324191,12.006418427298938 l 15.716531782313984,-13.662172690040753 l 17.935665435848595,10.355161290799703 l -8.374596730041047,-18.809652186009377 l -8.64797871764414,-18.545650253672278 l 18.425020759961388,8.59172833754885 l 11.2903667422767,-16.738657036105828 l 20.04502581507555,5.164303603365292e-8 l -19.52797795130154,-3.7958544250285553 l -17.886771562493596,8.340738521128909 l -6.694103295145493,-18.391897609055466 l -7.891775519489503,17.725217925031288 l -4.976358888333611,18.572024258747938 l -14.374066773766454,-12.495185671636019 l -3.2747745620289797,18.57216902697763 l -3.2412786119884975,18.382204416660095 l -14.35170884452762,-11.62178467082501 l -1.591724719484711,18.193496241465063 l 1.2593291649587597,18.009246421975885 l -17.56695607246686,-3.0975283888796734 l 12.457278761144982,12.457278819471352 l 17.177069807953657,2.720580616422329 l 2.979771187213955,16.899121955893246 l -4.094098717328469,-16.420533005107494 l -16.617999050217872,1.4538865045870177 l -15.874650700777691,-4.253599862178592 l 11.241526023529339,-11.64094088610649 l -15.68409484928152,2.765529084357524 l -8.067778438352489,13.427038140074883 l -14.873367798637384,3.9853068713651663 l 7.56348267362284,-13.100336208106347 l -14.275965982209732,4.093567390686274 l -6.158000137901818,13.205873818686667 l -12.495185659261152,6.926194463509747 l -5.656031607245862e-9,-13.997421286212816 l -4.687097917417234,12.877695667256388 l 11.725780899095433,6.4997064674561305 l 11.877342310454713,5.538495700774919 l -1.3379312476407768,12.729565244840412 l -6.245135166385829,-10.816891422523515 l -1.0613000907292018,12.130715417865392 l 11.213969399111315,3.8612793618124654 l 11.364274197832167,2.0038281683712666 l 4.561767765304186,10.245898187275024 l -10.846628545219547,-0.9489570423760751 l 10.517099729403368,0.9201270354764899 l -4.481586546099833,-9.188614163288396 l -9.886152422713385,-1.0739468048420089e-8 l -9.428496100851532,1.4933270750761403 l -7.538645406332763,-5.2786163429340665 l 5.693264151416574,-6.784967994372035 l -0.5935305271730507,8.487882106347515 l 2.11131086425879,-7.879519461995571 l -7.378698488214285,2.540689641369469 l 1.2933094581204756,7.334722385895838 l 5.430957710132506,4.557114620708782 l 5.229564155557646,4.23481756663992 l 1.6478288647702548,6.149781070935358 l -4.976142696734725,3.356450630720455 l -1.9276511863692671,-5.296178141296234 l 4.774538782677775,2.2264040007505392 l -4.838252139975684,-0.7663038515053657 l 4.254468021876677,1.548499729293893 l -2.323491204694607,-3.4447173774488014 l -1.598081882272698,3.4270976439850203 l 3.290461068301836,0.8816763834682289 l 1.2326765764101193,-2.7686369028211657 l -1.7058565417633642,-2.03296066159446 l -2.275877868685096,-3.9725594478536366e-2 l -1.5546801919205977,1.0885987873228067 l -0.759512736873104,1.315514644077094 l -0.27571213427214436,1.105820964626466 l -6.623624622186444e-2,0.7570837543048098 l -6.632712226461314e-3,0.37998784564815874 l -3.8724522758240024e-23,2.4001252084733308e-14 l 1.7397096307904185e-10,-0.38004572844826373 l -1.3263401996625752e-2,-0.7598599433536086 l -9.932914797492803e-2,-1.1353373538974108 l -0.3674855197574685,-1.4739039212317044 l -0.9489570361964874,-1.643641798678849 l -1.864573992913129,-1.3055887641133646 l -2.6534374739705293,4.6315919467238315e-2 l -1.9480645299620716,2.3216128938298866 l 1.3855630011372704,3.1120254589342338 l 3.652536340260511,-0.978694153927527 l -1.7560126584868478,-3.765781291050389 l -2.531751630562102,3.7534761544388284 l 4.603142155921175,-1.675406713366082 l -5.2032613619417125,0.82411562366949 l 5.108018706712194,-2.38190824603583 l -2.052911826728176,5.640328891687888 l -5.2782516281277685,-3.5602256864096193 l 1.7416429724836058,-6.49990006355592 l 5.509663169990882,-4.461637263244385 l 5.705401198368289,-4.787400024886413 l 1.3551267951157264,-7.685305888700702 l -7.713047734644343,-2.6558153476100648 l 2.202189962345831,8.218684840513301 l -0.6178432871048855,-8.835571122176418 l 5.9155658346705975,7.049896872578428 l -7.81964466190498,5.475374127716584 l -9.764437482768273,-1.5465349560326318 l -10.223269937352123,-9.197548309719722e-9 l -4.628004017107289,9.488814430542364 l 10.846628547861219,-0.9489570121811562 l -11.172853373004372,0.9774979866574568 l 4.693572685967829,-10.541936767663136 l 11.679944001561932,-2.059489284881154 l 11.513629608659642,-3.9644605769783596 l -1.0885987814999225,-12.442741096157537 l -6.399841599678762,11.08485087157616 l -1.3698661182184217,-13.03340561040652 l 12.150614099830381,-5.665924360039245 l 11.98592621900835,-6.6439073788259675 l -4.787400056990495,-13.153273484499971 l 1.1206713829021242e-8,14.286421329561831 l -12.744144616313905,-7.0641947178676405 l -6.276421796676559,-13.459830167483606 l -14.540972294842772,-4.1695567678388405 l 7.699021661071028,13.335096774858888 l -15.130678554354635,-4.0542531531914205 l -8.202520769574418,-13.651286949675756 l -15.936958957568793,-2.8101158759527536 l 11.416465631788741,11.822096224334029 l -16.113069555439104,4.317483978296013 l -16.858827135628317,-1.4749563010672873 l -4.151335691571365,16.650098233469627 l 3.0199474751353192,-17.12697297613296 l 17.400355000560534,-2.7559454953594584 l 12.613338734539278,-12.613338722941917 l -17.778954144063235,3.1349092772300136 l 1.273962006463041,-18.21850471023655 l -1.6095223890867165,-18.396925378229458 l -14.506035204661975,11.746755675398994 l -3.274774465827175,-18.572169043940622 l -3.3072728550850727,-18.756476397430642 l -14.510932717745026,12.61416126875247 l -5.021779669287709,-18.741536764443623 l -7.9607506499493965,-17.880138860685303 l -6.750064718551357,18.54565022591661 l -18.029613281437936,-8.407346704182245 l -19.6767422332616,3.8247712366656748 l 20.190468556907796,3.554466423775737e-8 l 11.368258134267206,16.854135778019437 l 18.54565029108236,-8.64797863741798 l -8.701594922942375,18.660630523818973 l -8.423647061130712,18.91982109256517 l 18.03464032899235,-10.412304359788145 l 15.797997395982756,13.732989564067182 l 17.230141145270753,-12.064674681829523 l -3.669060663161515,20.808276707915386 l 2.217885008562379,21.10176679311401 l 1.8564401144928533,-21.21920737458147 l 14.023939504447027,-16.132697004896748 l -21.11949138281825,-3.72393620141322 l 4.654865824471601e-8,-21.508021614686236 l -21.29870702112272,-3.373383828097547 l 12.397169785720408,-17.70499327241724 l -5.239261250453765,-21.01352955641799 l 16.617999028459245,13.944156895854345 l 20.982880382214493,5.622345912020189 l -21.74296632835929,0.37952486351712517 l -21.432229699310906,3.7790803285476118 l 21.12605984927679,-5.267318250689743 l 21.034118444721823,-5.63607508097603 l -21.03091485735783,5.635216639299674 l -20.919800243832306,5.998656163824845 l 20.434817312343863,-7.437665311730901 l 18.99943064255749,-10.531556292750833 l -15.339449223549334,15.339449167562261 l -7.4070721551267305,20.350763252460702 l -5.957572264987759,-20.776523727028234 l -19.543800677226724,-9.113423852324921 l 16.714872135349665,-13.535436575032296 l -10.722646724924113,-18.57216907939415 l 16.374991403800784,-13.740249211773612 l -20.13979272380722,-6.934686766269489 l -12.170145509572286,-17.38076908476757 l 8.594051506374718,19.302555903530294 l 13.520470706683017,16.113069568957293 l -20.85289710082918,-1.824392115880227 l -6.779829467873317,19.690054501284088 l -20.71032254662323,-3.774184589689797e-8 l 16.657439602673435,12.102338271290726 l 16.762194385102994,11.737014894272832 l -20.25240020604016,1.7718554471605439 l -1.4084159102435319,20.14128558884104 l -17.359501612276517,10.022512843614336 l 18.80965221510507,-6.476682579015348 l 11.320029291080202,-16.16667723608533 l 14.993212307983114,12.580798912461866 l -2.028130915676967,-19.296376766863244 l -4.976358913892824,-18.572024251899368 l 18.695899823908704,3.6341147972684498 l -6.450046674247253,-17.7213574169354 l -6.384072602601389,-17.540095303650045 l 18.23983677675764,2.8889063761837046 l -7.718274057499027,-16.55189229798695 l -10.09523424887246,-14.966800329180565 l 16.762194400344278,-6.100939817516859 l -17.01695927701021,-4.559680546211501 l -16.23606910520383,6.232443027321779 l -11.030118460219272,-13.145183374979357 l 11.755859975526976,12.173549388525023 l 13.664666111464427,-9.568102134878057 l 15.874650699178304,-4.253599868147599 l -3.9149765792736355,15.702113565862781 l 12.200060066517333,-10.237065826253916 l 0.2733820331583347,-15.662045345653839 l 10.888060917050566,-10.888060892513868 l -1.1398491725087344e-8,15.126965291148624 l 10.316565562061703,-10.683116292121044 l -1.2699524013396473,-14.515622270912282 l 7.3580509720989316,-12.245853187824547 l 6.9987106091303275,12.122122440949454 l -2.3797019755510105,-13.495960547270787 l -13.404677372312515,0.23397948819346817 l -13.055328020561495,1.1421931810170698 l -5.206100167426775,-11.693092507663723 l 10.816891430061107,6.245135153330341 l -5.146244841843651,-11.036157776129183 l -11.642222049631814,2.2630187231286216 l -10.843664227134461,3.9467710221187864 l -9.073555890267304,-6.592324196728312 l 9.867934395534439,-4.601493347998572 l -9.568139059792452,4.461696472431214 l 8.475474883552312,5.716780012405678 l 8.56165915979533,-4.943076183573799 l 7.418653614216224,-6.007507222567829 l 9.167966602624853,0.8020931563528395 l -1.5380273960142432,8.722586721355519 l -3.729928531599605,-7.647486795483855 l 2.1113108775565887,7.879519458432439 l 5.1197955054929825,-5.889651026645959 l -4.78740002401314,-5.7054011991011135 l -6.981904654371141,-1.2310981735004285 l -6.646344191552594,-1.052677522905539 l -4.501952198257632,-4.501952197947927 l 2.631240696693471,-5.394842849499341 l 4.317483971417571,3.6227992156904394 l -5.248073878085455,0.45914696123277443 l 4.573201188845381,-1.7554874676722882 l -4.458727250381271,0.7861939121501721 l 3.734561093893345,1.8214671626930599 l -0.3295693231860029,-3.76699456132746 l -3.2904610680929145,0.8816763842479453 l 0.3167892293069542,3.0140481790921116 l 2.4937954265363365,0.9076673197013964 l 1.9908308535854267,-1.1035355492414471 l 0.8020931452967737,-1.7200943012459784 l -3.393856718308969e-9,-1.519025469257762 l -0.3141367688291859,-1.095525114847612 l -0.32117960360859826,-0.6887718879074962 l -0.1842498241782526,-0.3323954843286728 l -1.3334028931738528e-14,-2.3095215589120378e-14 l 0.1900228626051888,0.3291292563707422 l 0.3914164175509533,0.6514263115790208 l 0.6536902404961661,0.9335664177080589 l 1.0552037548903013,1.092695479957253 l 1.6436418026975277,0.9489570292359264 l 2.2675628263540384,0.19838604931885867 l 2.2747862952776963,-1.366829507833351 l 0.5262669364237542,-2.9846080066435303 l -2.7559454855110204,-2.0023116061359576 l -2.673842185612045,2.6738421663024443 l 3.4036422117975165,2.383255941534873 l 0.3158231829094967,-4.516481515287276 l -3.148734677313103,3.7525158620180017 l 4.094098706378457,-3.3153357513654473 l -3.2327198432822124,4.616802401609212 l -1.04229065764834,-5.911124018298761 l 6.351212840106771,0.44412008248572865 l 1.7416429716488013,6.499900063779603 l -2.5406896601938067,6.6187227896406915 l -2.5473223548701336,6.998710642182857 l 2.6690787545456613,7.33323351842632 l 8.00760294961382,-1.5565203239403718 l -6.016494882801474,-6.016494865215423 l 4.952853582042503,7.342907379050013 l -8.647978718307382,-3.147606891912606 l 4.034323860093917,-8.651635421630068 l 9.229518381483683,-3.5428802083863427 l 8.853611490847694,-5.111634942080398 l -0.7364381294472614,-10.531556359870388 l -8.91897734891337,6.245135171941113 l 9.187225884092198,-6.432964741333565 l 1.2062152207670336,11.476371387030879 l -9.085383585089252,7.623542031493866 l -7.988865442215775,9.190138376433104 l 7.164124755181371,10.23143048577706 l 4.8924946366568337e-8,-12.79968325178647 l 7.703041640001122,10.602327314303578 l -7.689778285134877,10.982141493449765 l -7.058162932514672,11.746755662905711 l 10.722646817226307,8.997368943016017 l -7.143210629935393,-12.372403820686472 l 14.568850346376127,-0.2543002130743347 l 12.165455818948427,8.518343936735135 l 14.677629799699025,-3.65954401293423 l -13.335096747822348,-7.699021707899579 l 15.130678579707423,-4.0542530585735355 l 13.929234793594295,7.721100985132185 l 15.206869236469315,-5.534847791623107 l -15.797997373278749,-4.530002831467557 l 11.795585606393361,-11.795585555770794 l 15.337650740572315,-7.152063914652576 l -4.72988686331362,-16.495075915816688 l 5.948135295708998,16.3423674105592 l -13.691176734027456,11.086896290511053 l -4.61680244134563,17.230141119256096 l 13.829571288664926,-11.604388161592247 l 8.005968960885127,16.414668868672464 l 10.592349954290544,15.1274435427456 l 6.6892172599339474,-17.42600639004285 l 12.122122400727195,14.446582962781415 l 12.242420426800496,14.589948686640856 l 6.259755668439911,-18.179650486861778 l 13.719757061571492,13.71975719578603 l 15.834281752786612,11.504279115243486 l -3.427097651639339,-19.436036573663927 l 19.817776473998254,-1.7338308190733465 l 15.128173012188142,-13.150720179531918 l -17.485458695086734,10.095234260278302 l -18.272268169469022,-8.911980799701968 l -11.737014832508711,16.7621944283507 l -1.7945130007406604,-20.511377546123825 l -2.1648181011661385,-20.59686924204825 l -10.412304395882767,18.034640308153133 l -20.547961842520543,-3.9941192031003427 l -8.889402623536789,19.06338532530326 l -7.2266387016327185,-19.85502653685454 l -12.471628071980657,-17.16572366480243 l 9.001879320657853,19.304592722989607 l -4.07873941653306,20.983295180886504 l 20.15198413513646,-7.334722388634636 l 10.75401068796753,18.626493172384613 l 20.131913262287682,-7.7279174182322885 l -1.8837674085453098,21.531558834018977 l 15.044098237940123,15.578619678141115 l -21.36368775262014,-3.7669946714354623 l -20.982880414236188,5.622345792513592 l 18.64019877558901,-11.200161315120582 l 16.671315193116616,-13.988894443286043 l -15.662045324158646,15.124661403590963 l -15.398043452932516,15.398043346041993 l 15.395698254419198,-15.395698151371624 l 15.117750386810634,-15.654888733418929 l -13.978238373126505,16.658615664641744 l -11.18821148220503,18.62031059134589 l 5.614628140680858,-20.954077266440283 l -3.7606690520095953,-21.327814026529204 l 15.54767079873405,15.014211208269026 l 21.48213981141142,-1.8794436267856067 l -7.70778565723063,20.079467972035513 l 18.57216900845606,10.722646847792516 l -7.311033927371649,20.086900576968453 l 20.908915509651187,-4.064281451186531 l 19.230039745257965,8.967114758827073 l -17.0939449429927,-12.419477927395667 l -19.765605861943445,-7.194092296783312 l 18.971334735569137,-8.846478533362566 l -3.9735227066441965,-20.442002132295265 l 17.93566548224676,-10.355161210435684 l -20.47693499291885,-2.152212592946422 l -20.384993609305237,-1.783455853377163 l 16.653165365657657,-11.660671898964798 l -8.850918880416332,-18.147072918787007 l 10.022512858187584,-17.35950160386265 l -13.05129532057381,15.01379779195441 l -1.72009440925088,19.66076781893162 l -19.274902195360713,-3.3986853263190917 l 11.404601193221009,15.69708708529859 l 13.595665329477471,13.595665379151665 l -18.008181591769237,6.200714180093982 l 14.446582970223758,12.122122391857864 l 14.298816717974004,11.998131801334708 l -17.240615177752925,6.618052129271075 l 14.96016756648078,10.475222167268829 l 16.226129441672278,7.914012255187836 l -11.46601626592299,13.664666068422006 l 17.01695929798352,-4.559680467938237 l 10.944626817108011,-13.515488519177039 l 16.12495449334176,5.86900347554502 l -16.267648052771662,-4.664673119331226 l -7.049896826894769,15.118552613640022 l -11.621050909235752,11.621050831322307 l -4.460587520068131,-15.555917556586863 l -5.447029018110902,14.965589104126323 l 7.594266835733023,13.700420189653123 l -3.9853069797338647,14.87336776960008 l -7.563482600375831,-13.10033625039553 l -3.59284966646013,14.41013289256956 l 8.357622145448866,11.935921459500968 l -0.2493324855520997,14.284245437453356 l -12.122122403310556,-6.998710674322936 l 8.808862612252481,10.49799371615317 l 11.491801375401733,-6.904970890959449 l 10.735149166028062,-7.516832269669762 l 10.355161303976315,7.523465007208724 l -12.490270345076215,-3.253224022126533e-8 l 9.974857675517336,6.984470544357212 l 8.950950699405706,-7.780942717368666 l 7.41750319624698,-8.839836067797664 l 11.154091994394797,1.1723423515140525 l -6.245135163650903,8.918977354718296 l 6.0554032053954385,-8.648012054785564 l -10.19836656224291,-0.713139309037381 l -4.943076218346504,8.561659139719302 l -3.420988910823696,8.911980663631855 l -8.340738579462839,3.8893502037453884 l -3.029322556592674,-8.322995388114597 l 7.053956242678429,4.757953600479681 l -5.7682085881966,-5.768208578108043 l -1.489047477100876,7.660485157265008 l 6.998710632023188,2.547322382783533 l 6.662055881494511,-2.4247900419149513 l 6.282241662705132,-2.4115266474139028 l 6.149781063541964,1.6478288923625133 l 0.41870017912356416,5.987691302558278 l -5.550450402286849,-0.9786941975963095 l 4.315391827578499,-3.021669858922666 l -3.0827646893158485,3.806897323690076 l 3.468274107799725,-2.9102275295860585 l -4.1449583608818665,0.2898437084829142 l 2.1689126657318574,3.0975283392220803 l 2.408784687536576,-2.4087846761934766 l -1.7813715984054272,-2.4518476849283157 l -2.6135238494405453,0.4608347654777756 l -1.1723423186372028,1.9511052467663834 l 0.16541410457256006,1.8906919349591889 l 0.7595127333744714,1.3155146460970364 l 0.819812979723561,0.7916841952880709 l 0.6225356397703641,0.43590415065890137 l 0.3257627696344977,0.1957380229589365 l -4.15947344042922e-14,-2.40147310143264e-14 l -0.32912925532374343,-0.19002286441848396 l -0.6646897151582482,-0.3684435287920151 l -1.0328955656841832,-0.48164710855803394 l -1.460180999113742,-0.41870016250389586 l -1.8979140704760695,1.2848424829241968e-9 l -2.062960034994666,0.9619740589237341 l -1.2866079760934692,2.321102218455671 l 1.036543488913314,2.8478798144031474 l 3.3878746052268,0.35607997196437396 l 0.9786941850588002,-3.6525363319189057 l -4.139268590637164,-0.3621390939345966 l 1.984729892377087,4.069299302717713 l 0.850626286652724,-4.824141403738714 l -1.8879256284544454,4.918214328725141 l 0.49121633330261943,-5.61462808336857 l 3.8582121869841663,4.598038244179396 l -5.722371694638565,2.7909871687996906 l -4.758257082918356,-4.75825709821065 l -1.1090596351274635,-7.002326901913083 l -1.2933094378873846,-7.334722389463502 l -5.97810674515674,-5.016227165634407 l -6.156527431324369,5.351787599004085 l 8.21868483021521,2.2021900007790913 l -7.960750693007707,-3.8827175774493785 l 9.063172697046598,-1.5980818883343144 l 0.8319907531010878,9.509697990140525 l -6.22155731444691,7.682983424957583 l -5.1116349732367095,8.853611472859589 l 5.903552292507295,8.75237629499917 l 4.601493399892281,-9.867934371335952 l -4.739888559143924,10.164723865185472 l -6.782798705320091,-9.335721562631225 l 4.056402044916426,-11.144872832121532 l 2.323491242621089,-11.95332601735946 l -11.320029281072243,-5.278616330891664 l 6.39984156736275,11.084850890233811 l -11.972193402463658,-5.330363976430332 l 1.168472637908966,-13.355702660329756 l 0.23917050147324037,-13.702070283616079 l -13.784768997568898,-2.43062673962653 l 12.372403795772952,7.14321067308675 l -12.489844409282279,7.50465559805325 l -14.794765753811706,-1.2943743651433501 l -10.88142817452013,10.508073077513952 l 15.398043399487246,-6.203044853379485e-10 l -11.076425459619283,11.076425469566844 l -15.92362167849306,0.2779478330754065 l -10.402111212441563,12.396753380442444 l 15.946468488721484,-3.9759010799365533 l -4.3174840574383335,16.11306953423298 l -9.706763186560707,13.862694432147215 l 12.343740092441484,11.920211396554881 l -13.322419986556824,-11.178837675695815 l 6.313458808722945,-16.44712216740311 l -4.616802464207345,-17.230141113130365 l -6.174565998263392,16.96448058050277 l -15.140706887230582,-10.212535827393262 l -16.73696593680893,-7.8045753839149 l 2.9199712229609105,18.43597283338992 l -17.721357413150233,-6.450046684646951 l -17.897221439926337,-6.514055980385409 l 3.6687178007011907,18.87391699017022 l -18.741536755408386,-5.0217797030078035 l -19.465029806317897,-2.0458570886581535 l 12.685971830501973,15.118552666256875 l -16.29578255094938,11.410429647243884 l -6.526022029866619,18.95294426712483 l 10.095234322070901,-17.485458659410792 l 20.280238809624407,-1.4181324535643205 l 1.7834558701050898,-20.384993607841714 l 11.80978256391173,16.866117559847236 l 12.173222101277458,16.755002944140028 l 1.0928356935369553e-7,-20.824608852916793 l 19.792116577391305,-6.81497215527756 l -1.8332442356854377,-20.95407727953339 l 16.18596595127789,13.581638042857936 l 19.383608613753285,8.630138632200772 l -17.448152536427603,-12.217328045433936 l -6.959355611320975,-20.211436400003087 l -13.784768995227,16.428047992666645 l -18.62649309807632,-10.754010816673235 l -13.570789604464375,16.75852943234143 l -9.1343889350017,-19.588760661574202 l -20.817881035737102,-5.969431467975475 l 20.384993627421235,-7.419530851480458 l 15.36053453718532,-15.360534542152793 l -10.542805018466396,19.019723610525816 l -7.443335407894747,20.450395497868012 l 6.001398513072813,-20.92936363572867 l 5.636075068981992,-21.034118447935615 l -5.6352167588277835,21.030914825330367 l -5.264911417190877,21.1164065546857 l 3.776201704528924,-21.415903543042646 l 0.3791199466480309,-21.719767741732085 l 5.614628036368664,20.954077294390643 l 13.920741919602495,16.59009425159426 l -20.971783484676134,-5.228852928146266 l -17.664357023172162,12.368715785448401 l -3.364595924866884,-21.243222167086138 l -21.44529358859724,1.4847150265094006e-9 l -3.711909253131983,-21.05128313364075 l -16.075511270197598,13.974228741005401 l -21.137260314320194,1.8492706959337468 l 21.013529526923456,2.2086109943240677 l 20.714562934076376,-3.652536312553272 l -12.006418449448377,17.146942587732703 l 13.662172640762698,15.716531825150781 l -10.355161326367519,17.935665415313508 l 18.80965219907354,-8.3745967006984 l 18.545650302026786,-8.647978613947627 l -8.59172832237113,18.42502076703888 l 16.7386569834228,11.290366820382452 l 2.8853210043132543e-8,20.045025815075583 l 3.795854409550464,-19.527977954310177 l -8.340738531243666,-17.886771557776978 l 18.391897586734654,-6.694103356471536 l -17.725217908643923,-7.891775556296132 l -18.572024254935517,-4.976358902561634 l 12.495185781389534,-14.37406667835923 l -18.57216903808651,-3.2747744990274 l -18.38220440066219,-3.24127870271694 l 11.621784657789119,-14.35170885508388 l -18.193496245122468,-1.5917246776804517 l -18.009246427633553,1.259329084049833 l 3.097528403572755,-17.56695606987608 l -12.457278793428525,12.45727878718782 l -2.7205806707411173,17.177069799350367 l -16.89912196094043,2.9797711585899957 l 16.420533024267403,-4.09409864048228 l -1.453886426982357,-16.617999057007456 l 4.253599770317227,-15.874650725391877 l 11.64094085111784,11.241526059761156 l -2.765529118240593,-15.684094843307085 l -13.427038103995898,-8.067778498398013 l -3.9853068061753603,-14.873367816104889 l 13.100336170113195,7.563482739429033 l -4.093567299423608,-14.27596600837888 l -13.205873858157272,-6.1580000532567185 l -6.926194508263075,-12.49518563445405 l 13.997421286212822,4.614716076290325e-8 l -12.877695647279298,-4.687097972303681 l -6.499706576246797,11.725780838791858 l -5.5384957022210894,11.877342309780358 l -12.729565240999504,-1.337931284184031 l 10.816891415643825,-6.245135178301815 l -12.130715422476436,-1.0613000380248252 l -3.8612794102267674,11.21396938244087 l -2.003828239489132,11.364274185292173 l -10.245898211008456,4.561767711998047 l 0.9489569740501477,-10.846628551197231 l -0.9201269734664818,10.517099734828546 l 9.188614175329906,-4.481586521411096 l 5.5707152289177934e-8,-9.88615242271346 l -1.4933271131333012,-9.428496094823878 l 5.278616365618348,-7.538645390449068 l 6.784967954186246,5.693264199308252 l -8.487882105955025,-0.5935305327860522 l 7.879519464700848,2.1113108541623054 l -2.540689659777544,-7.37869848187596 l -7.334722391679106,1.2933094253219648 l -4.55711464632538,5.430957688637539 l -4.234817557438854,5.229564163008626 l -6.149781076982001,1.6478288422039027 l -3.356450618891994,-4.976142704713043 l 5.2961781304306585,-1.9276512162224293 l -2.226403992417221,4.774538786563673 l 0.7663038834404339,-4.838252134917598 l -1.5484997484382983,4.254468014908771 l 3.4447173847175456,-2.3234911939182643 l -3.427097651918507,-1.5980818652591198 l -0.8816763919352643,3.2904610660331084 l 2.7686369032350915,1.2326765754804474 l 2.0329606509484646,-1.705856554450662 l 3.972560240897206e-2,-2.2758778685466776 l -1.0885987830267267,-1.554680194928755 l -1.3155146391427621,-0.7595127454194791 l -1.1058209657133244,-0.2757121299130264 l -0.7570837544687826,-6.623624434773642e-2 l -0.37998784565009913,-6.632712120185152e-3 l -3.2001669446311075e-14,-1.3628785601621385e-22 l 0.38004572844833306,1.1523303419963818e-9 l 0.7598599433963982,-1.3263399540333941e-2 l 1.1353373543563077,-9.932914272961742e-2 l 1.4739039237074427,-0.3674855098281102 l 1.6436417971669988,-0.9489570388149184 l 1.3055887678092295,-1.8645739903252463 l -4.6315922555658695e-2,-2.6534374739166897 l -2.321612886291168,-1.9480645389462352 l -3.1120254671194796,1.3855629827528892 l 0.9786941358504098,3.65253634510433 l 3.7657812993389124,-1.756012640711854 l -3.7534761506538246,-2.531751636173587 l 1.6754067179731624,4.6031421542444075 l -0.8241156574529666,-5.203261356590927 l 2.381908227413202,5.10801871539606 l -5.640328884836036,-2.052911845553684 l 3.560225686586507,-5.278251628008447 l 6.499900061493961,1.7416429801789144 l 4.461637225840133,5.509663200280333 l 4.787400035031268,5.705401189855734 l 7.685305881538404,1.355126835735102 l 2.6558153910148015,-7.71304771969881 l -8.218684847061562,2.202189937907367 l 8.835571125126085,-0.6178432449225845 l -7.04989684967417,5.915565861966711 l -5.475374132507896,-7.81964465855006 l 1.546534988993953,-9.764437477547778 l 1.5768013756807137e-8,-10.223269937352049 l -9.488814419600425,-4.628004039541573 l 0.9489569599532306,10.846628552430632 l -0.9774979389500938,-11.172853377178152 l 10.541936764242918,4.693572693649746 l 2.0594892221913996,11.679944012615888 l 3.964460582052623,11.513629606912358 l 12.44274110637041,-1.0885986647661887 l -11.084850839371194,-6.399841655459508 l 13.033405607237471,-1.3698661483698553 l 5.665924378011432,12.150614091449805 l 6.643907377814228,11.985926219569226 l 13.153273495880551,-4.78740002572259 " /></g></svg>