<?xml version="1.0" encoding="UTF-8"?>
<!DOCTYPE svg PUBLIC "-//W3C//DTD SVG 1.1//EN"
    "http://www.w3.org/Graphics/SVG/1.1/DTD/svg11.dtd">
<svg xmlns="http://www.w3.org/2000/svg" xmlns:xlink="http://www.w3.org/1999/xlink" version="1.1" width="400.0" height="400.0" viewBox="0 0 400 400"><g fill="rgb(0,0,0)" fill-opacity="0" fill-rule="nonzero" font-family="Sans" font-size="1" font-style="normal" opacity="1" stroke="rgb(0,0,0)" stroke-opacity="1" stroke-width="0.5" stroke-linecap="butt" stroke-linejoin="miter" text-anchor="middle"><path d="M 167.75952602052698,381.77490990827005 h 0.0 h 1.0593798345923628 l -1.0587344890206143,-3.697182304405203e-2 l 2.1174689780412286,7.394364608810405e-2 l -2.1158559826946974,-0.11088731333576736 l -1.4945398158764618,-0.10450840464688156 l 3.1703977156786207,0.22169580485039292 l -1.359874296385941,-2.8725098091211665 l -1.838020843887171,2.5927302372026233 l -1.824847925493365,-0.19179924568513873 l 4.214305764054898,0.44294138450672804 l 0.47970080750707916,-4.210279952489161 l -4.20593351180428,-0.5164236994337015 l -0.5531072636962112,4.201266772998539 l -2.098140045731087,-0.29487435334955936 l 5.245350114327717,0.7371858833738985 l 2.3551877128943657,-4.744494882024319 l -3.7585246475181817,-3.7323763639967877 l -4.727937083556521,2.3882528723848773 l 0.7737870731759692,5.240075802305661 l -2.3328572409007755,-0.411345673711942 l 6.2597128469480845,1.1037562664044205 l 4.113995898460473,-4.845340088097462 l -2.1043314532712434,-5.997838940539105 l -6.239496259392915,-1.2128352117644563 l -4.197932161502886,4.772802990831868 l 1.9993342304627033,6.033651088418522 l -2.5382343727512007,-0.5395183709846865 l 7.253608904306054,1.5418021683984253 l 5.751395495332301,-4.68117997083828 l -3.697917902673964e-2,-7.415566640751378 l -5.797795546032583,-4.623587662141911 l -7.237871544166887,1.6140667809125515 l -3.2840071183432475,6.648856541524793 l 3.1172257969741093,6.728662526370697 l -2.719598796744187,-0.6780721365269066 l 8.223293808063561,2.050297421957064 l 7.283502576512157,-4.333228679652284 l 2.1219802182433196,-8.205088696997999 l -4.269503939795541,-7.321039316947467 l -8.186258736660868,-2.1935014175203755 l -7.358018531894269,4.205454060683675 l -2.2648555731720013,8.166805361026551 l 4.141083919962959,7.394437405242166 l -2.8803040319718223,-0.8259138907503619 l 9.165071307988034,2.6280419077158585 l 8.72510002165299,-3.844185994637523 l 4.24596117167507,-8.536799756222702 l -2.1987882270136705,-9.277417026412168 l -7.625638224683105,-5.723179013054563 l -9.522301692367028,0.4805276566029684 l -7.010743817994123,6.461780518376766 l -1.2536564991018329,9.451639102900408 l 5.083794214428523,8.065988639624988 l -3.0225902847622694,-0.982099117161409 l 10.075300949207566,3.273663723871363 l 10.086666785936858,-3.2384744160750163 l 6.28656001934186,-8.526882579073472 l 0.11093596924921359,-10.593217481238689 l -6.106607717576823,-8.656668272362374 l -10.016633122224219,-3.449003376173309 l -10.141649709475509,3.0619445723901535 l -6.4344171662141925,8.415868293005916 l -0.2957962101247201,10.589667983283048 l 5.954597958561483,8.761924819695134 l -3.14802025677547,-1.1457856703331233 l 10.950405544934453,3.985621671499035 l 11.3749467998205,-2.5312342855032974 l 8.226956778844611,-8.253105104497136 l 2.4951251878975556,-11.382921944895045 l -4.020350751266995,-10.937702754401442 l -9.273154516961455,-7.057277592061358 l -11.613537229551124,-0.960372180294709 l -10.306454533633282,5.438157468573702 l -5.762422090817665,10.128724172081622 l 0.5914151367102026,11.638160930444469 l 6.7595065220730195,9.49239871080573 l -3.257721131067956,-1.3162047734086364 l 11.786878541852307,4.762208051641305 l 12.593933534677731,-1.7326192344584308 l 10.06299613562201,-7.768219877291847 l 4.8648853353613255,-11.744872156021195 l -1.6226518535725931,-12.608573759533355 l -7.680108994284648,-10.130402614082211 l -11.701971352703213,-4.967192139228057 l -12.622253792681137,1.512560901465575 l -10.197037623162013,7.5914132412426385 l -5.06912067218212,11.658179398960694 l 1.402354761989792,12.634972592333558 l 7.50213937269081,10.262896088347478 l -3.3525285687263655,-1.4926418871131983 l 12.581291265530506,5.601551769635354 l 13.745682928824328,-0.8499840917609318 l 11.79532127392341,-7.108914697824769 l 7.1721556363201024,-11.75697476668301 l 0.9237891496564338,-13.740920119955442 l -5.5339067194832845,-12.611191401135617 l -10.737626747164882,-8.623783622899436 l -13.508214953499323,-2.6822380405319177 l -13.2178597663942,3.867099084838223 l -9.9323552818702,9.540156743509216 l -4.3961924101357805,13.051427677809189 l 2.136141766276338,13.605262602772099 l 8.184429083096544,11.076163267114778 l -3.43307716341405,-1.6744236116578106 l 13.330300033414884,6.50162174165521 l 14.830902779089584,0.11093696235912547 l 13.426068802863975,-6.3014808381195095 l 9.391011035703821,-11.47941183073914 l 3.5162143986092604,-14.408477385047927 l -3.047423544234771,-14.514861142789767 l -9.014058296882627,-11.777722074867707 l -13.214800819016105,-6.733277327286911 l -14.826707843805226,-0.3697550092551284 l -13.53399995229837,6.066203882463262 l -9.58992410016787,11.313767719263293 l -3.7671414655916404,14.344916501347951 l 2.7936401508235633,14.56583533341398 l 8.807135819587327,11.933245279795706 l -3.4998597932997404,-1.860908461589953 l 14.030653123149744,7.460230597948049 l 15.849366110324826,1.1453652420074756 l 14.957504729515762,-5.365381617669478 l 11.507596001790095,-10.958535572616288 l 6.089646751658356,-14.677549866266126 l -0.36975994732153705,-15.88639497236767 l -6.765929932067118,-14.378332997641634 l -12.00498384530681,-10.411274202067418 l -15.190933472063138,-4.663668929508584 l -15.778914536007182,1.8815216453958703 l -13.668369930331467,8.104932515716744 l -9.220247094246508,12.942229759888779 l -3.195268422655273,15.566133988370202 l 3.376168235015244,15.52790248828173 l 9.37020924063675,12.834073648822406 l -3.553267986211715,-2.0514802283417395 l 14.679197584223934,8.475038676737435 l 16.80020033130998,2.2490867294822423 l 16.3915034689574,-4.315522716431777 l 13.514646756971802,-10.230319903265624 l 8.60281451203986,-14.604680919496925 l 2.395608635722014,-16.779933895976328 l -4.17231735765655,-16.428538892910684 l -10.11199431935837,-13.603407410430123 l -14.52905205177358,-8.72993520971004 l -16.75838960371034,-2.541948107089199 l -16.464323220021598,4.028794260760755 l -13.691132111746265,9.992898667933716 l -8.856391089014894,14.452316740484854 l -2.688093999266715,16.735569095193252 l 3.884964355583891,16.498853725175085 l 9.873042018586416,13.777814180344727 l -3.5936202073305115,-2.2455431299622997 l 15.272885881154675,9.543558302339774 l 17.682091411992435,3.418214666587752 l 17.729394288635373,-3.1637203364133932 l 15.40847598307128,-9.3230583012254 l 11.02935542792313,-14.237059635102845 l 5.176977934311304,-17.249331803771014 l -1.3669194501811448,-17.95750760616987 l -7.728229232210702,-16.266991766867537 l -13.057233236010052,-12.403596592495532 l -16.64210453977935,-6.883378872035727 l -18.003990452961173,-0.4437070865055101 l -16.96097573271948,6.055233307068623 l -13.652382090423538,11.74533998937514 l -8.520158157788684,15.866551395158282 l -2.2498457661491735,17.868372680170765 l 4.320991974148188,17.48340860840011 l 10.314648985384625,14.763081132244592 l -3.6211821927302035,-2.442518230034259 l 15.808782356716657,10.663158340511941 l 18.493430172506105,4.649041390599361 l 18.971964065602332,-1.9196679114781756 l 17.187298883375938,-8.259376640544334 l 13.352330485012093,-13.613809753918334 l 7.924539018747221,-17.344227475941903 l 1.551415307619857,-19.00562169307145 l -5.006779473508771,-18.399801757098267 l -10.967706695221464,-15.59903699734248 l -15.620276829328304,-10.937435584816697 l -18.409476573623262,-4.971088178868039 l -19.00257736819812,1.5882691089704557 l -17.32882717255705,7.958158971804569 l -13.587890601391559,13.378706006242915 l -8.22603058032261,17.20328359030515 l -1.8828728539355837,18.975651114330116 l 4.684896098113244,18.484379728482875 l 10.693795526660002,15.788074063382519 l -3.6361818857621317,-2.641840779568727 l 16.284069503983915,11.831069023638612 l 19.232418873968367,5.937943929417435 l 20.119521418006673,-0.5915841132508538 l 18.850301352071266,-7.057708749217439 l 15.560788150638471,-12.767418924106371 l 10.603537500530381,-17.108772788471008 l 4.50984591909727,-19.616482957928053 l -2.0671912907337955,-20.02178398695267 l -8.422675948357229,-18.281237477852663 l -13.875454910025844,-14.5813876188969 l -17.841123093831435,-9.318768191313415 l -19.894657469120123,-3.0574038070007967 l -19.815969172354944,3.531639790941114 l -17.613491672201963,9.742177629562716 l -13.52327690711789,14.908591333392035 l -7.983696267472829,18.477167200667438 l -1.5884578606746445,20.06544082440107 l 4.977024535967779,19.503187960460586 l 11.009091136362608,16.850668420093676 l -3.638820614996816,-2.842958243933965 l 16.69605403625647,13.044387037909482 l 19.89715026901371,7.281323008125958 l 21.171979662027212,0.8133454168328326 l 20.397124461855128,-5.73337311396773 l 17.647599324240183,-11.725036958042148 l 13.189589055852053,-16.58158599513703 l 7.454678945796753,-19.832851922793942 l 0.9980724792238623,-21.164075810263785 l -5.555158574006031,-20.44638028586048 l -11.570588102597625,-17.749246308967688 l -16.465855202045642,-13.333786635522683 l -19.767043228114236,-7.627467180803859 l -21.154560232187364,-1.1827235345311033 l -20.494079038845758,5.3765209872109585 l -17.849541619869594,11.41525810207198 l -13.47696879571692,16.348870470330645 l -7.7996745546539215,19.699729196561588 l -1.3672845208623894,21.143433652446024 l 5.19747395752695,20.54021708836608 l 11.259058785445125,17.94847761907031 l -3.629281594332437,-3.045328847244358 l 17.042172744273902,14.30008086418686 l 20.48566728184687,8.675563416022277 l 22.12894008679241,2.2886623174044987 l 21.827585054325287,-4.299359866788394 l 19.608084401071338,-10.509566627050727 l 15.665481483763923,-15.796222790585256 l 10.346240948011092,-19.69475216431154 l 4.117802408143754,-21.862563159324228 l -2.472496806497637,-22.109154757923573 l -8.845520087498675,-20.41285719711018 l -14.441224412821215,-16.92273624525573 l -18.767875322600236,-11.945493729573867 l -21.44525913425903,-5.9185154584942365 l -22.238095031311865,0.628564989717106 l -21.076710867245396,7.120408947981523 l -18.063165754087187,12.986531773661795 l -13.462281400123938,17.711435404049908 l -7.678370337105331,20.879908848800476 l -1.2197060936378745,22.213515741842805 l 5.346142425887125,21.59506253128444 l 11.442187270072202,19.078897112898144 l -3.6077364758723562,-3.2484205136373414 l 17.319998130430594,15.594996363875705 l 20.996008861703423,10.117008387200597 l 22.98976814435843,3.8284210186522576 l 23.141531121001808,-2.766908781134789 l 21.43913817172765,-9.14054709965363 l 18.018989172526215,-14.781822486682719 l 13.15511480448058,-19.238742196628966 l 7.237220547114811,-22.154206949918905 l 0.7394625247100279,-23.294622598401666 l -5.817543039053653,-22.56861625833924 l -11.908432862949375,-20.03435732875011 l -17.045189995893057,-15.8948968172594 l -20.81624492555436,-10.481898398035925 l -22.919451531685866,-4.229064709142955 l -23.18629577034691,2.362611960819865 l -21.595397430183702,8.764990397018765 l -18.274223167120276,14.465096420891932 l -13.488873564936103,19.006223632709993 l -7.622762507357813,22.024525842429295 l -1.1458971223772527,23.27816931402346 l 5.422780335402338,22.66670907435373 l 11.5569714041326,20.23913680944613 l -3.574350460564065,-3.45171011699508 l 17.52724381006009,16.925862600690955 l 21.426245816025713,11.601943396948593 l 23.753660234578952,5.427036559204388 l 24.33877420998295,-1.1459364337636748 l 23.13867038429946,-7.634856462403299 l 20.24137483042267,-13.563769584045948 l 15.859400452788753,-18.49779764276932 l 10.31415943902033,-22.075036023101436 l 4.012388089133282,-24.033098888344377 l -2.5836867692128798,-24.22836484439989 l -8.99025152433695,-22.64651138440346 l -14.737392887015998,-19.403565426191356 l -19.403565426181746,-14.737392887028655 l -22.6465113843976,-8.99025152435172 l -24.228364844398282,-2.583686769227994 l -24.03309888834688,4.012388089118289 l -22.075036023107874,10.31415943900656 l -18.49779764277921,15.859400452777212 l -13.563769584059148,20.24137483041382 l -7.634856462418391,23.13867038429448 l -1.1459364337795495,24.33877420998221 l 5.427036559188895,23.75366023458249 l 11.601943396934011,21.426245816033607 l -3.529286322591245,-3.6546829730924713 l 17.661769670274282,18.28929788876987 l 21.77450926920702,13.12658642736946 l 24.419701011216446,7.079175635112968 l 25.419065541111106,0.5546459832006129 l 24.70524817107661,-6.007265430751201 l 22.326358419388836,-12.164302071182215 l 18.44272754834092,-17.501494956935808 l 13.316102635279504,-21.65913054018293 l 7.292005469531849,-24.35699450634869 l 0.7764452417623543,-25.4132575231222 l -5.791445467327928,-24.756730085957425 l -11.96900713253489,-22.431660513910057 l -17.33988743699655,-18.594752722805215 l -21.54210238451182,-13.504604770417856 l -24.2924331220471,-7.504279989502761 l -25.40551418718144,-0.9981853710135272 l -24.806326679992576,5.575184462909816 l -22.53525435063507,11.772800707655152 l -18.74536183485664,17.176959417495357 l -13.692078477618333,21.42343371434009 l -7.715983029498459,24.22602177491126 l -1.219849484583342,25.39583612297387 l 5.358498886610349,24.854034176209268 l 11.575697738420622,22.637132040492816 l -3.4727076029108725,-3.856832524140454 l 17.721586777115295,19.681816057322077 l 22.03901360889352,14.687082772289909 l 24.986912044273488,8.779678109408634 l 26.382096452148183,2.326694651783756 l 26.13786854834253,-4.270872154801062 l 24.269404921763325,-10.603042297217284 l 20.892813944574826,-16.276327801149392 l 16.21792067103563,-20.938184503941216 l 10.535228079265973,-24.29891953422898 l 4.197864898643843,-26.149693143626422 l -2.400358195446835,-26.375496236974197 l -8.849420407452335,-24.962297163227085 l -14.748569962078827,-21.997913657589326 l -19.731227257670866,-17.666555751454077 l -23.48776452336036,-12.237378759696185 l -25.78474642720521,-6.0477576751897795 l -26.479436002880025,0.517677682028028 l -25.5286644807905,7.050943982213606 l -22.991513842603478,13.146056915990494 l -19.02564540232313,18.424259503115714 l -13.87750255989967,22.557558465247673 l -7.8669965389720975,25.28910608678942 l -1.367626753736355,26.449161012696667 l 5.216728852922118,25.965636161823163 l 11.476911226279299,23.86857829694079 l -3.4047811581355822,-4.057660177211551 l 17.704862022305033,21.099832921500063 l 22.21807524610023,16.27950309139394 l 25.45429295959352,10.523500295589134 l 27.227511854906194,4.162653809172656 l 27.43581524740086,-2.437443384893957 l 26.067230790506354,-8.897447243932067 l 23.200418592605484,-14.846065663062477 l 19.00015018611324,-19.941398683372686 l 13.707838197358344,-23.890589371112647 l 7.627661029461825,-26.466655923325604 l 1.1090800493156336,-27.521537565846263 l -5.4732458874865015,-26.994604423832346 l -11.740994150584003,-24.916142255574577 l -17.33392262615792,-21.405611762676795 l -21.9305748210754,-16.664782523672205 l -25.266755743183182,-10.966136181827963 l -27.150716646835562,-4.637205420004933 l -27.4741758924715,1.9582511518226304 l -26.218542490553475,8.441156213168837 l -23.45598462842746,14.438901400558553 l -19.34528176596155,19.606763168346593 l -14.122698702938042,23.647715955036947 l -8.088406135952347,26.32950388298202 l -1.5892281904322156,27.497989786579172 l 5.001291477607264,27.086014326587254 l 11.304359298810862,25.117256008319565 l -3.3256792024536326,-4.256675266546869 l 17.60992250115541,22.539672948963727 l 22.310128144593335,17.899843834926916 l 25.820856184157517,12.305674018923192 l 27.954930089561415,6.055419954939592 l 28.59857045536917,-0.5176823854764506 l 27.717461216916373,-7.063184185031812 l 25.358579231481357,-13.232108165505188 l 21.647689679508606,-18.69555451658611 l 16.782640820045906,-23.162236382704407 l 11.022815594444777,-26.39400999306115 l 4.675302472285441,-28.218571436831954 l -1.9214771509921351,-28.53864314751425 l -8.415812089835473,-27.33716031360108 l -14.46145305729616,-24.678180699041945 l -19.736073149410085,-20.70346936588361 l -23.958452893665406,-15.624940386605081 l -26.903473630577718,-9.71335852070519 l -28.414119847425024,-3.2839032323005624 l -28.409850552660306,3.3206352883828885 l -26.890893366244676,9.74813218561406 l -23.93823238395666,15.655901681942034 l -19.709290462693314,20.728967571978426 l -14.429536128265356,24.696856364040176 l -8.380462588335437,27.348017733438322 l -1.884579756485673,28.54110345246643 l 4.71178055350958,28.212503454293376 l 11.05692951202975,26.379737241090034 l -3.235580945805786,-4.453395116037198 l 17.435259613760746,23.997576111150515 l 22.313736815471355,19.544029429459446 l 26.08565631924965,14.121277258225948 l 28.563965342435978,7.99823861395839 l 29.625762375967145,1.4785603310072222 l 29.21839197755613,-5.114441050161989 l 27.362056001065383,-11.453812832601225 l 24.148811768928585,-17.225180032689202 l 19.738006869128327,-22.14233551014756 l 14.348376969127562,-25.961433230110934 l 8.247198523076436,-28.493080800971043 l 1.7370342990021066,-29.61173160849917 l -4.859270973119333,-29.261910782098603 l -11.214600753501857,-27.460966242090866 l -17.013788687468157,-24.2982084011945 l -21.96924798024766,-19.930481183154676 l -25.835233077317536,-14.574383995571697 l -28.420026401087394,-8.495530376097424 l -29.595445793022645,-1.9953759851107593 l -29.30320117884303,4.603730843777805 l -27.55778522421785,10.974534639135229 l -24.445754630816786,16.80110167636629 l -20.121437713875533,21.794487407056078 l -14.799281126247527,25.70706547150009 l -8.743215261587673,28.34480770616091 l -2.2535657156118907,29.57690616976558 l 4.3478401225092815,29.34226002336557 l 10.73363277146696,27.652505574305362 l -3.1346739066057663,-4.647345182961056 l 17.17953288190735,25.46970490806277 l 22.227607288934948,21.20791579465597 l 26.24781502147626,15.965413390911534 l 29.054250439796796,9.984625657775055 l 30.517136127772623,3.542120932905488 l 30.568824163262747,-3.064181362102431 l 29.206924347067627,-9.528787348293616 l 26.494414732419358,-15.552755579989432 l 22.556729343811785,-20.85752093261212 l 17.575957757191386,-25.197776232472503 l 11.782424769131989,-28.372815945973308 l 5.444039534610336,-30.235817364343433 l -1.1460933009678336,-30.70063009597375 l -7.6832275796332725,-29.745759901268197 l -13.865067944791589,-27.41536264634566 l -19.40574882324893,-23.817202412401528 l -24.049053648153475,-19.11766818345188 l -27.580263029019783,-13.534079554754245 l -29.83608397636739,-7.324637267434155 l -30.71220102586132,-0.7764832846978167 l -30.16810007688725,5.807577454950376 l -28.228941877776418,12.12307958422501 l -24.98439852249405,17.87797663645216 l -20.58450676243013,22.8061460902933 l -15.232729887751553,26.679695618787196 l -9.176549016296823,29.319501467382324 l -2.6960188751245124,30.60349163689177 l 3.9091827126648377,30.47229083385978 l 10.333612767890383,28.93196615004976 l -3.0231549590877296,-4.83805926768478 l 16.84157347468282,26.952151555000356 l 22.05059644364561,22.88729488223393 l 26.306542128808328,17.833196902745186 l 29.42545880968115,12.008307307302134 l 31.272539763633784,5.664391165764558 l 31.76794992121397,-0.9243529358904626 l 30.890276520704884,-7.473144386483944 l 28.677454616732735,-13.69892941992484 l 25.225127440316207,-19.33261534729986 l 20.682512479359534,-24.13070135922255 l 15.245951957048334,-27.885803188544205 l 9.150426471258793,-30.43561673337562 l 2.659398594903433,-31.669933212122082 l -3.9465745799091367,-31.535402639447348 l -10.381967761995933,-30.03783973483654 l -16.368628518164947,-27.241972597100325 l -21.647799658463132,-23.268645007689884 l -25.99130331459682,-18.28959328567687 l -29.211403310025176,-12.520023450692818 l -31.168919547509837,-6.2093095258415785 l -31.77924369169818,0.3697849787500841 l -31.015996135169452,6.932896529590014 l -28.912166185487223,13.196352413057824 l -25.55868619176715,18.889431719816745 l -21.100501240273836,23.766066522587415 l -15.730304295803064,27.615477495569174 l -9.680207570392819,30.27128427967597 l -3.211710101882631,31.618696822739434 l 3.395604833450331,31.599476868484654 l 9.85615395046283,30.2144551473566 l -2.9012311618523654,-5.025079776851809 l 16.420387436129108,28.44094531946255 l 21.7817199787013,24.577900011731877 l 26.261153639647404,19.719744007772494 l 29.677324984869024,14.063174462393398 l 31.891919974348436,7.837214719975487 l 32.81527402482955,1.2939416109671642 l 32.410002351949785,-5.301720641815706 l 30.692513606422306,-11.6827266824499 l 27.73234552013272,-17.59072216167432 l 23.64934946052411,-22.786503994936414 l 18.608837885115843,-27.059705223500174 l 12.814891166142594,-30.23731235770081 l 6.502094778794581,-32.19067035190193 l -7.395860199806745e-2,-32.8406915935465 l -6.64701754486513,-32.16105800460396 l -12.950951857322034,-30.17928660864223 l -18.730527672372215,-26.975615420815593 l -23.751741364381445,-22.679754768885328 l -27.81129389435193,-17.465635577877727 l -30.744821987042936,-11.544367249974618 l -32.43355287580837,-5.155690261195711 l -32.80911317766399,1.4417304576378 l -31.856297196709146,7.980778353781447 l -29.613682572763878,14.196700274952143 l -26.172068348819728,19.837825802288766 l -21.670798696872875,24.675756889239654 l -16.29212114722997,28.51461524799567 l -10.25380774545471,31.19897307503082 l -3.8003378917570223,32.620146016315154 l 2.807000147733119,32.72059358245005 l 9.300688287516031,31.49624884959648 l -2.7691204041085573,-5.207958029757811 l 15.915158608909518,29.932059996077417 l 21.4201592438214,26.275411835494744 l 26.111087042223062,21.62016703517749 l 29.80966336223814,16.143248105185084 l 32.37532386531028,10.052805268769285 l 33.71056066181682,3.5803057162053387 l 33.76462809697597,-3.0282633023608994 l 32.535471338711226,-9.5217432187297 l 30.06980447151295,-15.653349424340607 l 26.461335128345674,-21.190050315676547 l 21.84720313344032,-25.92142365692363 l 16.40276850528868,-29.667653673949925 l 10.334946901728987,-32.28636495014524 l 3.8743457934195127,-33.67803340203429 l -2.7334997696951038,-33.78976869060517 l -9.23745871433084,-32.61732431786148 l -15.390348176609482,-30.20525901491755 l -20.958327683158036,-26.64524328807857 l -25.729786254854474,-22.07257548259891 l -29.523384678971908,-16.66103977106385 l -32.194947303286924,-10.616301488470585 l -33.64294142961838,-4.1680908242013786 l -33.81233606252609,2.438528070439632 l -32.69669336148183,8.952470741686609 l -30.338413310903753,15.12617489427855 l -26.827122309373227,20.725008992843744 l -22.296266919677056,25.536189429945093 l -16.918042234154626,29.37686736394616 l -10.896847602750238,32.10107788654395 l -4.461518438730517,33.60528741695855 l 2.143370667830451,33.83232849414608 l 8.666801003734498,32.77357242531231 l -2.6270518984113367,-5.386254599363415 " /></g></svg>