<?xml version="1.0" encoding="UTF-8"?>
<!DOCTYPE svg PUBLIC "-//W3C//DTD SVG 1.1//EN"
    "http://www.w3.org/Graphics/SVG/1.1/DTD/svg11.dtd">
<svg xmlns="http://www.w3.org/2000/svg" xmlns:xlink="http://www.w3.org/1999/xlink" version="1.1" width="400.0" height="400.0" viewBox="0 0 400 400"><g><g stroke="rgb(0,0,255)" stroke-opacity="1.0" fill="rgb(0,0,0)" fill-opacity="0.0" stroke-width="1.0"><path d="M 200.0,199.99999999999997 h 181.8181818181818 h -181.8181818181818 l 181.70742309438106,6.345363036818358 l -181.70742309438106,-6.345363036818358 l 181.37528186542258,12.6829952262046 l -181.37528186542258,-12.6829952262046 l 180.8221627942315,19.005175139573357 l -180.8221627942315,-19.005175139573357 l 180.04873977119462,25.30420017455735 l -180.04873977119462,-25.30420017455735 l 179.05595509312872,31.57239593944188 l -179.05595509312872,-31.57239593944188 l 177.8450183152374,37.802125603228966 l -177.8450183152374,-37.802125603228966 l 176.4174047774539,43.985799199939585 l -176.4174047774539,-43.985799199939585 l 174.7748538069671,50.11588287581803 l -174.7748538069671,-50.11588287581803 l 172.91936659911883,56.184908068172255 l -172.91936659911883,-56.184908068172255 l 170.85320377925606,62.185480604667035 l -170.85320377925606,-62.185480604667035 l 168.5788826485068,68.11028971198401 l -168.5788826485068,-68.11028971198401 l 166.09917411683654,73.95211692287276 l -166.09917411683654,-73.95211692287276 l 163.4170993271213,79.70384487074135 l -163.4170993271213,-79.70384487074135 l 160.53592597435036,85.35846596107106 l -160.53592597435036,-85.35846596107106 l 157.4591643244434,90.9090909090909 l -157.4591643244434,-90.9090909090909 l 154.19056293753198,96.34895713330998 l -154.19056293753198,-96.34895713330998 l 150.73410410091668,101.67143699468124 l -150.73410410091668,-101.67143699468124 l 147.09399897726317,106.87004587135876 l -147.09399897726317,-106.87004587135876 l 143.27468247394944,111.93845005921061 l -143.27468247394944,-111.93845005921061 l 139.2808078398142,116.87047448846168 l -139.2808078398142,-116.87047448846168 l 135.11724099588986,121.66011024706513 l -135.11724099588986,-121.66011024706513 l 130.7890546070275,126.30152190163588 l -130.7890546070275,-126.30152190163588 l 126.3015219016359,130.78905460702748 l -126.3015219016359,-130.78905460702748 l 121.66011024706516,135.11724099588983 l -121.66011024706516,-135.11724099588983 l 116.8704744884617,139.2808078398142 l -116.8704744884617,-139.2808078398142 l 111.93845005921062,143.27468247394944 l -111.93845005921062,-143.27468247394944 l 106.87004587135878,147.09399897726317 l -106.87004587135878,-147.09399897726317 l 101.67143699468127,150.73410410091665 l -101.67143699468127,-150.73410410091665 l 96.34895713330998,154.19056293753198 l -96.34895713330998,-154.19056293753198 l 90.90909090909093,157.45916432444338 l -90.90909090909093,-157.45916432444338 l 85.35846596107106,160.53592597435036 l -85.35846596107106,-160.53592597435036 l 79.70384487074135,163.4170993271213 l -79.70384487074135,-163.4170993271213 l 73.9521169228728,166.09917411683654 l -73.9521169228728,-166.09917411683654 l 68.11028971198404,168.57888264850678 l -68.11028971198404,-168.57888264850678 l 62.185480604667056,170.85320377925606 l -62.185480604667056,-170.85320377925606 l 56.18490806817226,172.91936659911883 l -56.18490806817226,-172.91936659911883 l 50.11588287581803,174.7748538069671 l -50.11588287581803,-174.7748538069671 l 43.98579919993958,176.4174047774539 l -43.98579919993958,-176.4174047774539 l 37.80212560322895,177.8450183152374 l -37.80212560322895,-177.8450183152374 l 31.572395939441897,179.05595509312872 l -31.572395939441897,-179.05595509312872 l 25.304200174557355,180.04873977119462 l -25.304200174557355,-180.04873977119462 l 19.005175139573357,180.8221627942315 l -19.005175139573357,-180.8221627942315 l 12.682995226204588,181.37528186542258 l -12.682995226204588,-181.37528186542258 l 6.345363036818378,181.70742309438106 l -6.345363036818378,-181.70742309438106 l 1.1133152719521393e-14,181.8181818181818 l -1.1133152719521393e-14,-181.8181818181818 l -6.345363036818315,181.70742309438106 l 6.345363036818315,-181.70742309438106 l -12.682995226204609,181.37528186542258 l 12.682995226204609,-181.37528186542258 l -19.005175139573335,180.82216279423153 l 19.005175139573335,-180.82216279423153 l -25.304200174557298,180.04873977119462 l 25.304200174557298,-180.04873977119462 l -31.572395939441876,179.05595509312872 l 31.572395939441876,-179.05595509312872 l -37.80212560322893,177.8450183152374 l 37.80212560322893,-177.8450183152374 l -43.98579919993956,176.4174047774539 l 43.98579919993956,-176.4174047774539 l -50.11588287581801,174.7748538069671 l 50.11588287581801,-174.7748538069671 l -56.18490806817224,172.91936659911886 l 56.18490806817224,-172.91936659911886 l -62.185480604667035,170.85320377925606 l 62.185480604667035,-170.85320377925606 l -68.11028971198401,168.5788826485068 l 68.11028971198401,-168.5788826485068 l -73.95211692287275,166.09917411683654 l 73.95211692287275,-166.09917411683654 l -79.70384487074136,163.41709932712126 l 79.70384487074136,-163.41709932712126 l -85.358465961071,160.5359259743504 l 85.358465961071,-160.5359259743504 l -90.90909090909086,157.45916432444344 l 90.90909090909086,-157.45916432444344 l -96.34895713330997,154.190562937532 l 96.34895713330997,-154.190562937532 l -101.67143699468123,150.7341041009167 l 101.67143699468123,-150.7341041009167 l -106.87004587135874,147.09399897726317 l 106.87004587135874,-147.09399897726317 l -111.93845005921058,143.27468247394947 l 111.93845005921058,-143.27468247394947 l -116.87047448846168,139.2808078398142 l 116.87047448846168,-139.2808078398142 l -121.66011024706508,135.1172409958899 l 121.66011024706508,-135.1172409958899 l -126.3015219016359,130.78905460702748 l 126.3015219016359,-130.78905460702748 l -130.78905460702745,126.30152190163592 l 130.78905460702745,-126.30152190163592 l -135.1172409958899,121.66011024706509 l 135.1172409958899,-121.66011024706509 l -139.28080783981417,116.87047448846172 l 139.28080783981417,-116.87047448846172 l -143.27468247394944,111.93845005921062 l 143.27468247394944,-111.93845005921062 l -147.09399897726317,106.87004587135878 l 147.09399897726317,-106.87004587135878 l -150.73410410091665,101.67143699468127 l 150.73410410091665,-101.67143699468127 l -154.19056293753198,96.34895713330998 l 154.19056293753198,-96.34895713330998 l -157.4591643244434,90.9090909090909 l 157.4591643244434,-90.9090909090909 l -160.53592597435036,85.35846596107103 l 160.53592597435036,-85.35846596107103 l -163.41709932712124,79.70384487074139 l 163.41709932712124,-79.70384487074139 l -166.09917411683654,73.95211692287273 l 166.09917411683654,-73.95211692287273 l -168.57888264850678,68.11028971198405 l 168.57888264850678,-68.11028971198405 l -170.85320377925606,62.18548060466707 l 170.85320377925606,-62.18548060466707 l -172.91936659911883,56.18490806817228 l 172.91936659911883,-56.18490806817228 l -174.7748538069671,50.11588287581804 l 174.7748538069671,-50.11588287581804 l -176.4174047774539,43.985799199939585 l 176.4174047774539,-43.985799199939585 l -177.8450183152374,37.80212560322896 l 177.8450183152374,-37.80212560322896 l -179.05595509312872,31.572395939441943 l 179.05595509312872,-31.572395939441943 l -180.04873977119462,25.30420017455733 l 180.04873977119462,-25.30420017455733 l -180.8221627942315,19.005175139573407 l 180.8221627942315,-19.005175139573407 l -181.37528186542258,12.682995226204643 l 181.37528186542258,-12.682995226204643 l -181.70742309438106,6.345363036818389 l 181.70742309438106,-6.345363036818389 l -181.8181818181818,2.2266305439042785e-14 l 181.8181818181818,-2.2266305439042785e-14 l -181.70742309438106,-6.345363036818344 l 181.70742309438106,6.345363036818344 l -181.3752818654226,-12.682995226204515 l 181.3752818654226,12.682995226204515 l -180.8221627942315,-19.00517513957336 l 180.8221627942315,19.00517513957336 l -180.0487397711946,-25.304200174557366 l 180.0487397711946,25.304200174557366 l -179.05595509312872,-31.572395939441908 l 179.05595509312872,31.572395939441908 l -177.8450183152374,-37.80212560322892 l 177.8450183152374,37.80212560322892 l -176.4174047774539,-43.98579919993955 l 176.4174047774539,43.98579919993955 l -174.7748538069671,-50.115882875817924 l 174.7748538069671,50.115882875817924 l -172.9193665991188,-56.18490806817231 l 172.9193665991188,56.18490806817231 l -170.85320377925606,-62.18548060466703 l 170.85320377925606,62.18548060466703 l -168.5788826485068,-68.11028971198401 l 168.5788826485068,68.11028971198401 l -166.09917411683656,-73.95211692287269 l 166.09917411683656,73.95211692287269 l -163.4170993271213,-79.70384487074128 l 163.4170993271213,79.70384487074128 l -160.5359259743504,-85.35846596107099 l 160.5359259743504,85.35846596107099 l -157.45916432444338,-90.90909090909093 l 157.45916432444338,90.90909090909093 l -154.190562937532,-96.34895713330997 l 154.190562937532,96.34895713330997 l -150.7341041009167,-101.67143699468123 l 150.7341041009167,101.67143699468123 l -147.09399897726317,-106.87004587135874 l 147.09399897726317,106.87004587135874 l -143.2746824739495,-111.93845005921052 l 143.2746824739495,111.93845005921052 l -139.2808078398142,-116.87047448846168 l 139.2808078398142,116.87047448846168 l -135.11724099588986,-121.66011024706513 l 135.11724099588986,121.66011024706513 l -130.78905460702748,-126.3015219016359 l 130.78905460702748,126.3015219016359 l -126.30152190163594,-130.78905460702742 l 126.30152190163594,130.78905460702742 l -121.66011024706518,-135.11724099588983 l 121.66011024706518,135.11724099588983 l -116.87047448846174,-139.28080783981417 l 116.87047448846174,139.28080783981417 l -111.93845005921058,-143.27468247394947 l 111.93845005921058,143.27468247394947 l -106.87004587135878,-147.09399897726317 l 106.87004587135878,147.09399897726317 l -101.67143699468133,-150.73410410091662 l 101.67143699468133,150.73410410091662 l -96.34895713331001,-154.19056293753198 l 96.34895713331001,154.19056293753198 l -90.90909090909099,-157.45916432444335 l 90.90909090909099,157.45916432444335 l -85.35846596107105,-160.53592597435036 l 85.35846596107105,160.53592597435036 l -79.7038448707414,-163.41709932712124 l 79.7038448707414,163.41709932712124 l -73.95211692287275,-166.09917411683654 l 73.95211692287275,166.09917411683654 l -68.11028971198405,-168.57888264850678 l 68.11028971198405,168.57888264850678 l -62.18548060466715,-170.85320377925603 l 62.18548060466715,170.85320377925603 l -56.184908068172284,-172.91936659911883 l 56.184908068172284,172.91936659911883 l -50.11588287581798,-174.7748538069671 l 50.11588287581798,174.7748538069671 l -43.9857991999396,-176.4174047774539 l 43.9857991999396,176.4174047774539 l -37.80212560322906,-177.84501831523738 l 37.80212560322906,177.84501831523738 l -31.57239593944188,-179.05595509312872 l 31.57239593944188,179.05595509312872 l -25.304200174557423,-180.0487397711946 l 25.304200174557423,180.0487397711946 l -19.0051751395735,-180.8221627942315 l 19.0051751395735,180.8221627942315 l -12.682995226204651,-181.37528186542258 l 12.682995226204651,181.37528186542258 l -6.345363036818319,-181.70742309438106 l 6.345363036818319,181.70742309438106 l -3.3399458158564177e-14,-181.8181818181818 l 3.3399458158564177e-14,181.8181818181818 l 6.345363036818253,-181.70742309438106 l -6.345363036818253,181.70742309438106 l 12.682995226204586,-181.3752818654226 l -12.682995226204586,181.3752818654226 l 19.00517513957343,-180.8221627942315 l -19.00517513957343,180.8221627942315 l 25.30420017455735,-180.04873977119462 l -25.30420017455735,180.04873977119462 l 31.57239593944181,-179.05595509312874 l -31.57239593944181,179.05595509312874 l 37.80212560322899,-177.84501831523738 l -37.80212560322899,177.84501831523738 l 43.985799199939535,-176.41740477745392 l -43.985799199939535,176.41740477745392 l 50.11588287581792,-174.7748538069671 l -50.11588287581792,174.7748538069671 l 56.18490806817222,-172.91936659911886 l -56.18490806817222,172.91936659911886 l 62.1854806046671,-170.85320377925606 l -62.1854806046671,170.85320377925606 l 68.110289711984,-168.5788826485068 l -68.110289711984,168.5788826485068 l 73.95211692287269,-166.09917411683656 l -73.95211692287269,166.09917411683656 l 79.70384487074135,-163.4170993271213 l -79.70384487074135,163.4170993271213 l 85.35846596107099,-160.5359259743504 l -85.35846596107099,160.5359259743504 l 90.9090909090909,-157.45916432444338 l -90.9090909090909,157.45916432444338 l 96.34895713330994,-154.19056293753204 l -96.34895713330994,154.19056293753204 l 101.67143699468129,-150.73410410091665 l -101.67143699468129,150.73410410091665 l 106.87004587135871,-147.0939989772632 l -106.87004587135871,147.0939989772632 l 111.93845005921051,-143.27468247394953 l -111.93845005921051,143.27468247394953 l 116.87047448846168,-139.2808078398142 l -116.87047448846168,139.2808078398142 l 121.66011024706518,-135.11724099588983 l -121.66011024706518,135.11724099588983 l 126.30152190163588,-130.7890546070275 l -126.30152190163588,130.7890546070275 l 130.78905460702742,-126.30152190163594 l -130.78905460702742,126.30152190163594 l 135.11724099588977,-121.66011024706525 l -135.11724099588977,121.66011024706525 l 139.28080783981417,-116.87047448846174 l -139.28080783981417,116.87047448846174 l 143.27468247394947,-111.93845005921058 l -143.27468247394947,111.93845005921058 l 147.09399897726317,-106.87004587135878 l -147.09399897726317,106.87004587135878 l 150.73410410091662,-101.67143699468133 l -150.73410410091662,101.67143699468133 l 154.19056293753198,-96.34895713331001 l -154.19056293753198,96.34895713331001 l 157.45916432444335,-90.90909090909099 l -157.45916432444335,90.90909090909099 l 160.53592597435036,-85.35846596107106 l -160.53592597435036,85.35846596107106 l 163.41709932712124,-79.70384487074142 l -163.41709932712124,79.70384487074142 l 166.09917411683654,-73.95211692287276 l -166.09917411683654,73.95211692287276 l 168.57888264850678,-68.11028971198405 l -168.57888264850678,68.11028971198405 l 170.85320377925603,-62.18548060466716 l -170.85320377925603,62.18548060466716 l 172.91936659911883,-56.1849080681723 l -172.91936659911883,56.1849080681723 l 174.7748538069671,-50.11588287581799 l -174.7748538069671,50.11588287581799 l 176.4174047774539,-43.98579919993961 l -176.4174047774539,43.98579919993961 l 177.84501831523738,-37.80212560322907 l -177.84501831523738,37.80212560322907 l 179.05595509312872,-31.57239593944189 l -179.05595509312872,31.57239593944189 l 180.0487397711946,-25.304200174557433 l -180.0487397711946,25.304200174557433 l 180.8221627942315,-19.00517513957351 l -180.8221627942315,19.00517513957351 l 181.37528186542258,-12.682995226204662 l -181.37528186542258,12.682995226204662 l 181.70742309438106,-6.345363036818331 l -181.70742309438106,6.345363036818331 " /></g></g></svg>