<?xml version="1.0" encoding="UTF-8"?>
<!DOCTYPE svg PUBLIC "-//W3C//DTD SVG 1.1//EN"
    "http://www.w3.org/Graphics/SVG/1.1/DTD/svg11.dtd">
<svg xmlns="http://www.w3.org/2000/svg" xmlns:xlink="http://www.w3.org/1999/xlink" version="1.1" width="400.0" height="400.0" viewBox="0 0 400 400"><g fill="rgb(0,0,0)" fill-opacity="0" fill-rule="nonzero" font-family="Sans" font-size="1" font-style="normal" opacity="1" stroke="rgb(0,0,0)" stroke-opacity="1" stroke-width="0.5" stroke-linecap="butt" stroke-linejoin="miter" text-anchor="middle"><path d="M 143.81509193182785,200.00000000000006 h 112.36981613634455 l 34.724182840918665,106.87004587135878 l -90.90909090909092,66.04932072776012 l -90.90909090909093,-66.04932072776009 l 34.724182840918644,-106.8700458713588 l 112.36981613634455,-2.7522667130430194e-14 l -90.90909090909098,-66.04932072776006 l 34.724182840918616,-106.87004587135881 l 112.36981613634455,-5.504533426086039e-14 l 34.72418284091853,106.87004587135883 l -90.90909090909089,66.04932072776018 l -90.90909090909099,-66.04932072776005 l 34.72418284091874,106.87004587135877 l -90.90909090909088,66.04932072776018 l -90.909090909091,-66.04932072776002 l 34.72418284091856,-106.87004587135883 l 112.36981613634455,-1.1009066852172078e-13 l 34.72418284091877,106.87004587135876 l 34.72418284091854,-106.87004587135883 l 112.36981613634455,-1.3761333565215098e-13 l 34.7241828409188,106.87004587135876 l -90.90909090909086,66.04932072776022 l -90.90909090909103,-66.04932072775998 l 34.724182840918516,-106.87004587135883 l -90.90909090909085,66.04932072776025 l -90.90909090909105,-66.04932072775995 l 34.72418284091849,-106.87004587135884 l 112.36981613634455,-1.9265866991301134e-13 l 34.72418284091885,106.87004587135871 l -90.9090909090908,66.04932072776027 " /></g></svg>