<?xml version="1.0" encoding="UTF-8"?>
<!DOCTYPE svg PUBLIC "-//W3C//DTD SVG 1.1//EN"
    "http://www.w3.org/Graphics/SVG/1.1/DTD/svg11.dtd">
<svg xmlns="http://www.w3.org/2000/svg" xmlns:xlink="http://www.w3.org/1999/xlink" version="1.1" width="400.0" height="400.0" viewBox="0 0 400 400"><g fill="rgb(0,0,0)" fill-opacity="0" fill-rule="nonzero" font-family="Sans" font-size="1" font-style="normal" opacity="1" stroke="rgb(0,0,0)" stroke-opacity="1" stroke-width="0.5" stroke-linecap="butt" stroke-linejoin="miter" text-anchor="middle"><path d="M 51.78231126804863,153.267142252373 l -33.600493086230415,5.924673496210674 h 34.11883485224135 l -33.600493086230415,5.924673496210674 h 34.11883485224135 l -33.600493086230415,5.924673496210674 h 34.11883485224135 l -33.600493086230415,5.924673496210674 h 34.11883485224135 l -33.600493086230415,5.924673496210674 h 34.11883485224135 l -33.600493086230415,5.924673496210674 h 34.11883485224135 l -33.600493086230415,5.924673496210674 h 34.11883485224135 l -33.600493086230415,5.924673496210674 h 34.11883485224135 l -33.600493086230415,5.924673496210674 h 34.11883485224135 l -33.600493086230415,5.924673496210674 h 34.11883485224135 l -33.600493086230415,5.924673496210674 h 34.11883485224135 l -33.600493086230415,5.924673496210674 h 34.11883485224135 l -33.600493086230415,5.924673496210674 h 34.11883485224135 l -33.600493086230415,5.924673496210674 h 34.11883485224135 l -33.600493086230415,5.924673496210674 h 34.11883485224135 l -33.600493086230415,5.924673496210674 h 34.11883485224135 l -33.600493086230415,5.924673496210674 h 34.11883485224135 l -33.600493086230415,5.924673496210674 h 34.11883485224135 l -33.600493086230415,5.924673496210674 h 34.11883485224135 l -33.600493086230415,5.924673496210674 h 34.11883485224135 l -19.569759706998457,27.948513317972015 l 24.125659490203777,-24.125659490203773 l -19.569759706998457,27.948513317972015 l 24.125659490203777,-24.125659490203773 l -19.569759706998457,27.948513317972015 l 24.125659490203777,-24.125659490203773 l -19.569759706998457,27.948513317972015 l 24.125659490203777,-24.125659490203773 l -19.569759706998457,27.948513317972015 l 24.125659490203777,-24.125659490203773 l -19.569759706998457,27.948513317972015 l 24.125659490203777,-24.125659490203773 l -19.569759706998457,27.948513317972015 l 24.125659490203777,-24.125659490203773 l -19.569759706998457,27.948513317972015 l 24.125659490203777,-24.125659490203773 l -19.569759706998457,27.948513317972015 l 24.125659490203777,-24.125659490203773 l -19.569759706998457,27.948513317972015 l 24.125659490203777,-24.125659490203773 l -19.569759706998457,27.948513317972015 l 24.125659490203777,-24.125659490203773 l -19.569759706998457,27.948513317972015 l 24.125659490203777,-24.125659490203773 l -19.569759706998457,27.948513317972015 l 24.125659490203777,-24.125659490203773 l -19.569759706998457,27.948513317972015 l 24.125659490203777,-24.125659490203773 l -19.569759706998457,27.948513317972015 l 24.125659490203777,-24.125659490203773 l -19.569759706998457,27.948513317972015 l 24.125659490203777,-24.125659490203773 l -19.569759706998457,27.948513317972015 l 24.125659490203777,-24.125659490203773 l -19.569759706998457,27.948513317972015 l 24.125659490203777,-24.125659490203773 l -19.569759706998457,27.948513317972015 l 24.125659490203777,-24.125659490203773 l -19.569759706998457,27.948513317972015 l 24.125659490203777,-24.125659490203773 l 5.924673496210664,33.600493086230415 l 2.0891760946217267e-15,-34.11883485224135 l 5.924673496210664,33.600493086230415 l 2.0891760946217267e-15,-34.11883485224135 l 5.924673496210664,33.600493086230415 l 2.0891760946217267e-15,-34.11883485224135 l 5.924673496210664,33.600493086230415 l 2.0891760946217267e-15,-34.11883485224135 l 5.924673496210664,33.600493086230415 l 2.0891760946217267e-15,-34.11883485224135 l 5.924673496210664,33.600493086230415 l 2.0891760946217267e-15,-34.11883485224135 l 5.924673496210664,33.600493086230415 l 2.0891760946217267e-15,-34.11883485224135 l 5.924673496210664,33.600493086230415 l 2.0891760946217267e-15,-34.11883485224135 l 5.924673496210664,33.600493086230415 l 2.0891760946217267e-15,-34.11883485224135 l 5.924673496210664,33.600493086230415 l 2.0891760946217267e-15,-34.11883485224135 l 5.924673496210664,33.600493086230415 l 2.0891760946217267e-15,-34.11883485224135 l 5.924673496210664,33.600493086230415 l 2.0891760946217267e-15,-34.11883485224135 l 5.924673496210664,33.600493086230415 l 2.0891760946217267e-15,-34.11883485224135 l 5.924673496210664,33.600493086230415 l 2.0891760946217267e-15,-34.11883485224135 l 5.924673496210664,33.600493086230415 l 2.0891760946217267e-15,-34.11883485224135 l 5.924673496210664,33.600493086230415 l 2.0891760946217267e-15,-34.11883485224135 l 5.924673496210664,33.600493086230415 l 2.0891760946217267e-15,-34.11883485224135 l 5.924673496210664,33.600493086230415 l 2.0891760946217267e-15,-34.11883485224135 l 5.924673496210664,33.600493086230415 l 2.0891760946217267e-15,-34.11883485224135 l 5.924673496210664,33.600493086230415 l 2.0891760946217267e-15,-34.11883485224135 l 27.948513317972,19.569759706998465 l -24.125659490203773,-24.125659490203777 l 27.948513317972,19.569759706998465 l -24.125659490203773,-24.125659490203777 l 27.948513317972,19.569759706998465 l -24.125659490203773,-24.125659490203777 l 27.948513317972,19.569759706998465 l -24.125659490203773,-24.125659490203777 l 27.948513317972,19.569759706998465 l -24.125659490203773,-24.125659490203777 l 27.948513317972,19.569759706998465 l -24.125659490203773,-24.125659490203777 l 27.948513317972,19.569759706998465 l -24.125659490203773,-24.125659490203777 l 27.948513317972,19.569759706998465 l -24.125659490203773,-24.125659490203777 l 27.948513317972,19.569759706998465 l -24.125659490203773,-24.125659490203777 l 27.948513317972,19.569759706998465 l -24.125659490203773,-24.125659490203777 l 27.948513317972,19.569759706998465 l -24.125659490203773,-24.125659490203777 l 27.948513317972,19.569759706998465 l -24.125659490203773,-24.125659490203777 l 27.948513317972,19.569759706998465 l -24.125659490203773,-24.125659490203777 l 27.948513317972,19.569759706998465 l -24.125659490203773,-24.125659490203777 l 27.948513317972,19.569759706998465 l -24.125659490203773,-24.125659490203777 l 27.948513317972,19.569759706998465 l -24.125659490203773,-24.125659490203777 l 27.948513317972,19.569759706998465 l -24.125659490203773,-24.125659490203777 l 27.948513317972,19.569759706998465 l -24.125659490203773,-24.125659490203777 l 27.948513317972,19.569759706998465 l -24.125659490203773,-24.125659490203777 l 27.948513317972,19.569759706998465 l -24.125659490203773,-24.125659490203777 l 33.600493086230415,-5.92467349621066 l -34.11883485224135,-4.178352189243453e-15 l 33.600493086230415,-5.92467349621066 l -34.11883485224135,-4.178352189243453e-15 l 33.600493086230415,-5.92467349621066 l -34.11883485224135,-4.178352189243453e-15 l 33.600493086230415,-5.92467349621066 l -34.11883485224135,-4.178352189243453e-15 l 33.600493086230415,-5.92467349621066 l -34.11883485224135,-4.178352189243453e-15 l 33.600493086230415,-5.92467349621066 l -34.11883485224135,-4.178352189243453e-15 l 33.600493086230415,-5.92467349621066 l -34.11883485224135,-4.178352189243453e-15 l 33.600493086230415,-5.92467349621066 l -34.11883485224135,-4.178352189243453e-15 l 33.600493086230415,-5.92467349621066 l -34.11883485224135,-4.178352189243453e-15 l 33.600493086230415,-5.92467349621066 l -34.11883485224135,-4.178352189243453e-15 l 33.600493086230415,-5.92467349621066 l -34.11883485224135,-4.178352189243453e-15 l 33.600493086230415,-5.92467349621066 l -34.11883485224135,-4.178352189243453e-15 l 33.600493086230415,-5.92467349621066 l -34.11883485224135,-4.178352189243453e-15 l 33.600493086230415,-5.92467349621066 l -34.11883485224135,-4.178352189243453e-15 l 33.600493086230415,-5.92467349621066 l -34.11883485224135,-4.178352189243453e-15 l 33.600493086230415,-5.92467349621066 l -34.11883485224135,-4.178352189243453e-15 l 33.600493086230415,-5.92467349621066 l -34.11883485224135,-4.178352189243453e-15 l 33.600493086230415,-5.92467349621066 l -34.11883485224135,-4.178352189243453e-15 l 33.600493086230415,-5.92467349621066 l -34.11883485224135,-4.178352189243453e-15 l 33.600493086230415,-5.92467349621066 l -34.11883485224135,-4.178352189243453e-15 l 19.569759706998465,-27.948513317972 l -24.125659490203784,24.125659490203773 l 19.569759706998465,-27.948513317972 l -24.125659490203784,24.125659490203773 l 19.569759706998465,-27.948513317972 l -24.125659490203784,24.125659490203773 l 19.569759706998465,-27.948513317972 l -24.125659490203784,24.125659490203773 l 19.569759706998465,-27.948513317972 l -24.125659490203784,24.125659490203773 l 19.569759706998465,-27.948513317972 l -24.125659490203784,24.125659490203773 l 19.569759706998465,-27.948513317972 l -24.125659490203784,24.125659490203773 l 19.569759706998465,-27.948513317972 l -24.125659490203784,24.125659490203773 l 19.569759706998465,-27.948513317972 l -24.125659490203784,24.125659490203773 l 19.569759706998465,-27.948513317972 l -24.125659490203784,24.125659490203773 l 19.569759706998465,-27.948513317972 l -24.125659490203784,24.125659490203773 l 19.569759706998465,-27.948513317972 l -24.125659490203784,24.125659490203773 l 19.569759706998465,-27.948513317972 l -24.125659490203784,24.125659490203773 l 19.569759706998465,-27.948513317972 l -24.125659490203784,24.125659490203773 l 19.569759706998465,-27.948513317972 l -24.125659490203784,24.125659490203773 l 19.569759706998465,-27.948513317972 l -24.125659490203784,24.125659490203773 l 19.569759706998465,-27.948513317972 l -24.125659490203784,24.125659490203773 l 19.569759706998465,-27.948513317972 l -24.125659490203784,24.125659490203773 l 19.569759706998465,-27.948513317972 l -24.125659490203784,24.125659490203773 l 19.569759706998465,-27.948513317972 l -24.125659490203784,24.125659490203773 l -5.9246734962106595,-33.600493086230415 l -6.2675282838651784e-15,34.11883485224135 l -5.9246734962106595,-33.600493086230415 l -6.2675282838651784e-15,34.11883485224135 l -5.9246734962106595,-33.600493086230415 l -6.2675282838651784e-15,34.11883485224135 l -5.9246734962106595,-33.600493086230415 l -6.2675282838651784e-15,34.11883485224135 l -5.9246734962106595,-33.600493086230415 l -6.2675282838651784e-15,34.11883485224135 l -5.9246734962106595,-33.600493086230415 l -6.2675282838651784e-15,34.11883485224135 l -5.9246734962106595,-33.600493086230415 l -6.2675282838651784e-15,34.11883485224135 l -5.9246734962106595,-33.600493086230415 l -6.2675282838651784e-15,34.11883485224135 l -5.9246734962106595,-33.600493086230415 l -6.2675282838651784e-15,34.11883485224135 l -5.9246734962106595,-33.600493086230415 l -6.2675282838651784e-15,34.11883485224135 l -5.9246734962106595,-33.600493086230415 l -6.2675282838651784e-15,34.11883485224135 l -5.9246734962106595,-33.600493086230415 l -6.2675282838651784e-15,34.11883485224135 l -5.9246734962106595,-33.600493086230415 l -6.2675282838651784e-15,34.11883485224135 l -5.9246734962106595,-33.600493086230415 l -6.2675282838651784e-15,34.11883485224135 l -5.9246734962106595,-33.600493086230415 l -6.2675282838651784e-15,34.11883485224135 l -5.9246734962106595,-33.600493086230415 l -6.2675282838651784e-15,34.11883485224135 l -5.9246734962106595,-33.600493086230415 l -6.2675282838651784e-15,34.11883485224135 l -5.9246734962106595,-33.600493086230415 l -6.2675282838651784e-15,34.11883485224135 l -5.9246734962106595,-33.600493086230415 l -6.2675282838651784e-15,34.11883485224135 l -5.9246734962106595,-33.600493086230415 l -6.2675282838651784e-15,34.11883485224135 l -27.948513317972008,-19.56975970699846 l 24.125659490203773,24.125659490203784 l -27.948513317972008,-19.56975970699846 l 24.125659490203773,24.125659490203784 l -27.948513317972008,-19.56975970699846 l 24.125659490203773,24.125659490203784 l -27.948513317972008,-19.56975970699846 l 24.125659490203773,24.125659490203784 l -27.948513317972008,-19.56975970699846 l 24.125659490203773,24.125659490203784 l -27.948513317972008,-19.56975970699846 l 24.125659490203773,24.125659490203784 l -27.948513317972008,-19.56975970699846 l 24.125659490203773,24.125659490203784 l -27.948513317972008,-19.56975970699846 l 24.125659490203773,24.125659490203784 l -27.948513317972008,-19.56975970699846 l 24.125659490203773,24.125659490203784 l -27.948513317972008,-19.56975970699846 l 24.125659490203773,24.125659490203784 l -27.948513317972008,-19.56975970699846 l 24.125659490203773,24.125659490203784 l -27.948513317972008,-19.56975970699846 l 24.125659490203773,24.125659490203784 l -27.948513317972008,-19.56975970699846 l 24.125659490203773,24.125659490203784 l -27.948513317972008,-19.56975970699846 l 24.125659490203773,24.125659490203784 l -27.948513317972008,-19.56975970699846 l 24.125659490203773,24.125659490203784 l -27.948513317972008,-19.56975970699846 l 24.125659490203773,24.125659490203784 l -27.948513317972008,-19.56975970699846 l 24.125659490203773,24.125659490203784 l -27.948513317972008,-19.56975970699846 l 24.125659490203773,24.125659490203784 l -27.948513317972008,-19.56975970699846 l 24.125659490203773,24.125659490203784 l -27.948513317972008,-19.56975970699846 l 24.125659490203773,24.125659490203784 " /></g></svg>