<?xml version="1.0" encoding="UTF-8"?>
<!DOCTYPE svg PUBLIC "-//W3C//DTD SVG 1.1//EN"
    "http://www.w3.org/Graphics/SVG/1.1/DTD/svg11.dtd">
<svg xmlns="http://www.w3.org/2000/svg" xmlns:xlink="http://www.w3.org/1999/xlink" version="1.1" width="400.0" height="400.0" viewBox="0 0 400 400"><g fill="rgb(0,0,0)" fill-opacity="0" fill-rule="nonzero" font-family="Sans" font-size="1" font-style="normal" opacity="1" stroke="rgb(0,0,0)" stroke-opacity="1" stroke-width="0.5" stroke-linecap="butt" stroke-linejoin="miter" text-anchor="middle"><path d="M 280.6918614807862,379.4613381894359 h 6.9957735382423785 h 6.9957735382423785 l 6.993144911399874,-0.1917593453637556 l 6.9721325463703385,-0.5746435018476589 l 6.9013980413541045,-1.1452303144634333 l 6.73477377614979,-1.8930582617704539 l 6.4134001498670195,-2.7944849106871157 l 5.870367965008872,-3.805210553145499 l 5.039134955947262,-4.852624680945628 l 3.8667847716899915,-5.829993390030444 l 2.3324182396195643,-6.595503965116104 l 0.4693842453041572,-6.980009013506538 l -1.6124218793390837,-6.807418239053694 l -3.7110968199766887,-5.930312621703108 l -5.533972211316038,-4.279719495802751 l -6.726659116523208,-1.9216931410783284 l -6.938291032208982,0.8949664522990244 l -5.922550410607511,3.723472039935991 l -3.6583228319634196,5.963012783443235 l -0.45360850864616736,6.9810519779798295 l 3.020951165909947,6.309889179023639 l 5.824579927594248,3.8749343304678687 l 6.993739683729882,0.16867908760166722 l 5.911108403211221,-3.7416099267371488 l 2.6773053967985088,-6.46319450509157 l -1.7048755692638013,-6.784854213002643 l -5.523305666152778,-4.29347667009114 l -6.993066019420147,0.19461512377910362 l -5.161679150201225,4.722066893718284 l -0.6455107036217241,6.965928748550481 l 4.339528180247931,5.487198061962623 l 6.948544762730882,0.8115251559240274 l 5.383169510601147,-4.467922718502021 l 0.3192121490312972,-6.988487032418612 l -5.066330921477046,-4.824224123365107 l -6.947574344367072,0.819791514877245 l -3.670731249384034,5.955382396888366 l 2.535779430620373,6.5200207114406386 l 6.770351164211143,1.7615880652516627 l 5.293767905630749,-4.5734963386545 l -0.9087581521845118,-6.936498109219843 l -6.356470220106088,-2.921666260762296 l -5.775060198793844,3.948357519105823 l 0.5588414797794802,6.973416924209405 l 6.38905252347373,2.8497114328763615 l 5.476398557281855,-4.353149002753467 l -1.4688962300052537,-6.83982392052958 l -6.812637852416498,-1.5902241635046972 l -4.241012832000871,5.563691001230768 l 3.4518942264180517,6.084839656720135 l 6.936085335237792,-0.9119032956797091 l 1.640983198905597,-6.800589793487168 l -5.8253730930793015,-3.873741824747743 l -5.565103487829181,4.2391591817392005 l 2.2978113069083177,6.6076403198279925 l 6.99156846220078,-0.24252388899180263 l 1.72672261936241,-6.7793271343219965 l -6.078185474306557,-3.4635976582595522 l -4.876850360963844,5.015693167961842 l 3.7204840223485944,5.924427908061766 l 6.603687053859578,-2.309148044855437 l -0.8787133388794115,-6.940368165050589 l -6.978144156322517,-0.49633812260813787 l -1.7637949268084185,6.769776573457736 l 6.370301730936706,2.891384314683382 l 3.8633763250203046,-5.832252632529293 l -5.2026768107349595,-4.676858069410809 l -5.338164975689526,4.521597294175359 l 3.821541782513446,5.859749636535355 l 6.257613877712493,-3.12779730095035 l -2.4591063318284303,-6.549323892367334 l -6.752563794138347,1.828586777941977 l 1.2447207280467443,6.884149744706535 l 6.9594153256573055,-0.7123101314585525 l -0.2333392010107351,-6.991881021273457 l -6.993130449796467,-0.19228601223629257 l -0.5661293879761637,6.97282904669561 l 6.938834510150036,0.8907429702912057 l 1.1692991135558617,-6.8973608707541 l -6.853168764453509,-1.4053203493478068 l -1.6024898190483727,6.809763122034319 l 6.769586109937142,1.7645257999016009 l 1.895105448601078,-6.73419800251335 l -6.704442039848352,-1.9978249004070265 l -2.0761849786727917,6.680591540627652 l 6.662478883785581,2.133593804238174 l 2.173379448410727,-6.6496066930005835 l -6.641241856654032,-2.1988074039803442 l -2.2130990440192098,6.636493051283451 l 6.634372328315267,2.2194484016658165 l 2.221035544633487,-6.633841157869768 l -6.633841157869757,-2.221035544633523 l -2.2226225604786154,6.633309607731556 l 6.631179773296138,2.2289688675709347 l 2.2432387768733326,-6.626366062051214 l -6.617734088091592,-2.2685772937422306 l -2.308093072622839,6.604055857310926 l 6.583950492602682,2.364834731927196 l 2.4417589137249127,-6.555811224068095 l -6.517719803013602,-2.541687621989885 l -2.66725137906723,6.467350112622343 l 6.4018636165947695,2.8208136473174577 l 3.0043708406720344,-6.317800507304097 l -6.210972106603289,-3.21942120409371 l -3.466795023903717,6.076362370745239 l 5.908049394235168,3.746438275702636 l 4.057142240201487,-5.699161713896627 l -5.441889044155196,-4.396213260236124 l -4.7590802537221615,5.12757277247277 l 4.74690785711421,5.138843565865735 l 5.525778102122497,-4.290294134960419 l -3.7483804483354306,-5.906817367492325 l -6.265063924796349,3.112847798493792 l 2.377475496253212,6.579396451277869 l 6.824273906681181,-1.539523642222703 l -0.6014419073499775,-6.969871952228069 l -6.982722268786958,-0.42712658001932174 l -1.527141641227446,6.8270554271956385 l 6.4670621112642905,2.66794959611724 l 3.80536060686051,-5.870270696494881 l -5.012171549211292,-4.880469624907952 l -5.819822057418683,3.8820765858436195 l 2.489963601753988,6.537654675823172 l 6.9410006484765425,-0.8737032655429972 l 0.8943934952830934,-6.938364913577807 l -6.45236559817237,-2.703299018957022 l -4.4033582082977345,5.436109260104073 l 3.892058926264733,5.813151014110618 l 6.735415534123248,-1.890773646173314 l 0.4147083935198996,-6.9834707951502475 l -6.417716963954834,-2.784556763461401 l -4.9043900559935425,4.988767941791233 l 2.779759717053163,6.419796205006884 l 6.995680462330472,-3.608694140542342e-2 l 2.832337583119791,-6.396773500259285 l -4.576538366027645,-5.291138250192419 l -6.773015593155945,1.751315840514982 l -1.5717038004046504,6.816934396205222 l 5.231157486203277,4.644979951830975 l 6.62965463278544,-2.233501029406261 l 1.494636087029462,-6.834245413044627 l -4.990991241075353,-4.902127479970446 l -6.838978489900302,1.472827421340763 l -2.670057545321369,6.466192086772918 l 3.6788185182600572,5.950390046717875 l 6.9650358788541515,0.6550745031266703 l 4.837764811358817,-5.053402717808137 l -0.8011962386645943,-6.949743303570427 l -5.771878432001609,-3.953007306414565 l -6.8085174854473465,1.607773942048451 l -3.5358899829843575,6.036416936113936 l 1.768139565097643,6.768643134093317 l 5.950336770369535,3.678904689926137 l 6.878066113909805,-1.2779099855067937 l 4.366009084078604,-5.466151486751478 l -0.1022911770996041,-6.995025654953658 l -4.390563433090703,-5.44644839674251 l -6.772321902269176,-1.753996422578302 l -6.546501936767051,2.466608965822825 l -4.076357067526562,5.685434060509235 l -0.4132787088861833,6.98355554908484 l 3.218918516138764,6.211232646168658 l 5.8468642093673555,3.841227188749883 l 6.963656765766464,0.6695758709565502 l 6.538909869743776,-2.4866654607605967 l 4.892195597281074,-5.000726910791665 l 2.515920476557208,-6.527709518201039 l -8.488483350691131e-2,-6.995258534422641 l -2.5003141851800916,-6.53370311337755 l -4.464246479013774,-5.3862185968437455 l -5.855530296206219,-3.828003702791233 l -6.67029750553915,-2.1090231354753954 l -6.982970742727061,-0.4230449202982396 l -6.908519087208574,1.1014587691089957 l -6.572750888134151,2.3957865432679966 l -6.092745237289049,3.4379213009991814 l -5.566541135407687,4.237271195732743 l -5.06979489943747,4.820583686236564 l -4.6568230977567975,5.220617399749868 l -4.363776504759871,5.467933980479099 l -4.212256708578803,5.585493784743221 l -4.212256708578803,5.585493784743221 l -4.363776504759871,5.467933980479099 l -4.6568230977567975,5.220617399749868 l -5.06979489943747,4.820583686236564 l -5.566541135407687,4.237271195732743 l -6.092745237289049,3.4379213009991814 l -6.572750888134151,2.3957865432679966 l -6.908519087208574,1.1014587691089957 l -6.982970742727061,-0.4230449202982396 l -6.67029750553915,-2.1090231354753954 l -5.855530296206219,-3.828003702791233 l -4.464246479013774,-5.3862185968437455 l -2.5003141851800916,-6.53370311337755 l -8.488483350691131e-2,-6.995258534422641 l 2.515920476557208,-6.527709518201039 l 4.892195597281074,-5.000726910791665 l 6.538909869743776,-2.4866654607605967 l 6.963656765766464,0.6695758709565502 l 5.8468642093673555,3.841227188749883 l 3.218918516138764,6.211232646168658 l -0.4132787088861833,6.98355554908484 l -4.076357067526562,5.685434060509235 l -6.546501936767051,2.466608965822825 l -6.772321902269176,-1.753996422578302 l -4.390563433090703,-5.44644839674251 l -0.1022911770996041,-6.995025654953658 l 4.366009084078604,-5.466151486751478 l 6.878066113909805,-1.2779099855067937 l 5.950336770369535,3.678904689926137 l 1.768139565097643,6.768643134093317 l -3.5358899829843575,6.036416936113936 l -6.8085174854473465,1.607773942048451 l -5.771878432001609,-3.953007306414565 l -0.8011962386645943,-6.949743303570427 l 4.837764811358817,-5.053402717808137 l 6.9650358788541515,0.6550745031266703 l 3.6788185182600572,5.950390046717875 l -2.670057545321369,6.466192086772918 l -6.838978489900302,1.472827421340763 l -4.990991241075353,-4.902127479970446 l 1.494636087029462,-6.834245413044627 l 6.62965463278544,-2.233501029406261 l 5.231157486203277,4.644979951830975 l -1.5717038004046504,6.816934396205222 l -6.773015593155945,1.751315840514982 l -4.576538366027645,-5.291138250192419 l 2.832337583119791,-6.396773500259285 l 6.995680462330472,-3.608694140542342e-2 l 2.779759717053163,6.419796205006884 l -4.9043900559935425,4.988767941791233 l -6.417716963954834,-2.784556763461401 l 0.4147083935198996,-6.9834707951502475 l 6.735415534123248,-1.890773646173314 l 3.892058926264733,5.813151014110618 l -4.4033582082977345,5.436109260104073 l -6.45236559817237,-2.703299018957022 l 0.8943934952830934,-6.938364913577807 l 6.941000648476518,-0.8737032655431944 l 2.489963601753988,6.537654675823172 l -5.819822057418683,3.8820765858436195 l -5.01217154921143,-4.88046962490781 l 3.80536060686051,-5.870270696494881 l 6.467062111264365,2.6679495961170563 l -1.527141641227252,6.827055427195682 l -6.98272226878697,-0.42712658001912324 l -0.6014419073499775,-6.969871952228069 l 6.824273906681137,-1.5395236422228968 l 2.377475496253305,6.579396451277836 l -6.265063924796349,3.112847798493792 l -3.748380448335516,-5.9068173674922715 l 5.525778102122375,-4.290294134960576 l 4.74690785711421,5.138843565865735 l -4.759080253722015,5.127572772472907 l -5.441889044155196,-4.396213260236124 l 4.057142240201325,-5.699161713896742 l 5.9080493942352215,3.7464382757025523 l -3.466795023903717,6.076362370745239 l -6.210972106603379,-3.2194212040935337 l 3.0043708406720344,-6.317800507304097 l 6.4018636165948095,2.820813647317367 l -2.6672513790670465,6.4673501126224195 l -6.517719803013676,-2.5416876219896998 l 2.4417589137248195,-6.55581122406813 l 6.583950492602682,2.364834731927196 l -2.3080930726227447,6.604055857310958 l -6.617734088091625,-2.2685772937421365 l 2.243238776873238,-6.626366062051245 l 6.631179773296171,2.228968867570841 l -2.2226225604785217,6.633309607731587 l -6.633841157869788,-2.221035544633429 l 2.221035544633393,-6.6338411578698 l 6.634372328315298,2.2194484016657223 l -2.2130990440191156,6.636493051283484 l -6.641241856654063,-2.19880740398025 l 2.1733794484106324,-6.649606693000616 l 6.66247888378561,2.1335938042380795 l -2.0761849786727917,6.680591540627652 l -6.704442039848381,-1.9978249004069315 l 1.8951054486009822,-6.734198002513377 l 6.769586109937167,1.7645257999015045 l -1.6024898190482761,6.809763122034342 l -6.853168764453549,-1.4053203493476116 l 1.1692991135557635,-6.897360870754116 l 6.938834510150048,0.8907429702911072 l -0.5661293879760646,6.972829046695619 l -6.993130449796471,-0.1922860122361932 l -0.23333920101083444,-6.991881021273453 l 6.9594153256573,-0.7123101314586019 l 1.244720728046842,6.8841497447065185 l -6.752563794138333,1.8285867779420248 l -2.45910633182857,-6.549323892367281 l 6.257613877712426,-3.1277973009504834 l 3.821541782513529,5.859749636535302 l -5.3381649756894936,4.521597294175396 l -5.202676810735092,-4.6768580694106605 l 3.8633763250202637,-5.832252632529322 l 6.370301730936767,2.891384314683246 l -1.7637949268083222,6.7697765734577615 l -6.978144156322525,-0.49633812260803867 l -0.8787133388795102,-6.940368165050576 l 6.603687053859546,-2.3091480448555313 l 3.720484022348678,5.924427908061713 l -4.876850360963736,5.015693167961947 l -6.078185474306631,-3.463597658259423 l 1.7267226193623135,-6.779327134322021 l 6.991568462200777,-0.24252388899185232 l 2.297811306908411,6.60764031982796 l -5.565103487829121,4.2391591817392795 l -5.825373093079356,-3.873741824747661 l 1.6409831989055004,-6.80058979348719 l 6.936085335237784,-0.9119032956797832 l 3.451894226418116,6.084839656720098 l -4.241012832000813,5.563691001230813 l -6.812637852416514,-1.5902241635046244 l -1.4688962300053268,-6.839823920529565 l 5.476398557281778,-4.353149002753565 l 6.389052523473739,2.849711432876339 l 0.5588414797795297,6.973416924209402 l -5.775060198793829,3.9483575191058433 l -6.35647022010612,-2.9216662607622284 l -0.9087581521845858,-6.936498109219834 l 5.293767905630701,-4.573496338654556 l 6.7703511642111565,1.7615880652516147 l 2.5357794306204653,6.520020711440603 l -3.67073124938397,5.955382396888405 l -6.947574344367064,0.8197915148773192 l -5.066330921477105,-4.824224123365044 l 0.3192121490312227,-6.9884870324186155 l 5.383169510601116,-4.467922718502059 l 6.948544762730891,0.8115251559239534 l 4.33952818024798,5.487198061962584 l -0.6455107036216499,6.965928748550487 l -5.161679150201182,4.72206689371833 l -6.993066019420144,0.19461512377915327 l -5.523305666152809,-4.2934766700911 l -1.7048755692638498,-6.784854213002631 l 2.6773053967984626,-6.463194505091589 l 5.9111084032112,-3.74160992673718 l 6.993739683729883,0.16867908760162995 l 5.8245799275942645,3.874934330467843 l 3.0209511659099757,6.309889179023625 l -0.4536085086461425,6.98105197797983 l -3.658322831963398,5.963012783443247 l -5.922550410607501,3.723472039936007 l -6.93829103220898,0.8949664522990429 l -6.726659116523214,-1.9216931410783076 l -5.533972211316049,-4.279719495802737 l -3.7110968199767043,-5.930312621703099 l -1.6124218793390896,-6.8074182390536935 l 0.4693842453041464,-6.98000901350654 l 2.332418239619555,-6.595503965116107 l 3.8667847716899844,-5.829993390030448 l 5.039134955947258,-4.852624680945633 l 5.870367965008868,-3.8052105531455043 l 6.413400149867016,-2.7944849106871232 l 6.734773776149789,-1.89305826177046 l 6.9013980413541045,-1.1452303144634357 l 6.9721325463703385,-0.5746435018476556 l 6.993144911399874,-0.19175934536375383 l 6.9957735382423785,2.3315878670205178e-15 l 6.9957735382423785,5.023100774106768e-15 l 6.993144911399874,-0.19175934536374567 l 6.9721325463703385,-0.5746435018476518 l 6.901398041354105,-1.1452303144634268 l 6.734773776149793,-1.8930582617704454 l 6.413400149867025,-2.7944849106871055 l 5.870367965008882,-3.8052105531454834 l 5.039134955947274,-4.852624680945618 l 3.866784771690006,-5.829993390030434 l 2.3324182396195847,-6.595503965116097 l 0.46938424530418354,-6.980009013506537 l -1.6124218793390626,-6.807418239053698 l -3.711096819976673,-5.930312621703118 l -5.533972211316025,-4.279719495802769 l -6.7266591165232015,-1.9216931410783522 l -6.938291032208986,0.8949664522989936 l -5.922550410607523,3.7234720399359698 l -3.6583228319634404,5.963012783443222 l -0.45360850864619207,6.981051977979827 l 3.020951165909919,6.309889179023652 l 5.824579927594231,3.8749343304678954 l 6.99373968372988,0.16867908760169828 l 5.911108403211237,-3.741609926737122 l 2.677305396798543,-6.463194505091555 l -1.7048755692637774,-6.7848542130026495 l -5.523305666152763,-4.2934766700911595 l -6.993066019420147,0.19461512377907875 l -5.16167915020125,4.7220668937182575 l -0.6455107036217488,6.965928748550478 l 4.339528180247922,5.48719806196263 l 6.948544762730882,0.8115251559240274 l 5.383169510601163,-4.467922718502002 l 0.3192121490312972,-6.988487032418612 l -5.066330921477037,-4.824224123365116 l -6.947574344367074,0.8197915148772328 l -3.6707312493840543,5.955382396888352 l 2.535779430620373,6.5200207114406386 l 6.770351164211137,1.761588065251687 l 5.293767905630749,-4.5734963386545 l -0.9087581521845118,-6.936498109219843 l -6.356470220106088,-2.921666260762296 l -5.775060198793872,3.9483575191057816 l 0.5588414797794307,6.973416924209409 l 6.38905252347371,2.849711432876407 l 5.476398557281855,-4.353149002753467 l -1.4688962300052295,-6.839823920529586 l -6.812637852416486,-1.5902241635047456 l -4.241012832000891,5.563691001230753 l 3.45189422641803,6.084839656720147 l 6.9360853352378,-0.9119032956796599 l 1.6409831989056451,-6.8005897934871555 l -5.8253730930793015,-3.873741824747743 l -5.565103487829181,4.2391591817392005 l 2.2978113069083177,6.6076403198279925 l 6.99156846220078,-0.24252388899180263 l 1.72672261936241,-6.7793271343219965 l -6.078185474306557,-3.4635976582595522 l -4.876850360963844,5.015693167961842 l 3.7204840223485944,5.924427908061766 l 6.603687053859578,-2.309148044855437 l -0.8787133388794115,-6.940368165050589 l -6.978144156322517,-0.49633812260813787 l -1.7637949268084185,6.769776573457736 l 6.370301730936706,2.891384314683382 l 3.8633763250203046,-5.832252632529293 l -5.2026768107349595,-4.676858069410809 l -5.338164975689526,4.521597294175359 l 3.821541782513446,5.859749636535355 l 6.257613877712493,-3.12779730095035 l -2.4591063318284303,-6.549323892367334 l -6.752563794138347,1.828586777941977 l 1.2447207280467443,6.884149744706535 l 6.9594153256573055,-0.7123101314585525 l -0.2333392010107351,-6.991881021273457 l -6.993130449796467,-0.19228601223629257 l -0.5661293879761637,6.97282904669561 l 6.938834510150036,0.8907429702912057 l 1.1692991135558617,-6.8973608707541 l -6.853168764453509,-1.4053203493478068 l -1.6024898190483727,6.809763122034319 l 6.769586109937142,1.7645257999016009 l 1.895105448601078,-6.73419800251335 l -6.704442039848352,-1.9978249004070265 l -2.0761849786727917,6.680591540627652 l 6.662478883785581,2.133593804238174 l 2.173379448410727,-6.6496066930005835 l -6.641241856654032,-2.1988074039803442 l -2.2130990440192098,6.636493051283451 l 6.634372328315267,2.2194484016658165 l 2.221035544633487,-6.633841157869768 l -6.633841157869757,-2.221035544633523 l -2.2226225604786154,6.633309607731556 l 6.631179773296138,2.2289688675709347 l 2.2432387768733326,-6.626366062051214 l -6.617734088091592,-2.2685772937422306 l -2.308093072622839,6.604055857310926 l 6.583950492602682,2.364834731927196 l 2.4417589137249127,-6.555811224068095 l -6.517719803013602,-2.541687621989885 l -2.66725137906723,6.467350112622343 l 6.4018636165947695,2.8208136473174577 l 3.0043708406720344,-6.317800507304097 l -6.210972106603289,-3.21942120409371 l -3.466795023903717,6.076362370745239 l 5.908049394235168,3.746438275702636 l 4.057142240201487,-5.699161713896627 l -5.441889044155196,-4.396213260236124 l -4.7590802537221615,5.12757277247277 l 4.74690785711421,5.138843565865735 l 5.525778102122497,-4.290294134960419 l -3.7483804483354306,-5.906817367492325 l -6.265063924796349,3.112847798493792 l 2.377475496253212,6.579396451277869 l 6.824273906681181,-1.539523642222703 l -0.6014419073499775,-6.969871952228069 l -6.982722268786958,-0.42712658001932174 l -1.527141641227446,6.8270554271956385 l 6.4670621112642905,2.66794959611724 l 3.80536060686051,-5.870270696494881 l -5.012171549211292,-4.880469624907952 l -5.819822057418793,3.882076585843454 l 2.489963601753802,6.5376546758232434 l 6.9410006484765425,-0.8737032655429972 l 0.8943934952830934,-6.938364913577807 l -6.452365598172293,-2.7032990189572055 l -4.4033582082977345,5.436109260104073 l 3.892058926264733,5.813151014110618 l 6.735415534123248,-1.890773646173314 l 0.4147083935198996,-6.9834707951502475 l -6.417716963954834,-2.784556763461401 l -4.9043900559935425,4.988767941791233 l 2.779759717053163,6.419796205006884 l 6.995680462330472,-3.608694140542342e-2 l 2.832337583119791,-6.396773500259285 l -4.576538366027645,-5.291138250192419 l -6.773015593155945,1.751315840514982 l -1.5717038004046504,6.816934396205222 l 5.231157486203277,4.644979951830975 l 6.62965463278544,-2.233501029406261 l 1.494636087029462,-6.834245413044627 l -4.990991241075353,-4.902127479970446 l -6.838978489900302,1.472827421340763 l -2.670057545321369,6.466192086772918 l 3.6788185182600572,5.950390046717875 l 6.9650358788541515,0.6550745031266703 l 4.837764811358817,-5.053402717808137 l -0.8011962386645943,-6.949743303570427 l -5.771878432001609,-3.953007306414565 l -6.8085174854473465,1.607773942048451 l -3.5358899829843575,6.036416936113936 l 1.768139565097643,6.768643134093317 l 5.950336770369535,3.678904689926137 l 6.878066113909805,-1.2779099855067937 l 4.366009084078604,-5.466151486751478 l -0.1022911770996041,-6.995025654953658 l -4.390563433090703,-5.44644839674251 l -6.772321902269176,-1.753996422578302 l -6.546501936767051,2.466608965822825 l -4.076357067526562,5.685434060509235 l -0.4132787088861833,6.98355554908484 l 3.218918516138764,6.211232646168658 l 5.8468642093673555,3.841227188749883 l 6.963656765766464,0.6695758709565502 l 6.538909869743776,-2.4866654607605967 l 4.892195597281074,-5.000726910791665 l 2.515920476557208,-6.527709518201039 l -8.488483350691131e-2,-6.995258534422641 l -2.5003141851800916,-6.53370311337755 l -4.464246479013774,-5.3862185968437455 l -5.855530296206219,-3.828003702791233 l -6.67029750553915,-2.1090231354753954 l -6.982970742727061,-0.4230449202982396 l -6.908519087208574,1.1014587691089957 l -6.572750888134151,2.3957865432679966 l -6.092745237289049,3.4379213009991814 l -5.566541135407687,4.237271195732743 l -5.06979489943747,4.820583686236564 l -4.6568230977567975,5.220617399749868 l -4.363776504759871,5.467933980479099 l -4.212256708578803,5.585493784743221 l -4.212256708578803,5.585493784743221 l -4.363776504759871,5.467933980479099 l -4.6568230977567975,5.220617399749868 l -5.06979489943747,4.820583686236564 l -5.566541135407687,4.237271195732743 l -6.092745237289049,3.4379213009991814 l -6.572750888134151,2.3957865432679966 l -6.908519087208574,1.1014587691089957 l -6.982970742727061,-0.4230449202982396 l -6.67029750553915,-2.1090231354753954 l -5.855530296206219,-3.828003702791233 l -4.464246479013774,-5.3862185968437455 l -2.5003141851800916,-6.53370311337755 l -8.488483350691131e-2,-6.995258534422641 l 2.515920476557208,-6.527709518201039 l 4.892195597281074,-5.000726910791665 l 6.538909869743776,-2.4866654607605967 l 6.963656765766464,0.6695758709565502 l 5.8468642093673555,3.841227188749883 l 3.218918516138764,6.211232646168658 l -0.4132787088861833,6.98355554908484 l -4.076357067526562,5.685434060509235 l -6.546501936767051,2.466608965822825 l -6.772321902269176,-1.753996422578302 l -4.390563433090703,-5.44644839674251 l -0.1022911770996041,-6.995025654953658 l 4.366009084078604,-5.466151486751478 l 6.878066113909805,-1.2779099855067937 l 5.950336770369535,3.678904689926137 l 1.768139565097643,6.768643134093317 l -3.5358899829843575,6.036416936113936 l -6.8085174854473465,1.607773942048451 l -5.771878432001609,-3.953007306414565 l -0.8011962386647917,-6.949743303570405 l 4.8377648113586735,-5.053402717808274 l 6.965035878854171,0.6550745031264723 l 3.6788185182602264,5.9503900467177715 l -2.6700575453210016,6.46619208677307 l -6.838978489900259,1.4728274213409576 l -4.990991241075353,-4.902127479970446 l 1.494636087029462,-6.834245413044627 l 6.629654632785313,-2.2335010294066375 l 5.231157486203542,4.644979951830678 l -1.5717038004042627,6.816934396205312 l -6.773015593155895,1.7513158405151747 l -4.576538366027946,-5.291138250192159 l 2.832337583119609,-6.396773500259365 l 6.99568046233047,-3.6086941405622255e-2 l 2.7797597170533455,6.419796205006805 l -4.9043900559934,4.988767941791373 l -6.417716963954914,-2.7845567634612185 l 0.4147083935195026,-6.983470795150271 l 6.73541553412314,-1.8907736461736968 l 3.892058926264898,5.813151014110506 l -4.403358208297426,5.436109260104323 l -6.452365598172447,-2.7032990189568387 l 0.8943934952826991,-6.938364913577858 l 6.941000648476493,-0.8737032655433917 l 2.4899636017541735,6.537654675823101 l -5.8198220574185715,3.8820765858437847 l -5.012171549211569,-4.880469624907667 l 3.8053606068601766,-5.870270696495097 l 6.467062111264442,2.6679495961168724 l -1.527141641226864,6.827055427195769 l -6.982722268786994,-0.42712658001872633 l -0.6014419073503737,-6.969871952228035 l 6.824273906681071,-1.539523642223188 l 2.377475496253586,6.579396451277734 l -6.265063924796128,3.1128477984942373 l -3.7483804483357672,-5.906817367492111 l 5.525778102122192,-4.290294134960812 l 4.746907857114502,5.138843565865465 l -4.759080253721796,5.127572772473108 l -5.441889044155508,-4.396213260235737 l 4.057142240201083,-5.699161713896916 l 5.9080493942353804,3.7464382757023005 l -3.4667950239034586,6.076362370745388 l -6.210972106603517,-3.219421204093269 l 3.004370840671765,-6.3178005073042245 l 6.401863616594929,2.820813647317094 l -2.6672513790667707,6.467350112622532 l -6.517719803013784,-2.541687621989422 l 2.44175891372454,-6.5558112240682345 l 6.583950492602818,2.3648347319268215 l -2.308093072622463,6.604055857311057 l -6.617734088091754,-2.2685772937417603 l 2.243238776872862,-6.626366062051374 l 6.631179773296265,2.2289688675705586 l -2.2226225604781447,6.6333096077317135 l -6.633841157869884,-2.221035544633146 l 2.22103554463311,-6.633841157869894 l 6.634372328315393,2.2194484016654394 l -2.213099044018738,6.636493051283609 l -6.641241856654158,-2.1988074039799668 l 2.1733794484103486,-6.649606693000708 l 6.662478883785732,2.133593804237701 l -2.076184978672507,6.68059154062774 l -6.7044420398484945,-1.99782490040655 l 1.8951054486005994,-6.734198002513484 l 6.769586109937244,1.764525799901216 l -1.6024898190478891,6.809763122034433 l -6.853168764453608,-1.4053203493473196 l 1.1692991135554696,-6.8973608707541665 l 6.938834510150099,0.8907429702907127 l -0.5661293879756683,6.972829046695651 l -6.993130449796482,-0.19228601223579567 l -0.23333920101113254,-6.991881021273443 l 6.95941532565726,-0.7123101314589975 l 1.2447207280471844,6.884149744706456 l -6.752563794138243,1.828586777942361 l -2.4591063318288495,-6.549323892367177 l 6.257613877712293,-3.1277973009507503 l 3.8215417825137794,5.859749636535139 l -5.338164975689237,4.5215972941757 l -5.2026768107352925,-4.6768580694104385 l 3.863376325019973,-5.832252632529514 l 6.370301730936911,2.891384314682929 l -1.7637949268080335,6.769776573457836 l -6.978144156322547,-0.4963381226077412 l -0.8787133388798061,-6.940368165050539 l 6.60368705385943,-2.30914804485586 l 3.7204840223489732,5.924427908061528 l -4.876850360963523,5.015693167962154 l -6.078185474306803,-3.46359765825912 l 1.7267226193620246,-6.779327134322096 l 6.991568462200766,-0.24252388899220007 l 2.29781130690874,6.607640319827845 l -5.56510348782888,4.239159181739596 l -5.825373093079576,-3.8737418247473294 l 1.640983198905162,-6.800589793487273 l 6.936085335237738,-0.9119032956801282 l 3.4518942264184407,6.084839656719914 l -4.241012832000516,5.56369100123104 l -6.812637852416593,-1.5902241635042857 l -1.4688962300056911,-6.839823920529486 l 5.476398557281592,-4.3531490027537965 l 6.389052523473891,2.849711432875998 l 0.5588414797798766,6.973416924209373 l -5.775060198793633,3.948357519106131 l -6.356470220106254,-2.921666260761935 l -0.9087581521849062,-6.936498109219793 l 5.29376790563049,-4.5734963386548 l 6.770351164211237,1.761588065251302 l 2.535779430620767,6.520020711440486 l -3.6707312493836954,5.955382396888575 l -6.947574344367024,0.8197915148776523 l -5.06633092147732,-4.824224123364818 l 0.31921214903091233,-6.988487032418631 l 5.383169510600901,-4.467922718502318 l 6.948544762730926,0.8115251559236448 l 4.339528180248234,5.487198061962384 l -0.6455107036213652,6.965928748550515 l -5.161679150200981,4.72206689371855 l -6.993066019420136,0.19461512377946383 l -5.523305666153007,-4.293476670090845 l -1.704875569264151,-6.784854213002554 l 2.6773053967982046,-6.463194505091695 l 5.911108403211045,-3.7416099267374268 l 6.993739683729889,0.16867908760133177 l 5.8245799275944306,3.8749343304675947 l 3.020951165910244,6.309889179023497 l -0.45360850864583246,6.981051977979851 l -3.658322831963138,5.963012783443406 l -5.922550410607337,3.723472039936267 l -6.938291032208943,0.8949664522993388 l -6.726659116523295,-1.9216931410780236 l -5.533972211316232,-4.2797194958025 l -3.711096819976955,-5.930312621702941 l -1.6124218793393874,-6.807418239053622 l 0.4693842453038535,-6.980009013506559 l 2.3324182396192814,-6.595503965116204 l 3.8667847716897366,-5.829993390030611 l 5.0391349559470555,-4.852624680945843 l 5.87036796500871,-3.8052105531457494 l 6.413400149866905,-2.7944849106873777 l 6.734773776149715,-1.8930582617707248 l 6.901398041354058,-1.1452303144637144 l 6.972132546370316,-0.5746435018479341 l 6.993144911399866,-0.19175934536403064 l 6.9957735382423785,-2.816883481202695e-13 l 6.9957735382423785,-2.7630532230609695e-13 l 6.993144911399866,-0.19175934536403402 l 6.972132546370316,-0.5746435018479267 l 6.901398041354061,-1.1452303144636962 l 6.734773776149717,-1.8930582617707157 l 6.413400149866913,-2.79448491068736 l 5.870367965008727,-3.805210553145723 l 5.039134955947083,-4.852624680945815 l 3.8667847716897805,-5.829993390030583 l 2.3324182396193227,-6.5955039651161895 l 0.4693842453039092,-6.980009013506556 l -1.6124218793393257,-6.807418239053636 l -3.7110968199768912,-5.930312621702981 l -5.533972211316181,-4.279719495802567 l -6.726659116523273,-1.9216931410780984 l -6.938291032208952,0.8949664522992495 l -5.922550410607387,3.7234720399361856 l -3.6583228319632126,5.963012783443361 l -0.4536085086459317,6.981051977979845 l 3.0209511659101658,6.309889179023535 l 5.824579927594375,3.8749343304676778 l 6.993739683729887,0.1686790876014436 l 5.911108403211099,-3.7416099267373433 l 2.677305396798302,-6.463194505091655 l -1.7048755692640305,-6.784854213002585 l -5.523305666152923,-4.2934766700909535 l -6.993066019420141,0.1946151237793272 l -5.161679150201073,4.722066893718449 l -0.645510703621489,6.965928748550502 l 4.339528180248126,5.487198061962468 l 6.948544762730908,0.8115251559238053 l 5.383169510601013,-4.467922718502184 l 0.31921214903107376,-6.988487032418623 l -5.0663309214772,-4.824224123364945 l -6.947574344367047,0.8197915148774548 l -3.6707312493838224,5.955382396888496 l 2.5357794306206043,6.52002071144055 l 6.7703511642112,1.7615880652514462 l 5.293767905630586,-4.573496338654687 l -0.9087581521847585,-6.936498109219812 l -6.356470220106192,-2.92166626076207 l -5.775060198793732,3.9483575191059868 l 0.5588414797797032,6.9734169242093875 l 6.389052523473822,2.849711432876157 l 5.4763985572817155,-4.353149002753641 l -1.468896230005497,-6.839823920529527 l -6.8126378524165485,-1.5902241635044794 l -4.241012832000674,5.563691001230919 l 3.451894226418268,6.084839656720011 l 6.936085335237769,-0.9119032956798815 l 1.6409831989053552,-6.800589793487227 l -5.825373093079438,-3.873741824747537 l -5.56510348782903,4.239159181739398 l 2.297811306908505,6.607640319827926 l 6.9915684622007745,-0.24252388899195168 l 1.7267226193622172,-6.779327134322046 l -6.0781854743066805,-3.463597658259336 l -4.876850360963666,5.0156931679620165 l 3.720484022348805,5.9244279080616336 l 6.603687053859512,-2.309148044855625 l -0.8787133388796088,-6.940368165050564 l -6.978144156322532,-0.4963381226079396 l -1.7637949268082258,6.769776573457786 l 6.370301730936809,2.891384314683156 l 3.8633763250201802,-5.832252632529377 l -5.202676810735126,-4.676858069410623 l -5.338164975689398,4.5215972941755105 l 3.821541782513571,5.859749636535274 l 6.257613877712405,-3.1277973009505278 l -2.459106331828617,-6.549323892367263 l -6.752563794138282,1.828586777942217 l 1.2447207280469887,6.884149744706491 l 6.959415325657285,-0.7123101314587502 l -0.23333920101093378,-6.991881021273451 l -6.9931304497964755,-0.19228601223599442 l -0.5661293879759656,6.972829046695626 l 6.938834510150073,0.8907429702909099 l 1.1692991135556654,-6.897360870754134 l -6.853168764453549,-1.4053203493476116 l -1.6024898190481793,6.809763122034364 l 6.769586109937192,1.7645257999014086 l 1.8951054486007908,-6.7341980025134305 l -6.704442039848408,-1.9978249004068365 l -2.0761849786726967,6.680591540627681 l 6.662478883785641,2.1335938042379845 l 2.173379448410443,-6.649606693000677 l -6.641241856654094,-2.198807403980156 l -2.213099044019021,6.636493051283514 l 6.6343723283153295,2.219448401665628 l 2.221035544633299,-6.633841157869831 l -6.633841157869852,-2.22103554463324 l -2.222622560478427,6.6333096077316185 l 6.631179773296233,2.2289688675706523 l 2.2432387768731443,-6.626366062051278 l -6.617734088091657,-2.2685772937420423 l -2.3080930726226514,6.604055857310992 l 6.58395049260275,2.3648347319270084 l 2.4417589137246334,-6.555811224068199 l -6.517719803013712,-2.5416876219896074 l -2.6672513790670465,6.4673501126224195 l 6.4018636165948095,2.820813647317367 l 3.0043708406718546,-6.317800507304182 l -6.210972106603426,-3.2194212040934453 l -3.466795023903631,6.076362370745288 l 5.908049394235329,3.7464382757023844 l 4.057142240201325,-5.699161713896742 l -5.441889044155321,-4.39621326023597 l -4.759080253722015,5.127572772472907 l 4.746907857114284,5.138843565865668 l 5.525778102122375,-4.290294134960576 l -3.7483804483356833,-5.906817367492164 l -6.265063924796306,3.112847798493881 l 2.377475496253492,6.579396451277769 l 6.824273906681093,-1.5395236422230907 l -0.6014419073501757,-6.9698719522280514 l -6.982722268786983,-0.4271265800189248 l -1.5271416412270582,6.827055427195726 l 6.467062111264365,2.6679495961170563 l 3.8053606068603436,-5.870270696494989 l -5.012171549211569,-4.880469624907667 l -5.819822057418683,3.8820765858436195 l 2.489963601753988,6.537654675823172 l 6.941000648476493,-0.8737032655433917 l 0.8943934952828961,-6.938364913577832 l -6.45236559817237,-2.703299018957022 l -4.40335820829758,5.436109260104197 l 3.892058926264898,5.813151014110506 l 6.73541553412314,-1.8907736461736968 l 0.4147083935195026,-6.983470795150271 l -6.417716963954914,-2.7845567634612185 l -4.9043900559934,4.988767941791373 l 2.7797597170533455,6.419796205006805 l 6.99568046233047,-3.6086941405622255e-2 l 2.832337583119609,-6.396773500259365 l -4.576538366027946,-5.291138250192159 l -6.773015593155895,1.7513158405151747 l -1.5717038004042627,6.816934396205312 l 5.231157486203542,4.644979951830678 l 6.629654632785313,-2.2335010294066375 l 1.494636087029462,-6.834245413044627 l -4.990991241075353,-4.902127479970446 l -6.838978489900259,1.4728274213409576 l -2.6700575453210016,6.46619208677307 l 3.6788185182602264,5.9503900467177715 l 6.965035878854171,0.6550745031264723 l 4.8377648113586735,-5.053402717808274 l -0.8011962386647917,-6.949743303570405 l -5.771878432001721,-3.9530073064144013 l -6.8085174854473,1.6077739420486443 l -3.535889982984186,6.036416936114036 l 1.7681395650978353,6.768643134093267 l 5.950336770369745,3.678904689925799 l 6.878066113909767,-1.277909985506989 l 4.366009084078448,-5.466151486751602 l -0.10229117709980291,-6.995025654953656 l -4.390563433090858,-5.446448396742385 l -6.772321902269225,-1.7539964225781093 l -6.54650193676691,2.4666089658231978 l -4.076357067526562,5.685434060509235 l -0.4132787088861833,6.98355554908484 l 3.2189185161389404,6.211232646168566 l 5.846864209367574,3.841227188749551 l 6.963656765766483,0.6695758709563523 l 6.538909869743706,-2.4866654607607828 l 4.892195597280789,-5.000726910791943 l 2.5159204765568375,-6.527709518201182 l -8.488483350711014e-2,-6.995258534422638 l -2.5003141851802773,-6.53370311337748 l -4.46424647901408,-5.386218596843491 l -5.855530296206436,-3.8280037027909004 l -6.670297505539211,-2.109023135475206 l -6.9829707427270735,-0.423044920298041 l -6.90851908720851,1.1014587691093884 l -6.572750888134083,2.3957865432681835 l -6.09274523728895,3.4379213009993546 l -5.566541135407566,4.237271195732902 l -5.069794899437332,4.8205836862367075 l -4.656823097756501,5.220617399750132 l -4.3637765047597155,5.4679339804792235 l -4.212256708578644,5.585493784743341 l -4.212256708578644,5.585493784743341 l -4.3637765047597155,5.4679339804792235 l -4.656823097756501,5.220617399750132 l -5.069794899437332,4.8205836862367075 l -5.566541135407566,4.237271195732902 l -6.09274523728895,3.4379213009993546 l -6.572750888134083,2.3957865432681835 l -6.90851908720851,1.1014587691093884 l -6.9829707427270735,-0.423044920298041 l -6.670297505539211,-2.109023135475206 l -5.855530296206436,-3.8280037027909004 l -4.46424647901408,-5.386218596843491 l -2.5003141851802773,-6.53370311337748 l -8.488483350711014e-2,-6.995258534422638 l 2.5159204765568375,-6.527709518201182 l 4.892195597280789,-5.000726910791943 l 6.538909869743706,-2.4866654607607828 l 6.963656765766483,0.6695758709563523 l 5.846864209367574,3.841227188749551 l 3.2189185161389404,6.211232646168566 l -0.4132787088861833,6.98355554908484 l -4.076357067526562,5.685434060509235 l -6.54650193676691,2.4666089658231978 l -6.772321902269225,-1.7539964225781093 l -4.390563433090858,-5.446448396742385 l -0.10229117709980291,-6.995025654953656 l 4.366009084078448,-5.466151486751602 l 6.878066113909767,-1.277909985506989 l 5.950336770369745,3.678904689925799 l 1.7681395650978353,6.768643134093267 l -3.535889982984186,6.036416936114036 l -6.8085174854473,1.6077739420486443 l -5.771878432001721,-3.9530073064144013 l -0.8011962386651867,-6.949743303570359 l 4.8377648113585305,-5.053402717808412 l 6.965035878854208,0.6550745031260764 l 3.6788185182603947,5.950390046717666 l -2.6700575453210016,6.46619208677307 l -6.8389784899001755,1.4728274213413461 l -4.990991241075632,-4.902127479970162 l 1.4946360870292679,-6.834245413044671 l 6.62965463278525,-2.233501029406826 l 5.231157486203673,4.644979951830529 l -1.5717038004040689,6.816934396205357 l -6.773015593155796,1.7513158405155596 l -4.576538366027946,-5.291138250192159 l 2.8323375831194277,-6.396773500259445 l 6.99568046233047,-3.6086941405821076e-2 l 2.7797597170537105,6.419796205006648 l -4.904390055993259,4.988767941791512 l -6.417716963954992,-2.784556763461036 l 0.41470839351930416,-6.983470795150282 l 6.73541553412314,-1.8907736461736968 l 3.8920589262650633,5.813151014110397 l -4.403358208297271,5.436109260104448 l -6.452365598172524,-2.7032990189566553 l 0.8943934952825018,-6.938364913577884 l 6.941000648476468,-0.873703265543589 l 2.4899636017543596,6.537654675823031 l -5.819822057418461,3.88207658584395 l -5.012171549211708,-4.880469624907525 l 3.805360606860009,-5.870270696495205 l 6.467062111264517,2.6679495961166886 l -1.527141641226864,6.827055427195769 l -6.982722268787007,-0.4271265800185279 l -0.6014419073504726,-6.969871952228026 l 6.824273906681028,-1.5395236422233818 l 2.3774754962537727,6.579396451277667 l -6.265063924796128,3.1128477984942373 l -3.748380448335935,-5.906817367492004 l 5.525778102122071,-4.290294134960969 l 4.746907857114502,5.138843565865465 l -4.759080253721796,5.127572772473108 l -5.441889044155508,-4.396213260235737 l 4.057142240201002,-5.699161713896973 l 5.908049394235488,3.746438275702132 l -3.466795023903286,6.0763623707454855 l -6.210972106603562,-3.2194212040931807 l 3.0043708406715854,-6.31780050730431 l 6.40186361659501,2.820813647316912 l -2.6672513790667707,6.467350112622532 l -6.517719803013821,-2.5416876219893294 l 2.4417589137243536,-6.555811224068304 l 6.583950492602851,2.364834731926728 l -2.3080930726222757,6.604055857311122 l -6.617734088091754,-2.2685772937417603 l 2.2432387768727677,-6.626366062051405 l 6.631179773296328,2.2289688675703694 l -2.2226225604781447,6.6333096077317135 l -6.633841157869946,-2.2210355446329575 l 2.221035544633016,-6.6338411578699255 l 6.634372328315425,2.2194484016653453 l -2.213099044018738,6.636493051283609 l -6.64124185665422,-2.1988074039797776 l 2.17337944841016,-6.64960669300077 l 6.662478883785732,2.133593804237701 l -2.0761849786723174,6.680591540627799 l -6.7044420398484945,-1.99782490040655 l 1.8951054486005037,-6.734198002513511 l 6.769586109937293,1.7645257999010238 l -1.602489819047792,6.809763122034455 l -6.853168764453629,-1.405320349347222 l 1.1692991135553716,-6.8973608707541825 l 6.938834510150111,0.8907429702906141 l -0.5661293879756683,6.972829046695651 l -6.993130449796484,-0.19228601223569633 l -0.2333392010113313,-6.991881021273437 l 6.95941532565725,-0.7123101314590965 l 1.2447207280472823,6.884149744706439 l -6.752563794138204,1.828586777942505 l -2.459106331828943,-6.549323892367141 l 6.25761387771225,-3.127797300950839 l 3.821541782513904,5.859749636535057 l -5.338164975689173,4.521597294175776 l -5.202676810735392,-4.6768580694103274 l 3.8633763250198485,-5.832252632529597 l 6.370301730936952,2.8913843146828393 l -1.7637949268078892,6.769776573457873 l -6.978144156322557,-0.49633812260759247 l -0.8787133388799541,-6.94036816505052 l 6.603687053859398,-2.3091480448559536 l 3.720484022349057,5.9244279080614755 l -4.876850360963451,5.015693167962224 l -6.078185474306853,-3.463597658259034 l 1.7267226193618799,-6.7793271343221315 l 6.991568462200761,-0.2425238889923491 l 2.2978113069088337,6.607640319827813 l -5.56510348782885,4.239159181739636 l -5.825373093079631,-3.8737418247472473 l 1.640983198905017,-6.800589793487307 l 6.936085335237717,-0.911903295680276 l 3.451894226418527,6.084839656719865 l -4.241012832000437,5.563691001231099 l -6.812637852416622,-1.5902241635041645 l -1.4688962300057884,-6.839823920529465 l 5.476398557281516,-4.353149002753895 l 6.389052523473943,2.849711432875885 l 0.5588414797800004,6.973416924209363 l -5.775060198793577,3.9483575191062124 l -6.356470220106306,-2.921666260761822 l -0.9087581521850295,-6.936498109219777 l 5.293767905630408,-4.573496338654894 l 6.770351164211275,1.7615880652511575 l 2.5357794306208823,6.520020711440441 l -3.6707312493835897,5.955382396888639 l -6.947574344367012,0.8197915148777511 l -5.066330921477396,-4.824224123364738 l 0.31921214903077577,-6.988487032418637 l 5.383169510600837,-4.467922718502393 l 6.94854476273094,0.8115251559235214 l 4.3395281802483305,5.487198061962307 l -0.6455107036212291,6.965928748550527 l -5.161679150200889,4.722066893718651 l -6.993066019420132,0.1946151237796005 l -5.52330566615309,-4.293476670090738 l -1.7048755692642716,-6.784854213002525 l 2.677305396798078,-6.463194505091748 l 5.911108403210972,-3.7416099267375427 l 6.993739683729893,0.16867908760122 l 5.824579927594498,3.8749343304674913 l 3.020951165910351,6.309889179023446 l -0.45360850864573327,6.981051977979858 l -3.658322831963043,5.963012783443465 l -5.922550410607277,3.723472039936362 l -6.9382910322089275,0.8949664522994435 l -6.726659116523329,-1.9216931410779046 l -5.533972211316311,-4.279719495802399 l -3.711096819977057,-5.930312621702877 l -1.6124218793394842,-6.807418239053598 l 0.46938424530373873,-6.980009013506566 l 2.332418239619175,-6.595503965116243 l 3.8667847716896597,-5.829993390030664 l 5.039134955946978,-4.852624680945923 l 5.870367965008652,-3.8052105531458387 l 6.413400149866863,-2.794484910687474 l 6.734773776149682,-1.8930582617708422 l 6.901398041354038,-1.145230314463831 l 6.9721325463703065,-0.5746435018480495 l 6.993144911399861,-0.19175934536416317 l 6.9957735382423785,-4.1155237001594717e-13 l 6.9957735382423785,-4.0347783129468843e-13 l 6.993144911399863,-0.19175934536413894 l 6.9721325463703065,-0.5746435018480482 l 6.901398041354041,-1.1452303144638138 l 6.734773776149691,-1.893058261770809 l 6.413400149866867,-2.794484910687464 l 5.870367965008666,-3.8052105531458165 l 5.0391349559470076,-4.852624680945892 l 3.866784771689676,-5.829993390030653 l 2.332418239619207,-6.59550396511623 l 0.46938424530378836,-6.980009013506563 l -1.6124218793394223,-6.8074182390536135 l -3.7110968199769885,-5.930312621702921 l -5.533972211316252,-4.279719495802476 l -6.726659116523298,-1.9216931410780116 l -6.938291032208938,0.8949664522993636 l -5.922550410607331,3.7234720399362775 l -3.658322831963144,5.9630127834434035 l -0.45360850864583246,6.981051977979851 l 3.02095116591025,6.309889179023495 l 5.8245799275944234,3.874934330467606 l 6.993739683729889,0.16867908760133177 l 5.9111084032110375,-3.741609926737437 l 2.6773053967982046,-6.463194505091695 l -1.7048755692641027,-6.784854213002567 l -5.523305666152976,-4.293476670090884 l -6.993066019420136,0.1946151237794266 l -5.161679150201023,4.722066893718504 l -0.6455107036214024,6.9659287485505095 l 4.339528180248184,5.487198061962422 l 6.948544762730919,0.8115251559237064 l 5.383169510600949,-4.46792271850226 l 0.3192121490309744,-6.988487032418626 l -5.066330921477268,-4.824224123364873 l -6.947574344367035,0.8197915148775535 l -3.6707312493837585,5.955382396888535 l 2.535779430620697,6.520020711440513 l 6.770351164211212,1.761588065251398 l 5.29376790563057,-4.573496338654706 l -0.9087581521848076,-6.936498109219805 l -6.356470220106203,-2.9216662607620476 l -5.775060198793717,3.948357519106007 l 0.558841479779728,6.973416924209386 l 6.389052523473822,2.849711432876157 l 5.476398557281653,-4.353149002753719 l -1.4688962300055213,-6.839823920529524 l -6.81263785241656,-1.5902241635044307 l -4.241012832000655,5.563691001230934 l 3.451894226418289,6.084839656719999 l 6.936085335237763,-0.9119032956799309 l 1.6409831989053552,-6.800589793487227 l -5.825373093079467,-3.8737418247474946 l -5.565103487829001,4.239159181739437 l 2.297811306908552,6.60764031982791 l 6.991568462200771,-0.24252388899205107 l 1.726722619362169,-6.779327134322059 l -6.078185474306705,-3.463597658259293 l -4.876850360963631,5.015693167962051 l 3.7204840223488467,5.924427908061607 l 6.6036870538594785,-2.3091480448557187 l -0.8787133388796581,-6.9403681650505575 l -6.978144156322536,-0.49633812260788995 l -1.7637949268082258,6.769776573457786 l 6.370301730936809,2.891384314683156 l 3.8633763250201394,-5.832252632529404 l -5.202676810735191,-4.6768580694105495 l -5.338164975689334,4.521597294175586 l 3.8215417825136546,5.85974963653522 l 6.257613877712361,-3.1277973009506166 l -2.4591063318287096,-6.549323892367228 l -6.752563794138282,1.828586777942217 l 1.2447207280469887,6.884149744706491 l 6.959415325657285,-0.7123101314587502 l -0.23333920101093378,-6.991881021273451 l -6.9931304497964755,-0.19228601223599442 l -0.5661293879759656,6.972829046695626 l 6.938834510150073,0.8907429702909099 l 1.1692991135556654,-6.897360870754134 l -6.853168764453549,-1.4053203493476116 l -1.6024898190481793,6.809763122034364 l 6.769586109937192,1.7645257999014086 l 1.8951054486007908,-6.7341980025134305 l -6.704442039848408,-1.9978249004068365 l -2.0761849786726967,6.680591540627681 l 6.662478883785641,2.1335938042379845 l 2.173379448410443,-6.649606693000677 l -6.641241856654094,-2.198807403980156 l -2.213099044019021,6.636493051283514 l 6.6343723283153295,2.219448401665628 l 2.221035544633299,-6.633841157869831 l -6.633841157869852,-2.22103554463324 l -2.222622560478427,6.6333096077316185 l 6.631179773296233,2.2289688675706523 l 2.2432387768731443,-6.626366062051278 l -6.617734088091657,-2.2685772937420423 l -2.3080930726226514,6.604055857310992 l 6.58395049260275,2.3648347319270084 l 2.4417589137246334,-6.555811224068199 l -6.517719803013712,-2.5416876219896074 l -2.6672513790670465,6.4673501126224195 l 6.4018636165948095,2.820813647317367 l 3.0043708406718546,-6.317800507304182 l -6.210972106603426,-3.2194212040934453 l -3.466795023903631,6.076362370745288 l 5.908049394235329,3.7464382757023844 l 4.057142240201325,-5.699161713896742 l -5.441889044155321,-4.39621326023597 l -4.759080253722015,5.127572772472907 l 4.746907857114284,5.138843565865668 l 5.525778102122254,-4.2902941349607335 l -3.7483804483356833,-5.906817367492164 l -6.265063924796216,3.1128477984940592 l 2.377475496253586,6.579396451277734 l 6.824273906681093,-1.5395236422230907 l -0.6014419073503737,-6.969871952228035 l -6.982722268786994,-0.42712658001872633 l -1.5271416412270582,6.827055427195726 l 6.467062111264365,2.6679495961170563 l 3.8053606068603436,-5.870270696494989 l -5.012171549211569,-4.880469624907667 l -5.8198220574185715,3.8820765858437847 l 2.4899636017541735,6.537654675823101 l 6.941000648476493,-0.8737032655433917 l 0.8943934952826991,-6.938364913577858 l -6.452365598172447,-2.7032990189568387 l -4.403358208297271,5.436109260104448 l 3.8920589262650633,5.813151014110397 l 6.73541553412314,-1.8907736461736968 l 0.41470839351930416,-6.983470795150282 l -6.417716963954992,-2.784556763461036 l -4.904390055993259,4.988767941791512 l 2.7797597170537105,6.419796205006648 l 6.99568046233047,-3.6086941405821076e-2 l 2.8323375831194277,-6.396773500259445 l -4.576538366027946,-5.291138250192159 l -6.773015593155796,1.7513158405155596 l -1.5717038004040689,6.816934396205357 l 5.231157486203673,4.644979951830529 l 6.62965463278525,-2.233501029406826 l 1.4946360870292679,-6.834245413044671 l -4.990991241075632,-4.902127479970162 l -6.8389784899001755,1.4728274213413461 l -2.6700575453210016,6.46619208677307 l 3.6788185182603947,5.950390046717666 l 6.965035878854208,0.6550745031260764 l 4.8377648113585305,-5.053402717808412 l -0.8011962386651867,-6.949743303570359 l -5.7718784320018335,-3.953007306414237 l -6.808517485447256,1.607773942048838 l -3.5358899829840142,6.036416936114137 l 1.7681395650980278,6.7686431340932165 l 5.950336770369745,3.678904689925799 l 6.878066113909731,-1.2779099855071845 l 4.366009084078293,-5.466151486751726 l -0.10229117710020054,-6.99502565495365 l -4.390563433091012,-5.446448396742261 l -6.772321902269277,-1.753996422577917 l -6.546501936766839,2.4666089658233834 l -4.076357067526239,5.6854340605094675 l -0.4132787088861833,6.98355554908484 l 3.2189185161389404,6.211232646168566 l 5.846864209367574,3.841227188749551 l 6.963656765766483,0.6695758709563523 l 6.538909869743706,-2.4866654607607828 l 4.892195597280789,-5.000726910791943 l 2.5159204765568375,-6.527709518201182 l -8.488483350711014e-2,-6.995258534422638 l -2.5003141851802773,-6.53370311337748 l -4.46424647901408,-5.386218596843491 l -5.855530296206436,-3.8280037027909004 l -6.670297505539211,-2.109023135475206 l -6.9829707427270735,-0.423044920298041 l -6.90851908720851,1.1014587691093884 l -6.572750888134083,2.3957865432681835 l -6.09274523728895,3.4379213009993546 l -5.566541135407566,4.237271195732902 l -5.069794899437332,4.8205836862367075 l -4.656823097756501,5.220617399750132 l -4.3637765047597155,5.4679339804792235 l -4.212256708578644,5.585493784743341 l -4.212256708578644,5.585493784743341 l -4.3637765047597155,5.4679339804792235 l -4.656823097756501,5.220617399750132 l -5.069794899437332,4.8205836862367075 l -5.566541135407566,4.237271195732902 l -6.09274523728895,3.4379213009993546 l -6.572750888134083,2.3957865432681835 l -6.90851908720851,1.1014587691093884 l -6.9829707427270735,-0.423044920298041 l -6.670297505539211,-2.109023135475206 l -5.855530296206436,-3.8280037027909004 l -4.46424647901408,-5.386218596843491 l -2.500314185180463,-6.533703113377409 l -8.488483350750776e-2,-6.995258534422633 l 2.5159204765568375,-6.527709518201182 l 4.892195597280789,-5.000726910791943 l 6.538909869743636,-2.4866654607609684 l 6.963656765766502,0.6695758709561545 l 5.846864209367682,3.8412271887493854 l 3.218918516139117,6.211232646168474 l -0.41327870888578633,6.983555549084862 l -4.076357067526239,5.6854340605094675 l -6.546501936766839,2.4666089658233834 l -6.772321902269277,-1.753996422577917 l -4.390563433091012,-5.446448396742261 l -0.10229117710020054,-6.99502565495365 l 4.366009084078293,-5.466151486751726 l 6.878066113909731,-1.2779099855071845 l 5.950336770369745,3.678904689925799 l 1.7681395650980278,6.7686431340932165 l -3.5358899829840142,6.036416936114137 l -6.808517485447256,1.607773942048838 l -5.7718784320018335,-3.953007306414237 l -0.8011962386653844,-6.949743303570337 l 4.837764811358387,-5.05340271780855 l 6.965035878854226,0.6550745031258784 l 3.6788185182607336,5.950390046717457 l -2.6700575453206334,6.466192086773222 l -6.8389784899001755,1.4728274213413461 l -4.99099124107577,-4.90212747997002 l 1.494636087028879,-6.834245413044756 l 6.629654632785187,-2.2335010294070146 l 5.231157486203805,4.644979951830381 l -1.5717038004038753,6.816934396205402 l -6.773015593155796,1.7513158405155596 l -4.576538366028247,-5.291138250191898 l 2.832337583119064,-6.396773500259607 l 6.995680462330468,-3.608694140601991e-2 l 2.7797597170537105,6.419796205006648 l -4.904390055993117,4.988767941791651 l -6.417716963955071,-2.784556763460854 l 0.41470839351910566,-6.983470795150295 l 6.735415534123033,-1.8907736461740798 l 3.8920589262652285,5.813151014110286 l -4.403358208297117,5.4361092601045735 l -6.452365598172677,-2.7032990189562884 l 0.8943934952825018,-6.938364913577884 l 6.941000648476443,-0.8737032655437863 l 2.4899636017545452,6.53765467582296 l -5.819822057418241,3.882076585844281 l -5.012171549211846,-4.880469624907382 l 3.8053606068598422,-5.8702706964953135 l 6.467062111264594,2.6679495961165047 l -1.5271416412266698,6.827055427195813 l -6.982722268787007,-0.4271265800185279 l -0.6014419073506709,-6.96987195222801 l 6.824273906681006,-1.5395236422234788 l 2.3774754962539597,6.579396451277599 l -6.265063924795995,3.1128477984945038 l -3.748380448336103,-5.9068173674918985 l 5.52577810212201,-4.290294134961048 l 4.746907857114721,5.138843565865263 l -4.759080253721578,5.127572772473312 l -5.441889044155695,-4.396213260235505 l 4.0571422402008395,-5.699161713897088 l 5.908049394235541,3.7464382757020482 l -3.466795023903027,6.076362370745634 l -6.210972106603746,-3.2194212040928276 l 3.0043708406713163,-6.317800507304437 l 6.401863616595131,2.820813647316639 l -2.6672513790663106,6.467350112622722 l -6.517719803013965,-2.541687621988959 l 2.441758913724074,-6.555811224068408 l 6.583950492602952,2.364834731926447 l -2.308093072621994,6.60405585731122 l -6.617734088091882,-2.268577293741384 l 2.2432387768724853,-6.626366062051502 l 6.631179773296424,2.228968867570087 l -2.222622560477767,6.6333096077318405 l -6.63384115787004,-2.2210355446326746 l 2.221035544632639,-6.6338411578700525 l 6.634372328315551,2.219448401664968 l -2.213099044018361,6.636493051283734 l -6.641241856654313,-2.1988074039794947 l 2.173379448409876,-6.649606693000862 l 6.6624788837858535,2.1335938042373224 l -2.0761849786720323,6.680591540627888 l -6.704442039848607,-1.997824900406169 l 1.895105448600217,-6.734198002513592 l 6.769586109937368,1.7645257999007353 l -1.6024898190475019,6.809763122034523 l -6.853168764453689,-1.40532034934693 l 1.1692991135549795,-6.89736087075425 l 6.938834510150149,0.8907429702903181 l -0.5661293879752719,6.972829046695682 l -6.9931304497964915,-0.1922860122353982 l -0.2333392010116293,-6.991881021273427 l 6.959415325657219,-0.7123101314593931 l 1.2447207280475756,6.884149744706385 l -6.752563794138126,1.828586777942793 l -2.4591063318292217,-6.549323892367037 l 6.2576138777121155,-3.1277973009511055 l 3.821541782514196,5.859749636534867 l -5.338164975688981,4.521597294176003 l -5.202676810735591,-4.676858069410106 l 3.8633763250196,-5.832252632529761 l 6.370301730937075,2.8913843146825675 l -1.7637949268075526,6.769776573457962 l -6.978144156322582,-0.49633812260724536 l -0.8787133388802498,-6.940368165050483 l 6.6036870538593,-2.309148044856235 l 3.7204840223493525,5.924427908061289 l -4.876850360963203,5.015693167962467 l -6.078185474307,-3.4635976582587746 l 1.7267226193615428,-6.779327134322218 l 6.991568462200751,-0.2425238889926472 l 2.2978113069091157,6.607640319827715 l -5.565103487828639,4.239159181739911 l -5.825373093079796,-3.8737418247469986 l 1.640983198904727,-6.800589793487377 l 6.936085335237682,-0.911903295680547 l 3.451894226418808,6.084839656719705 l -4.241012832000219,5.563691001231266 l -6.812637852416684,-1.5902241635038983 l -1.4688962300060555,-6.839823920529408 l 5.476398557281313,-4.353149002754147 l 6.3890525234740645,2.849711432875612 l 0.5588414797802977,6.97341692420934 l -5.775060198793395,3.9483575191064797 l -6.3564702201064325,-2.9216662607615502 l -0.9087581521853252,-6.9364981092197375 l 5.293767905630213,-4.57349633865512 l 6.770351164211349,1.761588065250869 l 2.5357794306211834,6.520020711440323 l -3.6707312493833357,5.955382396888796 l -6.947574344366975,0.8197915148780596 l -5.066330921477611,-4.8242241233645125 l 0.31921214903050266,-6.988487032418649 l 5.383169510600655,-4.467922718502614 l 6.9485447627309735,0.8115251559232375 l 4.339528180248554,5.487198061962129 l -0.6455107036209445,6.965928748550553 l -5.161679150200705,4.7220668937188535 l -6.993066019420124,0.19461512377987378 l -5.523305666153243,-4.2934766700905405 l -1.7048755692645365,-6.784854213002458 l 2.6773053967978138,-6.463194505091857 l 5.911108403210826,-3.741609926737773 l 6.993739683729899,0.16867908760094666 l 5.824579927594649,3.874934330467264 l 3.020951165910597,6.309889179023328 l -0.45360850864546043,6.981051977979874 l -3.6583228319628094,5.963012783443609 l -5.922550410607132,3.7234720399365937 l -6.938291032208893,0.8949664522997147 l -6.726659116523403,-1.9216931410776474 l -5.533972211316471,-4.2797194958021905 l -3.7110968199772807,-5.930312621702736 l -1.6124218793397367,-6.807418239053539 l 0.469384245303483,-6.980009013506584 l 2.332418239618936,-6.595503965116325 l 3.866784771689453,-5.8299933900308005 l 5.039134955946808,-4.852624680946101 l 5.870367965008519,-3.805210553146044 l 6.413400149866767,-2.794484910687695 l 6.734773776149616,-1.8930582617710718 l 6.901398041354,-1.1452303144640639 l 6.972132546370288,-0.5746435018482821 l 6.993144911399855,-0.19175934536439365 l 6.9957735382423785,-6.394786397606157e-13 l 6.9957735382423785,-6.287125881322707e-13 l 6.993144911399857,-0.1917593453643614 l 6.972132546370289,-0.5746435018482673 l 6.901398041354006,-1.1452303144640277 l 6.734773776149632,-1.8930582617710152 l 6.413400149866783,-2.7944849106876575 l 5.870367965008554,-3.8052105531459905 l 5.039134955946866,-4.8526246809460405 l 3.8667847716895074,-5.829993390030764 l 2.3324182396190176,-6.595503965116297 l 0.4693842453035916,-6.980009013506577 l -1.6124218793396492,-6.80741823905356 l -3.711096819977183,-5.930312621702798 l -5.5339722113163905,-4.279719495802296 l -6.7266591165233605,-1.9216931410777938 l -6.93829103220891,0.8949664522995793 l -5.922550410607215,3.7234720399364614 l -3.6583228319629577,5.963012783443518 l -0.45360850864562174,6.981051977979864 l 3.020951165910435,6.309889179023405 l 5.82457992759454,3.874934330467429 l 6.9937396837298955,0.16867908760113304 l 5.911108403210935,-3.7416099267376 l 2.6773053967980207,-6.4631945050917725 l -1.7048755692642956,-6.784854213002519 l -5.523305666153099,-4.293476670090727 l -6.993066019420132,0.1946151237796005 l -5.161679150200897,4.722066893718642 l -0.6455107036212291,6.965928748550527 l 4.3395281802483305,5.487198061962307 l 6.948544762730939,0.8115251559235337 l 5.383169510600837,-4.467922718502393 l 0.31921214903080064,-6.988487032418635 l -5.0663309214773875,-4.824224123364748 l -6.947574344367012,0.8197915148777511 l -3.6707312493836106,5.955382396888626 l 2.535779430620859,6.52002071144045 l 6.770351164211262,1.7615880652512057 l 5.293767905630441,-4.573496338654857 l -0.9087581521850049,-6.93649810921978 l -6.356470220106285,-2.9216662607618664 l -5.775060198793605,3.948357519106172 l 0.558841479779926,6.973416924209369 l 6.389052523473891,2.849711432875998 l 5.476398557281561,-4.353149002753836 l -1.4688962300056911,-6.839823920529486 l -6.812637852416593,-1.5902241635042857 l -4.241012832000516,5.56369100123104 l 3.4518942264184407,6.084839656719914 l 6.9360853352377445,-0.9119032956800788 l 1.640983198905162,-6.800589793487273 l -5.825373093079548,-3.8737418247473703 l -5.56510348782891,4.239159181739556 l 2.2978113069086463,6.607640319827878 l 6.991568462200767,-0.24252388899215044 l 1.7267226193620246,-6.779327134322096 l -6.078185474306753,-3.4635976582592067 l -4.876850360963559,5.0156931679621195 l 3.7204840223489315,5.924427908061555 l 6.6036870538594465,-2.309148044855813 l -0.8787133388798061,-6.940368165050539 l -6.978144156322542,-0.49633812260779075 l -1.7637949268081297,6.769776573457811 l 6.37030173093685,2.8913843146830653 l 3.863376325020056,-5.83225263252946 l -5.202676810735225,-4.676858069410512 l -5.338164975689334,4.521597294175586 l 3.821541782513737,5.859749636535165 l 6.257613877712361,-3.1277973009506166 l -2.4591063318287096,-6.549323892367228 l -6.7525637941382675,1.828586777942265 l 1.2447207280470376,6.884149744706484 l 6.959415325657275,-0.7123101314588491 l -0.23333920101103314,-6.991881021273446 l -6.9931304497964755,-0.19228601223599442 l -0.5661293879758665,6.972829046695635 l 6.938834510150073,0.8907429702909099 l 1.1692991135555677,-6.89736087075415 l -6.853168764453549,-1.4053203493476116 l -1.6024898190481793,6.809763122034364 l 6.769586109937192,1.7645257999014086 l 1.8951054486007908,-6.7341980025134305 l -6.704442039848408,-1.9978249004068365 l -2.0761849786726967,6.680591540627681 l 6.662478883785641,2.1335938042379845 l 2.173379448410443,-6.649606693000677 l -6.641241856654094,-2.198807403980156 l -2.213099044019021,6.636493051283514 l 6.6343723283153295,2.219448401665628 l 2.221035544633299,-6.633841157869831 l -6.633841157869852,-2.22103554463324 l -2.222622560478427,6.6333096077316185 l 6.631179773296233,2.2289688675706523 l 2.2432387768731443,-6.626366062051278 l -6.617734088091657,-2.2685772937420423 l -2.3080930726226514,6.604055857310992 l 6.58395049260275,2.3648347319270084 l 2.4417589137246334,-6.555811224068199 l -6.517719803013712,-2.5416876219896074 l -2.6672513790670465,6.4673501126224195 l 6.4018636165948095,2.820813647317367 l 3.0043708406718546,-6.317800507304182 l -6.210972106603426,-3.2194212040934453 l -3.466795023903631,6.076362370745288 l 5.908049394235329,3.7464382757023844 l 4.057142240201325,-5.699161713896742 l -5.441889044155321,-4.39621326023597 l -4.759080253722015,5.127572772472907 l 4.746907857114284,5.138843565865668 l 5.525778102122254,-4.2902941349607335 l -3.7483804483356833,-5.906817367492164 l -6.265063924796216,3.1128477984940592 l 2.377475496253586,6.579396451277734 l 6.824273906681093,-1.5395236422230907 l -0.6014419073503737,-6.969871952228035 l -6.982722268786994,-0.42712658001872633 l -1.5271416412270582,6.827055427195726 l 6.467062111264365,2.6679495961170563 l 3.8053606068603436,-5.870270696494989 l -5.012171549211569,-4.880469624907667 l -5.819822057418683,3.8820765858436195 l 2.489963601753988,6.537654675823172 l 6.941000648476493,-0.8737032655433917 l 0.8943934952828961,-6.938364913577832 l -6.45236559817237,-2.703299018957022 l -4.403358208297426,5.436109260104323 l 3.892058926264898,5.813151014110506 l 6.73541553412314,-1.8907736461736968 l 0.4147083935195026,-6.983470795150271 l -6.417716963954914,-2.7845567634612185 l -4.9043900559934,4.988767941791373 l 2.7797597170533455,6.419796205006805 l 6.99568046233047,-3.6086941405622255e-2 l 2.832337583119609,-6.396773500259365 l -4.576538366027946,-5.291138250192159 l -6.773015593155895,1.7513158405151747 l -1.5717038004042627,6.816934396205312 l 5.231157486203542,4.644979951830678 l 6.629654632785313,-2.2335010294066375 l 1.494636087029462,-6.834245413044627 l -4.990991241075353,-4.902127479970446 l -6.838978489900259,1.4728274213409576 l -2.6700575453210016,6.46619208677307 l 3.6788185182602264,5.9503900467177715 l 6.965035878854171,0.6550745031264723 l 4.8377648113586735,-5.053402717808274 l -0.8011962386647917,-6.949743303570405 l -5.771878432001721,-3.9530073064144013 l -6.8085174854473,1.6077739420486443 l -3.535889982984186,6.036416936114036 l 1.7681395650978353,6.768643134093267 l 5.950336770369745,3.678904689925799 l 6.878066113909767,-1.277909985506989 l 4.366009084078448,-5.466151486751602 l -0.10229117709980291,-6.995025654953656 l -4.390563433090858,-5.446448396742385 l -6.772321902269225,-1.7539964225781093 l -6.54650193676691,2.4666089658231978 l -4.076357067526562,5.685434060509235 l -0.4132787088861833,6.98355554908484 l 3.2189185161389404,6.211232646168566 l 5.846864209367574,3.841227188749551 l 6.963656765766483,0.6695758709563523 l 6.538909869743706,-2.4866654607607828 l 4.892195597280789,-5.000726910791943 l 2.5159204765568375,-6.527709518201182 l -8.488483350711014e-2,-6.995258534422638 l -2.5003141851802773,-6.53370311337748 l -4.46424647901408,-5.386218596843491 l -5.855530296206436,-3.8280037027909004 l -6.670297505539211,-2.109023135475206 l -6.9829707427270735,-0.423044920298041 l -6.90851908720851,1.1014587691093884 l -6.572750888134083,2.3957865432681835 l -6.09274523728895,3.4379213009993546 l -5.566541135407566,4.237271195732902 l -5.069794899437332,4.8205836862367075 l -4.656823097756501,5.220617399750132 l -4.3637765047597155,5.4679339804792235 l -4.212256708578644,5.585493784743341 l -4.212256708578644,5.585493784743341 l -4.3637765047597155,5.4679339804792235 l -4.656823097756501,5.220617399750132 l -5.069794899437332,4.8205836862367075 l -5.566541135407566,4.237271195732902 l -6.09274523728895,3.4379213009993546 l -6.572750888134083,2.3957865432681835 l -6.90851908720851,1.1014587691093884 l -6.9829707427270735,-0.423044920298041 l -6.670297505539211,-2.109023135475206 l -5.855530296206436,-3.8280037027909004 l -4.46424647901408,-5.386218596843491 l -2.5003141851802773,-6.53370311337748 l -8.488483350711014e-2,-6.995258534422638 l 2.5159204765568375,-6.527709518201182 l 4.892195597280789,-5.000726910791943 l 6.538909869743706,-2.4866654607607828 l 6.963656765766483,0.6695758709563523 l 5.846864209367574,3.841227188749551 l 3.2189185161389404,6.211232646168566 l -0.4132787088861833,6.98355554908484 l -4.076357067526562,5.685434060509235 l -6.54650193676691,2.4666089658231978 l -6.772321902269225,-1.7539964225781093 l -4.390563433090858,-5.446448396742385 l -0.10229117709980291,-6.995025654953656 l 4.366009084078448,-5.466151486751602 l 6.878066113909767,-1.277909985506989 l 5.950336770369745,3.678904689925799 l 1.7681395650978353,6.768643134093267 l -3.535889982984186,6.036416936114036 l -6.8085174854473,1.6077739420486443 l -5.771878432001721,-3.9530073064144013 l -0.8011962386651867,-6.949743303570359 l 4.8377648113585305,-5.053402717808412 l 6.965035878854208,0.6550745031260764 l 3.6788185182603947,5.950390046717666 l -2.6700575453210016,6.46619208677307 l -6.8389784899001755,1.4728274213413461 l -4.990991241075632,-4.902127479970162 l 1.4946360870292679,-6.834245413044671 l 6.62965463278525,-2.233501029406826 l 5.231157486203673,4.644979951830529 l -1.5717038004040689,6.816934396205357 l -6.773015593155796,1.7513158405155596 l -4.576538366027946,-5.291138250192159 l 2.8323375831194277,-6.396773500259445 l 6.99568046233047,-3.6086941405821076e-2 l 2.7797597170537105,6.419796205006648 l -4.904390055993259,4.988767941791512 l -6.417716963954992,-2.784556763461036 l 0.41470839351930416,-6.983470795150282 l 6.73541553412314,-1.8907736461736968 l 3.8920589262650633,5.813151014110397 l -4.403358208297271,5.436109260104448 l -6.452365598172524,-2.7032990189566553 l 0.8943934952825018,-6.938364913577884 l 6.941000648476468,-0.873703265543589 l 2.4899636017543596,6.537654675823031 l -5.819822057418351,3.8820765858441155 l -5.012171549211846,-4.880469624907382 l 3.8053606068598422,-5.8702706964953135 l 6.467062111264594,2.6679495961165047 l -1.5271416412266698,6.827055427195813 l -6.982722268787007,-0.4271265800185279 l -0.6014419073506709,-6.96987195222801 l 6.824273906681006,-1.5395236422234788 l 2.3774754962539597,6.579396451277599 l -6.265063924795995,3.1128477984945038 l -3.748380448336103,-5.9068173674918985 l 5.52577810212201,-4.290294134961048 l 4.746907857114721,5.138843565865263 l -4.759080253721578,5.127572772473312 l -5.441889044155695,-4.396213260235505 l 4.0571422402008395,-5.699161713897088 l 5.908049394235541,3.7464382757020482 l -3.466795023903027,6.076362370745634 l -6.210972106603746,-3.2194212040928276 l 3.0043708406713163,-6.317800507304437 l 6.401863616595131,2.820813647316639 l -2.6672513790663106,6.467350112622722 l -6.517719803013965,-2.541687621988959 l 2.441758913724074,-6.555811224068408 l 6.583950492602952,2.364834731926447 l -2.308093072621994,6.60405585731122 l -6.617734088091882,-2.268577293741384 l 2.2432387768724853,-6.626366062051502 l 6.631179773296424,2.228968867570087 l -2.222622560477767,6.6333096077318405 l -6.63384115787004,-2.2210355446326746 l 2.221035544632639,-6.6338411578700525 l 6.634372328315551,2.219448401664968 l -2.213099044018361,6.636493051283734 l -6.641241856654313,-2.1988074039794947 l 2.173379448409876,-6.649606693000862 l 6.6624788837858535,2.1335938042373224 l -2.0761849786720323,6.680591540627888 l -6.704442039848607,-1.997824900406169 l 1.895105448600217,-6.734198002513592 l 6.769586109937368,1.7645257999007353 l -1.6024898190475019,6.809763122034523 l -6.853168764453689,-1.40532034934693 l 1.1692991135549795,-6.89736087075425 l 6.938834510150149,0.8907429702903181 l -0.5661293879752719,6.972829046695682 l -6.9931304497964915,-0.1922860122353982 l -0.2333392010116293,-6.991881021273427 l 6.959415325657219,-0.7123101314593931 l 1.2447207280475756,6.884149744706385 l -6.752563794138126,1.828586777942793 l -2.4591063318292217,-6.549323892367037 l 6.2576138777121155,-3.1277973009511055 l 3.821541782514196,5.859749636534867 l -5.338164975688981,4.521597294176003 l -5.202676810735591,-4.676858069410106 l 3.8633763250196,-5.832252632529761 l 6.370301730937075,2.8913843146825675 l -1.7637949268075526,6.769776573457962 l -6.978144156322582,-0.49633812260724536 l -0.8787133388802498,-6.940368165050483 l 6.6036870538593,-2.309148044856235 l 3.7204840223493525,5.924427908061289 l -4.876850360963203,5.015693167962467 l -6.078185474307,-3.4635976582587746 l 1.7267226193615428,-6.779327134322218 l 6.991568462200751,-0.2425238889926472 l 2.2978113069091157,6.607640319827715 l -5.565103487828639,4.239159181739911 l -5.825373093079796,-3.8737418247469986 l 1.640983198904727,-6.800589793487377 l 6.936085335237682,-0.911903295680547 l 3.451894226418765,6.084839656719729 l -4.241012832000219,5.563691001231266 l -6.812637852416684,-1.5902241635038983 l -1.4688962300060555,-6.839823920529408 l 5.476398557281313,-4.353149002754147 l 6.3890525234740645,2.849711432875612 l 0.5588414797802977,6.97341692420934 l -5.775060198793395,3.9483575191064797 l -6.3564702201064325,-2.9216662607615502 l -0.9087581521853252,-6.9364981092197375 l 5.293767905630213,-4.57349633865512 l 6.770351164211349,1.761588065250869 l 2.5357794306211834,6.520020711440323 l -3.6707312493833357,5.955382396888796 l -6.947574344366977,0.8197915148780471 l -5.0663309214776024,-4.824224123364522 l 0.31921214903050266,-6.988487032418649 l 5.383169510600663,-4.467922718502604 l 6.948544762730971,0.8115251559232622 l 4.339528180248536,5.487198061962145 l -0.6455107036209816,6.965928748550549 l -5.1616791502007375,4.722066893718816 l -6.993066019420126,0.1946151237798365 l -5.52330566615322,-4.293476670090571 l -1.7048755692645006,-6.7848542130024665 l 2.677305396797849,-6.463194505091843 l 5.911108403210845,-3.7416099267377416 l 6.993739683729898,0.16867908760099012 l 5.8245799275946215,3.874934330467305 l 3.020951165910553,6.309889179023349 l -0.4536085086455163,6.981051977979871 l -3.658322831962858,5.963012783443578 l -5.922550410607162,3.7234720399365457 l -6.9382910322089,0.894966452299656 l -6.726659116523385,-1.921693141077707 l -5.533972211316432,-4.279719495802242 l -3.7110968199772203,-5.930312621702775 l -1.6124218793397034,-6.807418239053548 l 0.46938424530351863,-6.980009013506583 l 2.3324182396189723,-6.595503965116314 l 3.8667847716894874,-5.829993390030778 l 5.039134955946839,-4.852624680946069 l 5.870367965008545,-3.8052105531460048 l 6.413400149866787,-2.7944849106876495 l 6.734773776149631,-1.8930582617710212 l 6.901398041354009,-1.14523031446401 l 6.9721325463702915,-0.5746435018482249 l 6.993144911399857,-0.19175934536433378 l 6.9957735382423785,-5.768782166797973e-13 l 6.9957735382423785,-5.634206521443661e-13 l 6.993144911399858,-0.1917593453643325 l 6.9721325463702915,-0.5746435018482358 l 6.901398041354011,-1.1452303144639944 l 6.734773776149644,-1.89305826177098 l 6.413400149866799,-2.7944849106876215 l 5.870367965008576,-3.8052105531459555 l 5.039134955946896,-4.852624680946009 l 3.8667847716895465,-5.829993390030738 l 2.3324182396190634,-6.595503965116281 l 0.4693842453036427,-6.980009013506574 l -1.6124218793395932,-6.807418239053574 l -3.7110968199771364,-5.930312621702828 l -5.533972211316352,-4.279719495802346 l -6.726659116523344,-1.9216931410778562 l -6.938291032208919,0.8949664522995112 l -5.922550410607252,3.723472039936402 l -3.6583228319630217,5.963012783443478 l -0.4536085086456961,6.981051977979859 l 3.020951165910368,6.309889179023437 l 5.824579927594498,3.8749343304674913 l 6.993739683729893,0.16867908760120756 l 5.911108403210979,-3.7416099267375316 l 2.6773053967980953,-6.463194505091741 l -1.7048755692642594,-6.784854213002528 l -5.5233056661530675,-4.293476670090767 l -6.993066019420133,0.19461512377956322 l -5.161679150200922,4.7220668937186145 l -0.6455107036212664,6.965928748550524 l 4.339528180248292,5.487198061962338 l 6.948544762730935,0.8115251559235707 l 5.383169510600861,-4.467922718502365 l 0.31921214903083783,-6.988487032418634 l -5.066330921477354,-4.824224123364783 l -6.947574344367024,0.8197915148776523 l -3.670731249383674,5.955382396888588 l 2.535779430620813,6.520020711440467 l 6.77035116421125,1.7615880652512539 l 5.293767905630457,-4.573496338654838 l -0.9087581521849555,-6.936498109219786 l -6.356470220106275,-2.921666260761889 l -5.77506019879362,3.9483575191061506 l 0.558841479779926,6.973416924209369 l 6.389052523473891,2.849711432875998 l 5.476398557281561,-4.353149002753836 l -1.4688962300056911,-6.839823920529486 l -6.812637852416582,-1.5902241635043342 l -4.241012832000555,5.5636910012310095 l 3.451894226418354,6.084839656719963 l 6.936085335237747,-0.9119032956800541 l 1.6409831989052104,-6.800589793487261 l -5.825373093079522,-3.8737418247474125 l -5.56510348782897,4.239159181739476 l 2.2978113069086463,6.607640319827878 l 6.991568462200767,-0.24252388899215044 l 1.7267226193620246,-6.779327134322096 l -6.078185474306803,-3.46359765825912 l -4.876850360963523,5.015693167962154 l 3.7204840223489732,5.924427908061528 l 6.60368705385943,-2.30914804485586 l -0.8787133388798061,-6.940368165050539 l -6.978144156322547,-0.4963381226077412 l -1.7637949268080335,6.769776573457836 l 6.370301730936911,2.891384314682929 l 3.863376325019973,-5.832252632529514 l -5.2026768107352925,-4.6768580694104385 l -5.33816497568927,4.5215972941756615 l 3.8215417825137794,5.859749636535139 l 6.257613877712315,-3.1277973009507054 l -2.459106331828803,-6.549323892367194 l -6.752563794138243,1.828586777942361 l 1.2447207280471353,6.884149744706465 l 6.959415325657271,-0.7123101314588985 l -0.23333920101113254,-6.991881021273443 l -6.993130449796478,-0.1922860122358951 l -0.5661293879757674,6.972829046695643 l 6.938834510150086,0.8907429702908114 l 1.1692991135555677,-6.89736087075415 l -6.8531687644535895,-1.405320349347417 l -1.6024898190479857,6.8097631220344095 l 6.769586109937219,1.7645257999013122 l 1.8951054486007908,-6.7341980025134305 l -6.704442039848465,-1.9978249004066457 l -2.076184978672507,6.68059154062774 l 6.662478883785671,2.1335938042378904 l 2.173379448410443,-6.649606693000677 l -6.641241856654127,-2.1988074039800614 l -2.213099044018927,6.636493051283547 l 6.6343723283153615,2.2194484016655336 l 2.2210355446332044,-6.633841157869862 l -6.633841157869852,-2.22103554463324 l -2.2226225604782384,6.6333096077316815 l 6.631179773296233,2.2289688675706523 l 2.2432387768730497,-6.62636606205131 l -6.617734088091689,-2.268577293741948 l -2.3080930726225573,6.604055857311024 l 6.583950492602784,2.364834731926915 l 2.4417589137246334,-6.555811224068199 l -6.517719803013712,-2.5416876219896074 l -2.6672513790669545,6.467350112622458 l 6.40186361659489,2.820813647317185 l 3.004370840671765,-6.3178005073042245 l -6.210972106603426,-3.2194212040934453 l -3.4667950239034586,6.076362370745388 l 5.908049394235329,3.7464382757023844 l 4.0571422402012445,-5.699161713896799 l -5.441889044155383,-4.396213260235892 l -4.759080253721942,5.127572772472973 l 4.746907857114429,5.138843565865532 l 5.525778102122192,-4.290294134960812 l -3.7483804483357672,-5.906817367492111 l -6.265063924796216,3.1128477984940592 l 2.377475496253586,6.579396451277734 l 6.824273906681093,-1.5395236422230907 l -0.6014419073503737,-6.969871952228035 l -6.982722268786994,-0.42712658001872633 l -1.5271416412270582,6.827055427195726 l 6.467062111264365,2.6679495961170563 l 3.8053606068603436,-5.870270696494989 l -5.012171549211569,-4.880469624907667 l -5.819822057418683,3.8820765858436195 l 2.489963601753988,6.537654675823172 l 6.941000648476493,-0.8737032655433917 l 0.8943934952828961,-6.938364913577832 l -6.45236559817237,-2.703299018957022 l -4.40335820829758,5.436109260104197 l 3.892058926264898,5.813151014110506 l 6.73541553412314,-1.8907736461736968 l 0.4147083935195026,-6.983470795150271 l -6.417716963954992,-2.784556763461036 l -4.904390055993259,4.988767941791512 l 2.7797597170537105,6.419796205006648 l 6.99568046233047,-3.6086941405821076e-2 l 2.8323375831194277,-6.396773500259445 l -4.576538366027946,-5.291138250192159 l -6.773015593155796,1.7513158405155596 l -1.5717038004040689,6.816934396205357 l 5.231157486203673,4.644979951830529 l 6.62965463278525,-2.233501029406826 l 1.4946360870292679,-6.834245413044671 l -4.990991241075632,-4.902127479970162 l -6.8389784899001755,1.4728274213413461 l -2.6700575453210016,6.46619208677307 l 3.6788185182603947,5.950390046717666 l 6.965035878854208,0.6550745031260764 l 4.8377648113585305,-5.053402717808412 l -0.8011962386651867,-6.949743303570359 l -5.7718784320018335,-3.953007306414237 l -6.808517485447256,1.607773942048838 l -3.5358899829840142,6.036416936114137 l 1.7681395650980278,6.7686431340932165 l 5.950336770369745,3.678904689925799 l 6.878066113909731,-1.2779099855071845 l 4.366009084078293,-5.466151486751726 l -0.10229117710020054,-6.99502565495365 l -4.390563433091012,-5.446448396742261 l -6.772321902269277,-1.753996422577917 l -6.546501936766839,2.4666089658233834 l -4.076357067526239,5.6854340605094675 l -0.41327870888578633,6.983555549084862 l 3.218918516139117,6.211232646168474 l 5.846864209367682,3.8412271887493854 l 6.963656765766502,0.6695758709561545 l 6.538909869743636,-2.4866654607609684 l 4.892195597280789,-5.000726910791943 l 2.5159204765568375,-6.527709518201182 l -8.488483350750776e-2,-6.995258534422633 l -2.500314185180463,-6.533703113377409 l -4.46424647901408,-5.386218596843491 l -5.855530296206545,-3.8280037027907334 l -6.670297505539211,-2.109023135475206 l -6.982970742727086,-0.42304492029784263 l -6.90851908720848,1.1014587691095847 l -6.572750888134014,2.3957865432683705 l -6.0927452372888515,3.4379213009995278 l -5.566541135407446,4.237271195733059 l -5.069794899437195,4.820583686236851 l -4.656823097756352,5.220617399750264 l -4.36377650475956,5.467933980479348 l -4.212256708578327,5.58549378474358 l -4.212256708578327,5.58549378474358 l -4.36377650475956,5.467933980479348 l -4.656823097756352,5.220617399750264 l -5.069794899437195,4.820583686236851 l -5.566541135407446,4.237271195733059 l -6.0927452372888515,3.4379213009995278 l -6.572750888134083,2.3957865432681835 l -6.90851908720851,1.1014587691093884 l -6.9829707427270735,-0.423044920298041 l -6.670297505539211,-2.109023135475206 l -5.855530296206436,-3.8280037027909004 l -4.46424647901408,-5.386218596843491 l -2.5003141851802773,-6.53370311337748 l -8.488483350711014e-2,-6.995258534422638 l 2.5159204765568375,-6.527709518201182 l 4.892195597280789,-5.000726910791943 l 6.538909869743636,-2.4866654607609684 l 6.963656765766502,0.6695758709561545 l 5.846864209367682,3.8412271887493854 l 3.218918516139117,6.211232646168474 " /></g></svg>