<?xml version="1.0" encoding="UTF-8"?>
<!DOCTYPE svg PUBLIC "-//W3C//DTD SVG 1.1//EN"
    "http://www.w3.org/Graphics/SVG/1.1/DTD/svg11.dtd">
<svg xmlns="http://www.w3.org/2000/svg" xmlns:xlink="http://www.w3.org/1999/xlink" version="1.1" width="400.0" height="400.0" viewBox="0 0 400 400"><g><g stroke="rgb(0,0,0)" stroke-opacity="1.0" fill="rgb(0,0,0)" fill-opacity="0.0" stroke-width="4.0"><path d="M 18.181818181818187,200.0 l 3.3670033670033668,-1.94394030030177 l 2.380640266498107e-16,-3.8878806006035402 l 3.3670033670033668,1.94394030030177 l 3.3670033670033668,-1.94394030030177 l 2.380640266498107e-16,-3.8878806006035402 l -3.3670033670033668,-1.94394030030177 l 3.3670033670033668,-1.94394030030177 l 2.380640266498107e-16,-3.8878806006035402 l 3.3670033670033668,1.94394030030177 l 3.3670033670033668,-1.94394030030177 l 2.380640266498107e-16,3.8878806006035402 l 3.3670033670033668,1.94394030030177 l 3.3670033670033668,-1.94394030030177 l 2.380640266498107e-16,-3.8878806006035402 l 3.3670033670033668,1.94394030030177 l 3.3670033670033668,-1.94394030030177 l 2.380640266498107e-16,-3.8878806006035402 l -3.3670033670033668,-1.94394030030177 l 3.3670033670033668,-1.94394030030177 l 2.380640266498107e-16,-3.8878806006035402 l -3.3670033670033668,-1.94394030030177 l -3.3670033670033663,1.9439403003017706 l 2.380640266498107e-16,-3.8878806006035402 l -3.3670033670033668,-1.94394030030177 l 3.3670033670033668,-1.94394030030177 l 2.380640266498107e-16,-3.8878806006035402 l 3.3670033670033668,1.94394030030177 l 3.3670033670033668,-1.94394030030177 l 2.380640266498107e-16,-3.8878806006035402 l -3.3670033670033668,-1.94394030030177 l 3.3670033670033668,-1.94394030030177 l 2.380640266498107e-16,-3.8878806006035402 l 3.3670033670033668,1.94394030030177 l 3.3670033670033668,-1.94394030030177 l 2.380640266498107e-16,3.8878806006035402 l 3.3670033670033668,1.94394030030177 l 3.3670033670033668,-1.94394030030177 l 2.380640266498107e-16,-3.8878806006035402 l 3.3670033670033668,1.94394030030177 l 3.3670033670033668,-1.94394030030177 l 2.380640266498107e-16,3.8878806006035402 l 3.3670033670033668,1.94394030030177 l -3.3670033670033668,1.94394030030177 l 2.380640266498107e-16,3.8878806006035402 l 3.3670033670033668,1.94394030030177 l 3.3670033670033668,-1.94394030030177 l 2.380640266498107e-16,3.8878806006035402 l 3.3670033670033668,1.94394030030177 l 3.3670033670033668,-1.94394030030177 l 2.380640266498107e-16,-3.8878806006035402 l 3.3670033670033668,1.94394030030177 l 3.3670033670033668,-1.94394030030177 l 2.380640266498107e-16,-3.8878806006035402 l -3.3670033670033668,-1.94394030030177 l 3.3670033670033668,-1.94394030030177 l 2.380640266498107e-16,-3.8878806006035402 l 3.3670033670033668,1.94394030030177 l 3.3670033670033668,-1.94394030030177 l 2.380640266498107e-16,3.8878806006035402 l 3.3670033670033668,1.94394030030177 l 3.3670033670033668,-1.94394030030177 l 2.380640266498107e-16,-3.8878806006035402 l 3.3670033670033668,1.94394030030177 l 3.3670033670033668,-1.94394030030177 l 2.380640266498107e-16,-3.8878806006035402 l -3.3670033670033668,-1.94394030030177 l 3.3670033670033668,-1.94394030030177 l 2.380640266498107e-16,-3.8878806006035402 l -3.3670033670033668,-1.94394030030177 l -3.3670033670033663,1.9439403003017706 l 2.380640266498107e-16,-3.8878806006035402 l -3.3670033670033668,-1.94394030030177 l 3.3670033670033668,-1.94394030030177 l 2.380640266498107e-16,-3.8878806006035402 l 3.3670033670033668,1.94394030030177 l 3.3670033670033668,-1.94394030030177 l 2.380640266498107e-16,-3.8878806006035402 l -3.3670033670033668,-1.94394030030177 l 3.3670033670033668,-1.94394030030177 l 2.380640266498107e-16,-3.8878806006035402 l -3.3670033670033668,-1.94394030030177 l -3.3670033670033663,1.9439403003017706 l 2.380640266498107e-16,-3.8878806006035402 l -3.3670033670033668,-1.94394030030177 l -3.3670033670033663,1.9439403003017706 l -7.141920799494321e-16,3.8878806006035402 l -3.3670033670033668,-1.94394030030177 l -3.3670033670033663,1.9439403003017706 l 2.380640266498107e-16,-3.8878806006035402 l -3.3670033670033668,-1.94394030030177 l 3.3670033670033668,-1.94394030030177 l 2.380640266498107e-16,-3.8878806006035402 l -3.3670033670033668,-1.94394030030177 l -3.3670033670033663,1.9439403003017706 l 2.380640266498107e-16,-3.8878806006035402 l -3.3670033670033668,-1.94394030030177 l 3.3670033670033668,-1.94394030030177 l 2.380640266498107e-16,-3.8878806006035402 l 3.3670033670033668,1.94394030030177 l 3.3670033670033668,-1.94394030030177 l 2.380640266498107e-16,-3.8878806006035402 l -3.3670033670033668,-1.94394030030177 l 3.3670033670033668,-1.94394030030177 l 2.380640266498107e-16,-3.8878806006035402 l 3.3670033670033668,1.94394030030177 l 3.3670033670033668,-1.94394030030177 l 2.380640266498107e-16,3.8878806006035402 l 3.3670033670033668,1.94394030030177 l 3.3670033670033668,-1.94394030030177 l 2.380640266498107e-16,-3.8878806006035402 l 3.3670033670033668,1.94394030030177 l 3.3670033670033668,-1.94394030030177 l 2.380640266498107e-16,-3.8878806006035402 l -3.3670033670033668,-1.94394030030177 l 3.3670033670033668,-1.94394030030177 l 2.380640266498107e-16,-3.8878806006035402 l -3.3670033670033668,-1.94394030030177 l -3.3670033670033663,1.9439403003017706 l 2.380640266498107e-16,-3.8878806006035402 l -3.3670033670033668,-1.94394030030177 l 3.3670033670033668,-1.94394030030177 l 2.380640266498107e-16,-3.8878806006035402 l 3.3670033670033668,1.94394030030177 l 3.3670033670033668,-1.94394030030177 l 2.380640266498107e-16,-3.8878806006035402 l -3.3670033670033668,-1.94394030030177 l 3.3670033670033668,-1.94394030030177 l 2.380640266498107e-16,-3.8878806006035402 l 3.3670033670033668,1.94394030030177 l 3.3670033670033668,-1.94394030030177 l 2.380640266498107e-16,3.8878806006035402 l 3.3670033670033668,1.94394030030177 l 3.3670033670033668,-1.94394030030177 l 2.380640266498107e-16,-3.8878806006035402 l 3.3670033670033668,1.94394030030177 l 3.3670033670033668,-1.94394030030177 l 2.380640266498107e-16,3.8878806006035402 l 3.3670033670033668,1.94394030030177 l -3.3670033670033668,1.94394030030177 l 2.380640266498107e-16,3.8878806006035402 l 3.3670033670033668,1.94394030030177 l 3.3670033670033668,-1.94394030030177 l 2.380640266498107e-16,3.8878806006035402 l 3.3670033670033668,1.94394030030177 l 3.3670033670033668,-1.94394030030177 l 2.380640266498107e-16,-3.8878806006035402 l 3.3670033670033668,1.94394030030177 l 3.3670033670033668,-1.94394030030177 l 2.380640266498107e-16,-3.8878806006035402 l -3.3670033670033668,-1.94394030030177 l 3.3670033670033668,-1.94394030030177 l 2.380640266498107e-16,-3.8878806006035402 l 3.3670033670033668,1.94394030030177 l 3.3670033670033668,-1.94394030030177 l 2.380640266498107e-16,3.8878806006035402 l 3.3670033670033668,1.94394030030177 l 3.3670033670033668,-1.94394030030177 l 2.380640266498107e-16,-3.8878806006035402 l 3.3670033670033668,1.94394030030177 l 3.3670033670033668,-1.94394030030177 l 2.380640266498107e-16,3.8878806006035402 l 3.3670033670033668,1.94394030030177 l -3.3670033670033668,1.94394030030177 l 2.380640266498107e-16,3.8878806006035402 l 3.3670033670033668,1.94394030030177 l 3.3670033670033668,-1.94394030030177 l 2.380640266498107e-16,3.8878806006035402 l 3.3670033670033668,1.94394030030177 l -3.3670033670033668,1.94394030030177 l 2.380640266498107e-16,3.8878806006035402 l -3.3670033670033663,-1.9439403003017706 l -3.3670033670033668,1.94394030030177 l 2.380640266498107e-16,3.8878806006035402 l 3.3670033670033668,1.94394030030177 l -3.3670033670033668,1.94394030030177 l 2.380640266498107e-16,3.8878806006035402 l 3.3670033670033668,1.94394030030177 l 3.3670033670033668,-1.94394030030177 l 2.380640266498107e-16,3.8878806006035402 l 3.3670033670033668,1.94394030030177 l 3.3670033670033668,-1.94394030030177 l 2.380640266498107e-16,-3.8878806006035402 l 3.3670033670033668,1.94394030030177 l 3.3670033670033668,-1.94394030030177 l 2.380640266498107e-16,3.8878806006035402 l 3.3670033670033668,1.94394030030177 l -3.3670033670033668,1.94394030030177 l 2.380640266498107e-16,3.8878806006035402 l 3.3670033670033668,1.94394030030177 l 3.3670033670033668,-1.94394030030177 l 2.380640266498107e-16,3.8878806006035402 l 3.3670033670033668,1.94394030030177 l 3.3670033670033668,-1.94394030030177 l 2.380640266498107e-16,-3.8878806006035402 l 3.3670033670033668,1.94394030030177 l 3.3670033670033668,-1.94394030030177 l 2.380640266498107e-16,-3.8878806006035402 l -3.3670033670033668,-1.94394030030177 l 3.3670033670033668,-1.94394030030177 l 2.380640266498107e-16,-3.8878806006035402 l 3.3670033670033668,1.94394030030177 l 3.3670033670033668,-1.94394030030177 l 2.380640266498107e-16,3.8878806006035402 l 3.3670033670033668,1.94394030030177 l 3.3670033670033668,-1.94394030030177 l 2.380640266498107e-16,-3.8878806006035402 l 3.3670033670033668,1.94394030030177 l 3.3670033670033668,-1.94394030030177 l 2.380640266498107e-16,-3.8878806006035402 l -3.3670033670033668,-1.94394030030177 l 3.3670033670033668,-1.94394030030177 l 2.380640266498107e-16,-3.8878806006035402 l -3.3670033670033668,-1.94394030030177 l -3.3670033670033663,1.9439403003017706 l 2.380640266498107e-16,-3.8878806006035402 l -3.3670033670033668,-1.94394030030177 l 3.3670033670033668,-1.94394030030177 l 2.380640266498107e-16,-3.8878806006035402 l 3.3670033670033668,1.94394030030177 l 3.3670033670033668,-1.94394030030177 l 2.380640266498107e-16,-3.8878806006035402 l -3.3670033670033668,-1.94394030030177 l 3.3670033670033668,-1.94394030030177 l 2.380640266498107e-16,-3.8878806006035402 l 3.3670033670033668,1.94394030030177 l 3.3670033670033668,-1.94394030030177 l 2.380640266498107e-16,3.8878806006035402 l 3.3670033670033668,1.94394030030177 l 3.3670033670033668,-1.94394030030177 l 2.380640266498107e-16,-3.8878806006035402 l 3.3670033670033668,1.94394030030177 l 3.3670033670033668,-1.94394030030177 l 2.380640266498107e-16,3.8878806006035402 l 3.3670033670033668,1.94394030030177 l -3.3670033670033668,1.94394030030177 l 2.380640266498107e-16,3.8878806006035402 l 3.3670033670033668,1.94394030030177 l 3.3670033670033668,-1.94394030030177 l 2.380640266498107e-16,3.8878806006035402 l 3.3670033670033668,1.94394030030177 l 3.3670033670033668,-1.94394030030177 l 2.380640266498107e-16,-3.8878806006035402 l 3.3670033670033668,1.94394030030177 l 3.3670033670033668,-1.94394030030177 l 2.380640266498107e-16,-3.8878806006035402 l -3.3670033670033668,-1.94394030030177 l 3.3670033670033668,-1.94394030030177 l 2.380640266498107e-16,-3.8878806006035402 l 3.3670033670033668,1.94394030030177 l 3.3670033670033668,-1.94394030030177 l 2.380640266498107e-16,3.8878806006035402 l 3.3670033670033668,1.94394030030177 l 3.3670033670033668,-1.94394030030177 l 2.380640266498107e-16,-3.8878806006035402 l 3.3670033670033668,1.94394030030177 l 3.3670033670033668,-1.94394030030177 l 2.380640266498107e-16,3.8878806006035402 l 3.3670033670033668,1.94394030030177 l -3.3670033670033668,1.94394030030177 l 2.380640266498107e-16,3.8878806006035402 l 3.3670033670033668,1.94394030030177 l 3.3670033670033668,-1.94394030030177 l 2.380640266498107e-16,3.8878806006035402 l 3.3670033670033668,1.94394030030177 l -3.3670033670033668,1.94394030030177 l 2.380640266498107e-16,3.8878806006035402 l -3.3670033670033663,-1.9439403003017706 l -3.3670033670033668,1.94394030030177 l 2.380640266498107e-16,3.8878806006035402 l 3.3670033670033668,1.94394030030177 l -3.3670033670033668,1.94394030030177 l 2.380640266498107e-16,3.8878806006035402 l 3.3670033670033668,1.94394030030177 l 3.3670033670033668,-1.94394030030177 l 2.380640266498107e-16,3.8878806006035402 l 3.3670033670033668,1.94394030030177 l 3.3670033670033668,-1.94394030030177 l 2.380640266498107e-16,-3.8878806006035402 l 3.3670033670033668,1.94394030030177 l 3.3670033670033668,-1.94394030030177 l 2.380640266498107e-16,3.8878806006035402 l 3.3670033670033668,1.94394030030177 l -3.3670033670033668,1.94394030030177 l 2.380640266498107e-16,3.8878806006035402 l 3.3670033670033668,1.94394030030177 l 3.3670033670033668,-1.94394030030177 l 2.380640266498107e-16,3.8878806006035402 l 3.3670033670033668,1.94394030030177 l -3.3670033670033668,1.94394030030177 l 2.380640266498107e-16,3.8878806006035402 l -3.3670033670033663,-1.9439403003017706 l -3.3670033670033668,1.94394030030177 l 2.380640266498107e-16,3.8878806006035402 l 3.3670033670033668,1.94394030030177 l -3.3670033670033668,1.94394030030177 l 2.380640266498107e-16,3.8878806006035402 l -3.3670033670033663,-1.9439403003017706 l -3.3670033670033668,1.94394030030177 l -7.141920799494321e-16,-3.8878806006035402 l -3.3670033670033663,-1.9439403003017706 l -3.3670033670033668,1.94394030030177 l 2.380640266498107e-16,3.8878806006035402 l -3.3670033670033663,-1.9439403003017706 l -3.3670033670033668,1.94394030030177 l 2.380640266498107e-16,3.8878806006035402 l 3.3670033670033668,1.94394030030177 l -3.3670033670033668,1.94394030030177 l 2.380640266498107e-16,3.8878806006035402 l 3.3670033670033668,1.94394030030177 l 3.3670033670033668,-1.94394030030177 l 2.380640266498107e-16,3.8878806006035402 l 3.3670033670033668,1.94394030030177 l -3.3670033670033668,1.94394030030177 l 2.380640266498107e-16,3.8878806006035402 l -3.3670033670033663,-1.9439403003017706 l -3.3670033670033668,1.94394030030177 l 2.380640266498107e-16,3.8878806006035402 l 3.3670033670033668,1.94394030030177 l -3.3670033670033668,1.94394030030177 l 2.380640266498107e-16,3.8878806006035402 l 3.3670033670033668,1.94394030030177 l 3.3670033670033668,-1.94394030030177 l 2.380640266498107e-16,3.8878806006035402 l 3.3670033670033668,1.94394030030177 l 3.3670033670033668,-1.94394030030177 l 2.380640266498107e-16,-3.8878806006035402 l 3.3670033670033668,1.94394030030177 l 3.3670033670033668,-1.94394030030177 l 2.380640266498107e-16,3.8878806006035402 l 3.3670033670033668,1.94394030030177 l -3.3670033670033668,1.94394030030177 l 2.380640266498107e-16,3.8878806006035402 l 3.3670033670033668,1.94394030030177 l 3.3670033670033668,-1.94394030030177 l 2.380640266498107e-16,3.8878806006035402 l 3.3670033670033668,1.94394030030177 l 3.3670033670033668,-1.94394030030177 l 2.380640266498107e-16,-3.8878806006035402 l 3.3670033670033668,1.94394030030177 l 3.3670033670033668,-1.94394030030177 l 2.380640266498107e-16,-3.8878806006035402 l -3.3670033670033668,-1.94394030030177 l 3.3670033670033668,-1.94394030030177 l 2.380640266498107e-16,-3.8878806006035402 l 3.3670033670033668,1.94394030030177 l 3.3670033670033668,-1.94394030030177 l 2.380640266498107e-16,3.8878806006035402 l 3.3670033670033668,1.94394030030177 l 3.3670033670033668,-1.94394030030177 l 2.380640266498107e-16,-3.8878806006035402 l 3.3670033670033668,1.94394030030177 l 3.3670033670033668,-1.94394030030177 l 2.380640266498107e-16,3.8878806006035402 l 3.3670033670033668,1.94394030030177 l -3.3670033670033668,1.94394030030177 l 2.380640266498107e-16,3.8878806006035402 l 3.3670033670033668,1.94394030030177 l 3.3670033670033668,-1.94394030030177 l 2.380640266498107e-16,3.8878806006035402 l 3.3670033670033668,1.94394030030177 l -3.3670033670033668,1.94394030030177 l 2.380640266498107e-16,3.8878806006035402 l -3.3670033670033663,-1.9439403003017706 l -3.3670033670033668,1.94394030030177 l 2.380640266498107e-16,3.8878806006035402 l 3.3670033670033668,1.94394030030177 l -3.3670033670033668,1.94394030030177 l 2.380640266498107e-16,3.8878806006035402 l 3.3670033670033668,1.94394030030177 l 3.3670033670033668,-1.94394030030177 l 2.380640266498107e-16,3.8878806006035402 l 3.3670033670033668,1.94394030030177 l 3.3670033670033668,-1.94394030030177 l 2.380640266498107e-16,-3.8878806006035402 l 3.3670033670033668,1.94394030030177 l 3.3670033670033668,-1.94394030030177 l 2.380640266498107e-16,3.8878806006035402 l 3.3670033670033668,1.94394030030177 l -3.3670033670033668,1.94394030030177 l 2.380640266498107e-16,3.8878806006035402 l 3.3670033670033668,1.94394030030177 l 3.3670033670033668,-1.94394030030177 l 2.380640266498107e-16,3.8878806006035402 l 3.3670033670033668,1.94394030030177 l -3.3670033670033668,1.94394030030177 l 2.380640266498107e-16,3.8878806006035402 l -3.3670033670033663,-1.9439403003017706 l -3.3670033670033668,1.94394030030177 l 2.380640266498107e-16,3.8878806006035402 l 3.3670033670033668,1.94394030030177 l -3.3670033670033668,1.94394030030177 l 2.380640266498107e-16,3.8878806006035402 l -3.3670033670033663,-1.9439403003017706 l -3.3670033670033668,1.94394030030177 l -7.141920799494321e-16,-3.8878806006035402 l -3.3670033670033663,-1.9439403003017706 l -3.3670033670033668,1.94394030030177 l 2.380640266498107e-16,3.8878806006035402 l -3.3670033670033663,-1.9439403003017706 l -3.3670033670033668,1.94394030030177 l 2.380640266498107e-16,3.8878806006035402 l 3.3670033670033668,1.94394030030177 l -3.3670033670033668,1.94394030030177 l 2.380640266498107e-16,3.8878806006035402 l 3.3670033670033668,1.94394030030177 l 3.3670033670033668,-1.94394030030177 l 2.380640266498107e-16,3.8878806006035402 l 3.3670033670033668,1.94394030030177 l -3.3670033670033668,1.94394030030177 l 2.380640266498107e-16,3.8878806006035402 l -3.3670033670033663,-1.9439403003017706 l -3.3670033670033668,1.94394030030177 l 2.380640266498107e-16,3.8878806006035402 l 3.3670033670033668,1.94394030030177 l -3.3670033670033668,1.94394030030177 l 2.380640266498107e-16,3.8878806006035402 l -3.3670033670033663,-1.9439403003017706 l -3.3670033670033668,1.94394030030177 l -7.141920799494321e-16,-3.8878806006035402 l -3.3670033670033663,-1.9439403003017706 l -3.3670033670033668,1.94394030030177 l 2.380640266498107e-16,3.8878806006035402 l -3.3670033670033663,-1.9439403003017706 l -3.3670033670033668,1.94394030030177 l -7.141920799494321e-16,-3.8878806006035402 l -3.3670033670033663,-1.9439403003017706 l 3.367003367003366,-1.9439403003017717 l -7.141920799494321e-16,-3.8878806006035402 l -3.3670033670033663,-1.9439403003017706 l -3.3670033670033668,1.94394030030177 l -7.141920799494321e-16,-3.8878806006035402 l -3.3670033670033663,-1.9439403003017706 l -3.3670033670033668,1.94394030030177 l 2.380640266498107e-16,3.8878806006035402 l -3.3670033670033663,-1.9439403003017706 l -3.3670033670033668,1.94394030030177 l 2.380640266498107e-16,3.8878806006035402 l 3.3670033670033668,1.94394030030177 l -3.3670033670033668,1.94394030030177 l 2.380640266498107e-16,3.8878806006035402 l -3.3670033670033663,-1.9439403003017706 l -3.3670033670033668,1.94394030030177 l -7.141920799494321e-16,-3.8878806006035402 l -3.3670033670033663,-1.9439403003017706 l -3.3670033670033668,1.94394030030177 l 2.380640266498107e-16,3.8878806006035402 l -3.3670033670033663,-1.9439403003017706 l -3.3670033670033668,1.94394030030177 l 2.380640266498107e-16,3.8878806006035402 l 3.3670033670033668,1.94394030030177 l -3.3670033670033668,1.94394030030177 l 2.380640266498107e-16,3.8878806006035402 l 3.3670033670033668,1.94394030030177 l 3.3670033670033668,-1.94394030030177 l 2.380640266498107e-16,3.8878806006035402 l 3.3670033670033668,1.94394030030177 l -3.3670033670033668,1.94394030030177 l 2.380640266498107e-16,3.8878806006035402 l -3.3670033670033663,-1.9439403003017706 l -3.3670033670033668,1.94394030030177 l 2.380640266498107e-16,3.8878806006035402 l 3.3670033670033668,1.94394030030177 l -3.3670033670033668,1.94394030030177 l 2.380640266498107e-16,3.8878806006035402 l 3.3670033670033668,1.94394030030177 l 3.3670033670033668,-1.94394030030177 l 2.380640266498107e-16,3.8878806006035402 l 3.3670033670033668,1.94394030030177 l 3.3670033670033668,-1.94394030030177 l 2.380640266498107e-16,-3.8878806006035402 l 3.3670033670033668,1.94394030030177 l 3.3670033670033668,-1.94394030030177 l 2.380640266498107e-16,3.8878806006035402 l 3.3670033670033668,1.94394030030177 l -3.3670033670033668,1.94394030030177 l 2.380640266498107e-16,3.8878806006035402 l 3.3670033670033668,1.94394030030177 l 3.3670033670033668,-1.94394030030177 l 2.380640266498107e-16,3.8878806006035402 l 3.3670033670033668,1.94394030030177 l -3.3670033670033668,1.94394030030177 l 2.380640266498107e-16,3.8878806006035402 l -3.3670033670033663,-1.9439403003017706 l -3.3670033670033668,1.94394030030177 l 2.380640266498107e-16,3.8878806006035402 l 3.3670033670033668,1.94394030030177 l -3.3670033670033668,1.94394030030177 l 2.380640266498107e-16,3.8878806006035402 l -3.3670033670033663,-1.9439403003017706 l -3.3670033670033668,1.94394030030177 l -7.141920799494321e-16,-3.8878806006035402 l -3.3670033670033663,-1.9439403003017706 l -3.3670033670033668,1.94394030030177 l 2.380640266498107e-16,3.8878806006035402 l -3.3670033670033663,-1.9439403003017706 l -3.3670033670033668,1.94394030030177 l 2.380640266498107e-16,3.8878806006035402 l 3.3670033670033668,1.94394030030177 l -3.3670033670033668,1.94394030030177 l 2.380640266498107e-16,3.8878806006035402 l 3.3670033670033668,1.94394030030177 l 3.3670033670033668,-1.94394030030177 l 2.380640266498107e-16,3.8878806006035402 l 3.3670033670033668,1.94394030030177 l -3.3670033670033668,1.94394030030177 l 2.380640266498107e-16,3.8878806006035402 l -3.3670033670033663,-1.9439403003017706 l -3.3670033670033668,1.94394030030177 l 2.380640266498107e-16,3.8878806006035402 l 3.3670033670033668,1.94394030030177 l -3.3670033670033668,1.94394030030177 l 2.380640266498107e-16,3.8878806006035402 l -3.3670033670033663,-1.9439403003017706 l -3.3670033670033668,1.94394030030177 l -7.141920799494321e-16,-3.8878806006035402 l -3.3670033670033663,-1.9439403003017706 l -3.3670033670033668,1.94394030030177 l 2.380640266498107e-16,3.8878806006035402 l -3.3670033670033663,-1.9439403003017706 l -3.3670033670033668,1.94394030030177 l -7.141920799494321e-16,-3.8878806006035402 l -3.3670033670033663,-1.9439403003017706 l 3.367003367003366,-1.9439403003017717 l -7.141920799494321e-16,-3.8878806006035402 l -3.3670033670033663,-1.9439403003017706 l -3.3670033670033668,1.94394030030177 l -7.141920799494321e-16,-3.8878806006035402 l -3.3670033670033663,-1.9439403003017706 l -3.3670033670033668,1.94394030030177 l 2.380640266498107e-16,3.8878806006035402 l -3.3670033670033663,-1.9439403003017706 l -3.3670033670033668,1.94394030030177 l 2.380640266498107e-16,3.8878806006035402 l 3.3670033670033668,1.94394030030177 l -3.3670033670033668,1.94394030030177 l 2.380640266498107e-16,3.8878806006035402 l -3.3670033670033663,-1.9439403003017706 l -3.3670033670033668,1.94394030030177 l -7.141920799494321e-16,-3.8878806006035402 l -3.3670033670033663,-1.9439403003017706 l -3.3670033670033668,1.94394030030177 l 2.380640266498107e-16,3.8878806006035402 l -3.3670033670033663,-1.9439403003017706 l -3.3670033670033668,1.94394030030177 l -7.141920799494321e-16,-3.8878806006035402 l -3.3670033670033663,-1.9439403003017706 l 3.367003367003366,-1.9439403003017717 l -7.141920799494321e-16,-3.8878806006035402 l -3.3670033670033663,-1.9439403003017706 l -3.3670033670033668,1.94394030030177 l -7.141920799494321e-16,-3.8878806006035402 l -3.3670033670033663,-1.9439403003017706 l 3.367003367003366,-1.9439403003017717 l -7.141920799494321e-16,-3.8878806006035402 l 3.367003367003368,1.9439403003017672 l 3.367003367003366,-1.9439403003017717 l -7.141920799494321e-16,-3.8878806006035402 l -3.3670033670033663,-1.9439403003017706 l 3.367003367003366,-1.9439403003017717 l -7.141920799494321e-16,-3.8878806006035402 l -3.3670033670033663,-1.9439403003017706 l -3.3670033670033668,1.94394030030177 l -7.141920799494321e-16,-3.8878806006035402 l -3.3670033670033663,-1.9439403003017706 l -3.3670033670033668,1.94394030030177 l 2.380640266498107e-16,3.8878806006035402 l -3.3670033670033663,-1.9439403003017706 l -3.3670033670033668,1.94394030030177 l -7.141920799494321e-16,-3.8878806006035402 l -3.3670033670033663,-1.9439403003017706 l 3.367003367003366,-1.9439403003017717 l -7.141920799494321e-16,-3.8878806006035402 l -3.3670033670033663,-1.9439403003017706 l -3.3670033670033668,1.94394030030177 l -7.141920799494321e-16,-3.8878806006035402 l -3.3670033670033663,-1.9439403003017706 l -3.3670033670033668,1.94394030030177 l 2.380640266498107e-16,3.8878806006035402 l -3.3670033670033663,-1.9439403003017706 l -3.3670033670033668,1.94394030030177 l 2.380640266498107e-16,3.8878806006035402 l 3.3670033670033668,1.94394030030177 l -3.3670033670033668,1.94394030030177 l 2.380640266498107e-16,3.8878806006035402 l -3.3670033670033663,-1.9439403003017706 l -3.3670033670033668,1.94394030030177 l -7.141920799494321e-16,-3.8878806006035402 l -3.3670033670033663,-1.9439403003017706 l -3.3670033670033668,1.94394030030177 l 2.380640266498107e-16,3.8878806006035402 l -3.3670033670033663,-1.9439403003017706 l -3.3670033670033668,1.94394030030177 l 2.380640266498107e-16,3.8878806006035402 l 3.3670033670033668,1.94394030030177 l -3.3670033670033668,1.94394030030177 l 2.380640266498107e-16,3.8878806006035402 l 3.3670033670033668,1.94394030030177 l 3.3670033670033668,-1.94394030030177 l 2.380640266498107e-16,3.8878806006035402 l 3.3670033670033668,1.94394030030177 l -3.3670033670033668,1.94394030030177 l 2.380640266498107e-16,3.8878806006035402 l -3.3670033670033663,-1.9439403003017706 l -3.3670033670033668,1.94394030030177 l 2.380640266498107e-16,3.8878806006035402 l 3.3670033670033668,1.94394030030177 l -3.3670033670033668,1.94394030030177 l 2.380640266498107e-16,3.8878806006035402 l -3.3670033670033663,-1.9439403003017706 l -3.3670033670033668,1.94394030030177 l -7.141920799494321e-16,-3.8878806006035402 l -3.3670033670033663,-1.9439403003017706 l -3.3670033670033668,1.94394030030177 l 2.380640266498107e-16,3.8878806006035402 l -3.3670033670033663,-1.9439403003017706 l -3.3670033670033668,1.94394030030177 l -7.141920799494321e-16,-3.8878806006035402 l -3.3670033670033663,-1.9439403003017706 l 3.367003367003366,-1.9439403003017717 l -7.141920799494321e-16,-3.8878806006035402 l -3.3670033670033663,-1.9439403003017706 l -3.3670033670033668,1.94394030030177 l -7.141920799494321e-16,-3.8878806006035402 l -3.3670033670033663,-1.9439403003017706 l -3.3670033670033668,1.94394030030177 l 2.380640266498107e-16,3.8878806006035402 l -3.3670033670033663,-1.9439403003017706 l -3.3670033670033668,1.94394030030177 l 2.380640266498107e-16,3.8878806006035402 l 3.3670033670033668,1.94394030030177 l -3.3670033670033668,1.94394030030177 l 2.380640266498107e-16,3.8878806006035402 l -3.3670033670033663,-1.9439403003017706 l -3.3670033670033668,1.94394030030177 l -7.141920799494321e-16,-3.8878806006035402 l -3.3670033670033663,-1.9439403003017706 l -3.3670033670033668,1.94394030030177 l 2.380640266498107e-16,3.8878806006035402 l -3.3670033670033663,-1.9439403003017706 l -3.3670033670033668,1.94394030030177 l -7.141920799494321e-16,-3.8878806006035402 l -3.3670033670033663,-1.9439403003017706 l 3.367003367003366,-1.9439403003017717 l -7.141920799494321e-16,-3.8878806006035402 l -3.3670033670033663,-1.9439403003017706 l -3.3670033670033668,1.94394030030177 l -7.141920799494321e-16,-3.8878806006035402 l -3.3670033670033663,-1.9439403003017706 l 3.367003367003366,-1.9439403003017717 l -7.141920799494321e-16,-3.8878806006035402 l 3.367003367003368,1.9439403003017672 l 3.367003367003366,-1.9439403003017717 l -7.141920799494321e-16,-3.8878806006035402 l -3.3670033670033663,-1.9439403003017706 l 3.367003367003366,-1.9439403003017717 l -7.141920799494321e-16,-3.8878806006035402 l -3.3670033670033663,-1.9439403003017706 l -3.3670033670033668,1.94394030030177 l -7.141920799494321e-16,-3.8878806006035402 l -3.3670033670033663,-1.9439403003017706 l -3.3670033670033668,1.94394030030177 l 2.380640266498107e-16,3.8878806006035402 l -3.3670033670033663,-1.9439403003017706 l -3.3670033670033668,1.94394030030177 l -7.141920799494321e-16,-3.8878806006035402 l -3.3670033670033663,-1.9439403003017706 l 3.367003367003366,-1.9439403003017717 l -7.141920799494321e-16,-3.8878806006035402 l -3.3670033670033663,-1.9439403003017706 l -3.3670033670033668,1.94394030030177 l -7.141920799494321e-16,-3.8878806006035402 l -3.3670033670033663,-1.9439403003017706 l 3.367003367003366,-1.9439403003017717 l -7.141920799494321e-16,-3.8878806006035402 l 3.367003367003368,1.9439403003017672 l 3.367003367003366,-1.9439403003017717 l -7.141920799494321e-16,-3.8878806006035402 l -3.3670033670033663,-1.9439403003017706 l 3.367003367003366,-1.9439403003017717 l -7.141920799494321e-16,-3.8878806006035402 l 3.367003367003368,1.9439403003017672 l 3.367003367003366,-1.9439403003017717 l 1.1903201332490536e-15,3.8878806006035402 l 3.367003367003368,1.9439403003017672 l 3.367003367003366,-1.9439403003017717 l -7.141920799494321e-16,-3.8878806006035402 l 3.367003367003368,1.9439403003017672 l 3.367003367003366,-1.9439403003017717 l -7.141920799494321e-16,-3.8878806006035402 l -3.3670033670033663,-1.9439403003017706 l 3.367003367003366,-1.9439403003017717 l -7.141920799494321e-16,-3.8878806006035402 l -3.3670033670033663,-1.9439403003017706 l -3.3670033670033668,1.94394030030177 l -7.141920799494321e-16,-3.8878806006035402 l -3.3670033670033663,-1.9439403003017706 l 3.367003367003366,-1.9439403003017717 l -7.141920799494321e-16,-3.8878806006035402 l 3.367003367003368,1.9439403003017672 l 3.367003367003366,-1.9439403003017717 l -7.141920799494321e-16,-3.8878806006035402 l -3.3670033670033663,-1.9439403003017706 l 3.367003367003366,-1.9439403003017717 l -7.141920799494321e-16,-3.8878806006035402 l -3.3670033670033663,-1.9439403003017706 l -3.3670033670033668,1.94394030030177 l -7.141920799494321e-16,-3.8878806006035402 l -3.3670033670033663,-1.9439403003017706 l -3.3670033670033668,1.94394030030177 l 2.380640266498107e-16,3.8878806006035402 l -3.3670033670033663,-1.9439403003017706 l -3.3670033670033668,1.94394030030177 l -7.141920799494321e-16,-3.8878806006035402 l -3.3670033670033663,-1.9439403003017706 l 3.367003367003366,-1.9439403003017717 l -7.141920799494321e-16,-3.8878806006035402 l -3.3670033670033663,-1.9439403003017706 l -3.3670033670033668,1.94394030030177 l -7.141920799494321e-16,-3.8878806006035402 l -3.3670033670033663,-1.9439403003017706 l -3.3670033670033668,1.94394030030177 l 2.380640266498107e-16,3.8878806006035402 l -3.3670033670033663,-1.9439403003017706 l -3.3670033670033668,1.94394030030177 l 2.380640266498107e-16,3.8878806006035402 l 3.3670033670033668,1.94394030030177 l -3.3670033670033668,1.94394030030177 l 2.380640266498107e-16,3.8878806006035402 l -3.3670033670033663,-1.9439403003017706 l -3.3670033670033668,1.94394030030177 l -7.141920799494321e-16,-3.8878806006035402 l -3.3670033670033663,-1.9439403003017706 l -3.3670033670033668,1.94394030030177 l 2.380640266498107e-16,3.8878806006035402 l -3.3670033670033663,-1.9439403003017706 l -3.3670033670033668,1.94394030030177 l -7.141920799494321e-16,-3.8878806006035402 l -3.3670033670033663,-1.9439403003017706 l 3.367003367003366,-1.9439403003017717 l -7.141920799494321e-16,-3.8878806006035402 l -3.3670033670033663,-1.9439403003017706 l -3.3670033670033668,1.94394030030177 l -7.141920799494321e-16,-3.8878806006035402 l -3.3670033670033663,-1.9439403003017706 l 3.367003367003366,-1.9439403003017717 l -7.141920799494321e-16,-3.8878806006035402 l 3.367003367003368,1.9439403003017672 l 3.367003367003366,-1.9439403003017717 l -7.141920799494321e-16,-3.8878806006035402 l -3.3670033670033663,-1.9439403003017706 l 3.367003367003366,-1.9439403003017717 l -7.141920799494321e-16,-3.8878806006035402 l -3.3670033670033663,-1.9439403003017706 l -3.3670033670033668,1.94394030030177 l -7.141920799494321e-16,-3.8878806006035402 l -3.3670033670033663,-1.9439403003017706 l -3.3670033670033668,1.94394030030177 l 2.380640266498107e-16,3.8878806006035402 l -3.3670033670033663,-1.9439403003017706 l -3.3670033670033668,1.94394030030177 l -7.141920799494321e-16,-3.8878806006035402 l -3.3670033670033663,-1.9439403003017706 l 3.367003367003366,-1.9439403003017717 l -7.141920799494321e-16,-3.8878806006035402 l -3.3670033670033663,-1.9439403003017706 l -3.3670033670033668,1.94394030030177 l -7.141920799494321e-16,-3.8878806006035402 l -3.3670033670033663,-1.9439403003017706 " /></g></g></svg>