<?xml version="1.0" encoding="UTF-8"?>
<!DOCTYPE svg PUBLIC "-//W3C//DTD SVG 1.1//EN"
    "http://www.w3.org/Graphics/SVG/1.1/DTD/svg11.dtd">
<svg xmlns="http://www.w3.org/2000/svg" xmlns:xlink="http://www.w3.org/1999/xlink" version="1.1" width="400.0" height="400.0" viewBox="0 0 400 400"><g fill="rgb(0,0,0)" fill-opacity="0" fill-rule="nonzero" font-family="Sans" font-size="1" font-style="normal" opacity="1" stroke="rgb(0,0,0)" stroke-opacity="1" stroke-width="0.5" stroke-linecap="butt" stroke-linejoin="miter" text-anchor="middle"><path d="M 218.94777415951825,343.92263349914555 h 37.895548319035846 h -37.895548319035846 l 36.60428882274201,-9.808089629569292 l -36.60428882274201,9.808089629569292 l 32.818507534625724,-18.94777415951792 l -32.818507534625724,18.94777415951792 l 26.79619919317272,-26.79619919317271 l -26.79619919317272,26.79619919317271 l 18.947774159517927,-32.818507534625724 l -18.947774159517927,32.818507534625724 l 9.808089629569292,-36.60428882274201 l -9.808089629569292,36.60428882274201 l 2.3204330975420553e-15,-37.895548319035846 l -2.3204330975420553e-15,37.895548319035846 l -9.808089629569295,-36.60428882274201 l 9.808089629569295,36.60428882274201 l -18.947774159517913,-32.818507534625724 l 18.947774159517913,32.818507534625724 l -26.79619919317271,-26.79619919317272 l 26.79619919317271,26.79619919317272 l -32.818507534625724,-18.94777415951792 l 32.818507534625724,18.94777415951792 l -36.60428882274201,-9.808089629569302 l 36.60428882274201,9.808089629569302 l -37.895548319035846,-4.640866195084111e-15 l 37.895548319035846,4.640866195084111e-15 l -36.604288822742014,9.808089629569277 l 36.604288822742014,-9.808089629569277 l -32.818507534625724,18.947774159517927 l 32.818507534625724,-18.947774159517927 l -26.796199193172722,26.79619919317271 l 26.796199193172722,-26.79619919317271 l -18.947774159517937,32.81850753462571 l 18.947774159517937,-32.81850753462571 l -9.808089629569288,36.60428882274201 l 9.808089629569288,-36.60428882274201 l -6.961299292626166e-15,37.895548319035846 l 6.961299292626166e-15,-37.895548319035846 l 9.808089629569274,36.604288822742014 l -9.808089629569274,-36.604288822742014 l 18.947774159517923,32.818507534625724 l -18.947774159517923,-32.818507534625724 l 26.79619919317271,26.796199193172722 l -26.79619919317271,-26.796199193172722 l 32.81850753462571,18.947774159517937 l -32.81850753462571,-18.947774159517937 l 36.60428882274201,9.80808962956929 l -36.60428882274201,-9.80808962956929 l 37.895548319035846,9.281732390168221e-15 l -37.895548319035846,-9.281732390168221e-15 l 36.60428882274201,-9.808089629569306 l 36.60428882274201,-9.808089629569306 l -36.60428882274201,9.808089629569306 l 32.81850753462574,-18.947774159517895 l -32.81850753462574,18.947774159517895 l 26.796199193172722,-26.79619919317271 l -26.796199193172722,26.79619919317271 l 18.947774159517913,-32.818507534625724 l -18.947774159517913,32.818507534625724 l 9.808089629569325,-36.60428882274201 l -9.808089629569325,36.60428882274201 l 1.1602165487710277e-14,-37.895548319035846 l -1.1602165487710277e-14,37.895548319035846 l -9.808089629569269,-36.604288822742014 l 9.808089629569269,36.604288822742014 l -18.947774159517888,-32.818507534625745 l 18.947774159517888,32.818507534625745 l -26.796199193172686,-26.79619919317275 l 26.796199193172686,26.79619919317275 l -32.818507534625724,-18.947774159517913 l 32.818507534625724,18.947774159517913 l -36.60428882274201,-9.808089629569295 l 36.60428882274201,9.808089629569295 l -37.895548319035846,-1.3922598585252332e-14 l 37.895548319035846,1.3922598585252332e-14 l -36.604288822742014,9.808089629569267 l 36.604288822742014,-9.808089629569267 l -32.818507534625745,18.947774159517888 l 32.818507534625745,-18.947774159517888 l -26.796199193172708,26.79619919317273 l 26.796199193172708,-26.79619919317273 l -18.947774159517916,32.818507534625724 l 18.947774159517916,-32.818507534625724 l -9.808089629569299,36.60428882274201 l 9.808089629569299,-36.60428882274201 l -1.6243031682794387e-14,37.895548319035846 l 1.6243031682794387e-14,-37.895548319035846 l 9.808089629569265,36.604288822742014 l -9.808089629569265,-36.604288822742014 l 18.947774159517888,32.818507534625745 l -18.947774159517888,-32.818507534625745 l 26.79619919317268,26.79619919317275 l -26.79619919317268,-26.79619919317275 l 32.818507534625724,18.947774159517916 l -32.818507534625724,-18.947774159517916 l 36.60428882274201,9.8080896295693 l -36.60428882274201,-9.8080896295693 l 37.895548319035846,1.8563464780336443e-14 l -37.895548319035846,-1.8563464780336443e-14 l 36.60428882274202,-9.808089629569261 l -36.60428882274202,9.808089629569261 l 32.8185075346257,-18.947774159517945 l 32.8185075346257,-18.947774159517945 l -32.8185075346257,18.947774159517945 l 26.796199193172708,-26.79619919317273 l -26.796199193172708,26.79619919317273 l 18.947774159517976,-32.81850753462569 l -18.947774159517976,32.81850753462569 l 9.808089629569302,-36.60428882274201 l -9.808089629569302,36.60428882274201 l 2.0883897877878498e-14,-37.895548319035846 l -2.0883897877878498e-14,37.895548319035846 l -9.808089629569261,-36.60428882274202 l 9.808089629569261,36.60428882274202 l -18.947774159517945,-32.81850753462571 l 18.947774159517945,32.81850753462571 l -26.796199193172676,-26.796199193172754 l 26.796199193172676,26.796199193172754 l -32.81850753462569,-18.94777415951798 l 32.81850753462569,18.94777415951798 l -36.60428882274201,-9.808089629569304 l 36.60428882274201,9.808089629569304 l -37.895548319035846,-2.3204330975420553e-14 l 37.895548319035846,2.3204330975420553e-14 l -36.60428882274202,9.808089629569258 l 36.60428882274202,-9.808089629569258 l -32.818507534625745,18.947774159517877 l 32.818507534625745,-18.947774159517877 l -26.79619919317271,26.796199193172722 l 26.79619919317271,-26.796199193172722 l -18.94777415951798,32.81850753462569 l 18.94777415951798,-32.81850753462569 l -9.808089629569306,36.60428882274201 l 9.808089629569306,-36.60428882274201 l -9.28407805123046e-14,37.895548319035846 l 9.28407805123046e-14,-37.895548319035846 l 9.808089629569256,36.60428882274202 l -9.808089629569256,-36.60428882274202 l 18.947774159517937,32.81850753462571 l -18.947774159517937,-32.81850753462571 l 26.796199193172676,26.79619919317276 l -26.796199193172676,-26.79619919317276 l 32.818507534625724,18.947774159517927 l -32.818507534625724,-18.947774159517927 l 36.60428882274203,9.808089629569244 l -36.60428882274203,-9.808089629569244 l 37.895548319035846,2.7845197170504664e-14 l -37.895548319035846,-2.7845197170504664e-14 l 36.604288822742035,-9.80808962956919 l -36.604288822742035,9.80808962956919 l 32.818507534625745,-18.947774159517877 l -32.818507534625745,18.947774159517877 l 26.79619919317271,-26.79619919317272 l 26.79619919317271,-26.79619919317272 l -26.79619919317271,26.79619919317272 l 18.947774159517984,-32.81850753462569 l -18.947774159517984,32.81850753462569 l 9.808089629569311,-36.60428882274201 l -9.808089629569311,36.60428882274201 l -3.715038617129526e-14,-37.895548319035846 l 3.715038617129526e-14,37.895548319035846 l -9.808089629569254,-36.60428882274202 l 9.808089629569254,36.60428882274202 l -18.947774159517934,-32.81850753462572 l 18.947774159517934,32.81850753462572 l -26.796199193172676,-26.796199193172768 l 26.796199193172676,26.796199193172768 l -32.81850753462572,-18.94777415951793 l 32.81850753462572,18.94777415951793 l -36.60428882274203,-9.808089629569247 l 36.60428882274203,9.808089629569247 l -37.895548319035846,-3.2486063365588774e-14 l 37.895548319035846,3.2486063365588774e-14 l -36.60428882274204,9.808089629569187 l 36.60428882274204,-9.808089629569187 l -32.818507534625745,18.947774159517873 l 32.818507534625745,-18.947774159517873 l -26.79619919317271,26.79619919317272 l 26.79619919317271,-26.79619919317272 l -18.94777415951799,32.81850753462568 l 18.94777415951799,-32.81850753462568 l -9.808089629569318,36.60428882274201 l 9.808089629569318,-36.60428882274201 l -1.021225129024728e-13,37.895548319035846 l 1.021225129024728e-13,-37.895548319035846 l 9.808089629569247,36.60428882274203 l -9.808089629569247,-36.60428882274203 l 18.94777415951793,32.81850753462572 l -18.94777415951793,-32.81850753462572 l 26.796199193172665,26.796199193172768 l -26.796199193172665,-26.796199193172768 l 32.81850753462572,18.947774159517934 l -32.81850753462572,-18.947774159517934 l 36.60428882274202,9.808089629569254 l -36.60428882274202,-9.808089629569254 l 37.895548319035846,3.7126929560672885e-14 l -37.895548319035846,-3.7126929560672885e-14 l 36.60428882274201,-9.808089629569311 l -36.60428882274201,9.808089629569311 l 32.81850753462575,-18.947774159517866 l -32.81850753462575,18.947774159517866 l 26.796199193172722,-26.79619919317271 l -26.796199193172722,26.79619919317271 l 18.947774159517877,-32.818507534625745 l 18.947774159517877,-32.818507534625745 l -18.947774159517877,32.818507534625745 l 9.80808962956945,-36.60428882274197 l -9.80808962956945,36.60428882274197 l -2.7868653781127044e-14,-37.895548319035846 l 2.7868653781127044e-14,37.895548319035846 l -9.808089629569373,-36.604288822741985 l 9.808089629569373,36.604288822741985 l -18.94777415951781,-32.81850753462579 l 18.94777415951781,32.81850753462579 l -26.796199193172665,-26.79619919317277 l 26.796199193172665,26.79619919317277 l -32.81850753462571,-18.947774159517937 l 32.81850753462571,18.947774159517937 l -36.604288822741985,-9.808089629569386 l 36.604288822741985,9.808089629569386 l -37.895548319035846,-4.1767795755756996e-14 l 37.895548319035846,4.1767795755756996e-14 l -36.60428882274201,9.808089629569306 l 36.60428882274201,-9.808089629569306 l -32.81850753462575,18.947774159517866 l 32.81850753462575,-18.947774159517866 l -26.796199193172722,26.79619919317271 l 26.796199193172722,-26.79619919317271 l -18.947774159517877,32.818507534625745 l 18.947774159517877,-32.818507534625745 l -9.808089629569453,36.604288822741964 l 9.808089629569453,-36.604288822741964 l -1.1140424529264103e-13,37.895548319035846 l 1.1140424529264103e-13,-37.895548319035846 l 9.80808962956937,36.604288822741985 l -9.80808962956937,-36.604288822741985 l 18.947774159517806,32.81850753462579 l -18.947774159517806,-32.81850753462579 l 26.796199193172658,26.79619919317277 l -26.796199193172658,-26.79619919317277 l 32.81850753462571,18.947774159517945 l -32.81850753462571,-18.947774159517945 l 36.60428882274198,9.80808962956939 l -36.60428882274198,-9.80808962956939 l 37.895548319035846,4.6408661950841106e-14 l -37.895548319035846,-4.6408661950841106e-14 l 36.60428882274201,-9.808089629569302 l -36.60428882274201,9.808089629569302 l 32.81850753462576,-18.947774159517863 l -32.81850753462576,18.947774159517863 l 26.796199193172825,-26.796199193172615 l -26.796199193172825,26.796199193172615 l 18.947774159518005,-32.818507534625674 l -18.947774159518005,32.818507534625674 l 9.808089629569329,-36.604288822742 l 9.808089629569329,-36.604288822742 l -9.808089629569329,36.604288822742 l -1.8586921390958826e-14,-37.895548319035846 l 1.8586921390958826e-14,37.895548319035846 l -9.808089629569366,-36.604288822741985 l 9.808089629569366,36.604288822741985 l -18.9477741595178,-32.81850753462579 l 18.9477741595178,32.81850753462579 l -26.796199193172654,-26.79619919317278 l 26.796199193172654,26.79619919317278 l -32.8185075346257,-18.947774159517945 l 32.8185075346257,18.947774159517945 l -36.60428882274195,-9.808089629569524 l 36.60428882274195,9.808089629569524 l -37.895548319035846,-1.856815610246092e-13 l 37.895548319035846,1.856815610246092e-13 l -36.60428882274197,9.808089629569428 l 36.60428882274197,-9.808089629569428 l -32.81850753462576,18.94777415951786 l 32.81850753462576,-18.94777415951786 l -26.79619919317273,26.796199193172708 l 26.79619919317273,-26.796199193172708 l -18.947774159517888,32.818507534625745 l 18.947774159517888,-32.818507534625745 l -9.808089629569462,36.604288822741964 l 9.808089629569462,-36.604288822741964 l -1.2068597768280925e-13,37.895548319035846 l 1.2068597768280925e-13,-37.895548319035846 l 9.808089629569231,36.60428882274203 l -9.808089629569231,-36.60428882274203 l 18.947774159517913,32.818507534625724 l -18.947774159517913,-32.818507534625724 l 26.79619919317275,26.796199193172686 l -26.79619919317275,-26.796199193172686 l 32.81850753462577,18.947774159517834 l -32.81850753462577,-18.947774159517834 l 36.60428882274198,9.8080896295694 l -36.60428882274198,-9.8080896295694 l 37.895548319035846,5.569039434100933e-14 l -37.895548319035846,-5.569039434100933e-14 l 36.60428882274201,-9.808089629569295 l -36.60428882274201,9.808089629569295 l 32.81850753462583,-18.94777415951774 l -32.81850753462583,18.94777415951774 l 26.796199193172825,-26.796199193172605 l -26.796199193172825,26.796199193172605 l 18.947774159518012,-32.81850753462567 l -18.947774159518012,32.81850753462567 l 9.808089629569338,-36.604288822742 l -9.808089629569338,36.604288822742 l -9.305189000790603e-15,-37.895548319035846 l -9.305189000790603e-15,-37.895548319035846 l 9.305189000790603e-15,37.895548319035846 l -9.808089629569356,-36.60428882274199 l 9.808089629569356,36.60428882274199 l -18.94777415951779,-32.818507534625795 l 18.94777415951779,32.818507534625795 l -26.796199193172654,-26.796199193172782 l 26.796199193172654,26.796199193172782 l -32.8185075346257,-18.94777415951795 l 32.8185075346257,18.94777415951795 l -36.60428882274194,-9.808089629569535 l 36.60428882274194,9.808089629569535 l -37.895548319035846,7.430077234259052e-14 l 37.895548319035846,-7.430077234259052e-14 l -36.60428882274198,9.808089629569418 l 36.60428882274198,-9.808089629569418 l -32.818507534625766,18.94777415951785 l 32.818507534625766,-18.94777415951785 l -26.796199193172733,26.796199193172697 l 26.796199193172733,-26.796199193172697 l -18.9477741595179,32.81850753462574 l 18.9477741595179,-32.81850753462574 l -9.808089629569473,36.60428882274196 l 9.808089629569473,-36.60428882274196 l -1.2996771007297748e-13,37.895548319035846 l 1.2996771007297748e-13,-37.895548319035846 l 9.80808962956922,36.60428882274203 l -9.80808962956922,-36.60428882274203 l 18.947774159517905,32.81850753462573 l -18.947774159517905,-32.81850753462573 l 26.796199193172743,26.79619919317269 l -26.796199193172743,-26.79619919317269 l 32.818507534625766,18.94777415951784 l -32.818507534625766,-18.94777415951784 l 36.60428882274198,9.808089629569409 l -36.60428882274198,-9.808089629569409 l 37.895548319035846,6.497212673117755e-14 l -37.895548319035846,-6.497212673117755e-14 l 36.60428882274201,-9.808089629569285 l -36.60428882274201,9.808089629569285 l 32.81850753462583,-18.94777415951773 l -32.81850753462583,18.94777415951773 l 26.796199193172832,-26.7961991931726 l -26.796199193172832,26.7961991931726 l 18.94777415951802,-32.81850753462567 l -18.94777415951802,32.81850753462567 l 9.808089629569347,-36.60428882274199 l -9.808089629569347,36.60428882274199 l -2.3456610622381672e-17,-37.895548319035846 l 2.3456610622381672e-17,37.895548319035846 l -9.808089629569347,-36.60428882274199 l -9.808089629569347,-36.60428882274199 l 9.808089629569347,36.60428882274199 l -18.947774159517785,-32.8185075346258 l 18.947774159517785,32.8185075346258 l -26.796199193172644,-26.79619919317279 l 26.796199193172644,26.79619919317279 l -32.8185075346257,-18.947774159517966 l 32.8185075346257,18.947774159517966 l -36.60428882274194,-9.808089629569544 l 36.60428882274194,9.808089629569544 l -37.895548319035846,-2.042450258049456e-13 l 37.895548319035846,2.042450258049456e-13 l -36.60428882274198,9.808089629569409 l 36.60428882274198,-9.808089629569409 l -32.818507534625766,18.94777415951784 l 32.818507534625766,-18.94777415951784 l -26.796199193172743,26.79619919317269 l 26.796199193172743,-26.79619919317269 l -18.947774159517905,32.81850753462573 l 18.947774159517905,-32.81850753462573 l -9.808089629569482,36.60428882274196 l 9.808089629569482,-36.60428882274196 l -1.392494424631457e-13,37.895548319035846 l 1.392494424631457e-13,-37.895548319035846 l 9.808089629569212,36.60428882274203 l -9.808089629569212,-36.60428882274203 l 18.9477741595179,32.81850753462574 l -18.9477741595179,-32.81850753462574 l 26.796199193172733,26.796199193172697 l -26.796199193172733,-26.796199193172697 l 32.818507534625766,18.94777415951785 l -32.818507534625766,-18.94777415951785 l 36.60428882274198,9.808089629569418 l -36.60428882274198,-9.808089629569418 l 37.895548319035846,7.425385912134577e-14 l -37.895548319035846,-7.425385912134577e-14 l 36.604288822742085,-9.808089629569016 l -36.604288822742085,9.808089629569016 l 32.8185075346257,-18.94777415951795 l -32.8185075346257,18.94777415951795 l 26.796199193172843,-26.796199193172594 l -26.796199193172843,26.796199193172594 l 18.947774159518026,-32.81850753462566 l -18.947774159518026,32.81850753462566 l 9.808089629569356,-36.60428882274199 l -9.808089629569356,36.60428882274199 l 9.25827577954584e-15,-37.895548319035846 l -9.25827577954584e-15,37.895548319035846 l -9.808089629569078,-36.60428882274207 l 9.808089629569078,36.60428882274207 l -18.947774159518012,-32.81850753462567 l -18.947774159518012,-32.81850753462567 l 18.947774159518012,32.81850753462567 l -26.796199193172637,-26.7961991931728 l 26.796199193172637,26.7961991931728 l -32.81850753462556,-18.947774159518204 l 32.81850753462556,18.947774159518204 l -36.60428882274201,-9.808089629569295 l 36.60428882274201,9.808089629569295 l -37.895548319035846,5.573730756225409e-14 l 37.895548319035846,-5.573730756225409e-14 l -36.60428882274205,9.808089629569139 l 36.60428882274205,-9.808089629569139 l -32.81850753462563,18.947774159518065 l 32.81850753462563,-18.947774159518065 l -26.79619919317275,26.796199193172686 l 26.79619919317275,-26.796199193172686 l -18.947774159518143,32.81850753462559 l 18.947774159518143,-32.81850753462559 l -9.808089629569231,36.60428882274203 l 9.808089629569231,-36.60428882274203 l -1.4853117485331392e-13,37.895548319035846 l 1.4853117485331392e-13,-37.895548319035846 l 9.808089629569201,36.60428882274203 l -9.808089629569201,-36.60428882274203 l 18.947774159517888,32.818507534625745 l -18.947774159517888,-32.818507534625745 l 26.79619919317273,26.796199193172708 l -26.79619919317273,-26.796199193172708 l 32.818507534625624,18.94777415951809 l -32.818507534625624,-18.94777415951809 l 36.60428882274205,9.808089629569167 l -36.60428882274205,-9.808089629569167 l 37.895548319035846,8.353559151151399e-14 l -37.895548319035846,-8.353559151151399e-14 l 36.604288822742085,-9.808089629569006 l -36.604288822742085,9.808089629569006 l 32.8185075346257,-18.947774159517945 l -32.8185075346257,18.947774159517945 l 26.796199193172846,-26.796199193172583 l -26.796199193172846,26.796199193172583 l 18.947774159518033,-32.81850753462565 l -18.947774159518033,32.81850753462565 l 9.808089629569366,-36.604288822741985 l -9.808089629569366,36.604288822741985 l 1.8540008169714062e-14,-37.895548319035846 l -1.8540008169714062e-14,37.895548319035846 l -9.808089629569068,-36.60428882274207 l 9.808089629569068,36.60428882274207 l -18.947774159518005,-32.818507534625674 l 18.947774159518005,32.818507534625674 l -26.796199193172633,-26.796199193172804 l -26.796199193172633,-26.796199193172804 l 26.796199193172633,26.796199193172804 l -32.81850753462555,-18.94777415951821 l 32.81850753462555,18.94777415951821 l -36.60428882274201,-9.808089629569302 l 36.60428882274201,9.808089629569302 l -37.895548319035846,-2.2280849058528205e-13 l 37.895548319035846,2.2280849058528205e-13 l -36.60428882274205,9.808089629569132 l 36.60428882274205,-9.808089629569132 l -32.818507534625645,18.947774159518055 l 32.818507534625645,-18.947774159518055 l -26.796199193172754,26.796199193172676 l 26.796199193172754,-26.796199193172676 l -18.947774159518158,32.81850753462559 l 18.947774159518158,-32.81850753462559 l -9.80808962956924,36.60428882274203 l 9.80808962956924,-36.60428882274203 l -1.5781290724348213e-13,37.895548319035846 l 1.5781290724348213e-13,-37.895548319035846 l 9.808089629569196,36.604288822742035 l -9.808089629569196,-36.604288822742035 l 18.947774159517877,32.818507534625745 l -18.947774159517877,-32.818507534625745 l 26.796199193172722,26.79619919317271 l -26.796199193172722,-26.79619919317271 l 32.81850753462562,18.9477741595181 l -32.81850753462562,-18.9477741595181 l 36.60428882274204,9.808089629569176 l -36.60428882274204,-9.808089629569176 l 37.895548319035846,9.281732390168221e-14 l -37.895548319035846,-9.281732390168221e-14 l 36.60428882274209,-9.808089629568997 l -36.60428882274209,9.808089629568997 l 32.81850753462571,-18.947774159517937 l -32.81850753462571,18.947774159517937 l 26.796199193172853,-26.796199193172576 l -26.796199193172853,26.796199193172576 l 18.947774159518044,-32.81850753462565 l -18.947774159518044,32.81850753462565 l 9.808089629569373,-36.604288822741985 l -9.808089629569373,36.604288822741985 l 2.9708580631725023e-13,-37.895548319035846 l -2.9708580631725023e-13,37.895548319035846 l -9.808089629569318,-36.60428882274201 l 9.808089629569318,36.60428882274201 l -18.94777415951776,-32.818507534625816 l 18.94777415951776,32.818507534625816 l -26.796199193172814,-26.796199193172615 l 26.796199193172814,26.796199193172615 l -32.81850753462569,-18.947774159517984 l -32.81850753462569,-18.947774159517984 l 32.81850753462569,18.947774159517984 l -36.60428882274207,-9.80808962956905 l 36.60428882274207,9.80808962956905 l -37.895548319035846,3.717384278191765e-14 l 37.895548319035846,-3.717384278191765e-14 l -36.604288822742056,9.808089629569123 l 36.604288822742056,-9.808089629569123 l -32.81850753462565,18.94777415951805 l 32.81850753462565,-18.94777415951805 l -26.796199193172768,26.796199193172676 l 26.796199193172768,-26.796199193172676 l -18.94777415951817,32.81850753462558 l 18.94777415951817,-32.81850753462558 l -9.808089629569247,36.60428882274203 l 9.808089629569247,-36.60428882274203 l -1.6709463963365037e-13,37.895548319035846 l 1.6709463963365037e-13,-37.895548319035846 l 9.808089629568926,36.604288822742106 l -9.808089629568926,-36.604288822742106 l 18.947774159517873,32.818507534625745 l -18.947774159517873,-32.818507534625745 l 26.79619919317253,26.796199193172907 l -26.79619919317253,-26.796199193172907 l 32.818507534625475,18.94777415951834 l -32.818507534625475,-18.94777415951834 l 36.60428882274197,9.808089629569446 l -36.60428882274197,-9.808089629569446 l 37.895548319035846,3.713631220492184e-13 l -37.895548319035846,-3.713631220492184e-13 l 36.60428882274203,-9.808089629569247 l -36.60428882274203,9.808089629569247 l 32.81850753462558,-18.94777415951817 l -32.81850753462558,18.94777415951817 l 26.796199193172676,-26.796199193172768 l -26.796199193172676,26.796199193172768 l 18.94777415951805,-32.81850753462565 l -18.94777415951805,32.81850753462565 l 9.808089629569123,-36.604288822742056 l -9.808089629569123,36.604288822742056 l 3.71034729500505e-14,-37.895548319035846 l -3.71034729500505e-14,37.895548319035846 l -9.80808962956905,-36.60428882274207 l 9.80808962956905,36.60428882274207 l -18.947774159517984,-32.81850753462569 l 18.947774159517984,32.81850753462569 l -26.796199193172622,-26.796199193172814 l 26.796199193172622,26.796199193172814 l -32.818507534625546,-18.94777415951822 l 32.818507534625546,18.94777415951822 l -36.60428882274201,-9.808089629569318 l -36.60428882274201,-9.808089629569318 l 36.60428882274201,9.808089629569318 l -37.895548319035846,-2.413719553656185e-13 l 37.895548319035846,2.413719553656185e-13 l -36.60428882274213,9.808089629568851 l 36.60428882274213,-9.808089629568851 l -32.81850753462579,18.94777415951781 l 32.81850753462579,-18.94777415951781 l -26.79619919317296,26.796199193172477 l 26.79619919317296,-26.796199193172477 l -18.947774159517937,32.81850753462571 l 18.947774159517937,-32.81850753462571 l -9.808089629569517,36.60428882274195 l 9.808089629569517,-36.60428882274195 l 9.288769373354935e-14,37.895548319035846 l -9.288769373354935e-14,-37.895548319035846 l 9.808089629569176,36.60428882274204 l -9.808089629569176,-36.60428882274204 l 18.9477741595181,32.81850753462562 l -18.9477741595181,-32.81850753462562 l 26.79619919317271,26.796199193172722 l -26.79619919317271,-26.796199193172722 l 32.81850753462561,18.94777415951811 l -32.81850753462561,-18.94777415951811 l 36.604288822742035,9.808089629569196 l -36.604288822742035,-9.808089629569196 l 37.895548319035846,1.1138078868201866e-13 l -37.895548319035846,-1.1138078868201866e-13 l 36.60428882274209,-9.808089629568979 l -36.60428882274209,9.808089629568979 l 32.818507534625724,-18.947774159517923 l -32.818507534625724,18.947774159517923 l 26.796199193172868,-26.796199193172566 l -26.796199193172868,26.796199193172566 l 18.947774159518293,-32.81850753462551 l -18.947774159518293,32.81850753462551 l 9.80808962956939,-36.60428882274198 l -9.80808962956939,36.60428882274198 l 3.156492710975867e-13,-37.895548319035846 l -3.156492710975867e-13,37.895548319035846 l -9.808089629569302,-36.60428882274201 l 9.808089629569302,36.60428882274201 l -18.947774159517746,-32.81850753462582 l 18.947774159517746,32.81850753462582 l -26.7961991931728,-26.796199193172637 l 26.7961991931728,26.796199193172637 l -32.818507534625674,-18.947774159518005 l 32.818507534625674,18.947774159518005 l -36.60428882274207,-9.808089629569068 l 36.60428882274207,9.808089629569068 l -37.895548319035846,1.8610378001581206e-14 l -37.895548319035846,1.8610378001581206e-14 l 37.895548319035846,-1.8610378001581206e-14 l -36.60428882274206,9.808089629569105 l 36.60428882274206,-9.808089629569105 l -32.81850753462565,18.947774159518033 l 32.81850753462565,-18.947774159518033 l -26.79619919317277,26.796199193172654 l 26.79619919317277,-26.796199193172654 l -18.94777415951818,32.81850753462557 l 18.94777415951818,-32.81850753462557 l -9.808089629569265,36.604288822742014 l 9.808089629569265,-36.604288822742014 l -1.8565810441398678e-13,37.895548319035846 l 1.8565810441398678e-13,-37.895548319035846 l 9.808089629568906,36.60428882274211 l -9.808089629568906,-36.60428882274211 l 18.94777415951786,32.81850753462576 l -18.94777415951786,-32.81850753462576 l 26.796199193172512,26.79619919317292 l -26.796199193172512,-26.79619919317292 l 32.818507534625475,18.947774159518357 l -32.818507534625475,-18.947774159518357 l 36.604288822741964,9.808089629569462 l -36.604288822741964,-9.808089629569462 l 37.895548319035846,-1.4860154468518105e-13 l -37.895548319035846,1.4860154468518105e-13 l 36.60428882274203,-9.808089629569231 l -36.60428882274203,9.808089629569231 l 32.81850753462559,-18.947774159518143 l -32.81850753462559,18.947774159518143 l 26.796199193172686,-26.79619919317275 l -26.796199193172686,26.79619919317275 l 18.947774159518065,-32.81850753462563 l -18.947774159518065,32.81850753462563 l 9.808089629569139,-36.60428882274205 l -9.808089629569139,36.60428882274205 l 5.5666937730386944e-14,-37.895548319035846 l -5.5666937730386944e-14,37.895548319035846 l -9.808089629569034,-36.60428882274208 l 9.808089629569034,36.60428882274208 l -18.947774159517973,-32.818507534625695 l 18.947774159517973,32.818507534625695 l -26.796199193172605,-26.796199193172825 l 26.796199193172605,26.796199193172825 l -32.81850753462553,-18.947774159518247 l 32.81850753462553,18.947774159518247 l -36.604288822742,-9.808089629569338 l 36.604288822742,9.808089629569338 l -37.895548319035846,-2.5993542014595496e-13 l 37.895548319035846,2.5993542014595496e-13 l -36.604288822742134,9.808089629568835 l -36.604288822742134,9.808089629568835 l 36.604288822742134,-9.808089629568835 l -32.818507534625795,18.94777415951779 l 32.818507534625795,-18.94777415951779 l -26.796199193172978,26.79619919317246 l 26.796199193172978,-26.79619919317246 l -18.94777415951795,32.8185075346257 l 18.94777415951795,-32.8185075346257 l -9.808089629569535,36.60428882274194 l 9.808089629569535,-36.60428882274194 l 7.432422895321291e-14,37.895548319035846 l -7.432422895321291e-14,-37.895548319035846 l 9.808089629569157,36.60428882274205 l -9.808089629569157,-36.60428882274205 l 18.947774159518087,32.81850753462563 l -18.947774159518087,-32.81850753462563 l 26.796199193172697,26.796199193172733 l -26.796199193172697,-26.796199193172733 l 32.8185075346256,18.947774159518133 l -32.8185075346256,-18.947774159518133 l 36.60428882274203,9.808089629569212 l -36.60428882274203,-9.808089629569212 l 37.895548319035846,1.299442534623551e-13 l -37.895548319035846,-1.299442534623551e-13 l 36.6042888227421,-9.80808962956896 l -36.6042888227421,9.80808962956896 l 32.81850753462573,-18.947774159517905 l -32.81850753462573,18.947774159517905 l 26.796199193172885,-26.796199193172555 l -26.796199193172885,26.796199193172555 l 18.947774159518303,-32.818507534625496 l -18.947774159518303,32.818507534625496 l 9.808089629569409,-36.60428882274198 l -9.808089629569409,36.60428882274198 l 3.342127358779231e-13,-37.895548319035846 l -3.342127358779231e-13,37.895548319035846 l -9.808089629569285,-36.60428882274201 l 9.808089629569285,36.60428882274201 l -18.94777415951773,-32.81850753462583 l 18.94777415951773,32.81850753462583 l -26.79619919317279,-26.796199193172647 l 26.79619919317279,26.796199193172647 l -32.81850753462567,-18.94777415951802 l 32.81850753462567,18.94777415951802 l -36.60428882274207,-9.808089629569086 l 36.60428882274207,9.808089629569086 l -37.895548319035846,4.6913221244763344e-17 l 37.895548319035846,-4.6913221244763344e-17 l -36.60428882274207,9.808089629569086 l 36.60428882274207,-9.808089629569086 l -32.81850753462567,18.94777415951802 l -32.81850753462567,18.94777415951802 l 32.81850753462567,-18.94777415951802 l -26.79619919317279,26.796199193172647 l 26.79619919317279,-26.796199193172647 l -18.947774159518197,32.81850753462557 l 18.947774159518197,-32.81850753462557 l -9.808089629569285,36.60428882274201 l 9.808089629569285,-36.60428882274201 l -2.0422156919432323e-13,37.895548319035846 l 2.0422156919432323e-13,-37.895548319035846 l 9.80808962956889,36.60428882274211 l -9.80808962956889,-36.60428882274211 l 18.94777415951784,32.818507534625766 l -18.94777415951784,-32.818507534625766 l 26.7961991931725,26.796199193172935 l -26.7961991931725,-26.796199193172935 l 32.81850753462546,18.94777415951837 l -32.81850753462546,-18.94777415951837 l 36.60428882274196,9.808089629569482 l -36.60428882274196,-9.808089629569482 l 37.895548319035846,4.084900516098912e-13 l -37.895548319035846,-4.084900516098912e-13 l 36.60428882274203,-9.808089629569212 l -36.60428882274203,9.808089629569212 l 32.8185075346256,-18.947774159518133 l -32.8185075346256,18.947774159518133 l 26.796199193172697,-26.796199193172733 l -26.796199193172697,26.796199193172733 l 18.947774159518087,-32.81850753462563 l -18.947774159518087,32.81850753462563 l 9.808089629569157,-36.60428882274205 l -9.808089629569157,36.60428882274205 l 7.423040251072339e-14,-37.895548319035846 l -7.423040251072339e-14,37.895548319035846 l -9.808089629569016,-36.604288822742085 l 9.808089629569016,36.604288822742085 l -18.94777415951795,-32.8185075346257 l 18.94777415951795,32.8185075346257 l -26.796199193172594,-26.796199193172843 l 26.796199193172594,26.796199193172843 l -32.818507534625525,-18.947774159518257 l 32.818507534625525,18.947774159518257 l -36.60428882274199,-9.808089629569356 l 36.60428882274199,9.808089629569356 l -37.895548319035846,-2.784988849262914e-13 l 37.895548319035846,2.784988849262914e-13 l -36.604288822742134,9.808089629568817 l 36.604288822742134,-9.808089629568817 l -32.8185075346258,18.947774159517778 l 32.8185075346258,-18.947774159517778 l -26.79619919317298,26.79619919317245 l -26.79619919317298,26.79619919317245 l 26.79619919317298,-26.79619919317245 l -18.947774159517973,32.818507534625695 l 18.947774159517973,-32.818507534625695 l -9.808089629569553,36.604288822741935 l 9.808089629569553,-36.604288822741935 l 5.576076417287647e-14,37.895548319035846 l -5.576076417287647e-14,-37.895548319035846 l 9.80808962956914,36.60428882274205 l -9.80808962956914,-36.60428882274205 l 18.947774159518065,32.81850753462563 l -18.947774159518065,-32.81850753462563 l 26.796199193172686,26.79619919317275 l -26.796199193172686,-26.79619919317275 l 32.81850753462559,18.947774159518143 l -32.81850753462559,-18.947774159518143 l 36.60428882274203,9.808089629569231 l -36.60428882274203,-9.808089629569231 l 37.895548319035846,1.4850771824269154e-13 l -37.895548319035846,-1.4850771824269154e-13 l 36.604288822741964,-9.808089629569462 l -36.604288822741964,9.808089629569462 l 32.81850753462601,-18.947774159517426 l -32.81850753462601,18.947774159517426 l 26.79619919317289,-26.79619919317254 l -26.79619919317289,26.79619919317254 l 18.94777415951786,-32.81850753462576 l -18.94777415951786,32.81850753462576 l 9.808089629569947,-36.604288822741836 l -9.808089629569947,36.604288822741836 l 3.5277620065825953e-13,-37.895548319035846 l -3.5277620065825953e-13,37.895548319035846 l -9.808089629569265,-36.604288822742014 l 9.808089629569265,36.604288822742014 l -18.94777415951771,-32.81850753462584 l 18.94777415951771,32.81850753462584 l -26.79619919317277,-26.796199193172654 l 26.79619919317277,26.796199193172654 l -32.81850753462565,-18.947774159518033 l 32.81850753462565,18.947774159518033 l -36.60428882274192,-9.808089629569624 l 36.60428882274192,9.808089629569624 l -37.895548319035846,-1.851655155909168e-14 l 37.895548319035846,1.851655155909168e-14 l -36.604288822741935,9.808089629569588 l 36.604288822741935,-9.808089629569588 l -32.818507534625944,18.947774159517536 l 32.818507534625944,-18.947774159517536 l -26.7961991931728,26.796199193172637 l 26.7961991931728,-26.796199193172637 l -18.947774159517746,32.81850753462582 l -18.947774159517746,32.81850753462582 l 18.947774159517746,-32.81850753462582 l -9.808089629569823,36.60428882274187 l 9.808089629569823,-36.60428882274187 l -2.227850339746597e-13,37.895548319035846 l 2.227850339746597e-13,-37.895548319035846 l 9.80808962956939,36.60428882274198 l -9.80808962956939,-36.60428882274198 l 18.94777415951736,32.81850753462605 l -18.94777415951736,-32.81850753462605 l 26.796199193172487,26.79619919317295 l -26.796199193172487,-26.79619919317295 l 32.818507534625724,18.947774159517923 l -32.818507534625724,-18.947774159517923 l 36.60428882274196,9.808089629569498 l -36.60428882274196,-9.808089629569498 l 37.895548319035846,-1.1147461512450818e-13 l -37.895548319035846,1.1147461512450818e-13 l 36.604288822742035,-9.808089629569196 l -36.604288822742035,9.808089629569196 l 32.81850753462588,-18.947774159517646 l -32.81850753462588,18.947774159517646 l 26.79619919317271,-26.796199193172722 l -26.79619919317271,26.796199193172722 l 18.947774159517632,-32.81850753462589 l -18.947774159517632,32.81850753462589 l 9.808089629569697,-36.6042888227419 l -9.808089629569697,36.6042888227419 l 9.279386729105984e-14,-37.895548319035846 l -9.279386729105984e-14,37.895548319035846 l -9.808089629569517,-36.60428882274195 l 9.808089629569517,36.60428882274195 l -18.947774159517472,-32.81850753462598 l 18.947774159517472,32.81850753462598 l -26.796199193172576,-26.796199193172857 l 26.796199193172576,26.796199193172857 l -32.81850753462579,-18.94777415951781 l 32.81850753462579,18.94777415951781 l -36.60428882274185,-9.808089629569894 l 36.60428882274185,9.808089629569894 l -37.895548319035846,-2.9706234970662785e-13 l 37.895548319035846,2.9706234970662785e-13 l -36.60428882274201,9.808089629569318 l 36.60428882274201,-9.808089629569318 l -32.818507534625816,18.94777415951776 l 32.818507534625816,-18.94777415951776 l -26.796199193173,26.796199193172434 l 26.796199193173,-26.796199193172434 l -18.947774159517984,32.81850753462569 l 18.947774159517984,-32.81850753462569 l -9.808089629569569,36.604288822741935 l -9.808089629569569,36.604288822741935 l 9.808089629569569,-36.604288822741935 l 3.719729939254003e-14,37.895548319035846 l -3.719729939254003e-14,-37.895548319035846 l 9.808089629569643,36.604288822741914 l -9.808089629569643,-36.604288822741914 l 18.947774159517586,32.81850753462592 l -18.947774159517586,-32.81850753462592 l 26.796199193172676,26.796199193172768 l -26.796199193172676,-26.796199193172768 l 32.81850753462585,18.9477741595177 l -32.81850753462585,-18.9477741595177 l 36.604288822741886,9.808089629569768 l -36.604288822741886,-9.808089629569768 l 37.895548319035846,1.6707118302302798e-13 l -37.895548319035846,-1.6707118302302798e-13 l 36.60428882274197,-9.808089629569446 l -36.60428882274197,9.808089629569446 l 32.818507534626015,-18.947774159517408 l -32.818507534626015,18.947774159517408 l 26.796199193172907,-26.796199193172523 l -26.796199193172907,26.796199193172523 l 18.947774159517873,-32.818507534625745 l -18.947774159517873,32.818507534625745 l 9.808089629569968,-36.60428882274183 l -9.808089629569968,36.60428882274183 l 3.71339665438596e-13,-37.895548319035846 l -3.71339665438596e-13,37.895548319035846 l -9.808089629569247,-36.60428882274203 l 9.808089629569247,36.60428882274203 l -18.9477741595177,-32.81850753462585 l 18.9477741595177,32.81850753462585 l -26.796199193172768,-26.796199193172676 l 26.796199193172768,26.796199193172676 l -32.81850753462565,-18.94777415951805 l 32.81850753462565,18.94777415951805 l -36.604288822741914,-9.808089629569643 l 36.604288822741914,9.808089629569643 l -37.895548319035846,-3.7080016339428125e-14 l 37.895548319035846,3.7080016339428125e-14 l -36.604288822741935,9.808089629569569 l 36.604288822741935,-9.808089629569569 l -32.81850753462596,18.94777415951752 l 32.81850753462596,-18.94777415951752 l -26.796199193172814,26.796199193172615 l 26.796199193172814,-26.796199193172615 l -18.94777415951776,32.818507534625816 l 18.94777415951776,-32.818507534625816 l -9.80808962956984,36.604288822741864 l 9.80808962956984,-36.604288822741864 l -2.4134849875499616e-13,37.895548319035846 l -2.4134849875499616e-13,37.895548319035846 l 2.4134849875499616e-13,-37.895548319035846 l 9.808089629569373,36.604288822741985 l -9.808089629569373,-36.604288822741985 l 18.947774159517344,32.81850753462606 l -18.947774159517344,-32.81850753462606 l 26.79619919317247,26.79619919317296 l -26.79619919317247,-26.79619919317296 l 32.81850753462571,18.947774159517937 l -32.81850753462571,-18.947774159517937 l 36.60428882274195,9.808089629569517 l -36.60428882274195,-9.808089629569517 l 37.895548319035846,4.456169811705641e-13 l -37.895548319035846,-4.456169811705641e-13 l 36.60428882274204,-9.808089629569176 l -36.60428882274204,9.808089629569176 l 32.81850753462589,-18.947774159517632 l -32.81850753462589,18.947774159517632 l 26.796199193172722,-26.79619919317271 l -26.796199193172722,26.79619919317271 l 18.947774159517646,-32.81850753462588 l -18.947774159517646,32.81850753462588 l 9.808089629569714,-36.60428882274189 l -9.808089629569714,36.60428882274189 l 1.1135733207139627e-13,-37.895548319035846 l -1.1135733207139627e-13,37.895548319035846 l -9.808089629569498,-36.60428882274196 l 9.808089629569498,36.60428882274196 l -18.947774159517454,-32.81850753462599 l 18.947774159517454,32.81850753462599 l -26.796199193172562,-26.796199193172868 l 26.796199193172562,26.796199193172868 l -32.81850753462578,-18.947774159517824 l 32.81850753462578,18.947774159517824 l -36.60428882274184,-9.808089629569913 l 36.60428882274184,9.808089629569913 l -37.895548319035846,-3.1562581448696426e-13 l 37.895548319035846,3.1562581448696426e-13 l -36.60428882274201,9.808089629569302 l 36.60428882274201,-9.808089629569302 l -32.81850753462582,18.947774159517746 l 32.81850753462582,-18.947774159517746 l -26.796199193173013,26.79619919317242 l 26.796199193173013,-26.79619919317242 l -18.947774159518005,32.818507534625674 l 18.947774159518005,-32.818507534625674 l -9.808089629569588,36.604288822741935 l 9.808089629569588,-36.604288822741935 l 1.863383461220359e-14,37.895548319035846 l -1.863383461220359e-14,-37.895548319035846 l 9.808089629569624,36.60428882274192 l 9.808089629569624,36.60428882274192 l -9.808089629569624,-36.60428882274192 l 18.947774159517568,32.81850753462592 l -18.947774159517568,-32.81850753462592 l 26.796199193172654,26.79619919317278 l -26.796199193172654,-26.79619919317278 l 32.81850753462584,18.94777415951771 l -32.81850753462584,-18.94777415951771 l 36.60428882274187,9.808089629569785 l -36.60428882274187,-9.808089629569785 l 37.895548319035846,1.8563464780336443e-13 l -37.895548319035846,-1.8563464780336443e-13 l 36.60428882274197,-9.808089629569428 l -36.60428882274197,9.808089629569428 l 32.81850753462603,-18.94777415951739 l -32.81850753462603,18.94777415951739 l 26.79619919317292,-26.796199193172512 l -26.79619919317292,26.796199193172512 l 18.947774159517888,-32.818507534625745 l -18.947774159517888,32.818507534625745 l 9.808089629569983,-36.60428882274183 l -9.808089629569983,36.60428882274183 l 3.899031302189324e-13,-37.895548319035846 l -3.899031302189324e-13,37.895548319035846 l -9.808089629569231,-36.60428882274203 l 9.808089629569231,36.60428882274203 l -18.947774159517678,-32.81850753462586 l 18.947774159517678,32.81850753462586 l -26.796199193172367,-26.796199193173063 l 26.796199193172367,26.796199193173063 l -32.81850753462563,-18.947774159518065 l 32.81850753462563,18.947774159518065 l -36.60428882274177,-9.80808962957018 l 36.60428882274177,9.80808962957018 l -37.895548319035846,-5.941716126345005e-13 l 37.895548319035846,5.941716126345005e-13 l -36.60428882274208,9.808089629569034 l 36.60428882274208,-9.808089629569034 l -32.818507534625695,18.947774159517973 l 32.818507534625695,-18.947774159517973 l -26.796199193173212,26.796199193172228 l 26.796199193173212,-26.796199193172228 l -18.947774159518247,32.81850753462553 l 18.947774159518247,-32.81850753462553 l -9.808089629569338,36.604288822742 l 9.808089629569338,-36.604288822742 l 2.7861616797940335e-13,37.895548319035846 l -2.7861616797940335e-13,-37.895548319035846 l 9.808089629569874,36.60428882274186 l -9.808089629569874,-36.60428882274186 l 18.94777415951779,32.818507534625795 l 18.94777415951779,32.818507534625795 l -18.94777415951779,-32.818507534625795 l 26.796199193172843,26.796199193172594 l -26.796199193172843,-26.796199193172594 l 32.81850753462597,18.947774159517486 l -32.81850753462597,-18.947774159517486 l 36.60428882274194,9.808089629569535 l -36.60428882274194,-9.808089629569535 l 37.895548319035846,-7.43476855638353e-14 l -37.895548319035846,7.43476855638353e-14 l 36.60428882274191,-9.808089629569677 l -36.60428882274191,9.808089629569677 l 32.8185075346259,-18.947774159517618 l -32.8185075346259,18.947774159517618 l 26.796199193172733,-26.796199193172697 l -26.796199193172733,26.796199193172697 l 18.947774159517667,-32.81850753462587 l -18.947774159517667,32.81850753462587 l 9.808089629569734,-36.60428882274189 l -9.808089629569734,36.60428882274189 l 1.2992079685173271e-13,-37.895548319035846 l -1.2992079685173271e-13,37.895548319035846 l -9.808089629569482,-36.60428882274196 l 9.808089629569482,36.60428882274196 l -18.947774159517436,-32.818507534626 l 18.947774159517436,32.818507534626 l -26.796199193172555,-26.79619919317288 l 26.796199193172555,26.79619919317288 l -32.818507534625766,-18.94777415951784 l 32.818507534625766,18.94777415951784 l -36.604288822741836,-9.80808962956993 l 36.604288822741836,9.80808962956993 l -37.895548319035846,-3.3418927926730073e-13 l 37.895548319035846,3.3418927926730073e-13 l -36.60428882274201,9.808089629569285 l 36.60428882274201,-9.808089629569285 l -32.8185075346261,18.947774159517262 l 32.8185075346261,-18.947774159517262 l -26.796199193173024,26.79619919317241 l 26.796199193173024,-26.79619919317241 l -18.94777415951802,32.81850753462567 l 18.94777415951802,-32.81850753462567 l -9.808089629570127,36.604288822741786 l 9.808089629570127,-36.604288822741786 l -5.384577616828688e-13,37.895548319035846 l 5.384577616828688e-13,-37.895548319035846 l 9.808089629569086,36.60428882274207 l -9.808089629569086,-36.60428882274207 l 18.947774159517085,32.81850753462621 l -18.947774159517085,-32.81850753462621 l 26.79619919317226,26.796199193173177 l 26.79619919317226,26.796199193173177 l -26.79619919317226,-26.796199193173177 l 32.81850753462557,18.947774159518197 l -32.81850753462557,-18.947774159518197 l 36.60428882274201,9.808089629569285 l -36.60428882274201,-9.808089629569285 l 37.895548319035846,7.427262440984368e-13 l -37.895548319035846,-7.427262440984368e-13 l 36.60428882274211,-9.80808962956889 l -36.60428882274211,9.80808962956889 l 32.818507534625766,-18.94777415951784 l -32.818507534625766,18.94777415951784 l 26.796199193172555,-26.796199193172885 l -26.796199193172555,26.796199193172885 l 18.947774159517436,-32.818507534626 l -18.947774159517436,32.818507534626 l 9.808089629569482,-36.60428882274196 l -9.808089629569482,36.60428882274196 l -1.3006153651546701e-13,-37.895548319035846 l 1.3006153651546701e-13,37.895548319035846 l -9.808089629569734,-36.60428882274189 l 9.808089629569734,36.60428882274189 l -18.947774159517667,-32.81850753462587 l 18.947774159517667,32.81850753462587 l -26.796199193172733,-26.796199193172697 l 26.796199193172733,26.796199193172697 l -32.8185075346259,-18.947774159517618 l 32.8185075346259,18.947774159517618 l -36.60428882274191,-9.808089629569677 l 36.60428882274191,9.808089629569677 l -37.895548319035846,-7.4206945900101e-14 l 37.895548319035846,7.4206945900101e-14 l -36.60428882274194,9.808089629569535 l 36.60428882274194,-9.808089629569535 l -32.81850753462597,18.947774159517486 l 32.81850753462597,-18.947774159517486 l -26.796199193172843,26.796199193172594 l 26.796199193172843,-26.796199193172594 l -18.94777415951779,32.818507534625795 l 18.94777415951779,-32.818507534625795 l -9.808089629569874,36.60428882274186 l 9.808089629569874,-36.60428882274186 l -2.78475428315669e-13,37.895548319035846 l 2.78475428315669e-13,-37.895548319035846 l 9.808089629569338,36.604288822742 l -9.808089629569338,-36.604288822742 l 18.947774159517312,32.81850753462607 l -18.947774159517312,-32.81850753462607 l 26.796199193172445,26.79619919317299 l -26.796199193172445,-26.79619919317299 l 32.818507534625695,18.947774159517973 l 32.818507534625695,18.947774159517973 l -32.818507534625695,-18.947774159517973 l 36.6042888227418,9.808089629570073 l -36.6042888227418,-9.808089629570073 l 37.895548319035846,4.82743910731237e-13 l -37.895548319035846,-4.82743910731237e-13 l 36.60428882274205,-9.80808962956914 l -36.60428882274205,9.80808962956914 l 32.81850753462617,-18.94777415951713 l -32.81850753462617,18.94777415951713 l 26.796199193173134,-26.796199193172303 l -26.796199193173134,26.796199193172303 l 18.947774159518143,-32.81850753462559 l -18.947774159518143,32.81850753462559 l 9.80808962957027,-36.604288822741744 l -9.80808962957027,36.604288822741744 l 6.87012393146805e-13,-37.895548319035846 l -6.87012393146805e-13,37.895548319035846 l -9.808089629568943,-36.604288822742106 l 9.808089629568943,36.604288822742106 l -18.947774159517888,-32.818507534625745 l 18.947774159517888,32.818507534625745 l -26.79619919317292,-26.796199193172512 l 26.79619919317292,26.796199193172512 l -32.81850753462549,-18.947774159518325 l 32.81850753462549,18.947774159518325 l -36.60428882274197,-9.808089629569428 l 36.60428882274197,9.808089629569428 l -37.895548319035846,1.857753874670987e-13 l 37.895548319035846,-1.857753874670987e-13 l -36.60428882274187,9.808089629569785 l 36.60428882274187,-9.808089629569785 l -32.81850753462584,18.94777415951771 l 32.81850753462584,-18.94777415951771 l -26.796199193172654,26.79619919317277 l 26.796199193172654,-26.79619919317277 l -18.947774159517568,32.81850753462592 l 18.947774159517568,-32.81850753462592 l -9.808089629569624,36.60428882274192 l 9.808089629569624,-36.60428882274192 l -1.84930949484693e-14,37.895548319035846 l 1.84930949484693e-14,-37.895548319035846 l 9.808089629569588,36.604288822741935 l -9.808089629569588,-36.604288822741935 l 18.947774159517536,32.818507534625944 l -18.947774159517536,-32.818507534625944 l 26.796199193172633,26.796199193172804 l -26.796199193172633,-26.796199193172804 l 32.81850753462582,18.947774159517746 l -32.81850753462582,-18.947774159517746 l 36.60428882274187,9.808089629569823 l 36.60428882274187,9.808089629569823 l -36.60428882274187,-9.808089629569823 l 37.895548319035846,2.227615773640373e-13 l -37.895548319035846,-2.227615773640373e-13 l 36.60428882274198,-9.80808962956939 l -36.60428882274198,9.80808962956939 l 32.81850753462605,-18.94777415951736 l -32.81850753462605,18.94777415951736 l 26.796199193172946,-26.796199193172487 l -26.796199193172946,26.796199193172487 l 18.94777415951792,-32.818507534625724 l -18.94777415951792,32.818507534625724 l 9.80808962957002,-36.604288822741815 l -9.80808962957002,36.604288822741815 l 4.2703005977960535e-13,-37.895548319035846 l -4.2703005977960535e-13,37.895548319035846 l -9.808089629569196,-36.604288822742035 l 9.808089629569196,36.604288822742035 l -18.947774159517184,-32.81850753462614 l 18.947774159517184,32.81850753462614 l -26.796199193172345,-26.796199193173088 l 26.796199193172345,26.796199193173088 l -32.81850753462562,-18.9477741595181 l 32.81850753462562,18.9477741595181 l -36.60428882274176,-9.808089629570215 l 36.60428882274176,9.808089629570215 l -37.895548319035846,-6.312985421951734e-13 l 37.895548319035846,6.312985421951734e-13 l -36.60428882274209,9.808089629568997 l 36.60428882274209,-9.808089629568997 l -32.81850753462571,18.947774159517937 l 32.81850753462571,-18.947774159517937 l -26.796199193173234,26.796199193172196 l 26.796199193173234,-26.796199193172196 l -18.947774159518275,32.81850753462552 l 18.947774159518275,-32.81850753462552 l -9.808089629569373,36.604288822741985 l 9.808089629569373,-36.604288822741985 l 2.414892384187304e-13,37.895548319035846 l -2.414892384187304e-13,-37.895548319035846 l 9.80808962956984,36.604288822741864 l -9.80808962956984,-36.604288822741864 l 18.94777415951776,32.818507534625816 l -18.94777415951776,-32.818507534625816 l 26.796199193172814,26.796199193172615 l -26.796199193172814,-26.796199193172615 l 32.81850753462596,18.94777415951752 l -32.81850753462596,-18.94777415951752 l 36.604288822741935,9.808089629569569 l -36.604288822741935,-9.808089629569569 l 37.895548319035846,-3.722075600316241e-14 " /></g></svg>